<?xml version="1.0" encoding="UTF-8"?>
<svg version="1.1" xmlns="http://www.w3.org/2000/svg" width="512" height="512">
<path d="M0 0 C0.79859436 -0.00978378 1.59718872 -0.01956757 2.41998291 -0.02964783 C5.07009205 -0.05962719 7.72015052 -0.08099681 10.37036133 -0.09985352 C11.72805854 -0.10971126 11.72805854 -0.10971126 13.11318398 -0.11976814 C17.90633201 -0.15237643 22.69945771 -0.176821 27.49267578 -0.19628906 C31.45719847 -0.21408869 35.42100807 -0.24888474 39.38525391 -0.29882812 C44.17277646 -0.35907471 48.95963876 -0.38977131 53.74752235 -0.39946175 C55.5699767 -0.40801198 57.39241363 -0.42681957 59.21465111 -0.45620537 C61.77148219 -0.49520955 64.32575347 -0.49614368 66.8828125 -0.48828125 C67.63061478 -0.50828186 68.37841705 -0.52828247 69.14888 -0.54888916 C74.39499859 -0.47677048 77.06707802 1.09305742 80.89481068 4.63960171 C84.61915691 8.90505121 84.76509152 14.73300481 85.38989258 20.14624023 C85.47625977 20.82364258 85.56262695 21.50104492 85.65161133 22.19897461 C87.0701037 33.94093921 87.0701037 33.94093921 84.26489258 39.20874023 C84.07377196 41.1199464 83.954544 43.03909019 83.88989258 44.95874023 C83.50812015 50.45090496 82.49012396 54.70365514 79.26489258 59.20874023 C78.57758057 59.68182617 77.89026855 60.15491211 77.18212891 60.64233398 C74.07447776 64.8022256 75.02289172 68.96731595 75.35864258 73.98999023 C75.4190271 75.15067017 75.47941162 76.3113501 75.54162598 77.50720215 C75.68381391 80.1968458 75.8340665 82.88498553 75.99487305 85.57348633 C76.29878482 90.70170272 76.55746625 95.83195696 76.81567383 100.96264648 C77.3829391 112.1540832 77.98552107 123.34346499 78.59307861 134.53277588 C78.82378987 138.79745088 79.05129064 143.06229485 79.27881622 147.32714081 C79.50038135 151.47267715 79.72391589 155.61810552 79.94804382 159.76350403 C80.05387189 161.72488772 80.15912072 163.68630275 80.26374817 165.64775085 C79.7085287 186.44938578 79.7085287 186.44938578 88.24926758 204.00952148 C90.55044638 205.79888638 92.90202456 207.50200747 95.26489258 209.20874023 C102.50934399 215.03964015 108.76420714 221.71088285 114.26489258 229.20874023 C114.76118164 228.49588867 115.2574707 227.78303711 115.76879883 227.04858398 C122.22334278 217.94853435 128.49099986 211.48881985 137.71411133 205.20092773 C144.31976611 200.04184054 145.13289805 195.18679487 146.26489258 187.20874023 C146.63807733 183.46867936 146.8549884 179.73031336 147.04272461 175.97680664 C147.13094482 174.38175041 147.13094482 174.38175041 147.22094727 172.75447083 C147.41169492 169.27341246 147.59241621 165.79191717 147.77270508 162.31030273 C147.90385572 159.86849253 148.03552747 157.42671026 148.16769409 154.98495483 C148.44255495 149.87975718 148.71272867 144.77434096 148.97924805 139.66870117 C149.31949454 133.15350932 149.66893785 126.63885279 150.02160835 120.12432289 C150.29381008 115.08503988 150.56234584 110.04556691 150.82967758 105.00602341 C150.95722839 102.60522438 151.08560334 100.20446899 151.21484756 97.80376053 C154.09366385 77.91020988 154.09366385 77.91020988 149.95239258 59.83374023 C149.06551758 58.96749023 148.17864258 58.10124023 147.26489258 57.20874023 C144.44111843 52.06543732 143.8496439 47.6983289 143.57348633 41.85717773 C143.40976995 39.20028503 143.40976995 39.20028503 142.19458008 36.98217773 C140.77293601 32.74113871 141.45547016 28.84984549 141.95239258 24.45874023 C142.03166992 23.60280273 142.11094727 22.74686523 142.19262695 21.86499023 C143.67018658 7.83348875 143.67018658 7.83348875 148.826828 2.61714172 C152.44986839 -0.31487485 155.9370942 -0.49349245 160.4699707 -0.42236328 C161.27075546 -0.42951859 162.07154022 -0.43667389 162.89659119 -0.44404602 C165.53036427 -0.46088542 168.16242365 -0.4415596 170.79614258 -0.42016602 C172.63407532 -0.42099516 174.47200799 -0.42345625 176.30993652 -0.42747498 C180.15664057 -0.43032971 184.00276132 -0.41566365 187.84936523 -0.38818359 C192.77237733 -0.35410128 197.69434674 -0.36012206 202.61740875 -0.37884617 C206.41107831 -0.38943057 210.20450655 -0.38046528 213.99815369 -0.36546135 C215.8129759 -0.36028964 217.62782342 -0.36074904 219.44264221 -0.3670063 C221.98224803 -0.37247602 224.52037707 -0.35202861 227.05981445 -0.32470703 C227.80492783 -0.33123291 228.5500412 -0.33775879 229.31773376 -0.34448242 C234.41873623 -0.25148533 237.36182629 0.95043495 241.26489258 4.20874023 C243.91045086 8.99484784 244.88936071 13.70055877 245.45239258 19.08374023 C245.53134766 19.78265381 245.61030273 20.48156738 245.69165039 21.20166016 C247.1567304 34.8709835 247.1567304 34.8709835 244.26489258 39.20874023 C244.06891177 41.09855519 243.95310813 42.99734244 243.88989258 44.89624023 C243.5094705 50.41569747 242.50611035 54.68132493 239.26489258 59.20874023 C238.57758057 59.70212891 237.89026855 60.19551758 237.18212891 60.70385742 C234.17883554 64.62768142 235.00836863 68.22631524 235.35864258 73.00561523 C235.44921936 74.6069632 235.44921936 74.6069632 235.54162598 76.24066162 C235.68459171 78.75515399 235.83644788 81.26914914 235.99487305 83.78271484 C236.30629232 88.77501745 236.56137204 93.76989202 236.81567383 98.76538086 C237.38717083 109.93770563 237.9878505 121.10832797 238.59307861 132.27886963 C238.82325617 136.53891244 239.05103127 140.79908239 239.27881622 145.05925369 C239.50077282 149.20485387 239.72418994 153.35037437 239.94804382 157.4958725 C240.05371193 159.45561175 240.15895833 161.4153738 240.26374817 163.37516022 C239.67853947 183.96314398 239.67853947 183.96314398 246.26489258 202.20874023 C248.82554288 204.35925852 251.42588802 206.37879493 254.12329102 208.35131836 C262.07210851 214.16709183 268.87514241 220.94445664 274.26489258 229.20874023 C274.76118164 228.49588867 275.2574707 227.78303711 275.76879883 227.04858398 C282.4671114 217.60485298 289.25999314 210.22631229 299.26489258 204.20874023 C299.92489258 204.20874023 300.58489258 204.20874023 301.26489258 204.20874023 C301.69801758 203.34249023 301.69801758 203.34249023 302.13989258 202.45874023 C302.83592548 201.06667442 303.5600792 199.68782266 304.32739258 198.33374023 C306.88116436 192.54519087 306.60287143 185.71239157 306.92919922 179.484375 C306.98786667 178.41519333 307.04653412 177.34601166 307.10697937 176.24443054 C307.29977365 172.71317946 307.48759506 169.18168481 307.67504883 165.65014648 C307.80796147 163.18357898 307.9410565 160.7170213 308.07432556 158.25047302 C308.35306169 153.07660452 308.62928583 147.90260934 308.90380859 142.72851562 C309.25405979 136.13166249 309.61093617 129.53518768 309.96979618 122.93879795 C310.2463433 117.84023654 310.51908228 112.74147661 310.79073906 107.64265251 C310.92069048 105.21278322 311.05184761 102.78297808 311.1842823 100.35324287 C312.04676338 84.87837583 312.04676338 84.87837583 312.52441406 69.38818359 C312.55715675 67.72897133 312.55715675 67.72897133 312.59056091 66.03623962 C312.13396654 62.07202148 310.51049261 59.73682142 307.77270508 56.91967773 C303.72100586 52.32215376 303.90245623 46.87343956 303.60864258 41.04858398 C303.44798635 38.26885993 303.44798635 38.26885993 302.23266602 36.29785156 C301.10872205 33.87161833 301.14016355 32.57738106 301.43676758 29.94311523 C301.56825195 28.73075195 301.56825195 28.73075195 301.70239258 27.49389648 C301.80551758 26.65729492 301.90864258 25.82069336 302.01489258 24.95874023 C302.14637695 23.72704102 302.14637695 23.72704102 302.28051758 22.47045898 C303.23570579 14.09929564 304.23081387 7.39367091 310.26489258 1.20874023 C313.35635037 -0.33698866 316.6219779 0.04375397 320.01586914 0.03173828 C320.81606979 0.02516708 321.61627045 0.01859589 322.4407196 0.01182556 C325.09565317 -0.00792564 327.75053009 -0.01957485 330.40551758 -0.02954102 C331.76508701 -0.03565431 331.76508701 -0.03565431 333.1521225 -0.0418911 C337.95061516 -0.06276088 342.74907917 -0.07705794 347.54760742 -0.08642578 C352.50199456 -0.09748445 357.45593185 -0.13187542 362.41016006 -0.17159748 C366.22091501 -0.19775739 370.03156276 -0.20611712 373.8423996 -0.20970726 C375.66842431 -0.21457585 377.49444416 -0.2261976 379.32038116 -0.24474525 C381.8793944 -0.26912084 384.43724385 -0.26817468 386.99633789 -0.26123047 C387.74773544 -0.27404053 388.499133 -0.28685059 389.27330017 -0.30004883 C394.40787829 -0.2493853 397.32586684 0.94761696 401.26489258 4.20874023 C406.55740415 12.71456241 407.48045449 26.37698951 406.26489258 36.20874023 C405.93618164 37.0144043 405.6074707 37.82006836 405.26879883 38.65014648 C404.17792697 41.4303841 404.03408937 43.550057 403.95239258 46.52124023 C403.53388173 52.15972276 401.81577986 55.85736391 398.26489258 60.20874023 C397.74515869 60.61294189 397.2254248 61.01714355 396.68994141 61.43359375 C394.60005938 64.03690576 394.98811944 65.97299907 395.11254883 69.26733398 C395.14026367 70.4577832 395.16797852 71.64823242 395.1965332 72.87475586 C395.28364222 75.38531584 395.37477619 77.89573946 395.4699707 80.40600586 C395.50960937 82.19361328 395.50960937 82.19361328 395.55004883 84.01733398 C395.59009033 85.10844482 395.63013184 86.19955566 395.67138672 87.32373047 C395.166409 90.90770744 394.05435574 91.9906791 391.26489258 94.20874023 C390.60489258 94.53874023 389.94489258 94.86874023 389.26489258 95.20874023 C389.26489258 101.14874023 389.26489258 107.08874023 389.26489258 113.20874023 C390.91489258 113.53874023 392.56489258 113.86874023 394.26489258 114.20874023 C396.76725083 115.90676905 397.20178913 116.90218334 397.81594849 119.88577271 C398.28122867 123.32965573 398.52593497 126.71786908 398.69799805 130.1887207 C398.73233948 130.85949646 398.76668091 131.53027222 398.80206299 132.22137451 C398.87597551 133.66828504 398.94848049 135.11526802 399.01971054 136.56231308 C399.1337112 138.85878566 399.25357167 141.15488164 399.37527466 143.45095825 C399.720946 149.97604607 400.06298302 156.50126095 400.38452148 163.02758789 C400.58210037 167.02922979 400.79227136 171.03004476 401.01047134 175.03061295 C401.09084816 176.54769221 401.16660191 178.06502423 401.23748398 179.58257675 C401.41259158 192.33609999 401.41259158 192.33609999 407.17504883 203.23999023 C408.24045898 203.96702148 408.24045898 203.96702148 409.32739258 204.70874023 C410.12274414 205.28237305 410.9180957 205.85600586 411.73754883 206.44702148 C412.57157227 207.02838867 413.4055957 207.60975586 414.26489258 208.20874023 C429.03559755 218.81868324 438.03416534 233.08543401 441.66249275 250.90624237 C443.10529239 259.92753951 442.68935724 269.19724373 442.66894531 278.3034668 C442.67465661 280.61440357 442.6816238 282.92533752 442.68974304 285.23626709 C442.70759954 291.47562102 442.70652094 297.71483376 442.70080066 303.95420551 C442.69769979 309.17316495 442.70381081 314.39209761 442.7098394 319.61105323 C442.72465614 332.62488099 442.72109178 345.63862978 442.7089761 358.65245721 C442.69903283 369.93542969 442.71201035 381.21823844 442.73591029 392.50118569 C442.76032611 404.11596395 442.76950455 415.73065921 442.76325756 427.34546256 C442.75989055 433.85473171 442.76228709 440.3638654 442.77950859 446.87311554 C442.79498795 452.98986217 442.79101079 459.10629577 442.77220345 465.22303009 C442.76852126 467.46352072 442.77161517 469.70403461 442.78208923 471.94450378 C442.7953249 475.01033804 442.7837285 478.07513964 442.76609802 481.14093018 C442.77570303 482.02051588 442.78530804 482.90010159 442.7952041 483.80634141 C442.70651998 491.33675088 440.48616604 497.63883645 436.51489258 504.02124023 C431.04847212 509.33581568 425.38916609 512.32005578 417.73240662 512.36264038 C416.58158096 512.37124084 415.43075531 512.37984131 414.24505615 512.38870239 C412.98115051 512.39296234 411.71724487 512.39722229 410.41503906 512.40161133 C409.07123097 512.40951473 407.72742498 512.41778382 406.38362122 512.4263916 C401.96776348 512.45259412 397.55189638 512.46792196 393.13598633 512.48217773 C391.61350054 512.48753899 390.0910148 512.49291651 388.56852913 512.49831009 C382.23160212 512.51994023 375.89467763 512.53867372 369.55772305 512.54993248 C360.49071902 512.56614956 351.42414502 512.59927074 342.35730308 512.65633333 C335.97497356 512.69512324 329.59275859 512.71457609 323.21031433 512.71985304 C319.40252545 512.72349547 315.5951954 512.73539648 311.78753471 512.76795578 C308.19964193 512.79819505 304.61248174 512.8042928 301.02448845 512.79257202 C299.09406514 512.79224865 297.16368598 512.8166109 295.23342896 512.84194946 C288.2207834 512.7921149 283.3248111 511.8983558 277.26176548 508.2819767 C275.2023079 506.97203283 275.2023079 506.97203283 272.26489258 507.20874023 C270.24568921 508.51280908 268.24564285 509.84697442 266.26489258 511.20874023 C263.15857776 512.24417851 260.99053885 512.34451963 257.73240662 512.36264038 C256.58158096 512.37124084 255.43075531 512.37984131 254.24505615 512.38870239 C252.98115051 512.39296234 251.71724487 512.39722229 250.41503906 512.40161133 C249.07123097 512.40951473 247.72742498 512.41778382 246.38362122 512.4263916 C241.96776348 512.45259412 237.55189638 512.46792196 233.13598633 512.48217773 C231.61350054 512.48753899 230.0910148 512.49291651 228.56852913 512.49831009 C222.23160212 512.51994023 215.89467763 512.53867372 209.55772305 512.54993248 C200.49071902 512.56614956 191.42414502 512.59927074 182.35730308 512.65633333 C175.97497356 512.69512324 169.59275859 512.71457609 163.21031433 512.71985304 C159.40252545 512.72349547 155.5951954 512.73539648 151.78753471 512.76795578 C148.19964193 512.79819505 144.61248174 512.8042928 141.02448845 512.79257202 C139.09406514 512.79224865 137.16368598 512.8166109 135.23342896 512.84194946 C128.2207834 512.7921149 123.3248111 511.8983558 117.26176548 508.2819767 C115.2023079 506.97203283 115.2023079 506.97203283 112.26489258 507.20874023 C110.24568921 508.51280908 108.24564285 509.84697442 106.26489258 511.20874023 C103.15447063 512.24554755 100.9881991 512.34201347 97.72567749 512.35591125 C96.57340668 512.36306656 95.42113586 512.37022186 94.23394775 512.37759399 C92.96847107 512.3802829 91.70299438 512.3829718 90.39916992 512.38574219 C89.05373967 512.39200842 87.70831115 512.39865536 86.36288452 512.40565491 C81.94221194 512.42668471 77.52153906 512.43705861 73.10083008 512.44702148 C71.5770834 512.45106992 70.05333691 512.45518687 68.52959061 512.45937157 C61.36790245 512.47842355 54.20622459 512.49265265 47.04451597 512.50098354 C38.78904087 512.51074612 30.53383461 512.53703978 22.27845418 512.57748443 C15.89104248 512.60769865 9.50370759 512.62245756 3.11622584 512.62576455 C-0.69536926 512.62810967 -4.50667718 512.63699894 -8.31819534 512.66222572 C-11.90847587 512.68560374 -15.49828216 512.68970113 -19.08861923 512.67946434 C-21.02278471 512.67873734 -22.95692662 512.69776159 -24.89099121 512.7175293 C-33.26652447 512.66778701 -39.80403097 511.56365892 -46.29370117 506.02514648 C-47.22375977 504.90946289 -47.22375977 504.90946289 -48.17260742 503.77124023 C-48.81069336 503.0300293 -49.4487793 502.28881836 -50.10620117 501.52514648 C-54.01275229 495.96978723 -54.02273455 491.03833838 -53.99580383 484.46299744 C-53.99962938 483.47488888 -54.00345493 482.48678032 -54.0073964 481.46872908 C-54.01772404 478.15406622 -54.01373458 474.83957666 -54.00976562 471.52490234 C-54.01411238 469.14957519 -54.0192954 466.77424944 -54.0252533 464.39892578 C-54.03726897 458.61298489 -54.03979353 452.82709801 -54.03745303 447.04114615 C-54.03566895 442.33455506 -54.03742147 437.62797804 -54.04167747 432.92138863 C-54.04227266 432.25111797 -54.04286785 431.58084731 -54.04348108 430.89026542 C-54.04469287 429.52847087 -54.045907 428.16667631 -54.04712345 426.80488176 C-54.05800097 414.03186243 -54.05583624 401.25886949 -54.04973861 388.48584867 C-54.04457641 376.81892641 -54.05580605 365.15208782 -54.07483683 353.4851821 C-54.09424693 341.49326636 -54.10246522 329.50139014 -54.09871358 317.5094586 C-54.09680542 310.78203904 -54.09925081 304.05469056 -54.11342812 297.32728386 C-54.12603112 290.99483825 -54.12403877 284.66255941 -54.11101723 278.33011627 C-54.10865683 276.01145686 -54.11136679 273.69278564 -54.11964035 271.37413979 C-54.19613623 248.26117155 -50.37168925 231.36024066 -33.92260742 214.08374023 C-30.28052329 210.5126519 -26.31818344 207.69756131 -22.03198242 204.94702148 C-18.70086411 202.42602208 -16.23774356 199.7957675 -14.95999146 195.76138306 C-13.34481553 183.91257265 -12.846496 171.97897083 -12.22729492 160.04467773 C-12.09611305 157.60093645 -11.96444161 155.15722139 -11.83230591 152.71353149 C-11.55779391 147.61187736 -11.28757435 142.51002096 -11.02075195 137.40795898 C-10.67978756 130.89042673 -10.3305448 124.37337206 -9.97839165 117.85643578 C-9.70658494 112.81721733 -9.43792324 107.77783527 -9.17032242 102.73839188 C-9.04261371 100.33594824 -8.9142342 97.93354015 -8.78515244 95.53116989 C-8.60516132 92.16782084 -8.42910122 88.80428837 -8.25415039 85.44067383 C-8.20118805 84.46271347 -8.14822571 83.48475311 -8.09365845 82.47715759 C-7.95267328 79.72139883 -7.83727894 76.96619486 -7.73510742 74.20874023 C-7.69131077 73.21620869 -7.64751411 72.22367714 -7.60239029 71.20106888 C-7.57618481 70.22557461 -7.54997932 69.25008034 -7.52297974 68.24502563 C-7.4943088 67.36966974 -7.46563786 66.49431385 -7.4360981 65.59243202 C-7.88729268 61.99552475 -9.78181618 60.22453148 -12.27026367 57.73608398 C-16.35209485 53.48009467 -16.07998443 47.35268563 -16.39135742 41.79467773 C-16.57639317 39.22780841 -16.57639317 39.22780841 -17.78198242 37.27514648 C-19.9770208 32.51623131 -18.26963491 26.27377737 -17.73510742 21.20874023 C-17.63327148 20.03311523 -17.53143555 18.85749023 -17.42651367 17.64624023 C-16.63575055 10.6027419 -15.36390379 5.79743292 -9.73510742 1.20874023 C-6.64895803 -0.33433446 -3.38893864 0.0260724 0 0 Z " fill="#010100" transform="translate(61.735107421875,-0.208740234375)"/>
<path d="M0 0 C6.40287534 1.54794788 12.71219836 3.21993624 19 5.1875 C31.53413198 8.70033743 40.58844644 6.57173147 52.58203125 2.41015625 C56.39861859 1.1136914 59.99551559 0.42236885 64 0 C64.00386719 0.98226562 64.00386719 0.98226562 64.0078125 1.984375 C64.38710215 10.93561067 67.00656389 18.61606183 73.1171875 25.32421875 C76.55871415 28.45017289 80.22667947 31.16903309 84 33.875 C94.00283032 41.2623198 101.65913107 51.6355894 104 64 C104.26885065 68.16714995 104.23294351 72.3217867 104.1953125 76.49609375 C104.1924826 77.68477554 104.18965271 78.87345734 104.18673706 80.09815979 C104.17558206 83.87804418 104.15048566 87.65768776 104.125 91.4375 C104.11496417 94.00715803 104.10583937 96.57681978 104.09765625 99.14648438 C104.07736348 105.43115601 104.0382048 111.71530984 104 118 C94.43 118 84.86 118 75 118 C74.01 115.36 73.02 112.72 72 110 C69.20129973 108.60064987 67.09501208 108.74734595 64 109 C61.9538078 110.53234222 61.09124848 111.36576277 60.72290039 113.92602539 C60.76406982 114.64266357 60.80523926 115.35930176 60.84765625 116.09765625 C60.89394165 117.29297974 60.89394165 117.29297974 60.94116211 118.51245117 C60.98120361 119.35396729 61.02124512 120.1954834 61.0625 121.0625 C61.29823145 131.84847872 59.48496976 139.25687494 51.9375 147.30859375 C44.15196878 154.10523693 34.81477704 154.77418104 24.91748047 154.22216797 C16.66755458 153.2662942 10.62946471 146.47777155 5.6796875 140.37109375 C1.41882767 133.71163799 1.98090842 124.59176483 3 117 C5.32261592 108.56580024 10.85426785 103.23528309 18.09375 98.68359375 C25.53730982 94.81348203 33.42552993 95.32155557 41.5 96.75 C44.99417853 97.3449612 44.99417853 97.3449612 47.5 95.4375 C49.40657541 92.33931496 49.53312164 90.57953104 49 87 C47.40052009 84.20091017 45.68523871 83.88925066 42.625 82.8125 C31.07129652 80.34123253 19.56714023 81.8195519 9.20703125 87.54296875 C-2.36188443 95.19140468 -8.23339646 104.8168876 -12 118 C-21.57 118 -31.14 118 -41 118 C-41.06910601 110.77714221 -41.12877155 103.55544526 -41.16479492 96.33251953 C-41.17982224 93.87870381 -41.2002498 91.42491467 -41.22631836 88.97119141 C-41.2629682 85.43124808 -41.27978755 81.89166186 -41.29296875 78.3515625 C-41.31619453 76.722827 -41.31619453 76.722827 -41.33988953 75.06118774 C-41.34313708 60.15114295 -35.87333333 48.31344154 -25.6953125 37.54296875 C-22.4169626 34.44991688 -18.94771365 31.9552816 -15.19140625 29.48046875 C-6.93683024 23.90384788 -3.24966786 16.39828347 -1 7 C-0.56789081 4.66079351 -0.25727995 2.36697557 0 0 Z " fill="#81CC63" transform="translate(224,188)"/>
<path d="M0 0 C3.39153927 0.63827831 6.6737724 1.43804063 9.984375 2.41015625 C11.38816406 2.81137695 11.38816406 2.81137695 12.8203125 3.22070312 C14.76005643 3.77805621 16.69761918 4.34306205 18.6328125 4.91601562 C29.93186952 8.11225573 37.74918997 6.87146283 48.9375 3.5 C51.17520201 2.8417776 53.4134558 2.18542716 55.65234375 1.53125 C56.63195068 1.23798828 57.61155762 0.94472656 58.62084961 0.64257812 C61 0 61 0 63 0 C63.15855469 0.90621094 63.31710938 1.81242188 63.48046875 2.74609375 C66.35212516 17.738996 71.75313942 25.11740699 84.0625 33.9375 C94.60078893 41.75217549 101.77254452 53.00400076 104 66 C104.25921274 70.05485379 104.23356234 74.09452772 104.1953125 78.15625 C104.1924826 79.29912476 104.18965271 80.44199951 104.18673706 81.61950684 C104.17560025 85.24644732 104.15050741 88.87313496 104.125 92.5 C104.11496181 94.96874642 104.10583743 97.43749673 104.09765625 99.90625 C104.07738937 105.93767425 104.03822746 111.96855625 104 118 C94.43 118 84.86 118 75 118 C73.68 114.04 72.36 110.08 71 106 C69.07465564 102.70552188 67.33624149 99.93877579 65 97 C64.52175781 96.38511719 64.04351562 95.77023437 63.55078125 95.13671875 C56.5860549 87.22464926 45.80837942 82.62563287 35.46484375 81.796875 C21.90710296 81.54541767 10.15993266 84.98161182 0.1875 94.375 C-6.49390593 101.57397962 -8.7756419 108.3269257 -12 118 C-21.57 118 -31.14 118 -41 118 C-41.09225227 110.67107 -41.17176785 103.34418653 -41.21972656 96.01513672 C-41.23973667 93.52646018 -41.26695343 91.03783002 -41.30175781 88.54931641 C-41.35074344 84.95463556 -41.37307583 81.36058087 -41.390625 77.765625 C-41.41127014 76.66825012 -41.43191528 75.57087524 -41.45318604 74.44024658 C-41.45713488 60.58322506 -36.26370129 48.39656708 -26.75 38.3125 C-23.8496151 35.56924656 -20.69351291 33.30432307 -17.4375 31 C-8.03124245 24.29965215 -2.69179496 16.97546884 -0.75 5.5 C-0.48705872 3.66847796 -0.23251352 1.83563302 0 0 Z " fill="#81CB63" transform="translate(64,188)"/>
<path d="M0 0 C2.64717482 0.59872955 5.2928942 1.20258676 7.9375 1.8125 C8.7207666 1.99264648 9.5040332 2.17279297 10.31103516 2.35839844 C14.26758043 3.28770548 18.07363794 4.29222996 21.875 5.75 C31.2650444 9.02599295 40.37963886 6.4307364 49.5 3.5 C51.61356165 2.84046691 53.72810306 2.18406297 55.84375 1.53125 C56.76349609 1.23798828 57.68324219 0.94472656 58.63085938 0.64257812 C61 0 61 0 64 0 C64.08636719 0.82242188 64.17273438 1.64484375 64.26171875 2.4921875 C65.71444987 14.03406958 68.59859951 21.6940525 77.66796875 29.19921875 C79.80205428 30.84714744 81.95344837 32.46440667 84.125 34.0625 C93.87568929 41.3658819 101.62794065 51.7001168 104 64 C104.0856191 65.80207506 104.11774058 67.60702988 104.11352539 69.41113281 C104.11344986 70.49195129 104.11337433 71.57276978 104.11329651 72.68634033 C104.10813522 73.84687927 104.10297394 75.00741821 104.09765625 76.203125 C104.09553383 77.99251495 104.09553383 77.99251495 104.09336853 79.8180542 C104.08777038 83.62872829 104.07521819 87.43934366 104.0625 91.25 C104.05748476 93.83333248 104.0529219 96.41666589 104.04882812 99 C104.0386524 105.33337417 104.01907644 111.66662134 104 118 C94.43 118 84.86 118 75 118 C74.01 114.7 73.02 111.4 72 108 C70.63017739 105.06848226 70.63017739 105.06848226 69.0625 102.6875 C68.57910156 101.90761719 68.09570312 101.12773437 67.59765625 100.32421875 C61.32183008 91.19434939 52.05366241 85.0134156 41.25 82.3125 C27.7120074 81.01076994 15.78960219 82.62434348 4.58203125 90.75390625 C-3.40662847 97.37766934 -7.88399131 105.07053594 -10.45703125 115.06640625 C-11 117 -11 117 -12 118 C-14.14558827 118.08775605 -16.29404421 118.10695219 -18.44140625 118.09765625 C-19.74658203 118.09443359 -21.05175781 118.09121094 -22.39648438 118.08789062 C-23.7851569 118.07953401 -25.17382877 118.07106905 -26.5625 118.0625 C-27.95507656 118.05748666 -29.34765481 118.05292347 -30.74023438 118.04882812 C-34.1601987 118.03699434 -37.58007844 118.0205088 -41 118 C-41.10215385 110.81425237 -41.17177946 103.62869481 -41.21972656 96.44238281 C-41.23973329 94.00220746 -41.26694745 91.56207938 -41.30175781 89.12207031 C-41.35075874 85.59688589 -41.37307916 82.07234011 -41.390625 78.546875 C-41.41127014 77.4713739 -41.43191528 76.3958728 -41.45318604 75.28778076 C-41.4569933 62.17986544 -36.68837587 49.22481557 -27.7109375 39.52734375 C-23.45804446 35.59173004 -18.94481385 32.23496519 -14.1875 28.9375 C-4.80542502 22.21522343 -2.34018779 13.73324576 -0.421875 2.6640625 C-0.28265625 1.78492188 -0.1434375 0.90578125 0 0 Z " fill="#81CB63" transform="translate(384,188)"/>
<path d="M0 0 C0.33 0.66 0.66 1.32 1 2 C7.6 2 14.2 2 21 2 C21.66 3.65 22.32 5.3 23 7 C26.87162921 9.58108614 30.10977344 9.30716625 34.60229492 9.31884766 C35.48055435 9.32889328 36.35881378 9.3389389 37.26368713 9.34928894 C40.16927429 9.38020214 43.07476897 9.39717867 45.98046875 9.4140625 C47.99401144 9.4327676 50.00754623 9.45234052 52.02107239 9.4727478 C57.32285923 9.52414448 62.62467152 9.56372987 67.92657471 9.60089111 C73.33587983 9.64088354 78.74507846 9.69199758 84.15429688 9.7421875 C94.76945652 9.83903601 105.3846762 9.92341222 116 10 C116.06959394 17.73660514 116.12285889 25.47317771 116.15543652 33.21002483 C116.17107439 36.80280829 116.19227779 40.39537715 116.22631836 43.98803711 C116.25897965 47.45694391 116.27686714 50.92564464 116.28463173 54.39469337 C116.29285018 56.35838752 116.31625892 58.32199908 116.33988953 60.28556824 C116.34022942 62.08686943 116.34022942 62.08686943 116.34057617 63.92456055 C116.35056892 65.50674629 116.35056892 65.50674629 116.36076355 67.12089539 C115.93392018 70.52735569 115.1012407 72.29277916 113 75 C109.39082798 77.57797026 106.91042574 78.37636259 102.49707031 78.38768005 C101.40358276 78.39758469 100.31009521 78.40748932 99.18347168 78.41769409 C97.39882507 78.41094162 97.39882507 78.41094162 95.578125 78.40405273 C94.31746216 78.41091599 93.05679932 78.41777924 91.75793457 78.42485046 C88.30751778 78.44276979 84.85735545 78.44161609 81.40690613 78.43590808 C78.52412718 78.4328149 75.64139703 78.43890999 72.75862503 78.44494683 C65.95753154 78.45898595 59.15656369 78.45743548 52.35546875 78.44604492 C45.34290007 78.43455962 38.33071366 78.44864737 31.31819534 78.4754414 C25.29256118 78.49760122 19.26704699 78.50423531 13.24137497 78.49836498 C9.64458814 78.49499539 6.04804644 78.49741051 2.45129395 78.51461601 C-1.5587586 78.53296221 -5.56806739 78.5188954 -9.578125 78.50170898 C-10.7678894 78.51137695 -11.95765381 78.52104492 -13.18347168 78.53100586 C-21.1879583 78.45901856 -21.1879583 78.45901856 -25.15136719 76.21864319 C-28.60211566 72.07721525 -29.24976901 69.44502394 -29.22705078 64.03808594 C-29.22689972 62.83714294 -29.22674866 61.63619995 -29.22659302 60.39886475 C-29.21627045 59.10708313 -29.20594788 57.81530151 -29.1953125 56.484375 C-29.19158034 55.14487927 -29.18873432 53.80538079 -29.18673706 52.46588135 C-29.17911657 48.94771735 -29.15948187 45.4297196 -29.1373291 41.91162109 C-29.11683643 38.31870777 -29.10772804 34.72576747 -29.09765625 31.1328125 C-29.07623434 24.08847383 -29.04211765 17.04424779 -29 10 C-27.94087402 9.97812622 -27.94087402 9.97812622 -26.86035156 9.95581055 C-23.65635326 9.88126833 -20.45338984 9.78462795 -17.25 9.6875 C-16.13882813 9.66494141 -15.02765625 9.64238281 -13.8828125 9.61914062 C-12.27792969 9.5659668 -12.27792969 9.5659668 -10.640625 9.51171875 C-9.16384277 9.47244263 -9.16384277 9.47244263 -7.65722656 9.43237305 C-4.59883347 8.93472382 -3.19780405 8.16265186 -1 6 C-0.19053578 2.89802603 -0.19053578 2.89802603 0 0 Z " fill="#81CC63" transform="translate(52,419)"/>
<path d="M0 0 C47.85 0 95.7 0 145 0 C145 61 145 61 140 67 C136.96574274 68.01141909 134.91235909 68.13288064 131.73757935 68.14717102 C130.64684113 68.15432632 129.55610291 68.16148163 128.43231201 68.16885376 C126.63687958 68.17288712 126.63687958 68.17288712 124.80517578 68.17700195 C123.54480499 68.18357315 122.2844342 68.19014435 120.98587036 68.19691467 C116.80569731 68.21793305 112.62552398 68.22831338 108.4453125 68.23828125 C107.0056748 68.24232931 105.5660373 68.24644625 104.12639999 68.25063133 C97.3641044 68.2696763 90.6018197 68.28391008 83.83950245 68.2922433 C76.0345048 68.30202052 68.22979038 68.32835529 60.42489254 68.36874419 C54.39083112 68.39889783 48.35685095 68.41371135 42.32271564 68.41702431 C38.71915736 68.41937524 35.11590191 68.42834098 31.51242447 68.45348549 C27.492639 68.48108285 23.47348742 68.47693747 19.45361328 68.4699707 C17.66425354 68.48918579 17.66425354 68.48918579 15.83874512 68.50878906 C7.81156428 68.45794959 7.81156428 68.45794959 3.84664917 66.22062683 C-10.29080212 49.22010276 0 22.11075185 0 0 Z " fill="#81CC63" transform="translate(343,429)"/>
<path d="M0 0 C47.85 0 95.7 0 145 0 C145 60 145 60 142 65 C138.46432736 67.69791202 135.90282974 68.37638207 131.49707031 68.38768005 C130.40358276 68.39758469 129.31009521 68.40748932 128.18347168 68.41769409 C126.39882507 68.41094162 126.39882507 68.41094162 124.578125 68.40405273 C123.31746216 68.41091599 122.05679932 68.41777924 120.75793457 68.42485046 C117.30751778 68.44276979 113.85735545 68.44161609 110.40690613 68.43590808 C107.52412718 68.4328149 104.64139703 68.43890999 101.75862503 68.44494683 C94.95753154 68.45898595 88.15656369 68.45743548 81.35546875 68.44604492 C74.34290007 68.43455962 67.33071366 68.44864737 60.31819534 68.4754414 C54.29256118 68.49760122 48.26704699 68.50423531 42.24137497 68.49836498 C38.64458814 68.49499539 35.04804644 68.49741051 31.45129395 68.51461601 C27.4412414 68.53296221 23.43193261 68.5188954 19.421875 68.50170898 C18.2321106 68.51137695 17.04234619 68.52104492 15.81652832 68.53100586 C7.8120417 68.45901856 7.8120417 68.45901856 3.84863281 66.21864319 C-10.30485887 49.23228023 0 22.11013011 0 0 Z " fill="#81CC63" transform="translate(183,429)"/>
<path d="M0 0 C9.57 0 19.14 0 29 0 C31.475 6.435 31.475 6.435 34 13 C38.78128688 21.12818769 43.95793211 26.10482824 52 31 C52.72316406 31.45632813 53.44632813 31.91265625 54.19140625 32.3828125 C63.47390989 37.13200041 76.79531659 36.47606153 86.7109375 34.1171875 C95.85965658 30.56588523 103.18217158 24.87986612 108.7109375 16.796875 C110 15 110 15 113 12 C113 27.51 113 43.02 113 59 C107.40417969 58.96519531 101.80835937 58.93039062 96.04296875 58.89453125 C92.50194272 58.87920609 88.96095746 58.8647645 85.41992188 58.85351562 C79.79703297 58.83556879 74.17429034 58.81431763 68.55151367 58.77368164 C64.01926888 58.74113123 59.48718091 58.72315611 54.95482826 58.71536827 C53.22401777 58.70981698 51.49321604 58.69897687 49.76247215 58.68280983 C47.34170224 58.66109263 44.92158377 58.65803063 42.50073242 58.65942383 C41.78216064 58.648638 41.06358887 58.63785217 40.32324219 58.6267395 C37.43622949 58.64476724 35.46985135 58.67914677 33.04682922 60.33378601 C31.43712881 62.89590912 31.75387324 65.04647888 32 68 C32.33 68.99 32.66 69.98 33 71 C36.50733337 72.16911112 39.27613598 72.13422253 42.97827148 72.14526367 C43.68429504 72.14862228 44.3903186 72.1519809 45.11773682 72.15544128 C47.45220701 72.16494214 49.78660542 72.1668939 52.12109375 72.16796875 C53.74390187 72.17118173 55.3667097 72.17454584 56.98951721 72.17805481 C60.39153719 72.18404377 63.79353176 72.18589493 67.19555664 72.18530273 C71.55472378 72.18520108 75.91372816 72.19885773 80.27285671 72.21607494 C83.62458545 72.22719302 86.9762748 72.22922201 90.3280201 72.22869301 C91.93517684 72.22987324 93.54233459 72.23429747 95.14947319 72.24202538 C97.39720952 72.25182223 99.64459196 72.24894866 101.89233398 72.24291992 C103.81069313 72.24505745 103.81069313 72.24505745 105.76780701 72.24723816 C109.25995051 72.18476923 109.25995051 72.18476923 113 70 C113 77.26 113 84.52 113 92 C111.29424805 92.01981934 109.58849609 92.03963867 107.83105469 92.06005859 C102.1911185 92.12786831 96.55135202 92.20464661 90.91161728 92.28752708 C87.49271441 92.33744294 84.07384172 92.38377312 80.65478516 92.421875 C76.72280523 92.46585076 72.7911375 92.52548319 68.859375 92.5859375 C67.63321472 92.59748871 66.40705444 92.60903992 65.14373779 92.62094116 C63.43241669 92.6507457 63.43241669 92.6507457 61.68652344 92.68115234 C60.68280701 92.69447601 59.67909058 92.70779968 58.6449585 92.7215271 C55.91640137 93.00880163 54.27705685 93.48770348 52 95 C50.71745356 97.53770003 50.71745356 97.53770003 50 100 C46.72963272 100.14510162 43.46008993 100.23399373 40.1875 100.3125 C39.25873047 100.35439453 38.32996094 100.39628906 37.37304688 100.43945312 C34.82304076 100.48548212 32.50522229 100.48415402 30 100 C27.98828125 97.54296875 27.98828125 97.54296875 27 95 C18.92810087 90.96405044 9.01744651 93.36069786 0 93 C0 62.31 0 31.62 0 0 Z " fill="#E5377D" transform="translate(23,321)"/>
<path d="M0 0 C9.57 0 19.14 0 29 0 C29.99 2.64 30.98 5.28 32 8 C37.30412038 20.28229869 44.16418005 27.2007982 56.265625 33.10546875 C66.21264222 36.80951537 79.77692916 36.76309675 89.625 32.9375 C98.08190173 28.7267414 104.15254183 23.4222871 109.58984375 15.72265625 C110.05519531 15.15417969 110.52054687 14.58570313 111 14 C111.66 14 112.32 14 113 14 C113 29.18 113 44.36 113 60 C111.515 59.505 111.515 59.505 110 59 C107.60913811 58.89467024 105.21541437 58.85127773 102.82226562 58.83886719 C102.09512863 58.83390228 101.36799164 58.82893738 100.61882019 58.82382202 C98.2146205 58.80922204 95.81048672 58.80240326 93.40625 58.796875 C91.73620603 58.79112329 90.06616209 58.78536556 88.39611816 58.77960205 C84.89574882 58.76909929 81.39540241 58.76325138 77.89501953 58.75976562 C73.40565235 58.7542718 68.91658707 58.73022201 64.42731476 58.70179367 C60.97868963 58.68319214 57.53013774 58.6779631 54.08146667 58.67642975 C52.42602379 58.67339881 50.77058233 58.66535544 49.1151886 58.65224457 C46.80246789 58.63522993 44.4904919 58.63705228 42.17773438 58.64355469 C40.86107788 58.63990906 39.54442139 58.63626343 38.18786621 58.63250732 C35.0511063 58.73894096 35.0511063 58.73894096 33.07873535 60.33868408 C31.35439183 62.99427458 31.5600141 64.92009869 32 68 C33.52792924 70.29867961 33.52792924 70.29867961 36 72 C39.31855659 72.59333797 39.31855659 72.59333797 43.09179688 72.48583984 C43.79796646 72.48963654 44.50413605 72.49343323 45.23170471 72.49734497 C47.56117467 72.50474197 49.8893913 72.48338177 52.21875 72.4609375 C53.84012709 72.45855241 55.46150698 72.45764789 57.08288574 72.4581604 C60.47909882 72.45503386 63.87488932 72.43848048 67.27099609 72.41162109 C71.62233605 72.37764135 75.97321179 72.36999263 80.32466888 72.37151146 C83.6721438 72.37096736 87.01951742 72.35999373 90.36695862 72.34550858 C91.97131077 72.33914838 93.57567438 72.3352035 95.18003845 72.33372116 C97.42295844 72.3293798 99.66538861 72.31186144 101.90820312 72.29052734 C103.82203796 72.27909195 103.82203796 72.27909195 105.77453613 72.26742554 C109.2603337 72.1796501 109.2603337 72.1796501 113 70 C113 77.26 113 84.52 113 92 C75.71 92 38.42 92 0 92 C0 61.64 0 31.28 0 0 Z " fill="#E4377D" transform="translate(183,321)"/>
<path d="M0 0 C9.24 0 18.48 0 28 0 C30.475 6.435 30.475 6.435 33 13 C38.86676094 22.97349361 46.9182813 30.23221564 58 34 C69.88031462 37.0300252 83.42091956 36.25202265 94 30 C99.0060054 26.89576497 102.90847494 23.30879316 106.578125 18.7109375 C108.255832 16.6921582 110.1439059 14.8560941 112 13 C112 28.51 112 44.02 112 60 C110.515 59.505 110.515 59.505 109 59 C106.60924087 58.88962822 104.21550422 58.84089151 101.82226562 58.82299805 C101.09512863 58.81642685 100.36799164 58.80985565 99.61882019 58.80308533 C97.21462907 58.7833865 94.81050016 58.77170038 92.40625 58.76171875 C91.17483025 58.75560546 91.17483025 58.75560546 89.91853333 58.74936867 C85.57736463 58.72852733 81.23622741 58.71421453 76.89501953 58.70483398 C72.40556236 58.69374438 67.91659741 58.65931015 63.42731476 58.61966228 C59.97868913 58.59356578 56.53018237 58.58514863 53.08146667 58.58155251 C51.42600664 58.57667223 49.77055242 58.56501742 48.1151886 58.54651451 C45.8023011 58.52225906 43.49070914 58.52306178 41.17773438 58.5300293 C39.20274963 58.52122993 39.20274963 58.52122993 37.18786621 58.51225281 C33.94959688 58.6991803 33.94959688 58.6991803 32.04748535 60.83796692 C30.53775635 63.95408118 30.96126523 65.74529772 32 69 C34.38266223 71.44032247 35.76932887 71.97291854 39.1875 72.3742218 C40.445625 72.37359238 41.70375 72.37296295 43 72.37231445 C43.69641602 72.37596512 44.39283203 72.37961578 45.11035156 72.38337708 C47.40715088 72.39146796 49.70324141 72.37788529 52 72.36328125 C53.59895833 72.36276246 55.1979173 72.36328088 56.796875 72.36479187 C60.14593035 72.36470221 63.49474466 72.35428613 66.84375 72.33618164 C71.13454299 72.31349464 75.42498385 72.31295105 79.71582031 72.31969929 C83.01695886 72.32304232 86.31801728 72.31640289 89.61914062 72.30657005 C91.20116761 72.30272352 92.78320351 72.30156757 94.36523438 72.3031559 C96.57699538 72.30352716 98.78830663 72.29088961 101 72.2746582 C102.258125 72.27005081 103.51625 72.26544342 104.8125 72.26069641 C108.26612452 72.17761786 108.26612452 72.17761786 112 70 C112 77.26 112 84.52 112 92 C75.04 92 38.08 92 0 92 C0 61.64 0 31.28 0 0 Z " fill="#E5377E" transform="translate(344,321)"/>
<path d="M0 0 C22.77 0 45.54 0 69 0 C68 7 68 7 66.39086914 8.58740234 C65.75785889 8.95816895 65.12484863 9.32893555 64.47265625 9.7109375 C62.03253833 11.59639809 61.12254504 12.48947794 60.39404297 15.52441406 C60.23734457 18.58494585 60.28851177 21.56414051 60.4375 24.625 C60.46392578 25.69427734 60.49035156 26.76355469 60.51757812 27.86523438 C60.74864781 35.01967508 61.28809701 42.03010925 63 49 C63.969375 49.28875 64.93875 49.5775 65.9375 49.875 C69 51 69 51 70 53 C70.08342159 54.44848582 70.10732861 55.90070869 70.09765625 57.3515625 C70.09282227 58.62773438 70.09282227 58.62773438 70.08789062 59.9296875 C70.07532227 61.26386719 70.07532227 61.26386719 70.0625 62.625 C70.05798828 63.5221875 70.05347656 64.419375 70.04882812 65.34375 C70.03702591 67.56256648 70.02056155 69.78125018 70 72 C69.195625 72.28875 68.39125 72.5775 67.5625 72.875 C64.8673532 73.73262568 64.8673532 73.73262568 64 76 C63.91489795 77.9593604 63.89282344 79.92162794 63.90234375 81.8828125 C63.90556641 83.04941406 63.90878906 84.21601562 63.91210938 85.41796875 C63.92048828 86.64128906 63.92886719 87.86460937 63.9375 89.125 C63.94201172 90.35605469 63.94652344 91.58710938 63.95117188 92.85546875 C63.9629867 95.90369392 63.97945972 98.95182314 64 102 C60.35833961 103.1593876 56.71104258 104.29997391 53.0625 105.4375 C52.04091797 105.76298828 51.01933594 106.08847656 49.96679688 106.42382812 C37.73504994 110.2144973 30.71826637 110.17421204 18.4375 106.0625 C16.63829102 105.48338867 16.63829102 105.48338867 14.80273438 104.89257812 C11.86303377 103.9439098 8.92954506 102.97948993 6 102 C5.6930517 86.6852694 6.58472769 71.42577773 7.39068604 56.13830566 C7.64481437 51.31256334 7.89539824 46.48664155 8.14196777 41.6605072 C8.27286624 39.10597772 8.40626065 36.55157445 8.54260254 33.99732971 C8.81227734 28.76369872 9.05674975 23.53083697 9.15039062 18.29077148 C9.16477173 17.51402573 9.17915283 16.73727997 9.19396973 15.93699646 C9.14346991 13.77196082 9.14346991 13.77196082 7.25 11.625 C6.5075 11.08875 5.765 10.5525 5 10 C0.88389409 6.47190922 0.99685978 5.98115867 0 0 Z " fill="#C20954" transform="translate(381,42)"/>
<path d="M0 0 C22.44 0 44.88 0 68 0 C67 7 67 7 65.15234375 8.828125 C64.42144531 9.29734375 63.69054687 9.7665625 62.9375 10.25 C59.89566123 12.63277898 59.89566123 12.63277898 58.58251953 16.12207031 C58.61974121 16.93256836 58.65696289 17.74306641 58.6953125 18.578125 C58.73100342 19.55104492 58.76669434 20.52396484 58.8034668 21.52636719 C58.90075073 23.24581543 58.90075073 23.24581543 59 25 C59.06359312 26.39479644 59.12576232 27.78965829 59.18676758 29.18457031 C59.36725047 33.13571822 59.57815903 37.08464332 59.79956055 41.03369141 C59.93721621 43.49492601 60.06953879 45.95640546 60.20117188 48.41796875 C60.72229565 58.074388 60.72229565 58.074388 61.5625 67.70703125 C62.22759571 74.52311558 62.10690347 81.34595014 62.0625 88.1875 C62.05746963 89.53450352 62.05290947 90.88150889 62.04882812 92.22851562 C62.03715354 95.48572537 62.02077883 98.74283778 62 102 C61.14712402 102.26192139 60.29424805 102.52384277 59.41552734 102.79370117 C58.2755127 103.14408447 57.13549805 103.49446777 55.9609375 103.85546875 C54.77209961 104.22075684 53.58326172 104.58604492 52.35839844 104.96240234 C49.87285546 105.73032599 47.39196646 106.50883941 44.9140625 107.30078125 C43.82867187 107.63464844 42.74328125 107.96851563 41.625 108.3125 C40.52414063 108.65925781 39.42328125 109.00601563 38.2890625 109.36328125 C30.64769675 110.84254802 23.3002977 107.70633168 16.0625 105.4375 C14.99708984 105.10814453 13.93167969 104.77878906 12.83398438 104.43945312 C10.22115762 103.631 7.60993378 102.81773465 5 102 C4.43650166 82.05504862 5.62707581 62.27538501 6.93286133 42.38134766 C7.0017305 41.31880768 7.07059967 40.2562677 7.14155579 39.16152954 C7.2716684 37.1672942 7.40509869 35.1732711 7.54264832 33.17953491 C7.72174806 30.45370443 7.86770871 27.72847731 8 25 C8.05969971 24.0095166 8.11939941 23.0190332 8.1809082 21.99853516 C8.21724365 21.02319824 8.2535791 20.04786133 8.29101562 19.04296875 C8.33150024 18.16535889 8.37198486 17.28774902 8.41369629 16.38354492 C7.85952927 13.19066646 6.51434943 12.20311459 4 10.25 C3.2575 9.78078125 2.515 9.3115625 1.75 8.828125 C0 7 0 7 0 0 Z " fill="#C20954" transform="translate(62,42)"/>
<path d="M0 0 C22.77 0 45.54 0 69 0 C68 7 68 7 66.38977051 8.59866333 C65.75647827 8.97232025 65.12318604 9.34597717 64.47070312 9.73095703 C62.12200024 11.55823466 61.1372928 12.45543979 60.40209961 15.371521 C60.25018424 18.37560045 60.31889281 21.30027875 60.46875 24.3046875 C60.49755249 25.43510468 60.52635498 26.56552185 60.55603027 27.73019409 C60.6644966 31.48928984 60.82894467 35.24326203 61 39 C61.07729073 40.99735206 61.15456638 42.99470508 61.23034668 44.99211502 C61.55068149 53.32811316 61.96088272 61.65872427 62.39068604 69.98968506 C62.5764259 73.61788665 62.75462952 77.24645901 62.93359375 80.875 C63.28196573 87.917032 63.63823363 94.95864224 64 102 C60.14582005 103.17580611 56.28649188 104.33267765 52.42163086 105.47290039 C51.109894 105.862693 49.79962695 106.2574701 48.4909668 106.6574707 C46.60086631 107.23422137 44.70474572 107.79112333 42.80859375 108.34765625 C41.67220459 108.68804932 40.53581543 109.02844238 39.36499023 109.37915039 C33.70899091 110.42269724 28.69167949 109.05108685 23.28515625 107.37109375 C22.27001953 107.05849609 21.25488281 106.74589844 20.20898438 106.42382812 C19.17064453 106.09833984 18.13230469 105.77285156 17.0625 105.4375 C15.99708984 105.10814453 14.93167969 104.77878906 13.83398438 104.43945312 C11.22115762 103.631 8.60993378 102.81773465 6 102 C5.69874058 86.85613536 6.57812591 71.7769611 7.39068604 56.66015625 C7.64477836 51.92958427 7.89579557 47.19885581 8.14196777 42.46786499 C8.2726195 39.96447745 8.40598801 37.46122962 8.54260254 34.9581604 C9.70251977 22.83312635 9.70251977 22.83312635 8 11 C7.21625 10.690625 6.4325 10.38125 5.625 10.0625 C2.56582452 8.82426231 1.56398725 7.88102915 0 5 C0 3.35 0 1.7 0 0 Z " fill="#C20954" transform="translate(221,42)"/>
<path d="M0 0 C0.33 0 0.66 0 1 0 C1 30.36 1 60.72 1 92 C37.96 92 74.92 92 113 92 C112.505 81.605 112.505 81.605 112 71 C111.01 71.66 110.02 72.32 109 73 C105.93948364 73.26742554 105.93948364 73.26742554 102.12939453 73.29052734 C101.43473083 73.29724457 100.74006714 73.30396179 100.02435303 73.31088257 C97.72710015 73.32988567 95.4301391 73.33378796 93.1328125 73.3359375 C91.53481933 73.34236415 89.93682735 73.34909242 88.33883667 73.35610962 C84.9880704 73.36808838 81.63740727 73.37178987 78.28662109 73.37060547 C73.99684854 73.37040232 69.70773877 73.39769734 65.41812325 73.43214989 C62.1169431 73.45440923 58.81592265 73.45844331 55.51467514 73.45738602 C53.93344718 73.45974371 52.35221494 73.46857681 50.77106094 73.48405075 C48.556703 73.50369109 46.34377649 73.49788182 44.12939453 73.48583984 C42.87047394 73.48868988 41.61155334 73.49153992 40.31448364 73.49447632 C36.39661042 72.9099824 34.75630623 71.79842721 32 69 C30.9375 66.0625 30.9375 66.0625 31 63 C32.54721069 60.34506226 32.54721069 60.34506226 35 58 C38.31484985 57.39199829 38.31484985 57.39199829 42.30712891 57.41650391 C43.03601822 57.41416748 43.76490753 57.41183105 44.5158844 57.40942383 C46.92017746 57.40781153 49.32254234 57.44181163 51.7265625 57.4765625 C53.39756579 57.48335252 55.06857866 57.48807436 56.73959351 57.49081421 C60.23846283 57.50148736 63.73669253 57.5281754 67.23535156 57.56787109 C71.72581602 57.61881689 76.21591343 57.64389238 80.7066288 57.65880775 C84.98415784 57.67357978 89.26160024 57.69881281 93.5390625 57.7265625 C94.35813709 57.73147327 95.17721169 57.73638405 96.02110672 57.74144363 C98.33138772 57.75768242 100.64147133 57.78108542 102.95166016 57.80712891 C104.26752106 57.81998932 105.58338196 57.83284973 106.93911743 57.84609985 C110 58 110 58 112 59 C111.99000725 58.14008705 111.99000725 58.14008705 111.97981262 57.26280212 C111.91325498 51.27657703 111.86811483 45.2904577 111.83520508 39.30395508 C111.82015259 37.07214078 111.79970602 34.8403559 111.77368164 32.60864258 C111.73714312 29.39396896 111.72023785 26.17968772 111.70703125 22.96484375 C111.69154739 21.97290512 111.67606354 20.98096649 111.66011047 19.95896912 C111.65869789 14.09620145 112.40993391 10.24524215 115 5 C115.33 3.35 115.66 1.7 116 0 C125.57 0 135.14 0 145 0 C145 30.69 145 61.38 145 93 C97.15 93 49.3 93 0 93 C0 62.31 0 31.62 0 0 Z " fill="#C10B55" transform="translate(343,321)"/>
<path d="M0 0 C0.33 0 0.66 0 1 0 C1 18.48 1 36.96 1 56 C8.34879078 55.932129 15.69666175 55.86137033 23.04498291 55.7644577 C26.46811619 55.72008981 29.89113534 55.68059771 33.31445312 55.65356445 C37.2567591 55.62219565 41.19858515 55.56742155 45.140625 55.51171875 C46.34736877 55.50532883 47.55411255 55.4989389 48.79742432 55.49235535 C67.32537077 55.17627676 84.16103938 48.96669248 97.3203125 35.65234375 C106.09480898 25.39318912 110.52786985 13.24917132 112 0 C122.89 0 133.78 0 145 0 C145.10498361 7.84344234 145.20513201 15.68432717 145.25875092 23.52786255 C145.2851082 27.18066598 145.32030207 30.83288529 145.37719727 34.48535156 C145.43169587 38.00617091 145.4614573 41.5264254 145.47438622 45.04763412 C145.48806304 47.03854776 145.52706858 49.02923546 145.56648254 51.01980591 C145.5696072 61.12061478 145.5696072 61.12061478 142.65698242 64.80810547 C138.96312753 67.85537453 136.37317974 68.12630517 131.73757935 68.14717102 C130.64684113 68.15432632 129.55610291 68.16148163 128.43231201 68.16885376 C126.63687958 68.17288712 126.63687958 68.17288712 124.80517578 68.17700195 C123.54480499 68.18357315 122.2844342 68.19014435 120.98587036 68.19691467 C116.80569731 68.21793305 112.62552398 68.22831338 108.4453125 68.23828125 C107.0056748 68.24232931 105.5660373 68.24644625 104.12639999 68.25063133 C97.3641044 68.2696763 90.6018197 68.28391008 83.83950245 68.2922433 C76.0345048 68.30202052 68.22979038 68.32835529 60.42489254 68.36874419 C54.39083112 68.39889783 48.35685095 68.41371135 42.32271564 68.41702431 C38.71915736 68.41937524 35.11590191 68.42834098 31.51242447 68.45348549 C27.492639 68.48108285 23.47348742 68.47693747 19.45361328 68.4699707 C17.66425354 68.48918579 17.66425354 68.48918579 15.83874512 68.50878906 C7.81156428 68.45794959 7.81156428 68.45794959 3.84664917 66.22062683 C0.40011343 62.07610937 -0.24977101 59.44549949 -0.22705078 54.03808594 C-0.22689972 52.83714294 -0.22674866 51.63619995 -0.22659302 50.39886475 C-0.21627045 49.10708313 -0.20594788 47.81530151 -0.1953125 46.484375 C-0.19158034 45.14487927 -0.18873432 43.80538079 -0.18673706 42.46588135 C-0.17911657 38.94771735 -0.15948187 35.4297196 -0.1373291 31.91162109 C-0.11683643 28.31870777 -0.10772804 24.72576747 -0.09765625 21.1328125 C-0.07623434 14.08847383 -0.04211765 7.04424779 0 0 Z " fill="#5DB23A" transform="translate(343,429)"/>
<path d="M0 0 C10.89 0 21.78 0 33 0 C33.06295851 7.72990588 33.12305706 15.45888007 33.15525055 23.18881989 C33.17107449 26.78867086 33.19221082 30.38830899 33.22631836 33.98803711 C33.25897965 37.45694391 33.27686714 40.92564464 33.28463173 44.39469337 C33.29285018 46.35838752 33.31625892 48.32199908 33.33988953 50.28556824 C33.34022942 52.08686943 33.34022942 52.08686943 33.34057617 53.92456055 C33.35056892 55.50674629 33.35056892 55.50674629 33.36076355 57.12089539 C32.93392018 60.52735569 32.1012407 62.29277916 30 65 C26.39082798 67.57797026 23.91042574 68.37636259 19.49707031 68.38768005 C18.40358276 68.39758469 17.31009521 68.40748932 16.18347168 68.41769409 C14.39882507 68.41094162 14.39882507 68.41094162 12.578125 68.40405273 C11.31746216 68.41091599 10.05679932 68.41777924 8.75793457 68.42485046 C5.30751778 68.44276979 1.85735545 68.44161609 -1.59309387 68.43590808 C-4.47587282 68.4328149 -7.35860297 68.43890999 -10.24137497 68.44494683 C-17.04246846 68.45898595 -23.84343631 68.45743548 -30.64453125 68.44604492 C-37.65709993 68.43455962 -44.66928634 68.44864737 -51.68180466 68.4754414 C-57.70743882 68.49760122 -63.73295301 68.50423531 -69.75862503 68.49836498 C-73.35541186 68.49499539 -76.95195356 68.49741051 -80.54870605 68.51461601 C-84.5587586 68.53296221 -88.56806739 68.5188954 -92.578125 68.50170898 C-93.7678894 68.51137695 -94.95765381 68.52104492 -96.18347168 68.53100586 C-104.23151416 68.45862684 -104.23151416 68.45862684 -108.19433594 66.09364319 C-111.28893479 62.50549745 -112 60.82584989 -112 56 C-111.312547 55.99191315 -110.62509399 55.98382629 -109.91680908 55.97549438 C-103.38643257 55.89702533 -96.85624194 55.80958498 -90.32611465 55.71247292 C-86.97020106 55.66287137 -83.61435858 55.61753559 -80.25830078 55.578125 C-76.38556893 55.53207245 -72.51316162 55.47414615 -68.640625 55.4140625 C-66.86332001 55.39673569 -66.86332001 55.39673569 -65.05010986 55.37905884 C-48.01166259 55.08215833 -32.93154159 51.75366862 -20 40 C-19.31421875 39.40574219 -18.6284375 38.81148438 -17.921875 38.19921875 C-6.8703349 28.01239839 -1.82746801 14.61974409 0 0 Z " fill="#5CB23A" transform="translate(135,429)"/>
<path d="M0 0 C10.89 0 21.78 0 33 0 C33.06295851 7.72990588 33.12305706 15.45888007 33.15525055 23.18881989 C33.17107449 26.78867086 33.19221082 30.38830899 33.22631836 33.98803711 C33.25897965 37.45694391 33.27686714 40.92564464 33.28463173 44.39469337 C33.29285018 46.35838752 33.31625892 48.32199908 33.33988953 50.28556824 C33.34022942 52.08686943 33.34022942 52.08686943 33.34057617 53.92456055 C33.35056892 55.50674629 33.35056892 55.50674629 33.36076355 57.12089539 C32.93392018 60.52735569 32.1012407 62.29277916 30 65 C26.39082798 67.57797026 23.91042574 68.37636259 19.49707031 68.38768005 C18.40358276 68.39758469 17.31009521 68.40748932 16.18347168 68.41769409 C14.39882507 68.41094162 14.39882507 68.41094162 12.578125 68.40405273 C11.31746216 68.41091599 10.05679932 68.41777924 8.75793457 68.42485046 C5.30751778 68.44276979 1.85735545 68.44161609 -1.59309387 68.43590808 C-4.47587282 68.4328149 -7.35860297 68.43890999 -10.24137497 68.44494683 C-17.04246846 68.45898595 -23.84343631 68.45743548 -30.64453125 68.44604492 C-37.65709993 68.43455962 -44.66928634 68.44864737 -51.68180466 68.4754414 C-57.70743882 68.49760122 -63.73295301 68.50423531 -69.75862503 68.49836498 C-73.35541186 68.49499539 -76.95195356 68.49741051 -80.54870605 68.51461601 C-84.5587586 68.53296221 -88.56806739 68.5188954 -92.578125 68.50170898 C-93.7678894 68.51137695 -94.95765381 68.52104492 -96.18347168 68.53100586 C-104.23151416 68.45862684 -104.23151416 68.45862684 -108.19433594 66.09364319 C-111.28893479 62.50549745 -112 60.82584989 -112 56 C-111.28749084 55.99413376 -110.57498169 55.98826752 -109.84088135 55.98222351 C-103.0749946 55.92394566 -96.30938088 55.85167333 -89.5438118 55.76428509 C-86.0668298 55.71985165 -82.58995772 55.68053917 -79.11279297 55.65356445 C-75.10094962 55.6222046 -71.08970468 55.56743079 -67.078125 55.51171875 C-65.84950745 55.50532883 -64.62088989 55.4989389 -63.3550415 55.49235535 C-45.45018754 55.19208751 -30.61612145 49.60506226 -17.375 37.625 C-10.69985936 30.24721297 -6.48831284 23.35442694 -3 14 C-2.64550781 13.24203125 -2.29101562 12.4840625 -1.92578125 11.703125 C-0.56358317 8.04548448 -0.56358317 8.04548448 0 0 Z " fill="#5DB23A" transform="translate(295,429)"/>
<path d="M0 0 C9.57 0 19.14 0 29 0 C29 30.69 29 61.38 29 93 C-18.85 93 -66.7 93 -116 93 C-116 92.67 -116 92.34 -116 92 C-78.71 92 -41.42 92 -3 92 C-3.495 81.605 -3.495 81.605 -4 71 C-4.99 71.66 -5.98 72.32 -7 73 C-10.09848022 73.27415466 -10.09848022 73.27415466 -13.96240234 73.30639648 C-14.66681961 73.31472 -15.37123688 73.32304352 -16.09700012 73.33161926 C-18.42670207 73.35572318 -20.75612406 73.36449175 -23.0859375 73.37109375 C-24.70635055 73.38005991 -26.32676274 73.38918176 -27.94717407 73.39845276 C-31.34501152 73.41494643 -34.74275038 73.42264352 -38.140625 73.42553711 C-42.49105536 73.43092093 -46.84055717 73.46859821 -51.19072533 73.51428127 C-54.5382321 73.54404934 -57.88551522 73.5512606 -61.23314285 73.55226326 C-62.83671954 73.55646624 -64.44029685 73.56890382 -66.04374313 73.58978081 C-68.28945585 73.61669202 -70.53301604 73.61187301 -72.77880859 73.59936523 C-74.05549408 73.60443588 -75.33217957 73.60950653 -76.64755249 73.61473083 C-80.89115409 72.83659106 -82.36817132 71.35186892 -85 68 C-85.5625 64.9375 -85.5625 64.9375 -85 62 C-83.42153931 59.84577942 -83.42153931 59.84577942 -81 58 C-77.68515015 57.51225281 -77.68515015 57.51225281 -73.69287109 57.5300293 C-72.59953712 57.5267437 -72.59953712 57.5267437 -71.4841156 57.52339172 C-69.08009132 57.52108419 -66.67729801 57.54731167 -64.2734375 57.57421875 C-62.60243112 57.57914287 -60.93141922 57.58244161 -59.26040649 57.58418274 C-55.76164078 57.591819 -52.2632847 57.61237046 -48.76464844 57.64331055 C-44.27418565 57.68294636 -39.783989 57.70092946 -35.2933712 57.71061993 C-31.01585708 57.72058016 -26.73840827 57.740475 -22.4609375 57.76171875 C-21.64186291 57.7651145 -20.82278831 57.76851025 -19.97889328 57.7720089 C-17.66862919 57.78355514 -15.35853568 57.80207018 -13.04833984 57.82299805 C-11.73247894 57.83284225 -10.41661804 57.84268646 -9.06088257 57.85282898 C-6 58 -6 58 -4 59 C-3.67 44.15 -3.34 29.3 -3 14 C-3.99 13.505 -3.99 13.505 -5 13 C-3.35 8.71 -1.7 4.42 0 0 Z " fill="#C20A54" transform="translate(299,321)"/>
<path d="M0 0 C9.57 0 19.14 0 29 0 C29 30.69 29 61.38 29 93 C-0.37 93 -29.74 93 -60 93 C-60 92.67 -60 92.34 -60 92 C-41.19 92 -22.38 92 -3 92 C-3.495 81.605 -3.495 81.605 -4 71 C-4.99 71.66 -5.98 72.32 -7 73 C-10.09848022 73.27415466 -10.09848022 73.27415466 -13.96240234 73.30639648 C-14.66681961 73.31472 -15.37123688 73.32304352 -16.09700012 73.33161926 C-18.42670207 73.35572318 -20.75612406 73.36449175 -23.0859375 73.37109375 C-24.70635055 73.38005991 -26.32676274 73.38918176 -27.94717407 73.39845276 C-31.34501152 73.41494643 -34.74275038 73.42264352 -38.140625 73.42553711 C-42.49105536 73.43092093 -46.84055717 73.46859821 -51.19072533 73.51428127 C-54.5382321 73.54404934 -57.88551522 73.5512606 -61.23314285 73.55226326 C-62.83671954 73.55646624 -64.44029685 73.56890382 -66.04374313 73.58978081 C-68.28945585 73.61669202 -70.53301604 73.61187301 -72.77880859 73.59936523 C-74.05549408 73.60443588 -75.33217957 73.60950653 -76.64755249 73.61473083 C-80.89115409 72.83659106 -82.36817132 71.35186892 -85 68 C-85.5625 64.9375 -85.5625 64.9375 -85 62 C-83.42054749 59.84577942 -83.42054749 59.84577942 -81 58 C-77.69187927 57.51225281 -77.69187927 57.51225281 -73.70874023 57.5300293 C-72.98145721 57.5278389 -72.25417419 57.5256485 -71.50485229 57.52339172 C-69.10563373 57.52108392 -66.70764828 57.54731557 -64.30859375 57.57421875 C-62.63998301 57.57914329 -60.97136674 57.58244176 -59.30274963 57.58418274 C-55.80817991 57.59181969 -52.31402021 57.61237148 -48.81958008 57.64331055 C-44.33818376 57.68291576 -39.85705397 57.70092483 -35.37550259 57.71061993 C-31.10316348 57.72058976 -26.83088949 57.74047696 -22.55859375 57.76171875 C-21.74218351 57.7651145 -20.92577328 57.76851025 -20.08462334 57.7720089 C-17.7769584 57.78357832 -15.46946226 57.80209793 -13.16186523 57.82299805 C-11.84822495 57.83284225 -10.53458466 57.84268646 -9.18113708 57.85282898 C-6 58 -6 58 -3 59 C-3.02141052 58.42307907 -3.04282104 57.84615814 -3.06488037 57.25175476 C-3.28513041 51.20064149 -3.47462683 45.14909844 -3.64697266 39.09643555 C-3.71506983 36.84325832 -3.79078227 34.59029697 -3.87451172 32.33764648 C-3.99410352 29.08345265 -4.08550324 25.82944407 -4.171875 22.57421875 C-4.21439392 21.58105148 -4.25691284 20.58788422 -4.30072021 19.56462097 C-4.4687189 11.62743219 -2.9501114 8.11280636 0 0 Z " fill="#C20954" transform="translate(139,321)"/>
<path d="M0 0 C6.29778013 1.7175764 10.22438967 6.68632593 14.0625 11.6875 C15 14 15 14 14.25 16.25 C13 18 13 18 12 19 C12.02326026 21.11245492 12.05277554 23.22506169 12.11694336 25.33666992 C12.4351954 37.06794684 11.2347248 45.4570285 2.9375 54.30859375 C-4.84803122 61.10523693 -14.18522296 61.77418104 -24.08251953 61.22216797 C-32.33244542 60.2662942 -38.37053529 53.47777155 -43.3203125 47.37109375 C-47.58117233 40.71163799 -47.01909158 31.59176483 -46 24 C-43.67738408 15.56580024 -38.14573215 10.23528309 -30.90625 5.68359375 C-23.46269018 1.81348203 -15.57447007 2.32155557 -7.5 3.75 C-3.9364406 4.3958017 -3.9364406 4.3958017 -1.5 2.0625 C-1.005 1.381875 -0.51 0.70125 0 0 Z " fill="#ECD806" transform="translate(273,281)"/>
<path d="M0 0 C0.00386719 0.98226562 0.00386719 0.98226562 0.0078125 1.984375 C0.38710215 10.93561067 3.00656389 18.61606183 9.1171875 25.32421875 C12.55871415 28.45017289 16.22667947 31.16903309 20 33.875 C30.00283032 41.2623198 37.65913107 51.6355894 40 64 C40.26885065 68.16714995 40.23294351 72.3217867 40.1953125 76.49609375 C40.1924826 77.68477554 40.18965271 78.87345734 40.18673706 80.09815979 C40.17558206 83.87804418 40.15048566 87.65768776 40.125 91.4375 C40.11496417 94.00715803 40.10583937 96.57681978 40.09765625 99.14648438 C40.07736348 105.43115601 40.0382048 111.71530984 40 118 C30.43 118 20.86 118 11 118 C7.62642001 109.0037867 7.62642001 109.0037867 7.64697266 103.47070312 C7.64331696 102.24162231 7.63966125 101.0125415 7.63589478 99.74621582 C7.64519012 98.4377771 7.65448547 97.12933838 7.6640625 95.78125 C7.65989838 94.39611075 7.65370451 93.01097629 7.64559937 91.62585449 C7.61492929 85.78761299 7.61929979 79.94959947 7.63964844 74.11132812 C7.70684006 50.02682092 6.50080565 30.68783938 -10.67578125 12.140625 C-13.89161955 9.1788109 -16.95669597 7.61732161 -21 6 C-17.46410262 4.0326586 -13.82060602 2.97745912 -9.9375 1.875 C-8.70902344 1.52179688 -7.48054688 1.16859375 -6.21484375 0.8046875 C-3 0 -3 0 0 0 Z " fill="#5CB139" transform="translate(288,188)"/>
<path d="M0 0 C0.08636719 0.82242188 0.17273438 1.64484375 0.26171875 2.4921875 C1.71444987 14.03406958 4.59859951 21.6940525 13.66796875 29.19921875 C15.80205428 30.84714744 17.95344837 32.46440667 20.125 34.0625 C29.87568929 41.3658819 37.62794065 51.7001168 40 64 C40.0856191 65.80207506 40.11774058 67.60702988 40.11352539 69.41113281 C40.11344986 70.49195129 40.11337433 71.57276978 40.11329651 72.68634033 C40.10813522 73.84687927 40.10297394 75.00741821 40.09765625 76.203125 C40.0962413 77.39605164 40.09482635 78.58897827 40.09336853 79.8180542 C40.08777038 83.62872829 40.07521819 87.43934366 40.0625 91.25 C40.05748476 93.83333248 40.0529219 96.41666589 40.04882812 99 C40.0386524 105.33337417 40.01907644 111.66662134 40 118 C30.43 118 20.86 118 11 118 C9.515 113.05 9.515 113.05 8 108 C7.36236461 106.32201212 6.71372719 104.64706275 6 103 C6.66 103 7.32 103 8 103 C7.96166054 95.6619654 7.90189745 88.32441769 7.81609726 80.9867754 C7.7768849 77.57816182 7.74457019 74.16979641 7.72900391 70.76098633 C7.71071268 66.82600997 7.66064864 62.89172075 7.609375 58.95703125 C7.60814636 57.75544876 7.60691772 56.55386627 7.60565186 55.31587219 C7.3072011 37.75536802 0.50718604 23.20266325 -12 11 C-14.86809558 8.54859837 -17.54701013 6.53466217 -21 5 C-19.86820312 4.72285156 -18.73640625 4.44570312 -17.5703125 4.16015625 C-16.08851098 3.79439512 -14.60674182 3.42850289 -13.125 3.0625 C-12.37863281 2.88009766 -11.63226563 2.69769531 -10.86328125 2.50976562 C-0.73295455 0 -0.73295455 0 0 0 Z " fill="#5CB139" transform="translate(448,188)"/>
<path d="M0 0 C0.15855469 0.90621094 0.31710938 1.81242188 0.48046875 2.74609375 C3.35212516 17.738996 8.75313942 25.11740699 21.0625 33.9375 C31.60078893 41.75217549 38.77254452 53.00400076 41 66 C41.25921274 70.05485379 41.23356234 74.09452772 41.1953125 78.15625 C41.1924826 79.29912476 41.18965271 80.44199951 41.18673706 81.61950684 C41.17560025 85.24644732 41.15050741 88.87313496 41.125 92.5 C41.11496181 94.96874642 41.10583743 97.43749673 41.09765625 99.90625 C41.07738937 105.93767425 41.03822746 111.96855625 41 118 C31.43 118 21.86 118 12 118 C8.90772343 107.95010114 7.47518795 101.39691179 7.78515625 91.38671875 C7.82113072 88.81315337 7.85693267 86.23958558 7.89257812 83.66601562 C7.97317194 79.67723444 8.06246659 75.68890277 8.1574707 71.70043945 C8.66441952 48.55929679 7.2962218 30.62396322 -9.04296875 12.91015625 C-11.53928213 10.4736348 -13.98791639 8.7512114 -17 7 C-17.99 6.34 -18.98 5.68 -20 5 C-17.04283593 4.16247839 -14.084087 3.33069969 -11.125 2.5 C-10.28324219 2.26152344 -9.44148438 2.02304688 -8.57421875 1.77734375 C-7.76855469 1.55175781 -6.96289062 1.32617188 -6.1328125 1.09375 C-5.01737061 0.77954102 -5.01737061 0.77954102 -3.87939453 0.45898438 C-2 0 -2 0 0 0 Z " fill="#5CB139" transform="translate(127,188)"/>
<path d="M0 0 C7.21260284 4.47980004 11.32059912 11.03024921 14 19 C15.45771194 27.86961649 13.45998935 35.40394006 8.78515625 42.96484375 C4.46206864 48.6913685 -1.86171172 53.19706537 -9.03417969 54.31787109 C-17.12258756 55.03817121 -25.29425068 55.09636948 -32 50 C-33.051875 49.278125 -34.10375 48.55625 -35.1875 47.8125 C-38.74924143 44.25075857 -40.80647562 40.49465562 -43 36 C-43.6496875 34.7934375 -43.6496875 34.7934375 -44.3125 33.5625 C-46.28114944 26.22480665 -45.27903814 18.79054541 -42 12 C-32.33928298 -3.62926345 -16.51341437 -8.40728543 0 0 Z " fill="#EBD706" transform="translate(111,288)"/>
<path d="M0 0 C7.46742444 4.8035235 13.21499249 10.79341496 16.05859375 19.32421875 C16.96934054 29.96950499 15.58138869 38.28359483 8.80859375 46.69921875 C3.33526796 52.53821933 -3.47786294 55.39158706 -11.43774414 55.66772461 C-19.14128139 55.78170056 -24.74091899 55.37172284 -30.94140625 50.32421875 C-31.90820312 49.56238281 -31.90820312 49.56238281 -32.89453125 48.78515625 C-38.84722986 43.50776378 -41.45927231 37.54516496 -42.35546875 29.69921875 C-42.71478993 20.31904483 -41.45378675 13.40555157 -35.14453125 6.30078125 C-25.5043177 -2.8381412 -12.28982152 -6.4267874 0 0 Z " fill="#ECD806" transform="translate(428.94140625,286.67578125)"/>
<path d="M0 0 C8.91 0 17.82 0 27 0 C29.19148936 53.40425532 29.19148936 53.40425532 30 75 C28.64455078 75.05607422 28.64455078 75.05607422 27.26171875 75.11328125 C26.08222656 75.17902344 24.90273437 75.24476562 23.6875 75.3125 C22.51574219 75.37050781 21.34398437 75.42851563 20.13671875 75.48828125 C17.04703401 75.753264 17.04703401 75.753264 15.109375 77.359375 C13.33028126 79.99042912 13.55953244 81.9167271 14 85 C16.25882767 88.01726616 17.49067294 88.90403983 21.234375 89.609375 C22.97460938 89.67898437 22.97460938 89.67898437 24.75 89.75 C26.8125 89.8325 28.875 89.915 31 90 C31.495 99.405 31.495 99.405 32 109 C28.06776458 108.34462743 24.5941954 107.6847357 20.8203125 106.58984375 C19.8921875 106.32236328 18.9640625 106.05488281 18.0078125 105.77929688 C17.05648437 105.50150391 16.10515625 105.22371094 15.125 104.9375 C14.15046875 104.65583984 13.1759375 104.37417969 12.171875 104.08398438 C9.78036299 103.39232159 7.38979149 102.69757969 5 102 C4.43650166 82.05504862 5.62707581 62.27538501 6.93286133 42.38134766 C7.0017305 41.31880768 7.07059967 40.2562677 7.14155579 39.16152954 C7.2716684 37.1672942 7.40509869 35.1732711 7.54264832 33.17953491 C7.72174806 30.45370443 7.86770871 27.72847731 8 25 C8.05969971 24.0095166 8.11939941 23.0190332 8.1809082 21.99853516 C8.21724365 21.02319824 8.2535791 20.04786133 8.29101562 19.04296875 C8.33150024 18.16535889 8.37198486 17.28774902 8.41369629 16.38354492 C7.85952927 13.19066646 6.51434943 12.20311459 4 10.25 C3.2575 9.78078125 2.515 9.3115625 1.75 8.828125 C0 7 0 7 0 0 Z " fill="#E4377D" transform="translate(62,42)"/>
<path d="M0 0 C9.57 0 19.14 0 29 0 C28.95875 4.021875 28.9175 8.04375 28.875 12.1875 C28.80873613 26.00190096 29.44993674 39.73478137 30.28857422 53.52026367 C30.38007122 55.0291227 30.47138575 56.53799281 30.5625 58.046875 C30.60553253 58.75749588 30.64856506 59.46811676 30.69290161 60.20027161 C30.98061586 65.14533724 31.09043969 70.04842711 31 75 C30.09636719 75.02578125 29.19273437 75.0515625 28.26171875 75.078125 C27.08222656 75.13484375 25.90273438 75.1915625 24.6875 75.25 C23.51574219 75.29640625 22.34398437 75.3428125 21.13671875 75.390625 C17.95347533 75.71839667 17.95347533 75.71839667 16.07421875 77.8203125 C14.4369136 81.1425535 15.09150162 83.49579195 16 87 C19.52155964 89.34770643 21.50771843 89.37669614 25.6875 89.625 C26.86699219 89.69976562 28.04648437 89.77453125 29.26171875 89.8515625 C30.61716797 89.92503906 30.61716797 89.92503906 32 90 C32.74507544 96.37305598 33.10349817 102.58311325 33 109 C26.94364701 108.3436874 21.37056667 106.73971507 15.5625 104.9375 C14.17901367 104.51500977 14.17901367 104.51500977 12.76757812 104.08398438 C10.51026202 103.39392401 8.25450816 102.69916877 6 102 C5.6930517 86.6852694 6.58472769 71.42577773 7.39068604 56.13830566 C7.64481437 51.31256334 7.89539824 46.48664155 8.14196777 41.6605072 C8.27286624 39.10597772 8.40626065 36.55157445 8.54260254 33.99732971 C8.81227734 28.76369872 9.05674975 23.53083697 9.15039062 18.29077148 C9.16477173 17.51402573 9.17915283 16.73727997 9.19396973 15.93699646 C9.14346991 13.77196082 9.14346991 13.77196082 7.25 11.625 C6.5075 11.08875 5.765 10.5525 5 10 C0.88389409 6.47190922 0.99685978 5.98115867 0 0 Z " fill="#E4377D" transform="translate(381,42)"/>
<path d="M0 0 C9.24 0 18.48 0 28 0 C29.11215911 24.99658572 30.22259666 49.99036577 31 75 C29.64455078 75.05607422 29.64455078 75.05607422 28.26171875 75.11328125 C27.08222656 75.17902344 25.90273437 75.24476562 24.6875 75.3125 C23.51574219 75.37050781 22.34398437 75.42851563 21.13671875 75.48828125 C18.04703401 75.753264 18.04703401 75.753264 16.109375 77.359375 C14.33028126 79.99042912 14.55953244 81.9167271 15 85 C17.25882767 88.01726616 18.49067294 88.90403983 22.234375 89.609375 C23.97460938 89.67898437 23.97460938 89.67898437 25.75 89.75 C27.8125 89.8325 29.875 89.915 32 90 C32.33 96.27 32.66 102.54 33 109 C28.59748101 108.37106872 25.05960189 107.85491038 20.94140625 106.58984375 C20.06162109 106.32236328 19.18183594 106.05488281 18.27539062 105.77929688 C17.38013672 105.50150391 16.48488281 105.22371094 15.5625 104.9375 C14.17901367 104.51500977 14.17901367 104.51500977 12.76757812 104.08398438 C10.51026202 103.39392401 8.25450816 102.69916877 6 102 C5.69874058 86.85613536 6.57812591 71.7769611 7.39068604 56.66015625 C7.64477836 51.92958427 7.89579557 47.19885581 8.14196777 42.46786499 C8.2726195 39.96447745 8.40598801 37.46122962 8.54260254 34.9581604 C9.70251977 22.83312635 9.70251977 22.83312635 8 11 C7.21625 10.690625 6.4325 10.38125 5.625 10.0625 C2.56582452 8.82426231 1.56398725 7.88102915 0 5 C0 3.35 0 1.7 0 0 Z " fill="#E4377D" transform="translate(221,42)"/>
<path d="M0 0 C0.72567673 -0.00700928 1.45135345 -0.01401855 2.19902039 -0.02124023 C4.5933581 -0.03881904 6.98651003 -0.02719894 9.38085938 -0.01367188 C11.04708076 -0.01636685 12.7133006 -0.02024931 14.3795166 -0.02526855 C17.86986276 -0.03116341 21.35979917 -0.02260137 24.85009766 -0.00390625 C29.322722 0.01888367 33.79438628 0.00576047 38.2669754 -0.01819611 C41.7071251 -0.03265465 45.14704741 -0.02804792 48.58720398 -0.01768494 C50.23622247 -0.01501779 51.88526165 -0.01828703 53.53425598 -0.02760315 C55.83979929 -0.03777017 58.14379095 -0.02226802 60.44921875 0 C61.76063843 0.00318237 63.07205811 0.00636475 64.42321777 0.00964355 C68.25820079 0.59967367 69.45295436 1.42548139 71.72460938 4.51757812 C72.28710938 7.45507812 72.28710938 7.45507812 71.72460938 10.51757812 C69.09845137 13.85529784 67.60838141 15.34952638 63.38562012 16.15249634 C61.4796405 16.15846329 61.4796405 16.15846329 59.53515625 16.16455078 C58.83044693 16.17331238 58.12573761 16.18207397 57.39967346 16.19110107 C55.08026769 16.21303033 52.76278303 16.19856794 50.44335938 16.18164062 C48.82580196 16.18501069 47.20824701 16.18986489 45.59069824 16.19613647 C42.20458815 16.20349894 38.81913862 16.19282332 35.43310547 16.16943359 C31.09828869 16.14094518 26.76501972 16.15735266 22.4302597 16.18729591 C19.09125155 16.20538642 15.7526088 16.19960305 12.41358948 16.18665695 C10.81563635 16.18332774 9.21764976 16.18739303 7.61973572 16.19905472 C5.38362099 16.21179366 3.14999254 16.19234993 0.9140625 16.16455078 C-0.35659058 16.16057281 -1.62724365 16.15659485 -2.93640137 16.15249634 C-7.15916266 15.34952638 -8.64923262 13.85529784 -11.27539062 10.51757812 C-11.83789062 7.45507812 -11.83789062 7.45507812 -11.27539062 4.51757812 C-8.02777828 0.09704268 -5.31492086 0.01289752 0 0 Z " fill="#060103" transform="translate(225.275390625,378.482421875)"/>
<path d="M0 0 C0.72567673 -0.00700928 1.45135345 -0.01401855 2.19902039 -0.02124023 C4.5933581 -0.03881904 6.98651003 -0.02719894 9.38085938 -0.01367188 C11.04708076 -0.01636685 12.7133006 -0.02024931 14.3795166 -0.02526855 C17.86986276 -0.03116341 21.35979917 -0.02260137 24.85009766 -0.00390625 C29.322722 0.01888367 33.79438628 0.00576047 38.2669754 -0.01819611 C41.7071251 -0.03265465 45.14704741 -0.02804792 48.58720398 -0.01768494 C50.23622247 -0.01501779 51.88526165 -0.01828703 53.53425598 -0.02760315 C55.83979929 -0.03777017 58.14379095 -0.02226802 60.44921875 0 C61.76063843 0.00318237 63.07205811 0.00636475 64.42321777 0.00964355 C68.25820079 0.59967367 69.45295436 1.42548139 71.72460938 4.51757812 C72.28710938 7.45507812 72.28710938 7.45507812 71.72460938 10.51757812 C69.09845137 13.85529784 67.60838141 15.34952638 63.38562012 16.15249634 C61.4796405 16.15846329 61.4796405 16.15846329 59.53515625 16.16455078 C58.83044693 16.17331238 58.12573761 16.18207397 57.39967346 16.19110107 C55.08026769 16.21303033 52.76278303 16.19856794 50.44335938 16.18164062 C48.82580196 16.18501069 47.20824701 16.18986489 45.59069824 16.19613647 C42.20458815 16.20349894 38.81913862 16.19282332 35.43310547 16.16943359 C31.09828869 16.14094518 26.76501972 16.15735266 22.4302597 16.18729591 C19.09125155 16.20538642 15.7526088 16.19960305 12.41358948 16.18665695 C10.81563635 16.18332774 9.21764976 16.18739303 7.61973572 16.19905472 C5.38362099 16.21179366 3.14999254 16.19234993 0.9140625 16.16455078 C-0.35659058 16.16057281 -1.62724365 16.15659485 -2.93640137 16.15249634 C-7.15916266 15.34952638 -8.64923262 13.85529784 -11.27539062 10.51757812 C-11.83789062 7.45507812 -11.83789062 7.45507812 -11.27539062 4.51757812 C-8.02777828 0.09704268 -5.31492086 0.01289752 0 0 Z " fill="#060103" transform="translate(65.275390625,378.482421875)"/>
<path d="M0 0 C0.72567673 -0.0071553 1.45135345 -0.01431061 2.19902039 -0.02168274 C4.59361056 -0.03856776 6.98632783 -0.01917097 9.38085938 0.00219727 C11.04708003 0.00136854 12.7133006 -0.001091 14.3795166 -0.00511169 C17.8699609 -0.00796953 21.35976346 0.00672937 24.85009766 0.03417969 C29.32275443 0.06826308 33.7942637 0.06224449 38.2669754 0.04351711 C41.70714877 0.03294516 45.14705541 0.04188659 48.58720398 0.05690193 C50.23621326 0.06208282 51.8852504 0.06160306 53.53425598 0.05535698 C55.83985212 0.04990214 58.14380941 0.07028536 60.44921875 0.09765625 C62.41634827 0.10695412 62.41634827 0.10695412 64.42321777 0.11643982 C68.25490027 0.71377213 69.45340744 1.54104882 71.72460938 4.63110352 C72.28710938 7.56860352 72.28710938 7.56860352 71.72460938 10.63110352 C69.11019258 13.94602578 67.62201825 15.46032553 63.42358398 16.2592926 C61.54425171 16.26073524 61.54425171 16.26073524 59.62695312 16.26220703 C58.93199738 16.26936234 58.23704163 16.27651764 57.52102661 16.28388977 C55.23404294 16.30073714 52.94903081 16.2814008 50.66210938 16.26000977 C49.06697427 16.26083885 47.47183925 16.26329971 45.87670898 16.26731873 C42.5376608 16.27017398 39.19928442 16.25550319 35.86035156 16.22802734 C31.58622266 16.19394419 27.31329467 16.19996489 23.03910828 16.21868992 C19.74644002 16.22927251 16.45404988 16.22031082 13.16140747 16.2053051 C11.58579332 16.20013202 10.01015002 16.20059449 8.43453979 16.20685005 C6.22981603 16.21231787 4.02679516 16.19188098 1.82226562 16.16455078 C0.56937744 16.1583522 -0.68351074 16.15215363 -1.97436523 16.14576721 C-5.87200758 15.53808482 -7.52674002 14.41529769 -10.27539062 11.63110352 C-11.33789062 8.69360352 -11.33789062 8.69360352 -11.27539062 5.63110352 C-8.23936608 0.43393594 -5.85802695 0.00429613 0 0 Z " fill="#060103" transform="translate(385.275390625,378.368896484375)"/>
<path d="M0 0 C7.93718095 1.58743619 15.44272468 3.289354 22.98828125 6.23046875 C31.51947062 8.41029275 38.70377018 6.20632803 46.875 3.5 C48.91292374 2.84022219 50.95194087 2.1838093 52.9921875 1.53125 C53.88276855 1.23798828 54.77334961 0.94472656 55.69091797 0.64257812 C58 0 58 0 61 0 C61 4.62 61 9.24 61 14 C57.2114556 15.15710726 53.41969046 16.30087232 49.625 17.4375 C48.03365234 17.92573242 48.03365234 17.92573242 46.41015625 18.42382812 C33.61248604 22.23172386 25.68801667 22.21232606 12.875 18.0625 C11.63234375 17.67642578 10.3896875 17.29035156 9.109375 16.89257812 C6.06769751 15.9449786 3.0330805 14.97476638 0 14 C0 9.38 0 4.76 0 0 Z " fill="#E8D506" transform="translate(65,159)"/>
<path d="M0 0 C2.45913277 0.60105354 4.91740412 1.2052134 7.375 1.8125 C8.10654297 1.99264648 8.83808594 2.17279297 9.59179688 2.35839844 C14.33223205 3.54036926 18.98049412 4.86629272 23.59375 6.484375 C31.13762802 8.10092029 37.43392631 6.29438864 44.625 4.0625 C46.44960541 3.50869371 48.2751067 2.95782905 50.1015625 2.41015625 C50.89900879 2.16402588 51.69645508 1.91789551 52.51806641 1.66430664 C55.30131926 0.91934982 58.15797723 0.47367046 61 0 C61 4.62 61 9.24 61 14 C58.00094934 14.96138923 55.00082612 15.91918131 52 16.875 C51.16082031 17.14441406 50.32164062 17.41382813 49.45703125 17.69140625 C39.38653327 20.89210716 30.90903245 23.46496687 20.41015625 20.25 C19.21455078 19.8890625 18.01894531 19.528125 16.78710938 19.15625 C15.55798828 18.7746875 14.32886719 18.393125 13.0625 18 C11.80630859 17.6184375 10.55011719 17.236875 9.25585938 16.84375 C6.16793633 15.90445782 3.08360138 14.953384 0 14 C0 9.38 0 4.76 0 0 Z " fill="#F7EA5F" transform="translate(385,159)"/>
<path d="M0 0 C2.45913277 0.60105354 4.91740412 1.2052134 7.375 1.8125 C8.10654297 1.99264648 8.83808594 2.17279297 9.59179688 2.35839844 C13.61241495 3.36089147 17.56013947 4.45935603 21.5 5.75 C31.11530127 8.63140651 38.66041158 5.91796771 48 3 C49.89503648 2.41408316 51.79076826 1.83040547 53.6875 1.25 C54.45449219 1.00765625 55.22148437 0.7653125 56.01171875 0.515625 C58 0 58 0 61 0 C61 4.62 61 9.24 61 14 C58.43605469 14.74056641 58.43605469 14.74056641 55.8203125 15.49609375 C53.5885124 16.14312823 51.35674316 16.79026915 49.125 17.4375 C47.43310547 17.92573242 47.43310547 17.92573242 45.70703125 18.42382812 C44.63066406 18.73642578 43.55429687 19.04902344 42.4453125 19.37109375 C40.95281982 19.8031311 40.95281982 19.8031311 39.43017578 20.24389648 C37.02354647 20.92101741 37.02354647 20.92101741 35 22 C27.72775961 22.60108157 21.59592045 20.70072099 14.6875 18.5625 C13.06231445 18.07426758 13.06231445 18.07426758 11.40429688 17.57617188 C7.58779546 16.42576592 3.78163804 15.26054601 0 14 C0 9.38 0 4.76 0 0 Z " fill="#F8EB60" transform="translate(225,159)"/>
<path d="M0 0 C0.53980254 12.92527185 0.43475676 22.13904316 -8.375 32.375 C-11.68792711 35.83480565 -14.727728 38.81418642 -19 41 C-20.32 41 -21.64 41 -23 41 C-26.73374904 33.84364768 -27.12742322 27.15122303 -24.875 19.375 C-21.8463182 11.30327727 -16.39045107 5.61558787 -9.0625 1.25 C-5.7642523 -0.09622355 -3.51887982 -0.09788261 0 0 Z " fill="#FBEE61" transform="translate(92,285)"/>
<path d="M0 0 C0.68722424 11.45373734 0.67220456 20.13535307 -6 30 C-6.39445312 30.61101562 -6.78890625 31.22203125 -7.1953125 31.8515625 C-10.37178575 36.18311693 -15.18099923 39.68074308 -20 42 C-20.99 41.67 -21.98 41.34 -23 41 C-26.24064241 33.7112824 -26.32681209 24.66544158 -24.16015625 17.046875 C-20.84073506 9.7597955 -15.57702483 5.21775539 -8.875 1.0625 C-5.7147503 -0.10541837 -3.33980226 -0.078638 0 0 Z " fill="#FCEF61" transform="translate(412,285)"/>
<path d="M0 0 C0.56405275 12.48750124 -0.01100385 23.03500733 -8.21875 33.2109375 C-12.13424125 37.14360196 -16.7349314 40.24497713 -22 42 C-25.14242344 37.74602784 -25.54541726 33.95259885 -25.5 28.8125 C-25.49355469 28.05727051 -25.48710937 27.30204102 -25.48046875 26.52392578 C-25.23449155 18.97469126 -23.28725016 13.54375018 -18.09765625 7.94921875 C-12.49216575 2.75257401 -7.77678392 -0.18310987 0 0 Z " fill="#FCEF61" transform="translate(252,285)"/>
<path d="M0 0 C0.717323 -0.0038269 1.434646 -0.00765381 2.17370605 -0.01159668 C3.68661914 -0.01431227 5.19957945 -0.00697555 6.71240234 0.00976562 C9.02417976 0.03118449 11.33285013 0.00995649 13.64453125 -0.015625 C15.11719434 -0.01298166 16.5898555 -0.00785653 18.0625 0 C18.75114136 -0.00809692 19.43978271 -0.01619385 20.14929199 -0.02453613 C23.4760785 0.04024855 25.26752796 0.33446464 27.96289062 2.34570312 C30.27600794 5.56908827 30.15194221 7.66916514 29.53125 11.53125 C26.80390783 14.37796114 25.11496895 15.43785326 21.19726562 16.06469727 C19.95654297 16.07557373 18.71582031 16.0864502 17.4375 16.09765625 C16.43378357 16.10695412 16.43378357 16.10695412 15.40979004 16.11643982 C14.00123543 16.1235138 12.59259679 16.12040619 11.18408203 16.10766602 C9.03651349 16.09378402 6.89329566 16.1279098 4.74609375 16.16601562 C3.37239477 16.16696686 1.99869038 16.16510777 0.625 16.16015625 C-0.61572266 16.16088135 -1.85644531 16.16160645 -3.13476562 16.16235352 C-7.35636882 15.36322901 -8.8401698 13.86391418 -11.46875 10.53125 C-12.03125 7.46875 -12.03125 7.46875 -11.46875 4.53125 C-8.2777471 0.1560393 -5.0963964 -0.05992253 0 0 Z " fill="#030001" transform="translate(246.46875,116.46875)"/>
<path d="M0 0 C0.71873795 -0.00524185 1.43747589 -0.0104837 2.17799377 -0.0158844 C3.69685577 -0.02230231 5.21576748 -0.0209705 6.73461914 -0.01245117 C9.05510311 -0.00394767 11.37311911 -0.03268925 13.69335938 -0.06445312 C15.17057218 -0.06606549 16.64778933 -0.06548694 18.125 -0.0625 C18.81677841 -0.07373398 19.50855682 -0.08496796 20.22129822 -0.09654236 C23.55999783 -0.04840928 25.35519747 0.22978793 28.06274414 2.24584961 C30.37182533 5.47136427 30.2495713 7.57167787 29.62890625 11.43359375 C26.90156408 14.28030489 25.2126252 15.34019701 21.29492188 15.96704102 C20.05419922 15.97791748 18.81347656 15.98879395 17.53515625 16 C16.53143982 16.00929787 16.53143982 16.00929787 15.50744629 16.01878357 C14.09889168 16.02585755 12.69025304 16.02274994 11.28173828 16.01000977 C9.13416974 15.99612777 6.99095191 16.03025355 4.84375 16.06835938 C3.47005102 16.06931061 2.09634663 16.06745152 0.72265625 16.0625 C-0.51806641 16.0632251 -1.75878906 16.0639502 -3.03710938 16.06469727 C-7.26912214 15.26360229 -8.78084932 13.81806912 -11.37109375 10.43359375 C-11.37109375 6.9958254 -11.17260184 4.65849986 -9.26928711 1.74975586 C-6.37358522 -0.25805493 -3.40164377 -0.01439314 0 0 Z " fill="#030001" transform="translate(406.37109375,116.56640625)"/>
<path d="M0 0 C0.717323 -0.0038269 1.434646 -0.00765381 2.17370605 -0.01159668 C3.68661914 -0.01431227 5.19957945 -0.00697555 6.71240234 0.00976562 C9.02417976 0.03118449 11.33285013 0.00995649 13.64453125 -0.015625 C15.11719434 -0.01298166 16.5898555 -0.00785653 18.0625 0 C18.75114136 -0.00809692 19.43978271 -0.01619385 20.14929199 -0.02453613 C23.50050713 0.04072426 25.26484492 0.32861096 27.96289062 2.38085938 C29.53125 4.53125 29.53125 4.53125 30.09375 7.46875 C29.33203759 11.61585092 27.78471322 12.90215019 24.53125 15.53125 C21.19726562 16.17822266 21.19726562 16.17822266 17.4375 16.1953125 C16.76835571 16.20009613 16.09921143 16.20487976 15.40979004 16.20980835 C14.00119666 16.21319656 12.59252348 16.20406922 11.18408203 16.18310547 C9.03629114 16.15631289 6.89372347 16.18287766 4.74609375 16.21484375 C3.37238438 16.21153945 1.99867824 16.20513276 0.625 16.1953125 C-0.61572266 16.18967285 -1.85644531 16.1840332 -3.13476562 16.17822266 C-7.3477475 15.36067711 -8.84127618 13.8597515 -11.46875 10.53125 C-12.03125 7.46875 -12.03125 7.46875 -11.46875 4.53125 C-8.2777471 0.1560393 -5.0963964 -0.05992253 0 0 Z " fill="#030001" transform="translate(86.46875,116.46875)"/>
<path d="M0 0 C23.1 0 46.2 0 70 0 C70.495 5.94 70.495 5.94 71 12 C69.02 12 67.04 12 65 12 C64.54625 11.030625 64.0925 10.06125 63.625 9.0625 C62.34213779 5.92920418 62.34213779 5.92920418 60 5 C55.8495801 4.58427885 55.8495801 4.58427885 52.1875 6.25 C50.88741278 8.16591802 50.39143023 9.72970466 50 12 C47.36 12 44.72 12 42 12 C41.71125 11.21625 41.4225 10.4325 41.125 9.625 C40.15087746 6.90328368 40.15087746 6.90328368 38 5 C34.54213985 4.49992206 34.54213985 4.49992206 31 5 C28.66869281 7.25359695 28.02928092 8.91215725 27 12 C24.69 12 22.38 12 20 12 C19.54625 11.030625 19.0925 10.06125 18.625 9.0625 C17.34213779 5.92920418 17.34213779 5.92920418 15 5 C10.8495801 4.58427885 10.8495801 4.58427885 7.1875 6.25 C5.88741278 8.16591802 5.39143023 9.72970466 5 12 C3.02 12 1.04 12 -1 12 C-1.02712066 10.56260487 -1.04645067 9.12506137 -1.0625 7.6875 C-1.07410156 6.88699219 -1.08570313 6.08648437 -1.09765625 5.26171875 C-1 3 -1 3 0 0 Z " fill="#D7E1E6" transform="translate(221,15)"/>
<path d="M0 0 C23.1 0 46.2 0 70 0 C70.495 5.94 70.495 5.94 71 12 C69.02 12 67.04 12 65 12 C64.54625 11.030625 64.0925 10.06125 63.625 9.0625 C62.34213779 5.92920418 62.34213779 5.92920418 60 5 C55.8495801 4.58427885 55.8495801 4.58427885 52.1875 6.25 C50.88741278 8.16591802 50.39143023 9.72970466 50 12 C47.36 12 44.72 12 42 12 C41.71125 11.21625 41.4225 10.4325 41.125 9.625 C40.15087746 6.90328368 40.15087746 6.90328368 38 5 C35.08461971 4.49957854 35.08461971 4.49957854 32 5 C29.15219381 7.23206431 28.15002334 8.54992999 27 12 C24.69 12 22.38 12 20 12 C19.731875 11.21625 19.46375 10.4325 19.1875 9.625 C18.15185568 6.71885077 18.15185568 6.71885077 15 5 C10.84597876 4.54142465 10.84597876 4.54142465 7.1875 6.25 C5.88741278 8.16591802 5.39143023 9.72970466 5 12 C3.02 12 1.04 12 -1 12 C-1.07329796 7.60212211 -1.07396066 4.29584263 0 0 Z " fill="#D7E1E6" transform="translate(381,15)"/>
<path d="M0 0 C22.77 0 45.54 0 69 0 C71.25 7.875 71.25 7.875 71 12 C68.69 12 66.38 12 64 12 C63.71125 11.030625 63.4225 10.06125 63.125 9.0625 C62.35785318 5.89335797 62.35785318 5.89335797 60 5 C55.94857881 4.74139865 54.45662331 4.69558446 51 7 C49.79549696 9.55183404 49.79549696 9.55183404 49 12 C46.69 12 44.38 12 42 12 C41.71125 11.21625 41.4225 10.4325 41.125 9.625 C40.15087746 6.90328368 40.15087746 6.90328368 38 5 C33.31790006 4.49185144 33.31790006 4.49185144 29.125 6.25 C27.89493337 8.16343698 27.38497994 9.76711635 27 12 C24.69 12 22.38 12 20 12 C19.54625 11.030625 19.0925 10.06125 18.625 9.0625 C17.34213779 5.92920418 17.34213779 5.92920418 15 5 C10.82683426 4.57157247 10.82683426 4.57157247 7.1875 6.3125 C5.80544154 8.10476225 5.80544154 8.10476225 5 11 C3.02 11 1.04 11 -1 11 C-1.0270043 9.54176788 -1.04639787 8.08339325 -1.0625 6.625 C-1.07410156 5.81289063 -1.08570313 5.00078125 -1.09765625 4.1640625 C-1 2 -1 2 0 0 Z " fill="#D8E2E7" transform="translate(61,15)"/>
<path d="M0 0 C0 4.62 0 9.24 0 14 C-19.96810934 20.51936219 -19.96810934 20.51936219 -29 22 C-30.72269321 18.6622819 -31.11605093 16.00026096 -31.0625 12.30859375 C-31.05347656 11.50091553 -31.04445313 10.6932373 -31.03515625 9.86108398 C-31.02355469 9.24692627 -31.01195312 8.63276855 -31 8 C-30.3294458 7.82871582 -29.6588916 7.65743164 -28.96801758 7.48095703 C-25.91528033 6.69909731 -22.86388983 5.91210116 -19.8125 5.125 C-18.75740234 4.85558594 -17.70230469 4.58617187 -16.61523438 4.30859375 C-15.08286133 3.91220703 -15.08286133 3.91220703 -13.51953125 3.5078125 C-12.58214111 3.26691895 -11.64475098 3.02602539 -10.67895508 2.77783203 C-7.96992091 2.04346244 -7.96992091 2.04346244 -5.3425293 0.90576172 C-3 0 -3 0 0 0 Z " fill="#E9D506" transform="translate(446,159)"/>
<path d="M0 0 C10.27772354 2.03413278 20.05924728 4.73375268 30 8 C30.66 12.62 31.32 17.24 32 22 C25.5732571 21.57155047 20.15328235 20.19151589 14.0859375 18.0546875 C9.44832459 16.46968056 4.7385229 15.24697971 0 14 C0 9.38 0 4.76 0 0 Z " fill="#F8EC60" transform="translate(65,159)"/>
<path d="M0 0 C0 4.62 0 9.24 0 14 C-3.89508351 15.14843494 -7.79101327 16.29384422 -11.6875 17.4375 C-13.34168945 17.92573242 -13.34168945 17.92573242 -15.02929688 18.42382812 C-16.09599609 18.73642578 -17.16269531 19.04902344 -18.26171875 19.37109375 C-19.24100342 19.65911865 -20.22028809 19.94714355 -21.22924805 20.24389648 C-23.80788759 20.94757493 -26.37304778 21.51150849 -29 22 C-30.98109499 17.04726253 -31.08658837 13.23859642 -31 8 C-29.47632813 7.63648438 -29.47632813 7.63648438 -27.921875 7.265625 C-20.26422599 5.41024338 -12.78269161 3.39793078 -5.35546875 0.734375 C-3 0 -3 0 0 0 Z " fill="#E9D506" transform="translate(286,159)"/>
</svg>
