<?xml version="1.0" encoding="UTF-8"?>
<svg version="1.1" xmlns="http://www.w3.org/2000/svg" width="512" height="512">
<path d="M0 0 C1.30904297 -0.0038269 2.61808594 -0.00765381 3.96679688 -0.01159668 C6.73066196 -0.01747605 9.49400802 -0.00898041 12.2578125 0.00976562 C15.78862831 0.03255558 19.31822777 0.01942391 22.84899902 -0.00452423 C26.23276177 -0.02250956 29.61620276 -0.00989232 33 0 C34.89395508 -0.01214539 34.89395508 -0.01214539 36.82617188 -0.02453613 C47.70995295 0.09161988 47.70995295 0.09161988 52.5 4.53125 C56.7940527 9.44078358 57.12201939 13.4230929 57 19.65625 C57.02320313 20.85314453 57.02320313 20.85314453 57.046875 22.07421875 C57.02208439 25.78661328 56.90219703 27.92043675 54.828125 31.0703125 C51.91382248 32.89908623 50.16389042 32.94381621 46.75 32.78125 C45.76515625 32.74515625 44.7803125 32.7090625 43.765625 32.671875 C43.01796875 32.62546875 42.2703125 32.5790625 41.5 32.53125 C41.65146484 33.09521484 41.80292969 33.65917969 41.95898438 34.24023438 C42.6495507 36.83463894 43.32483978 39.43279552 44 42.03125 C44.23847656 42.918125 44.47695313 43.805 44.72265625 44.71875 C46.37280811 51.13076867 47.65175311 57.07599067 45.5 63.53125 C45.85107427 65.78993348 45.85107427 65.78993348 46.57421875 68.265625 C46.82792236 69.22146484 47.08162598 70.17730469 47.34301758 71.16210938 C47.62169678 72.19142578 47.90037598 73.22074219 48.1875 74.28125 C51.31497985 86.26309418 53.6556708 98.28910831 55.5 110.53125 C55.6045752 111.21123047 55.70915039 111.89121094 55.81689453 112.59179688 C56.58719385 118.0651938 56.73016021 123.50853084 56.75 129.03125 C56.75394775 129.99522705 56.75789551 130.9592041 56.76196289 131.95239258 C56.7142292 137.88268913 56.20027282 143.42844002 54.9375 149.21875 C52.92628448 158.65895298 53.00649648 166.34331565 57.73046875 174.93359375 C62.06416769 181.29542552 67.59545346 186.76765939 73.15625 192.05859375 C82.70092871 201.14665974 89.3527653 212.00161867 93.5 224.53125 C93.74750031 225.2739105 93.99500063 226.01657101 94.25000095 226.78173637 C97.13255736 236.63170386 96.93043536 246.29705396 96.90405273 256.46142578 C96.90976398 258.45680115 96.91673114 260.45217326 96.92485046 262.44754028 C96.94270934 267.83580662 96.94162773 273.22390947 96.93590808 278.61219645 C96.93280701 283.12025325 96.93891856 287.62827906 96.94494683 292.13633144 C96.95896529 302.77271751 96.95745186 313.4090232 96.94604492 324.04541016 C96.93455411 335.00185594 96.94866176 345.95805721 96.9754414 356.91447079 C96.99761642 366.34156008 97.00423206 375.76857271 96.99836498 385.19568622 C96.99500003 390.81743856 96.99738051 396.43903402 97.01461601 402.06076431 C97.03011277 407.3452347 97.02609915 412.62934305 97.00731087 417.91379929 C97.00363321 419.84790224 97.00670934 421.78203221 97.01719666 423.71611023 C97.07819482 435.89936389 97.00243392 446.57851772 88.203125 456 C80.2056354 463.19040349 72.18351766 464.83118856 61.69628906 464.82177734 C60.61907593 464.82849457 59.54186279 464.83521179 58.43200684 464.84213257 C54.87649908 464.86110506 51.32118021 464.86503658 47.765625 464.8671875 C45.28708825 464.87361649 42.80855225 464.88034493 40.33001709 464.88735962 C35.13503257 464.89933092 29.94011453 464.90304064 24.74511719 464.90185547 C18.10303867 464.90165242 11.4613995 464.92894111 4.81940079 464.96339989 C-0.30057719 464.98568834 -5.42045242 464.98969238 -10.54047394 464.98863602 C-12.98838018 464.99098954 -15.43628936 464.99979897 -17.88414764 465.01530075 C-21.31596973 465.0349969 -24.7468726 465.02910733 -28.17871094 465.01708984 C-29.18061462 465.02832886 -30.18251831 465.03956787 -31.21478271 465.05114746 C-40.29043189 464.97079015 -48.24225289 462.51666947 -54.96875 456.234375 C-61.3756866 449.10829245 -63.80597436 441.70047539 -63.76742554 432.16603088 C-63.77195665 431.33844314 -63.77648776 430.5108554 -63.78115618 429.65818924 C-63.7937885 426.89259304 -63.79218053 424.12719407 -63.79052734 421.36157227 C-63.7965136 419.3751958 -63.80331937 417.38882165 -63.81088257 415.40245056 C-63.82854675 410.00939626 -63.83323833 404.61640545 -63.83451414 399.22332501 C-63.83593685 395.84918831 -63.8402089 392.47506769 -63.84550858 389.10093498 C-63.86401513 377.31540785 -63.87217901 365.52992594 -63.87060547 353.74438477 C-63.86940615 342.7836291 -63.89046579 331.82307102 -63.9220928 320.86236531 C-63.94831832 311.43532693 -63.95897003 302.0083528 -63.95769465 292.58127826 C-63.95718656 286.9587074 -63.9627839 281.33631187 -63.98405075 275.71377754 C-64.0035372 270.4170755 -64.00348686 265.12071406 -63.98901749 259.8239994 C-63.98694066 257.89038338 -63.9915623 255.95674546 -64.0037384 254.02316666 C-64.08945909 239.45532413 -62.67890273 226.25637334 -55.6875 213.15625 C-55.1605957 212.14788086 -55.1605957 212.14788086 -54.62304688 211.11914062 C-49.40454021 201.37100792 -42.31974709 194.13681566 -34.36132812 186.55273438 C-27.32430506 179.73328111 -21.13630166 172.37355876 -20.19921875 162.296875 C-20.17593854 155.3128135 -20.68810702 148.83107649 -22 141.96875 C-26.38426497 118.16332062 -22.12621398 94.93077896 -15.43334961 71.98095703 C-13.83970626 66.3510768 -13.21447473 61.62350811 -13.62109375 55.7578125 C-13.32585343 47.89108657 -10.60645989 40.08313278 -8.5 32.53125 C-9.24765625 32.57765625 -9.9953125 32.6240625 -10.765625 32.671875 C-12.24289063 32.72601563 -12.24289063 32.72601563 -13.75 32.78125 C-14.72453125 32.82765625 -15.6990625 32.8740625 -16.703125 32.921875 C-19.5 32.53125 -19.5 32.53125 -21.828125 31.0703125 C-24.29392089 27.32552903 -24.0851001 24.04599685 -24 19.65625 C-24.01546875 18.86605469 -24.0309375 18.07585938 -24.046875 17.26171875 C-24.01117571 11.89790115 -23.14602521 8.69987216 -19.5 4.53125 C-13.766031 -0.78324926 -7.49633132 -0.0480718 0 0 Z " fill="#EE8700" transform="translate(239.5,23.46875)"/>
<path d="M0 0 C1.30904297 -0.0038269 2.61808594 -0.00765381 3.96679688 -0.01159668 C6.73066196 -0.01747605 9.49400802 -0.00898041 12.2578125 0.00976562 C15.78862831 0.03255558 19.31822777 0.01942391 22.84899902 -0.00452423 C26.23276177 -0.02250956 29.61620276 -0.00989232 33 0 C34.89395508 -0.01214539 34.89395508 -0.01214539 36.82617188 -0.02453613 C47.70995295 0.09161988 47.70995295 0.09161988 52.5 4.53125 C56.7940527 9.44078358 57.12201939 13.4230929 57 19.65625 C57.02320313 20.85314453 57.02320313 20.85314453 57.046875 22.07421875 C57.02208439 25.78661328 56.90219703 27.92043675 54.828125 31.0703125 C51.91382248 32.89908623 50.16389042 32.94381621 46.75 32.78125 C45.76515625 32.74515625 44.7803125 32.7090625 43.765625 32.671875 C43.01796875 32.62546875 42.2703125 32.5790625 41.5 32.53125 C41.65146484 33.09521484 41.80292969 33.65917969 41.95898438 34.24023438 C42.6495507 36.83463894 43.32483978 39.43279552 44 42.03125 C44.23847656 42.918125 44.47695313 43.805 44.72265625 44.71875 C46.37280811 51.13076867 47.65175311 57.07599067 45.5 63.53125 C45.85107427 65.78993348 45.85107427 65.78993348 46.57421875 68.265625 C46.82792236 69.22146484 47.08162598 70.17730469 47.34301758 71.16210938 C47.62169678 72.19142578 47.90037598 73.22074219 48.1875 74.28125 C51.31497985 86.26309418 53.6556708 98.28910831 55.5 110.53125 C55.6045752 111.21123047 55.70915039 111.89121094 55.81689453 112.59179688 C56.58719385 118.0651938 56.73016021 123.50853084 56.75 129.03125 C56.75394775 129.99522705 56.75789551 130.9592041 56.76196289 131.95239258 C56.7142292 137.88268913 56.20027282 143.42844002 54.9375 149.21875 C52.92628448 158.65895298 53.00649648 166.34331565 57.73046875 174.93359375 C62.06416769 181.29542552 67.59545346 186.76765939 73.15625 192.05859375 C86.32370411 204.59612336 92.1563764 219.15675558 96.5 236.53125 C96.5 245.77125 96.5 255.01125 96.5 264.53125 C43.7 264.53125 -9.1 264.53125 -63.5 264.53125 C-63.5 237.49526043 -62.2287154 214.37245104 -42.72998047 194.75 C-37.10705905 189.16931521 -37.10705905 189.16931521 -34.36132812 186.55273438 C-27.32430506 179.73328111 -21.13630166 172.37355876 -20.19921875 162.296875 C-20.17593854 155.3128135 -20.68810702 148.83107649 -22 141.96875 C-26.38426497 118.16332062 -22.12621398 94.93077896 -15.43334961 71.98095703 C-13.83970626 66.3510768 -13.21447473 61.62350811 -13.62109375 55.7578125 C-13.32585343 47.89108657 -10.60645989 40.08313278 -8.5 32.53125 C-9.24765625 32.57765625 -9.9953125 32.6240625 -10.765625 32.671875 C-12.24289063 32.72601563 -12.24289063 32.72601563 -13.75 32.78125 C-14.72453125 32.82765625 -15.6990625 32.8740625 -16.703125 32.921875 C-19.5 32.53125 -19.5 32.53125 -21.828125 31.0703125 C-24.29392089 27.32552903 -24.0851001 24.04599685 -24 19.65625 C-24.01546875 18.86605469 -24.0309375 18.07585938 -24.046875 17.26171875 C-24.01117571 11.89790115 -23.14602521 8.69987216 -19.5 4.53125 C-13.766031 -0.78324926 -7.49633132 -0.0480718 0 0 Z " fill="#8B5D3B" transform="translate(239.5,23.46875)"/>
<path d="M0 0 C52.8 0 105.6 0 160 0 C160 70.58522727 160 70.58522727 151.703125 79.46875 C143.7056354 86.65915349 135.68351766 88.29993856 125.19628906 88.29052734 C124.11907593 88.29724457 123.04186279 88.30396179 121.93200684 88.31088257 C118.37649908 88.32985506 114.82118021 88.33378658 111.265625 88.3359375 C108.78708825 88.34236649 106.30855225 88.34909493 103.83001709 88.35610962 C98.63503257 88.36808092 93.44011453 88.37179064 88.24511719 88.37060547 C81.60303867 88.37040242 74.9613995 88.39769111 68.31940079 88.43214989 C63.19942281 88.45443834 58.07954758 88.45844238 52.95952606 88.45738602 C50.51161982 88.45973954 48.06371064 88.46854897 45.61585236 88.48405075 C42.18403027 88.5037469 38.7531274 88.49785733 35.32128906 88.48583984 C34.31938538 88.49707886 33.31748169 88.50831787 32.28521729 88.51989746 C23.20956811 88.43954015 15.25774711 85.98541947 8.53125 79.703125 C-10.26028762 58.80233316 0 23.61329167 0 0 Z " fill="#8B5D3B" transform="translate(176,400)"/>
<path d="M0 0 C1.30904297 -0.0038269 2.61808594 -0.00765381 3.96679688 -0.01159668 C6.73066196 -0.01747605 9.49400802 -0.00898041 12.2578125 0.00976562 C15.78862831 0.03255558 19.31822777 0.01942391 22.84899902 -0.00452423 C26.23276177 -0.02250956 29.61620276 -0.00989232 33 0 C34.89395508 -0.01214539 34.89395508 -0.01214539 36.82617188 -0.02453613 C47.70995295 0.09161988 47.70995295 0.09161988 52.5 4.53125 C56.7940527 9.44078358 57.12201939 13.4230929 57 19.65625 C57.02320313 20.85314453 57.02320313 20.85314453 57.046875 22.07421875 C57.04171875 22.84636719 57.0365625 23.61851563 57.03125 24.4140625 C57.02673828 25.10902832 57.02222656 25.80399414 57.01757812 26.52001953 C56.24853891 29.50838984 54.90731641 30.62288697 52.5 32.53125 C49.3125 33.03918457 49.3125 33.03918457 45.5 33.04882812 C44.45537598 33.05934204 44.45537598 33.05934204 43.38964844 33.07006836 C41.09269068 33.08764196 38.79696979 33.07602919 36.5 33.0625 C34.90103927 33.06519513 33.30208013 33.06907773 31.703125 33.07409668 C28.35400774 33.07999082 25.00531757 33.07143192 21.65625 33.05273438 C17.36521409 33.02994435 13.07517889 33.04306796 8.78417969 33.06702423 C5.48299634 33.0814848 2.18204989 33.07687515 -1.11914062 33.06651306 C-2.70117308 33.06384646 -4.28322711 33.06711322 -5.86523438 33.07643127 C-8.07740163 33.08660179 -10.287953 33.0710919 -12.5 33.04882812 C-13.758125 33.04564575 -15.01625 33.04246338 -16.3125 33.03918457 C-20.05512719 32.44278936 -21.23273692 31.50719549 -23.5 28.53125 C-24.01757812 26.52001953 -24.01757812 26.52001953 -24.03125 24.4140625 C-24.03640625 23.64191406 -24.0415625 22.86976562 -24.046875 22.07421875 C-24.03140625 21.27628906 -24.0159375 20.47835937 -24 19.65625 C-24.02320313 18.47095703 -24.02320313 18.47095703 -24.046875 17.26171875 C-24.01117571 11.89790115 -23.14602521 8.69987216 -19.5 4.53125 C-13.766031 -0.78324926 -7.49633132 -0.0480718 0 0 Z " fill="#EE8700" transform="translate(239.5,23.46875)"/>
<path d="M0 0 C16.5 0 33 0 50 0 C55 20 55 20 55 28 C51.68573944 31.52349418 48.66542508 32.22788049 44.0078125 32.51757812 C42.04704565 32.54384589 40.08587854 32.54712468 38.125 32.53125 C37.08230957 32.5350769 36.03961914 32.53890381 34.96533203 32.54284668 C32.76659171 32.54556178 30.56781886 32.53822885 28.36914062 32.52148438 C25.01098353 32.50007004 21.65496585 32.52130079 18.296875 32.546875 C16.1562453 32.54423165 14.01561692 32.53910654 11.875 32.53125 C10.87484863 32.53934692 9.87469727 32.54744385 8.84423828 32.55578613 C4.46571273 32.49712843 1.40264685 32.16776952 -2.6796875 30.46679688 C-5 28 -5 28 -5 20 C-3.35 13.4 -1.7 6.8 0 0 Z " fill="#754C29" transform="translate(231,56)"/>
</svg>
