<?xml version="1.0" encoding="UTF-8"?>
<svg version="1.1" xmlns="http://www.w3.org/2000/svg" width="512" height="512">
<path d="M0 0 C1.02954623 0.88958114 2.04927652 1.79065649 3.05859375 2.703125 C6.28764509 5.22461529 7.85015083 5.66524942 11.875 5.8125 C12.84179688 5.86019531 13.80859375 5.90789063 14.8046875 5.95703125 C15.52914062 5.97121094 16.25359375 5.98539063 17 6 C17.0825 4.906875 17.165 3.81375 17.25 2.6875 C18 -1 18 -1 19.76498127 -2.70669895 C22.27184527 -4.15730417 23.63806371 -4.37652738 26.51029968 -4.38031673 C27.41451314 -4.38875668 28.3187266 -4.39719662 29.25034046 -4.40589231 C30.73456769 -4.39687724 30.73456769 -4.39687724 32.2487793 -4.38768005 C33.30293124 -4.39306559 34.35708319 -4.39845113 35.44317913 -4.40399987 C38.98697663 -4.41834464 42.53040403 -4.41115953 46.07421875 -4.40405273 C48.61016135 -4.40975284 51.14610139 -4.41671569 53.68203735 -4.42485046 C59.8618361 -4.44096642 66.04149743 -4.44287472 72.22131085 -4.43763756 C77.24312195 -4.43359843 82.26490299 -4.43503635 87.28671265 -4.44038582 C88.001059 -4.44113424 88.71540534 -4.44188266 89.45139855 -4.44265376 C90.9025155 -4.44418521 92.35363244 -4.44572356 93.80474937 -4.44726873 C107.41638795 -4.46100028 121.02796908 -4.45555128 134.63960636 -4.44408352 C147.0977034 -4.43414832 159.55565198 -4.44709554 172.01372612 -4.47101771 C184.80110787 -4.49538755 197.58842041 -4.50502194 210.37582493 -4.49836498 C217.55685811 -4.49486831 224.73777706 -4.49713434 231.91879272 -4.51461601 C238.66902602 -4.53084497 245.41892963 -4.52618948 252.16917038 -4.50731087 C254.65083129 -4.5036102 257.13251303 -4.50677611 259.61415482 -4.51719666 C262.99350942 -4.53030668 266.37190812 -4.51894715 269.7512207 -4.50120544 C270.74070552 -4.51081045 271.73019033 -4.52041546 272.74965954 -4.53031152 C279.38015071 -4.45834449 279.38015071 -4.45834449 282.57804871 -2.09367466 C285.36152133 2.00469785 285.17766084 5.5075074 285.203125 10.33203125 C285.20882507 11.16079269 285.21452515 11.98955414 285.22039795 12.84342957 C285.22985248 14.59946413 285.23638373 16.35551647 285.24023438 18.11157227 C285.24992406 20.79149596 285.2809359 23.47064753 285.3125 26.15039062 C285.31903173 27.85676628 285.32428154 29.56314742 285.328125 31.26953125 C285.3404718 32.06865433 285.3528186 32.8677774 285.36553955 33.69111633 C285.34726046 38.28330899 284.97178107 41.264473 282 45 C279.36284904 46.31857548 277.4016736 46.11991704 274.44873047 46.11352539 C273.28767792 46.11344986 272.12662537 46.11337433 270.9303894 46.11329651 C269.67203278 46.10813522 268.41367615 46.10297394 267.1171875 46.09765625 C265.83264679 46.0962413 264.54810608 46.09482635 263.22463989 46.09336853 C259.80843158 46.08954911 256.39226574 46.07972373 252.97607422 46.06866455 C249.49056574 46.05843807 246.0050504 46.05386826 242.51953125 46.04882812 C235.67967005 46.03810096 228.83983706 46.02103142 222 46 C222.02618408 46.60996826 222.05236816 47.21993652 222.0793457 47.84838867 C222.18365719 50.62782758 222.24842982 53.40685439 222.3125 56.1875 C222.35439453 57.14720703 222.39628906 58.10691406 222.43945312 59.09570312 C222.5633337 66.25600044 222.5633337 66.25600044 219.71166992 70.0222168 C215.09722899 73.3878048 215.09722899 73.3878048 213.30078125 74.45703125 C212.32334961 75.04194336 212.32334961 75.04194336 211.32617188 75.63867188 C210.66166016 76.02603516 209.99714844 76.41339844 209.3125 76.8125 C208.63638672 77.21919922 207.96027344 77.62589844 207.26367188 78.04492188 C202.27232143 81 202.27232143 81 200 81 C200.02094727 81.8878418 200.04189453 82.77568359 200.06347656 83.69042969 C200.13175677 86.99294455 200.1818487 90.2947067 200.21972656 93.59765625 C200.23980982 95.02551121 200.26708252 96.45328425 200.30175781 97.88085938 C200.35042669 99.93640368 200.37299967 101.99085855 200.390625 104.046875 C200.41157227 105.28276367 200.43251953 106.51865234 200.45410156 107.79199219 C199.91827698 111.57733362 199.0003117 112.71663866 196 115 C193.25910772 115.72804951 190.76978794 115.57443241 188 115 C185.03141843 112.79259319 184.17134209 111.51402627 183 108 C183.04726415 106.04910049 183.14881705 104.09931687 183.28125 102.15234375 C184.32325205 89.8915522 184.32325205 89.8915522 180.33691406 78.80126953 C176.31868926 75.50874104 171.78898879 73.4741975 166.88525391 71.83007812 C164.6702662 70.85481806 163.50420672 69.89381359 162 68 C161.00537317 65.20178794 160.88124989 62.62501543 160.90234375 59.671875 C160.90484131 58.9509668 160.90733887 58.23005859 160.90991211 57.48730469 C160.92356812 56.13233887 160.92356812 56.13233887 160.9375 54.75 C160.958125 51.8625 160.97875 48.975 161 46 C155.06 46 149.12 46 143 46 C143.04640625 47.38574219 143.0928125 48.77148438 143.140625 50.19921875 C143.17815127 52.02862424 143.21455051 53.85805309 143.25 55.6875 C143.28351563 56.59951172 143.31703125 57.51152344 143.3515625 58.45117188 C143.41035359 62.4930591 143.36647116 65.27289011 141.52734375 68.921875 C139.20124003 70.83452907 137.67413696 71.63546557 134.92578125 72.69140625 C129.86535218 74.65524408 125.31613797 76.53631026 122 81 C119.82502163 89.10131887 120.53506438 97.73275106 121.16259766 106.02075195 C120.97212835 109.51068734 120.08197037 111.22746893 118 114 C114.87057535 115.56471233 111.38917777 115.69701958 108 115 C105.86694336 113.38378906 105.86694336 113.38378906 104 111 C103.75561523 107.96655273 103.75561523 107.96655273 104.05859375 104.43359375 C105.40226325 90.83173408 105.40226325 90.83173408 101.13769531 78.56542969 C96.58906686 74.91328767 91.47665378 72.6755085 85.95532227 70.87426758 C84 70 84 70 82 67 C81.77294922 64.73168945 81.77294922 64.73168945 81.8046875 62.11328125 C81.81435547 60.7065918 81.81435547 60.7065918 81.82421875 59.27148438 C81.84935547 57.80678711 81.84935547 57.80678711 81.875 56.3125 C81.88402344 55.32443359 81.89304687 54.33636719 81.90234375 53.31835938 C81.9259157 50.87866235 81.95881978 48.43945303 82 46 C80.77893555 46.01571045 79.55787109 46.0314209 78.29980469 46.04760742 C73.76748252 46.10192682 69.23518911 46.13635746 64.70263672 46.16479492 C62.74132447 46.17987695 60.78004592 46.20034547 58.81884766 46.22631836 C55.99893882 46.26272731 53.17947608 46.27973216 50.359375 46.29296875 C49.48319519 46.30845261 48.60701538 46.32393646 47.70428467 46.33988953 C41.63369543 46.34156591 41.63369543 46.34156591 38.41503906 44.60668945 C37 43 37 43 37 41 C32.545 41.495 32.545 41.495 28 42 C28.15855469 42.81726562 28.31710938 43.63453125 28.48046875 44.4765625 C31.35902326 63.99878933 27.23317476 82.65922332 15.98046875 98.91796875 C12.40057201 103.55198423 8.68343816 107.48742138 4 111 C7.09625353 113.06416902 10.1983335 114.53708387 13.5625 116.125 C18.3233511 118.38894376 21.97029401 120.69178184 25.8125 124.375 C30.85001877 128.75764133 35.60365138 128.84382931 42.0246582 128.70068359 C45.76698182 128.64982626 47.75594612 128.84354691 50.94921875 130.890625 C53.86778713 133.89258105 54.12172302 135.43905364 54.09423828 139.50634766 C54.09026535 140.9088829 54.09026535 140.9088829 54.08621216 142.3397522 C54.08096527 143.3542746 54.07571838 144.368797 54.0703125 145.4140625 C54.07890084 147.55860185 54.08937828 149.70313431 54.1015625 151.84765625 C54.11822594 155.23180505 54.12507961 158.61442288 54.09960938 161.99853516 C54.07856992 165.26299836 54.10195394 168.52472837 54.1328125 171.7890625 C54.10672409 173.29262802 54.10672409 173.29262802 54.08010864 174.8265686 C54.17097771 180.15622202 54.63262068 183.14660631 58.36669922 187.07568359 C58.97375702 187.60100677 59.58081482 188.12632996 60.20626831 188.66757202 C65.07964135 195.00452402 65.43810341 203.1487101 65.34057617 210.85595703 C65.34101425 211.7840065 65.34145233 212.71205597 65.34190369 213.66822815 C65.33983414 216.6983129 65.31659056 219.72782588 65.29296875 222.7578125 C65.28736626 224.87344053 65.28309925 226.98907248 65.28010559 229.10470581 C65.26870825 234.64492739 65.2392854 240.18490912 65.20599365 245.72503662 C65.17518214 251.38957476 65.16157666 257.05415203 65.14648438 262.71875 C65.11441052 273.81260477 65.06327652 284.90628236 65 296 C69.95 296 74.9 296 80 296 C79.99000725 294.22593529 79.99000725 294.22593529 79.97981262 292.41603088 C79.91889667 281.24930967 79.87397702 270.08262235 79.84456348 258.91577244 C79.82893316 253.17530432 79.80774287 247.43497077 79.77368164 241.69458008 C79.74099448 236.15082928 79.72312719 230.6072076 79.71536827 225.06336784 C79.70984156 222.95235093 79.69904932 220.84134078 79.68280983 218.7303791 C79.66091134 215.76484235 79.65803828 212.79983361 79.65942383 209.83422852 C79.648638 208.9689151 79.63785217 208.10360168 79.6267395 207.21206665 C79.66019067 200.55969539 80.5242781 194.08319294 84.79743958 188.76152039 C85.40544907 188.22364395 86.01345856 187.68576752 86.63989258 187.1315918 C91.07340695 182.40125116 90.93057359 178.14996372 90.76171875 171.89453125 C90.76452347 170.85229904 90.76732819 169.81006683 90.7702179 168.73625183 C90.775472 165.42726544 90.7349898 162.12111698 90.6875 158.8125 C90.65597412 155.49361867 90.63472311 152.17564931 90.63691711 148.85661316 C90.63678743 146.79751553 90.61661682 144.73829618 90.57389832 142.67964172 C90.55253068 135.73254175 90.55253068 135.73254175 92.89770508 131.89331055 C97.71579983 127.55417168 103.97083937 128.70111206 110.12084961 128.64990234 C111.57674158 128.63335996 113.0325529 128.60609164 114.48803711 128.56787109 C116.59271123 128.51291877 118.69548507 128.49120384 120.80078125 128.4765625 C122.06059814 128.45674316 123.32041504 128.43692383 124.6184082 128.41650391 C128 129 128 129 130.92114258 130.86352539 C133.95827604 135.44579827 133.60031451 139.32919813 133.4609375 144.70703125 C133.45789686 146.8417963 133.45530679 148.97656203 133.453125 151.11132812 C133.41975532 154.46228146 133.37499713 157.81267293 133.31933594 161.16333008 C133.27441899 164.40762367 133.2720894 167.64997474 133.2734375 170.89453125 C133.24349701 171.8874971 133.21355652 172.88046295 133.18270874 173.90351868 C133.2016917 179.248477 133.69573233 182.24139453 137.35791016 186.2565918 C137.96623688 186.81767136 138.5745636 187.37875092 139.20132446 187.95683289 C144.25188935 193.69391435 144.42781964 199.59822756 144.34057617 206.88256836 C144.34101425 207.84919403 144.34145233 208.8158197 144.34190369 209.81173706 C144.33982352 212.98798232 144.31652862 216.16369137 144.29296875 219.33984375 C144.28737006 221.54944063 144.28310125 223.75904125 144.28010559 225.96864319 C144.26867838 231.77029796 144.23922929 237.57172565 144.20599365 243.37329102 C144.17524707 249.29895964 144.16159044 255.22466514 144.14648438 261.15039062 C144.11435771 272.76702658 144.06318691 284.38349437 144 296 C149.28 296 154.56 296 160 296 C159.99111755 294.79223404 159.98223511 293.58446808 159.9730835 292.34010315 C159.89186944 280.93794697 159.83197297 269.53584976 159.79275131 258.13346958 C159.77190892 252.27188083 159.74365207 246.41052626 159.69824219 240.54907227 C159.65466561 234.88860216 159.63083772 229.22835681 159.62049103 223.56773186 C159.61312089 221.41204225 159.5987288 219.25636444 159.57707977 217.10077095 C159.54788922 214.07285451 159.54405059 211.04585759 159.54589844 208.01782227 C159.53151733 207.13380737 159.51713623 206.24979248 159.50231934 205.33898926 C159.54690613 198.55236491 161.01140574 192.34002418 165.64190578 187.1650219 C166.41628034 186.4040404 166.41628034 186.4040404 167.20629883 185.62768555 C171.20971533 181.23316187 170.80452135 176.65468984 170.69921875 170.95703125 C170.70581009 169.91101242 170.71240143 168.86499359 170.7191925 167.78727722 C170.73662099 164.46169549 170.71471273 161.13799213 170.6875 157.8125 C170.67620027 154.47667479 170.6735294 151.14140348 170.6879425 147.80558777 C170.69533098 145.73438475 170.6871055 143.66305371 170.6615448 141.59199524 C170.66218681 140.18484505 170.66218681 140.18484505 170.6628418 138.74926758 C170.65584763 137.92654861 170.64885345 137.10382965 170.64164734 136.25617981 C171.09173122 133.42246245 172.04289662 132.07365758 174 130 C179.08576517 128.30474494 184.50126645 128.81407596 189.82397461 128.81469727 C191.92647565 128.81251146 194.02845117 128.79434455 196.13085938 128.77539062 C197.47135238 128.77245624 198.81184787 128.77047175 200.15234375 128.76953125 C201.36913818 128.76542236 202.58593262 128.76131348 203.83959961 128.75708008 C206.88092531 128.99084748 208.51699365 129.28357855 211 131 C213.16189853 134.24284779 213.24626755 135.10096221 213.22705078 138.83862305 C213.22689972 139.8194133 213.22674866 140.80020355 213.22659302 141.81071472 C213.21627045 142.86704605 213.20594788 143.92337738 213.1953125 145.01171875 C213.19106766 146.63676079 213.19106766 146.63676079 213.18673706 148.29463196 C213.17553091 151.75903308 213.15042534 155.22317685 213.125 158.6875 C213.11497077 161.03450148 213.10584482 163.381507 213.09765625 165.72851562 C213.07559016 171.48576507 213.04210827 177.24286415 213 183 C213.93839722 183.42563232 213.93839722 183.42563232 214.89575195 183.85986328 C217.69205028 185.37497097 218.60829658 187.13879665 220.1875 189.875 C220.69667969 190.73867187 221.20585937 191.60234375 221.73046875 192.4921875 C223.54915982 196.08480187 224.12544385 199.15735146 224.12025452 203.16351318 C224.12231651 204.39602058 224.12231651 204.39602058 224.12442017 205.65342712 C224.12082489 206.54606766 224.11722961 207.43870819 224.11352539 208.35839844 C224.11367142 209.30507889 224.11381744 210.25175934 224.1139679 211.22712708 C224.11327153 214.3545664 224.10549198 217.48194608 224.09765625 220.609375 C224.09579109 222.77842171 224.09436765 224.94746883 224.09336853 227.11651611 C224.08955106 232.82441369 224.07972731 238.53228582 224.06866455 244.24017334 C224.0584339 250.06505997 224.05386736 255.88995072 224.04882812 261.71484375 C224.03810438 273.14324035 224.02103717 284.57161806 224 296 C225.62047241 295.97063354 225.62047241 295.97063354 227.27368164 295.94067383 C228.71500155 295.92483515 230.15632683 295.90948001 231.59765625 295.89453125 C232.30684204 295.88039185 233.01602783 295.86625244 233.7467041 295.85168457 C247.44098343 295.74546637 258.97423482 302.54587662 268.7109375 311.6796875 C279.51643503 322.63270036 284.9518764 336.18287686 285.375 351.5625 C284.92113572 366.70341234 278.94067372 380.94772602 268.37109375 391.8203125 C258.58398516 400.81735796 246.22753646 407.17676922 232.69921875 407.09765625 C231.72275391 407.09443359 230.74628906 407.09121094 229.74023438 407.08789062 C228.73283203 407.07951172 227.72542969 407.07113281 226.6875 407.0625 C225.66076172 407.05798828 224.63402344 407.05347656 223.57617188 407.04882812 C221.05072118 407.03708184 218.52539095 407.02065565 216 407 C216.01110306 408.09136765 216.02220612 409.18273529 216.03364563 410.30717468 C216.13500253 420.5921098 216.20995629 430.8769436 216.25906086 441.16226482 C216.28515488 446.45010378 216.3205498 451.73753957 216.37719727 457.02514648 C216.43152335 462.12800369 216.461422 467.23047311 216.47438622 472.33359718 C216.48362498 474.2804964 216.50166634 476.22737438 216.52865028 478.17410851 C216.56494875 480.90128821 216.56994505 483.62686565 216.56762695 486.35424805 C216.58560333 487.15913666 216.60357971 487.96402527 216.62210083 488.79330444 C216.58467911 492.86207379 216.18800118 494.75937506 213.65202332 498.00520325 C211 500 211 500 208 500.5625 C204.34092496 499.87642343 202.64832324 498.57265686 200 496 C192.54494951 481.08989902 199 462.66999967 199 446 C105.28 446 11.56 446 -85 446 C-85 461.84 -85 477.68 -85 494 C-87 498 -87 498 -88.75 499.25 C-91.7748674 500.25828913 -93.82612473 500.45341075 -97 500 C-100.73901915 497.20272244 -101.88893466 495.72817202 -102.60127258 491.0579071 C-102.61569267 489.49004695 -102.60263629 487.92178361 -102.56762695 486.35424805 C-102.56835709 485.4952037 -102.56908722 484.63615936 -102.56983948 483.75108337 C-102.56636484 480.92064571 -102.52751033 478.09186776 -102.48828125 475.26171875 C-102.47895267 473.29589232 -102.47183677 471.33005425 -102.46684265 469.36421204 C-102.44777648 464.19688675 -102.39867863 459.03026718 -102.34332275 453.86322021 C-102.29212226 448.58794704 -102.26932688 443.31255954 -102.24414062 438.03710938 C-102.19055979 427.69109664 -102.10525131 417.34560707 -102 407 C-102.93878998 407.01276474 -102.93878998 407.01276474 -103.89654541 407.02578735 C-106.76954429 407.05984995 -109.64250047 407.08079567 -112.515625 407.1015625 C-113.49998535 407.11517822 -114.4843457 407.12879395 -115.49853516 407.14282227 C-131.54809187 407.22968498 -144.02512577 401.41479179 -155.6796875 390.47265625 C-166.49963582 378.94230728 -171.38808892 364.08932488 -171.2109375 348.5 C-170.2099713 331.89137565 -162.92723815 319.06015317 -150.80859375 308 C-142.89121121 301.42814758 -132.46199215 296 -122 296 C-122.33773437 295.35933594 -122.67546875 294.71867187 -123.0234375 294.05859375 C-123.46945313 293.19363281 -123.91546875 292.32867187 -124.375 291.4375 C-124.81585938 290.59058594 -125.25671875 289.74367188 -125.7109375 288.87109375 C-128.92514575 281.71217537 -129.29314906 275.51460135 -129.2746582 267.74731445 C-129.27976913 266.63415359 -129.28488007 265.52099274 -129.29014587 264.37409973 C-129.30401512 260.70377178 -129.30308661 257.03363225 -129.30078125 253.36328125 C-129.30467053 250.80128409 -129.30900568 248.23928756 -129.31376648 245.67729187 C-129.32122364 240.30835609 -129.32108078 234.93949279 -129.31567383 229.57055664 C-129.30964642 223.39201925 -129.32191824 217.21371029 -129.3432439 211.03521186 C-129.36308858 205.0631378 -129.36602094 199.09118196 -129.36250877 193.11907005 C-129.36302005 190.59188489 -129.36822114 188.06469593 -129.37832069 185.5375309 C-129.39075019 181.99139816 -129.38385332 178.44578356 -129.37231445 174.8996582 C-129.38378006 173.35384064 -129.38378006 173.35384064 -129.39547729 171.77679443 C-129.27247686 154.54940426 -122.76003573 139.67464736 -110.6875 127.5546875 C-104.52743179 121.69904127 -98.31836634 117.95573916 -90.63671875 114.296875 C-87.86825235 113.0064336 -87.86825235 113.0064336 -85 111 C-86.051875 110.05253906 -86.051875 110.05253906 -87.125 109.0859375 C-101.68085391 95.36071656 -109.61841503 77.90864182 -110.3125 57.75 C-109.93715289 41.49277812 -105.07675915 26.80192043 -95 14 C-94.41605469 13.23945313 -93.83210938 12.47890625 -93.23046875 11.6953125 C-70.14019582 -16.40190382 -29.31986122 -18.81095039 0 0 Z M-85 407 C-85 414.26 -85 421.52 -85 429 C8.72 429 102.44 429 199 429 C199 421.74 199 414.48 199 407 C105.28 407 11.56 407 -85 407 Z " fill="#000000" transform="translate(199,12)"/>
<path d="M0 0 C1.47507851 -0.0043376 2.95015192 -0.01086134 4.42521232 -0.01936007 C8.44744595 -0.03624439 12.46905083 -0.02224612 16.49125087 -0.00284529 C20.84100766 0.01265295 25.19069094 -0.00083843 29.54045105 -0.0105896 C38.0490208 -0.02508221 46.55735111 -0.01291667 55.06589813 0.00852364 C64.98220695 0.03258992 74.89846156 0.03081582 84.8147931 0.02821773 C102.51182714 0.02453123 120.2087487 0.04532181 137.90574646 0.07946777 C155.06397849 0.11256173 172.22209252 0.12672476 189.38035583 0.1204834 C208.08231316 0.11371394 226.78422113 0.11619503 245.48617119 0.1358428 C246.47581137 0.13688229 247.46545156 0.13792177 248.48508085 0.13899276 C250.47250368 0.14108359 252.45992648 0.14319456 254.44734927 0.14532593 C261.35379491 0.15221085 268.26022531 0.15289262 275.16667366 0.15144348 C283.58653314 0.15000133 292.00629662 0.15973929 300.42612428 0.18338984 C304.71914964 0.19522057 309.01204147 0.20239449 313.30508232 0.19655228 C317.23990483 0.19135589 321.174446 0.2001547 325.1092205 0.21982688 C326.52761373 0.2245411 327.9460346 0.22429954 329.36442346 0.21841651 C342.81716921 0.16803834 354.81553884 2.1322164 365.08177185 11.43786621 C374.00381645 20.9765532 376.6523149 31.22899328 376.41770935 43.95349121 C375.92602687 54.05032351 371.20710621 61.73911946 364.0778656 68.62145996 C363.54419373 69.17575684 363.01052185 69.73005371 362.4606781 70.30114746 C357.7230824 74.85739979 352.30293684 76.76251832 346.0778656 78.62145996 C345.48868455 78.7994021 344.89950351 78.97734424 344.29246849 79.16067857 C341.51902095 79.73773598 338.92760308 79.75092936 336.09343815 79.75568104 C334.86036901 79.76013888 333.62729986 79.76459673 332.35686499 79.76918966 C330.98628238 79.76910036 329.61569977 79.76891051 328.24511719 79.76863098 C326.79074964 79.77193062 325.33638301 79.7756564 323.88201755 79.77977246 C319.87999441 79.7897896 315.87798627 79.79350881 311.87595236 79.79616177 C307.56148048 79.80006577 303.24702046 79.80964417 298.93255615 79.81837463 C288.50915477 79.8381382 278.08575241 79.84820594 267.66233698 79.85710242 C262.75226634 79.86148623 257.84219678 79.86685287 252.932127 79.87209129 C236.60651784 79.88910484 220.28090936 79.90359799 203.9552927 79.91084003 C199.71856244 79.9127499 195.48183217 79.91467023 191.24510193 79.91662598 C189.66559355 79.91735159 189.66559355 79.91735159 188.05417591 79.91809186 C171.00448213 79.92638827 153.9548586 79.95171805 136.90519548 79.98420665 C119.39546252 80.01729946 101.88576522 80.03529088 84.37600082 80.03848428 C74.54710691 80.04064751 64.71831538 80.04936864 54.88945198 80.07494545 C46.51667545 80.09668294 38.14402617 80.10468795 29.77122463 80.09497867 C25.50225009 80.09044255 21.23353794 80.09227982 16.96459961 80.11174011 C13.04905174 80.12943453 9.13395643 80.12832372 5.21840333 80.11284282 C3.80914329 80.11047619 2.3998514 80.1147408 0.99063987 80.12667147 C-12.55443904 80.23415428 -24.55476181 77.80129714 -34.9221344 68.62145996 C-42.78662177 60.60106865 -46.39427848 50.58278829 -46.4846344 39.49645996 C-46.28558237 28.10809292 -42.74665129 19.97618025 -34.9221344 11.62145996 C-24.97378173 2.16730192 -13.30499386 -0.12799838 0 0 Z " fill="#595C88" transform="translate(90.92213439941406,323.3785400390625)"/>
<path d="M0 0 C1.37519327 0.00052033 2.75038729 -0.00000403 4.12557983 -0.00151062 C6.98813179 -0.00142159 9.85039805 0.00886625 12.71289062 0.02709961 C16.35843105 0.04982754 20.00355706 0.05031548 23.64914894 0.04358196 C26.48210248 0.04022129 29.31496369 0.0469106 32.14789963 0.0567112 C34.1379495 0.06235937 36.12801512 0.06113649 38.11807251 0.05973816 C46.90801235 0.12812788 54.63839252 0.96753446 62.8359375 4.36328125 C63.64804688 4.69328125 64.46015625 5.02328125 65.296875 5.36328125 C67.4609375 6.36328125 67.4609375 6.36328125 70.4609375 8.36328125 C70.86880493 10.41018677 70.86880493 10.41018677 70.91259766 12.96142578 C70.9349649 13.91647003 70.95733215 14.87151428 70.9803772 15.85549927 C70.99009048 17.41009354 70.99009048 17.41009354 71 18.99609375 C71.01235687 20.06189667 71.02471375 21.12769958 71.03744507 22.22579956 C71.05704897 24.48706556 71.06825 26.7484174 71.07177734 29.00976562 C71.08580039 32.45459927 71.15302364 35.89574584 71.22265625 39.33984375 C71.23506244 41.5377443 71.244278 43.73566563 71.25 45.93359375 C71.27671783 46.95784454 71.30343567 47.98209534 71.33096313 49.03738403 C71.26754923 55.78416283 69.89570843 58.68812183 65.18901062 63.44602966 C58.85854632 70.46951298 59.98781967 80.82052763 59.94921875 89.6796875 C59.93234434 91.14657568 59.91419045 92.61344965 59.89482117 94.08030701 C59.84761415 97.91227778 59.8176165 101.74419091 59.79138184 105.57635498 C59.76142711 109.49828473 59.71494863 113.42001634 59.66992188 117.34179688 C59.58422285 125.01552604 59.51673055 132.68927014 59.4609375 140.36328125 C56.4909375 140.36328125 53.5209375 140.36328125 50.4609375 140.36328125 C50.1721875 139.41453125 49.8834375 138.46578125 49.5859375 137.48828125 C48.69268641 134.31116547 48.69268641 134.31116547 46.4609375 132.36328125 C43.75059112 132.03095441 43.75059112 132.03095441 40.54248047 132.04443359 C39.30134491 132.0245639 38.06020935 132.00469421 36.78146362 131.98422241 C35.42201923 131.97234514 34.06257295 131.96068233 32.703125 131.94921875 C31.31591632 131.93051396 29.9287191 131.91094106 28.54153442 131.89053345 C24.88867946 131.83913313 21.23578756 131.79955 17.58276367 131.76239014 C13.85586353 131.72239977 10.12911801 131.67128486 6.40234375 131.62109375 C-0.91135238 131.52424106 -8.2251231 131.4398665 -15.5390625 131.36328125 C-15.54714935 130.67867828 -15.55523621 129.99407532 -15.56356812 129.28872681 C-15.64941257 122.18382719 -15.74890665 115.07921308 -15.85644531 107.97460938 C-15.89480431 105.32068667 -15.92964476 102.66671074 -15.9609375 100.01269531 C-16.00643786 96.20488415 -16.06445699 92.39744167 -16.125 88.58984375 C-16.13655121 87.39710846 -16.14810242 86.20437317 -16.16000366 84.97549438 C-16.17987335 83.87450409 -16.19974304 82.77351379 -16.22021484 81.63916016 C-16.23353851 80.66653229 -16.24686218 79.69390442 -16.2605896 78.69180298 C-16.31866554 76.17158643 -16.31866554 76.17158643 -18.5390625 74.36328125 C-23.6227885 73.70991198 -23.6227885 73.70991198 -28.13710022 75.4957428 C-30.16597079 78.19837885 -29.92715296 80.25106923 -29.94311523 83.60717773 C-29.95579941 84.89538925 -29.96848358 86.18360077 -29.98155212 87.510849 C-29.97950061 88.91869263 -29.97651253 90.32653516 -29.97265625 91.734375 C-29.97721707 93.17782335 -29.98252234 94.62126952 -29.98854065 96.06471252 C-29.99747702 99.09018778 -29.99504315 102.11539916 -29.98510742 105.14086914 C-29.97362077 109.0160397 -29.99382057 112.89029862 -30.02302456 116.76534939 C-30.04138158 119.74654416 -30.04109513 122.72752029 -30.03538704 125.7087574 C-30.03523374 127.13729188 -30.04128537 128.5658411 -30.05367851 129.99432182 C-30.06857302 131.99282709 -30.0552894 133.9914822 -30.04077148 135.98999023 C-30.04060532 137.12677719 -30.04043915 138.26356415 -30.04026794 139.43479919 C-29.74226313 142.43236705 -29.74226313 142.43236705 -27.88032532 144.72749329 C-24.92028635 146.79560631 -23.17305521 146.87896198 -19.57714844 146.90917969 C-18.37620544 146.92889832 -17.17526245 146.94861694 -15.93792725 146.96893311 C-14.64614563 146.97016174 -13.35436401 146.97139038 -12.0234375 146.97265625 C-10.68391929 146.98764151 -9.34441954 147.0043694 -8.00494385 147.02276611 C-4.48684837 147.06641436 -0.96900209 147.08643265 2.54931641 147.10150146 C6.14240235 147.12108204 9.73521952 147.16305083 13.328125 147.203125 C20.37231854 147.27839934 27.41642167 147.32663713 34.4609375 147.36328125 C34.4609375 154.95328125 34.4609375 162.54328125 34.4609375 170.36328125 C25.50680284 170.4766468 16.55315176 170.56820557 7.59845924 170.62234211 C3.43955251 170.64833677 -0.718834 170.68354642 -4.87744141 170.74047852 C-8.8975288 170.7951642 -12.91711868 170.82477781 -16.93754959 170.83766747 C-18.46446175 170.84684236 -19.99134943 170.8647578 -21.51804733 170.89193153 C-31.40038813 171.06068846 -39.57036432 170.46914057 -47.35995483 163.80561829 C-54.13630108 156.71183668 -54.9867987 148.01923186 -54.92724609 138.61791992 C-54.93250305 137.58249557 -54.93776001 136.54707123 -54.94317627 135.48027039 C-54.95630631 132.08044034 -54.9476608 128.68108427 -54.9375 125.28125 C-54.9395232 122.90147309 -54.94243668 120.52169679 -54.94619751 118.141922 C-54.95061181 113.16153035 -54.94422018 108.18130051 -54.93017578 103.20092773 C-54.91311267 96.84278774 -54.92291288 90.48502852 -54.94089317 84.12690258 C-54.95177898 79.21357908 -54.94826222 74.30034451 -54.9405098 69.3870182 C-54.93851958 67.04404975 -54.94092526 64.70107302 -54.94794846 62.35811424 C-55.0174567 32.64654153 -55.0174567 32.64654153 -45.5390625 19.36328125 C-45.04792969 18.66460937 -44.55679688 17.9659375 -44.05078125 17.24609375 C-32.91097308 3.03800094 -17.05617888 -0.12148351 0 0 Z " fill="#08A56C" transform="translate(140.5390625,137.63671875)"/>
<path d="M0 0 C1.58250955 -0.01064158 1.58250955 -0.01064158 3.196989 -0.02149814 C6.73793153 -0.03912323 10.277783 -0.02094925 13.81871033 -0.00291443 C16.35480246 -0.00805145 18.89089103 -0.01533107 21.42697144 -0.02459717 C27.60339036 -0.04121879 33.77940364 -0.03445917 39.95580728 -0.01650894 C44.97474627 -0.00248542 49.99359937 0.00141041 55.01255608 -0.00195122 C56.08387236 -0.00266738 56.08387236 -0.00266738 57.17683141 -0.00339801 C58.62770683 -0.00442434 60.07858224 -0.00547969 61.52945762 -0.00656378 C74.35901143 -0.01513154 87.18841245 0.00154725 100.01792908 0.03126526 C112.47014278 0.06010894 124.92213644 0.06718349 137.37437439 0.05177307 C150.932104 0.03501753 164.48972913 0.03096958 178.04746145 0.04848343 C179.49270498 0.05032784 180.93794851 0.05216256 182.38319206 0.0539875 C183.09429472 0.05489959 183.80539739 0.05581168 184.53804861 0.05675141 C189.55215837 0.06236039 194.56621717 0.05904633 199.58032417 0.05244255 C206.32649314 0.04391034 213.07229685 0.05684705 219.81842995 0.08429146 C222.29847011 0.09119504 224.77853987 0.0912523 227.25857925 0.08407593 C230.63571662 0.07542762 234.01186189 0.09125997 237.38891602 0.11352539 C238.37771871 0.10528462 239.36652141 0.09704386 240.38528782 0.08855337 C247.01111073 0.16956298 247.01111073 0.16956298 250.20859432 2.53535557 C252.99336712 6.63278325 252.80862863 10.13600152 252.83409119 14.96022034 C252.83979126 15.78898178 252.84549133 16.61774323 252.85136414 17.47161865 C252.86081867 19.22765322 252.86734991 20.98370556 252.87120056 22.73976135 C252.88089024 25.41968504 252.91190208 28.09883662 252.94346619 30.77857971 C252.94999792 32.48495537 252.95524772 34.19133651 252.95909119 35.89772034 C252.97143799 36.69684341 252.98378479 37.49596649 252.99650574 38.31930542 C252.97822664 42.91149808 252.60274726 45.89266209 249.63096619 49.62818909 C246.99381523 50.94676457 245.03263979 50.74810613 242.07969666 50.74171448 C240.9186441 50.74163895 239.75759155 50.74156342 238.56135559 50.7414856 C237.30299896 50.73632431 236.04464233 50.73116302 234.74815369 50.72584534 C233.46361298 50.72443039 232.17907227 50.72301544 230.85560608 50.72155762 C227.43939777 50.7177382 224.02323193 50.70791282 220.60704041 50.69685364 C217.12153193 50.68662716 213.63601659 50.68205734 210.15049744 50.67701721 C203.31063623 50.66629004 196.47080325 50.64922051 189.63096619 50.62818909 C189.65715027 51.23815735 189.68333435 51.84812561 189.71031189 52.47657776 C189.81462337 55.25601667 189.87939601 58.03504348 189.94346619 60.81568909 C190.00630798 62.25524963 190.00630798 62.25524963 190.07041931 63.72389221 C190.19429989 70.88418953 190.19429989 70.88418953 187.34263611 74.65040588 C182.72819517 78.01599389 182.72819517 78.01599389 180.93174744 79.08522034 C180.28012634 79.47516174 179.62850525 79.86510315 178.95713806 80.26686096 C178.29262634 80.65422424 177.62811462 81.04158752 176.94346619 81.44068909 C176.26735291 81.84738831 175.59123962 82.25408752 174.89463806 82.67311096 C169.90328762 85.62818909 169.90328762 85.62818909 167.63096619 85.62818909 C167.65191345 86.51603088 167.67286072 87.40387268 167.69444275 88.31861877 C167.76272296 91.62113364 167.81281489 94.92289578 167.85069275 98.22584534 C167.87077601 99.6537003 167.89804871 101.08147333 167.932724 102.50904846 C167.98139288 104.56459277 168.00396586 106.61904764 168.02159119 108.67506409 C168.04253845 109.91095276 168.06348572 111.14684143 168.08506775 112.42018127 C167.54924316 116.2055227 166.63127788 117.34482774 163.63096619 119.62818909 C160.89007391 120.3562386 158.40075413 120.20262149 155.63096619 119.62818909 C152.66238462 117.42078228 151.80230828 116.14221536 150.63096619 112.62818909 C150.67823034 110.67728958 150.77978324 108.72750595 150.91221619 106.78053284 C151.95421824 94.51974129 151.95421824 94.51974129 147.96788025 83.42945862 C143.94965545 80.13693012 139.41995498 78.10238659 134.51622009 76.45826721 C132.30123238 75.48300715 131.13517291 74.52200268 129.63096619 72.62818909 C128.63633936 69.82997702 128.51221608 67.25320451 128.53330994 64.30006409 C128.5358075 63.57915588 128.53830505 62.85824768 128.5408783 62.11549377 C128.5499823 61.21218323 128.5590863 60.30887268 128.56846619 59.37818909 C128.58909119 56.49068909 128.60971619 53.60318909 128.63096619 50.62818909 C122.69096619 50.62818909 116.75096619 50.62818909 110.63096619 50.62818909 C110.67737244 52.01393127 110.72377869 53.39967346 110.77159119 54.82740784 C110.80911745 56.65681333 110.8455167 58.48624218 110.88096619 60.31568909 C110.91448181 61.22770081 110.94799744 62.13971252 110.98252869 63.07936096 C111.04131977 67.12124818 110.99743735 69.90107919 109.15830994 73.55006409 C106.83220621 75.46271815 105.30510315 76.26365466 102.55674744 77.31959534 C97.49631837 79.28343317 92.94710416 81.16449934 89.63096619 85.62818909 C87.45598781 93.72950795 88.16603057 102.36094015 88.79356384 110.64894104 C88.60309453 114.13887643 87.71293655 115.85565802 85.63096619 118.62818909 C82.50154153 120.19290141 79.02014395 120.32520867 75.63096619 119.62818909 C73.49790955 118.01197815 73.49790955 118.01197815 71.63096619 115.62818909 C71.38658142 112.59474182 71.38658142 112.59474182 71.68955994 109.06178284 C73.03322944 95.45992317 73.03322944 95.45992317 68.7686615 83.19361877 C64.22003304 79.54147676 59.10761997 77.30369759 53.58628845 75.50245667 C51.63096619 74.62818909 51.63096619 74.62818909 49.63096619 71.62818909 C49.40391541 69.35987854 49.40391541 69.35987854 49.43565369 66.74147034 C49.442099 65.80367737 49.44854431 64.8658844 49.45518494 63.89967346 C49.48032166 62.4349762 49.48032166 62.4349762 49.50596619 60.94068909 C49.51498962 59.95262268 49.52401306 58.96455627 49.53330994 57.94654846 C49.55688189 55.50685144 49.58978596 53.06764212 49.63096619 50.62818909 C48.40990173 50.64389954 47.18883728 50.65960999 45.93077087 50.67579651 C41.39844871 50.7301159 36.8661553 50.76454655 32.33360291 50.79298401 C30.37229066 50.80806604 28.4110121 50.82853456 26.44981384 50.85450745 C23.62990501 50.8909164 20.81044226 50.90792124 17.99034119 50.92115784 C17.11416138 50.93664169 16.23798157 50.95212555 15.33525085 50.96807861 C9.25939958 50.96975645 9.25939958 50.96975645 6.08140564 49.2424469 C4.20724482 47.15661096 4.06377323 45.97361205 4.06846619 43.19068909 C4.04655212 42.42885315 4.02463806 41.66701721 4.00205994 40.88209534 C4.96683468 37.42448649 6.6037954 36.51134037 9.63096619 34.62818909 C12.70636876 34.05387154 15.72901467 34.10530966 18.85003662 34.14717102 C19.78127513 34.14375332 20.71251364 34.14033562 21.6719715 34.13681436 C24.79378828 34.13022339 27.91474613 34.15223206 31.03648376 34.17408752 C33.27364583 34.17521574 35.51080938 34.17458266 37.74797058 34.1723175 C43.82405642 34.17116842 49.8998273 34.19470964 55.97583985 34.22261333 C62.32462616 34.2475943 68.67341944 34.24996639 75.02224731 34.25471497 C85.67923585 34.26574053 96.33609979 34.29073653 106.99302673 34.32643127 C117.96893231 34.36315616 128.94480648 34.39146556 139.92076111 34.40846252 C140.59749549 34.40951342 141.27422987 34.41056431 141.97147135 34.41164705 C145.36650215 34.41686726 148.76153318 34.42192208 152.15656435 34.42689466 C180.31478149 34.46835097 208.47286055 34.53989641 236.63096619 34.62818909 C236.63096619 28.68818909 236.63096619 22.74818909 236.63096619 16.62818909 C235.36260327 16.63279805 234.09424036 16.63740702 232.78744221 16.64215565 C202.68741775 16.75041601 172.58744346 16.83287709 142.48727207 16.88351573 C138.78346078 16.88976936 135.07964991 16.89624096 131.37583923 16.90284729 C130.63846894 16.90415884 129.90109864 16.90547039 129.14138379 16.90682169 C117.19779016 16.9285856 105.2543167 16.96801249 93.31079439 17.01395307 C81.05805329 17.06069041 68.80537518 17.0884787 56.55254859 17.09863156 C48.9902092 17.10549642 41.42820947 17.12718756 33.86597463 17.16777142 C28.06981744 17.19729516 22.27387851 17.2004701 16.47766113 17.19372749 C14.09799289 17.19510606 11.71831211 17.20509164 9.33872032 17.22421646 C6.09510716 17.24901252 2.85295946 17.24314232 -0.39068604 17.22946167 C-1.81043607 17.25130798 -1.81043607 17.25130798 -3.25886792 17.27359563 C-7.79153053 17.22175034 -9.74776487 17.10152077 -13.45361805 14.27810955 C-15.36903381 11.62818909 -15.36903381 11.62818909 -15.99403381 8.62818909 C-14.16986252 -0.12783314 -7.43633982 -0.08921244 0 0 Z " fill="#000000" transform="translate(231.36903381347656,7.3718109130859375)"/>
<path d="M0 0 C1.51907959 0.00749268 1.51907959 0.00749268 3.06884766 0.01513672 C15.07284729 0.29394177 24.20665106 4.21201282 33.75 11.5 C34.575 12.11617187 35.4 12.73234375 36.25 13.3671875 C44.3366568 20.26611658 50.54515142 31.08749336 52.75 41.5 C52.99629247 45.03840181 52.98116265 48.5788681 53 52.125 C53.020625 53.07246094 53.04125 54.01992187 53.0625 54.99609375 C53.13935169 69.04074084 47.61308334 80.74302122 37.9375 90.875 C25.2166606 102.90092253 11.48397975 106.03465692 -5.53515625 105.78125 C-11.33836117 105.55137458 -16.08101893 104.12332261 -21.25 101.5 C-22.01183594 101.149375 -22.77367187 100.79875 -23.55859375 100.4375 C-34.1474974 95.152224 -41.77288872 86.87036805 -47.25 76.5 C-47.75789063 75.55898437 -48.26578125 74.61796875 -48.7890625 73.6484375 C-54.28461182 61.76699846 -54.24790828 47.1690913 -50.1875 34.8125 C-43.92346606 19.94421719 -33.11429838 8.98257374 -18.26220703 2.65283203 C-12.17062805 0.36764027 -6.46960035 -0.04190573 0 0 Z " fill="#FEBEA7" transform="translate(158.25,16.5)"/>
<path d="M0 0 C1.56002428 -0.1363128 3.12357176 -0.23259126 4.6875 -0.3125 C5.55761719 -0.37050781 6.42773438 -0.42851562 7.32421875 -0.48828125 C10 0 10 0 12.04358959 2.4905653 C16.26395664 6.07286074 19.60372116 5.69984372 24.97834778 5.63923645 C25.99125734 5.64759213 27.00416689 5.6559478 28.04777068 5.66455668 C31.44601409 5.68652518 34.84318086 5.67286705 38.24145508 5.65942383 C40.67566755 5.66787449 43.10987325 5.67851741 45.54406738 5.69119263 C50.78678638 5.71355262 56.02929051 5.72064259 61.27204323 5.71384621 C68.85212938 5.70404624 76.43195488 5.72178058 84.01199885 5.74621352 C96.31033246 5.78510826 108.60859153 5.80176636 120.90698242 5.80444336 C132.85298486 5.80709127 144.79890019 5.82020999 156.74487305 5.84741211 C157.48134734 5.84908549 158.21782163 5.85075887 158.97661332 5.85248295 C162.67132616 5.86094249 166.36603848 5.86960789 170.0607506 5.87837565 C200.70715566 5.95083499 231.35350875 5.9868372 262 6 C262 11.94 262 17.88 262 24 C257.74751373 24.00879936 257.74751373 24.00879936 253.40911865 24.01777649 C227.42232246 24.07293154 201.4355986 24.1428757 175.44888596 24.22898628 C172.0442121 24.24025468 168.63953783 24.2513931 165.23486328 24.26245117 C164.21813281 24.2657567 164.21813281 24.2657567 163.18086234 24.269129 C152.20018136 24.30451852 141.21950046 24.3293733 130.23878357 24.35034702 C118.97475635 24.37209592 107.71080311 24.40536089 96.4468348 24.44870156 C90.11867552 24.4726841 83.79059844 24.49137988 77.46239471 24.49761391 C71.51001987 24.50364201 65.55785548 24.52355927 59.6055584 24.55427551 C57.41740058 24.56309232 55.22921529 24.56677084 53.04104042 24.56500816 C50.06005316 24.56336457 47.07971449 24.57997652 44.09881592 24.60127258 C42.79142507 24.59400122 42.79142507 24.59400122 41.45762229 24.58658296 C37.97211853 24.62785129 35.61143979 24.68614523 32.47819901 26.29445171 C30.20277619 28.91983805 30.25459325 31.62663947 30 35 C26.7 35 23.4 35 20 35 C19.57976562 34.00613281 19.15953125 33.01226562 18.7265625 31.98828125 C14.21693682 21.49483062 9.86985845 11.97502785 1.6875 3.8203125 C0 2 0 2 0 0 Z " fill="#E7AE00" transform="translate(206,18)"/>
<path d="M0 0 C0.33 0 0.66 0 1 0 C1 13.86 1 27.72 1 42 C8.26 42 15.52 42 23 42 C23.33 40.68 23.66 39.36 24 38 C24.00364563 38.78038635 24.00729126 39.56077271 24.01104736 40.36480713 C24.04892574 47.72191271 24.10577572 55.07851181 24.18390274 62.43529129 C24.22340006 66.21745785 24.25557711 69.99939083 24.27099609 73.78173828 C24.2861484 77.43247635 24.32056696 81.08257234 24.36830902 84.7330246 C24.38313784 86.12520515 24.39104188 87.51747737 24.39188385 88.90973663 C24.39425034 90.86083165 24.42359555 92.81183736 24.45410156 94.76269531 C24.46298401 95.8730011 24.47186646 96.98330688 24.48101807 98.1272583 C25.13198963 101.73060752 26.01713973 102.90263988 29 105 C31.81565367 105.61374701 31.81565367 105.61374701 34.96191406 105.54589844 C36.16285706 105.56561707 37.36380005 105.58533569 38.60113525 105.60565186 C39.89291687 105.60688049 41.18469849 105.60810913 42.515625 105.609375 C43.85514321 105.62436026 45.19464296 105.64108815 46.53411865 105.65948486 C50.05221413 105.70313311 53.57006041 105.7231514 57.08837891 105.73822021 C60.68146485 105.75780079 64.27428202 105.79976958 67.8671875 105.83984375 C74.91138104 105.91511809 81.95548417 105.96335588 89 106 C89 113.59 89 121.18 89 129 C80.04586534 129.11336555 71.09221426 129.20492432 62.13752174 129.25906086 C57.97861501 129.28505552 53.8202285 129.32026517 49.66162109 129.37719727 C45.6415337 129.43188295 41.62194382 129.46149656 37.60151291 129.47438622 C36.07460075 129.48356111 34.54771307 129.50147655 33.02101517 129.52865028 C23.13867437 129.69740721 14.96869818 129.10585932 7.17910767 122.44233704 C0.33800633 115.28076692 -0.44520164 106.54644135 -0.34057617 97.06420898 C-0.34101425 96.00950912 -0.34145233 94.95480927 -0.34190369 93.8681488 C-0.33982742 90.41060337 -0.31655096 86.95355361 -0.29296875 83.49609375 C-0.28736867 81.08757288 -0.28310052 78.67904859 -0.28010559 76.27052307 C-0.26868932 69.95269217 -0.23924969 63.63507044 -0.20599365 57.31732178 C-0.1752234 50.86196725 -0.1615854 44.40657871 -0.14648438 37.95117188 C-0.11437702 25.30069237 -0.06380191 12.65035735 0 0 Z " fill="#028D5B" transform="translate(86,179)"/>
<path d="M0 0 C0.95841797 -0.00322266 1.91683594 -0.00644531 2.90429688 -0.00976562 C3.89365234 0.01794922 4.88300781 0.04566406 5.90234375 0.07421875 C6.89556641 0.05939453 7.88878906 0.04457031 8.91210938 0.02929688 C16.13553279 0.11198926 16.13553279 0.11198926 19.4609375 3.1796875 C21.94185421 7.82525676 21.97486302 11.40586062 21.95336914 16.61767578 C21.95351517 17.53480347 21.95366119 18.45193115 21.95381165 19.39685059 C21.95311323 22.43776794 21.94532415 25.47862455 21.9375 28.51953125 C21.93563557 30.62417568 21.93421178 32.72882055 21.93321228 34.83346558 C21.9293891 40.3802815 21.91956049 45.92707135 21.9085083 51.47387695 C21.89828991 57.13101855 21.89371374 62.78816434 21.88867188 68.4453125 C21.87793806 79.55079456 21.86034285 90.65625041 21.83984375 101.76171875 C11.27984375 101.76171875 0.71984375 101.76171875 -10.16015625 101.76171875 C-10.27314567 89.4789001 -10.36486621 77.19642697 -10.41921711 64.9132061 C-10.44530367 59.20951901 -10.48068535 53.50620611 -10.53735352 47.80273438 C-10.59170563 42.29787649 -10.62158387 36.79337837 -10.63454247 31.28827286 C-10.6437765 29.18869488 -10.66180861 27.08913646 -10.68880653 24.98971176 C-10.72513878 22.04723411 -10.73009977 19.10624032 -10.7277832 16.16357422 C-10.74575958 15.29682571 -10.76373596 14.43007721 -10.78225708 13.5370636 C-10.74635906 9.31916422 -10.45756238 6.58449243 -7.78240967 3.22163391 C-4.89524699 0.51320948 -3.8779156 0.0017955 0 0 Z " fill="#F3C000" transform="translate(385.16015625,206.23828125)"/>
<path d="M0 0 C0.96164062 -0.00193359 1.92328125 -0.00386719 2.9140625 -0.00585938 C3.91179687 0.01798828 4.90953125 0.04183594 5.9375 0.06640625 C6.93523437 0.05544922 7.93296875 0.04449219 8.9609375 0.03320312 C16.21914454 0.10617438 16.21914454 0.10617438 19.5625 2.5390625 C22.38557665 6.82981821 22.07144347 10.57259993 22.05102539 15.57666016 C22.05117142 16.50354141 22.05131744 17.43042267 22.0514679 18.38539124 C22.05076946 21.45877395 22.04298027 24.53209658 22.03515625 27.60546875 C22.03329182 29.73253344 22.03186804 31.85959855 22.03086853 33.98666382 C22.02704528 39.59266337 22.01721662 45.19863713 22.00616455 50.80462646 C21.9959463 56.52209118 21.99137002 62.23956004 21.98632812 67.95703125 C21.9755942 79.18100276 21.95799894 90.40494833 21.9375 101.62890625 C11.7075 101.62890625 1.4775 101.62890625 -9.0625 101.62890625 C-9.15285042 89.19842619 -9.22624466 76.76816404 -9.26974869 64.33743 C-9.29062789 58.56540546 -9.31895208 52.79361711 -9.36425781 47.02172852 C-9.40770297 41.45205042 -9.4316346 35.88259958 -9.44200897 30.31276512 C-9.44940267 28.18726206 -9.46384075 26.0617715 -9.48542023 23.93636513 C-9.51443605 20.96031389 -9.5184567 17.98520302 -9.51660156 15.0090332 C-9.53098267 14.12933868 -9.54536377 13.24964417 -9.56018066 12.34329224 C-9.53252155 8.24556425 -9.38172223 6.14687324 -7.18475342 2.58209229 C-4.61416865 0.21629081 -3.45330431 -0.0028608 0 0 Z " fill="#8AC526" transform="translate(305.0625,206.37109375)"/>
<path d="M0 0 C6.49601717 4.58475467 11.73965643 11.43439775 13.16015625 19.3828125 C14.11950516 28.55767665 13.25896631 35.94803277 7.796875 43.66796875 C1.49506877 51.23297488 -4.78318268 55.72943162 -14.7578125 56.76171875 C-24.67842717 57.2522986 -32.14491204 55.0752598 -39.78515625 48.609375 C-46.11713726 41.99507637 -48.80034008 34.63563795 -49.25 25.5625 C-48.92776917 15.99952053 -45.26119778 8.58937805 -38.4375 1.9375 C-26.39830658 -7.77479049 -12.90976776 -7.7239797 0 0 Z " fill="#010202" transform="translate(122.625,337.5625)"/>
<path d="M0 0 C7.01712679 5.67040549 11.66505321 12.90713648 12.94921875 21.90625 C13.27145071 31.46926313 11.30438444 39.03255959 5.4453125 46.625 C-0.62240434 52.93645176 -7.85628418 56.53889123 -16.59985352 57.03515625 C-26.66196577 57.16744367 -33.57747377 54.3895556 -40.9296875 47.5625 C-47.3846895 40.66412413 -49.91265895 33.43441443 -49.76171875 24.08984375 C-49.09753847 15.38030991 -45.81022475 8.47881713 -39.5546875 2.375 C-26.9663242 -6.9268444 -13.62150148 -8.66444131 0 0 Z " fill="#020202" transform="translate(425.5546875,337.625)"/>
<path d="M0 0 C8.59890296 4.42537684 14.70581952 11.03052907 17.953125 20.16796875 C20.37913129 30.36006618 18.63835989 38.37981355 13.29296875 47.09375 C8.88682073 53.55850816 3.02930801 57.51530607 -4.38671875 59.94140625 C-14.07581233 60.93008927 -22.13955274 60.63400076 -30.38671875 54.94140625 C-30.96808594 54.56886719 -31.54945313 54.19632812 -32.1484375 53.8125 C-38.13594426 49.48400015 -41.65039282 42.14620816 -43.1015625 35.03125 C-44.34762892 25.89911937 -43.16606201 18.40471005 -37.84375 10.7109375 C-28.38755342 -0.82259288 -14.24290467 -4.45193445 0 0 Z " fill="#010102" transform="translate(268.38671875,334.05859375)"/>
<path d="M0 0 C6.58750475 4.68083328 12.58109897 10.23692938 14.5703125 18.31640625 C16.2183657 28.60924759 15.25325973 37.37723624 9.59765625 46.18359375 C4.31495246 53.01623508 -2.9945852 57.33735756 -11.5703125 58.47265625 C-21.64082261 58.72278771 -28.57839989 57.34201683 -36.3125 50.8125 C-41.87264637 45.52000043 -45.65838956 39.62014116 -46.23828125 31.77734375 C-46.42051196 22.34930233 -45.29992124 15.37764943 -40.3125 7.25 C-28.50419736 -4.23915932 -15.00535606 -7.29779345 0 0 Z " fill="#010202" transform="translate(196,336)"/>
<path d="M0 0 C6.70015667 4.11145977 11.00116877 11.52971368 13 19 C14.07070825 30.31713723 12.89376293 38.37371926 5.8125 47.25 C0.40464649 53.0890832 -6.14185139 56.50542044 -14.03125 57.30859375 C-24.04296694 57.6806508 -31.42565581 55.71752817 -39.16015625 49.171875 C-45.3960677 42.65792928 -48.18681685 35.3994226 -48.4375 26.4375 C-48.03976088 16.44722926 -45.53421731 10.47931492 -38.5 3.2421875 C-27.81048976 -6.34496699 -12.42988658 -7.06411376 0 0 Z " fill="#010102" transform="translate(349,337)"/>
<path d="M0 0 C1.51013672 -0.05607422 1.51013672 -0.05607422 3.05078125 -0.11328125 C4.02144531 -0.12488281 4.99210937 -0.13648438 5.9921875 -0.1484375 C7.32419189 -0.1781665 7.32419189 -0.1781665 8.68310547 -0.20849609 C12.32613942 0.66201492 13.17543268 2.20521256 15.125 5.375 C15.68970578 8.50566294 15.63098297 11.58153258 15.57910156 14.75512695 C15.57968567 15.69219986 15.58026978 16.62927277 15.58087158 17.59474182 C15.57809023 20.68463493 15.5469953 23.77355716 15.515625 26.86328125 C15.50816281 29.00847344 15.50246977 31.15367245 15.49847412 33.2988739 C15.48321619 38.93953335 15.44393258 44.5797795 15.3996582 50.22027588 C15.35870919 55.97817392 15.34046387 61.73613888 15.3203125 67.49414062 C15.27743872 78.78797103 15.20708715 90.08138646 15.125 101.375 C8.855 101.375 2.585 101.375 -3.875 101.375 C-3.9575 99.745625 -4.04 98.11625 -4.125 96.4375 C-4.66206593 90.78379247 -5.84433143 86.20260097 -8.875 81.375 C-10.05688124 80.41782729 -11.2577299 79.48371663 -12.47412109 78.57080078 C-16.4936327 74.62517389 -16.66202815 70.89642182 -16.74904442 65.41794014 C-16.74489512 63.27509646 -16.70564577 61.13460706 -16.6640625 58.9921875 C-16.65861272 57.48960075 -16.65583863 55.98700214 -16.65560913 54.48440552 C-16.64790403 51.3452896 -16.61705841 48.20758297 -16.56787109 45.06884766 C-16.50550074 41.05268581 -16.48702673 37.0378688 -16.48407936 33.02126884 C-16.47937179 29.92244405 -16.45856756 26.82390302 -16.43220139 23.72519302 C-16.42017352 22.2444908 -16.41145252 20.76375778 -16.406147 19.2830162 C-16.39489159 17.21272839 -16.36370712 15.14369758 -16.32666016 13.07373047 C-16.31220856 11.89793427 -16.29775696 10.72213806 -16.28286743 9.51071167 C-15.8341082 6.06062115 -14.94113459 4.14899784 -12.875 1.375 C-8.99811895 -0.56344052 -4.26490477 0.05961112 0 0 Z " fill="#F8C400" transform="translate(231.875,206.625)"/>
<path d="M0 0 C81.51 0 163.02 0 247 0 C247 1.65 247 3.3 247 5 C245.83894367 5.00238835 244.67788734 5.00477671 243.48164749 5.00723743 C215.93139853 5.06457549 188.38122518 5.13729047 160.83106823 5.22898628 C157.44141565 5.24025468 154.05176265 5.2513931 150.66210938 5.26245117 C149.98727968 5.26465486 149.31244998 5.26685854 148.6171709 5.269129 C137.68498893 5.30451836 126.75280702 5.32937323 115.82058898 5.35034702 C104.6062821 5.37209605 93.39204955 5.40536113 82.17780185 5.44870156 C75.87758819 5.47268393 69.57745709 5.49137982 63.27719879 5.49761391 C57.35108835 5.50364209 51.42518929 5.52355964 45.49915695 5.55427551 C43.32067454 5.56309219 41.14216455 5.56677086 38.96366501 5.56500816 C35.99581386 5.56336453 33.02861412 5.5799769 30.06085205 5.60127258 C29.1931491 5.59642501 28.32544615 5.59157743 27.43144917 5.58658296 C23.954362 5.62793198 21.6058697 5.68871149 18.48057175 7.29445171 C16.20204306 9.91920847 16.25469577 12.625281 16 16 C12.7 16 9.4 16 6 16 C3.63260626 10.70154735 1.85375622 5.56126867 0 0 Z " fill="#F9C500" transform="translate(220,37)"/>
<path d="M0 0 C12.87 0 25.74 0 39 0 C37.02 2.31 35.04 4.62 33 7 C27.49947045 14.18124691 25.93618464 22.11242864 27 31 C29.50520289 40.90080186 35.41462284 47.76501393 44 53 C44 53.33 44 53.66 44 54 C27.5 54 11 54 -6 54 C-4.68 53.01 -3.36 52.02 -2 51 C4.72082826 45.81498601 8.32286368 41.03140896 11 33 C11.65498975 24.14153212 11.69007737 15.84293874 7 8 C6.0011926 6.99880882 5.00143369 5.99856425 4 5 C4 4.34 4 3.68 4 3 C2.68 2.34 1.36 1.68 0 1 C0 0.67 0 0.34 0 0 Z " fill="#494C6F" transform="translate(350,338)"/>
<path d="M0 0 C12.87 0 25.74 0 39 0 C37.35 1.65 35.7 3.3 34 5 C32.21595715 7.4920315 32.21595715 7.4920315 30.75 10.0625 C30.24984375 10.89910156 29.7496875 11.73570312 29.234375 12.59765625 C25.26093651 20.33077229 26.51991598 29.339421 28.96484375 37.390625 C31.72328809 44.34398658 35.98364503 48.5115642 42.4609375 52.08984375 C42.96882813 52.39019531 43.47671875 52.69054687 44 53 C44 53.33 44 53.66 44 54 C27.5 54 11 54 -6 54 C-3.36753184 51.89402547 -0.72395833 49.79871962 2 47.8125 C6.6602776 43.93495636 9.92979634 37.9578348 11 32 C11.62131277 23.07460305 11.73629629 14.74590692 6.01953125 7.484375 C4.59243623 5.87794591 3.13547259 4.29735534 1.64453125 2.75 C0 1 0 1 0 0 Z " fill="#494C6F" transform="translate(199,338)"/>
<path d="M0 0 C12.87 0 25.74 0 39 0 C37.02 2.31 35.04 4.62 33 7 C27.81141124 15.13346346 27.21340844 22.48334999 28 32 C29.7946521 39.41447696 33.55151724 45.98362437 39.94140625 50.31640625 C41.59270717 51.27382719 43.29273328 52.14636664 45 53 C45 53.33 45 53.66 45 54 C28.5 54 12 54 -5 54 C0 50 0 50 2.5 48.3125 C7.62263218 43.57406524 11.55226311 35.97236333 12.3359375 29.01953125 C12.46234663 18.64134191 10.50549442 11.06809761 3.3671875 3.375 C2.2466948 2.24810448 1.12369867 1.12369867 0 0 Z " fill="#494C6F" transform="translate(274,338)"/>
<path d="M0 0 C12.87 0 25.74 0 39 0 C37.02 2.31 35.04 4.62 33 7 C27.62474984 15.57134485 27.27897617 23.07047189 28 33 C30.18680548 42.11608069 36.92189537 48.33751629 44 54 C27.83 54 11.66 54 -5 54 C-3.35 52.68 -1.7 51.36 0 50 C6.61328601 44.22540515 11.3853787 37.73719503 12.203125 28.7734375 C12.41953103 17.70066246 9.36781685 10.23775185 2 2 C1.34 1.34 0.68 0.68 0 0 Z " fill="#494C6F" transform="translate(123,338)"/>
<path d="M0 0 C-1.051875 0.70962891 -1.051875 0.70962891 -2.125 1.43359375 C-16.22614221 11.26224314 -25.25694455 23.52685225 -29.5859375 40.265625 C-32.22913243 57.72068585 -28.78052448 74.21737777 -19 89 C-17.34049143 90.67379415 -15.67526495 92.3419762 -14 94 C-14 94.66 -14 95.32 -14 96 C-24.30944586 92.45956753 -31.08056329 83.31446647 -36 74 C-36.50789063 73.05898437 -37.01578125 72.11796875 -37.5390625 71.1484375 C-43.03461182 59.26699846 -42.99790828 44.6690913 -38.9375 32.3125 C-32.87926007 17.93268894 -22.88830106 7.89652261 -9 1 C-2.92631579 -1.46315789 -2.92631579 -1.46315789 0 0 Z " fill="#F6A88C" transform="translate(147,19)"/>
<path d="M0 0 C7.98540424 0.03398044 13.7326015 1.99688706 20 7 C27.035559 14.3117483 28.48693088 21.61345477 28.30859375 31.58984375 C27.65603042 38.80108158 24.20815089 43.61941047 18.9609375 48.45703125 C11.19739531 54.56579453 3.61568213 54.49241046 -6 54 C-3.37465086 51.88020796 -0.75464632 49.82620781 2 47.875 C7.2312167 43.54944614 10.60855529 35.72120225 11.30859375 29.06640625 C11.70411424 18.31544007 8.92132812 10.58475196 2.125 2.25 C1.42375 1.5075 0.7225 0.765 0 0 Z " fill="#494C70" transform="translate(426,338)"/>
<path d="M0 0 C-0.886875 0.928125 -1.77375 1.85625 -2.6875 2.8125 C-9.2911167 10.65527518 -11.83271349 18.38749655 -11.41796875 28.6328125 C-10.41365649 36.72362718 -7.13558173 43.55737809 -1 49 C1.2824136 50.54763256 3.52424184 51.76212092 6 53 C6 53.33 6 53.66 6 54 C-3.40046524 54.53043378 -11.26191267 54.25942636 -19.03125 48.4921875 C-24.62873046 43.39278793 -27.50232773 37.9424299 -28.44921875 30.44140625 C-28.84200629 21.77389461 -27.80222429 15.60637051 -22 9 C-16.20443 3.28948029 -8.33168818 -0.8062924 0 0 Z " fill="#494C70" transform="translate(86,338)"/>
<path d="M0 0 C5.67549553 2.04317839 9.29873721 5.59747441 12 11 C12.57425085 15.70697417 12.45554552 19.12144792 10.25 23.375 C6.93665995 27.24056339 4.15382684 29.63355536 -1.05078125 30.23828125 C-6.57364901 30.41951525 -9.70071475 29.79936836 -14 26 C-17.6734615 21.8431883 -18.65020633 18.58181949 -18.38671875 13.17578125 C-17.38510738 7.54045264 -13.46747817 4.1742608 -9 1 C-5.92805092 -0.53597454 -3.39755707 -0.2265038 0 0 Z " fill="#C4EAF9" transform="translate(259,348)"/>
<path d="M0 0 C4.62891687 2.4180909 7.78379307 5.54805489 10.14453125 10.26953125 C10.74364961 16.26071488 9.40138747 20.34534249 6.14453125 25.26953125 C1.88717051 29.26887013 -2.6320671 29.72876664 -8.27734375 29.6875 C-12.55899667 28.99335324 -15.18458766 26.5777817 -17.85546875 23.26953125 C-20.5913783 18.80761165 -20.49149303 14.3577255 -19.85546875 9.26953125 C-16.29869278 1.58689517 -8.45755525 -3.32960596 0 0 Z " fill="#C3EAF8" transform="translate(109.85546875,348.73046875)"/>
<path d="M0 0 C3.39703496 2.81468611 5.81600441 5.50922732 6.5390625 9.9921875 C6.72350406 14.97210949 6.02981169 18.59803785 3.1875 22.8125 C-1.73403978 27.25388956 -4.76696586 28.18515976 -11.2734375 28.08203125 C-15.12237958 27.67345125 -17.02392308 26.46828755 -19.8125 23.8125 C-23.12274202 19.0436826 -24.68085796 14.67391624 -23.8125 8.8125 C-18.48789499 -1.24508724 -10.39016137 -4.38695702 0 0 Z " fill="#C4EAF9" transform="translate(415.8125,350.1875)"/>
<path d="M0 0 C4.76432645 2.66449368 8.38762582 5.74195087 9.921875 11.1171875 C10.2415113 15.81338243 9.33279994 19.29533761 7.234375 23.4921875 C3.38908845 27.85710736 -0.2397664 29.28652086 -5.953125 29.7421875 C-11.22012081 29.6067277 -13.8709941 27.50310589 -17.58203125 23.94140625 C-20.61541115 20.24274199 -20.41806724 16.18996926 -20.3515625 11.62109375 C-19.93815061 7.83542198 -18.64965767 5.88653038 -16.078125 3.1171875 C-11.16439389 -0.77487675 -6.10342991 -2.59281045 0 0 Z " fill="#C3EAF8" transform="translate(337.078125,348.8828125)"/>
<path d="M0 0 C4.35540435 2.25835781 7.1952966 4.3879802 9 9 C9.54711883 13.60491678 9.6141973 17.58734622 7.75 21.875 C2.15515904 28.66873545 2.15515904 28.66873545 -3.26953125 29.23828125 C-9.05034894 29.40699943 -12.51856577 29.04422113 -17 25 C-20.87790264 19.58767546 -20.92735039 14.45645839 -20 8 C-18.31303465 4.29444363 -15.54657545 2.38508725 -12.25 0.0625 C-7.87106789 -1.36907396 -4.4322544 -1.16763691 0 0 Z " fill="#C4EBF9" transform="translate(186,349)"/>
<path d="M0 0 C9.24 0 18.48 0 28 0 C28 13 28 13 25.33203125 16.08984375 C24.17058594 16.69957031 23.00914062 17.30929688 21.8125 17.9375 C20.08966797 18.91009766 20.08966797 18.91009766 18.33203125 19.90234375 C15 21 15 21 12.40625 20.3359375 C11.6121875 19.89507812 10.818125 19.45421875 10 19 C9.11699219 18.65324219 8.23398437 18.30648437 7.32421875 17.94921875 C4.6875 16.6875 4.6875 16.6875 0 13 C0 8.71 0 4.42 0 0 Z " fill="#EBB100" transform="translate(297,58)"/>
<path d="M0 0 C9.24 0 18.48 0 28 0 C28 13 28 13 25.33203125 16.08984375 C24.17058594 16.69957031 23.00914062 17.30929688 21.8125 17.9375 C20.08966797 18.91009766 20.08966797 18.91009766 18.33203125 19.90234375 C15 21 15 21 12.40625 20.3359375 C11.6121875 19.89507812 10.818125 19.45421875 10 19 C9.11699219 18.65324219 8.23398437 18.30648437 7.32421875 17.94921875 C4.6875 16.6875 4.6875 16.6875 0 13 C0 8.71 0 4.42 0 0 Z " fill="#EDB300" transform="translate(377,58)"/>
<path d="M0 0 C3.3 0 6.6 0 10 0 C10 11.22 10 22.44 10 34 C6.7 34 3.4 34 0 34 C0 22.78 0 11.56 0 0 Z " fill="#E89100" transform="translate(386,157)"/>
<path d="M0 0 C2.97 0 5.94 0 9 0 C9 10.89 9 21.78 9 33 C6.03 33 3.06 33 0 33 C0 22.11 0 11.22 0 0 Z " fill="#08A56B" transform="translate(307,158)"/>
<path d="M0 0 C2.97 0 5.94 0 9 0 C9 10.89 9 21.78 9 33 C6.03 33 3.06 33 0 33 C0 22.11 0 11.22 0 0 Z " fill="#FC9E00" transform="translate(227,158)"/>
<path d="M0 0 C2.56428515 -0.13559675 5.12135216 -0.23433188 7.6875 -0.3125 C8.40873047 -0.35439453 9.12996094 -0.39628906 9.87304688 -0.43945312 C13.82027199 -0.52957242 15.61780964 -0.24770682 19.01953125 1.95703125 C21 5 21 5 21 14 C14.07 14 7.14 14 0 14 C0 9.38 0 4.76 0 0 Z " fill="#F6B8A2" transform="translate(191,294)"/>
</svg>
