<?xml version="1.0" encoding="UTF-8"?>
<svg version="1.1" xmlns="http://www.w3.org/2000/svg" width="512" height="512">
<path d="M0 0 C1.1882991 -0.01007584 1.1882991 -0.01007584 2.40060425 -0.02035522 C5.0225042 -0.03937104 7.64414864 -0.04326126 10.26611328 -0.04541016 C12.08830878 -0.05183582 13.91050323 -0.058564 15.73269653 -0.06558228 C19.5542439 -0.07756415 23.3757008 -0.08126219 27.19726562 -0.08007812 C32.09234588 -0.07987493 36.98684558 -0.10717305 41.88178825 -0.14162254 C45.64619608 -0.16386943 49.41046373 -0.16791634 53.17493057 -0.16685867 C54.9794426 -0.16921812 56.78395829 -0.178061 58.58840561 -0.19352341 C61.11403693 -0.21313816 63.63841057 -0.20736362 66.1640625 -0.1953125 C66.90813354 -0.20655151 67.65220459 -0.21779053 68.41882324 -0.22937012 C73.30383565 -0.17019272 75.77202208 0.83243233 79.21142578 4.29052734 C82.39410006 8.99896002 81.57992509 14.69844438 81.58642578 20.16552734 C81.61091797 21.24189453 81.63541016 22.31826172 81.66064453 23.42724609 C81.68378633 29.68324616 81.50623706 33.59259299 77.21142578 38.29052734 C76.22142578 38.95052734 75.23142578 39.61052734 74.21142578 40.29052734 C74.03168878 43.87403376 74.14658111 47.32882958 74.32861328 50.90576172 C74.51310068 56.8042337 74.51310068 56.8042337 72.71142578 59.70849609 C68.76309486 66.50497197 71.5886529 77.42121681 72.38330078 84.91943359 C72.50699036 86.10794418 72.63067993 87.29645477 72.75811768 88.52098083 C73.02101782 91.02656951 73.28675378 93.53186209 73.55517578 96.03686523 C73.9575121 99.81626365 74.34269093 103.59715477 74.72705078 107.37841797 C77.41492289 133.08786809 82.78036578 153.80014382 96.50439453 175.85693359 C102.21142578 185.09605447 102.21142578 185.09605447 102.21142578 189.29052734 C102.87142578 189.29052734 103.53142578 189.29052734 104.21142578 189.29052734 C104.3605542 188.75322998 104.50968262 188.21593262 104.66333008 187.66235352 C106.57795313 181.32600919 109.49022683 176.16740643 113.02392578 170.60302734 C125.92950428 149.59471078 129.60838211 128.92944411 132.07666016 104.68652344 C132.46293652 100.90072099 132.86715531 97.11714598 133.27392578 93.33349609 C133.53018365 90.89480407 133.78542769 88.45600525 134.03955078 86.01708984 C134.15824524 84.90226227 134.2769397 83.78743469 134.39923096 82.63882446 C136.19111283 69.41263498 136.19111283 69.41263498 132.21142578 57.29052734 C131.89034778 53.49016545 132.23930258 49.68187363 132.50439453 45.88427734 C132.70950561 40.69336935 132.70950561 40.69336935 129.76611328 36.41552734 C128.50154297 35.36365234 128.50154297 35.36365234 127.21142578 34.29052734 C125.70201961 29.76230883 125.94513457 25.28463013 125.89892578 20.54052734 C125.86992187 19.56341797 125.84091797 18.58630859 125.81103516 17.57958984 C125.75568646 11.26132308 126.33630997 7.36686119 130.21142578 2.29052734 C133.83494805 -0.26105048 137.74105478 -0.01200506 142.00585938 -0.01586914 C143.17733772 -0.02835442 143.17733772 -0.02835442 144.3724823 -0.04109192 C146.95166016 -0.06516726 149.53058501 -0.07396079 152.10986328 -0.08056641 C153.90581335 -0.08953436 155.70176265 -0.09865624 157.49771118 -0.10792542 C161.2620017 -0.12441107 165.02620331 -0.1321148 168.79052734 -0.13500977 C173.60825001 -0.14039429 178.4251345 -0.17807866 183.24262047 -0.22375393 C186.95216913 -0.25353162 190.66151607 -0.26073347 194.37117386 -0.26173592 C196.14696722 -0.26593653 197.92276127 -0.27836453 199.69843674 -0.29925346 C202.18564844 -0.32618473 204.67091888 -0.32133857 207.15820312 -0.30883789 C207.88775711 -0.32367218 208.6173111 -0.33850647 209.36897278 -0.35379028 C215.05721167 -0.27259613 217.36385571 1.40031049 221.21142578 5.29052734 C223.30782941 9.4833346 222.48514849 14.9337849 222.52392578 19.54052734 C222.55292969 20.67361328 222.58193359 21.80669922 222.61181641 22.97412109 C222.66038998 29.34846896 222.64864167 33.51578669 218.21142578 38.29052734 C217.55142578 38.62052734 216.89142578 38.95052734 216.21142578 39.29052734 C216.24623047 40.29212891 216.28103516 41.29373047 216.31689453 42.32568359 C216.6369453 55.53565456 216.6369453 55.53565456 213.21142578 61.29052734 C212.88142578 61.62052734 212.55142578 61.95052734 212.21142578 62.29052734 C212.22933102 64.59774585 212.32367923 66.85733252 212.47314453 69.15771484 C212.51968674 69.90125214 212.56622894 70.64478943 212.61418152 71.41085815 C213.32641467 81.90736208 214.47817041 92.36471574 215.63061523 102.8203125 C216.02383774 106.41472257 216.39999319 110.01067459 216.77587891 113.60693359 C218.39612631 128.65710172 220.11187914 143.20424315 226.96142578 156.91552734 C227.30214111 157.62008057 227.64285645 158.32463379 227.99389648 159.05053711 C230.78462482 164.70427256 233.98616562 170.01553905 237.37939453 175.32958984 C239.96485533 179.50822372 242.10254099 183.85854333 244.21142578 188.29052734 C244.47769775 187.80285889 244.74396973 187.31519043 245.01831055 186.81274414 C246.26632778 184.53236662 247.51930637 182.25477934 248.77392578 179.97802734 C249.45793457 178.73496826 249.45793457 178.73496826 250.15576172 177.46679688 C252.59661131 173.06862983 255.1205683 168.8214784 257.96142578 164.66552734 C267.5172813 149.97114574 270.28296217 132.03394095 272.07080078 114.94287109 C272.22536537 113.51366511 272.38042488 112.08451258 272.53594971 110.65541077 C272.85684802 107.69030652 273.17221145 104.72468363 273.48339844 101.75854492 C273.88218451 97.96130539 274.29457028 94.1656851 274.71093369 90.37033749 C275.03180816 87.43266515 275.34587477 84.4942961 275.65784454 81.55566597 C275.80732728 80.15483374 275.95885004 78.7542176 276.11248016 77.35383415 C276.32519267 75.40500365 276.52781615 73.45507991 276.72998047 71.50512695 C276.90626984 69.84518959 276.90626984 69.84518959 277.08612061 68.15171814 C277.25420742 64.31366082 276.85392169 62.19993075 274.64111328 59.06787109 C272.41350353 54.74046526 273.14990636 50.33633826 273.50439453 45.61669922 C273.67296666 41.49401138 273.5149594 39.14327102 270.76611328 35.94287109 C269.92306641 35.06759766 269.08001953 34.19232422 268.21142578 33.29052734 C266.84242613 29.1835284 266.98753802 25.34251786 266.96142578 21.04052734 C266.93048828 19.78949219 266.93048828 19.78949219 266.89892578 18.51318359 C266.85777342 11.95966931 267.55124331 7.0070913 272.32948303 2.12757874 C275.96343267 -0.18882822 278.94469297 -0.28023946 283.11938477 -0.24291992 C284.29108215 -0.25584328 284.29108215 -0.25584328 285.4864502 -0.26902771 C288.06048011 -0.29167188 290.63341984 -0.28495179 293.20751953 -0.27587891 C295.00204287 -0.28111544 296.79656346 -0.28739204 298.59107971 -0.29466248 C302.34950729 -0.30506398 306.10755619 -0.30050926 309.8659668 -0.28588867 C314.67589828 -0.26870671 319.48463453 -0.29218963 324.29443264 -0.32737827 C327.99973933 -0.34936892 331.7047608 -0.34790671 335.41011238 -0.33961296 C337.18308892 -0.33879424 338.95608656 -0.34564248 340.729002 -0.36038399 C343.2114329 -0.37786022 345.69172625 -0.36326401 348.17407227 -0.34057617 C349.26604668 -0.35811447 349.26604668 -0.35811447 350.38008118 -0.37600708 C356.06318712 -0.27064947 358.37853011 1.38298443 362.21142578 5.29052734 C364.58853432 10.12009944 364.54582327 14.95073174 364.52392578 20.22802734 C364.54003906 21.00082031 364.55615234 21.77361328 364.57275391 22.56982422 C364.57785474 28.60410701 363.53797338 33.40560832 359.64892578 38.22802734 C358.21142578 39.29052734 358.21142578 39.29052734 356.21142578 39.29052734 C356.37642578 40.25990234 356.54142578 41.22927734 356.71142578 42.22802734 C357.68377624 49.29186745 358.13189416 55.01777793 354.21142578 61.29052734 C353.88142578 61.62052734 353.55142578 61.95052734 353.21142578 62.29052734 C353.33049454 75.21799244 355.25318194 88.26169988 356.63061523 101.09667969 C356.89276266 103.55868503 357.14960219 106.02126135 357.40112305 108.484375 C359.81524483 132.1223231 364.01202339 152.09332763 376.77392578 172.41552734 C393.69448539 199.36425087 394.5638578 227.56686161 394.33642578 258.54052734 C394.3263645 260.95458608 394.31724428 263.36864894 394.30908203 265.78271484 C394.28734435 271.61874414 394.25412191 277.45461564 394.21142578 283.29052734 C395.31877075 283.26333618 395.31877075 283.26333618 396.44848633 283.2355957 C397.42599854 283.22149658 398.40351074 283.20739746 399.41064453 283.19287109 C400.37574951 283.17474365 401.34085449 283.15661621 402.33520508 283.13793945 C408.60699356 283.47066739 413.43959515 286.0800005 417.64892578 290.66552734 C421.97733337 295.86948176 422.50675634 301.72481352 422.47885132 308.27178955 C422.48338243 309.05798605 422.48791354 309.84418254 422.49258196 310.65420318 C422.50520687 313.27945751 422.50360683 315.90450389 422.50195312 318.52978516 C422.50793962 320.41590134 422.51474545 322.30201508 422.52230835 324.18812561 C422.53996454 329.30606025 422.54466361 334.42392799 422.54593992 339.54189014 C422.54736245 342.74177812 422.55163401 345.94164914 422.55693436 349.1415329 C422.57543432 360.31181415 422.58360513 371.48204769 422.58203125 382.65234375 C422.5808303 393.05311842 422.6019237 403.45368542 422.63351858 413.85440755 C422.65970118 422.79304962 422.67039769 431.73162395 422.66912043 440.67030406 C422.66861133 446.00487873 422.67426604 451.33926887 422.69547653 456.67380524 C422.71489192 461.69389655 422.71496074 466.71362795 422.70044327 471.73373222 C422.69835808 473.57108272 422.7030387 475.40845593 422.71516418 477.24576759 C422.84041916 497.54799878 422.84041916 497.54799878 416.24658203 505.72802734 C415.59560547 506.24365234 414.94462891 506.75927734 414.27392578 507.29052734 C413.62552734 507.82677734 412.97712891 508.36302734 412.30908203 508.91552734 C407.45228661 512.09912509 403.09688582 512.58115424 397.39327717 512.55338287 C396.6087869 512.55748814 395.82429662 512.56159341 395.01603392 512.56582308 C392.37735107 512.57716608 389.73887691 512.57424829 387.10017395 512.57141113 C385.19320059 512.57657824 383.28622939 512.58260451 381.3792612 512.58941793 C376.1309245 512.60556671 370.8826425 512.60913756 365.6342839 512.61061287 C359.97698934 512.61431245 354.31972321 512.62940634 348.66244507 512.6428833 C336.28850134 512.67005697 323.91457057 512.6821004 311.54060197 512.69090462 C303.81578372 512.69642814 296.09097049 512.70490259 288.36615562 512.71391296 C266.98269898 512.73829895 245.5992489 512.75896839 224.2157793 512.76566315 C222.83314013 512.76610641 221.45050095 512.76654998 220.06786178 512.76699385 C218.6818963 512.76743513 217.29593082 512.76787609 215.90996534 512.76831675 C213.12951139 512.76920185 210.34905745 512.77009608 207.56860352 512.77099609 C206.87921337 512.77121488 206.18982323 512.77143366 205.47954247 512.77165907 C183.12645794 512.7789202 160.77350314 512.8107608 138.42046829 512.85737682 C114.78403824 512.90657912 91.14770403 512.93399563 67.5112173 512.93639898 C54.62794343 512.93823318 41.74483943 512.94975531 28.86161232 512.98603821 C17.89176583 513.01682338 6.9221417 513.02709118 -4.04773977 513.010562 C-9.64499247 513.00274293 -15.24179726 513.0046368 -20.83899498 513.0326767 C-25.96463561 513.05811951 -31.08949098 513.05579202 -36.21513025 513.03149527 C-38.06777843 513.02757503 -39.92048189 513.03376766 -41.77305236 513.051184 C-60.11701808 513.21269851 -60.11701808 513.21269851 -67.78857422 506.29052734 C-75.57994908 497.82699222 -74.62836527 487.92981007 -74.53320312 477.10644531 C-74.53806494 475.1672284 -74.54550938 473.22801651 -74.55532837 471.28881836 C-74.57407006 466.04496881 -74.55536232 460.80187083 -74.52866411 455.5580802 C-74.50595904 450.0605397 -74.51425582 444.56303415 -74.51815796 439.06546021 C-74.51992123 429.83713565 -74.4978158 420.60910569 -74.4609375 411.38085938 C-74.41858092 400.72090193 -74.4115893 390.06137543 -74.42406142 379.40135086 C-74.43546039 369.13157533 -74.42414532 358.86195112 -74.40171432 348.59219742 C-74.39244032 344.22793903 -74.39066679 339.86377345 -74.39488602 335.4995079 C-74.39866033 330.35947329 -74.3823793 325.21987576 -74.35076523 320.0799408 C-74.34229945 318.19661899 -74.34056506 316.31325276 -74.34614563 314.4299202 C-74.35262037 311.85351065 -74.33435251 309.27839452 -74.30996704 306.70211792 C-74.31752569 305.96183409 -74.32508434 305.22155025 -74.33287203 304.45883358 C-74.24221521 299.02245162 -72.75108642 294.85932068 -69.78857422 290.29052734 C-67.56982422 288.23193359 -67.56982422 288.23193359 -65.28857422 286.85302734 C-64.53576172 286.37994141 -63.78294922 285.90685547 -63.00732422 285.41943359 C-58.99617963 283.37855193 -55.51284503 283.17476222 -51.03857422 283.22802734 C-50.05373047 283.23705078 -49.06888672 283.24607422 -48.05419922 283.25537109 C-46.93271484 283.27277344 -46.93271484 283.27277344 -45.78857422 283.29052734 C-45.79523605 282.53900894 -45.80189789 281.78749054 -45.8087616 281.01319885 C-45.86944181 273.85175182 -45.91483284 266.69043338 -45.94401073 259.52879429 C-45.95951674 255.84891656 -45.98047048 252.16925521 -46.01489258 248.48950195 C-46.30316333 216.80825757 -46.30316333 216.80825757 -42.78857422 203.29052734 C-42.56403564 202.42339111 -42.33949707 201.55625488 -42.1081543 200.6628418 C-41.5173562 198.62204549 -40.85104471 196.65250303 -40.10107422 194.66552734 C-39.8476123 193.97297852 -39.59415039 193.28042969 -39.33300781 192.56689453 C-35.58395577 182.69386606 -30.37038801 173.70730142 -24.66357422 164.85302734 C-12.81002778 145.82680448 -11.22106296 124.03091429 -8.9987793 102.24536133 C-8.59943091 98.33694433 -8.18797915 94.42993673 -7.77490234 90.52294922 C-7.51442709 88.01976775 -7.25463713 85.51651486 -6.99560547 83.01318359 C-6.87377396 81.85472427 -6.75194244 80.69626495 -6.62641907 79.50270081 C-5.0386669 67.89236809 -5.0386669 67.89236809 -8.78857422 57.29052734 C-10.34280154 50.94409913 -9.47374799 44.71007856 -8.78857422 38.29052734 C-9.71669922 37.91927734 -9.71669922 37.91927734 -10.66357422 37.54052734 C-13.25114133 36.01842904 -13.70114862 35.0590089 -14.78857422 32.29052734 C-15.23614496 28.34363043 -15.15885398 24.3852465 -15.16357422 20.41552734 C-15.18806641 19.33916016 -15.21255859 18.26279297 -15.23779297 17.15380859 C-15.26093477 10.89780852 -15.08338549 6.9884617 -10.78857422 2.29052734 C-7.09459005 -0.17212877 -4.27462605 -0.00517885 0 0 Z " fill="#010100" transform="translate(82.78857421875,-0.29052734375)"/>
<path d="M0 0 C1.16927135 -0.00609109 1.16927135 -0.00609109 2.36216435 -0.01230523 C4.99600049 -0.02231694 7.62931198 -0.01078663 10.26313686 0.00050831 C12.16171108 -0.00223001 14.06028379 -0.00628012 15.95885271 -0.01153535 C21.19299638 -0.02216437 26.42697033 -0.01396599 31.66110671 -0.00278485 C37.29918942 0.00602883 42.93724924 -0.0023781 48.57533169 -0.00864697 C59.6267626 -0.0181534 70.67812839 -0.0115191 81.72955448 0.00061598 C94.58708179 0.01421045 107.44459344 0.0126004 120.3021261 0.01048265 C143.92892398 0.00719356 167.55568021 0.02012099 191.18246681 0.04032768 C212.76604177 0.05870013 234.34958361 0.06450964 255.93316555 0.05905628 C257.31912412 0.05870985 258.7050827 0.05836375 260.09104127 0.05801799 C260.77622239 0.057847 261.4614035 0.057676 262.16734768 0.05749982 C265.61622159 0.05664632 269.0650955 0.05582254 272.51396942 0.05503082 C273.53451195 0.0547952 273.53451195 0.0547952 274.57567149 0.05455482 C292.59415869 0.05056795 310.61264171 0.05608138 328.6311273 0.06454211 C331.21268173 0.06574946 333.79423616 0.06695545 336.3757906 0.06816006 C337.64611493 0.0687636 338.91643927 0.06936713 340.22525828 0.06998896 C349.19769529 0.0738759 358.17012637 0.0734715 367.14256382 0.07157421 C378.06908735 0.06945693 388.99557895 0.07464086 399.92209346 0.08918776 C405.5019855 0.09645498 411.08183094 0.10048905 416.66172695 0.0959444 C421.76213129 0.09189118 426.86243906 0.09696679 431.96282869 0.10957048 C433.81538459 0.11251723 435.66794949 0.11203833 437.52050317 0.1079274 C440.02403531 0.10287315 442.52723769 0.10993727 445.03074646 0.12025452 C445.76263379 0.11585803 446.49452113 0.11146155 447.24858686 0.10693184 C452.22414732 0.14642477 452.22414732 0.14642477 454.45245266 2.37473011 C454.65207529 4.89895536 454.72614225 7.31383435 454.71314907 9.83942127 C454.71697462 10.61826636 454.72080016 11.39711145 454.72474164 12.1995579 C454.73510541 14.82360867 454.73107313 17.447442 454.72711086 20.07150745 C454.73145551 21.94706393 454.73663783 23.82261863 454.74259853 25.69817066 C454.75602736 30.80354977 454.75656283 35.90885503 454.75403523 41.01424837 C454.752968 45.27134509 454.75784259 49.5284267 454.76264066 53.7855202 C454.77374958 63.82698699 454.77416567 73.86841639 454.76812649 83.90988636 C454.76208632 94.27885308 454.77439566 104.64768411 454.79569656 115.01662767 C454.81329486 123.90923472 454.81931666 132.80179853 454.81605881 141.69442236 C454.81424276 147.00982544 454.81691407 152.32513178 454.83077335 157.64051914 C454.84331806 162.63915466 454.84143949 167.6375783 454.82836246 172.63621044 C454.82598968 174.47284802 454.82875638 176.30950035 454.83698559 178.14612103 C454.84739575 180.64968617 454.83939892 183.15253286 454.82667446 185.65607166 C454.83404875 186.38622718 454.84142303 187.1163827 454.84902078 187.86866415 C454.81603047 190.94523572 454.61626869 193.07798308 453.1165638 195.79464626 C449.66060896 199.07609682 445.46635147 198.51815418 441.00419617 198.50895119 C440.23541137 198.51130342 439.46662657 198.51365565 438.67454526 198.51607916 C436.07735282 198.52277947 433.48021028 198.52231063 430.88300991 198.52190113 C429.01061137 198.52519909 427.13821354 198.52892451 425.26581663 198.53304261 C420.10400155 198.54307804 414.9421981 198.54678186 409.78037465 198.54943192 C404.21996669 198.55333028 398.65956798 198.56290877 393.09916592 198.57164478 C379.66461473 198.59142005 366.23006277 198.60147569 352.79550067 198.61037257 C346.47464791 198.61475279 340.153796 198.6201202 333.83294392 198.62536144 C312.83215073 198.64237301 291.83135771 198.65689406 270.83055878 198.66411018 C269.47229221 198.66458494 268.11402565 198.66506083 266.75575909 198.66553785 C266.08217166 198.66577422 265.40858423 198.6660106 264.71458506 198.66625414 C261.30176814 198.66745536 257.88895122 198.6686708 254.4761343 198.66989613 C253.79884741 198.67013628 253.12156053 198.67037643 252.42374979 198.67062385 C230.45191076 198.67852126 208.48012562 198.70196298 186.50831014 198.73445207 C163.28812552 198.76872455 140.06797118 198.78845767 116.84775728 198.79175442 C104.18601262 198.79392357 91.52434722 198.80273139 78.86262608 198.8282156 C68.08400209 198.84985925 57.30547661 198.85800428 46.52683336 198.84824882 C41.02359083 198.84368598 35.52055182 198.84570498 30.01733685 198.86501026 C24.98459682 198.88251339 19.95221073 198.88174968 14.91946762 198.86611297 C13.09378735 198.86371725 11.26808339 198.86816097 9.44243956 198.87994162 C6.97003927 198.89491411 4.49891706 198.88549118 2.02655029 198.86971474 C1.30954306 198.87993694 0.59253583 198.89015915 -0.1461989 198.90069112 C-3.54559623 198.85299891 -5.25524514 198.60581137 -7.95842844 196.46879357 C-10.84729779 192.6619823 -10.69349284 189.60018055 -10.68798923 184.97923756 C-10.69096036 184.20785401 -10.69393148 183.43647046 -10.69699264 182.64171165 C-10.70570158 180.04302273 -10.70718972 177.44437976 -10.70868015 174.84567738 C-10.71330671 172.98820363 -10.71833115 171.13073084 -10.72372532 169.27325916 C-10.73686543 164.21755264 -10.74329721 159.1618594 -10.74773598 154.10613847 C-10.7506636 150.95055445 -10.75476777 147.79497408 -10.75924015 144.6393919 C-10.77291821 134.77492558 -10.78258383 124.91046759 -10.78644204 115.04599243 C-10.79092622 103.64249803 -10.80848952 92.23912329 -10.83744264 80.83566529 C-10.85902398 72.03140215 -10.86914439 63.22717277 -10.87048316 54.42288345 C-10.87153358 49.15948197 -10.87749159 43.89619291 -10.89530277 38.63281918 C-10.91172264 33.68426577 -10.91396873 28.73591006 -10.90516376 23.78733921 C-10.90439016 21.96801507 -10.90877838 20.14868057 -10.91862202 18.3293829 C-10.9312448 15.85175187 -10.92551809 13.37483135 -10.91504002 10.89720631 C-10.92309642 10.17191984 -10.93115283 9.44663338 -10.93945336 8.69936854 C-10.89201928 3.92632514 -10.89201928 3.92632514 -9.496023 1.69094825 C-6.51341368 -0.32383929 -3.47653094 -0.03483147 0 0 Z " fill="#C59B6C" transform="translate(34.547547340393066,298.62526988983154)"/>
<path d="M0 0 C16.17 0 32.34 0 49 0 C51.5625 23.6875 51.5625 23.6875 52.31860352 31.01831055 C54.76577961 53.20635943 61.10587271 72.58761616 73.0625 91.5 C84.20875705 109.23464542 88.36339834 127.79728248 88.1953125 148.515625 C88.19157073 149.86610705 88.18872928 151.21659187 88.18673706 152.56707764 C88.17919198 156.07855051 88.15962502 159.58985128 88.1373291 163.10125732 C88.11667101 166.70159538 88.10758265 170.30196275 88.09765625 173.90234375 C88.07743571 180.93504657 88.03826752 187.96728017 88 195 C69.52 195 51.04 195 32 195 C31.75 171.6875 31.75 171.6875 31.70214844 164.3972168 C31.6727402 162.45619388 31.64190762 160.51519181 31.609375 158.57421875 C31.60768311 157.10402283 31.60768311 157.10402283 31.60595703 155.60412598 C31.39698965 145.34306315 28.57696022 136.49306631 21.41796875 129.01171875 C12.59981826 121.67513151 3.51073435 119.8174683 -7.5625 119.75 C-8.41263672 119.729375 -9.26277344 119.70875 -10.13867188 119.6875 C-15.02798833 119.65493188 -15.02798833 119.65493188 -19.5625 121.296875 C-21.33310501 123.08066352 -21.33310501 123.08066352 -21.4375 126.5 C-21.31108277 129.88329602 -21.31108277 129.88329602 -19.71508789 131.69555664 C-16.74331088 133.95579928 -13.03401092 133.40354654 -9.4375 133.4375 C-1.72262164 133.69924247 5.44693812 134.15765997 11.6015625 139.3515625 C17.67765376 145.99617692 18.43653971 152.75651228 18.29296875 161.30859375 C18.28994751 162.16650513 18.28692627 163.0244165 18.28381348 163.9083252 C18.26822649 167.08484079 18.22634316 170.26118366 18.1875 173.4375 C18.125625 180.553125 18.06375 187.66875 18 195 C-0.81 195 -19.62 195 -39 195 C-39.06333614 187.47707412 -39.12338828 179.95514339 -39.15525055 172.43218231 C-39.17093375 168.92708136 -39.19180042 165.42220669 -39.22631836 161.91723633 C-39.50775952 132.54719089 -35.71116431 109.24131709 -19.9375 84.0625 C-17.35163405 79.83750591 -15.30041241 75.46520244 -13.3125 70.9375 C-13.02689209 70.2885376 -12.74128418 69.6395752 -12.44702148 68.97094727 C-8.49566351 59.75959709 -6.32189306 51.01410999 -5 41.0625 C-4.83338867 39.8549707 -4.66677734 38.64744141 -4.49511719 37.40332031 C-2.80393617 24.95713343 -1.38703479 12.48331311 0 0 Z " fill="#81CB63" transform="translate(91,89)"/>
<path d="M0 0 C16.17 0 32.34 0 49 0 C50.1999383 7.79959895 51.29780009 15.36477446 51.9375 23.1875 C54.28286579 49.10344125 60.85788651 69.73548657 73.6875 92.3125 C83.97950559 110.44686169 88.18083495 127.28699131 88.09765625 148.125 C88.0957878 149.48120064 88.09436592 150.83740196 88.09336853 152.19360352 C88.08957696 155.73795483 88.07977595 159.28226421 88.06866455 162.82659912 C88.05837762 166.45340396 88.05380035 170.08021587 88.04882812 173.70703125 C88.03868277 180.80472435 88.01910265 187.90230279 88 195 C69.85 195 51.7 195 33 195 C32.6875 173.125 32.6875 173.125 32.61206055 166.28173828 C32.57972956 164.46124285 32.54635012 162.64076562 32.51171875 160.8203125 C32.50547485 159.89984131 32.49923096 158.97937012 32.49279785 158.03100586 C32.24782796 146.82177751 29.05787124 137.52274385 21.37109375 129.24609375 C12.99941442 121.49597762 3.45267724 119.8133398 -7.5625 119.6875 C-8.41263672 119.65849609 -9.26277344 119.62949219 -10.13867188 119.59960938 C-15.18536578 119.52033572 -15.18536578 119.52033572 -19.5625 121.828125 C-21.5022829 124.75888395 -21.51316574 126.55445861 -21 130 C-19.42417382 132.08790061 -18.54907983 132.90117217 -15.95043945 133.36889648 C-15.17917725 133.36962158 -14.40791504 133.37034668 -13.61328125 133.37109375 C-12.3284082 133.39719727 -12.3284082 133.39719727 -11.01757812 133.42382812 C-9.23373914 133.43284392 -7.44987691 133.43813662 -5.66601562 133.43945312 C1.38693783 133.59220566 6.62146556 135.08454654 12.0234375 139.74609375 C12.46945313 140.30425781 12.91546875 140.86242187 13.375 141.4375 C13.83648437 141.99308594 14.29796875 142.54867187 14.7734375 143.12109375 C18.42769942 148.71886439 18.2654487 153.84719432 18.1953125 160.33203125 C18.19329834 161.21161499 18.19128418 162.09119873 18.18920898 162.99743652 C18.17878 166.26917773 18.15085746 169.54084435 18.125 172.8125 C18.08375 180.134375 18.0425 187.45625 18 195 C-0.81 195 -19.62 195 -39 195 C-39.08458227 187.52856579 -39.16462887 180.05893031 -39.20700073 172.58743286 C-39.22786426 169.10592536 -39.25559041 165.62482638 -39.30175781 162.14355469 C-39.68002997 132.81981811 -35.88487096 110.39420841 -20.42407227 85.38867188 C-4.3070729 59.1288366 -3.11798653 29.99206087 0 0 Z " fill="#81CB63" transform="translate(232,89)"/>
<path d="M0 0 C16.17 0 32.34 0 49 0 C51.22930849 14.4905052 51.22930849 14.4905052 51.859375 20.96875 C54.62983886 48.11390618 60.41464773 70.11984082 74.77124023 93.4909668 C83.06653835 107.19223018 88.14593834 122.46864524 88.11352539 138.57788086 C88.11341209 140.46904884 88.11341209 140.46904884 88.11329651 142.39842224 C88.1081915 143.75389649 88.10297553 145.10937033 88.09765625 146.46484375 C88.09578854 147.86731414 88.0943663 149.26978519 88.09336853 150.67225647 C88.08957116 154.3432092 88.07976496 158.01412165 88.06866455 161.68505859 C88.05839031 165.43912196 88.05380309 169.19319211 88.04882812 172.94726562 C88.03867208 180.29821252 88.01909338 187.64904917 88 195 C69.85 195 51.7 195 33 195 C32.75 171.625 32.75 171.625 32.70214844 164.30712891 C32.67274628 162.36358314 32.64191476 160.42005826 32.609375 158.4765625 C32.60768311 156.99869263 32.60768311 156.99869263 32.60595703 155.4909668 C32.38690525 144.73338719 28.90631809 136.95879872 21.5 129.19921875 C13.20244523 121.89996354 3.09908472 119.64176237 -7.6875 119.625 C-8.52861328 119.60050781 -9.36972656 119.57601562 -10.23632812 119.55078125 C-15.2314065 119.52692868 -15.2314065 119.52692868 -19.58984375 121.796875 C-21.34092174 124.07345413 -21.34092174 124.07345413 -20.875 127.625 C-20.29259286 131.04542055 -20.29259286 131.04542055 -18 133 C-16.11503254 133.30373096 -16.11503254 133.30373096 -13.96484375 133.2734375 C-13.15942139 133.29100098 -12.35399902 133.30856445 -11.52416992 133.32666016 C-10.67056885 133.3426123 -9.81696777 133.35856445 -8.9375 133.375 C-0.98582412 133.67584618 5.73376101 133.99457911 11.7890625 139.6796875 C15.68282119 143.97943051 18.25967742 147.73870882 18.22705078 153.67675781 C18.22680908 154.6102002 18.22656738 155.54364258 18.22631836 156.50537109 C18.21097046 157.96450928 18.21097046 157.96450928 18.1953125 159.453125 C18.19329834 160.35337402 18.19128418 161.25362305 18.18920898 162.18115234 C18.17876103 165.53748688 18.15083842 168.89374866 18.125 172.25 C18.08375 179.7575 18.0425 187.265 18 195 C-0.48 195 -18.96 195 -38 195 C-38.04210801 187.13048169 -38.08215937 179.26137889 -38.10350037 171.3918457 C-38.11399816 167.72602445 -38.12799235 164.06029787 -38.15087891 160.39453125 C-38.17283987 156.85428193 -38.18461682 153.31412359 -38.18975449 149.77381134 C-38.19517002 147.78665665 -38.21074434 145.79953783 -38.22659302 143.81243896 C-38.22936073 121.0866051 -30.96611219 103.64750859 -19.76782227 84.43847656 C-15.90535126 77.79380348 -12.57080238 71.24896317 -10 64 C-9.57976562 62.83855469 -9.15953125 61.67710937 -8.7265625 60.48046875 C-2.38745 41.30997789 -1.81390959 19.95300547 0 0 Z " fill="#81CB63" transform="translate(373,89)"/>
<path d="M0 0 C2.46996052 0.00103886 4.9399227 -0.00000296 7.40988159 -0.00302124 C12.56924344 -0.00284247 17.72797587 0.01787988 22.88720703 0.05419922 C29.4821255 0.09961961 36.07612779 0.10064607 42.67115974 0.08716393 C47.76545274 0.08046473 52.85953889 0.09378048 57.95379257 0.11342239 C60.38492626 0.12108927 62.81608302 0.12343831 65.24722672 0.1202507 C68.64979766 0.11950451 72.05121643 0.14488119 75.45361328 0.17724609 C76.4460907 0.17229126 77.43856812 0.16733643 78.46112061 0.16223145 C87.16890021 0.29366223 95.67209749 2.60458076 102.07421875 8.82421875 C110.8505635 19.2234399 110.82780641 30.0870989 109.93945312 43.17236328 C109.19042611 50.53732624 106.62017129 56.81778378 101.5234375 62.2265625 C95.63204136 67.01956275 88.65602944 69.83306719 81.08320618 69.87373352 C79.70613243 69.88446648 79.70613243 69.88446648 78.30123901 69.89541626 C77.30117828 69.89810516 76.30111755 69.90079407 75.27075195 69.90356445 C74.21173172 69.91013565 73.15271149 69.91670685 72.06159973 69.92347717 C68.55538867 69.94319422 65.04922042 69.9548696 61.54296875 69.96484375 C60.34428854 69.96891928 59.14560833 69.9729948 57.91060448 69.97719383 C51.56548612 69.99804827 45.22038935 70.01235245 38.87524414 70.02172852 C32.32943537 70.03278854 25.78396693 70.06718607 19.23827839 70.10690022 C14.19812905 70.13307508 9.15806068 70.14142118 4.11784935 70.14500999 C1.70539236 70.14987404 -0.70706106 70.16148273 -3.11945152 70.18004799 C-6.50137496 70.20445579 -9.88241931 70.20347085 -13.2644043 70.1965332 C-14.25434387 70.20934326 -15.24428345 70.22215332 -16.26422119 70.23535156 C-24.39622906 70.1747741 -31.37552059 67.99317277 -37.5703125 62.5390625 C-38.47523438 61.77529297 -38.47523438 61.77529297 -39.3984375 60.99609375 C-46.33303281 52.80706961 -47.08131504 45.74907657 -46.8828125 35.1640625 C-46.89376953 33.88853516 -46.90472656 32.61300781 -46.91601562 31.29882812 C-46.84484107 22.15527072 -45.44073878 15.10388514 -38.98312378 8.16464233 C-27.64179872 -1.64388559 -14.12466238 -0.11751686 0 0 Z " fill="#020201" transform="translate(225.3203125,323.2734375)"/>
<path d="M0 0 C5.80239614 -0.04934656 11.60467081 -0.08569402 17.40722656 -0.10986328 C19.38218309 -0.11993627 21.35712466 -0.13359521 23.33203125 -0.15087891 C26.16670418 -0.17507039 29.00118038 -0.18646991 31.8359375 -0.1953125 C32.72243988 -0.20563507 33.60894226 -0.21595764 34.52230835 -0.22659302 C36.68285952 -0.2269907 38.84293718 -0.12272534 41 0 C43.46899365 2.46899365 43.24267806 3.86892837 43.27214891 7.23857915 C43.26836958 7.97319612 43.26459026 8.70781308 43.26069641 9.46469116 C43.26643473 10.63295879 43.26643473 10.63295879 43.27228898 11.82482779 C43.28265275 14.44887856 43.27862047 17.07271189 43.2746582 19.69677734 C43.27900285 21.57233382 43.28418517 23.44788852 43.29014587 25.32344055 C43.3035747 30.42881966 43.30411017 35.53412492 43.30158257 40.63951826 C43.30051534 44.89661498 43.30538993 49.15369659 43.310188 53.41079009 C43.32129692 63.45225688 43.32171301 73.49368628 43.31567383 83.53515625 C43.30963366 93.90412297 43.321943 104.272954 43.3432439 114.64189756 C43.3608422 123.53450461 43.366864 132.42706842 43.36360615 141.31969225 C43.3617901 146.63509533 43.36446141 151.95040167 43.37832069 157.26578903 C43.3908654 162.26442455 43.38898683 167.26284819 43.37590981 172.26148033 C43.37353702 174.09811791 43.37630372 175.93477024 43.38453293 177.77139091 C43.39494309 180.27495606 43.38694626 182.77780275 43.3742218 185.28134155 C43.38159609 186.01149707 43.38897037 186.74165259 43.39656812 187.49393404 C43.36357781 190.57050561 43.16381603 192.70325297 41.66411114 195.41991615 C37.96252823 198.93459208 33.16406384 198.12783441 28.39453125 198.09765625 C27.55532639 198.0962413 26.71612152 198.09482635 25.85148621 198.09336853 C23.17178784 198.08777215 20.4921731 198.07522035 17.8125 198.0625 C15.99544392 198.05748453 14.17838652 198.05292171 12.36132812 198.04882812 C7.90751987 198.03780391 3.45377411 198.02054178 -1 198 C-0.83748025 197.50182392 -0.6749605 197.00364784 -0.50751591 196.49037552 C0.19417322 193.04719396 0.13396391 189.65185353 0.12025452 186.1539917 C0.12110894 185.35836484 0.12196337 184.56273798 0.12284368 183.74300122 C0.12449207 181.07441288 0.11898757 178.40588725 0.11352539 175.73730469 C0.11324335 173.82540895 0.11340157 171.91351311 0.1139679 170.00161743 C0.11425523 164.8077956 0.10836878 159.61399679 0.10139394 154.42018032 C0.0951498 148.99360203 0.09455576 143.56702323 0.09336853 138.14044189 C0.09025835 127.8628563 0.08204916 117.58528132 0.07201904 107.3077004 C0.0608482 95.60771075 0.055345 83.9077206 0.05032361 72.20772696 C0.03986631 48.13847875 0.0222729 24.06923997 0 0 Z " fill="#B28456" transform="translate(446,299)"/>
<path d="M0 0 C12.54 0 25.08 0 38 0 C38.35191406 3.36574219 38.70382813 6.73148437 39.06640625 10.19921875 C39.43170941 13.53637258 39.80497218 16.87254922 40.17895508 20.20874023 C40.43040736 22.48941719 40.67385928 24.77099356 40.90844727 27.0534668 C43.35495973 50.75177414 49.26608349 71.25928035 62.0625 91.5 C73.20875705 109.23464542 77.36339834 127.79728248 77.1953125 148.515625 C77.19157073 149.86610705 77.18872928 151.21659187 77.18673706 152.56707764 C77.17919198 156.07855051 77.15962502 159.58985128 77.1373291 163.10125732 C77.11667101 166.70159538 77.10758265 170.30196275 77.09765625 173.90234375 C77.07743571 180.93504657 77.03826752 187.96728017 77 195 C58.52 195 40.04 195 21 195 C21 180.15 21 165.3 21 150 C21.33 150 21.66 150 22 150 C22 164.52 22 179.04 22 194 C25.96 194 29.92 194 34 194 C33.98210098 185.59202262 33.94269946 177.18492303 33.86790943 168.77728558 C33.83396935 164.87106199 33.80858191 160.96521574 33.80444336 157.05883789 C33.79129328 132.13522613 33.79129328 132.13522613 28 108 C27.63173096 106.9186377 27.26346191 105.83727539 26.8840332 104.72314453 C24.14644711 97.02796445 19.61529858 90.22116511 15.38037109 83.28466797 C7.80722565 70.84626475 -0.15554826 55.21963396 -0.11352539 40.30151367 C-0.11344986 39.40095749 -0.11337433 38.50040131 -0.11329651 37.57255554 C-0.10813522 36.6140419 -0.10297394 35.65552826 -0.09765625 34.66796875 C-0.0962413 33.67622147 -0.09482635 32.68447418 -0.09336853 31.66267395 C-0.08778418 28.50425157 -0.07523452 25.34590085 -0.0625 22.1875 C-0.05748298 20.04231873 -0.05292042 17.89713635 -0.04882812 15.75195312 C-0.03867203 10.50125247 -0.01909348 5.25070616 0 0 Z " fill="#6BC249" transform="translate(102,89)"/>
<path d="M0 0 C12.21 0 24.42 0 37 0 C39.22930849 14.4905052 39.22930849 14.4905052 39.859375 20.96875 C42.62983886 48.11390618 48.41464773 70.11984082 62.77124023 93.4909668 C71.06653835 107.19223018 76.14593834 122.46864524 76.11352539 138.57788086 C76.11341209 140.46904884 76.11341209 140.46904884 76.11329651 142.39842224 C76.1081915 143.75389649 76.10297553 145.10937033 76.09765625 146.46484375 C76.09578854 147.86731414 76.0943663 149.26978519 76.09336853 150.67225647 C76.08957116 154.3432092 76.07976496 158.01412165 76.06866455 161.68505859 C76.05839031 165.43912196 76.05380309 169.19319211 76.04882812 172.94726562 C76.03867208 180.29821252 76.01909338 187.64904917 76 195 C57.85 195 39.7 195 21 195 C21 194.67 21 194.34 21 194 C25.29 194 29.58 194 34 194 C33.93654846 186.19230513 33.86069845 178.38495218 33.76428509 170.5776062 C33.71996311 166.950524 33.6806289 163.32354434 33.65356445 159.69628906 C33.42605923 130.14335613 29.07559601 107.06095211 13.921875 81.4765625 C3.24325522 63.3918032 -1.19518783 46.59377182 -1.13037109 25.51586914 C-1.12500191 23.4382399 -1.13034943 21.3608259 -1.13671875 19.28320312 C-1.13605799 17.93749953 -1.13477686 16.59179607 -1.1328125 15.24609375 C-1.13168457 14.04654053 -1.13055664 12.8469873 -1.12939453 11.61108398 C-0.99014427 7.72495069 -0.48232486 3.85859888 0 0 Z " fill="#6CC349" transform="translate(385,89)"/>
<path d="M0 0 C12.54 0 25.08 0 38 0 C39.1999383 7.79959895 40.29780009 15.36477446 40.9375 23.1875 C43.28286579 49.10344125 49.85788651 69.73548657 62.6875 92.3125 C72.97950559 110.44686169 77.18083495 127.28699131 77.09765625 148.125 C77.0957878 149.48120064 77.09436592 150.83740196 77.09336853 152.19360352 C77.08957696 155.73795483 77.07977595 159.28226421 77.06866455 162.82659912 C77.05837762 166.45340396 77.05380035 170.08021587 77.04882812 173.70703125 C77.03868277 180.80472435 77.01910265 187.90230279 77 195 C58.85 195 40.7 195 22 195 C22 194.67 22 194.34 22 194 C26.29 194 30.58 194 35 194 C34.93652454 186.4530839 34.86065533 178.90647339 34.76428509 171.35990906 C34.71998077 167.85389603 34.68064328 164.34798862 34.65356445 160.84179688 C34.61410055 139.22827746 34.61410055 139.22827746 31 118 C30.71068604 116.85950195 30.42137207 115.71900391 30.12329102 114.54394531 C27.08465954 103.13603887 21.36907696 92.78835687 15.22314453 82.78686523 C11.14212004 76.12284517 7.72800333 69.52253717 5 62.1875 C4.72148193 61.44781982 4.44296387 60.70813965 4.15600586 59.94604492 C-0.49494869 46.75210539 -0.25127414 33.54723723 -0.125 19.75 C-0.11494806 17.82943176 -0.10582614 15.90885842 -0.09765625 13.98828125 C-0.0775398 9.32528904 -0.03836122 4.66301883 0 0 Z " fill="#6CC349" transform="translate(243,89)"/>
<path d="M0 0 C0.90280701 -0.00571014 1.80561401 -0.01142029 2.73577881 -0.01730347 C3.72904175 -0.01842133 4.72230469 -0.01953918 5.7456665 -0.02069092 C7.31172638 -0.02813828 7.31172638 -0.02813828 8.90942383 -0.03573608 C12.37600353 -0.05038459 15.84253745 -0.05716469 19.30914307 -0.06268311 C21.71329754 -0.06843297 24.117452 -0.07419072 26.52160645 -0.07995605 C31.56895156 -0.09047412 36.61628071 -0.09631131 41.66363525 -0.09979248 C48.13126575 -0.10527456 54.59868544 -0.12929328 61.06624985 -0.15776443 C66.03508113 -0.17638993 71.00386167 -0.18159641 75.97272491 -0.18312836 C78.35694784 -0.18615632 80.74116985 -0.19418964 83.12535858 -0.20731354 C86.46249906 -0.22436944 89.79912511 -0.22249447 93.1362915 -0.21600342 C94.12145752 -0.2252182 95.10662354 -0.23443298 96.12164307 -0.243927 C101.40362071 -0.21174608 105.15114783 0.14394689 109.69976807 3.14044189 C114.28239944 8.15078552 114.31361419 12.68916137 114.19976807 19.14044189 C114.22297119 20.45528564 114.22297119 20.45528564 114.24664307 21.79669189 C114.2129784 27.38502726 113.55781142 30.81943333 109.69976807 35.14044189 C104.36232014 39.69895185 99.98765888 39.71394165 93.29156494 39.65802002 C92.25669449 39.6650293 91.22182404 39.67203857 90.15559387 39.67926025 C86.74296039 39.69683087 83.33115964 39.68522019 79.91851807 39.67169189 C77.5424992 39.67438706 75.1664814 39.67826968 72.79046631 39.68328857 C67.8140003 39.68918239 62.83782173 39.68062404 57.86138916 39.66192627 C51.48565541 39.63913726 45.11059521 39.6522609 38.73488617 39.67621613 C33.82949762 39.69067698 28.9242685 39.68606669 24.01887512 39.67570496 C21.66815613 39.67303849 19.31742262 39.67630459 16.96672058 39.68562317 C13.6800813 39.695793 10.39452957 39.6802802 7.10797119 39.65802002 C6.13844009 39.66611694 5.168909 39.67421387 4.16999817 39.68255615 C-1.64237984 39.60970344 -4.82946249 38.92800374 -9.30023193 35.14044189 C-13.58026173 30.66769456 -12.85172374 25.70264859 -12.86273193 19.82794189 C-12.91783936 18.29750244 -12.91783936 18.29750244 -12.97406006 16.73614502 C-13.00432949 11.53316622 -12.81256424 8.05093 -9.39007568 3.97247314 C-6.31434641 0.87330439 -4.35320053 0.01645834 0 0 Z " fill="#81CC63" transform="translate(206.30023193359375,338.85955810546875)"/>
<path d="M0 0 C1.39456452 0.00667256 2.78911118 0.01863093 4.18359375 0.03515625 C4.89451172 0.03966797 5.60542969 0.04417969 6.33789062 0.04882812 C8.09899388 0.06064761 9.86005411 0.07858362 11.62109375 0.09765625 C11.90984375 0.90203125 12.19859375 1.70640625 12.49609375 2.53515625 C13.35371943 5.23030305 13.35371943 5.23030305 15.62109375 6.09765625 C17.04815639 6.20221153 18.47941735 6.25280327 19.91015625 6.2734375 C21.19986328 6.30920898 21.19986328 6.30920898 22.515625 6.34570312 C24.31227124 6.38811323 26.10921226 6.41966196 27.90625 6.43945312 C34.94136278 6.66420041 40.25626762 8.19403216 45.64453125 12.84375 C46.09054688 13.40191406 46.5365625 13.96007812 46.99609375 14.53515625 C47.45757812 15.09074219 47.9190625 15.64632812 48.39453125 16.21875 C52.04879317 21.81652064 51.88654245 26.94485057 51.81640625 33.4296875 C51.81439209 34.30927124 51.81237793 35.18885498 51.81030273 36.09509277 C51.79987375 39.36683398 51.77195121 42.6385006 51.74609375 45.91015625 C51.70484375 53.23203125 51.66359375 60.55390625 51.62109375 68.09765625 C32.81109375 68.09765625 14.00109375 68.09765625 -5.37890625 68.09765625 C-5.39991209 60.40251612 -5.41994383 52.70748065 -5.43065643 45.01233673 C-5.43592323 41.42837794 -5.44295442 37.84444305 -5.4543457 34.26049805 C-5.46526058 30.80456876 -5.47120122 27.34866256 -5.47378349 23.89271736 C-5.47651338 21.94136417 -5.48431164 19.99002018 -5.49220276 18.03868103 C-5.49292844 6.50254583 -5.49292844 6.50254583 -4.37890625 1.09765625 C-3.37890625 0.09765625 -3.37890625 0.09765625 0 0 Z " fill="#F6AB36" transform="translate(198.37890625,215.90234375)"/>
<path d="M0 0 C2.43934225 -0.13501894 4.87124104 -0.23403897 7.3125 -0.3125 C8.34793945 -0.3753418 8.34793945 -0.3753418 9.40429688 -0.43945312 C11.42578125 -0.48828125 11.42578125 -0.48828125 15 0 C16.85546875 2.45703125 16.85546875 2.45703125 18 5 C20.66375963 6.33187981 23.13976963 6.1580555 26.06958008 6.23901367 C42.96366459 6.74982426 42.96366459 6.74982426 49.6015625 12.3515625 C55.67765376 18.99617692 56.43653971 25.75651228 56.29296875 34.30859375 C56.28994751 35.16650513 56.28692627 36.0244165 56.28381348 36.9083252 C56.26822649 40.08484079 56.22634316 43.26118366 56.1875 46.4375 C56.125625 53.553125 56.06375 60.66875 56 68 C37.19 68 18.38 68 -1 68 C-1.02101612 60.32210974 -1.0410467 52.64432472 -1.05175018 44.96643066 C-1.05701311 41.39036824 -1.06403702 37.81432982 -1.07543945 34.23828125 C-1.08636839 30.78883122 -1.09229788 27.33940437 -1.09487724 23.88993835 C-1.09760235 21.94472489 -1.10539828 19.99952063 -1.11329651 18.05432129 C-1.11368128 11.93793832 -0.95362726 6.04513892 0 0 Z " fill="#F6AC36" transform="translate(53,216)"/>
<path d="M0 0 C2.41936317 -0.16249454 4.82781859 -0.28097817 7.25 -0.375 C8.27287109 -0.45041016 8.27287109 -0.45041016 9.31640625 -0.52734375 C11.328125 -0.5859375 11.328125 -0.5859375 15 0 C15.94552734 1.47726563 15.94552734 1.47726563 16.91015625 2.984375 C18.60003993 6.11525812 18.60003993 6.11525812 20.93603516 6.52294922 C23.3658063 6.67238609 25.75375945 6.67607879 28.1875 6.625 C36.16846461 6.76178647 42.69930993 6.96223422 48.7890625 12.6796875 C52.68282119 16.97943051 55.25967742 20.73870882 55.22705078 26.67675781 C55.22680908 27.6102002 55.22656738 28.54364258 55.22631836 29.50537109 C55.21097046 30.96450928 55.21097046 30.96450928 55.1953125 32.453125 C55.19329834 33.35337402 55.19128418 34.25362305 55.18920898 35.18115234 C55.17876103 38.53748688 55.15083842 41.89374866 55.125 45.25 C55.08375 52.7575 55.0425 60.265 55 68 C36.52 68 18.04 68 -1 68 C-1.02099364 60.02708254 -1.04102674 52.05426572 -1.05175018 44.0813446 C-1.05702158 40.3681825 -1.06406137 36.65504337 -1.07543945 32.94189453 C-1.08633768 29.36277668 -1.0922915 25.78368105 -1.09487724 22.20454788 C-1.09671902 20.84187088 -1.10031549 19.47919504 -1.10573006 18.11652756 C-1.11303249 16.2018834 -1.11340884 14.28721667 -1.11352539 12.37255859 C-1.115746 11.28445892 -1.11796661 10.19635925 -1.12025452 9.07528687 C-0.99894288 5.97296606 -0.57739005 3.0476571 0 0 Z " fill="#F9AE37" transform="translate(336,216)"/>
<path d="M0 0 C5.15625 -0.061875 10.3125 -0.12375 15.625 -0.1875 C17.24100098 -0.21481201 18.85700195 -0.24212402 20.52197266 -0.27026367 C22.44855713 -0.28150269 22.44855713 -0.28150269 24.4140625 -0.29296875 C25.7232666 -0.3086792 27.0324707 -0.32438965 28.38134766 -0.34057617 C33.599049 0.15049746 36.8178626 1.70752977 40.34375 5.5625 C42.56051031 10.16332329 42.58893594 13.96029682 42.5 19 C42.52320313 20.31484375 42.52320313 20.31484375 42.546875 21.65625 C42.51321033 27.24458537 41.85804336 30.67899144 38 35 C32.63816145 39.59882815 28.22753995 39.55298085 21.49658203 39.45410156 C19.92981972 39.45497772 19.92981972 39.45497772 18.33140564 39.45587158 C14.88986616 39.45309193 11.4492001 39.42200425 8.0078125 39.390625 C5.61742628 39.38316222 3.22703393 39.37746946 0.8366394 39.37347412 C-5.4467872 39.35822088 -11.72984242 39.31894107 -18.01312256 39.2746582 C-24.4279681 39.23369922 -30.84287381 39.21546172 -37.2578125 39.1953125 C-49.83869987 39.15244707 -62.41933016 39.08497071 -75 39 C-75 38.67 -75 38.34 -75 38 C-50.25 38 -25.5 38 0 38 C0 25.46 0 12.92 0 0 Z " fill="#6BC149" transform="translate(278,339)"/>
<path d="M0 0 C16.83 0 33.66 0 51 0 C51.86106669 2.58320006 52.21653619 4.33321624 52.3125 7 C52.36857422 8.0209375 52.36857422 8.0209375 52.42578125 9.0625 C52 11 52 11 48 14 C48 20.6 48 27.2 48 34 C33.15 34 18.3 34 3 34 C3 27.4 3 20.8 3 14 C1.68 13.01 0.36 12.02 -1 11 C-1.42578125 8.80859375 -1.42578125 8.80859375 -1.3125 6.4375 C-1.28800781 5.65246094 -1.26351562 4.86742187 -1.23828125 4.05859375 C-1 2 -1 2 0 0 Z " fill="#DED3C2" transform="translate(90,40)"/>
<path d="M0 0 C17.16 0 34.32 0 52 0 C52 3.63 52 7.26 52 11 C50.68 12.32 49.36 13.64 48 15 C48 21.27 48 27.54 48 34 C33.15 34 18.3 34 3 34 C3 27.4 3 20.8 3 14 C1.68 13.01 0.36 12.02 -1 11 C-0.67 7.37 -0.34 3.74 0 0 Z " fill="#DED2C2" transform="translate(231,40)"/>
<path d="M0 0 C17.16 0 34.32 0 52 0 C52 3.63 52 7.26 52 11 C50.68 12.32 49.36 13.64 48 15 C48 21.27 48 27.54 48 34 C33.15 34 18.3 34 3 34 C3.33 27.73 3.66 21.46 4 15 C2.68 13.68 1.36 12.36 0 11 C0 7.37 0 3.74 0 0 Z " fill="#DFD3C2" transform="translate(372,40)"/>
<path d="M0 0 C21.78 0 43.56 0 66 0 C66 3.3 66 6.6 66 10 C44.22 10 22.44 10 0 10 C0 6.7 0 3.4 0 0 Z " fill="#465656" transform="translate(83,15)"/>
<path d="M0 0 C21.45 0 42.9 0 65 0 C65 3.3 65 6.6 65 10 C43.55 10 22.1 10 0 10 C0 6.7 0 3.4 0 0 Z " fill="#475757" transform="translate(366,15)"/>
<path d="M0 0 C21.45 0 42.9 0 65 0 C65 3.3 65 6.6 65 10 C43.55 10 22.1 10 0 10 C0 6.7 0 3.4 0 0 Z " fill="#475757" transform="translate(225,15)"/>
<path d="M0 0 C4.62 0 9.24 0 14 0 C14.12308347 11.05016019 13.83058514 21.97991499 13 33 C9.7 33 6.4 33 3 33 C3.06960937 30.99486328 3.06960937 30.99486328 3.140625 28.94921875 C3.17814123 27.19533481 3.21454155 25.44142675 3.25 23.6875 C3.28351563 22.80642578 3.31703125 21.92535156 3.3515625 21.01757812 C3.38810254 18.61507035 3.38791564 16.37213151 3 14 C1.10554449 12.14695565 1.10554449 12.14695565 -1 11 C-1.42578125 8.80859375 -1.42578125 8.80859375 -1.3125 6.4375 C-1.28800781 5.65246094 -1.26351562 4.86742187 -1.23828125 4.05859375 C-1 2 -1 2 0 0 Z " fill="#EDE3D1" transform="translate(90,40)"/>
<path d="M0 0 C4.62 0 9.24 0 14 0 C14.02716781 3.81254875 14.0469202 7.62490054 14.0625 11.4375 C14.07087891 12.50677734 14.07925781 13.57605469 14.08789062 14.67773438 C14.10684631 20.87624228 13.82063259 26.8549481 13 33 C10.03 33 7.06 33 4 33 C3.96132812 30.99486328 3.96132812 30.99486328 3.921875 28.94921875 C3.86559888 27.19527962 3.80825143 25.44137464 3.75 23.6875 C3.73582031 22.80642578 3.72164062 21.92535156 3.70703125 21.01757812 C3.61555154 18.6116617 3.49884242 16.3563137 3 14 C1.02329393 12.24577228 1.02329393 12.24577228 -1 11 C-1.24087373 7.21718753 -0.53323142 3.77705588 0 0 Z " fill="#EEE4D2" transform="translate(231,40)"/>
<path d="M0 0 C4.62 0 9.24 0 14 0 C14.02291161 4.53904366 14.04283781 9.07788802 14.05493164 13.61694336 C14.0599714 15.16219766 14.0668032 16.70744716 14.07543945 18.25268555 C14.08752076 20.46925029 14.09323173 22.68575218 14.09765625 24.90234375 C14.10281754 25.5971434 14.10797882 26.29194305 14.11329651 27.00779724 C14.11349277 28.6722933 14.06189129 30.33665499 14 32 C13 33 13 33 10.93359375 33.09765625 C10.10988281 33.08605469 9.28617187 33.07445312 8.4375 33.0625 C7.61121094 33.05347656 6.78492188 33.04445312 5.93359375 33.03515625 C5.29550781 33.02355469 4.65742188 33.01195312 4 33 C4.06960938 31.12054688 4.06960938 31.12054688 4.140625 29.203125 C4.17814813 27.55210719 4.21454771 25.90106358 4.25 24.25 C4.28351563 23.425 4.31703125 22.6 4.3515625 21.75 C4.55872542 16.80437911 4.55872542 16.80437911 2 12.78125 C1.34 12.1934375 0.68 11.605625 0 11 C-0.52252295 7.25873568 -0.1808586 3.79803065 0 0 Z " fill="#F0E5D3" transform="translate(372,40)"/>
</svg>
