<?xml version="1.0" encoding="UTF-8"?>
<svg version="1.1" xmlns="http://www.w3.org/2000/svg" width="512" height="512">
<path d="M0 0 C0.97222191 -0.00538554 1.94444382 -0.01077108 2.946127 -0.01631981 C6.19489174 -0.03059574 9.44324883 -0.02349643 12.69203186 -0.01637268 C15.02488533 -0.02207641 17.357736 -0.02904068 19.69058228 -0.03717041 C26.02112176 -0.05511615 32.35152274 -0.05393076 38.68208003 -0.04822803 C44.63690201 -0.04474735 50.59170279 -0.05269873 56.54652018 -0.05958868 C69.06048728 -0.0733065 81.5743918 -0.06788103 94.08835746 -0.05640347 C105.52832197 -0.04647123 116.96812473 -0.05941279 128.4080643 -0.08333766 C140.16499038 -0.10773953 151.92184117 -0.1173339 163.67879206 -0.11068493 C170.2752914 -0.10731332 176.87165709 -0.10974428 183.46813774 -0.12693596 C189.67096546 -0.14239614 195.87348419 -0.13845943 202.07629967 -0.11963081 C204.35148815 -0.11594247 206.62669947 -0.11906048 208.90186691 -0.1295166 C212.01037379 -0.14271084 215.11785542 -0.13119204 218.22631836 -0.11352539 C219.12428648 -0.1231304 220.02225461 -0.1327354 220.94743389 -0.14263147 C227.92760762 -0.06114135 233.17459604 1.75122698 238.45399475 6.38768005 C239.27577209 7.37768005 239.27577209 7.37768005 240.114151 8.38768005 C240.68004944 9.04768005 241.24594788 9.70768005 241.82899475 10.38768005 C243.19974797 12.42195729 243.75370495 13.98920117 244.176651 16.38768005 C245.455401 16.30518005 246.734151 16.22268005 248.051651 16.13768005 C255.96427851 16.16256253 262.89339224 19.31239593 268.645401 24.68455505 C274.48876261 31.18380419 277.42302606 38.19631876 277.43391991 46.97295856 C277.4403688 48.2891113 277.44681769 49.60526404 277.453462 50.96130019 C277.45051995 52.41522021 277.44738453 53.86913985 277.44407654 55.32305908 C277.44781391 56.87275037 277.45241578 58.42243977 277.45780718 59.97212619 C277.4700418 64.22820796 277.46977617 68.48421115 277.46741843 72.7403065 C277.46701038 77.33143044 277.47804825 81.92252916 277.48753357 86.51364136 C277.50414695 95.50755899 277.50964326 104.50145041 277.51075833 113.49538211 C277.51170861 120.80590233 277.51581795 128.1164139 277.52215958 135.42693138 C277.53977271 156.15280659 277.5489983 176.87866109 277.54749863 197.60454384 C277.54741872 198.72189725 277.5473388 199.83925066 277.54725647 200.99046326 C277.54717471 202.10918061 277.54709295 203.22789796 277.54700871 204.38051584 C277.54619573 222.5126967 277.56533619 240.64479451 277.5935332 258.77695135 C277.6222561 277.39414499 277.63607383 296.01129811 277.63434565 314.62851447 C277.63368156 325.08099003 277.63918241 335.53337851 277.66070175 345.98583412 C277.67890568 354.88495753 277.68326733 363.78395438 277.66968291 372.68308834 C277.66314936 377.22295598 277.66305 381.76258079 277.6803894 386.30242538 C277.69610805 390.46070599 277.69326898 394.61855096 277.67582114 398.77682086 C277.67274858 400.27881249 277.67639334 401.78083653 277.68754129 403.28278992 C277.74383583 411.40722084 277.44297351 418.25725271 273.176651 425.38768005 C272.7983846 426.03929621 272.42011821 426.69091237 272.03038919 427.36227447 C268.34631936 433.42281264 262.46107539 436.91304053 256.114151 439.76268005 C253.176651 440.38768005 253.176651 440.38768005 245.176651 440.38768005 C245.176651 445.66768005 245.176651 450.94768005 245.176651 456.38768005 C246.971026 456.72799255 246.971026 456.72799255 248.801651 457.07518005 C253.85181624 458.33772136 257.32757448 460.67922922 260.31971741 465.06199646 C261.5541839 468.41228929 261.50178207 471.69803066 261.5125885 475.22361755 C261.5192453 475.98058929 261.5259021 476.73756104 261.53276062 477.51747131 C261.54286699 479.11611 261.54757826 480.7147907 261.54725647 482.3134613 C261.55162425 484.74776958 261.58794644 487.18025548 261.62586975 489.61424255 C261.63173965 491.17152806 261.63570788 492.72882212 261.6375885 494.28611755 C261.65195953 495.0081839 261.66633057 495.73025024 261.68113708 496.47419739 C261.62404711 502.8515496 259.22964279 506.36170131 254.801651 510.73143005 C249.06127103 513.35418987 243.40788959 512.96429364 237.176651 512.88768005 C235.918526 512.9031488 234.660401 512.91861755 233.364151 512.93455505 C228.29769737 512.91308703 224.24833535 512.8403743 219.551651 510.85643005 C212.73679707 503.77256873 212.53886664 496.49098583 212.65516663 486.97898865 C212.67661298 484.89138143 212.65529919 482.80721383 212.629776 480.7197113 C212.61390917 473.31012102 212.95528809 467.63161975 217.176651 461.38768005 C221.05126678 458.17257335 223.14475217 457.39405982 228.176651 456.38768005 C228.506651 451.10768005 228.836651 445.82768005 229.176651 440.38768005 C149.976651 440.38768005 70.776651 440.38768005 -10.823349 440.38768005 C-10.493349 445.66768005 -10.163349 450.94768005 -9.823349 456.38768005 C-7.513349 457.04768005 -5.203349 457.70768005 -2.823349 458.38768005 C1.97460389 462.31327787 4.84144036 466.56704959 5.58070374 472.7875824 C5.63877665 480.03373893 5.63877665 480.03373893 5.62269592 482.64549255 C5.61419952 484.75065922 5.64296203 486.85309417 5.67469788 488.95799255 C5.72565138 497.97529173 5.1614328 504.24560423 -1.198349 510.85643005 C-6.96487321 513.29228942 -12.63283726 512.9637929 -18.823349 512.88768005 C-20.081474 512.9031488 -21.339599 512.91861755 -22.635849 512.93455505 C-34.26578545 512.88527566 -34.26578545 512.88527566 -38.823349 508.38768005 C-42.52889802 503.75488838 -43.42019582 500.15538453 -43.354599 494.35643005 C-43.3584259 493.60228821 -43.36225281 492.84814636 -43.36619568 492.07115173 C-43.36890494 490.48442746 -43.36161295 488.89765776 -43.34483337 487.3110199 C-43.32340632 484.89414592 -43.34466518 482.48024378 -43.370224 480.0634613 C-43.36758054 478.51527772 -43.36245519 476.96709596 -43.354599 475.41893005 C-43.36269592 474.70313782 -43.37079285 473.98734558 -43.37913513 473.24986267 C-43.28510784 468.17208871 -42.00358276 465.3029269 -38.823349 461.38768005 C-34.50134384 457.9112846 -32.53222163 457.33915883 -26.823349 456.38768005 C-26.823349 451.10768005 -26.823349 445.82768005 -26.823349 440.38768005 C-29.463349 440.38768005 -32.103349 440.38768005 -34.823349 440.38768005 C-43.89162278 437.85535399 -50.49645084 432.52394327 -55.56163025 424.7665863 C-58.19361672 419.80411027 -59.07367419 415.39673283 -59.0806179 409.80519485 C-59.0870668 408.48965882 -59.09351569 407.17412278 -59.10016 405.81872201 C-59.09721794 404.365491 -59.09408253 402.91226037 -59.09077454 401.45903015 C-59.09451192 399.91005156 -59.09911379 398.36107485 -59.10450518 396.81210113 C-59.11673983 392.55794996 -59.11647416 388.30387741 -59.11411643 384.04971266 C-59.11370838 379.46061459 -59.12474632 374.87154176 -59.13423157 370.28245544 C-59.15084528 361.29221281 -59.15634129 352.30199641 -59.15745632 343.31173971 C-59.15840666 336.00361176 -59.16251622 328.69549246 -59.16885757 321.38736725 C-59.18647129 300.6665577 -59.19569628 279.94576887 -59.19419663 259.22495177 C-59.19407676 257.54931575 -59.19407676 257.54931575 -59.19395447 255.83982849 C-59.19387271 254.72137345 -59.19379095 253.60291841 -59.19370671 252.45057079 C-59.19289385 234.325532 -59.21203101 216.20057631 -59.2402312 198.07556155 C-59.26895982 179.46401315 -59.28277149 160.85250528 -59.28104365 142.24093413 C-59.28037972 131.79233907 -59.28587318 121.34383113 -59.30739975 110.89525604 C-59.32561127 101.99872306 -59.32995913 93.10231669 -59.3163809 84.20577314 C-59.30985102 79.66780683 -59.30973477 75.13008341 -59.3270874 70.5921402 C-59.34282236 66.43442418 -59.3399503 62.27714357 -59.32251914 58.11943814 C-59.31945016 56.6187746 -59.32307784 55.11807854 -59.33423929 53.61745337 C-59.40939484 42.79237692 -58.32400313 33.23213425 -50.667099 24.98924255 C-44.54983191 19.67551478 -38.21997435 16.20537674 -30.073349 16.32518005 C-29.27413025 16.33420349 -28.4749115 16.34322693 -27.651474 16.3525238 C-27.04819275 16.36412537 -26.4449115 16.37572693 -25.823349 16.38768005 C-25.5449115 15.39768005 -25.5449115 15.39768005 -25.260849 14.38768005 C-22.32353396 8.25763128 -18.26388551 3.63111761 -11.90930259 1.01568592 C-7.99239218 -0.16355542 -4.06050806 -0.02710939 0 0 Z " fill="#010101" transform="translate(146.82334899902344,-0.3876800537109375)"/>
<path d="M0 0 C0.0093457 1.28165039 0.01869141 2.56330078 0.02832031 3.88378906 C0.06820061 8.64016442 0.13395415 13.39589162 0.20751953 18.15185547 C0.23574049 20.21003898 0.25694941 22.2683311 0.27099609 24.32666016 C0.2924099 27.28604785 0.33905221 30.2441282 0.390625 33.203125 C0.39185364 34.12305237 0.39308228 35.04297974 0.39434814 35.99078369 C0.47389561 41.12077136 0.47389561 41.12077136 2.85058594 45.54980469 C5.02693278 47.15811905 5.02693278 47.15811905 8 48 C8 53.61 8 59.22 8 65 C6.02 65.99 4.04 66.98 2 68 C0.52689705 70.9462059 0.84838625 73.92809482 0.84609985 77.15856934 C0.8417176 77.90459616 0.83733535 78.65062299 0.8328203 79.41925669 C0.81940888 81.93250174 0.81324809 84.44571172 0.80712891 86.95898438 C0.79922951 88.75584065 0.79096066 90.55269534 0.78234863 92.34954834 C0.75610011 98.26426676 0.74081378 104.17899234 0.7265625 110.09375 C0.72120315 112.12978622 0.71582564 114.16582239 0.71043015 116.20185852 C0.68879335 124.67390072 0.67005844 133.14594099 0.65880775 141.61800385 C0.64258261 153.75645599 0.60944877 165.89458727 0.55240691 178.03291845 C0.51366764 186.56807631 0.49417008 195.10314852 0.48888719 203.63839197 C0.48523795 208.73500046 0.47326275 213.83126696 0.44078445 218.92778015 C0.4106354 223.72789258 0.40441638 228.52745735 0.41616821 233.32764435 C0.41638841 235.08437901 0.40812846 236.84113958 0.39051437 238.59778595 C0.20648318 252.07215788 0.20648318 252.07215788 6 264 C12.94033055 270.51139556 19.01175502 272.30070328 28.34832764 272.26069641 C29.29363382 272.26452196 30.23894 272.26834751 31.21289182 272.27228898 C34.38254423 272.28261305 37.5520153 272.27862788 40.72167969 272.2746582 C42.99350146 272.27900507 45.26532177 272.28418814 47.53713989 272.29014587 C53.71082142 272.30355166 59.88444178 272.30411264 66.05813503 272.30158257 C71.2121134 272.30051366 76.36607935 272.30539434 81.52005506 272.310188 C94.37694346 272.3219242 107.23378792 272.32105505 120.09067693 272.31463119 C131.24553854 272.30946554 142.40031272 272.32070808 153.55515704 272.33972941 C165.0170872 272.35912399 176.47895993 272.36706961 187.94090962 272.36360615 C194.37257134 272.36179347 200.80415304 272.36442788 207.2358017 272.37832069 C213.28671455 272.39090142 219.33745269 272.38895241 225.38836288 272.37590981 C227.60669133 272.37354481 229.82503207 272.37627594 232.04334641 272.38453293 C235.07701223 272.39500861 238.11009273 272.38689269 241.14373779 272.3742218 C242.01681163 272.38159609 242.88988546 272.38897037 243.78941607 272.39656812 C251.07361497 272.33278327 257.19732803 270.85082111 263.3125 266.8125 C268.49707433 261.38678268 271.11256554 255.07401911 271.1386652 247.57223129 C271.14413964 246.68645141 271.14961409 245.80067153 271.15525442 244.88804984 C271.15623253 243.91918224 271.15721064 242.95031463 271.15821838 241.9520874 C271.16562535 240.40337806 271.16562535 240.40337806 271.17318195 238.82338166 C271.18857705 235.35328473 271.19692306 231.88320634 271.20532227 228.41308594 C271.2148992 225.92976721 271.22490917 223.44645013 271.23532104 220.96313477 C271.25678268 215.61133108 271.2752231 210.25952996 271.29092598 204.90770721 C271.31363493 197.16986376 271.34177634 189.43204757 271.37124526 181.69422725 C271.41890859 169.14023906 271.46217619 156.58623972 271.50268555 144.03222656 C271.54204687 131.83690523 271.58347463 119.64159382 271.62768555 107.44628906 C271.63177196 106.31878108 271.63177196 106.31878108 271.63594092 105.16849515 C271.6496205 101.39759161 271.66334075 97.62668821 271.67708123 93.85578489 C271.79102624 62.57054371 271.89776683 31.28528175 272 0 C278.84602607 0.82638421 282.77145181 2.17042045 287.14445591 7.72280788 C290.32172698 13.56794673 289.54679363 20.34545634 289.50120544 26.81007385 C289.50510011 28.3338957 289.51074188 29.8577139 289.51797634 31.38152355 C289.53272522 35.56143483 289.52255325 39.74096916 289.50823963 43.92086828 C289.49713057 48.43148673 289.50907218 52.94205229 289.51808167 57.45266724 C289.53201624 66.28573226 289.52445649 75.11865434 289.50940608 83.95171256 C289.49254896 94.23641995 289.49575584 104.52109171 289.49950016 114.80580866 C289.50537907 133.15466631 289.49120557 151.50345535 289.46655273 169.85229492 C289.44262838 187.66091483 289.43554981 205.46944308 289.44604492 223.27807617 C289.45745129 242.66773206 289.45938793 262.05734555 289.44494683 281.44700092 C289.44342097 283.51404917 289.44190062 285.58109742 289.44038582 287.64814568 C289.439628 288.66519318 289.43887019 289.68224068 289.43808941 290.7301078 C289.43334469 297.90083859 289.43519933 305.07155046 289.43945122 312.24228096 C289.44437517 320.97896853 289.43840552 329.71556938 289.41855692 338.45223708 C289.4086778 342.91068236 289.40358651 347.36899554 289.41144943 351.82744789 C289.41849832 355.9077657 289.41172027 359.98781677 289.3938458 364.06809937 C289.38979618 365.54510182 289.3908098 367.02212852 289.39736467 368.49912197 C289.40550793 370.50555832 289.39341337 372.51204633 289.38031673 374.51845646 C289.3792876 375.63331804 289.37825848 376.74817963 289.37719816 377.8968249 C288.74088741 383.13169581 286.5676651 387.00306195 282.5 390.3125 C281.9121875 390.80363281 281.324375 391.29476563 280.71875 391.80078125 C277.64179276 393.94765824 274.96104184 394.12077097 271.33203125 394.09765625 C270.43935547 394.09443359 269.54667969 394.09121094 268.62695312 394.08789062 C267.69818359 394.07951172 266.76941406 394.07113281 265.8125 394.0625 C264.87212891 394.05798828 263.93175781 394.05347656 262.96289062 394.04882812 C260.64186288 394.03704626 258.32096356 394.02059558 256 394 C255.99857498 393.14524078 255.99714996 392.29048157 255.99568176 391.40982056 C255.97778526 383.31878671 255.93597581 375.22829512 255.86790943 367.13752174 C255.83375008 362.97881614 255.80854682 358.82047357 255.80444336 354.66162109 C255.80013645 350.64122728 255.7714783 346.62165086 255.72656822 342.60151291 C255.71366903 341.07472893 255.70925843 339.54784674 255.71384621 338.02101517 C255.73437116 329.1087332 255.32313922 321.50221628 250 314 C247.76813112 311.71370052 247.76813112 311.71370052 245.3125 310.4375 C244.54550781 309.98246094 243.77851563 309.52742188 242.98828125 309.05859375 C238.53266913 306.68635232 235.0683307 306.7811647 230.0625 306.75 C229.23814453 306.729375 228.41378906 306.70875 227.56445312 306.6875 C226.77103516 306.68234375 225.97761719 306.6771875 225.16015625 306.671875 C224.07166382 306.65785645 224.07166382 306.65785645 222.96118164 306.64355469 C220.41954008 307.10549875 219.5501819 307.96574088 218 310 C217.47359425 313.53443858 217.45316519 315.25614382 219.59375 318.16796875 C223.55953719 321.18737491 227.76969457 320.3874899 232.58984375 320.3359375 C236 321 236 321 241 327 C241 349.11 241 371.22 241 394 C171.7 394 102.4 394 31 394 C31 327 31 327 36 321 C39.07161045 320.25447559 39.07161045 320.25447559 42.57264709 320.26069641 C43.21929823 320.25360301 43.86594936 320.2465096 44.53219599 320.23920125 C46.69174237 320.2226757 48.84863436 320.24874018 51.00805664 320.2746582 C52.55894221 320.27139827 54.10982412 320.26546096 55.66069031 320.25704956 C58.99650871 320.24465031 62.33157144 320.25107368 65.66734505 320.27211952 C70.94079958 320.30518581 76.21366205 320.29588399 81.48716736 320.2808075 C89.82634367 320.26192931 98.1652155 320.27095346 106.50437778 320.29212874 C121.44285545 320.32982206 136.38129112 320.33401375 151.31979078 320.30727643 C156.56318616 320.29917816 161.80621407 320.30780459 167.04956639 320.32983935 C170.30893615 320.34091323 173.56822542 320.33994215 176.82760811 320.3359642 C178.34013556 320.33675155 179.85267045 320.34272647 181.36515427 320.35424232 C183.42847592 320.36932229 185.49099277 320.3660721 187.55433655 320.35835266 C189.28678415 320.36312858 189.28678415 320.36312858 191.05423069 320.36800098 C194.30501088 319.96189644 195.68384174 319.27738199 198 317 C198.72508429 314.11679083 198.33638076 312.02742688 198 309 C194.41111538 306.60741025 192.81577623 306.7426559 188.5496521 306.72584534 C187.89190343 306.72060866 187.23415477 306.71537198 186.55647433 306.70997661 C184.34797249 306.69495085 182.13970183 306.6942709 179.93115234 306.69360352 C178.34926969 306.68598346 176.76739075 306.67755623 175.18551636 306.66838074 C170.8835669 306.64640678 166.58168855 306.63763234 162.27968931 306.63255429 C159.59056091 306.62891251 156.90145116 306.62267322 154.21232986 306.6155529 C144.82627799 306.59104317 135.44028145 306.57800434 126.05419922 306.57446289 C117.31377361 306.57083193 108.57370009 306.54097212 99.83338201 306.49905831 C92.32495054 306.46431822 84.81663545 306.44891376 77.30812418 306.44821686 C72.82580709 306.44742496 68.3438481 306.43872757 63.86161423 306.41021919 C59.64091421 306.38397643 55.42086744 306.3818676 51.20012283 306.39787483 C49.65583111 306.39968473 48.11150132 306.39304014 46.56729126 306.37705612 C38.07659798 306.29457004 30.89260711 306.46673975 24 312 C21.81685405 314.2182065 21.81685405 314.2182065 20.5 316.625 C20.0359375 317.38039063 19.571875 318.13578125 19.09375 318.9140625 C16.97141972 322.96164953 16.85140037 326.25285628 16.79467773 330.76635742 C16.78477814 331.44954544 16.77487854 332.13273346 16.76467896 332.83662415 C16.73311321 335.09287053 16.7083261 337.34913797 16.68359375 339.60546875 C16.66301996 341.17060389 16.64202338 342.73573352 16.62062073 344.30085754 C16.56544391 348.41897116 16.51601529 352.53713456 16.46777344 356.65533447 C16.41752635 360.85815864 16.36185703 365.06091058 16.30664062 369.26367188 C16.19911274 377.5090535 16.09765587 385.75449558 16 394 C12.62529496 394.11689626 9.2511157 394.18747934 5.875 394.25 C4.92367187 394.28351563 3.97234375 394.31703125 2.9921875 394.3515625 C-4.11580605 394.45028463 -7.50417385 393.39618265 -12.64453125 388.40234375 C-16.37257772 383.72670018 -17.12471091 380.77890445 -17.13701439 374.89039326 C-17.14208893 373.60398073 -17.14716347 372.31756821 -17.15239179 370.99217349 C-17.15299349 369.55624986 -17.15349256 368.12032617 -17.15390015 366.68440247 C-17.15791433 365.16546236 -17.16235248 363.64652333 -17.1671797 362.12758559 C-17.17915589 357.94262858 -17.18479607 353.7576831 -17.18936086 349.5727123 C-17.19531295 345.06335974 -17.20692374 340.55402099 -17.21765137 336.04467773 C-17.24218376 325.14924896 -17.25680343 314.25381561 -17.26971143 303.35836771 C-17.27342265 300.28183885 -17.27739594 297.20531044 -17.2814641 294.12878203 C-17.30669909 275.03026799 -17.32875555 255.93175324 -17.34119225 236.8332262 C-17.34412202 232.40859283 -17.34708367 227.98395949 -17.35009766 223.55932617 C-17.35121673 221.90971338 -17.35121673 221.90971338 -17.35235842 220.22677507 C-17.36501495 202.40734136 -17.3982416 184.58800737 -17.43989949 166.76862029 C-17.48230359 148.48036532 -17.50588549 130.19216142 -17.51111281 111.90385741 C-17.51452857 101.63298361 -17.52630333 91.36226566 -17.55921555 81.0914402 C-17.58719621 72.34518412 -17.59822408 63.59911583 -17.58702008 54.85281847 C-17.58182842 50.38999421 -17.58475303 45.92756334 -17.60948563 41.46479607 C-17.63194604 37.37792485 -17.63126362 33.29173035 -17.61228175 29.20484754 C-17.60947721 27.72767559 -17.61510564 26.25045807 -17.63009469 24.77335951 C-17.7708926 9.99274193 -17.7708926 9.99274193 -12 4 C-8.17039669 0.9395237 -4.90080176 -0.20140281 0 0 Z " fill="#EAE8EA" transform="translate(120,31)"/>
<path d="M0 0 C0.89600682 -0.00085442 1.79201363 -0.00170885 2.71517217 -0.00258917 C5.73545823 -0.00424411 8.75568947 0.00127766 11.77597046 0.00672913 C13.93387348 0.00701102 16.0917766 0.00685322 18.24967957 0.00628662 C24.12334909 0.00599873 29.99699836 0.01189404 35.87066317 0.01886058 C42.00327229 0.02509559 48.13588184 0.02569803 54.26849365 0.02688599 C65.88841042 0.02999887 77.50831782 0.03821168 89.12823045 0.04823548 C102.35414245 0.05939795 115.58005489 0.0649074 128.80597043 0.06993091 C156.01912035 0.08039432 183.23226128 0.09819346 210.44540405 0.12025452 C210.44540405 11.67025452 210.44540405 23.22025452 210.44540405 35.12025452 C207.44540405 31.12025452 207.44540405 31.12025452 205.57040405 28.12025452 C201.98148896 23.05355086 197.4717185 19.76166312 191.44540405 18.12025452 C183.8476136 16.94349236 177.6756102 18.63793753 171.44540405 23.12025452 C165.44428945 29.37699469 164.13785391 34.5628528 164.2305603 43.11244202 C164.70531574 49.75901809 167.74582205 54.42067251 172.44540405 59.12025452 C178.52175457 63.68458293 185.06424064 64.0851775 192.44540405 63.12025452 C198.10060708 61.52204497 201.56528796 58.37862737 205.1211853 53.80384827 C206.46100849 52.10041524 207.85206864 50.58862244 209.44540405 49.12025452 C209.77540405 49.12025452 210.10540405 49.12025452 210.44540405 49.12025452 C210.44540405 61.33025452 210.44540405 73.54025452 210.44540405 86.12025452 C209.78540405 85.79025452 209.12540405 85.46025452 208.44540405 85.12025452 C208.44540405 84.46025452 208.44540405 83.80025452 208.44540405 83.12025452 C204.52476254 81.83734072 200.58155414 81.98119345 196.50569153 81.99327087 C195.69993071 81.99171088 194.89416989 81.99015089 194.06399208 81.98854363 C191.36095136 81.98455135 188.65796669 81.98771643 185.95492554 81.99085999 C184.01834073 81.98950517 182.08175618 81.98772479 180.14517212 81.98554993 C174.88297227 81.98098545 169.62079199 81.98276105 164.35859179 81.98592901 C158.8573417 81.98845732 153.3560933 81.98611379 147.85484314 81.98454285 C138.61687926 81.98272269 129.37892336 81.98512361 120.14096069 81.98988342 C109.45160578 81.99532736 98.76226994 81.99356181 88.07291549 81.98805702 C78.90343545 81.98352345 69.73396116 81.98287649 60.56448036 81.98549569 C55.08429372 81.98705691 49.60411605 81.98725641 44.12392998 81.9839592 C38.97349019 81.98107691 33.82307506 81.98306281 28.67263794 81.98885345 C26.77914025 81.99017905 24.8856405 81.98979031 22.99214363 81.98759079 C20.41411176 81.98487152 17.83615968 81.98827001 15.25813293 81.99327087 C14.50308312 81.99104015 13.74803331 81.98880943 12.9701032 81.98651111 C9.85326817 81.99829522 7.42621188 82.12665191 4.44540405 83.12025452 C4.19790405 84.35775452 3.95040405 85.59525452 3.69540405 86.87025452 C3.5561853 87.56634827 3.41696655 88.26244202 3.27352905 88.97962952 C3.27089435 91.26006432 3.27089435 91.26006432 4.95838261 93.22271824 C8.3500934 95.81051027 11.31297359 95.6735531 15.40962219 95.62145996 C16.21805543 95.62699436 17.02648867 95.63252875 17.85941988 95.63823086 C20.57190513 95.65185835 23.28347357 95.63685703 25.99594116 95.6219635 C27.93913667 95.62574595 29.88232949 95.63124537 31.82551575 95.63833618 C37.10655218 95.65231865 42.38726382 95.64110095 47.66828227 95.62462497 C53.19128736 95.61079149 58.71427327 95.61723268 64.23728943 95.62075806 C73.5139897 95.62346175 82.79056071 95.60997162 92.06723022 95.58680725 C102.79523023 95.56020439 113.52301395 95.55844736 124.25103563 95.57019562 C134.56563012 95.58097243 144.8801463 95.57478656 155.19473457 95.56064034 C159.58658255 95.55487892 163.97837326 95.55496447 168.37022209 95.55970573 C173.54209321 95.56447565 178.71372733 95.55437306 183.88555336 95.53275108 C185.78465348 95.52718298 187.68377637 95.52671813 189.58287811 95.53170395 C192.17358314 95.53765282 194.76356263 95.52515939 197.35420227 95.50793457 C198.10731735 95.51394462 198.86043242 95.51995466 199.63636917 95.52614683 C204.54730167 95.4666977 205.95298852 94.81570384 210.44540405 92.12025452 C210.44540405 100.70025452 210.44540405 109.28025452 210.44540405 118.12025452 C207.47540405 116.14025452 207.47540405 116.14025452 204.44540405 114.12025452 C201.58724103 113.74202162 199.12173966 113.57824744 196.27191162 113.61231995 C195.46514752 113.60607998 194.65838342 113.59984002 193.82717192 113.59341097 C191.13239583 113.57749627 188.43852619 113.59007888 185.7437439 113.60267639 C183.80848158 113.59725468 181.8732234 113.59013174 179.93797302 113.58143616 C174.68812414 113.56320826 169.43858984 113.57026757 164.18873549 113.5829525 C158.69596478 113.59307997 153.20322099 113.58368779 147.71044922 113.57740784 C138.48858808 113.57013194 129.26685511 113.57971897 120.04501343 113.59877014 C109.37826034 113.62055162 98.71181291 113.61347795 88.04506719 113.59146452 C78.88909421 113.57332432 69.73321333 113.57074506 60.57722819 113.5812192 C55.10761097 113.58746004 49.63813754 113.5882732 44.16852951 113.57507324 C39.02859335 113.56353503 33.88905225 113.57150339 28.74915886 113.59465027 C26.86092345 113.59994766 24.9726549 113.59840605 23.0844326 113.58959961 C20.5108131 113.57870135 17.9384671 113.59233749 15.3649292 113.61231995 C14.61415647 113.60339706 13.86338374 113.59447417 13.08986032 113.5852809 C9.66811486 113.63697178 7.74980126 113.90070179 4.94262123 115.92543793 C3.08947553 118.17710448 3.08947553 118.17710448 3.57040405 121.74525452 C4.15281119 125.16567507 4.15281119 125.16567507 6.44540405 127.12025452 C9.06725832 127.32001522 11.5838418 127.39390942 14.20707703 127.38095093 C15.01788497 127.38477647 15.82869291 127.38860202 16.66407079 127.39254349 C19.39634116 127.40290882 22.12840276 127.39887467 24.86068726 127.39491272 C26.81343786 127.39925731 28.76618676 127.40443961 30.71893311 127.41040039 C36.03511565 127.42383062 41.35122728 127.42436447 46.66742349 127.42183709 C51.100884 127.42076984 55.53433002 127.42564458 59.96778744 127.43044251 C70.42640172 127.44155218 80.88498009 127.44196728 91.34359741 127.43592834 C102.14084222 127.42988977 112.93795668 127.4421933 123.73517925 127.46349841 C132.99637602 127.48110221 142.25753127 127.4871176 151.51874417 127.48386067 C157.05383067 127.4820453 162.58882425 127.484709 168.12389565 127.49857521 C173.33018767 127.51112861 178.53627634 127.509233 183.74256516 127.49616432 C185.65457286 127.49379335 187.56659476 127.4965518 189.4785862 127.50478745 C192.08688837 127.51521287 194.694503 127.50718816 197.30278015 127.49447632 C198.44033555 127.50553775 198.44033555 127.50553775 199.60087186 127.51682264 C204.52891082 127.46622677 205.94033289 126.82329721 210.44540405 124.12025452 C210.44540405 132.70025452 210.44540405 141.28025452 210.44540405 150.12025452 C207.47540405 148.14025452 207.47540405 148.14025452 204.44540405 146.12025452 C201.58724103 145.74202162 199.12173966 145.57824744 196.27191162 145.61231995 C195.46514752 145.60607998 194.65838342 145.59984002 193.82717192 145.59341097 C191.13239583 145.57749627 188.43852619 145.59007888 185.7437439 145.60267639 C183.80848158 145.59725468 181.8732234 145.59013174 179.93797302 145.58143616 C174.68812414 145.56320826 169.43858984 145.57026757 164.18873549 145.5829525 C158.69596478 145.59307997 153.20322099 145.58368779 147.71044922 145.57740784 C138.48858808 145.57013194 129.26685511 145.57971897 120.04501343 145.59877014 C109.37826034 145.62055162 98.71181291 145.61347795 88.04506719 145.59146452 C78.88909421 145.57332432 69.73321333 145.57074506 60.57722819 145.5812192 C55.10761097 145.58746004 49.63813754 145.5882732 44.16852951 145.57507324 C39.02859335 145.56353503 33.88905225 145.57150339 28.74915886 145.59465027 C26.86092345 145.59994766 24.9726549 145.59840605 23.0844326 145.58959961 C20.5108131 145.57870135 17.9384671 145.59233749 15.3649292 145.61231995 C14.61415647 145.60339706 13.86338374 145.59447417 13.08986032 145.5852809 C9.66811486 145.63697178 7.74980126 145.90070179 4.94262123 147.92543793 C3.08947553 150.17710448 3.08947553 150.17710448 3.57040405 153.74525452 C4.15281119 157.16567507 4.15281119 157.16567507 6.44540405 159.12025452 C9.06725832 159.32001522 11.5838418 159.39390942 14.20707703 159.38095093 C15.42328894 159.38668925 15.42328894 159.38668925 16.66407079 159.39254349 C19.39634116 159.40290882 22.12840276 159.39887467 24.86068726 159.39491272 C26.81343786 159.39925731 28.76618676 159.40443961 30.71893311 159.41040039 C36.03511565 159.42383062 41.35122728 159.42436447 46.66742349 159.42183709 C51.100884 159.42076984 55.53433002 159.42564458 59.96778744 159.43044251 C70.42640172 159.44155218 80.88498009 159.44196728 91.34359741 159.43592834 C102.14084222 159.42988977 112.93795668 159.4421933 123.73517925 159.46349841 C132.99637602 159.48110221 142.25753127 159.4871176 151.51874417 159.48386067 C157.05383067 159.4820453 162.58882425 159.484709 168.12389565 159.49857521 C173.33018767 159.51112861 178.53627634 159.509233 183.74256516 159.49616432 C185.65457286 159.49379335 187.56659476 159.4965518 189.4785862 159.50478745 C192.08688837 159.51521287 194.694503 159.50718816 197.30278015 159.49447632 C198.06115042 159.5018506 198.81952068 159.50922489 199.60087186 159.51682264 C204.52891082 159.46622677 205.94033289 158.82329721 210.44540405 156.12025452 C210.44540405 164.70025452 210.44540405 173.28025452 210.44540405 182.12025452 C207.47540405 180.14025452 207.47540405 180.14025452 204.44540405 178.12025452 C201.60194845 177.7400395 199.15196365 177.57408977 196.31660461 177.60559082 C195.51462963 177.59864529 194.71265465 177.59169976 193.88637739 177.58454376 C191.20776934 177.56629442 188.53004902 177.57653199 185.85140991 177.58680725 C183.92762083 177.57974783 182.00383731 177.57100272 180.08006287 177.56069946 C174.86114957 177.53820124 169.64253947 177.54114583 164.42359614 177.55002093 C160.06696499 177.55513049 155.71039083 177.54783871 151.35376555 177.54054886 C141.07819008 177.52354929 130.80276312 177.5271173 120.52719116 177.5438385 C109.92289435 177.56077128 99.31900882 177.54490939 88.71475691 177.51261562 C79.61056817 177.4859395 70.50650763 177.47863804 61.40228373 177.4871307 C55.96445082 177.49206428 50.52686556 177.4898205 45.08906364 177.46934319 C39.97778906 177.45101647 34.86710761 177.45690801 29.7558651 177.48154259 C27.87933398 177.4865595 26.00275789 177.48303797 24.12626266 177.47039413 C21.56589613 177.45450587 19.00749308 177.46937274 16.44721985 177.49206543 C15.70325091 177.4802297 14.95928197 177.46839397 14.19276851 177.45619959 C10.28181986 177.52671034 8.56508588 178.02702589 5.44138432 180.46029758 C3.11562352 182.99110609 3.11562352 182.99110609 3.50790405 186.30775452 C4.24508963 189.21808249 4.24508963 189.21808249 6.44540405 191.12025452 C9.08195926 191.32003407 11.61383187 191.39390462 14.25177002 191.38095093 C15.47516561 191.38668925 15.47516561 191.38668925 16.72327626 191.39254349 C19.47169976 191.40290893 22.21991573 191.39887466 24.96835327 191.39491272 C26.93257848 191.39925727 28.89680198 191.40443956 30.86102295 191.41040039 C36.20812899 191.42383017 41.55516452 191.42436458 46.90228415 191.42183709 C51.36069217 191.42076994 55.81908578 191.42564425 60.27749074 191.43044251 C70.79359643 191.44155175 81.30966641 191.44196734 91.82577515 191.43592834 C102.68552364 191.429888 113.54514258 191.4421979 124.40486896 191.46349841 C133.7178543 191.48109553 143.03079835 191.48711871 152.34379971 191.48386067 C157.91071219 191.48204444 163.4775323 191.48471765 169.04442978 191.49857521 C174.2794455 191.511118 179.5142589 191.50924315 184.74927139 191.49616432 C186.67298703 191.49379112 188.59671675 191.49655968 190.52041626 191.50478745 C193.14220502 191.51519407 195.76330725 191.50720349 198.3850708 191.49447632 C199.15024485 191.5018506 199.91541891 191.50922489 200.70378006 191.51682264 C205.38560166 191.46885665 206.48957988 191.08712265 210.44540405 188.12025452 C210.44540405 196.70025452 210.44540405 205.28025452 210.44540405 214.12025452 C207.47540405 212.14025452 207.47540405 212.14025452 204.44540405 210.12025452 C201.60194845 209.7400395 199.15196365 209.57408977 196.31660461 209.60559082 C195.51462963 209.59864529 194.71265465 209.59169976 193.88637739 209.58454376 C191.20776934 209.56629442 188.53004902 209.57653199 185.85140991 209.58680725 C183.92762083 209.57974783 182.00383731 209.57100272 180.08006287 209.56069946 C174.86114957 209.53820124 169.64253947 209.54114583 164.42359614 209.55002093 C160.06696499 209.55513049 155.71039083 209.54783871 151.35376555 209.54054886 C141.07819008 209.52354929 130.80276312 209.5271173 120.52719116 209.5438385 C109.92289435 209.56077128 99.31900882 209.54490939 88.71475691 209.51261562 C79.61056817 209.4859395 70.50650763 209.47863804 61.40228373 209.4871307 C55.96445082 209.49206428 50.52686556 209.4898205 45.08906364 209.46934319 C39.97778906 209.45101647 34.86710761 209.45690801 29.7558651 209.48154259 C27.87933398 209.4865595 26.00275789 209.48303797 24.12626266 209.47039413 C21.56589613 209.45450587 19.00749308 209.46937274 16.44721985 209.49206543 C15.70325091 209.4802297 14.95928197 209.46839397 14.19276851 209.45619959 C10.28181986 209.52671034 8.56508588 210.02702589 5.44138432 212.46029758 C3.11562352 214.99110609 3.11562352 214.99110609 3.50790405 218.30775452 C4.24508963 221.21808249 4.24508963 221.21808249 6.44540405 223.12025452 C9.08195926 223.32003407 11.61383187 223.39390462 14.25177002 223.38095093 C15.47516561 223.38668925 15.47516561 223.38668925 16.72327626 223.39254349 C19.47169976 223.40290893 22.21991573 223.39887466 24.96835327 223.39491272 C26.93257848 223.39925727 28.89680198 223.40443956 30.86102295 223.41040039 C36.20812899 223.42383017 41.55516452 223.42436458 46.90228415 223.42183709 C51.36069217 223.42076994 55.81908578 223.42564425 60.27749074 223.43044251 C70.79359643 223.44155175 81.30966641 223.44196734 91.82577515 223.43592834 C102.68552364 223.429888 113.54514258 223.4421979 124.40486896 223.46349841 C133.7178543 223.48109553 143.03079835 223.48711871 152.34379971 223.48386067 C157.91071219 223.48204444 163.4775323 223.48471765 169.04442978 223.49857521 C174.2794455 223.511118 179.5142589 223.50924315 184.74927139 223.49616432 C186.67298703 223.49379112 188.59671675 223.49655968 190.52041626 223.50478745 C193.14220502 223.51519407 195.76330725 223.50720349 198.3850708 223.49447632 C199.15024485 223.5018506 199.91541891 223.50922489 200.70378006 223.51682264 C204.89320924 223.47390129 207.40944816 223.11640401 210.44540405 220.12025452 C210.50362935 223.2035081 210.5390754 226.28661957 210.57040405 229.37025452 C210.59554077 230.67929749 210.59554077 230.67929749 210.6211853 232.01478577 C210.62763062 232.8591217 210.63407593 233.70345764 210.64071655 234.57337952 C210.65119019 235.34842834 210.66166382 236.12347717 210.67245483 236.92201233 C210.41783833 239.38713813 209.59523489 240.9477388 208.44540405 243.12025452 C207.40711551 243.11656734 206.36882696 243.11288017 205.29907513 243.10908127 C180.06216834 243.02037415 154.82528171 242.95459487 129.58825207 242.91300583 C117.38392288 242.8923603 105.17969654 242.86420166 92.97543335 242.8184967 C82.34106372 242.77868991 71.70676854 242.7528362 61.07232648 242.74390054 C55.43884747 242.73867536 49.80558152 242.72635297 44.17217064 242.69733429 C38.87397364 242.67026248 33.57607827 242.66179283 28.27781868 242.66782379 C26.32948037 242.66671986 24.38113237 242.65871718 22.4328537 242.64343262 C19.77981691 242.62363335 17.12793023 242.62827812 14.47486877 242.63923645 C13.30901923 242.6217594 13.30901923 242.6217594 12.11961716 242.60392928 C8.7931523 242.64126285 6.94016835 242.66934145 4.42793751 244.9589119 C2.66590036 248.8349794 4.15709759 252.25533514 5.44540405 256.12025452 C-0.82459595 256.12025452 -7.09459595 256.12025452 -13.55459595 256.12025452 C-13.56339531 252.95771088 -13.56339531 252.95771088 -13.57237244 249.73127747 C-13.62898159 229.89508065 -13.70203146 210.05899337 -13.79031086 190.22291183 C-13.83530274 180.02415245 -13.87470955 169.82542824 -13.90103149 159.62660217 C-13.92398413 150.73872774 -13.95735143 141.85096434 -14.00329751 132.96317792 C-14.02726669 128.25586367 -14.04597121 123.54865963 -14.05220985 118.84128571 C-14.05824404 114.41223805 -14.07818323 109.98347254 -14.10887146 105.55452919 C-14.1176785 103.92754638 -14.12136877 102.30052673 -14.11960411 100.67352104 C-14.11795692 98.45440795 -14.13460182 96.23616066 -14.15586853 94.01716614 C-14.1604775 92.7745892 -14.16508646 91.53201225 -14.16983509 90.25178146 C-14.58585152 86.86586879 -15.09296549 85.45237662 -17.55459595 83.12025452 C-21.15925342 82.3071054 -21.15925342 82.3071054 -24.55459595 82.12025452 C-23.06959595 81.62525452 -23.06959595 81.62525452 -21.55459595 81.12025452 C-21.61260376 79.9278717 -21.67061157 78.73548889 -21.7303772 77.50697327 C-21.77727442 75.94060611 -21.82277462 74.37419668 -21.86709595 72.80775452 C-21.90899048 72.02207092 -21.95088501 71.23638733 -21.99404907 70.42689514 C-22.04103087 68.21875071 -22.0344586 66.27762988 -21.55459595 64.12025452 C-19.0975647 62.13978577 -19.0975647 62.13978577 -16.55459595 61.12025452 C-14.88433731 59.44999588 -15.4212225 57.4227564 -15.41275024 55.12904358 C-15.40571579 54.06413696 -15.39868134 52.99923035 -15.39143372 51.90205383 C-15.3851873 50.16154755 -15.3851873 50.16154755 -15.3788147 48.38587952 C-15.35561341 45.95097507 -15.33149595 43.51607921 -15.30654907 41.08119202 C-15.27142889 37.22533965 -15.24209437 33.36980203 -15.22866821 29.5138092 C-15.21320716 25.80410685 -15.17300033 22.09533631 -15.1288147 18.38587952 C-15.13072311 17.23363892 -15.13263153 16.08139832 -15.13459778 14.89424133 C-15.01205482 6.88730323 -15.01205482 6.88730323 -12.64370728 2.91615295 C-8.66166641 -0.50699682 -5.02741175 -0.01730378 0 0 Z " fill="#716370" transform="translate(149.55459594726563,14.879745483398438)"/>
<path d="M0 0 C11 0 11 0 14.125 1.875 C16.75900659 4.86020747 17.12529446 6.42414544 17.13142776 10.30826283 C17.13526891 11.21832767 17.13911005 12.12839252 17.1430676 13.06603509 C17.14220112 14.07233632 17.14133463 15.07863754 17.14044189 16.11543274 C17.14341302 17.17942093 17.14638414 18.24340911 17.1494453 19.33963937 C17.15816307 22.92866388 17.15964313 26.51765517 17.16113281 30.10668945 C17.1657588 32.67026847 17.17078316 35.2338468 17.17617798 37.79742432 C17.18932487 44.77882418 17.19578777 51.76021303 17.20018864 58.74162316 C17.20294932 63.0992719 17.20718636 67.45691842 17.21169281 71.81456566 C17.22388711 83.87495058 17.23418597 95.93533372 17.2375679 107.99572468 C17.23789725 109.1540524 17.23789725 109.1540524 17.23823325 110.33578069 C17.23845153 111.10986862 17.23866981 111.88395655 17.2388947 112.68150169 C17.23933817 114.25015152 17.23978473 115.81880134 17.24023438 117.38745117 C17.24056652 118.55461302 17.24056652 118.55461302 17.24090537 119.7453539 C17.24485378 132.35483548 17.26230835 144.96425927 17.2855939 157.57371853 C17.30929708 170.51358029 17.32176929 183.45341306 17.32293582 196.3932969 C17.32385319 203.66101138 17.32962089 210.9286506 17.34775543 218.19634438 C17.36474914 225.03103022 17.36641676 231.86557085 17.35761642 238.70027161 C17.35684328 241.21215382 17.361225 243.72404357 17.37107468 246.2359066 C17.38371147 249.65864899 17.37796214 253.08087812 17.36749268 256.50361633 C17.37957728 258.00302992 17.37957728 258.00302992 17.39190602 259.53273469 C17.32965274 268.20388765 17.32965274 268.20388765 14 272 C11.22170371 273.65812544 9.16615313 274.25097446 5.94539738 274.26006222 C4.74152995 274.2706606 4.74152995 274.2706606 3.51334196 274.2814731 C2.19939417 274.27785047 2.19939417 274.27785047 0.85890198 274.27415466 C-0.07612138 274.27939134 -1.01114474 274.28462802 -1.97450215 274.29002339 C-5.11512449 274.30505401 -8.25558436 274.30572921 -11.39624023 274.30639648 C-13.64484941 274.3140158 -15.89345597 274.3224429 -18.14205933 274.33161926 C-24.25560458 274.35359112 -30.36909981 274.36236657 -36.48268008 274.36744571 C-40.2999581 274.37108552 -44.11722293 274.37732355 -47.93449593 274.3844471 C-58.50404223 274.40390328 -69.07357758 274.42041646 -79.64314175 274.42332363 C-80.31932643 274.4235112 -80.99551111 274.42369877 -81.69218624 274.42389202 C-83.0629559 274.42425827 -84.43372555 274.42462197 -85.80449521 274.42498314 C-86.48494197 274.42516595 -87.16538872 274.42534876 -87.86645508 274.42553711 C-88.5477323 274.42571766 -89.22900953 274.42589821 -89.93093152 274.42608423 C-100.97544729 274.42962755 -112.01976829 274.45666121 -123.06421649 274.494035 C-134.40405887 274.53210138 -145.74377305 274.55103971 -157.08369213 274.55178314 C-163.45047938 274.55257753 -169.81701527 274.56139082 -176.18374443 274.58978081 C-182.16987467 274.61587657 -188.15554361 274.61821396 -194.14170456 274.60212517 C-196.34075866 274.60030403 -198.53983879 274.60706094 -200.73883629 274.62294388 C-203.73708203 274.64328239 -206.73369503 274.63292427 -209.73191833 274.61473083 C-211.04252005 274.63453079 -211.04252005 274.63453079 -212.37959856 274.65473074 C-216.78065619 274.59357487 -218.46371321 274.42903238 -222.0167551 271.58657932 C-225.10323155 267.56114799 -225.14086376 264.84011256 -225.12025452 259.92599487 C-225.12110894 259.1892466 -225.12196337 258.45249832 -225.12284368 257.69342434 C-225.1244975 255.2120958 -225.11897871 252.73083409 -225.11352539 250.24951172 C-225.11324347 248.47584027 -225.11340134 246.7021687 -225.1139679 244.92849731 C-225.11425569 240.10231323 -225.1083619 235.27615382 -225.10139394 230.44997549 C-225.09515736 225.41042804 -225.09455636 220.37088006 -225.09336853 215.33132935 C-225.09025612 205.78324569 -225.08204393 196.23517344 -225.07201904 186.68709481 C-225.06085513 175.81905844 -225.05534675 164.95102154 -225.05032361 154.08298087 C-225.03986125 131.72198092 -225.02226353 109.3609911 -225 87 C-224.67 87 -224.34 87 -224 87 C-224 142.77 -224 198.54 -224 256 C-217.73 256 -211.46 256 -205 256 C-205.99 254.35 -206.98 252.7 -208 251 C-207.87861681 247.96542024 -207.58433537 245.91463515 -205.94156742 243.34328079 C-202.88469393 241.22837126 -199.64628294 241.59489025 -196.05992126 241.63250732 C-195.24205865 241.62923848 -194.42419603 241.62596964 -193.5815497 241.62260175 C-190.83144216 241.61529848 -188.08186241 241.62949955 -185.33178711 241.64355469 C-183.36417042 241.64276414 -181.39655389 241.64066788 -179.42893982 241.63735962 C-174.07784002 241.63221595 -168.7269318 241.64577993 -163.37586284 241.66288662 C-157.78472397 241.67789483 -152.19358789 241.67674792 -146.60243225 241.67755127 C-137.21303017 241.68124639 -127.82370108 241.69622664 -118.43432617 241.71875 C-106.36924542 241.74763226 -94.30422346 241.75797352 -82.2391119 241.7624321 C-71.88277248 241.76640772 -61.52644593 241.77891011 -51.17011571 241.79277897 C-47.8330604 241.79688334 -44.49600555 241.79980623 -41.1589489 241.80257416 C-35.92315604 241.80745771 -30.68739907 241.81764512 -25.45162392 241.83201218 C-23.52545877 241.83654522 -21.59928879 241.83937621 -19.67311859 241.84041977 C-17.05307439 241.84215823 -14.4331208 241.85002192 -11.81309509 241.85955811 C-11.04277748 241.85869162 -10.27245986 241.85782514 -9.47879928 241.8569324 C-4.22841578 241.88579211 -4.22841578 241.88579211 -2 243 C-1.18565857 240.14839609 -0.88118758 237.63373869 -0.90234375 234.671875 C-0.90556641 233.87265625 -0.90878906 233.0734375 -0.91210938 232.25 C-0.92048828 231.425 -0.92886719 230.6 -0.9375 229.75 C-0.94426758 228.48929687 -0.94426758 228.48929687 -0.95117188 227.203125 C-0.96292039 225.13538599 -0.98085478 223.06768376 -1 221 C-1.33151345 221.48686531 -1.66302691 221.97373062 -2.00458622 222.47534943 C-5.05318206 224.80471261 -8.24146859 224.42001716 -11.92662048 224.39440918 C-12.74307197 224.40050028 -13.55952345 224.40659139 -14.40071589 224.41286707 C-17.14610877 224.42956279 -19.89104118 224.42471197 -22.63647461 224.41992188 C-24.60085027 224.42725838 -26.5652216 224.43584338 -28.52958679 224.44558716 C-33.87252052 224.46785557 -39.21530027 224.47073119 -44.55827403 224.46883965 C-49.0142551 224.46872019 -53.47020324 224.47727396 -57.92617518 224.48561716 C-68.43607584 224.50487031 -78.94589707 224.50772804 -89.45581055 224.50097656 C-100.30828107 224.49433349 -111.1604119 224.51720661 -122.01281351 224.55429029 C-131.32158433 224.58494838 -140.63024567 224.59635157 -149.93906599 224.59245348 C-155.5026783 224.59038201 -161.06602634 224.5959266 -166.62959099 224.62034607 C-171.86063144 224.64254646 -177.09111814 224.64079132 -182.32216072 224.62041855 C-184.2442683 224.61699662 -186.16641268 224.62214817 -188.08847046 224.63640213 C-190.70843153 224.65449412 -193.32649386 224.64192188 -195.94639587 224.62145996 C-196.71088781 224.63397781 -197.47537974 224.64649566 -198.2630381 224.65939283 C-202.06979922 224.59544784 -203.68094383 224.29965209 -206.49944401 221.652565 C-208 219 -208 219 -208.0625 215.9375 C-206.70244176 212.17733899 -205.37500414 211.12585191 -202 209 C-199.19659855 208.61468429 -196.78981825 208.45853365 -193.99145508 208.49206543 C-193.19033452 208.48582547 -192.38921396 208.4795855 -191.56381702 208.47315645 C-188.88208816 208.45721436 -186.2012667 208.46983517 -183.51953125 208.48242188 C-181.59589101 208.47700129 -179.67225492 208.46987899 -177.74862671 208.46118164 C-172.52550972 208.44293785 -167.30270858 208.45002025 -162.07958603 208.46269798 C-156.61530451 208.47282013 -151.15105015 208.46343448 -145.68676758 208.45715332 C-136.51020448 208.44987464 -127.33377012 208.45947046 -118.15722656 208.47851562 C-107.54561324 208.50028474 -96.93430732 208.49323352 -86.32270145 208.47121 C-77.21429086 208.45306234 -68.10597284 208.4504946 -58.99755001 208.46096468 C-53.55639036 208.46720307 -48.11537524 208.46802567 -42.67422485 208.45481873 C-37.55892155 208.44327013 -32.44401485 208.45126799 -27.32875443 208.47439575 C-25.45061527 208.47968812 -23.57244279 208.47816006 -21.69431686 208.46934509 C-19.13194119 208.45842675 -16.57083925 208.47210761 -14.00854492 208.49206543 C-13.26389386 208.48314254 -12.5192428 208.47421966 -11.75202656 208.46502638 C-6.32382864 208.54713203 -5.64366808 209.28506554 -1 213 C-1 205.08 -1 197.16 -1 189 C-1.99 189.99 -2.98 190.98 -4 192 C-6.71770369 192.29906541 -9.20749688 192.41330426 -11.92662048 192.39440918 C-12.74307197 192.40050028 -13.55952345 192.40659139 -14.40071589 192.41286707 C-17.14610877 192.42956279 -19.89104118 192.42471197 -22.63647461 192.41992188 C-24.60085027 192.42725838 -26.5652216 192.43584338 -28.52958679 192.44558716 C-33.87252052 192.46785557 -39.21530027 192.47073119 -44.55827403 192.46883965 C-49.0142551 192.46872019 -53.47020324 192.47727396 -57.92617518 192.48561716 C-68.43607584 192.50487031 -78.94589707 192.50772804 -89.45581055 192.50097656 C-100.30828107 192.49433349 -111.1604119 192.51720661 -122.01281351 192.55429029 C-131.32158433 192.58494838 -140.63024567 192.59635157 -149.93906599 192.59245348 C-155.5026783 192.59038201 -161.06602634 192.5959266 -166.62959099 192.62034607 C-171.86063144 192.64254646 -177.09111814 192.64079132 -182.32216072 192.62041855 C-184.2442683 192.61699662 -186.16641268 192.62214817 -188.08847046 192.63640213 C-190.70843153 192.65449412 -193.32649386 192.64192188 -195.94639587 192.62145996 C-196.71088781 192.63397781 -197.47537974 192.64649566 -198.2630381 192.65939283 C-202.06979922 192.59544784 -203.68094383 192.29965209 -206.49944401 189.652565 C-208 187 -208 187 -208.0625 183.9375 C-206.70244176 180.17733899 -205.37500414 179.12585191 -202 177 C-199.19659855 176.61468429 -196.78981825 176.45853365 -193.99145508 176.49206543 C-193.19033452 176.48582547 -192.38921396 176.4795855 -191.56381702 176.47315645 C-188.88208816 176.45721436 -186.2012667 176.46983517 -183.51953125 176.48242188 C-181.59589101 176.47700129 -179.67225492 176.46987899 -177.74862671 176.46118164 C-172.52550972 176.44293785 -167.30270858 176.45002025 -162.07958603 176.46269798 C-156.61530451 176.47282013 -151.15105015 176.46343448 -145.68676758 176.45715332 C-136.51020448 176.44987464 -127.33377012 176.45947046 -118.15722656 176.47851562 C-107.54561324 176.50028474 -96.93430732 176.49323352 -86.32270145 176.47121 C-77.21429086 176.45306234 -68.10597284 176.4504946 -58.99755001 176.46096468 C-53.55639036 176.46720307 -48.11537524 176.46802567 -42.67422485 176.45481873 C-37.55892155 176.44327013 -32.44401485 176.45126799 -27.32875443 176.47439575 C-25.45061527 176.47968812 -23.57244279 176.47816006 -21.69431686 176.46934509 C-19.13194119 176.45842675 -16.57083925 176.47210761 -14.00854492 176.49206543 C-13.26389386 176.48314254 -12.5192428 176.47421966 -11.75202656 176.46502638 C-6.32382864 176.54713203 -5.64366808 177.28506554 -1 181 C-1 173.08 -1 165.16 -1 157 C-2.32 157.99 -3.64 158.98 -5 160 C-7.74574998 160.29310702 -10.26389063 160.413655 -13.00891113 160.39440918 C-13.82213349 160.40050028 -14.63535584 160.40659139 -15.4732213 160.41286707 C-18.20169 160.42953331 -20.92969388 160.42471616 -23.65820312 160.41992188 C-25.61287421 160.42726002 -27.56754095 160.4358455 -29.52220154 160.44558716 C-34.83408557 160.46783655 -40.14581464 160.47073219 -45.45773888 160.46883965 C-49.8889169 160.46872012 -54.32006187 160.47727663 -58.75123072 160.48561716 C-69.20217745 160.50486289 -79.6530443 160.50773049 -90.10400391 160.50097656 C-100.89457996 160.4943317 -111.68481452 160.51721548 -122.47532129 160.55429029 C-131.73315739 160.58494782 -140.99088341 160.5963517 -150.24876928 160.59245348 C-155.78106815 160.59038222 -161.31310125 160.59592364 -166.84535217 160.62034607 C-172.04603824 160.64254596 -177.24616734 160.64079177 -182.44685555 160.62041855 C-184.3576761 160.61699671 -186.26853367 160.62214782 -188.17930412 160.63640213 C-190.78388877 160.65449475 -193.38656361 160.64192158 -195.99108887 160.62145996 C-196.75100773 160.63397781 -197.5109266 160.64649566 -198.29387331 160.65939283 C-202.10945836 160.59492351 -203.6760862 160.31303398 -206.4654007 157.61740875 C-208.21842323 154.62745788 -208.76177422 153.38566319 -208 150 C-205.25777756 146.46875844 -203.78543063 145.13377313 -199.32210541 144.37358761 C-197.86613437 144.34749309 -196.40951406 144.3487887 -194.95349121 144.37181091 C-194.1482871 144.36471653 -193.34308299 144.35762214 -192.51347876 144.35031277 C-189.81774377 144.33272289 -187.12344877 144.35084191 -184.42773438 144.36889648 C-182.49424076 144.36375803 -180.56075182 144.35647732 -178.62727356 144.34721375 C-173.37722529 144.32868215 -168.12768416 144.34164956 -162.87765694 144.36130404 C-157.38535079 144.37767724 -151.8930771 144.3688795 -146.40075684 144.36378479 C-137.17708221 144.35926236 -127.95361028 144.37514305 -118.72998047 144.40307617 C-108.06382731 144.43512866 -97.39803976 144.43511277 -86.73186064 144.4178614 C-76.47437674 144.40200165 -66.21702697 144.40872635 -55.95954895 144.42579842 C-51.59280328 144.43267383 -47.22616496 144.43163141 -42.85942078 144.42425346 C-37.71783665 144.41659647 -32.57666896 144.4286978 -27.43515587 144.45610237 C-25.54734725 144.46299341 -23.65949978 144.4630765 -21.77169228 144.45588684 C-19.19616523 144.44720777 -16.62192791 144.46312126 -14.04650879 144.4853363 C-13.29796678 144.47709554 -12.54942477 144.46885477 -11.77819967 144.46036428 C-6.33988826 144.54704832 -5.64875986 145.28099211 -1 149 C-1 141.08 -1 133.16 -1 125 C-2.98 126.485 -2.98 126.485 -5 128 C-7.74574998 128.29310702 -10.26389063 128.413655 -13.00891113 128.39440918 C-13.82213349 128.40050028 -14.63535584 128.40659139 -15.4732213 128.41286707 C-18.20169 128.42953331 -20.92969388 128.42471616 -23.65820312 128.41992188 C-25.61287421 128.42726002 -27.56754095 128.4358455 -29.52220154 128.44558716 C-34.83408557 128.46783655 -40.14581464 128.47073219 -45.45773888 128.46883965 C-49.8889169 128.46872012 -54.32006187 128.47727663 -58.75123072 128.48561716 C-69.20217745 128.50486289 -79.6530443 128.50773049 -90.10400391 128.50097656 C-100.89457996 128.4943317 -111.68481452 128.51721548 -122.47532129 128.55429029 C-131.73315739 128.58494782 -140.99088341 128.5963517 -150.24876928 128.59245348 C-155.78106815 128.59038222 -161.31310125 128.59592364 -166.84535217 128.62034607 C-172.04603824 128.64254596 -177.24616734 128.64079177 -182.44685555 128.62041855 C-184.3576761 128.61699671 -186.26853367 128.62214782 -188.17930412 128.63640213 C-190.78388877 128.65449475 -193.38656361 128.64192158 -195.99108887 128.62145996 C-196.75100773 128.63397781 -197.5109266 128.64649566 -198.29387331 128.65939283 C-202.10945836 128.59492351 -203.6760862 128.31303398 -206.4654007 125.61740875 C-208.21842323 122.62745788 -208.76177422 121.38566319 -208 118 C-205.25777756 114.46875844 -203.78543063 113.13377313 -199.32210541 112.37358761 C-197.86613437 112.34749309 -196.40951406 112.3487887 -194.95349121 112.37181091 C-193.74568505 112.36116933 -193.74568505 112.36116933 -192.51347876 112.35031277 C-189.81774377 112.33272289 -187.12344877 112.35084191 -184.42773438 112.36889648 C-182.49424076 112.36375803 -180.56075182 112.35647732 -178.62727356 112.34721375 C-173.37722529 112.32868215 -168.12768416 112.34164956 -162.87765694 112.36130404 C-157.38535079 112.37767724 -151.8930771 112.3688795 -146.40075684 112.36378479 C-137.17708221 112.35926236 -127.95361028 112.37514305 -118.72998047 112.40307617 C-108.06382731 112.43512866 -97.39803976 112.43511277 -86.73186064 112.4178614 C-76.47437674 112.40200165 -66.21702697 112.40872635 -55.95954895 112.42579842 C-51.59280328 112.43267383 -47.22616496 112.43163141 -42.85942078 112.42425346 C-37.71783665 112.41659647 -32.57666896 112.4286978 -27.43515587 112.45610237 C-25.54734725 112.46299341 -23.65949978 112.4630765 -21.77169228 112.45588684 C-19.19616523 112.44720777 -16.62192791 112.46312126 -14.04650879 112.4853363 C-13.29796678 112.47709554 -12.54942477 112.46885477 -11.77819967 112.46036428 C-6.33988826 112.54704832 -5.64875986 113.28099211 -1 117 C-1 109.08 -1 101.16 -1 93 C-2.98 94.485 -2.98 94.485 -5 96 C-7.73126786 96.29306446 -10.23372359 96.41366906 -12.96421814 96.39440918 C-14.176868 96.40354584 -14.176868 96.40354584 -15.41401583 96.41286707 C-18.12633187 96.42953279 -20.83818029 96.42471622 -23.55053711 96.41992188 C-25.49373361 96.42726011 -27.43692575 96.43584562 -29.38011169 96.44558716 C-34.66107235 96.46783709 -39.94187713 96.47073212 -45.22287822 96.46883965 C-49.62910877 96.46872011 -54.0353061 96.47727723 -58.44152743 96.48561716 C-68.8349828 96.50486356 -79.22835786 96.50773045 -89.62182617 96.50097656 C-100.34989909 96.49433364 -111.07762837 96.51720753 -121.80563158 96.55429029 C-131.01167917 96.58495952 -140.21761606 96.59635037 -149.42371374 96.59245348 C-154.92418707 96.59038321 -160.424393 96.59590825 -165.92481804 96.62034607 C-171.09678098 96.64256485 -176.2681841 96.64077587 -181.44014931 96.62041855 C-183.33926195 96.61699994 -185.23841193 96.62213408 -187.13747406 96.63640213 C-189.72857263 96.65452767 -192.31775843 96.64189679 -194.90879822 96.62145996 C-195.66191329 96.63397781 -196.41502837 96.64649566 -197.19096512 96.65939283 C-201.14458962 96.59244816 -202.84331513 96.12583809 -205.96663761 93.61740875 C-208 91 -208 91 -208.625 88.5 C-207.6971817 84.78872681 -205.96168319 83.38009596 -203 81 C-200.11500013 80.51338383 -197.82474805 80.33456428 -194.94676208 80.38526917 C-194.14085241 80.37958591 -193.33494273 80.37390265 -192.50461155 80.36804718 C-189.80650269 80.35513712 -187.10989201 80.37793902 -184.41186523 80.40063477 C-182.47675258 80.39877082 -180.54164097 80.39473444 -178.60653687 80.38868713 C-173.35239412 80.37870375 -168.09878993 80.39989675 -162.84472537 80.42716718 C-157.34929861 80.4509793 -151.85388286 80.44805209 -146.3584137 80.44847107 C-137.13053253 80.45310049 -127.90285756 80.47675247 -118.67504883 80.51293945 C-108.00100022 80.55468603 -97.3271373 80.57225498 -86.65301174 80.5755592 C-75.29572252 80.57915689 -63.93850028 80.59802895 -52.58123899 80.62267947 C-49.30538929 80.62891235 -46.02954469 80.63254598 -42.75369072 80.63571358 C-37.60974699 80.64160851 -32.46593634 80.65790595 -27.32204819 80.68231773 C-25.43220485 80.68976659 -23.54234476 80.69383023 -21.6524868 80.69429779 C-19.07693812 80.6955529 -16.50174191 80.70907775 -13.92625427 80.72584534 C-13.17479942 80.72343025 -12.42334457 80.72101517 -11.64911836 80.7185269 C-7.97351734 80.75610458 -5.06105294 80.83599341 -2 83 C-1.67 83.66 -1.34 84.32 -1 85 C-1 73.45 -1 61.9 -1 50 C-1.66 50 -2.32 50 -3 50 C-3.165 50.680625 -3.33 51.36125 -3.5 52.0625 C-6.03741046 57.03159549 -10.40753261 60.72065534 -15.3984375 63.18359375 C-21.40938952 65.06991353 -28.50301418 65.06434335 -34.3125 62.5 C-39.64548875 59.36032813 -43.59168654 54.69416489 -46.4375 49.25 C-47.71939889 41.84347309 -48.26293863 34.41033797 -44.328125 27.74609375 C-39.88816204 21.90884833 -34.04653261 17.76720935 -26.6875 16.6484375 C-19.84864092 16.24238024 -14.61178605 18.12980272 -9 22 C-5.39779619 25.33427129 -3.19769223 28.60461554 -1 33 C-0.67 22.11 -0.34 11.22 0 0 Z " fill="#5D4F5D" transform="translate(360,15)"/>
<path d="M0 0 C0.33 0.66 0.66 1.32 1 2 C9.415 1.505 9.415 1.505 18 1 C18.99 3.31 19.98 5.62 21 8 C24.73439994 9.86719997 29.39894767 9.18270645 33.51953125 9.23046875 C37 10 37 10 42 16 C42 38.11 42 60.22 42 83 C-27.3 83 -96.6 83 -168 83 C-168 16 -168 16 -163 10 C-159.92838955 9.25447559 -159.92838955 9.25447559 -156.42735291 9.26069641 C-155.78070177 9.25360301 -155.13405064 9.2465096 -154.46780401 9.23920125 C-152.30825763 9.2226757 -150.15136564 9.24874018 -147.99194336 9.2746582 C-146.44105779 9.27139827 -144.89017588 9.26546096 -143.33930969 9.25704956 C-140.00349129 9.24465031 -136.66842856 9.25107368 -133.33265495 9.27211952 C-128.05920042 9.30518581 -122.78633795 9.29588399 -117.51283264 9.2808075 C-109.17365633 9.26192931 -100.8347845 9.27095346 -92.49562222 9.29212874 C-77.55714455 9.32982206 -62.61870888 9.33401375 -47.68020922 9.30727643 C-42.43681384 9.29917816 -37.19378593 9.30780459 -31.95043361 9.32983935 C-28.69106385 9.34091323 -25.43177458 9.33994215 -22.17239189 9.3359642 C-20.65986444 9.33675155 -19.14732955 9.34272647 -17.63484573 9.35424232 C-15.57152408 9.36932229 -13.50900723 9.3660721 -11.44566345 9.35835266 C-9.71321585 9.36312858 -9.71321585 9.36312858 -7.94576931 9.36800098 C-4.67191418 8.9590138 -3.29530429 8.34109904 -1 6 C-0.19053578 2.89802603 -0.19053578 2.89802603 0 0 Z " fill="#DAD7DA" transform="translate(319,342)"/>
<path d="M0 0 C6.84602607 0.82638421 10.77145181 2.17042045 15.14445591 7.72280788 C18.32172698 13.56794673 17.54679363 20.34545634 17.50120544 26.81007385 C17.50510011 28.3338957 17.51074188 29.8577139 17.51797634 31.38152355 C17.53272522 35.56143483 17.52255325 39.74096916 17.50823963 43.92086828 C17.49713057 48.43148673 17.50907218 52.94205229 17.51808167 57.45266724 C17.53201624 66.28573226 17.52445649 75.11865434 17.50940608 83.95171256 C17.49254896 94.23641995 17.49575584 104.52109171 17.49950016 114.80580866 C17.50537907 133.15466631 17.49120557 151.50345535 17.46655273 169.85229492 C17.44262838 187.66091483 17.43554981 205.46944308 17.44604492 223.27807617 C17.45745129 242.66773206 17.45938793 262.05734555 17.44494683 281.44700092 C17.44342097 283.51404917 17.44190062 285.58109742 17.44038582 287.64814568 C17.439628 288.66519318 17.43887019 289.68224068 17.43808941 290.7301078 C17.43334469 297.90083859 17.43519933 305.07155046 17.43945122 312.24228096 C17.44437517 320.97896853 17.43840552 329.71556938 17.41855692 338.45223708 C17.4086778 342.91068236 17.40358651 347.36899554 17.41144943 351.82744789 C17.41849832 355.9077657 17.41172027 359.98781677 17.3938458 364.06809937 C17.38979618 365.54510182 17.3908098 367.02212852 17.39736467 368.49912197 C17.40550793 370.50555832 17.39341337 372.51204633 17.38031673 374.51845646 C17.3792876 375.63331804 17.37825848 376.74817963 17.37719816 377.8968249 C16.74088741 383.13169581 14.5676651 387.00306195 10.5 390.3125 C9.9121875 390.80363281 9.324375 391.29476563 8.71875 391.80078125 C5.64179276 393.94765824 2.96104184 394.12077097 -0.66796875 394.09765625 C-1.56064453 394.09443359 -2.45332031 394.09121094 -3.37304688 394.08789062 C-4.30181641 394.07951172 -5.23058594 394.07113281 -6.1875 394.0625 C-7.12787109 394.05798828 -8.06824219 394.05347656 -9.03710938 394.04882812 C-11.35810008 394.03704645 -13.67905807 394.01911114 -16 394 C-16 388.39 -16 382.78 -16 377 C-14.5975 376.608125 -13.195 376.21625 -11.75 375.8125 C-7.47614304 374.39011746 -5.39822585 372.93309039 -3 369 C-2.64229271 368.46690688 -2.28458542 367.93381376 -1.91603851 367.38456631 C-0.52063264 363.75214499 -0.74418321 360.12052581 -0.78088379 356.28443909 C-0.78163131 354.94639083 -0.78163131 354.94639083 -0.78239393 353.58131129 C-0.7863447 350.576976 -0.80448944 347.57288643 -0.82226562 344.56860352 C-0.82749145 342.40860388 -0.83172794 340.24860165 -0.83505249 338.08859825 C-0.84390991 333.39995889 -0.85865585 328.71138793 -0.87782288 324.02277946 C-0.92416212 312.49402481 -0.93766423 300.96520146 -0.9546957 289.43637335 C-0.95876941 286.72129005 -0.96335365 284.00620832 -0.96837711 281.29112661 C-1.024639 250.86100271 -0.92731154 220.43205564 -0.79874039 190.00222349 C-0.78117996 185.84020508 -0.76422828 181.67818433 -0.74740601 177.51616287 C-0.68830569 162.91689715 -0.62697678 148.31764216 -0.56368983 133.718394 C-0.51708661 122.96518062 -0.47166463 112.21196286 -0.42724609 101.45874023 C-0.4242591 100.7357051 -0.4212721 100.01266997 -0.41819459 99.26772469 C-0.40319449 95.63532049 -0.38821367 92.00291621 -0.37324238 88.37051189 C-0.25180893 58.9136618 -0.12708472 29.45682627 0 0 Z " fill="#D8D5D8" transform="translate(392,31)"/>
<path d="M0 0 C0.33 0 0.66 0 1 0 C1 16.5 1 33 1 50 C34 49.67 67 49.34 101 49 C100.01 48.01 99.02 47.02 98 46 C97.59594727 42.76953125 97.59594727 42.76953125 97.56640625 38.8125 C97.5611644 38.11358643 97.55592255 37.41467285 97.55052185 36.69458008 C97.54410553 35.21860074 97.54543369 33.74257025 97.55395508 32.26660156 C97.56247158 30.007539 97.53369462 27.75100055 97.50195312 25.4921875 C97.50034113 24.05729242 97.50091861 22.62239287 97.50390625 21.1875 C97.50205322 19.88167969 97.5002002 18.57585937 97.49829102 17.23046875 C98 14 98 14 99.84350586 12.078125 C102.80755243 10.5962695 104.72850394 10.52290683 108 11 C111.06820306 13.25608275 111.91471046 14.44713283 112.50170898 18.25219727 C112.49985596 19.51088623 112.49800293 20.7695752 112.49609375 22.06640625 C112.49754898 22.74170883 112.49900421 23.41701141 112.50050354 24.11277771 C112.4988482 25.53575978 112.48732752 26.95876042 112.46655273 28.3815918 C112.43754391 30.55920343 112.44595884 32.73438676 112.45898438 34.91210938 C112.45274795 36.29688682 112.44435774 37.6816566 112.43359375 39.06640625 C112.42384521 40.32396729 112.41409668 41.58152832 112.40405273 42.87719727 C112 46 112 46 109 49 C158.5 49.495 158.5 49.495 209 50 C209 33.5 209 17 209 0 C209.33 0 209.66 0 210 0 C210 22.11 210 44.22 210 67 C140.7 67 71.4 67 0 67 C0 44.89 0 22.78 0 0 Z " fill="#C6C2C6" transform="translate(151,358)"/>
<path d="M0 0 C0.80590968 -0.00568326 1.61181935 -0.01136651 2.44215053 -0.01722199 C5.14025939 -0.03013204 7.83687007 -0.00733014 10.53489685 0.0153656 C12.47000951 0.01350166 14.40512111 0.00946527 16.34022522 0.00341797 C21.59436797 -0.00656542 26.84797215 0.01462759 32.10203671 0.04189801 C37.59746348 0.06571014 43.09287923 0.06278292 48.58834839 0.0632019 C57.81622956 0.06783133 67.04390452 0.09148331 76.27171326 0.12767029 C86.94576187 0.16941687 97.61962478 0.18698581 108.29375035 0.19029003 C119.65103956 0.19388772 131.0082618 0.21275979 142.3655231 0.23741031 C145.6413728 0.24364318 148.9172174 0.24727682 152.19307137 0.25044441 C157.3370151 0.25633934 162.48082575 0.27263678 167.6247139 0.29704857 C169.51455723 0.30449742 171.40441733 0.30856107 173.29427528 0.30902863 C175.86982397 0.31028374 178.44502018 0.32380859 181.02050781 0.34057617 C181.77196266 0.33816109 182.52341751 0.335746 183.29764372 0.33325773 C186.97324474 0.37083541 189.88570915 0.45072425 192.94676208 2.61473083 C194.50136513 5.72393693 194.67396902 9.24556111 193.94676208 12.61473083 C191.46275104 15.21213836 189.99158478 15.60992137 186.37629795 15.99784088 C184.91183292 16.01693571 183.44709702 16.01947042 181.98254395 16.00914001 C180.76989409 16.01827667 180.76989409 16.01827667 179.53274626 16.0275979 C176.82043021 16.04426363 174.10858179 16.03944706 171.39622498 16.03465271 C169.45302847 16.04199095 167.50983633 16.05057645 165.56665039 16.06031799 C160.28568974 16.08256792 155.00488496 16.08546295 149.72388387 16.08357048 C145.31765331 16.08345095 140.91145599 16.09200806 136.50523466 16.100348 C126.11177928 16.1195944 115.71840423 16.12246129 105.32493591 16.1157074 C94.59686299 16.10906448 83.86913372 16.13193836 73.14113051 16.16902113 C63.93508291 16.19969035 54.72914602 16.2110812 45.52304834 16.20718431 C40.02257502 16.20511404 34.52236908 16.21063909 29.02194405 16.2350769 C23.84998111 16.25729569 18.67857799 16.25550671 13.50661278 16.23514938 C11.60750013 16.23173077 9.70835015 16.23686492 7.80928802 16.25113297 C5.21818946 16.26925851 2.62900366 16.25662762 0.03796387 16.2361908 C-0.71515121 16.24870864 -1.46826629 16.26122649 -2.24420303 16.27412367 C-6.19782754 16.207179 -7.89655304 15.74056892 -11.01987553 13.23213959 C-13.05323792 10.61473083 -13.05323792 10.61473083 -13.67823792 8.11473083 C-11.90510489 1.02219875 -6.46754016 -0.11394631 0 0 Z " fill="#010101" transform="translate(165.05323791503906,95.38526916503906)"/>
<path d="M0 0 C0.80520411 -0.00709439 1.61040822 -0.01418877 2.44001245 -0.02149814 C5.13574744 -0.03908802 7.83004244 -0.020969 10.52575684 -0.00291443 C12.45925046 -0.00805288 14.3927394 -0.01533359 16.32621765 -0.02459717 C21.57626592 -0.04312876 26.82580705 -0.03016135 32.07583427 -0.01050687 C37.56814042 0.00586633 43.06041411 -0.00293141 48.55273438 -0.00802612 C57.776409 -0.01254856 66.99988093 0.00333214 76.22351074 0.03126526 C86.8896639 0.06331775 97.55545146 0.06330186 108.22163057 0.04605049 C118.47911447 0.03019074 128.73646424 0.03691544 138.99394226 0.0539875 C143.36068794 0.06086291 147.72732625 0.05982049 152.09407043 0.05244255 C157.23565456 0.04478556 162.37682225 0.05688689 167.51833534 0.08429146 C169.40614396 0.0911825 171.29399143 0.09126558 173.18179893 0.08407593 C175.75732598 0.07539686 178.3315633 0.09131034 180.90698242 0.11352539 C181.65552443 0.10528462 182.40406644 0.09704386 183.17529154 0.08855337 C188.02866183 0.16591373 190.5649164 1.14205223 193.95349121 4.62818909 C194.87835087 7.62105791 194.41210064 9.41792309 193.95349121 12.62818909 C191.53399961 15.34226389 190.0059943 15.62258442 186.36461639 16.01129913 C184.8913899 16.03039547 183.41789412 16.03292793 181.94458008 16.02259827 C180.72474654 16.03173492 180.72474654 16.03173492 179.48026991 16.04105616 C176.75180121 16.05772239 174.02379733 16.05290525 171.29528809 16.04811096 C169.340617 16.05544911 167.38595026 16.06403459 165.43128967 16.07377625 C160.11940564 16.09602564 154.80767657 16.09892128 149.49575233 16.09702873 C145.06457431 16.09690921 140.63342934 16.10546571 136.20226049 16.11380625 C125.75131376 16.13305197 115.30044691 16.13591958 104.8494873 16.12916565 C94.05891126 16.12252079 83.26867669 16.14540457 72.47816992 16.18247938 C63.22033382 16.21313691 53.9626078 16.22454079 44.70472193 16.22064257 C39.17242306 16.2185713 33.64038996 16.22411272 28.10813904 16.24853516 C22.90745297 16.27073505 17.70732387 16.26898086 12.50663567 16.24860764 C10.59581511 16.2451858 8.68495754 16.2503369 6.77418709 16.26459122 C4.16960244 16.28268384 1.5669276 16.27011067 -1.03759766 16.24964905 C-1.79751652 16.2621669 -2.55743539 16.27468474 -3.3403821 16.28758192 C-7.15596715 16.22311259 -8.72259499 15.94122307 -11.51190948 13.24559784 C-13.26493202 10.25564697 -13.80828301 9.01385227 -13.04650879 5.62818909 C-9.19136631 0.66380723 -6.01812852 -0.0951569 0 0 Z " fill="#020202" transform="translate(165.0465087890625,159.37181091308594)"/>
<path d="M0 0 C0.80520411 -0.00709439 1.61040822 -0.01418877 2.44001245 -0.02149814 C5.13574744 -0.03908802 7.83004244 -0.020969 10.52575684 -0.00291443 C12.45925046 -0.00805288 14.3927394 -0.01533359 16.32621765 -0.02459717 C21.57626592 -0.04312876 26.82580705 -0.03016135 32.07583427 -0.01050687 C37.56814042 0.00586633 43.06041411 -0.00293141 48.55273438 -0.00802612 C57.776409 -0.01254856 66.99988093 0.00333214 76.22351074 0.03126526 C86.8896639 0.06331775 97.55545146 0.06330186 108.22163057 0.04605049 C118.47911447 0.03019074 128.73646424 0.03691544 138.99394226 0.0539875 C143.36068794 0.06086291 147.72732625 0.05982049 152.09407043 0.05244255 C157.23565456 0.04478556 162.37682225 0.05688689 167.51833534 0.08429146 C169.40614396 0.0911825 171.29399143 0.09126558 173.18179893 0.08407593 C175.75732598 0.07539686 178.3315633 0.09131034 180.90698242 0.11352539 C181.65552443 0.10528462 182.40406644 0.09704386 183.17529154 0.08855337 C188.02866183 0.16591373 190.5649164 1.14205223 193.95349121 4.62818909 C194.87835087 7.62105791 194.41210064 9.41792309 193.95349121 12.62818909 C191.53399961 15.34226389 190.0059943 15.62258442 186.36461639 16.01129913 C184.8913899 16.03039547 183.41789412 16.03292793 181.94458008 16.02259827 C180.72474654 16.03173492 180.72474654 16.03173492 179.48026991 16.04105616 C176.75180121 16.05772239 174.02379733 16.05290525 171.29528809 16.04811096 C169.340617 16.05544911 167.38595026 16.06403459 165.43128967 16.07377625 C160.11940564 16.09602564 154.80767657 16.09892128 149.49575233 16.09702873 C145.06457431 16.09690921 140.63342934 16.10546571 136.20226049 16.11380625 C125.75131376 16.13305197 115.30044691 16.13591958 104.8494873 16.12916565 C94.05891126 16.12252079 83.26867669 16.14540457 72.47816992 16.18247938 C63.22033382 16.21313691 53.9626078 16.22454079 44.70472193 16.22064257 C39.17242306 16.2185713 33.64038996 16.22411272 28.10813904 16.24853516 C22.90745297 16.27073505 17.70732387 16.26898086 12.50663567 16.24860764 C10.59581511 16.2451858 8.68495754 16.2503369 6.77418709 16.26459122 C4.16960244 16.28268384 1.5669276 16.27011067 -1.03759766 16.24964905 C-1.79751652 16.2621669 -2.55743539 16.27468474 -3.3403821 16.28758192 C-7.15596715 16.22311259 -8.72259499 15.94122307 -11.51190948 13.24559784 C-13.26493202 10.25564697 -13.80828301 9.01385227 -13.04650879 5.62818909 C-9.19136631 0.66380723 -6.01812852 -0.0951569 0 0 Z " fill="#020102" transform="translate(165.0465087890625,127.37181091308594)"/>
<path d="M0 0 C1.20168084 -0.00935994 1.20168084 -0.00935994 2.42763805 -0.01890898 C5.10936692 -0.03485107 7.79018838 -0.02223026 10.47192383 -0.00964355 C12.39556407 -0.01506414 14.31920015 -0.02218644 16.24282837 -0.03088379 C21.46594536 -0.04912758 26.6887465 -0.04204518 31.91186905 -0.02936745 C37.37615057 -0.0192453 42.84040492 -0.02863095 48.3046875 -0.03491211 C57.4812506 -0.04219079 66.65768496 -0.03259497 75.83422852 -0.0135498 C86.44584184 0.00821931 97.05714775 0.0011681 107.66875362 -0.02085543 C116.77716422 -0.03900309 125.88548224 -0.04157083 134.99390507 -0.03110075 C140.43506472 -0.02486235 145.87607984 -0.02403976 151.31723022 -0.0372467 C156.43253353 -0.0487953 161.54744023 -0.04079744 166.66270065 -0.01766968 C168.5408398 -0.01237731 170.41901229 -0.01390537 172.29713821 -0.02272034 C174.85951389 -0.03363868 177.42061582 -0.01995782 179.98291016 0 C181.09988675 -0.01338433 181.09988675 -0.01338433 182.23942852 -0.02703905 C187.0828528 0.04622145 189.61077246 1.02951867 192.99145508 4.50793457 C193.85062963 7.45286839 193.39001717 9.36925806 192.99145508 12.50793457 C191.95561886 14.22937775 191.95561886 14.22937775 189.99145508 15.50793457 C187.27375138 15.80699998 184.7839582 15.92123883 182.06483459 15.90234375 C181.24838311 15.90843485 180.43193163 15.91452596 179.59073919 15.92080164 C176.84534631 15.93749736 174.10041389 15.93264654 171.35498047 15.92785645 C169.39060481 15.93519296 167.42623348 15.94377795 165.46186829 15.95352173 C160.11893456 15.97579014 154.77615481 15.97866576 149.43318105 15.97677422 C144.97719998 15.97665476 140.52125184 15.98520853 136.0652799 15.99355173 C125.55537923 16.01280488 115.045558 16.01566261 104.53564453 16.00891113 C93.68317401 16.00226806 82.83104318 16.02514118 71.97864157 16.06222486 C62.66987075 16.09288295 53.36120941 16.10428614 44.05238909 16.10038805 C38.48877678 16.09831658 32.92542874 16.10386117 27.36186409 16.12828064 C22.13082364 16.15048103 16.90033693 16.14872589 11.66929436 16.12835312 C9.74718677 16.1249312 7.8250424 16.13008274 5.90298462 16.1443367 C3.28302355 16.16242869 0.66496121 16.14985645 -1.9549408 16.12939453 C-2.71943273 16.14191238 -3.48392466 16.15443023 -4.27158302 16.1673274 C-8.07834414 16.10338241 -9.68948875 15.80758666 -12.50798893 13.16049957 C-14.00854492 10.50793457 -14.00854492 10.50793457 -14.07104492 7.44543457 C-11.61680751 0.66018995 -6.5511001 -0.07849949 0 0 Z " fill="#030303" transform="translate(166.008544921875,223.4920654296875)"/>
<path d="M0 0 C1.20168084 -0.00935994 1.20168084 -0.00935994 2.42763805 -0.01890898 C5.10936692 -0.03485107 7.79018838 -0.02223026 10.47192383 -0.00964355 C12.39556407 -0.01506414 14.31920015 -0.02218644 16.24282837 -0.03088379 C21.46594536 -0.04912758 26.6887465 -0.04204518 31.91186905 -0.02936745 C37.37615057 -0.0192453 42.84040492 -0.02863095 48.3046875 -0.03491211 C57.4812506 -0.04219079 66.65768496 -0.03259497 75.83422852 -0.0135498 C86.44584184 0.00821931 97.05714775 0.0011681 107.66875362 -0.02085543 C116.77716422 -0.03900309 125.88548224 -0.04157083 134.99390507 -0.03110075 C140.43506472 -0.02486235 145.87607984 -0.02403976 151.31723022 -0.0372467 C156.43253353 -0.0487953 161.54744023 -0.04079744 166.66270065 -0.01766968 C168.5408398 -0.01237731 170.41901229 -0.01390537 172.29713821 -0.02272034 C174.85951389 -0.03363868 177.42061582 -0.01995782 179.98291016 0 C181.09988675 -0.01338433 181.09988675 -0.01338433 182.23942852 -0.02703905 C187.0828528 0.04622145 189.61077246 1.02951867 192.99145508 4.50793457 C193.85062963 7.45286839 193.39001717 9.36925806 192.99145508 12.50793457 C191.95561886 14.22937775 191.95561886 14.22937775 189.99145508 15.50793457 C187.27375138 15.80699998 184.7839582 15.92123883 182.06483459 15.90234375 C181.24838311 15.90843485 180.43193163 15.91452596 179.59073919 15.92080164 C176.84534631 15.93749736 174.10041389 15.93264654 171.35498047 15.92785645 C169.39060481 15.93519296 167.42623348 15.94377795 165.46186829 15.95352173 C160.11893456 15.97579014 154.77615481 15.97866576 149.43318105 15.97677422 C144.97719998 15.97665476 140.52125184 15.98520853 136.0652799 15.99355173 C125.55537923 16.01280488 115.045558 16.01566261 104.53564453 16.00891113 C93.68317401 16.00226806 82.83104318 16.02514118 71.97864157 16.06222486 C62.66987075 16.09288295 53.36120941 16.10428614 44.05238909 16.10038805 C38.48877678 16.09831658 32.92542874 16.10386117 27.36186409 16.12828064 C22.13082364 16.15048103 16.90033693 16.14872589 11.66929436 16.12835312 C9.74718677 16.1249312 7.8250424 16.13008274 5.90298462 16.1443367 C3.28302355 16.16242869 0.66496121 16.14985645 -1.9549408 16.12939453 C-2.71943273 16.14191238 -3.48392466 16.15443023 -4.27158302 16.1673274 C-8.07834414 16.10338241 -9.68948875 15.80758666 -12.50798893 13.16049957 C-14.00854492 10.50793457 -14.00854492 10.50793457 -14.07104492 7.44543457 C-11.61680751 0.66018995 -6.5511001 -0.07849949 0 0 Z " fill="#030203" transform="translate(166.008544921875,191.4920654296875)"/>
<path d="M0 0 C0.81645148 -0.0060911 1.63290297 -0.01218221 2.4740954 -0.01845789 C5.21948829 -0.03515361 7.9644207 -0.03030279 10.70985413 -0.0255127 C12.67422978 -0.03284921 14.63860112 -0.0414342 16.60296631 -0.05117798 C21.94590003 -0.07344639 27.28867978 -0.07632201 32.63165355 -0.07443047 C37.08763461 -0.07431101 41.54358276 -0.08286478 45.99955469 -0.09120798 C56.50945536 -0.11046113 67.01927659 -0.11331886 77.52919006 -0.10656738 C88.38166059 -0.09992431 99.23379142 -0.12279743 110.08619303 -0.15988111 C119.39496385 -0.1905392 128.70362518 -0.20194239 138.01244551 -0.1980443 C143.57605782 -0.19597283 149.13940586 -0.20151742 154.7029705 -0.22593689 C159.93401095 -0.24813728 165.16449766 -0.24638214 170.39554024 -0.22600937 C172.31764782 -0.22258745 174.2397922 -0.22773899 176.16184998 -0.24199295 C178.78181105 -0.26008494 181.39987338 -0.2475127 184.01977539 -0.22705078 C184.78426732 -0.23956863 185.54875926 -0.25208648 186.33641762 -0.26498365 C190.14210236 -0.20105674 191.75702287 0.09871112 194.58063602 2.73793793 C196.07337952 5.39440918 196.07337952 5.39440918 196.01087952 8.51940918 C195.00936699 11.59071426 194.68562957 12.58041521 192.07337952 14.39440918 C189.35567582 14.69347459 186.86588263 14.80771344 184.14675903 14.78881836 C183.33030755 14.79490946 182.51385607 14.80100057 181.67266363 14.80727625 C178.92727075 14.82397197 176.18233833 14.81912115 173.43690491 14.81433105 C171.47252925 14.82166756 169.50815792 14.83025256 167.54379272 14.83999634 C162.200859 14.86226475 156.85807925 14.86514037 151.51510549 14.86324883 C147.05912442 14.86312937 142.60317628 14.87168314 138.14720434 14.88002634 C127.63730367 14.89927949 117.12748244 14.90213722 106.61756897 14.89538574 C95.76509845 14.88874267 84.91296762 14.91161579 74.06056601 14.94869947 C64.75179518 14.97935756 55.44313385 14.99076075 46.13431352 14.98686266 C40.57070121 14.98479119 35.00735317 14.99033578 29.44378853 15.01475525 C24.21274808 15.03695564 18.98226137 15.0352005 13.7512188 15.01482773 C11.82911121 15.0114058 9.90696683 15.01655735 7.98490906 15.03081131 C5.36494799 15.0489033 2.74688565 15.03633106 0.12698364 15.01586914 C-0.63750829 15.02838699 -1.40200023 15.04090484 -2.18965858 15.05380201 C-5.99534333 14.9898751 -7.61026384 14.69010724 -10.43387699 12.05088043 C-11.92662048 9.39440918 -11.92662048 9.39440918 -11.86412048 6.26940918 C-9.77361601 -0.14147122 -6.20405597 -0.04311174 0 0 Z " fill="#000000" transform="translate(163.92662048339844,256.6055908203125)"/>
<path d="M0 0 C6.69345039 3.74076662 10.93306058 8.64892289 13.27734375 15.9765625 C14.96046666 22.95943604 13.1043112 28.791218 9.75 34.9375 C5.98881991 39.91827066 1.82698334 43.24391448 -4.25 44.9375 C-11.64926596 45.75509845 -18.19643671 45.59809281 -24.25 40.9375 C-30.69138244 34.94255 -33.26039937 29.87920613 -33.625 21.0625 C-33.48720011 14.51295239 -32.12534735 10.06194923 -27.671875 5.22265625 C-19.58017273 -2.23118661 -10.15749508 -4.62815189 0 0 Z " fill="#020102" transform="translate(346.25,34.0625)"/>
<path d="M0 0 C5.72922543 3.20618021 10.26172771 7.76380025 12.6875 13.9375 C13.51631541 21.7630595 13.80272499 29.5684037 8.6875 35.9375 C4.05799176 40.7989669 -0.29475741 44.4609126 -7.14453125 45.2734375 C-15.03284487 45.376823 -20.49904502 44.62258125 -26.28515625 39.03125 C-32.61721588 32.06208376 -33.96044388 27.11534293 -33.69140625 17.6484375 C-33.02460078 11.11786844 -30.13091011 7.40406425 -25.375 3.125 C-17.17313194 -2.73347718 -9.42960228 -4.30945625 0 0 Z " fill="#020202" transform="translate(282.3125,34.0625)"/>
<path d="M0 0 C0.66554901 -0.00686325 1.33109802 -0.0137265 2.01681519 -0.02079773 C4.21137987 -0.03906141 6.40522932 -0.03522909 8.59985352 -0.02954102 C10.12915784 -0.03410322 11.65846011 -0.03940891 13.1877594 -0.04542542 C16.39137099 -0.05435575 19.59473329 -0.05193463 22.79833984 -0.04199219 C26.8986858 -0.0305052 30.99817021 -0.05070927 35.09840298 -0.07990932 C38.25634708 -0.09827868 41.41408503 -0.09797743 44.57206917 -0.0922718 C46.08350902 -0.09211866 47.59496291 -0.09815718 49.10635185 -0.11056328 C51.22248831 -0.12548576 53.33703734 -0.11478972 55.453125 -0.09765625 C57.25703957 -0.097407 57.25703957 -0.097407 59.09739685 -0.09715271 C62.93933923 0.50575433 64.61035047 1.62187306 67.29125977 4.40405273 C67.85375977 7.90405273 67.85375977 7.90405273 67.29125977 11.40405273 C65.08392232 14.40005818 63.89300998 15.30430567 60.18641663 15.91871643 C58.96683762 15.92491501 57.74725861 15.93111359 56.49072266 15.9375 C55.81542007 15.94611557 55.14011749 15.95473114 54.4443512 15.96360779 C52.21714697 15.98626793 49.99120112 15.97952947 47.76391602 15.97045898 C46.21219001 15.97569496 44.66046719 15.98197135 43.10874939 15.98924255 C39.85799169 15.99964702 36.6076717 15.99508557 33.35693359 15.98046875 C29.19586639 15.96328812 25.03618097 15.98676515 20.87526798 16.02195835 C17.67096345 16.04394589 14.4669888 16.04248763 11.26263237 16.03419304 C9.72886071 16.03337409 8.19506468 16.04022675 6.6613636 16.05496407 C4.51378255 16.07243547 2.36867409 16.05785144 0.22119141 16.03515625 C-0.9991832 16.03419449 -2.2195578 16.03323273 -3.47691345 16.03224182 C-7.63614057 15.2237885 -9.15065279 13.72351006 -11.70874023 10.40405273 C-11.77124023 6.77905273 -11.77124023 6.77905273 -10.70874023 3.40405273 C-7.41315646 0.03128858 -4.58738051 0.02062344 0 0 Z " fill="#010101" transform="translate(163.708740234375,31.595947265625)"/>
<path d="M0 0 C0.66569504 -0.0071553 1.33139008 -0.01431061 2.01725769 -0.02168274 C4.20687538 -0.03852341 6.39443185 -0.0191985 8.58398438 0.00219727 C10.11185881 0.00136812 11.63973316 -0.00109299 13.16760254 -0.00511169 C16.36542703 -0.00796648 19.56254987 0.00669894 22.76025391 0.03417969 C26.85279724 0.06826302 30.94408637 0.06224185 35.03668976 0.04351711 C38.19039302 0.03293249 41.34380601 0.04189799 44.4974823 0.05690193 C46.00611 0.06207354 47.51476814 0.06161433 49.02339172 0.05535698 C51.13474361 0.0498866 53.24431947 0.0703333 55.35546875 0.09765625 C56.55506226 0.10385483 57.75465576 0.11005341 58.99060059 0.11643982 C62.82061897 0.7349176 64.50097953 1.85705968 67.17773438 4.63110352 C67.74023438 8.13110352 67.74023438 8.13110352 67.17773438 11.63110352 C64.97039693 14.62710896 63.77948459 15.53135645 60.07289124 16.14576721 C58.85331223 16.15196579 57.63373322 16.15816437 56.37719727 16.16455078 C55.70189468 16.17316635 55.0265921 16.18178192 54.33082581 16.19065857 C52.10362158 16.21331871 49.87767573 16.20658025 47.65039062 16.19750977 C46.09866462 16.20274574 44.5469418 16.20902213 42.995224 16.21629333 C39.7444663 16.2266978 36.49414631 16.22213635 33.2434082 16.20751953 C29.082341 16.1903389 24.92265558 16.21381593 20.76174259 16.24900913 C17.55743806 16.27099667 14.35346341 16.26953841 11.14910698 16.26124382 C9.61533531 16.26042488 8.08153929 16.26727753 6.54783821 16.28201485 C4.40025716 16.29948625 2.2551487 16.28490222 0.10766602 16.26220703 C-1.11270859 16.26124527 -2.33308319 16.26028351 -3.59043884 16.2592926 C-7.72606191 15.45542734 -9.21603847 13.86955532 -11.82226562 10.63110352 C-12.44726562 8.13110352 -12.44726562 8.13110352 -11.82226562 5.63110352 C-8.11960356 1.0448954 -5.84825325 0.00468878 0 0 Z " fill="#010101" transform="translate(163.822265625,63.368896484375)"/>
<path d="M0 0 C0.33 0 0.66 0 1 0 C1 120.45 1 240.9 1 365 C11.56 365 22.12 365 33 365 C33 370.61 33 376.22 33 382 C29.62413315 382.10831658 26.25176769 382.18746727 22.875 382.25 C21.92367187 382.28351563 20.97234375 382.31703125 19.9921875 382.3515625 C13.11818494 382.44703476 9.40805051 381.31090892 4.35546875 376.40234375 C0.61817352 371.71510057 -0.1250496 368.77127905 -0.12304783 362.86804676 C-0.12503888 361.57670065 -0.12702993 360.28535453 -0.12908131 358.95487672 C-0.12622806 357.51344079 -0.12328246 356.07200503 -0.12025452 354.63056946 C-0.12069033 353.10592878 -0.12156542 351.58128817 -0.12284368 350.05664796 C-0.12508667 345.85623575 -0.12107002 341.6558489 -0.11606562 337.45543993 C-0.11175851 332.929888 -0.11320773 328.40433758 -0.1139679 323.87878418 C-0.11449296 316.03435742 -0.11134794 308.18993897 -0.10573006 300.3455143 C-0.09761276 289.00370765 -0.0949996 277.66190503 -0.09374207 266.3200958 C-0.09155191 247.92001927 -0.0848928 229.51994717 -0.07543945 211.11987305 C-0.0662644 193.24292015 -0.05918402 175.36596845 -0.05493164 157.48901367 C-0.05466892 156.38760047 -0.05440619 155.28618728 -0.05413551 154.15139792 C-0.0528305 148.62608754 -0.05156678 143.10077715 -0.05032361 137.57546675 C-0.03995212 91.71697477 -0.02233479 45.85848761 0 0 Z " fill="#CECCCE" transform="translate(103,43)"/>
<path d="M0 0 C3.04909594 2.24972434 3.9106352 3.4578399 4.53344727 7.23632812 C4.54432373 8.48865234 4.5552002 9.74097656 4.56640625 11.03125 C4.57570412 12.04064636 4.57570412 12.04064636 4.58518982 13.07043457 C4.59227441 14.48916176 4.58913751 15.90797232 4.57641602 17.32666016 C4.56253796 19.49407166 4.59663936 21.65717117 4.63476562 23.82421875 C4.63571683 25.20573022 4.63385791 26.58724708 4.62890625 27.96875 C4.62963135 29.22107422 4.63035645 30.47339844 4.63110352 31.76367188 C4 35 4 35 1.65600586 37.44335938 C-1 39 -1 39 -4.125 38.9375 C-7.17244666 37.94376739 -8.17087375 37.56654351 -10 35 C-10.40405273 31.76953125 -10.40405273 31.76953125 -10.43359375 27.8125 C-10.4388356 27.11358643 -10.44407745 26.41467285 -10.44947815 25.69458008 C-10.45589447 24.21860074 -10.45456631 22.74257025 -10.44604492 21.26660156 C-10.43752842 19.007539 -10.46630538 16.75100055 -10.49804688 14.4921875 C-10.49965887 13.05729242 -10.49908139 11.62239287 -10.49609375 10.1875 C-10.49794678 8.88167969 -10.4997998 7.57585937 -10.50170898 6.23046875 C-10 3 -10 3 -8.15649414 1.078125 C-5.19244757 -0.4037305 -3.27149606 -0.47709317 0 0 Z " fill="#010101" transform="translate(259,369)"/>
<path d="M0 0 C5.61 0 11.22 0 17 0 C17 8.25 17 16.5 17 25 C11.39 25 5.78 25 0 25 C0 16.75 0 8.5 0 0 Z " fill="#5F505E" transform="translate(376,472)"/>
<path d="M0 0 C5.61 0 11.22 0 17 0 C17 8.25 17 16.5 17 25 C11.39 25 5.78 25 0 25 C0 16.75 0 8.5 0 0 Z " fill="#5F505E" transform="translate(119,472)"/>
<path d="M0 0 C3.80470451 0.7133821 5.41196019 1.67868421 8 4.5625 C9.0625 8 9.0625 8 9 11.5625 C7.23358828 14.36439446 5.96950178 16.07774911 3 17.5625 C-1.0130324 18.09757099 -2.53928033 17.89301628 -5.875 15.5 C-8 12.5625 -8 12.5625 -8.625 9.0625 C-7.67703424 3.75389177 -5.38444917 1.00958422 0 0 Z " fill="#D3D0D3" transform="translate(336,46.4375)"/>
<path d="M0 0 C3.88265681 0.72799815 5.46228253 1.50231129 8 4.5625 C8.71534153 7.70654141 8.71534153 10.41845859 8 13.5625 C5.46228253 16.62268871 3.88265681 17.39700185 0 18.125 C-4.13607554 17.34948584 -5.54999553 15.94927089 -8 12.5625 C-8.625 9.0625 -8.625 9.0625 -8 5.5625 C-5.54999553 2.17572911 -4.13607554 0.77551416 0 0 Z " fill="#D5D2D5" transform="translate(272,46.4375)"/>
</svg>
