<?xml version="1.0" encoding="UTF-8"?>
<svg version="1.1" xmlns="http://www.w3.org/2000/svg" width="512" height="512">
<path d="M0 0 C0.71414062 -0.0065712 1.42828125 -0.0131424 2.1640625 -0.01991272 C4.53523871 -0.03967054 6.90635121 -0.05131958 9.27758789 -0.0612793 C10.08946627 -0.06535482 10.90134464 -0.06943035 11.73782539 -0.07362938 C16.04282502 -0.09451005 20.34779268 -0.10879778 24.65283203 -0.11816406 C29.07763987 -0.12917607 33.50193749 -0.16350903 37.92656612 -0.20333576 C41.34549316 -0.22963517 44.76430174 -0.23786809 48.183321 -0.24144554 C49.81263195 -0.24628462 51.44193857 -0.25782118 53.07114983 -0.27648354 C67.42192347 -0.43052549 78.39424483 1.77495241 88.96899414 12.0246582 C96.94221525 20.52154426 99.22474647 29.2662905 99.18299866 40.71272278 C99.18385308 41.57045735 99.18470751 42.42819191 99.18558782 43.31191844 C99.18723433 46.18469216 99.1817348 49.05740744 99.17626953 51.93017578 C99.17598745 53.99000039 99.17614579 56.04982511 99.17671204 58.10964966 C99.17699921 63.70215922 99.17111532 69.29464738 99.16413808 74.88715196 C99.15789131 80.73146344 99.15729969 86.57577541 99.15611267 92.42008972 C99.15300327 103.48741773 99.14479513 114.55473587 99.13476318 125.62205952 C99.12150114 140.57713729 99.11609898 155.53221775 99.11026096 170.48729992 C99.100855 194.05054132 99.08093345 217.6137619 99.06274414 241.17700195 C137.34274414 241.17700195 175.62274414 241.17700195 215.06274414 241.17700195 C214.99313477 218.75504883 214.99313477 218.75504883 214.92211914 195.88012695 C214.90168094 186.4100721 214.88225947 176.94003325 214.86743164 167.4699707 C214.84370736 152.43882786 214.81583382 137.40777479 214.76098633 122.37670898 C214.72105833 111.42912246 214.695297 100.48160884 214.68639016 89.53395152 C214.68118555 83.73977935 214.6689937 77.94581571 214.63982391 72.15171051 C214.61256073 66.69179504 214.60432119 61.23217289 214.61031342 55.77219582 C214.60921805 53.77442389 214.60132953 51.77664157 214.58592224 49.77892876 C214.47777308 35.02563724 215.22663045 22.33498041 226.06274414 11.17700195 C237.00820954 0.74880808 248.8122362 -0.44585084 263.26196289 -0.3894043 C264.90859831 -0.39465085 266.55523073 -0.40093107 268.20185852 -0.40818787 C271.63357813 -0.41853527 275.06488155 -0.41410946 278.49658203 -0.39941406 C282.87796172 -0.38217979 287.25803553 -0.40580731 291.63926983 -0.44090366 C295.03240013 -0.46292967 298.4252199 -0.46142463 301.81839943 -0.45313835 C303.43342337 -0.45232273 305.048471 -0.45911122 306.66342735 -0.47390938 C322.28706352 -0.59522678 322.28706352 -0.59522678 327.6085968 3.58900452 C332.63190682 9.07469584 333.67058341 14.75505505 333.59399414 21.98950195 C333.59782104 22.80265869 333.60164795 23.61581543 333.60559082 24.45361328 C333.60829507 26.1612269 333.60103876 27.868883 333.58422852 29.57641602 C333.56279545 32.17079159 333.58407898 34.76239867 333.60961914 37.35668945 C333.6069756 39.02596632 333.60185007 40.69524148 333.59399414 42.36450195 C333.60209106 43.12931885 333.61018799 43.89413574 333.61853027 44.68212891 C333.51865265 50.49928224 332.27684569 54.27568795 329.06274414 59.17700195 C321.06274414 64.17700195 321.06274414 64.17700195 280.06274414 64.17700195 C280.06274414 122.58700195 280.06274414 180.99700195 280.06274414 241.17700195 C287.98274414 241.17700195 295.90274414 241.17700195 304.06274414 241.17700195 C316.02715864 244.7663263 323.45077636 248.44375344 330.06274414 259.17700195 C334.052948 266.88760941 334.24059297 275.79956116 332.40649414 284.1730957 C330.29275385 290.7420903 326.9645824 295.37154815 322.06274414 300.17700195 C322.64282227 300.9040332 322.64282227 300.9040332 323.23461914 301.64575195 C331.14927816 311.83293683 334.12151477 320.16294634 333.06274414 333.17700195 C331.21840126 341.00543558 327.76240912 347.47733698 322.06274414 353.17700195 C322.44946289 353.58950195 322.83618164 354.00200195 323.23461914 354.42700195 C331.11739271 363.16829542 333.44919372 370.88118038 333.34008789 382.56762695 C332.70570296 390.8235661 328.85043949 398.25701643 323.06274414 404.17700195 C322.40274414 404.17700195 321.74274414 404.17700195 321.06274414 404.17700195 C321.06274414 404.83700195 321.06274414 405.49700195 321.06274414 406.17700195 C321.65829102 406.4090332 322.25383789 406.64106445 322.86743164 406.88012695 C325.62468129 408.50896482 326.59053001 410.16741734 328.18774414 412.92700195 C328.68532227 413.7674707 329.18290039 414.60793945 329.69555664 415.47387695 C333.77247546 423.53452787 334.49773117 432.22506711 332.37524414 441.02856445 C328.84096959 450.54165346 323.14236544 457.55819018 314.06274414 462.17700195 C305.96883491 464.92536434 298.18103718 465.61030768 289.69091797 465.55795288 C287.91189323 465.56497284 287.91189323 465.56497284 286.0969286 465.57213461 C282.84063483 465.58195487 279.58468285 465.57852325 276.32839823 465.56917596 C272.80276682 465.56234191 269.27717893 465.57288811 265.7515564 465.58111572 C258.85896986 465.59440914 251.96648169 465.591595 245.0738914 465.5828778 C239.4688186 465.57608429 233.86377325 465.57519172 228.25869751 465.57844925 C227.0590512 465.5791388 227.0590512 465.5791388 225.83516961 465.57984228 C224.21012679 465.58080152 222.58508397 465.58177416 220.96004117 465.58276005 C205.74576283 465.59130108 190.53153886 465.58150006 175.31726944 465.56535895 C162.28155412 465.55195694 149.24591896 465.5542854 136.21020508 465.56811523 C121.04789633 465.58419384 105.88563514 465.59047722 90.72331905 465.58127844 C89.1044763 465.58032286 87.48563354 465.57937975 85.86679077 465.57844925 C84.6722454 465.57775501 84.6722454 465.57775501 83.4535678 465.57704674 C77.85954663 465.57446369 72.26555578 465.57881304 66.67153931 465.58588791 C59.84810875 465.5943285 53.02478165 465.59196924 46.20136285 465.57604568 C42.72437747 465.56819721 39.24756414 465.56501232 35.77058029 465.57499313 C31.9917403 465.58322708 28.21337999 465.57286391 24.43457031 465.55795288 C23.34933484 465.56464505 22.26409937 465.57133721 21.14597797 465.57823217 C9.37143864 465.48851059 -1.09956018 463.30579156 -9.93725586 455.17700195 C-16.7565523 447.27642172 -19.60612188 438.59465877 -19.27709961 428.22387695 C-18.17081396 418.30545393 -13.46596721 411.48218626 -6.93725586 404.17700195 C-7.92725586 403.84700195 -8.91725586 403.51700195 -9.93725586 403.17700195 C-16.73805604 395.24273508 -19.58796447 386.58817442 -19.28491211 376.23168945 C-18.34216664 367.94824048 -14.88670276 360.10945043 -8.93725586 354.17700195 C-8.27725586 354.17700195 -7.61725586 354.17700195 -6.93725586 354.17700195 C-7.46834961 353.58274414 -7.99944336 352.98848633 -8.54663086 352.3762207 C-15.89708147 343.75151314 -19.76664404 335.65325775 -19.32006836 324.16137695 C-18.2604798 315.90091102 -14.8892596 308.11199997 -8.93725586 302.17700195 C-8.27725586 302.17700195 -7.61725586 302.17700195 -6.93725586 302.17700195 C-7.46834961 301.58274414 -7.99944336 300.98848633 -8.54663086 300.3762207 C-15.89708147 291.75151314 -19.76664404 283.65325775 -19.32006836 272.16137695 C-18.12520619 262.84632905 -14.10876727 254.54449719 -6.90209961 248.45825195 C5.78755207 239.32707403 18.25727601 241.17700195 34.06274414 241.17700195 C34.06274414 182.76700195 34.06274414 124.35700195 34.06274414 64.17700195 C20.53274414 64.17700195 7.00274414 64.17700195 -6.93725586 64.17700195 C-16.79439872 57.60557338 -16.79439872 57.60557338 -18.93725586 51.17700195 C-19.05837377 48.37055315 -19.12540964 45.58973425 -19.14038086 42.7824707 C-19.14608093 41.95749588 -19.15178101 41.13252106 -19.15765381 40.282547 C-19.16709709 38.53668497 -19.17363512 36.79080518 -19.17749023 35.04492188 C-19.18718171 32.38485277 -19.21820498 29.72556117 -19.24975586 27.06567383 C-19.25628775 25.36711069 -19.26153749 23.66854205 -19.26538086 21.9699707 C-19.27772766 21.17914597 -19.29007446 20.38832123 -19.30279541 19.5735321 C-19.27998259 13.86745613 -18.2298259 9.6125385 -14.18334961 5.3137207 C-13.58651367 4.83547852 -12.98967773 4.35723633 -12.37475586 3.86450195 C-11.7753418 3.37336914 -11.17592773 2.88223633 -10.55834961 2.3762207 C-7.04648058 -0.22171614 -4.33042529 0.03292504 0 0 Z " fill="#118CB5" transform="translate(98.937255859375,27.822998046875)"/>
<path d="M0 0 C1.02515785 -0.00445784 2.05031571 -0.00891569 3.10653895 -0.01350862 C4.80115393 -0.01323207 4.80115393 -0.01323207 6.53000355 -0.01294994 C8.32622826 -0.01846498 8.32622826 -0.01846498 10.15874034 -0.02409142 C13.48859389 -0.03322045 16.81839814 -0.03782843 20.14825952 -0.04048073 C23.73735818 -0.04438339 27.32644256 -0.05396176 30.91553211 -0.0626936 C39.5862492 -0.08245927 48.25696746 -0.09252442 56.92770144 -0.10142139 C61.01057827 -0.10580418 65.09345381 -0.11117102 69.17632961 -0.11641026 C82.74825458 -0.13342276 96.32017874 -0.14791698 109.89211273 -0.155159 C113.41437945 -0.1570689 116.93664616 -0.15898923 120.45891285 -0.16094494 C121.77208148 -0.16167055 121.77208148 -0.16167055 123.11177877 -0.16241082 C137.29378296 -0.17071132 151.47570281 -0.19604846 165.65767016 -0.22852562 C180.21688524 -0.26159494 194.77605745 -0.27960765 209.33531028 -0.28280324 C217.5102434 -0.28496847 225.68505354 -0.293719 233.85995007 -0.31926441 C240.82205541 -0.34096971 247.7840079 -0.34902271 254.74614324 -0.33929763 C258.297567 -0.33475236 261.84867537 -0.33665187 265.40005589 -0.35605907 C269.2529916 -0.37693207 273.10549273 -0.36670713 276.95847034 -0.35352612 C278.63635491 -0.36997998 278.63635491 -0.36997998 280.34813613 -0.38676625 C287.84654598 -0.32479047 293.57094198 0.68320993 299.1202898 6.16937733 C299.57532887 6.83840076 300.03036793 7.5074242 300.49919605 8.19672108 C300.97228199 8.86832264 301.44536793 9.5399242 301.9327898 10.23187733 C304.30261486 14.22531956 304.42930962 17.57581285 304.06169605 22.13422108 C301.89915475 29.35093033 298.65636269 33.39923809 292.19248271 37.24687344 C289.64280854 38.30866315 287.72893861 38.38825612 284.96910954 38.39428329 C283.93499384 38.40134889 282.90087815 38.40841448 281.83542562 38.41569418 C280.13350706 38.41207155 280.13350706 38.41207155 278.39720631 38.40837574 C277.19070163 38.41361242 275.98419696 38.4188491 274.74113154 38.42424446 C271.39068099 38.43666674 268.04044017 38.44008759 264.68998098 38.43964756 C261.07702971 38.44129498 257.46411673 38.45436014 253.8511858 38.46584034 C245.9503116 38.4886957 238.04946425 38.49661158 230.14856148 38.50166678 C225.21497733 38.5049233 220.28140098 38.51144552 215.34782124 38.51866817 C201.68749842 38.53823511 188.02718286 38.55463867 174.36684513 38.55754471 C173.05545521 38.55782606 173.05545521 38.55782606 171.71757255 38.5581131 C169.94523827 38.55847935 168.17290399 38.55884305 166.40056971 38.55920421 C165.08088877 38.55947843 165.08088877 38.55947843 163.73454762 38.55975819 C162.85368613 38.55993874 161.97282465 38.56011928 161.06527039 38.5603053 C146.79277106 38.5638468 132.52042262 38.59086717 118.24797562 38.62825608 C103.59380145 38.66633767 88.93970215 38.68570218 74.2854774 38.68600422 C66.05799904 38.68658884 57.83070066 38.69508355 49.60326862 38.72400188 C42.59723967 38.74851389 35.59145632 38.75580002 28.58539608 38.74075436 C25.01162719 38.73358447 21.43834332 38.73444538 17.86462879 38.75716496 C13.98757754 38.78157648 10.11121821 38.76712106 6.23412037 38.74895191 C5.10843088 38.76215188 3.9827414 38.77535185 2.82294011 38.78895181 C-4.04158712 38.71542257 -8.64667837 37.64024582 -13.93830395 33.13422108 C-18.90299603 27.7876296 -19.35063968 23.30630241 -19.28205395 16.21625233 C-18.76517265 11.58194162 -17.07986349 8.5293961 -13.93830395 5.13422108 C-9.31245526 1.5260591 -5.81845077 0.0117242 0 0 Z " fill="#C7E9F5" transform="translate(113.93830394744873,439.86577892303467)"/>
<path d="M0 0 C1.20583882 -0.00709439 2.41167764 -0.01418877 3.65405703 -0.02149814 C6.98451393 -0.03601164 10.31353968 -0.02822369 13.64389062 -0.01077521 C17.24179403 0.00262941 20.8395916 -0.01284933 24.43748474 -0.02459717 C31.47906952 -0.04295518 38.52037641 -0.03447387 45.56195247 -0.01650894 C51.28587418 -0.00247077 57.00972056 0.00140724 62.73365784 -0.00195122 C63.5489957 -0.00242866 64.36433356 -0.0029061 65.20437863 -0.00339801 C66.86083553 -0.00442437 68.51729241 -0.00547972 70.17374927 -0.00656378 C84.81392711 -0.01512712 99.45397098 0.00153223 114.09411621 0.03126526 C128.29306668 0.06010178 142.49182417 0.06718574 156.6907959 0.05177307 C172.16069 0.03500379 187.63049251 0.03098411 203.100389 0.04848343 C204.75067742 0.05032778 206.40096584 0.0521625 208.05125427 0.0539875 C209.26914467 0.05535564 209.26914467 0.05535564 210.51163891 0.05675141 C216.22722183 0.06235229 221.94275997 0.05905381 227.65834045 0.05244255 C234.62584932 0.04470297 241.59316836 0.05148434 248.56063902 0.07661759 C252.114098 0.08909828 255.66726167 0.09527679 259.22073174 0.08407593 C263.07564022 0.07215453 266.93004115 0.09132166 270.78491211 0.11352539 C271.90398217 0.10528462 273.02305223 0.09704386 274.1760335 0.08855337 C281.66937975 0.16826108 287.40564905 1.18108007 292.9510498 6.66334534 C293.40608887 7.33236877 293.86112793 8.00139221 294.32995605 8.69068909 C294.80304199 9.36229065 295.27612793 10.03389221 295.7635498 10.72584534 C298.13993789 14.73034706 298.32784568 18.05659807 297.89245605 22.62818909 C295.76325565 28.37084578 293.3237231 33.44891082 287.89245605 36.62818909 C282.0730577 39.21623922 276.30973144 38.91580083 270.06338501 38.90234375 C268.86333859 38.90758043 267.66329218 38.91281711 266.42688072 38.91821247 C263.1037513 38.93060736 259.78083364 38.93405634 256.45769572 38.93361557 C252.870683 38.93526637 249.28370857 38.94833762 245.69671631 38.95980835 C237.85794201 38.9826351 230.01919482 38.99057612 222.18039179 38.99563479 C217.28465402 38.99889385 212.3889241 39.0054175 207.49319077 39.01263618 C193.9340115 39.03219735 180.37483951 39.04860497 166.81564522 39.05151272 C165.94839073 39.05170029 165.08113625 39.05188786 164.18760132 39.05208111 C162.42953865 39.05244736 160.67147597 39.05281106 158.9134133 39.05317222 C158.04073081 39.05335503 157.16804832 39.05353785 156.2689209 39.0537262 C155.39517165 39.05390675 154.5214224 39.05408729 153.6211959 39.05427331 C139.45875419 39.05781608 125.29646442 39.08484699 111.13407542 39.12222409 C96.58831907 39.16030542 82.04263813 39.17967017 67.49683082 39.17997223 C59.33197994 39.18055676 51.16731044 39.18904621 43.00250626 39.21796989 C36.05142192 39.24248123 29.10058514 39.24976829 22.14946927 39.23472237 C18.60403877 39.22755289 15.05909716 39.22841175 11.51372147 39.25113297 C7.66742898 39.2755463 3.82183385 39.26108842 -0.02450562 39.24291992 C-1.14104896 39.25611989 -2.25759231 39.26931986 -3.40797031 39.28291982 C-10.24998969 39.20905178 -14.83103261 38.1123112 -20.10754395 33.62818909 C-25.07114228 28.28277549 -25.52912156 23.79731546 -25.44348145 16.70631409 C-24.84969174 11.26554334 -22.56247446 7.78295761 -18.49023104 4.20862347 C-12.48496532 0.02347219 -7.16438158 -0.07577334 0 0 Z " fill="#C7E9F5" transform="translate(120.1075439453125,387.37181091308594)"/>
<path d="M0 0 C1.03411569 -0.00706559 2.06823139 -0.01413118 3.13368392 -0.02141088 C4.26829629 -0.0189958 5.40290866 -0.01658071 6.57190323 -0.01409245 C7.7784079 -0.01932912 8.98491257 -0.0245658 10.22797799 -0.02996117 C13.57842855 -0.04238344 16.92866937 -0.0458043 20.27912855 -0.04536426 C23.89207983 -0.04701169 27.50499281 -0.06007685 31.11792374 -0.07155704 C39.01879794 -0.09441241 46.91964528 -0.10232829 54.82054806 -0.10738349 C59.75413221 -0.11064 64.68770856 -0.11716223 69.6212883 -0.12438488 C83.28161111 -0.14395181 96.94192667 -0.16035537 110.6022644 -0.16326141 C111.47652435 -0.16344898 112.3507843 -0.16363655 113.25153698 -0.16382981 C115.02387126 -0.16419606 116.79620554 -0.16455976 118.56853983 -0.16492092 C119.44832712 -0.16510373 120.32811441 -0.16528654 121.23456192 -0.16547489 C122.1154234 -0.16565544 122.99628489 -0.16583599 123.90383914 -0.16602201 C138.17633848 -0.1695635 152.44868691 -0.19658387 166.72113392 -0.23397278 C181.37530809 -0.27205438 196.02940738 -0.29141888 210.68363214 -0.29172093 C218.9111105 -0.29230554 227.13840887 -0.30080026 235.36584091 -0.32971859 C242.37186987 -0.35423059 249.37765321 -0.36151673 256.38371345 -0.34647106 C259.95748234 -0.33930117 263.53076622 -0.34016209 267.10448074 -0.36288166 C270.98153199 -0.38729319 274.85789132 -0.37283777 278.73498917 -0.35466862 C279.86067865 -0.36786858 280.98636814 -0.38106855 282.14616942 -0.39466852 C289.01921435 -0.32104804 293.60120824 0.76555715 298.90741348 5.26006222 C302.7607165 9.31617066 304.58583158 12.91710832 305.34491348 18.44756222 C304.66589627 24.36471219 302.4697493 29.7492019 298.15741348 33.97490597 C293.41129543 37.5038084 289.62491391 38.38262547 283.86167908 38.39428329 C282.83801357 38.39874114 281.81434806 38.40319898 280.75966239 38.40779191 C279.63672286 38.40760755 278.51378334 38.40742319 277.35681534 38.40723324 C275.56543432 38.41274827 275.56543432 38.41274827 273.73786378 38.41837472 C270.4216711 38.42749368 267.10552789 38.4321095 263.78932738 38.43476403 C260.21319801 38.43867067 256.63708292 38.44824866 253.06096268 38.45697689 C244.42477555 38.47672965 235.78858727 38.48680535 227.15238321 38.49570468 C223.08494959 38.50008894 219.01751728 38.50545534 214.95008469 38.51069355 C201.42873149 38.52770354 187.9073791 38.54219815 174.38601685 38.54944229 C170.87801233 38.55135216 167.37000782 38.5532725 163.86200333 38.55522823 C162.55416887 38.55595384 162.55416887 38.55595384 161.21991351 38.55669411 C147.09293824 38.5649961 132.96604759 38.59033688 118.83910927 38.62280891 C104.33410313 38.65587812 89.82914 38.67389087 75.32409596 38.67708653 C67.18047667 38.6792516 59.03698084 38.68799993 50.89339828 38.71354771 C43.95876537 38.73525271 37.02428592 38.74330609 30.08962288 38.73358092 C26.55236856 38.72903579 23.01543089 38.73093446 19.47821999 38.75034237 C15.64066398 38.77121615 11.80354428 38.76099018 7.9659462 38.74780941 C6.85192956 38.75877866 5.73791292 38.7697479 4.5901382 38.78104955 C-1.80999829 38.72794146 -6.7805103 38.01735952 -12.09258652 34.26006222 C-17.52397402 28.54281221 -18.55040629 23.98056466 -18.40899277 16.24053097 C-17.82809068 10.76857678 -15.64406926 7.69518376 -11.59258652 3.94756222 C-7.56595067 1.22958302 -4.90920055 0.01072118 0 0 Z " fill="#C7E9F5" transform="translate(113.09258651733398,335.7399377822876)"/>
<path d="M0 0 C1.0271489 -0.00445784 2.0542978 -0.00891569 3.11257243 -0.01350862 C4.23940291 -0.01332426 5.36623338 -0.01313989 6.52721024 -0.01294994 C8.32471659 -0.01846498 8.32471659 -0.01846498 10.1585362 -0.02409142 C13.4861304 -0.03321052 16.81367531 -0.03782624 20.14127731 -0.04048073 C23.72967671 -0.04438732 27.31806188 -0.05396531 30.90645218 -0.0626936 C39.57230217 -0.08244651 48.23815332 -0.09252207 56.90402019 -0.10142139 C60.98540058 -0.10580562 65.06677967 -0.11117203 69.14815903 -0.11641026 C82.71583537 -0.13342026 96.28351092 -0.14791487 109.85119629 -0.155159 C113.37123236 -0.15706887 116.89126843 -0.15898921 120.41130447 -0.16094494 C121.28618473 -0.16142868 122.16106498 -0.16191242 123.06245676 -0.16241082 C137.23793084 -0.17071283 151.41332059 -0.19605364 165.58875784 -0.22852562 C180.14348453 -0.2615946 194.69816834 -0.27960755 209.25293279 -0.28280324 C217.42449758 -0.28496833 225.59593932 -0.29371697 233.7674675 -0.31926441 C240.72588885 -0.34096911 247.68415725 -0.34902295 254.64260861 -0.33929763 C258.19201413 -0.3347524 261.74110406 -0.33665169 265.29046631 -0.35605907 C269.14115905 -0.37693204 272.99141696 -0.36670717 276.84215164 -0.35352612 C277.96005923 -0.36449536 279.07796682 -0.37546461 280.22975039 -0.38676625 C287.31898075 -0.32813759 293.11455009 0.57893365 298.45731425 5.54613417 C302.01042218 9.542624 303.657483 13.08573162 304.37614822 18.32172108 C303.64647296 24.68031984 300.96852138 30.0522999 296.50114822 34.63422108 C289.85559985 38.52429817 283.64566352 38.4224352 276.14754105 38.40164661 C274.95157818 38.40617773 273.75561532 38.41070884 272.52341115 38.41537726 C269.21167894 38.42583729 265.90016414 38.42734887 262.58843088 38.42498851 C259.01369202 38.42457991 255.43898541 38.43562354 251.86426163 38.44510365 C244.86393566 38.46170466 237.86364339 38.46721277 230.86329938 38.4683284 C225.17271637 38.46927921 219.48214445 38.47339116 213.79156494 38.47972965 C197.65363768 38.49733889 181.515737 38.50656891 165.37780006 38.5050687 C164.50810456 38.50498879 163.63840907 38.50490888 162.74235916 38.50482655 C161.87160053 38.50474478 161.00084189 38.50466302 160.10369663 38.50457878 C145.98977623 38.50376577 131.87596253 38.52290822 117.762073 38.55110328 C103.26603773 38.57983303 88.7700545 38.59364355 74.27399004 38.59191573 C66.13711501 38.5912519 58.00035187 38.59674102 49.8635025 38.61827183 C42.93622907 38.63648475 36.00911824 38.64083004 29.08183123 38.62725298 C25.54861968 38.62072407 22.01572008 38.62060295 18.48253822 38.63795948 C14.64945538 38.65659538 10.81682773 38.64413371 6.98372269 38.6286974 C5.87107029 38.63898452 4.75841789 38.64927165 3.61204875 38.65987051 C-3.91690164 38.5928256 -9.44131048 37.48411004 -15.15510178 32.19672108 C-19.39100321 25.98406564 -20.26288858 20.5609615 -19.06135178 13.13422108 C-17.28852026 7.72708494 -13.58429116 4.33796981 -9.06135178 1.13422108 C-6.01396363 0.117282 -3.1991968 0.00644915 0 0 Z " fill="#C6E9F5" transform="translate(114.06135177612305,283.86577892303467)"/>
<path d="M0 0 C1.5069208 0.00238834 3.01384461 0.00328892 4.52076721 0.0027771 C7.66011513 0.00588777 10.7990007 0.02232921 13.93823242 0.04931641 C17.96566465 0.0835001 21.99259552 0.09093825 26.02015591 0.08942604 C29.12306009 0.08996879 32.22585431 0.10091721 35.328722 0.11542892 C36.8147098 0.12179594 38.30071004 0.1257356 39.78671074 0.12721634 C41.85468894 0.13153892 43.92212751 0.14901012 45.98999023 0.17041016 C47.16641586 0.17803375 48.34284149 0.18565735 49.55491638 0.19351196 C52.31640625 0.4609375 52.31640625 0.4609375 54.31640625 2.4609375 C54.57519531 5.59375 54.57519531 5.59375 54.58203125 9.5859375 C54.5839447 10.2886377 54.58585815 10.99133789 54.58782959 11.71533203 C54.589191 13.20150104 54.58549757 14.68768195 54.57714844 16.17382812 C54.56644779 18.45209396 54.57704464 20.72957127 54.58984375 23.0078125 C54.58852215 24.45052258 54.58595974 25.89323216 54.58203125 27.3359375 C54.57977539 28.65335938 54.57751953 29.97078125 54.57519531 31.328125 C54.31640625 34.4609375 54.31640625 34.4609375 52.31640625 36.4609375 C50.27381897 36.71922302 50.27381897 36.71922302 47.73071289 36.73217773 C46.77955093 36.74236435 45.82838898 36.75255096 44.84840393 36.76304626 C43.30309242 36.76625633 43.30309242 36.76625633 41.7265625 36.76953125 C39.55924206 36.79468804 37.39192442 36.82008612 35.22460938 36.84570312 C31.79663797 36.8744848 28.36871498 36.89849322 24.94067383 36.91723633 C21.63988105 36.93883185 18.33965922 36.97826573 15.0390625 37.01953125 C13.49678734 37.01970497 13.49678734 37.01970497 11.9233551 37.0198822 C10.96904099 37.03322098 10.01472687 37.04655975 9.03149414 37.06030273 C7.77146324 37.06790871 7.77146324 37.06790871 6.48597717 37.07566833 C3.66299337 37.57696958 2.98705697 38.12263659 1.31640625 40.4609375 C1.01622671 43.0395682 0.90037461 45.37889725 0.91767883 47.95890808 C0.91103201 48.7291792 0.90438518 49.49945032 0.89753693 50.29306298 C0.87883924 52.88195054 0.88151672 55.47037867 0.8840332 58.05932617 C0.87502016 59.91196855 0.86469408 61.76460494 0.85314941 63.61723328 C0.82549948 68.65410068 0.81628407 73.6908552 0.81029534 78.72778869 C0.80093243 83.98892578 0.7747308 89.24997786 0.75028992 94.51106262 C0.70656378 104.47699911 0.6780544 114.44291916 0.65496653 124.40892249 C0.6279476 135.75344409 0.58403409 147.09788041 0.53867781 158.44234121 C0.44574392 181.78183954 0.37633375 205.12132947 0.31640625 228.4609375 C-11.56359375 228.4609375 -23.44359375 228.4609375 -35.68359375 228.4609375 C-35.77623794 201.64422595 -35.847597 174.82755302 -35.89084244 148.01071358 C-35.91145684 135.55884474 -35.93955617 123.10707723 -35.98535156 110.65527344 C-36.02525346 99.80072965 -36.05103471 88.94625926 -36.05994773 78.09164417 C-36.06515675 72.34560169 -36.07737681 66.5997692 -36.10651398 60.8537941 C-36.13373586 55.44148917 -36.14202497 50.02948001 -36.13602448 44.61711311 C-36.13712168 42.63462655 -36.14503497 40.65212973 -36.16041565 38.66970253 C-36.32336084 16.57726339 -36.32336084 16.57726339 -28.49609375 7.5859375 C-20.63080483 -0.33908779 -10.41948612 -0.10947577 0 0 Z " fill="#92D7EE" transform="translate(363.68359375,41.5390625)"/>
<path d="M0 0 C0.64747192 -0.00832352 1.29494385 -0.01664703 1.96203613 -0.02522278 C4.11081923 -0.04938674 6.25929837 -0.05810681 8.40820312 -0.06469727 C9.90596608 -0.07366596 11.40372813 -0.08278785 12.90148926 -0.09205627 C16.04893162 -0.10857113 19.1962674 -0.11624963 22.34375 -0.11914062 C26.35409138 -0.1244961 30.36341176 -0.1620453 34.37346649 -0.20788479 C37.47240724 -0.23782431 40.57110856 -0.24486797 43.67018127 -0.24586678 C45.14682134 -0.25004361 46.62346382 -0.26237489 48.09996033 -0.28338432 C57.98394474 -0.41270655 66.29436246 0.27916342 73.82507324 7.29640198 C80.10843111 13.86958989 82.14859926 20.16253229 82.05021667 29.04466248 C82.05277995 29.90002234 82.05534322 30.75538221 82.05798417 31.63666207 C82.0629074 34.48957738 82.04645333 37.34195804 82.0300293 40.19482422 C82.02918271 42.24509163 82.02965879 44.29535995 82.03135681 46.34562683 C82.03221695 51.90296623 82.01458804 57.46011106 81.99363494 63.01740527 C81.97487132 68.82833032 81.97311794 74.63925991 81.96955872 80.45021057 C81.96023735 91.45021987 81.93562225 102.45013965 81.90551025 113.45010954 C81.87196916 125.97480937 81.85548095 138.49951349 81.84042394 151.02424705 C81.80907283 176.78501483 81.75570561 202.54569686 81.68945312 228.30639648 C69.80945313 228.30639648 57.92945313 228.30639648 45.68945312 228.30639648 C45.67487061 222.62702881 45.66028809 216.94766113 45.64526367 211.09619141 C45.59502156 192.37252691 45.52859695 173.648946 45.45373821 154.92536449 C45.40873072 143.56857924 45.36932755 132.2118257 45.34301758 120.85498047 C45.32007755 110.95887979 45.28672449 101.06287903 45.24075156 91.16685754 C45.21676532 85.92469654 45.19807201 80.68263483 45.19183922 75.44042015 C45.18581272 70.50989434 45.16590162 65.57962279 45.13517761 60.6491909 C45.12635816 58.83634198 45.12268283 57.02345988 45.12444496 55.21059036 C45.12608766 52.74155205 45.10948545 50.27329815 45.08818054 47.80436707 C45.09302812 47.08160731 45.09787569 46.35884755 45.10287017 45.61418599 C45.06122384 42.70381533 45.02089646 40.77039645 43.30013084 38.36143208 C41.10938121 36.92643437 39.58513784 36.92801604 36.97436523 36.92163086 C36.02005112 36.91151978 35.065737 36.90140869 34.08250427 36.89099121 C32.54022911 36.89552307 32.54022911 36.89552307 30.96679688 36.90014648 C29.91037491 36.8893103 28.85395294 36.87847412 27.76551819 36.86730957 C23.23817455 36.82131889 18.71088529 36.80993146 14.18334961 36.79516602 C10.88178745 36.77952891 7.58071369 36.74654126 4.27929688 36.71264648 C3.2490892 36.71566772 2.21888153 36.71868896 1.15745544 36.72180176 C-0.26928749 36.70663513 -0.26928749 36.70663513 -1.72485352 36.69116211 C-2.98369102 36.68808044 -2.98369102 36.68808044 -4.26795959 36.68493652 C-4.9420134 36.56001831 -5.6160672 36.4351001 -6.31054688 36.30639648 C-8.77520784 32.60940504 -8.56834087 30.71218718 -8.57617188 26.30249023 C-8.57808533 25.62340103 -8.57999878 24.94431183 -8.58197021 24.24464417 C-8.58332935 22.81152983 -8.57965184 21.37840308 -8.57128906 19.9453125 C-8.56056854 17.74833663 -8.5712014 15.55217535 -8.58398438 13.35522461 C-8.58266306 11.96264468 -8.58010123 10.57006525 -8.57617188 9.17749023 C-8.57391602 7.90832764 -8.57166016 6.63916504 -8.56933594 5.33154297 C-8.07559603 -0.44009027 -5.01678667 0.04548933 0 0 Z " fill="#93D7EE" transform="translate(102.310546875,41.693603515625)"/>
<path d="M0 0 C25.15625569 -0.0934611 50.31248533 -0.163988 75.4688797 -0.20724869 C87.14955959 -0.2278697 98.83013156 -0.25598164 110.51074219 -0.30175781 C120.69212844 -0.34163951 130.87343654 -0.36743616 141.05489874 -0.37635398 C146.44541442 -0.38156643 151.83570652 -0.39380826 157.22615051 -0.42292023 C162.3019363 -0.45011022 167.37740682 -0.45843767 172.45325851 -0.45243073 C174.31403187 -0.45352935 176.17481599 -0.4614618 178.03552628 -0.4768219 C180.58172605 -0.49680617 183.12674493 -0.49190888 185.67297363 -0.48101807 C186.40451487 -0.49266943 187.13605611 -0.5043208 187.88976526 -0.51632524 C194.18763726 -0.44381265 199.53870155 1.56672392 204.05859375 6.03515625 C204.51363281 6.70417969 204.96867188 7.37320312 205.4375 8.0625 C205.91058594 8.73410156 206.38367188 9.40570313 206.87109375 10.09765625 C209.24091881 14.09109848 209.36761357 17.44159177 209 22 C206.83084981 29.23876405 203.58916435 33.12944776 197.22265625 37.11174011 C194.2182452 38.31241962 191.67127309 38.26197081 188.4375 38.2746582 C187.78629181 38.27976913 187.13508362 38.28488007 186.46414185 38.29014587 C184.30933416 38.30404541 182.15484727 38.30308137 180 38.30078125 C178.48421106 38.30467505 176.9684232 38.30901112 175.45263672 38.31376648 C172.26493821 38.32123462 169.07735033 38.32093829 165.88964844 38.31567383 C162.65838559 38.31108145 159.42750242 38.31780468 156.19628906 38.33618164 C138.92847679 38.43349837 121.98849071 38.5200806 105 35 C103.64742762 34.74057794 102.2945658 34.48266008 100.94140625 34.22631836 C97.11427218 33.4733651 93.30739877 32.65929769 89.5 31.8125 C88.8294458 31.6641571 88.1588916 31.51581421 87.46801758 31.36297607 C60.60788839 25.39239714 34.72704927 17.22631835 9.5625 6.0625 C8.70914063 5.68488525 7.85578125 5.30727051 6.9765625 4.91821289 C6.20183594 4.5649292 5.42710937 4.21164551 4.62890625 3.84765625 C3.94900635 3.53836182 3.26910645 3.22906738 2.56860352 2.91040039 C1 2 1 2 0 0 Z " fill="#EAF7FD" transform="translate(209,440)"/>
<path d="M0 0 C25.15625569 -0.0934611 50.31248533 -0.163988 75.4688797 -0.20724869 C87.14955959 -0.2278697 98.83013156 -0.25598164 110.51074219 -0.30175781 C120.69212844 -0.34163951 130.87343654 -0.36743616 141.05489874 -0.37635398 C146.44541442 -0.38156643 151.83570652 -0.39380826 157.22615051 -0.42292023 C162.3019363 -0.45011022 167.37740682 -0.45843767 172.45325851 -0.45243073 C174.31403187 -0.45352935 176.17481599 -0.4614618 178.03552628 -0.4768219 C180.58172605 -0.49680617 183.12674493 -0.49190888 185.67297363 -0.48101807 C186.40451487 -0.49266943 187.13605611 -0.5043208 187.88976526 -0.51632524 C194.18763726 -0.44381265 199.53870155 1.56672392 204.05859375 6.03515625 C204.51363281 6.70417969 204.96867188 7.37320312 205.4375 8.0625 C205.91058594 8.73410156 206.38367188 9.40570313 206.87109375 10.09765625 C209.24748184 14.10215798 209.43538962 17.42840898 209 22 C206.87079959 27.7426567 204.43126704 32.82072173 199 36 C194.72962742 37.66694513 191.17930318 38.25213202 186.60595703 38.25878906 C185.35670441 38.26509338 184.10745178 38.27139771 182.82034302 38.27789307 C181.46616475 38.27430897 180.11198777 38.27020594 178.7578125 38.265625 C177.34740126 38.26697528 175.93699047 38.26891882 174.52658081 38.27142334 C171.5694333 38.27436719 168.61240682 38.27010729 165.65527344 38.26074219 C161.91277249 38.2494529 158.17056184 38.25584413 154.42807198 38.26788712 C151.51077202 38.27521612 148.59353744 38.27276631 145.6762352 38.26763153 C144.29949787 38.26631977 142.92275412 38.26785327 141.54602432 38.27259064 C127.27456597 38.31086942 113.49475144 36.49553096 99.5 33.75 C98.39470947 33.53384033 97.28941895 33.31768066 96.15063477 33.0949707 C76.00725265 29.07088504 56.44414015 23.60878387 37 17 C36.23751953 16.74250977 35.47503906 16.48501953 34.68945312 16.21972656 C22.68883494 12.11247273 11.36809578 6.58787672 0 1 C0 0.67 0 0.34 0 0 Z " fill="#EBF7FD" transform="translate(209,388)"/>
<path d="M0 0 C25.28661868 -0.11682512 50.57319689 -0.20498431 75.86003113 -0.25906086 C87.60127791 -0.28483744 99.34235697 -0.31997779 111.08349609 -0.37719727 C121.31762047 -0.42704863 131.55162336 -0.45929498 141.78586578 -0.47044247 C147.2043817 -0.47695823 152.6225501 -0.49226117 158.04095459 -0.52865028 C163.14305128 -0.56263689 168.24465793 -0.57304745 173.34685707 -0.56553841 C175.21731544 -0.56691175 177.08779053 -0.57682827 178.95815086 -0.59602737 C196.4583449 -0.7668246 196.4583449 -0.7668246 203 5 C206.85330302 9.05610844 208.67841809 12.65704611 209.4375 18.1875 C208.75848279 24.10464997 206.56233582 29.48913968 202.25 33.71484375 C197.08781642 37.55310525 193.08670915 38.12224628 186.82055664 38.16113281 C184.94062767 38.17554413 184.94062767 38.17554413 183.02272034 38.19024658 C181.65186752 38.19510261 180.28101255 38.19937944 178.91015625 38.203125 C178.21188658 38.20595238 177.51361691 38.20877975 176.79418755 38.21169281 C173.0806427 38.22669256 169.36713659 38.23591024 165.65356445 38.24023438 C162.62316576 38.24457834 159.59305833 38.25830745 156.56274414 38.28125 C139.49621341 38.4077198 122.81746656 38.32033171 106 35 C105.24097382 34.85461792 104.48194763 34.70923584 103.69992065 34.55944824 C98.50614706 33.5533213 93.34481705 32.4274346 88.1875 31.25 C87.41895691 31.07670166 86.65041382 30.90340332 85.85858154 30.72485352 C21.0466099 16.07615559 21.0466099 16.07615559 0 0 Z " fill="#EBF7FD" transform="translate(209,336)"/>
<path d="M0 0 C25.15625569 -0.0934611 50.31248533 -0.163988 75.4688797 -0.20724869 C87.14955959 -0.2278697 98.83013156 -0.25598164 110.51074219 -0.30175781 C120.69212844 -0.34163951 130.87343654 -0.36743616 141.05489874 -0.37635398 C146.44541442 -0.38156643 151.83570652 -0.39380826 157.22615051 -0.42292023 C162.3019363 -0.45011022 167.37740682 -0.45843767 172.45325851 -0.45243073 C174.31403187 -0.45352935 176.17481599 -0.4614618 178.03552628 -0.4768219 C180.58172605 -0.49680617 183.12674493 -0.49190888 185.67297363 -0.48101807 C186.40451487 -0.49266943 187.13605611 -0.5043208 187.88976526 -0.51632524 C193.8519579 -0.4476776 199.08569775 1.31652305 203.53339052 5.41193938 C207.06390922 9.42653556 208.7184765 12.94890023 209.4375 18.1875 C208.69913668 24.62180895 206.01055075 30.0373195 201.375 34.5625 C197.18842253 37.0964811 193.87392427 37.13528172 189.06030273 37.16113281 C188.00573883 37.16858017 188.00573883 37.16858017 186.92987061 37.17617798 C184.59776831 37.19080548 182.26573446 37.19760927 179.93359375 37.203125 C179.1313695 37.20595238 178.32914524 37.20877975 177.50261116 37.21169281 C173.24140213 37.22670261 168.980227 37.23591548 164.71899414 37.24023438 C160.3656175 37.24566328 156.01256256 37.26956551 151.65928555 37.29820633 C148.27439055 37.31707936 144.88956842 37.32205161 141.50462532 37.32357025 C139.90344584 37.3265518 138.30226619 37.33442291 136.70113945 37.34775543 C125.1693517 37.43677413 114.31371901 36.19668332 103 34 C101.72327927 33.76299881 100.44655853 33.52599762 99.13114929 33.28181458 C64.72590151 26.86292145 31.30440595 16.7856566 0 1 C0 0.67 0 0.34 0 0 Z " fill="#EBF7FD" transform="translate(209,284)"/>
<path d="M0 0 C1.57689102 0.01061211 1.57689102 0.01061211 3.18563843 0.0214386 C6.50732919 0.04918298 9.82726571 0.11188474 13.1484375 0.17578125 C15.41534005 0.20088986 17.68226931 0.2236985 19.94921875 0.24414062 C25.4745458 0.29894361 30.99886628 0.3823665 36.5234375 0.48828125 C36.55230986 4.30076551 36.57019242 8.11322195 36.5859375 11.92578125 C36.59431641 13.01439453 36.60269531 14.10300781 36.61132812 15.22460938 C36.61455078 16.25908203 36.61777344 17.29355469 36.62109375 18.359375 C36.62633057 19.3177124 36.63156738 20.2760498 36.63696289 21.26342773 C36.5234375 23.48828125 36.5234375 23.48828125 35.5234375 24.48828125 C34.03561866 24.59511246 32.54287445 24.63448142 31.05126953 24.64599609 C30.10003204 24.65625824 29.14879456 24.66652039 28.16873169 24.67709351 C27.13336273 24.68439484 26.09799377 24.69169617 25.03125 24.69921875 C22.86066952 24.72728562 20.6900967 24.75595007 18.51953125 24.78515625 C15.08056842 24.82646511 11.64174884 24.86333243 8.20263672 24.88964844 C4.89520334 24.91718269 1.58843078 24.96305552 -1.71875 25.01171875 C-2.7500705 25.01497162 -3.78139099 25.01822449 -4.84396362 25.02157593 C-6.28027634 25.04642563 -6.28027634 25.04642563 -7.74560547 25.07177734 C-8.58864227 25.0798642 -9.43167908 25.08795105 -10.30026245 25.09628296 C-13.12368238 25.60484141 -13.80396884 26.14991592 -15.4765625 28.48828125 C-15.7767317 31.0546393 -15.8926049 33.38057177 -15.87528992 35.94828796 C-15.88193674 36.71447553 -15.88858357 37.4806631 -15.89543182 38.27006847 C-15.91412897 40.8451372 -15.91145207 43.41974404 -15.90893555 45.99487305 C-15.91794862 47.83766337 -15.92827472 49.68044767 -15.93981934 51.52322388 C-15.96746888 56.53323272 -15.97668463 61.54312806 -15.98267341 66.55320334 C-15.99203642 71.78631347 -16.01823807 77.01933812 -16.04267883 82.25239563 C-16.08640469 92.16520808 -16.11491424 102.078004 -16.13800222 111.99088365 C-16.16502131 123.27494716 -16.2089348 134.55892495 -16.25429094 145.84292734 C-16.34722438 169.05800071 -16.41826596 192.2730973 -16.4765625 215.48828125 C-22.4165625 215.48828125 -28.3565625 215.48828125 -34.4765625 215.48828125 C-34.6156205 190.79229513 -34.722614 166.09640374 -34.78743553 141.40010452 C-34.81833703 129.93245339 -34.86044682 118.46505042 -34.92919922 106.99755859 C-34.98911454 96.99924986 -35.02773857 87.0011209 -35.04109347 77.00263762 C-35.04889666 71.71135301 -35.06715867 66.42058257 -35.11094284 61.1294632 C-35.15187555 56.14220164 -35.16418995 51.15566272 -35.15520859 46.16824913 C-35.15685002 44.34460959 -35.16866141 42.52094418 -35.19179535 40.69745064 C-35.34428762 28.04984166 -33.92900165 18.45804091 -25.2265625 8.55078125 C-17.6492571 1.75309682 -9.980816 -0.25800043 0 0 Z " fill="#C7E9F5" transform="translate(380.4765625,53.51171875)"/>
<path d="M0 0 C6.65262205 -0.12754127 13.30492492 -0.21465991 19.95849609 -0.2746582 C22.21838157 -0.29968909 24.47818702 -0.33372438 26.73779297 -0.37719727 C29.99987619 -0.43835233 33.26088245 -0.46632502 36.5234375 -0.48828125 C38.02093033 -0.52699089 38.02093033 -0.52699089 39.54867554 -0.56648254 C47.86737048 -0.56975422 53.97661444 1.95511153 60.5859375 6.95703125 C68.52264206 15.18832965 71.16635248 22.36883152 71.12025452 33.77644348 C71.12110894 34.552507 71.12196337 35.32857052 71.12284368 36.12815112 C71.12448875 38.72453645 71.11899304 41.32085696 71.11352539 43.91723633 C71.11324328 45.78001911 71.11340171 47.642802 71.1139679 49.50558472 C71.11425495 54.56092227 71.10837302 59.61623612 71.10139394 64.67156816 C71.09514515 69.95533519 71.09455539 75.23910276 71.09336853 80.52287292 C71.09025972 90.52772242 71.08205239 100.53256099 71.07201904 110.53740567 C71.06084394 121.92787175 71.05534393 133.31833835 71.05032361 144.70880854 C71.03986941 168.13921195 71.02207737 191.56960491 71 215 C65.06 215 59.12 215 53 215 C52.99413376 212.66391159 52.98826752 210.32782318 52.98222351 207.92094421 C52.92563419 185.95060152 52.85259463 163.98035789 52.76428509 142.01011944 C52.71927777 130.7138684 52.67987456 119.41764923 52.65356445 108.12133789 C52.63062428 98.2779746 52.59727107 88.43471178 52.55129844 78.5914281 C52.52731238 73.37721269 52.50861895 68.16309711 52.50238609 62.94882774 C52.49635951 58.04456615 52.4764481 53.14056015 52.44572449 48.23639297 C52.43690518 46.43321949 52.43322968 44.63001266 52.43499184 42.82681847 C52.43663458 40.37091577 52.42003192 37.91580161 52.39872742 35.46000671 C52.40357499 34.74113791 52.40842257 34.0222691 52.41341704 33.28161639 C52.37167233 30.37974758 52.3281954 28.45883275 50.61109829 26.05824947 C48.42076985 24.61953283 46.88170436 24.60855812 44.26904297 24.58349609 C43.31150116 24.56692963 42.35395935 24.55036316 41.36740112 24.53329468 C39.82042038 24.52841537 39.82042038 24.52841537 38.2421875 24.5234375 C37.18339386 24.50785797 36.12460022 24.49227844 35.03372192 24.47622681 C31.64748876 24.42863097 28.26146276 24.40091313 24.875 24.375 C21.48154137 24.3385679 18.08820168 24.29800924 14.69485474 24.25234985 C12.58154231 24.22502349 10.46814236 24.20371602 8.35470581 24.18881226 C6.92784958 24.17341904 6.92784958 24.17341904 5.47216797 24.15771484 C4.20999954 24.14797134 4.20999954 24.14797134 2.92233276 24.13803101 C1 24 1 24 0 23 C-0.08713831 21.29227642 -0.10700007 19.58101351 -0.09765625 17.87109375 C-0.09443359 16.83662109 -0.09121094 15.80214844 -0.08789062 14.73632812 C-0.07951172 13.64771484 -0.07113281 12.55910156 -0.0625 11.4375 C-0.05798828 10.34501953 -0.05347656 9.25253906 -0.04882812 8.12695312 C-0.03699826 5.41791505 -0.02051543 2.70898401 0 0 Z " fill="#C7E9F5" transform="translate(95,54)"/>
</svg>
