<?xml version="1.0" encoding="UTF-8"?>
<svg version="1.1" xmlns="http://www.w3.org/2000/svg" width="512" height="512">
<path d="M0 0 C1.80781197 -0.00832352 1.80781197 -0.00832352 3.65214539 -0.01681519 C6.95423478 -0.0266023 10.25475891 -0.01401126 13.55668187 0.00946999 C17.01194141 0.02958116 20.46716642 0.02369938 23.92247009 0.0213623 C29.72384383 0.02141587 35.52489177 0.04116833 41.32617188 0.07324219 C48.0348281 0.11015221 54.74305781 0.11891536 61.45180231 0.11194468 C67.90500913 0.10564182 74.35806959 0.11638873 80.81124687 0.13591003 C83.55800905 0.14408814 86.30469647 0.14679285 89.0514698 0.1452179 C92.88473277 0.14417661 96.71760814 0.16833583 100.55078125 0.1953125 C101.69320282 0.1923819 102.83562439 0.18945129 104.01266479 0.18643188 C105.57521248 0.20345657 105.57521248 0.20345657 107.16932678 0.2208252 C108.07578477 0.22455391 108.98224276 0.22828262 109.91616917 0.23212433 C112.21069336 0.61523438 112.21069336 0.61523438 114.0015173 1.89208221 C116.18778744 5.00765507 115.63539081 8.87686389 115.60913086 12.55273438 C115.61343613 13.86745728 115.61343613 13.86745728 115.61782837 15.20874023 C115.61986934 17.06136725 115.61433714 18.9140158 115.60180664 20.76660156 C115.58575319 23.60465616 115.60165391 26.44128664 115.62084961 29.27929688 C115.61886718 31.07877919 115.61502352 32.87826062 115.60913086 34.67773438 C115.61520355 35.52779053 115.62127625 36.37784668 115.62753296 37.25366211 C115.55645116 43.19879572 115.55645116 43.19879572 113.81143188 45.30053711 C109.18268424 49.10215853 102.89023581 47.67091616 97.21069336 47.61523438 C97.21069336 55.20523438 97.21069336 62.79523438 97.21069336 70.61523438 C101.48006836 71.17210938 101.48006836 71.17210938 105.83569336 71.74023438 C128.43874134 74.98347658 159.53477575 81.52182586 175.21069336 99.61523438 C177.68786633 103.89191441 178.58598938 106.97714088 178.58821678 111.90492535 C178.59604002 113.15511037 178.60386327 114.40529539 178.61192358 115.6933648 C178.60543806 117.07281479 178.59866812 118.45226346 178.59164429 119.83171082 C178.59510186 121.30318353 178.59986709 122.77465366 178.60582602 124.24611837 C178.61835168 128.28580128 178.6121586 132.32527162 178.60286736 136.36495531 C178.5960838 140.72283582 178.60655454 145.08067962 178.61480713 149.43855286 C178.62815305 157.97327245 178.62526319 166.50791294 178.61656921 175.04263564 C178.60979778 181.97658927 178.60887359 188.91052071 178.61214066 195.8444767 C178.61260035 196.83082619 178.61306005 197.81717569 178.61353368 198.83341456 C178.61449284 200.83704017 178.61546548 202.84066577 178.61645146 204.84429137 C178.62500752 223.63496395 178.61516712 242.42559264 178.59905036 261.21625803 C178.58564073 277.35049281 178.58798016 293.48466286 178.60180664 309.61889648 C178.61784787 328.34636146 178.62419012 347.07378798 178.61496985 365.80125886 C178.61401418 367.79665235 178.61307106 369.79204585 178.61214066 371.78743935 C178.61167783 372.76927054 178.611215 373.75110173 178.61073815 374.76268538 C178.60814435 381.69236204 178.61252752 388.62201436 178.61957932 395.55168724 C178.62797806 403.99057433 178.62574827 412.42937766 178.60973708 420.8682551 C178.60183335 425.17645725 178.59879845 429.48451957 178.60868454 433.79272079 C178.6175883 437.732287 178.61277056 441.67158304 178.59675188 445.61112455 C178.59338573 447.04032691 178.59513902 448.46955185 178.60237925 449.89873984 C178.611433 451.83350008 178.6004 453.76832376 178.58821678 455.70306683 C178.5874862 457.31864468 178.5874862 457.31864468 178.58674085 458.96686047 C178.21069336 461.61523438 178.21069336 461.61523438 176.87459815 463.42224485 C172.8582697 466.30187944 168.28349759 465.81108328 163.56225586 465.85351562 C162.71271332 465.86158737 161.86317078 465.86965912 160.98788452 465.87797546 C159.19075553 465.89179985 157.39360047 465.90252936 155.59643555 465.91040039 C152.8527649 465.92762719 150.11029528 465.97152838 147.36694336 466.015625 C145.61955637 466.02575127 143.87215916 466.03426758 142.12475586 466.04101562 C140.89796616 466.06727776 140.89796616 466.06727776 139.64639282 466.09407043 C135.94012954 466.08000239 133.67609183 465.86079838 130.35351562 464.10766602 C127.47877841 460.7639048 126.33730057 457.47403495 125.01147461 453.31054688 C124.73451248 452.48633743 124.45755035 451.66212799 124.17219543 450.8129425 C123.27366277 448.12692326 122.39836161 445.43394682 121.52319336 442.74023438 C120.90929967 440.89085768 120.29389218 439.04198282 119.67700195 437.19360352 C118.43502077 433.46381235 117.20221615 429.73119377 115.9777832 425.99560547 C114.36179486 421.06693448 112.72329045 416.14612133 111.07397461 411.22851562 C108.77245609 404.36193826 106.48525613 397.49079869 104.21069336 390.61523438 C103.20208252 390.74369751 103.20208252 390.74369751 102.1730957 390.87475586 C86.85208877 392.80060981 71.65027516 394.2369135 56.21069336 394.61523438 C54.59807617 394.65970703 54.59807617 394.65970703 52.95288086 394.70507812 C50.03321819 394.7425097 47.12964626 394.69573308 44.21069336 394.61523438 C43.1157959 394.58840576 43.1157959 394.58840576 41.9987793 394.56103516 C30.74914921 394.25800737 19.64235809 393.41759522 8.46850586 392.07226562 C7.28200439 391.93228149 6.09550293 391.79229736 4.87304688 391.64807129 C1.98521004 391.30691374 -0.90220986 390.9625894 -3.78930664 390.61523438 C-6.08313379 397.35116144 -8.37588808 404.08745305 -10.66796875 410.82397461 C-11.44442656 413.10563008 -12.22111143 415.3872083 -12.99804688 417.66870117 C-13.75282613 419.88522487 -14.50725176 422.10186903 -15.26132202 424.31863403 C-16.01133694 426.52296823 -16.76233291 428.72696888 -17.51431274 430.93063354 C-19.31587869 436.22215121 -21.09119653 441.51950378 -22.80444336 446.84033203 C-23.11884872 447.80969193 -23.43325409 448.77905182 -23.75718689 449.77778625 C-24.34309241 451.59053694 -24.92164364 453.40568748 -25.49147034 455.22355652 C-25.75145309 456.02545914 -26.01143585 456.82736176 -26.27929688 457.65356445 C-26.49996323 458.35016678 -26.72062958 459.0467691 -26.94798279 459.76448059 C-27.92737823 461.91896582 -28.9682521 463.11221511 -30.78930664 464.61523438 C-34.67311729 465.90983793 -38.38716697 465.81711091 -42.43774414 465.85351562 C-43.28728668 465.86158737 -44.13682922 465.86965912 -45.01211548 465.87797546 C-46.80924447 465.89179985 -48.60639953 465.90252936 -50.40356445 465.91040039 C-53.1472351 465.92762719 -55.88970472 465.97152838 -58.63305664 466.015625 C-60.38044363 466.02575127 -62.12784084 466.03426758 -63.87524414 466.04101562 C-65.10203384 466.06727776 -65.10203384 466.06727776 -66.35360718 466.09407043 C-67.50973007 466.08968208 -67.50973007 466.08968208 -68.68920898 466.08520508 C-69.69822769 466.09400444 -69.69822769 466.09400444 -70.72763062 466.10298157 C-73.85526242 465.36305269 -75.49795614 463.8357194 -77.78930664 461.61523438 C-78.41029912 458.91911435 -78.41029912 458.91911435 -78.40454578 455.76628494 C-78.41450103 454.56351607 -78.42445627 453.36074719 -78.43471318 452.12153077 C-78.42044805 450.78521896 -78.40572006 449.44891204 -78.39057922 448.11260986 C-78.39275909 446.69434623 -78.39713605 445.27608454 -78.40352505 443.85783362 C-78.41472504 439.95587417 -78.39467912 436.05459868 -78.36963475 432.15272641 C-78.3480768 427.94689511 -78.35534686 423.74110354 -78.35914612 419.53523254 C-78.36177007 412.24676599 -78.34605988 404.95852294 -78.31795692 397.67011261 C-78.27735115 387.13228594 -78.26430271 376.59456754 -78.25801697 366.05667111 C-78.24706918 348.96040825 -78.21378188 331.86426455 -78.16650391 314.76806641 C-78.12062083 298.159023 -78.08522279 281.55001194 -78.06396484 264.94091797 C-78.06265123 263.91742938 -78.06133761 262.89394079 -78.05998418 261.8394374 C-78.05345908 256.7049837 -78.04714052 251.57052977 -78.04092467 246.43607569 C-77.9890766 203.82904603 -77.90099816 161.22214635 -77.78930664 118.61523438 C-80.75930664 118.61523438 -83.72930664 118.61523438 -86.78930664 118.61523438 C-86.78654126 119.43191243 -86.78377588 120.24859049 -86.7809267 121.09001637 C-86.71472813 140.94427986 -86.66505594 160.79852439 -86.63387012 180.65287495 C-86.61838878 190.25421927 -86.5972751 199.85549001 -86.56298828 209.45678711 C-86.53312467 217.8234349 -86.51374087 226.19002941 -86.50704116 234.55672902 C-86.50312373 238.98851724 -86.49389106 243.42015302 -86.47211647 247.85189247 C-86.45179923 252.02067921 -86.44546313 256.18925027 -86.4499836 260.35808182 C-86.44915625 261.8903756 -86.44316221 263.42267638 -86.43169022 264.95492744 C-86.41682004 267.04295768 -86.42033222 269.13016774 -86.42854309 271.21821594 C-86.42577771 272.38797124 -86.42301233 273.55772654 -86.42016315 274.76292896 C-86.78930664 277.61523438 -86.78930664 277.61523438 -88.08799267 279.48979473 C-91.02774265 281.43447468 -94.40610597 281.06201197 -97.81665039 281.04882812 C-98.60197647 281.05406998 -99.38730255 281.05931183 -100.19642639 281.06471252 C-101.85652485 281.0711326 -103.51666879 281.06979587 -105.17675781 281.0612793 C-107.71444939 281.05277578 -110.24988478 281.08151672 -112.78735352 281.11328125 C-114.40128513 281.11489357 -116.01522073 281.11431514 -117.62915039 281.11132812 C-118.38655014 281.1225621 -119.14394989 281.13379608 -119.92430115 281.14537048 C-123.16406626 281.10261062 -125.31487015 280.95309713 -127.98908901 279.0486927 C-130.38814462 275.80575043 -130.34957807 273.0597625 -130.30397034 269.17819214 C-130.31091587 268.42637291 -130.31786139 267.67455368 -130.32501739 266.89995205 C-130.34332438 264.37880102 -130.33301306 261.8585871 -130.32275391 259.33740234 C-130.32981085 257.53039342 -130.33855492 255.72339041 -130.34886169 253.91639709 C-130.37139911 249.00486561 -130.36840455 244.09365575 -130.35954022 239.18209219 C-130.35443338 235.07953486 -130.36172102 230.97703813 -130.3690123 226.87448704 C-130.38602753 217.19035951 -130.38243194 207.50638946 -130.36572266 197.82226562 C-130.34882606 187.84294101 -130.36459832 177.86405459 -130.39694554 167.8847779 C-130.42367967 159.31133063 -130.43090632 150.73801944 -130.42243046 142.16453469 C-130.41750914 137.04676419 -130.41967279 131.92925691 -130.44021797 126.81151962 C-130.45863321 121.99326129 -130.4525451 117.17562977 -130.42801857 112.35740471 C-130.42302786 110.59424206 -130.42645499 108.83103122 -130.43916702 107.06790733 C-130.50087995 97.76856335 -130.52935322 89.45671466 -124.78930664 81.61523438 C-122.47290039 79.36132812 -122.47290039 79.36132812 -120.22680664 78.05273438 C-119.48301758 77.59769531 -118.73922852 77.14265625 -117.97290039 76.67382812 C-114.58462517 75.0312117 -111.52525357 74.49124378 -107.77815247 74.47720337 C-106.98946274 74.47175003 -106.20077301 74.46629669 -105.38818359 74.4606781 C-104.10331055 74.45911461 -104.10331055 74.45911461 -102.79248047 74.45751953 C-101.88286057 74.45243881 -100.97324066 74.44735809 -100.03605652 74.44212341 C-98.05977655 74.43142559 -96.0834845 74.4228031 -94.10718727 74.41600418 C-90.96427326 74.4041762 -87.82149426 74.38470749 -84.67863464 74.36288452 C-75.74169521 74.30144112 -66.80476652 74.2474952 -57.86767578 74.21386719 C-52.39696953 74.1927315 -46.92650499 74.15726911 -41.45593834 74.11310959 C-39.38507655 74.09908535 -37.31417195 74.09025838 -35.24326515 74.08705521 C-22.69057775 74.06560641 -11.09803708 73.16671882 1.21069336 70.61523438 C1.54069336 63.02523437 1.87069336 55.43523437 2.21069336 47.61523438 C-2.67211914 47.76171875 -2.67211914 47.76171875 -7.55493164 47.90820312 C-11.05233539 47.59140931 -12.36025362 47.09633853 -14.78930664 44.61523438 C-16.01985219 40.92359772 -15.99000707 37.47063669 -16.02758789 33.62304688 C-16.03565964 32.84009247 -16.04373138 32.05713806 -16.05204773 31.25045776 C-16.0658683 29.59456586 -16.07659951 27.93864571 -16.08447266 26.28271484 C-16.10169721 23.75628546 -16.14560044 21.23116134 -16.18969727 18.70507812 C-16.19982391 17.09441064 -16.2083401 15.48373206 -16.21508789 13.87304688 C-16.23259598 13.12080841 -16.25010406 12.36856995 -16.2681427 11.59353638 C-16.254713 8.33115958 -15.90932187 5.8659901 -14.49676514 2.91464233 C-10.13306036 -0.79139323 -5.54460022 -0.06448576 0 0 Z " fill="#000000" transform="translate(231.789306640625,27.384765625)"/>
<path d="M0 0 C1.47128246 2.94256491 1.15880085 5.92062547 1.1673584 9.14752197 C1.17315178 9.89228751 1.17894517 10.63705305 1.18491411 11.40438724 C1.20302754 13.91313983 1.21386098 16.42186984 1.22460938 18.93066406 C1.23578101 20.72415881 1.24729421 22.51765145 1.25912476 24.31114197 C1.29572384 30.21260664 1.32090538 36.11409289 1.34375 42.015625 C1.34769587 43.01898864 1.35164173 44.02235228 1.35570717 45.05612087 C1.39212516 54.51542952 1.42357612 63.97474555 1.44481659 73.4341011 C1.47240432 85.54216806 1.52319216 97.64964997 1.60529089 109.75747323 C1.66103659 118.26623604 1.69004596 126.77483989 1.6992898 135.28377891 C1.70555432 140.36811294 1.72373817 145.45176138 1.77067566 150.5358963 C1.81429325 155.31972193 1.82484581 160.10248591 1.81004715 164.88647652 C1.81037624 166.64169074 1.82268724 168.39695005 1.84789658 170.15198326 C2.02804593 183.39322255 2.02804593 183.39322255 -0.49961853 187.34381866 C-2.28254059 188.92353264 -3.85786722 189.97753811 -6 191 C-7.59328125 191.85271484 -7.59328125 191.85271484 -9.21875 192.72265625 C-12.80016061 194.18506558 -16.38355877 195.62664388 -20 197 C-21.10988281 197.433125 -22.21976563 197.86625 -23.36328125 198.3125 C-38.4599677 203.78355285 -54.5698206 206.20400438 -70.375 208.75 C-71.45056152 208.92329834 -71.45056152 208.92329834 -72.54785156 209.10009766 C-74.69572034 209.429118 -76.84473388 209.72363483 -79 210 C-79.73661865 210.09643799 -80.4732373 210.19287598 -81.23217773 210.29223633 C-91.21406166 211.39805222 -101.28351637 211.19876255 -111.3125 211.1875 C-112.29898529 211.18689575 -113.28547058 211.1862915 -114.30184937 211.18566895 C-128.28524833 211.16235309 -142.13980242 211.03899768 -156 209 C-156.9079834 208.87109375 -157.8159668 208.7421875 -158.75146484 208.609375 C-180.57847009 205.41788193 -205.66016423 201.04949853 -224 188 C-224.5534802 187.60798558 -225.10696039 187.21597116 -225.67721272 186.81207752 C-227.73022727 183.99966651 -227.43024122 181.04626129 -227.41459656 177.69425964 C-227.42280436 176.94455613 -227.43101216 176.19485262 -227.43946868 175.42243081 C-227.46319819 172.90284448 -227.46537015 170.38370421 -227.4675293 167.86401367 C-227.47977621 166.06051308 -227.49322789 164.25702032 -227.50779724 162.45353699 C-227.54290463 157.54850124 -227.55811549 152.64360014 -227.56763434 147.73845458 C-227.57420412 144.67478942 -227.58454691 141.61116015 -227.59613991 138.54751015 C-227.63589674 127.86165712 -227.6579031 117.17591206 -227.66577148 106.48999023 C-227.67364303 96.52576754 -227.72287831 86.5623144 -227.79083699 76.59833735 C-227.84712566 68.04706204 -227.87268362 59.49604287 -227.87471896 50.94458371 C-227.87656135 45.8356327 -227.89125894 40.72749271 -227.93753624 35.61873436 C-227.98014653 30.81258306 -227.98458928 26.00789289 -227.95974159 21.20163155 C-227.95715277 19.43836388 -227.96823076 17.67501488 -227.99401855 15.9119339 C-228.17724223 2.58366147 -228.17724223 2.58366147 -225.24852943 -1.3561306 C-223.21029404 -2.92156567 -221.35618734 -3.9945594 -219 -5 C-218.12214844 -5.49628906 -217.24429688 -5.99257812 -216.33984375 -6.50390625 C-161.46984471 -30.68239363 -49.38447164 -42.32954712 0 0 Z " fill="#C9BEB0" transform="translate(395,196)"/>
<path d="M0 0 C3.54743786 0.00314082 7.09402307 -0.02031444 10.64135742 -0.0456543 C43.96109561 -0.13749354 90.22170998 2.3168962 118.22802734 23.24414062 C121.69821628 27.65007936 121.28227849 31.19592144 121.13549805 36.64770508 C121.12488594 38.135326 121.12488594 38.135326 121.11405945 39.65299988 C121.08613113 42.81216724 121.02339399 45.96954465 120.9597168 49.12817383 C120.93463198 51.27333047 120.91181913 53.41851498 120.89135742 55.5637207 C120.83631006 60.81497967 120.75269989 66.06519886 120.6472168 71.31567383 C120.04828613 71.01314697 119.44935547 70.71062012 118.83227539 70.39892578 C95.77502382 58.96819671 71.60755999 53.62587763 46.18188477 50.62426758 C43.87438519 50.34333139 41.57651154 50.02404818 39.27612305 49.69067383 C16.37429444 46.56722197 -7.2028125 47.61454126 -30.1027832 50.12817383 C-30.8633905 50.2108551 -31.6239978 50.29353638 -32.40765381 50.37872314 C-42.51727578 51.50305171 -52.40987632 53.14219891 -62.3527832 55.31567383 C-63.27800781 55.51733154 -64.20323242 55.71898926 -65.15649414 55.92675781 C-78.32909679 58.8917471 -90.47988226 62.84559826 -102.57495117 68.91723633 C-103.91902542 69.59133545 -103.91902542 69.59133545 -105.29025269 70.27905273 C-106.31120529 70.79218018 -106.31120529 70.79218018 -107.3527832 71.31567383 C-107.55602435 64.87498038 -107.69588262 58.43511611 -107.79223633 51.99194336 C-107.83240966 49.80152489 -107.88696139 47.61132018 -107.95629883 45.42163086 C-108.0536238 42.26858816 -108.09876995 39.1183845 -108.1340332 35.96411133 C-108.17532349 34.98888519 -108.21661377 34.01365906 -108.25915527 33.00888062 C-108.2635346 26.33748382 -108.2635346 26.33748382 -105.62896729 23.38165283 C-91.06759323 12.25886228 -70.24663911 8.13988342 -52.6652832 4.56567383 C-51.69357178 4.36707764 -50.72186035 4.16848145 -49.72070312 3.96386719 C-33.10185048 0.74380073 -16.90485938 -0.03114933 0 0 Z " fill="#727479" transform="translate(275.352783203125,109.684326171875)"/>
<path d="M0 0 C0.92364349 -0.00860046 1.84728699 -0.01720093 2.79891968 -0.02606201 C4.31607323 -0.03245193 4.31607323 -0.03245193 5.86387634 -0.03897095 C6.93089783 -0.04714844 7.99791931 -0.05532593 9.09727478 -0.06375122 C12.63657572 -0.08860825 16.17583645 -0.10512457 19.7151947 -0.11953735 C21.52926724 -0.12752287 21.52926724 -0.12752287 23.37998772 -0.13566971 C29.7846043 -0.16240611 36.18920139 -0.18177711 42.59385681 -0.19619751 C49.19908552 -0.21282158 55.803813 -0.25758004 62.40885258 -0.30856895 C67.49536693 -0.34228391 72.5817631 -0.35377982 77.66837883 -0.35942459 C80.10235347 -0.36612814 82.53632058 -0.38132665 84.97018623 -0.4053154 C88.38568087 -0.43705111 91.79983453 -0.43699 95.21543884 -0.42959595 C96.21270493 -0.44600128 97.20997101 -0.46240662 98.23745728 -0.47930908 C105.23754072 -0.4175843 110.66417062 1.19099797 116.49253845 5.15390015 C121.02179448 9.80030129 122.59862507 14.37338879 122.65367126 20.71957397 C122.66327881 21.6176326 122.67288635 22.51569122 122.68278503 23.44096375 C122.68915985 24.88634773 122.68915985 24.88634773 122.69566345 26.3609314 C122.70136353 27.35968796 122.7070636 28.35844452 122.7129364 29.38746643 C122.72237574 31.49978581 122.72891615 33.61211984 122.73277283 35.72445679 C122.7424711 38.94403993 122.77350195 42.16298256 122.80503845 45.38241577 C122.81156972 47.43775054 122.8168197 49.49308985 122.82066345 51.5484314 C122.83301025 52.50594803 122.84535706 53.46346466 122.858078 54.44999695 C122.83487801 61.46554227 121.8428134 66.2664195 117.30503845 71.84140015 C110.35583622 77.55518865 104.40412153 78.74364272 95.52183533 78.67147827 C94.45087112 78.67848755 93.37990692 78.68549683 92.27648926 78.69271851 C88.75448789 78.71024961 85.23329727 78.6986924 81.71128845 78.68515015 C79.25323839 78.68784644 76.79518937 78.69173001 74.33714294 78.69674683 C69.19271155 78.70263529 64.04855851 78.69409949 58.90415955 78.67538452 C52.32018119 78.6525959 45.73685514 78.6657224 39.1529007 78.68967438 C34.07930107 78.70414965 29.00585531 78.69951831 23.93225098 78.68916321 C21.50503461 78.68650073 19.07780413 78.68974875 16.65060425 78.69908142 C13.25444192 78.709275 9.85932625 78.69370506 6.46324158 78.67147827 C5.46664017 78.6795752 4.47003876 78.68767212 3.4432373 78.6960144 C-3.66605883 78.61010563 -9.32168486 77.24742461 -14.53089905 72.1890564 C-14.97691467 71.53807983 -15.4229303 70.88710327 -15.88246155 70.21640015 C-16.34394592 69.56800171 -16.8054303 68.91960327 -17.28089905 68.2515564 C-20.58580388 62.59953763 -20.84052088 57.81271312 -20.8785553 51.3921814 C-20.88758377 50.44634689 -20.89661224 49.50051239 -20.90591431 48.52601624 C-20.92039825 46.52643995 -20.92929892 44.52681648 -20.93299866 42.52719116 C-20.94485474 39.49372654 -20.99402448 36.46232408 -21.04457092 33.42929077 C-21.21045192 13.89559241 -21.21045192 13.89559241 -15.50746155 7.15390015 C-10.69753134 2.7395509 -6.67030158 0.04629919 0 0 Z " fill="#010101" transform="translate(230.50746154785156,275.8460998535156)"/>
<path d="M0 0 C0.07017576 13.83013455 0.1228304 27.66024138 0.15543652 41.49051762 C0.17108649 47.9126052 0.19231295 54.33457309 0.22631836 60.7565918 C0.25893506 66.95520134 0.27685804 73.15369582 0.28463173 79.35238457 C0.29017104 81.71625009 0.30098793 84.08010937 0.31719017 86.44392586 C0.33899466 89.75710747 0.34196559 93.06981472 0.34057617 96.38305664 C0.351362 97.35841873 0.36214783 98.33378082 0.3732605 99.33869934 C0.34721094 105.08639689 -0.51842824 108.8360678 -3 114 C-3.44294974 116.40660267 -3.44294974 116.40660267 -3.40405273 118.69091797 C-3.42307899 119.96792068 -3.42307899 119.96792068 -3.44248962 121.27072144 C-3.43955399 122.16880524 -3.43661835 123.06688904 -3.43359375 123.9921875 C-3.4388356 124.93756378 -3.44407745 125.88294006 -3.44947815 126.85696411 C-3.45587628 128.84880597 -3.4545901 130.84068573 -3.44604492 132.83251953 C-3.43754468 135.85909248 -3.46631188 138.88376978 -3.49804688 141.91015625 C-3.49965952 143.85416611 -3.49908014 145.79817927 -3.49609375 147.7421875 C-3.50732773 148.63622284 -3.51856171 149.53025818 -3.53013611 150.4513855 C-3.4688447 156.05486118 -2.35912875 159.85003973 0.10700989 164.85394287 C1.53595006 168.28800916 1.4475513 171.43986772 1.28515625 175.10546875 C1.26599403 176.19702019 1.26599403 176.19702019 1.2464447 177.31062317 C1.20471629 179.60386943 1.1363397 181.89507999 1.0625 184.1875 C0.99414635 186.49051084 0.93226197 188.79288101 0.88926697 191.09651184 C0.86229111 192.52045507 0.82098578 193.9442273 0.76271057 195.36723328 C0.65527981 200.69244706 1.884899 204.69410381 5.515625 208.65234375 C19.69379327 219.15823871 36.89909234 223.91622977 54 227 C54 227.33 54 227.66 54 228 C22.96443044 227.61940773 -16.95059917 223.53515059 -43 205 C-43.5534802 204.60798558 -44.10696039 204.21597116 -44.67721272 203.81207752 C-46.73022727 200.99966651 -46.43024122 198.04626129 -46.41459656 194.69425964 C-46.42280436 193.94455613 -46.43101216 193.19485262 -46.43946868 192.42243081 C-46.46319819 189.90284448 -46.46537015 187.38370421 -46.4675293 184.86401367 C-46.47977621 183.06051308 -46.49322789 181.25702032 -46.50779724 179.45353699 C-46.54290463 174.54850124 -46.55811549 169.64360014 -46.56763434 164.73845458 C-46.57420412 161.67478942 -46.58454691 158.61116015 -46.59613991 155.54751015 C-46.63589674 144.86165712 -46.6579031 134.17591206 -46.66577148 123.48999023 C-46.67364303 113.52576754 -46.72287831 103.5623144 -46.79083699 93.59833735 C-46.84712566 85.04706204 -46.87268362 76.49604287 -46.87471896 67.94458371 C-46.87656135 62.8356327 -46.89125894 57.72749271 -46.93753624 52.61873436 C-46.98014653 47.81258306 -46.98458928 43.00789289 -46.95974159 38.20163155 C-46.95715277 36.43836388 -46.96823076 34.67501488 -46.99401855 32.9119339 C-47.17724223 19.58366147 -47.17724223 19.58366147 -44.24852943 15.6438694 C-42.21029404 14.07843433 -40.35618734 13.0054406 -38 12 C-37.12214844 11.50371094 -36.24429688 11.00742188 -35.33984375 10.49609375 C-27.71948089 7.13817776 -19.94765296 4.47279595 -12 2 C-10.79859375 1.62230469 -9.5971875 1.24460938 -8.359375 0.85546875 C-5.35048381 0.08925111 -3.06538334 -0.07156918 0 0 Z " fill="#BDB09E" transform="translate(214,179)"/>
<path d="M0 0 C33.66 0 67.32 0 102 0 C102 5.94 102 11.88 102 18 C98.74479167 18.16276042 95.48958333 18.32552083 92.234375 18.48828125 C88.68626611 19.04963664 87.44781481 19.41677415 85 22 C84.57377884 24.63109603 84.39489039 26.87525112 84.390625 29.51171875 C84.37499512 30.15741821 84.35936523 30.80311768 84.34326172 31.46838379 C84.29076409 33.87438399 84.27241235 36.2810315 84.25 38.6875 C84.1675 44.070625 84.085 49.45375 84 55 C62.22 55 40.44 55 18 55 C17.67 44.44 17.34 33.88 17 23 C12.63204596 18.63204596 12.02578859 18.48103154 6.25 18.25 C4.1875 18.1675 2.125 18.085 0 18 C0 12.06 0 6.12 0 0 Z " fill="#517D7B" transform="translate(231,42)"/>
<path d="M0 0 C1.34569061 0.01665459 1.34569061 0.01665459 2.71856689 0.03364563 C4.24970123 0.03421211 4.24970123 0.03421211 5.81176758 0.03479004 C7.45414398 0.07349968 7.45414398 0.07349968 9.12969971 0.11299133 C10.25603821 0.12006607 11.38237671 0.12714081 12.54284668 0.13442993 C16.14018171 0.16241766 19.73596015 0.22516861 23.33282471 0.28877258 C25.77160431 0.31384959 28.21040832 0.33666379 30.64923096 0.35713196 C36.62762661 0.4122588 42.60511446 0.49593027 48.58282471 0.60127258 C47.80253906 1.2238092 47.02225342 1.84634583 46.21832275 2.48774719 C43.90633144 4.34183786 41.63694822 6.22565709 39.39532471 8.16377258 C38.72114502 8.74256165 38.04696533 9.32135071 37.35235596 9.91767883 C35.37327406 11.67677613 35.37327406 11.67677613 33.58282471 14.60127258 C31.47564697 14.98603821 31.47564697 14.98603821 28.89923096 15.00752258 C27.97175049 15.02943665 27.04427002 15.05135071 26.08868408 15.07392883 C25.11737549 15.08295227 24.14606689 15.09197571 23.14532471 15.10127258 C21.22978853 15.11913901 19.31431745 15.14983664 17.39923096 15.19502258 C16.12221313 15.20565735 16.12221313 15.20565735 14.81939697 15.21650696 C11.98472652 15.70416558 11.28645058 16.29420226 9.58282471 18.60127258 C9.12097476 21.55937897 9.12097476 21.55937897 9.18409729 24.99829102 C9.17745046 25.65013912 9.17080364 26.30198722 9.16395539 26.97358829 C9.14527611 29.16173406 9.14793384 31.34933538 9.15045166 33.53755188 C9.14143746 35.10448482 9.13111109 36.67141068 9.11956787 38.23832703 C9.09193135 42.49629653 9.08270437 46.75413249 9.0767138 51.01218009 C9.06734738 55.46053622 9.04114546 59.90879191 9.01670837 64.35708618 C8.97299188 72.78242503 8.94447659 81.20774445 8.92138499 89.63316232 C8.89436087 99.22440085 8.85044769 108.8155386 8.80509627 118.40670526 C8.71217625 138.13817526 8.64112834 157.86967256 8.58282471 177.60127258 C3.63282471 177.60127258 -1.31717529 177.60127258 -6.41717529 177.60127258 C-6.50973867 155.26164664 -6.58113706 132.92206683 -6.62442398 110.58228779 C-6.64505635 100.20972481 -6.67318987 89.83728311 -6.71893311 79.46479797 C-6.75878017 70.42499228 -6.7846032 61.38527442 -6.79352927 52.34538335 C-6.79874762 47.55801885 -6.81102669 42.77090563 -6.84009552 37.9836216 C-6.86723095 33.47827382 -6.87562409 28.973281 -6.86960602 24.46785927 C-6.8707071 22.8138435 -6.87867224 21.15981595 -6.89399719 19.50587082 C-6.91389662 17.24758748 -6.90911576 14.99064461 -6.89819336 12.73233032 C-6.90188053 11.46855214 -6.9055677 10.20477396 -6.90936661 8.90269947 C-6.24493128 4.44592711 -4.57198737 1.13728229 0 0 Z " fill="#4F5057" transform="translate(122.41717529296875,116.39872741699219)"/>
<path d="M0 0 C0 26.4 0 52.8 0 80 C-7.92 80 -15.84 80 -24 80 C-26.02758894 74.20615171 -28.0543323 68.41202008 -30.07910156 62.6171875 C-30.76515951 60.65445963 -31.45166753 58.691889 -32.13867188 56.72949219 C-35.62927149 46.7578085 -39.10676626 36.78140285 -42.4921875 26.7734375 C-42.74799591 26.02736237 -43.00380432 25.28128723 -43.2673645 24.51260376 C-44.26112766 21.55045941 -45 19.14730098 -45 16 C-44.47269287 15.84966309 -43.94538574 15.69932617 -43.40209961 15.54443359 C-31.25738037 12.05719245 -11.77578754 0 0 0 Z " fill="#505259" transform="translate(396,398)"/>
<path d="M0 0 C2.74118322 1.09647329 5.47342021 2.22288976 8.14453125 3.48046875 C20.0173848 9.05447831 32.37349923 12.54429315 45 16 C42.92562102 24.0146829 40.45539808 31.8389907 37.76953125 39.66796875 C37.1766053 41.40920769 37.1766053 41.40920769 36.57170105 43.18562317 C35.32175719 46.85398944 34.06720882 50.52076113 32.8125 54.1875 C31.95867823 56.6906508 31.10515964 59.19390504 30.25195312 61.69726562 C28.17203268 67.79957839 26.08587872 73.89970841 24 80 C16.08 80 8.16 80 0 80 C0 53.6 0 27.2 0 0 Z " fill="#51535A" transform="translate(168,398)"/>
<path d="M0 0 C-2.85138976 2.85138976 -6.25655618 3.18725784 -10.0625 4.125 C-23.2558339 7.60855091 -36.74098191 12.50972951 -46 23 C-47.42267862 25.84535725 -47.21971869 28.36218552 -47.31640625 31.5390625 C-47.37924805 33.49199219 -47.37924805 33.49199219 -47.44335938 35.484375 C-47.48317299 36.86458045 -47.52288522 38.24478883 -47.5625 39.625 C-47.60569407 41.01303415 -47.64930865 42.40105528 -47.69335938 43.7890625 C-47.79972 47.19260256 -47.90174714 50.59621778 -48 54 C-53.3137653 55.83685714 -58.58944775 57.44189732 -64.0625 58.75 C-74.62273955 61.41889261 -84.29686936 66.1275393 -94 71 C-94.20324114 64.55930656 -94.34309941 58.11944228 -94.43945312 51.67626953 C-94.47962646 49.48585106 -94.53417819 47.29564635 -94.60351562 45.10595703 C-94.70084059 41.95291433 -94.74598674 38.80271068 -94.78125 35.6484375 C-94.82254028 34.67321136 -94.86383057 33.69798523 -94.90637207 32.69320679 C-94.9107514 26.02180999 -94.9107514 26.02180999 -92.27618408 23.065979 C-69.19050093 5.43184519 -28.34387987 -0.89980571 0 0 Z " fill="#51535A" transform="translate(262,110)"/>
<path d="M0 0 C25.74 0 51.48 0 78 0 C78 5.61 78 11.22 78 17 C74.74479167 17.16276042 71.48958333 17.32552083 68.234375 17.48828125 C64.84985961 18.0237541 63.39545512 18.59884142 61 21 C60.04831317 23.85506049 59.8099054 25.90937282 59.68359375 28.88671875 C59.62075195 30.2934082 59.62075195 30.2934082 59.55664062 31.72851562 C59.51732422 32.70498047 59.47800781 33.68144531 59.4375 34.6875 C59.37272461 36.16959961 59.37272461 36.16959961 59.30664062 37.68164062 C59.20058346 40.12095546 59.09852286 42.56037113 59 45 C37.47553386 41.22612335 16.14043601 23.63039014 3 7 C0 2.40136054 0 2.40136054 0 0 Z " fill="#729693" transform="translate(255,43)"/>
<path d="M0 0 C1.74506836 0.00966797 1.74506836 0.00966797 3.52539062 0.01953125 C4.74033203 0.03628906 5.95527344 0.05304688 7.20703125 0.0703125 C8.43357422 0.07933594 9.66011719 0.08835937 10.92382812 0.09765625 C13.9559242 0.12125233 16.98763063 0.15417409 20.01953125 0.1953125 C20.12776898 2.44425204 20.2052277 4.69468825 20.26953125 6.9453125 C20.3159375 8.19828125 20.36234375 9.45125 20.41015625 10.7421875 C20.01953125 14.1953125 20.01953125 14.1953125 18.63441467 16.379776 C14.56359736 19.20618017 10.63448329 18.74473617 5.79077148 18.69702148 C4.23167557 18.70512596 4.23167557 18.70512596 2.64108276 18.71339417 C-0.79685886 18.72590839 -4.23396756 18.70937293 -7.671875 18.69140625 C-10.05793807 18.69156116 -12.4440014 18.69304885 -14.83006287 18.69581604 C-19.83107626 18.69720121 -24.83180326 18.68462093 -29.83276367 18.66186523 C-36.25136266 18.63346525 -42.6694862 18.6362207 -49.08812046 18.64895535 C-54.01482727 18.65590106 -58.94142366 18.64813612 -63.86811638 18.63569832 C-66.23526524 18.63117414 -68.60242592 18.63085541 -70.96957588 18.63476372 C-74.27366685 18.63766541 -77.57709604 18.62121879 -80.88110352 18.59936523 C-81.86456253 18.60386688 -82.84802155 18.60836853 -83.86128235 18.61300659 C-84.75994019 18.60310196 -85.65859802 18.59319733 -86.58448792 18.58299255 C-87.36558206 18.58056266 -88.1466762 18.57813276 -88.95143986 18.57562923 C-91.50620178 18.09677025 -92.41744049 17.23738252 -93.98046875 15.1953125 C-93.98046875 14.5353125 -93.98046875 13.8753125 -93.98046875 13.1953125 C-93.15156128 13.20499054 -92.32265381 13.21466858 -91.46862793 13.22463989 C-83.58538178 13.30763633 -75.70369991 13.34135954 -67.82001495 13.32228279 C-63.76846524 13.31414859 -59.71872684 13.32383589 -55.66748047 13.37695312 C-30.41662453 14.15986713 -30.41662453 14.15986713 -8.98046875 2.1953125 C-5.48710057 -0.13359962 -4.1203901 -0.04019893 0 0 Z " fill="#507D7B" transform="translate(318.98046875,321.8046875)"/>
<path d="M0 0 C0.89590851 -0.0071553 1.79181702 -0.01431061 2.71487427 -0.02168274 C4.20084862 -0.02571609 4.20084862 -0.02571609 5.71684265 -0.02983093 C7.27287201 -0.03968773 7.27287201 -0.03968773 8.8603363 -0.04974365 C12.30949465 -0.06953121 15.75860937 -0.08115112 19.20780945 -0.09111023 C20.38238394 -0.09518576 21.55695843 -0.09926128 22.76712608 -0.10346031 C28.98327333 -0.12434394 35.19939834 -0.13863595 41.41557312 -0.147995 C47.84874188 -0.1590667 54.28156542 -0.19346921 60.71461201 -0.23316669 C65.64990905 -0.25926543 70.58512302 -0.26768082 75.52048302 -0.27127647 C77.89241557 -0.27615957 80.264344 -0.28782212 82.63620949 -0.30631447 C85.95243078 -0.33056297 89.26774806 -0.3297668 92.58403015 -0.32279968 C94.06089546 -0.34201477 94.06089546 -0.34201477 95.56759644 -0.36161804 C102.18367091 -0.31081924 102.18367091 -0.31081924 105.46139526 1.96072388 C107.47895059 5.15006162 107.23265363 7.66778446 107.0945282 11.39717102 C107.05843445 12.66045227 107.0223407 13.92373352 106.9851532 15.22529602 C106.93874695 16.18951477 106.8923407 17.15373352 106.8445282 18.14717102 C89.086045 19.61151371 77.70393906 18.71472618 63.8445282 7.14717102 C60.97763916 5.7137265 58.48776742 5.98263043 55.28349304 5.94184875 C54.27356041 5.92699936 54.27356041 5.92699936 53.2432251 5.91184998 C51.01400794 5.88021987 48.78476946 5.85547168 46.5554657 5.83076477 C45.01132142 5.81019654 43.46718279 5.7892001 41.92304993 5.76779175 C37.85588653 5.71255753 33.78867221 5.66315424 29.72142029 5.61494446 C25.57230591 5.56473927 21.42326561 5.50904809 17.2742157 5.45381165 C9.13104915 5.34621356 0.98782067 5.24477228 -7.1554718 5.14717102 C-4.67725827 0.02552971 -4.67725827 0.02552971 0 0 Z " fill="#507D7B" transform="translate(232.1554718017578,289.8528289794922)"/>
<path d="M0 0 C8.61473328 -0.11610295 17.229137 -0.20482005 25.84446049 -0.25906086 C29.84540095 -0.28510045 33.84580421 -0.32039338 37.84643555 -0.37719727 C41.71089863 -0.43172127 45.57484665 -0.46146292 49.43966484 -0.47438622 C50.91044658 -0.48358984 52.38120169 -0.50156279 53.85176277 -0.52865028 C66.81616648 -0.7578483 66.81616648 -0.7578483 71.45874023 2.53051758 C72.29735596 3.34544678 73.13597168 4.16037598 74 5 C72.62811488 9.11565535 70.76049237 9.94243453 67 12 C63.7348938 12.48101807 63.7348938 12.48101807 60.16845703 12.45410156 C59.18690895 12.45497772 59.18690895 12.45497772 58.18553162 12.45587158 C56.04240141 12.45310522 53.90069688 12.42208636 51.7578125 12.390625 C50.26423909 12.38315735 48.77065583 12.37746689 47.27706909 12.37347412 C43.3608864 12.35825874 39.44530451 12.31901342 35.52935791 12.2746582 C31.5274671 12.23361629 27.52547846 12.21544416 23.5234375 12.1953125 C15.68201707 12.15251418 7.84108344 12.08431375 0 12 C0 8.04 0 4.08 0 0 Z " fill="#F0AC13" transform="translate(224,309)"/>
</svg>
