<?xml version="1.0" encoding="UTF-8"?>
<svg version="1.1" xmlns="http://www.w3.org/2000/svg" width="512" height="512">
<path d="M0 0 C17.33606563 12.83230968 38.0453201 30.63181638 43.9921875 52.21484375 C45.40633246 63.93991849 44.36361059 74.80007748 37.27734375 84.58203125 C30.6772621 92.46746797 23.26965732 97.46097582 12.84765625 98.41015625 C3.31118169 98.86069836 -4.17733007 96.14422969 -11.4453125 89.96484375 C-17.06528648 84.51382468 -19.39999836 79.52633917 -21.4453125 72.08984375 C-22.810974 67.42800449 -24.26341814 64.49118882 -28.0078125 61.21484375 C-30.66340458 60.03505728 -33.33716153 59.10576076 -36.09765625 58.19921875 C-45.7567452 54.93198329 -53.57342266 50.26824279 -58.3828125 41.02734375 C-61.95815006 33.3947753 -62.21209567 24.52529725 -60.359375 16.35546875 C-56.89438427 6.8193404 -49.9676748 -0.18337097 -41.0078125 -4.78515625 C-26.59338015 -10.52925335 -12.69541637 -8.50556932 0 0 Z " fill="#010000" transform="translate(357.0078125,382.78515625)"/>
<path d="M0 0 C8.31610082 4.44718637 15.86487021 10.82823077 18.82421875 20.04296875 C21.11167965 29.52674825 20.92211927 38.93260835 16.03125 47.62109375 C10.4946295 55.37236246 4.10854959 59.02518199 -4.640625 62.26171875 C-12.3716938 65.15034326 -12.3716938 65.15034326 -17.640625 71.26171875 C-18.71390383 73.98126191 -19.69230674 76.72287857 -20.65234375 79.484375 C-23.81716464 88.37839736 -28.23383296 95.18753218 -36.828125 99.63671875 C-44.52006802 103.23986925 -54.23433923 103.73131474 -62.4140625 101.5078125 C-64.60204998 100.55570191 -66.60280158 99.49988994 -68.640625 98.26171875 C-70.2184375 97.39546875 -70.2184375 97.39546875 -71.828125 96.51171875 C-79.2989751 90.53503867 -84.1620578 81.69638567 -85.640625 72.26171875 C-86.7918844 55.36920107 -81.21600604 44.29587769 -70.390625 31.76171875 C-68.16419732 29.23979194 -65.90982712 26.74516828 -63.640625 24.26171875 C-62.81433594 23.35035156 -61.98804688 22.43898438 -61.13671875 21.5 C-56.3327029 16.45212548 -51.10426446 12.1090457 -45.578125 7.88671875 C-44.92932373 7.3863208 -44.28052246 6.88592285 -43.61206055 6.37036133 C-30.97772361 -3.01773005 -14.8263434 -6.40228465 0 0 Z " fill="#010000" transform="translate(304.640625,2.73828125)"/>
<path d="M0 0 C7.54467751 5.88812876 12.50750328 14.29902007 14.046875 23.71484375 C15.38993342 40.98806733 10.54213403 51.47142012 -0.34814453 64.36669922 C-3.44565932 67.91899489 -6.6820063 71.32257251 -9.953125 74.71484375 C-10.66855469 75.4934375 -11.38398438 76.27203125 -12.12109375 77.07421875 C-20.43542744 85.87212532 -31.2571914 94.97414004 -42.953125 98.71484375 C-43.53578125 98.90175781 -44.1184375 99.08867187 -44.71875 99.28125 C-55.86231106 101.44372426 -67.02198675 100.09346675 -76.63671875 94.01953125 C-84.1707815 88.48932768 -89.19333346 81.87740585 -91.390625 72.71484375 C-92.90728953 62.46538454 -90.59459433 54.41006496 -84.953125 45.71484375 C-79.76694878 39.64614595 -73.21537759 36.18722899 -65.59375 34.0546875 C-59.6137234 32.37907602 -56.0792072 30.20242457 -52.953125 24.71484375 C-51.8498579 21.74387354 -50.92445257 18.74583579 -50 15.71484375 C-46.8903437 6.80358987 -41.16793165 1.35277935 -33.19140625 -3.31640625 C-22.67727618 -8.24276654 -9.43497723 -6.20821501 0 0 Z " fill="#000000" transform="translate(201.953125,244.28515625)"/>
<path d="M0 0 C8.3834782 -0.45916577 16.86407896 2.45626486 23.46484375 7.6640625 C30.2743553 14.33704249 33.56148564 22.60632773 34.22265625 32.03125 C34.0416609 39.12817309 31.81861472 44.63226932 28.46337891 50.76464844 C25.88755138 55.63913219 25.48646354 58.81103347 26.0234375 64.19140625 C27.19871149 67.56231684 27.19871149 67.56231684 28.8984375 70.69140625 C33.66460148 80.50542239 35.41956952 88.89610138 32.3046875 99.6796875 C29.03348075 107.84360434 23.41748339 114.2756333 15.53125 118.21875 C5.71638934 122.02544829 -3.78194195 121.72695534 -13.63671875 118.25390625 C-23.3482627 113.93099333 -30.39362868 106.4110101 -34.7578125 96.7734375 C-42.04736966 75.34868136 -42.73621405 44.16528454 -34.1640625 23.00390625 C-28.23174051 11.72130142 -20.07635825 5.10183093 -7.9765625 1.19140625 C-5.27781263 0.53048792 -2.75271814 0.26656757 0 0 Z " fill="#010000" transform="translate(162.9765625,24.80859375)"/>
<path d="M0 0 C7.05694858 4.74986924 11.80012028 11.81604381 14 20 C15.02313311 30.70720693 13.62707311 38.78216039 8.25 48 C6.39236734 52.45831838 6.15014244 56.24610925 7 61 C8.34348285 64.24675021 9.87812528 67.26860275 11.58984375 70.3359375 C15.29814096 77.34164026 15.07577244 86.25623238 13.3515625 93.859375 C10.0199394 103.02845737 3.70203654 109.70119395 -5 114 C-13.42955195 117.40424213 -23.11672012 116.97940772 -31.6328125 114.02734375 C-41.54481285 109.72560103 -50.39618969 101.91314704 -54.4375 91.75 C-57.91306973 79.96309601 -58.37652956 67.88592108 -58.3125 55.6875 C-58.31067719 54.9652121 -58.30885437 54.24292419 -58.30697632 53.49874878 C-58.23274622 36.02034176 -57.47363766 19.2252967 -44.94921875 5.75 C-41.6371172 2.77640983 -38.01764081 0.86080206 -34 -1 C-32.824375 -1.598125 -31.64875 -2.19625 -30.4375 -2.8125 C-20.84845922 -6.15617354 -8.6880691 -5.05971841 0 0 Z " fill="#010000" transform="translate(481,277)"/>
<path d="M0 0 C0.73879395 0.0112793 1.47758789 0.02255859 2.23876953 0.03417969 C23.8938974 0.56450935 40.25963452 7.42988686 55.53271484 22.82568359 C68.01901891 36.0411149 74.0537413 51.15948411 73.9375 69.3125 C72.96186004 75.90285231 69.65855596 81.64425228 64.9375 86.3125 C56.56188266 91.89624489 47.82617968 92.30289597 38.08203125 90.6640625 C18.68993662 86.56944792 3.72188163 73.85135365 -7.7421875 57.98828125 C-15.43811013 46.09980376 -17.24076398 33.05999631 -17.25 19.1875 C-17.26224609 18.21167969 -17.27449219 17.23585938 -17.28710938 16.23046875 C-17.28904297 15.28558594 -17.29097656 14.34070313 -17.29296875 13.3671875 C-17.29707764 12.51624512 -17.30118652 11.66530273 -17.30541992 10.78857422 C-17.02558067 7.93618261 -16.37274294 5.86064617 -15.0625 3.3125 C-10.07213387 0.44569393 -5.73967118 -0.14584519 0 0 Z " fill="#000000" transform="translate(76.0625,365.6875)"/>
<path d="M0 0 C16.80114046 8.88960731 31.81286601 25.31433441 37.48120117 43.47753906 C39.97197484 52.55878629 40.82942359 63.65348166 36.76953125 72.34765625 C32.96512634 78.64202281 27.93430488 82.33086694 20.89453125 84.59765625 C4.29086936 86.34001583 -10.5037599 81.80927543 -23.66796875 71.47265625 C-37.63487366 59.44056068 -48.99533438 45.54244977 -51.10546875 26.59765625 C-52.59711609 1.65548152 -52.59711609 1.65548152 -49.10546875 -3.40234375 C-37.59422097 -11.4205562 -11.74878718 -5.30542717 0 0 Z " fill="#010000" transform="translate(456.10546875,107.40234375)"/>
<path d="M0 0 C1.45696289 -0.0309375 1.45696289 -0.0309375 2.94335938 -0.0625 C11.74208284 -0.11074523 11.74208284 -0.11074523 15.8125 3.25 C19.1460485 6.5835485 18.1426128 10.87102507 18.18359375 15.40625 C18.18343262 16.08042969 18.18327148 16.75460938 18.18310547 17.44921875 C18.18739433 19.45068779 18.2241483 21.45200402 18.26171875 23.453125 C18.31974292 42.94924619 11.6000288 56.85734124 -1.75 70.5 C-14.78339885 83.39888288 -28.00919773 90.42955624 -46.5625 91.30859375 C-54.19491593 91.18522496 -60.14336779 89.21578101 -65.71875 83.9296875 C-71.57279177 77.23490569 -72.55204228 70.58968613 -72.46484375 61.95703125 C-71.15043546 44.38839088 -63.00523977 32.36361838 -51.1875 20.25 C-50.59066406 19.5796875 -49.99382812 18.909375 -49.37890625 18.21875 C-36.29861045 3.86630573 -18.51755491 0.09948989 0 0 Z " fill="#000000" transform="translate(319.1875,216.75)"/>
<path d="M0 0 C0.92361328 -0.020625 1.84722656 -0.04125 2.79882812 -0.0625 C7.80091992 -0.09130974 11.26575071 -0.03848266 15.3125 3.25 C18.6460485 6.5835485 17.6426128 10.87102507 17.68359375 15.40625 C17.68343262 16.08042969 17.68327148 16.75460938 17.68310547 17.44921875 C17.68739433 19.45068779 17.7241483 21.45200402 17.76171875 23.453125 C17.82035396 43.15455604 11.00212672 56.90952139 -2.5 70.625 C-3.24652832 71.38651367 -3.99305664 72.14802734 -4.76220703 72.93261719 C-16.01277167 83.97632524 -30.30480207 90.92049288 -46.1875 91.5625 C-54.28904254 91.30530817 -61.12107681 89.00924435 -66.9921875 83.31640625 C-72.24025842 76.91956404 -73.35668098 69.85032165 -73.0703125 61.74609375 C-71.14944914 44.20351513 -63.60102956 32.46180644 -51.6875 20.25 C-51.09066406 19.5796875 -50.49382812 18.909375 -49.87890625 18.21875 C-36.77678044 3.8423526 -18.57362528 0.1050099 0 0 Z " fill="#000000" transform="translate(319.6875,105.75)"/>
<path d="M0 0 C1.46618847 1.42678288 2.91609696 2.87043618 4.3515625 4.328125 C5.4821106 5.47559204 5.4821106 5.47559204 6.63549805 6.64624023 C21.19102104 21.83948487 25.60592432 38.32781736 25.37939453 58.91650391 C24.90806886 75.62593107 19.91619418 90.39300556 7.9765625 102.578125 C0.31807201 108.5240729 -6.45969716 109.19252286 -16.0234375 108.578125 C-25.01277235 106.07290053 -31.34928724 99.02348386 -36.41796875 91.47265625 C-39.38364079 86.12578769 -41.24592539 80.41012755 -43.0234375 74.578125 C-43.20374512 73.9895874 -43.38405273 73.4010498 -43.56982422 72.79467773 C-44.55554363 67.9780219 -44.2495769 62.9618237 -44.26367188 58.06323242 C-44.2732913 56.04627857 -44.30429894 54.03038318 -44.3359375 52.01367188 C-44.41461 32.17836861 -37.06923548 17.77510626 -23.42578125 3.85546875 C-15.44711302 -3.9948776 -9.68878081 -8.83341815 0 0 Z " fill="#000000" transform="translate(78.0234375,115.421875)"/>
<path d="M0 0 C6.58717437 5.3682393 11.88195283 12.67393863 12.87353516 21.3190918 C13.35318643 29.92934234 13.52190319 37.95734113 8.65234375 45.390625 C8.22824219 46.08414063 7.80414063 46.77765625 7.3671875 47.4921875 C2.50541731 54.72390137 -4.55889921 59.47989123 -12.90234375 61.921875 C-22.00876419 63.6675147 -31.46563335 62.85681707 -39.53515625 58.1015625 C-47.86532268 52.20102794 -53.99413887 44.70159477 -55.8828125 34.5 C-57.05431423 23.99688108 -55.48820386 15.10728625 -49.34765625 6.390625 C-36.71219767 -8.86842522 -16.34702845 -11.2062824 0 0 Z " fill="#010000" transform="translate(243.34765625,347.609375)"/>
<path d="M0 0 C7.28775903 5.40461716 11.54742777 14.13656067 13.13671875 22.87109375 C14.24316519 32.28271839 11.82671035 39.87539506 7.38671875 48.12109375 C1.3677965 55.47755428 -5.27909634 59.89583828 -14.36328125 62.62109375 C-25.71209639 63.75597526 -35.37805649 61.87136242 -44.63671875 54.890625 C-48.20735328 51.65199684 -50.61384467 48.110131 -52.86328125 43.87109375 C-53.20230469 43.26910156 -53.54132813 42.66710937 -53.890625 42.046875 C-57.38643258 34.62029761 -57.01935084 25.28471053 -54.984375 17.515625 C-50.96716961 7.05498127 -45.28335816 1.12309973 -35.4140625 -4 C-23.64922063 -9.20679832 -10.61834861 -6.4333391 0 0 Z " fill="#010100" transform="translate(379.86328125,296.12890625)"/>
<path d="M0 0 C3.57063453 3.23862816 5.97712592 6.780494 8.2265625 11.01953125 C8.56558594 11.62152344 8.90460938 12.22351563 9.25390625 12.84375 C12.73170597 20.23207106 12.68590748 30.73379433 10.1015625 38.39453125 C9.2578125 40.1953125 9.2578125 40.1953125 8.2265625 42.01953125 C7.824375 42.75558594 7.4221875 43.49164063 7.0078125 44.25 C2.61085592 51.54161966 -4.01362499 57.95054884 -12.29296875 60.578125 C-24.16471998 62.69073585 -34.25060202 61.19410994 -44.6328125 54.890625 C-52.38990816 49.15277332 -56.16793867 40.23777034 -57.7734375 31.01953125 C-58.84986617 22.03434197 -56.3275895 13.36074093 -51.27734375 5.8984375 C-45.55641443 -1.24900926 -38.56810733 -5.56136594 -29.7109375 -7.73046875 C-18.44968519 -8.6888732 -9.19415327 -6.93209969 0 0 Z " fill="#000000" transform="translate(193.7734375,160.98046875)"/>
<path d="M0 0 C7.00841561 7.67669974 9.45883926 17.48341302 9.3359375 27.5859375 C8.56385487 36.69651251 4.45404642 44.3708238 -1.9375 50.8125 C-11.76842526 58.79370413 -21.66121776 60.03402062 -33.9375 58.8125 C-37.36667252 57.978889 -39.99658397 56.73910009 -42.9375 54.8125 C-43.63101563 54.38839844 -44.32453125 53.96429688 -45.0390625 53.52734375 C-50.44605034 49.89230886 -53.80660466 45.47932302 -56.9375 39.8125 C-57.27910156 39.19761719 -57.62070313 38.58273437 -57.97265625 37.94921875 C-61.42638095 30.44740742 -61.08636505 20.74714364 -58.8125 12.9375 C-55.22180509 3.89364694 -48.17917683 -3.35920571 -39.4375 -7.5 C-25.68837899 -13.04586394 -10.96273252 -9.84747619 0 0 Z " fill="#010000" transform="translate(272.9375,453.1875)"/>
<path d="M0 0 C7.88485713 5.65985336 13.01383819 12.65431475 14.8203125 22.29296875 C16.07803218 33.49202588 14.16335687 43.01679719 7.26953125 52.05859375 C4.0139396 55.59125703 0.47626051 58.00734337 -3.75 60.25 C-4.65298828 60.75853516 -4.65298828 60.75853516 -5.57421875 61.27734375 C-13.22868194 64.88042078 -23.62624937 64.45076687 -31.625 62.1875 C-40.65136489 58.52266012 -47.06441901 51.64770332 -51.75 43.25 C-55.43839427 34.27655756 -55.12243492 23.58081111 -51.5625 14.625 C-47.29080117 5.81982693 -41.3062966 -0.22762076 -32.0390625 -3.79296875 C-20.56965082 -7.21451593 -10.27593617 -6.44832236 0 0 Z " fill="#010000" transform="translate(70.75,269.75)"/>
<path d="M0 0 C8.6016043 4.89849671 13.24536408 11.7276124 16.9609375 20.84765625 C18.61431419 30.43724107 18.33584716 40.10917319 13.296875 48.66015625 C7.28645406 57.1454564 0.02530898 62.24084481 -9.9140625 65.22265625 C-19.37033052 66.16828305 -28.68103065 65.45202799 -36.6640625 59.78515625 C-45.20987721 52.64029477 -50.45190953 45.36049524 -51.828125 34.078125 C-52.24536187 24.11933972 -49.8400922 15.55743709 -43.7265625 7.59765625 C-32.25331505 -4.52781715 -14.84428836 -7.14356504 0 0 Z " fill="#010100" transform="translate(392.4140625,37.52734375)"/>
<path d="M0 0 C7.64707065 6.02912756 11.37908706 14.0686029 12.5625 23.5625 C13.24781299 32.92844419 11.14080456 40.57340635 5.8125 48.3125 C3.3125 51.125 3.3125 51.125 0.8125 53.3125 C0.090625 53.993125 -0.63125 54.67375 -1.375 55.375 C-9.38576483 60.89352688 -17.99958868 63.08237065 -27.5625 61.6875 C-35.70141634 60.00319648 -42.74340216 56.71732099 -48.1875 50.3125 C-48.868125 49.590625 -49.54875 48.86875 -50.25 48.125 C-55.99012726 39.79255721 -58.00008214 30.75116883 -56.5625 20.8125 C-55.42470183 15.32339259 -53.26330372 10.9639455 -50.1875 6.3125 C-49.61 5.425625 -49.0325 4.53875 -48.4375 3.625 C-34.82733154 -10.3632287 -15.61304604 -10.6251353 0 0 Z " fill="#000000" transform="translate(423.1875,194.6875)"/>
<path d="M0 0 C4.51281912 2.59778518 7.17067485 4.98746047 8.8046875 10.09375 C9.2850264 15.71574474 8.05910373 19.45055101 5.3671875 24.28125 C0.81860136 32.70288968 -0.10952058 39.44935705 0.8046875 49.09375 C2.43283074 54.52508496 4.81095499 59.40440473 7.6796875 64.28125 C9.32996454 68.40694259 9.05449478 71.85955443 7.8046875 76.09375 C5.63622103 79.89058162 2.86943308 82.46197148 -1.1953125 84.09375 C-7.78568026 85.06593158 -13.03710195 84.53177569 -18.4765625 80.5859375 C-26.60995108 73.52467741 -28.05542319 65.43782013 -29.1953125 55.09375 C-29.44820758 50.58856762 -29.47646068 46.10504495 -29.4453125 41.59375 C-29.45304687 40.47355469 -29.46078125 39.35335937 -29.46875 38.19921875 C-29.41453717 14.69795782 -29.41453717 14.69795782 -22.1953125 6.09375 C-15.82635094 0.79934083 -8.30438862 -3.42814619 0 0 Z " fill="#EC9B3D" transform="translate(469.1953125,290.90625)"/>
<path d="M0 0 C6.16724004 2.50870781 9.16774354 6.00778798 12 12 C13.78919661 17.94105029 13.73040816 23.04169307 11.1875 28.6875 C7.4467455 35.54905249 2.25653954 41.27814422 -3 47 C-3.47888672 47.52416504 -3.95777344 48.04833008 -4.45117188 48.58837891 C-12.97178963 57.79977945 -24.73235208 70.24035673 -37.8125 71.3125 C-44.42623981 71.12531868 -50.3075195 68.6924805 -55 64 C-57.99731458 59.45235029 -58.94838947 55.32803075 -58 50 C-55.57176734 45.14353467 -52.75732995 42.55486238 -48 40 C-46.3843012 39.49035004 -44.75808268 39.01335105 -43.125 38.5625 C-34.45956079 36.12006736 -28.10017042 31.46111887 -23 24 C-21.41090575 20.748388 -20.2017977 17.41036454 -19 14 C-15.40135141 4.57567029 -10.98868487 -1.37358561 0 0 Z " fill="#EC9B3D" transform="translate(186,256)"/>
<path d="M0 0 C13.32818177 7.61610387 25.40912217 19.72962051 34.75390625 31.734375 C35.37978638 32.53657471 35.37978638 32.53657471 36.01831055 33.35498047 C41.46468112 40.54050019 43.50996963 46.10003659 42.37890625 55.046875 C40.59526074 61.0125142 37.35941714 64.4738998 32.37890625 68.046875 C28.59158612 69.94053506 24.49560323 69.63497457 20.37890625 69.046875 C16.49536379 67.54039362 14.30778946 65.05768653 12.56689453 61.2890625 C11.45124027 58.54200795 10.43140272 55.77816238 9.50683594 52.9609375 C6.42670071 43.59947848 0.77214468 37.37461786 -7.55859375 32.234375 C-10.17319828 31.22054876 -12.32722837 30.71420946 -15.05859375 30.234375 C-20.09969428 29.2125303 -23.25869501 26.8868872 -26.62109375 23.046875 C-28.93881461 19.11682659 -29.09562343 15.55490692 -28.62109375 11.046875 C-22.92214406 0.08735637 -11.81400386 -4.2960014 0 0 Z " fill="#ED9C3D" transform="translate(341.62109375,393.953125)"/>
<path d="M0 0 C3.15984857 2.33030917 5.20703596 4.95313442 6.94921875 8.4375 C7.5234696 13.14447417 7.40476427 16.55894792 5.19921875 20.8125 C1.58761832 25.02603383 -1.48893154 26.75747664 -6.80078125 28.3125 C-16.62338676 31.48724249 -24.15164458 36.40155788 -29.26953125 45.63671875 C-31.00919818 49.41258674 -32.27474168 53.19855253 -33.42578125 57.1875 C-34.91238762 61.85969146 -36.99875203 63.73614718 -41.05078125 66.4375 C-45.11152655 67.79108177 -48.80547077 68.25781176 -52.921875 66.75390625 C-58.2508026 63.99203195 -61.14149051 60.16537221 -63.05078125 54.4375 C-63.86681295 46.40113721 -64.00732296 40.05238872 -58.87109375 33.56640625 C-58.27039063 32.86386719 -57.6696875 32.16132812 -57.05078125 31.4375 C-56.18066406 30.27541016 -56.18066406 30.27541016 -55.29296875 29.08984375 C-43.53381475 13.56677644 -21.13507171 -12.98349955 0 0 Z " fill="#ED9C3D" transform="translate(300.05078125,20.5625)"/>
<path d="M0 0 C6.6827919 5.72810734 6.6827919 5.72810734 7.7109375 10.1015625 C8.1441449 16.59967352 5.96085013 20.97542981 2.59765625 26.4296875 C-1.36703241 33.30474318 -0.95936884 43.18840157 0.1875 50.875 C1.50048633 54.825086 3.56052381 58.27740611 5.6171875 61.8828125 C7.80229392 66.04647299 8.00817131 68.27924066 7.1875 72.875 C5.23364079 78.22240414 2.27513713 81.33118143 -2.8125 83.875 C-9.30211895 84.69630032 -14.49661864 83.74306001 -19.8125 79.875 C-27.50470414 72.75819696 -29.10930595 66.00820659 -29.8125 55.875 C-29.95052562 51.06161921 -29.95239964 46.25256849 -29.9375 41.4375 C-29.94136719 40.19162109 -29.94523438 38.94574219 -29.94921875 37.66210938 C-29.92482103 14.42328271 -29.92482103 14.42328271 -23.8125 5.875 C-17.15718639 -0.50787387 -8.96994297 -3.58797719 0 0 Z " fill="#ED9C3D" transform="translate(171.8125,44.125)"/>
<path d="M0 0 C7.40475529 3.12388114 12.60943156 10.95805017 16 18 C20.44847456 29.97044064 20.26198081 47.73967768 15.875 59.6875 C12.97166266 65.69212951 9.60257918 71.26494721 4 75 C0.75 75.1875 0.75 75.1875 -3 74 C-5.74200061 71.26361824 -7.8612445 68.2192726 -10 65 C-10.5775 64.21625 -11.155 63.4325 -11.75 62.625 C-17.64871943 50.2376892 -18.23188692 33.08222736 -14 20 C-10.67436523 12.17819455 -5.89459868 6.05916869 0 0 Z " fill="#BC7140" transform="translate(67,132)"/>
<path d="M0 0 C14.5132439 -0.90331394 25.21147589 1.6696158 36.4296875 11.546875 C46.78609899 21.43110967 54.39335113 31.48698307 55.4375 46.1875 C55 50 55 50 53 53 C48.29692466 56.13538356 44.62659376 55.47333004 39.35546875 54.5234375 C25.29787969 51.25971752 13.16348999 40.50730181 5.4375 28.546875 C0.02272533 18.95330683 -0.52385654 10.78271381 0 0 Z " fill="#BC7140" transform="translate(423,120)"/>
<path d="M0 0 C13.83879131 -0.52999626 25.7756572 2.15148956 36.1796875 11.70703125 C47.48156888 22.60191262 55.14435341 32.26912737 55.49609375 48.51953125 C54.83086074 51.84569632 53.71072409 52.99781256 51 55 C42.44668307 56.8678177 34.42531188 54.1597823 27 50 C23.43561599 47.56255285 20.19798467 44.89765219 17 42 C16.35160156 41.42121094 15.70320313 40.84242188 15.03515625 40.24609375 C7.17389096 32.83207768 0.15856008 22.88852217 -0.2421875 11.80859375 C-0.28826222 7.8657279 -0.17592409 3.93874491 0 0 Z " fill="#BC7140" transform="translate(77,384)"/>
<path d="M0 0 C0.787536 12.92142407 -1.93746239 24.75918501 -10.45166016 34.69384766 C-17.7459529 42.86197002 -24.68417321 49.00280929 -35 53 C-35.82242187 53.36867188 -36.64484375 53.73734375 -37.4921875 54.1171875 C-40.29888344 55.10521442 -42.5918947 55.33368421 -45.5625 55.375 C-46.95662109 55.41753906 -46.95662109 55.41753906 -48.37890625 55.4609375 C-51.83172455 54.85373547 -52.95927909 53.82488682 -55 51 C-56.26365482 44.03497343 -55.22610623 37.24288495 -52 31 C-51.62101562 30.23300781 -51.24203125 29.46601563 -50.8515625 28.67578125 C-45.25800166 18.37780942 -36.27133496 9.62391756 -26 4 C-25.2678125 3.58878906 -24.535625 3.17757812 -23.78125 2.75390625 C-16.10795117 -0.94206602 -8.30523753 -0.37095354 0 0 Z " fill="#BC7140" transform="translate(320,235)"/>
<path d="M0 0 C0.78391535 12.86201853 -1.87626126 24.86829559 -10.48388672 34.69384766 C-19.42409384 44.47653259 -29.07632076 54.21566272 -42.9921875 55.21484375 C-51.25059639 55.46239797 -51.25059639 55.46239797 -53.8359375 53.8671875 C-56.74453889 49.20171278 -55.6054933 41.82563541 -54.49609375 36.6484375 C-53.80196434 34.65727771 -52.98890442 32.86170266 -52 31 C-51.67128906 30.36964844 -51.34257812 29.73929688 -51.00390625 29.08984375 C-44.04028971 16.96977759 -32.47089673 5.39710403 -19 1 C-12.75749108 -0.41339825 -6.36986519 -0.09413594 0 0 Z " fill="#BC7140" transform="translate(320,124)"/>
<path d="M0 0 C4.73963177 2.14708883 7.21570938 4.64006489 9.703125 9.31640625 C11.2149615 13.85191576 11.62656528 17.96896928 9.8671875 22.44140625 C6.94495713 27.61904933 3.24428486 31.08554968 -2.296875 33.31640625 C-7.49437987 34.45682965 -11.90175906 33.22604828 -16.46484375 30.625 C-19.71663483 28.30229209 -21.8416625 26.0784994 -23.296875 22.31640625 C-24.15265065 16.67434552 -24.10497478 11.99246505 -21.609375 6.81640625 C-15.25806456 -0.04987531 -9.28169925 -2.76241049 0 0 Z " fill="#FAC968" transform="translate(177.296875,171.68359375)"/>
<path d="M0 0 C4.3966905 2.50611359 6.94280288 5.79462501 8.75 10.5 C9.85805887 16.118741 8.80278142 20.81518231 6.02734375 25.7734375 C3.35171781 29.39003281 -0.07694074 31.10898025 -4.25 32.5 C-9.86558189 32.86823488 -13.44386946 32.73891406 -18.25 29.5 C-22.61911214 25.17181631 -25.33436349 21.62825499 -25.625 15.3125 C-25.54699633 9.99091659 -23.76480673 6.44192249 -20.25 2.5 C-14.35364464 -2.69405993 -7.08499972 -2.98877578 0 0 Z " fill="#FAC969" transform="translate(409.25,206.5)"/>
<path d="M0 0 C3.83084349 2.61193874 6.65161815 5.67823629 8.75 9.875 C9.30713132 15.83201945 9.27180186 20.82708399 5.75 25.875 C1.55940271 30.08907403 -2.08514375 32.62243344 -8 33.3125 C-13.02629593 33.15338076 -16.51983879 31.15181539 -20.25 27.875 C-23.59209565 24.15256901 -25.54274265 20.46407692 -25.9375 15.4375 C-25.59335743 9.92165941 -22.96404117 5.84376523 -19.25 1.875 C-13.13667572 -1.93140946 -6.72486255 -2.32783704 0 0 Z " fill="#FAC969" transform="translate(59.25,283.125)"/>
<path d="M0 0 C4.12593192 2.87855716 7.06537651 6.00862953 8.6875 10.875 C9.53539212 17.01616147 8.62413331 21.14300408 5.0546875 26.21484375 C2.53859725 29.2700962 0.41915708 30.63111431 -3.3125 31.875 C-8.5799928 32.37942239 -12.94429168 32.5466659 -17.75 30.1875 C-21.40249787 26.89134339 -25.04433207 23.56547167 -25.55078125 18.484375 C-25.70886908 12.39383322 -25.57740941 8.6009807 -21.3125 3.875 C-15.04126271 -1.78440926 -7.97318998 -2.70787584 0 0 Z " fill="#FBC969" transform="translate(230.3125,360.125)"/>
<path d="M0 0 C5.00230198 2.45567552 8.49851535 5.9970307 11 11 C11.52839495 17.21880209 11.72493456 22.73371321 8 28 C3.66508548 32.10676113 0.04990961 33.80162165 -5.875 34.375 C-10.54878477 34.24272307 -13.20569432 32.69979442 -17 30 C-21.62230483 25.01277637 -22.30677369 21.09353015 -22.2109375 14.5 C-21.78477177 9.44914691 -19.66920997 6.39914281 -15.9375 3.1875 C-10.74602946 -0.6784887 -6.36230412 -0.64792913 0 0 Z " fill="#FBC969" transform="translate(253,461)"/>
<path d="M0 0 C4.30036383 1.85569171 7.51802358 4.24066872 10.05078125 8.2109375 C12.19713693 13.61657404 11.57016578 19.3090339 9.76953125 24.7109375 C6.86119914 28.78260245 3.73418887 31.72271829 -1.10546875 33.3359375 C-6.0740719 33.85759807 -9.96065854 33.9083426 -14.48046875 31.6484375 C-18.29816238 28.28523121 -21.86537514 24.9651593 -22.34375 19.7265625 C-22.45615734 14.96995719 -22.5274115 11.30288964 -20.60546875 6.8984375 C-14.55544149 0.69715956 -8.62556988 -2.72049514 0 0 Z " fill="#FBCA69" transform="translate(364.10546875,307.6640625)"/>
<path d="M0 0 C4.30036383 1.85569171 7.51802358 4.24066872 10.05078125 8.2109375 C12.19713693 13.61657404 11.57016578 19.3090339 9.76953125 24.7109375 C6.86119914 28.78260245 3.73418887 31.72271829 -1.10546875 33.3359375 C-6.0740719 33.85759807 -9.96065854 33.9083426 -14.48046875 31.6484375 C-18.29816238 28.28523121 -21.86537514 24.9651593 -22.34375 19.7265625 C-22.45615734 14.96995719 -22.5274115 11.30288964 -20.60546875 6.8984375 C-14.55544149 0.69715956 -8.62556988 -2.72049514 0 0 Z " fill="#FBCA69" transform="translate(381.10546875,51.6640625)"/>
</svg>
