<?xml version="1.0" encoding="UTF-8"?>
<svg version="1.1" xmlns="http://www.w3.org/2000/svg" width="512" height="512">
<path d="M0 0 C9.77612634 8.02732682 18.44020762 17.4432121 27.25556374 26.48605156 C31.50554814 30.8375839 35.77870939 35.16628615 40.04882812 39.49804688 C45.44888966 44.97616207 50.84128807 50.46101815 56.20239258 55.97729492 C60.56867418 60.46870035 64.96179757 64.93224119 69.37390709 69.37861824 C71.03783935 71.06522676 72.69198134 72.76155738 74.33555031 74.46801567 C84.08264389 84.57603376 90.95118834 90.81069079 105 93 C111.28574819 95.52052297 114.13530775 99.03785563 117.1875 105.01171875 C119.42237305 113.23132396 117.69655351 122.24408374 116.6875 130.5625 C116.56955078 131.63435547 116.45160156 132.70621094 116.33007812 133.81054688 C114.27366441 151.05278496 114.27366441 151.05278496 107.9375 156.0625 C107.24527344 156.63097656 106.55304688 157.19945312 105.83984375 157.78515625 C104 159 104 159 102 159 C103.64263315 168.61566026 105.28577403 178.23123359 106.92953205 187.84670162 C107.69309014 192.31336862 108.45648475 196.78006341 109.21948242 201.24682617 C109.95825052 205.57170488 110.69747849 209.89650478 111.43700218 214.22125435 C111.71658303 215.85670841 111.99600863 217.49218903 112.27526283 219.1276989 C112.67176274 221.44970895 113.06888848 223.77161136 113.46606445 226.09350586 C113.59196614 226.83202254 113.71786783 227.57053923 113.84758472 228.3314352 C114.49915715 232.13896288 115.16781963 235.94252819 115.86239624 239.74246216 C116.07195466 240.89766405 116.07195466 240.89766405 116.28574657 242.07620335 C116.5510681 243.5338409 116.81991884 244.9908424 117.09301472 246.44704342 C117.7398539 250.01040115 118.14611244 253.37728149 118 257 C119.485 256.13375 119.485 256.13375 121 255.25 C122.33198213 254.49760291 123.66537379 253.7476969 125 253 C125.60199219 252.65324219 126.20398438 252.30648438 126.82421875 251.94921875 C136.0498648 246.93990569 147.54908941 244.15657549 158 246 C160.375 247.5625 160.375 247.5625 162 250 C162.24414304 252.68252161 162.25702255 254.79996657 162 257.4375 C161.94094482 258.14398682 161.88188965 258.85047363 161.82104492 259.57836914 C160.58560448 272.0237177 156.56934301 283.53481195 147 292 C150.33142278 292.50125283 150.33142278 292.50125283 154 292 C156.11586085 289.32808239 156.11586085 289.32808239 158 286 C163.90944751 279.64886698 170.04142368 276.98250903 178.66162109 276.54638672 C193.07851222 276.22616117 203.63958453 282.6036944 214.26953125 292.0078125 C216.46113034 294.5308724 216.76273643 296.61535556 216.5546875 299.92578125 C214.56932761 307.34990873 205.36853544 311.6689551 199.26953125 315.265625 C190.61674972 319.85563097 181.71350097 321.66494824 172.0703125 319.2734375 C166.42038252 317.39012751 162.26552138 315.15023701 158 311 C158.92106197 318.17252514 159.84884672 325.31838775 161.125 332.4375 C161.89830967 337.11508041 162.58034812 341.27430814 162 346 C159.91015625 348.71875 159.91015625 348.71875 157 351 C153.6875 351.41015625 153.6875 351.41015625 150 351.0625 C149.34572021 351.00328369 148.69144043 350.94406738 148.01733398 350.88305664 C142.39804923 350.27422726 137.23524348 348.66352731 131.8828125 346.875 C127.87725983 345.65922249 125.14322002 345.32201854 121 346 C120.18015625 347.2375 120.18015625 347.2375 119.34375 348.5 C116.78402759 351.23037057 116.42064266 351.38324617 112.91015625 351.62890625 C111.29414834 351.63860598 109.67769076 351.61479206 108.0625 351.5625 C107.21872803 351.54880371 106.37495605 351.53510742 105.50561523 351.52099609 C96.69582414 351.22116672 88.8363963 349.11271863 81 345 C81.33 345.66 81.66 346.32 82 347 C82.45577211 354.06446777 82.45577211 354.06446777 80.8125 357.4375 C77.3426791 360.42872492 72.88209003 360.12224631 68.48046875 360.09765625 C67.45888672 360.09443359 66.43730469 360.09121094 65.38476562 360.08789062 C64.32966797 360.07951172 63.27457031 360.07113281 62.1875 360.0625 C61.11306641 360.05798828 60.03863281 360.05347656 58.93164062 360.04882812 C56.28770317 360.03707729 53.64388048 360.02064787 51 360 C51.33386719 360.58652344 51.66773438 361.17304688 52.01171875 361.77734375 C53.49346822 365.10981588 52.82333708 367.5166508 52 371 C48.35845118 375.64096442 42.53025872 376.83243765 37 378 C27.59526539 378.99517797 17.03870239 379.68162116 9 374 C8.35933594 373.55269531 7.71867188 373.10539062 7.05859375 372.64453125 C2.79825428 369.32698089 0.40303147 365.80606294 -2 361 C-6.54849345 364.81077826 -10.89376495 368.74480427 -15.0871582 372.94189453 C-15.6506749 373.50205261 -16.21419159 374.06221069 -16.79478455 374.63934326 C-18.63273492 376.46789315 -20.46698515 378.30009708 -22.30078125 380.1328125 C-23.58628745 381.41510128 -24.87186707 382.69731647 -26.15751648 383.97946167 C-28.8396149 386.65559817 -31.51966469 389.33376723 -34.19848633 392.01318359 C-37.63104545 395.4458448 -41.07046119 398.87154707 -44.5116396 402.29556465 C-47.16329972 404.93611613 -49.81041243 407.58119005 -52.45625877 410.22756577 C-53.72291973 411.49304726 -54.99120123 412.75690887 -56.26113319 414.01910782 C-58.03214203 415.78032894 -59.79671432 417.54776115 -61.55981445 419.31689453 C-62.08396942 419.83542999 -62.60812439 420.35396545 -63.14816284 420.88821411 C-65.69066924 423.45290801 -67.44993226 425.75910845 -69 429 C-71.625 430.25 -71.625 430.25 -74 431 C-76.31 428.69 -78.62 426.38 -81 424 C-79 420 -79 420 -76.8046875 416.68359375 C-72.90201799 410.49035086 -70.09949493 403.73284465 -67.125 397.0625 C-66.55263077 395.78816544 -65.97971504 394.51407619 -65.40625 393.24023438 C-64.49133872 391.20786448 -63.57706787 389.17521837 -62.66497993 387.14157963 C-58.87710845 378.70288662 -55.043862 370.28484135 -51.21435547 361.86499023 C-50.51250882 360.32145776 -49.81068067 358.77791687 -49.10887146 357.23436737 C-47.40612752 353.48948125 -45.7031337 349.74470887 -44 346 C-44.89729419 346.00129882 -45.79458838 346.00259764 -46.7190733 346.00393581 C-68.54364546 346.03312643 -90.36790417 346.02380898 -112.19243908 345.97153378 C-122.74662803 345.94718427 -133.30052967 345.93590954 -143.85473633 345.95532227 C-153.05290596 345.97220771 -162.2506738 345.96465561 -171.44879037 345.92765242 C-176.32010877 345.90891179 -181.1907475 345.90248064 -186.06206322 345.92530632 C-190.64656362 345.94640214 -195.229818 345.93484155 -199.81420898 345.89815521 C-201.49721972 345.89045717 -203.18033395 345.89472428 -204.86327553 345.91181374 C-217.53712259 346.03065912 -217.53712259 346.03065912 -221.1225605 343.50456619 C-223.34153967 340.58621624 -223.98879571 338.15670562 -224.24804688 334.53076172 C-224.07337891 333.34240723 -223.89871094 332.15405273 -223.71875 330.9296875 C-223.6300061 330.28556915 -223.54126221 329.64145081 -223.4498291 328.97781372 C-223.2579581 327.62625423 -223.05213547 326.27660807 -222.83300781 324.92919922 C-222.50028366 322.87674978 -222.21155477 320.82170692 -221.9296875 318.76171875 C-220.6254685 309.83551276 -219.2051063 304.45248179 -211.92429543 298.8457737 C-185.34771258 278.36151904 -178.12503071 257.21364448 -173.8616848 224.65740013 C-173.5483717 222.17373181 -173.23661446 219.68986674 -172.9263916 217.20581055 C-172.09968617 210.83367658 -171.11348731 204.48623033 -170.14257812 198.13476562 C-168.27622691 185.77517291 -166.58076999 173.3991329 -165 161 C-165.78930908 160.37383789 -166.57861816 159.74767578 -167.3918457 159.10253906 C-169.50833329 157.3963525 -171.36944744 155.75814385 -173.1875 153.75 C-173.67605469 153.22921875 -174.16460937 152.7084375 -174.66796875 152.171875 C-178.75480713 145.50829101 -178.78621963 136.51647976 -179.625 128.9375 C-179.82609375 127.21950195 -179.82609375 127.21950195 -180.03125 125.46679688 C-182.20365588 106.30307357 -182.20365588 106.30307357 -176.4765625 99.078125 C-171.65438487 94.31698759 -166.52730225 92.53836383 -160.05078125 90.82421875 C-155.20449399 89.51491451 -151.79617607 88.17650326 -148.23908997 84.57293701 C-147.53146515 83.86365555 -146.82384033 83.15437408 -146.09477234 82.42359924 C-145.33364639 81.64540329 -144.57252045 80.86720734 -143.78833008 80.06542969 C-142.97460938 79.24572189 -142.16088867 78.4260141 -141.32250977 77.58146667 C-139.55681456 75.80101186 -137.79456 74.01713984 -136.03534889 72.23027802 C-133.2462333 69.39821833 -130.44760781 66.5757716 -127.64567566 63.75640869 C-120.6847885 56.74852697 -113.73902529 49.72570584 -106.79797363 42.69818115 C-101.40813255 37.24142984 -96.01375553 31.78933602 -90.60533446 26.35099149 C-87.38071698 23.1073549 -84.1714171 19.84900909 -80.96430969 16.58807373 C-79.26305162 14.87547162 -77.56119345 13.16346535 -75.85864258 11.45214844 C-75.10763779 10.68204941 -74.356633 9.91195038 -73.58287048 9.11851501 C-53.83805371 -10.59447972 -23.96562513 -15.19607709 0 0 Z M-31 345 C-33.02674373 349.31907856 -35.05322772 353.63827726 -37.07910156 357.95776367 C-37.76548136 359.42104721 -38.45200017 360.88426554 -39.13867188 362.34741211 C-39.46931641 363.05196533 -39.79996094 363.75651855 -40.140625 364.48242188 C-40.47044373 365.18513214 -40.80026245 365.88784241 -41.14007568 366.61184692 C-41.80117567 368.02271518 -42.46088803 369.4342345 -43.11920166 370.84640503 C-44.67857684 374.19135893 -46.25093234 377.52782636 -47.86621094 380.84619141 C-48.4234082 382.00683105 -48.98060547 383.1674707 -49.5546875 384.36328125 C-50.05210449 385.38333252 -50.54952148 386.40338379 -51.06201172 387.4543457 C-52.3252083 390.06558556 -52.3252083 390.06558556 -51 393 C-44.86903708 386.89215875 -38.74074247 380.78165665 -32.61588287 374.66769505 C-29.77209675 371.82913814 -26.9273835 368.99152323 -24.08056641 366.15600586 C-21.33572084 363.4219878 -18.59329142 360.68556796 -15.85255432 357.94743156 C-14.80398608 356.90071781 -13.75453495 355.85488777 -12.70420837 354.80993843 C-11.23864274 353.35158142 -9.77618532 351.89017634 -8.31445312 350.42797852 C-7.47950317 349.59524918 -6.64455322 348.76251984 -5.78430176 347.90455627 C-3.88605128 346.31333863 -3.88605128 346.31333863 -4 345 C-12.91 345 -21.82 345 -31 345 Z " fill="#020200" transform="translate(263,52)"/>
<path d="M0 0 C3.63423069 0.01036944 7.26846863 0.01482634 10.90270996 0.01983643 C17.98866483 0.0304484 25.07459076 0.04743564 32.16052246 0.06866455 C32.1395752 0.62739258 32.11862793 1.18612061 32.0970459 1.76177979 C32.01285952 4.34305129 31.96154553 6.92403279 31.91052246 9.50616455 C31.86024902 10.82390869 31.86024902 10.82390869 31.80895996 12.16827393 C31.72325185 17.97499873 32.63010889 22.10052273 35.29431152 27.27593994 C36.16052246 29.06866455 36.16052246 29.06866455 36.16052246 31.06866455 C33.42039286 30.05090213 31.13670021 29.05217222 28.72302246 27.38116455 C25.38329742 25.67057368 23.70657902 25.98942995 20.16052246 27.06866455 C14.87845547 30.89031509 13.50398758 39.97885982 12.16052246 46.06866455 C11.08133914 54.31801498 12.35296176 61.00230653 15.38317871 68.7053833 C16.16052246 71.06866455 16.16052246 71.06866455 15.16052246 73.06866455 C14.60364746 72.69612549 14.04677246 72.32358643 13.47302246 71.9397583 C7.94041304 68.5078482 7.94041304 68.5078482 1.59802246 68.25616455 C-0.10354004 68.65835205 -0.10354004 68.65835205 -1.83947754 69.06866455 C-2.29842561 70.58931249 -2.75659968 72.11019403 -3.21447754 73.63116455 C-3.46971191 74.47807861 -3.72494629 75.32499268 -3.98791504 76.1975708 C-4.26893066 77.14503174 -4.54994629 78.09249268 -4.83947754 79.06866455 C-5.37314941 80.69675049 -5.37314941 80.69675049 -5.91760254 82.35772705 C-6.97800295 86.62628802 -7.2223703 90.50207681 -7.21447754 94.88116455 C-7.2150415 95.67071533 -7.21560547 96.46026611 -7.21618652 97.27374268 C-7.09893854 103.51159178 -5.89370343 108.57351114 -2.83947754 114.06866455 C-2.50947754 114.72866455 -2.17947754 115.38866455 -1.83947754 116.06866455 C-4.60778096 115.0101956 -7.054485 113.93672815 -9.58947754 112.38116455 C-13.94389753 110.62264879 -17.30775945 111.23281433 -21.83947754 112.06866455 C-21.96193848 112.74800049 -22.08439941 113.42733643 -22.21057129 114.1272583 C-22.93632702 117.52163136 -23.92485682 120.80054876 -24.90197754 124.13116455 C-27.9786477 135.29691904 -27.93003974 144.96854139 -22.65588379 155.41241455 C-19.05987914 161.52460376 -14.58470445 165.67992069 -7.83947754 168.06866455 C-3.45111704 168.51962314 0.76935403 168.44033084 5.16052246 168.06866455 C3.85176923 171.04949123 2.53789565 174.02803297 1.22302246 177.00616455 C0.84983887 177.85630127 0.47665527 178.70643799 0.09216309 179.58233643 C-0.26555176 180.39122314 -0.6232666 181.20010986 -0.99182129 182.0335083 C-1.32174072 182.78237305 -1.65166016 183.53123779 -1.99157715 184.30279541 C-2.83947754 186.06866455 -2.83947754 186.06866455 -3.83947754 187.06866455 C-6.09238774 187.16572589 -8.34840933 187.19053093 -10.60340881 187.18891907 C-11.3188849 187.18977349 -12.03436099 187.19062792 -12.77151817 187.19150823 C-15.18685568 187.19316514 -17.60212487 187.18763826 -20.01745605 187.18218994 C-21.74171955 187.18190809 -23.46598316 187.18206577 -25.19024658 187.18263245 C-29.88632901 187.1829205 -34.58238613 187.17702257 -39.27846265 187.17005849 C-44.18054913 187.16382619 -49.08263612 187.16322125 -53.98472595 187.16203308 C-63.2743065 187.1589194 -72.56387534 187.15070551 -81.85345072 187.14068359 C-92.42642714 187.1295236 -102.99940411 187.12401229 -113.57238495 187.11898816 C-135.32808903 187.10852293 -157.08378255 187.09092278 -178.83947754 187.06866455 C-178.69723167 184.54758352 -178.55077633 182.02686052 -178.40197754 179.50616455 C-178.36266113 178.80169189 -178.32334473 178.09721924 -178.28283691 177.37139893 C-177.4779829 163.93652805 -177.4779829 163.93652805 -173.63659668 160.20050049 C-172.6253347 159.19475983 -172.6253347 159.19475983 -171.59364319 158.16870117 C-170.86137009 157.47053284 -170.12909698 156.7723645 -169.37463379 156.05303955 C-168.62612656 155.31539368 -167.87761932 154.5777478 -167.10643005 153.81774902 C-164.71872356 151.4701437 -162.31130848 149.14405254 -159.90197754 146.81866455 C-157.50067739 144.47478418 -155.10357042 142.12670975 -152.70823669 139.7767334 C-151.21798348 138.31758908 -149.72345279 136.86279802 -148.22425842 135.4128418 C-147.54693161 134.75495667 -146.8696048 134.09707153 -146.17175293 133.41925049 C-145.57520401 132.84301941 -144.97865509 132.26678833 -144.36402893 131.6730957 C-141.7432697 128.91502026 -140.58585761 126.66505035 -140.02307129 122.9788208 C-139.89867676 122.19442627 -139.77428223 121.41003174 -139.64611816 120.60186768 C-139.52430176 119.78653564 -139.40248535 118.97120361 -139.27697754 118.13116455 C-139.02707117 116.51766651 -138.77581429 114.90437694 -138.52307129 113.2913208 C-138.415354 112.57726074 -138.30763672 111.86320068 -138.19665527 111.12750244 C-137.84062375 109.07527154 -137.36983473 107.08220967 -136.83947754 105.06866455 C-133.58823766 105.74531853 -130.59335386 106.91651067 -127.5123291 108.13800049 C-102.37126841 118.02897573 -75.45840254 117.49845769 -48.83947754 118.06866455 C-48.83947754 114.76866455 -48.83947754 111.46866455 -48.83947754 108.06866455 C-49.99246338 108.084375 -51.14544922 108.10008545 -52.33337402 108.11627197 C-56.69641869 108.17142705 -61.05943406 108.20531886 -65.42272949 108.23345947 C-67.29517839 108.2483545 -69.16759364 108.2686774 -71.03991699 108.29498291 C-83.36420472 108.46353713 -94.78032337 107.73043753 -106.83947754 105.06866455 C-107.52192032 104.9184787 -108.2043631 104.76829285 -108.90748596 104.61355591 C-118.57371615 102.46435722 -126.40648011 99.13130719 -134.83947754 94.06866455 C-134.07374426 87.4720324 -133.02509691 80.94330436 -131.91369629 74.39678955 C-131.72483353 73.27915222 -131.53597076 72.16151489 -131.34138489 71.01000977 C-130.94133802 68.64643391 -130.54037408 66.28301311 -130.1385498 63.91973877 C-129.53608545 60.37229397 -128.93858581 56.82403764 -128.34143066 53.2756958 C-126.065411 39.82369563 -123.61586588 26.42663336 -120.83947754 13.06866455 C-100.29189716 8.10478796 -79.71773341 4.76067633 -58.71447754 2.38116455 C-57.66171631 2.26176514 -56.60895508 2.14236572 -55.52429199 2.01934814 C-52.29818784 1.67160024 -49.07107842 1.36086348 -45.83947754 1.06866455 C-44.77116699 0.96932617 -43.70285645 0.86998779 -42.60217285 0.76763916 C-28.43284604 -0.33297581 -14.20193612 -0.0448942 0 0 Z " fill="#885021" transform="translate(229.8394775390625,198.93133544921875)"/>
<path d="M0 0 C3.29745958 0.00916164 6.5942088 0.00230048 9.89160156 -0.02050781 C48.77954441 -0.28768974 86.94068563 4.3259111 124.96191406 12.57104492 C126.651875 12.93335205 126.651875 12.93335205 128.37597656 13.30297852 C129.41753906 13.53839355 130.45910156 13.77380859 131.53222656 14.01635742 C132.4398877 14.22019043 133.34754883 14.42402344 134.28271484 14.6340332 C138.67372047 16.02998854 141.26998929 17.59565777 143.83691406 21.44604492 C144.7586269 30.13648025 143.71593022 38.94796862 142.58691406 47.57104492 C142.47774658 48.47129395 142.3685791 49.37154297 142.25610352 50.29907227 C141.52268715 55.40557387 140.69047 58.72691535 136.83691406 62.44604492 C130.52314413 65.60292989 121.39750655 62.81947737 114.83691406 61.44604492 C114.83691406 58.20071655 115.52205051 56.47232343 116.77441406 53.50854492 C122.34941792 40.26041747 119.70742509 27.75092658 115.83691406 14.44604492 C108.11959418 12.48401444 103.83688336 14.29876766 97.05957031 18.28588867 C88.58594232 23.96578719 81.13315338 30.55732698 77.83691406 40.44604492 C77.6113073 42.83859068 77.42842811 45.23532615 77.27441406 47.63354492 C77.190625 48.90584961 77.10683594 50.1781543 77.02050781 51.48901367 C76.95992187 52.46483398 76.89933594 53.4406543 76.83691406 54.44604492 C66.74081127 54.55840219 60.92929425 52.29579554 52.83691406 46.44604492 C49.82738655 44.67639766 48.92511031 44.44449762 45.27441406 44.50854492 C44.14003906 44.81791992 43.00566406 45.12729492 41.83691406 45.44604492 C41.3802536 46.27743484 40.92359314 47.10882477 40.45309448 47.96540833 C38.83691406 50.44604492 38.83691406 50.44604492 36.431427 51.07182312 C35.47743011 51.07245255 34.52343323 51.07308197 33.54052734 51.07373047 C31.90943527 51.09351204 31.90943527 51.09351204 30.24539185 51.11369324 C29.0612973 51.10348648 27.87720276 51.09327972 26.65722656 51.08276367 C25.42068329 51.09314163 24.18414001 51.10351959 22.91012573 51.11421204 C19.59668418 51.13897526 16.28456641 51.14334354 12.97113037 51.13635254 C7.13724523 51.12820045 1.30343972 51.16721987 -4.53027344 51.20776367 C-6.46199402 51.22018852 -6.46199402 51.22018852 -8.43273926 51.23286438 C-26.95920516 51.42501135 -45.50151983 52.8236814 -63.91308594 54.88354492 C-65.06881104 55.01059814 -66.22453613 55.13765137 -67.4152832 55.26855469 C-77.30203473 56.3923167 -87.0082748 58.00997308 -96.76123047 59.9675293 C-98.62972125 60.34155555 -100.49879359 60.71268715 -102.3684082 61.08105469 C-104.17140539 61.43749591 -105.97283975 61.8019816 -107.7722168 62.17626953 C-121.18025488 64.84226371 -121.18025488 64.84226371 -127.10058594 62.07104492 C-130.20619148 58.11845605 -130.53961316 54.36118957 -131.16308594 49.44604492 C-131.25187012 48.80344727 -131.3406543 48.16084961 -131.43212891 47.4987793 C-132.40677859 40.4313364 -133.2629439 33.32511528 -133.60058594 26.19604492 C-133.64054687 25.38651367 -133.68050781 24.57698242 -133.72167969 23.74291992 C-132.86355864 20.21442219 -131.1701632 18.3137452 -128.16308594 16.44604492 C-124.25894291 15.04403584 -120.27915793 14.18060471 -116.22558594 13.32104492 C-114.52281494 12.93940186 -114.52281494 12.93940186 -112.78564453 12.55004883 C-110.55235427 12.05180654 -108.31736011 11.56112777 -106.08056641 11.07885742 C-103.83286215 10.5913219 -101.59199184 10.0722051 -99.35449219 9.53979492 C-66.85090489 1.92111968 -33.26321481 -0.09670659 0 0 Z " fill="#AE703A" transform="translate(226.1630859375,138.553955078125)"/>
<path d="M0 0 C4.98649699 3.67238114 9.39260268 7.67127203 13.7430954 12.07030296 C14.79823334 13.12500282 14.79823334 13.12500282 15.87468719 14.20100975 C18.17349304 16.50119687 20.46515398 18.80836213 22.75676727 21.11571312 C24.35915275 22.72183301 25.96198353 24.32750874 27.56523895 25.93276024 C31.7650417 30.14016574 35.95880101 34.35354456 40.15129852 38.56822777 C44.43800494 42.87546516 48.73044343 47.1769819 53.02239227 51.47899437 C61.42902999 59.90702271 69.82928954 68.34137741 78.22551727 76.77977562 C74.21605154 78.1162642 70.91100911 77.23866607 66.85051727 76.52977562 C65.11109676 76.24362786 63.37150723 75.95850598 61.63176727 75.67430687 C60.73329071 75.52558128 59.83481415 75.3768557 58.90911102 75.22362328 C31.89987719 70.75648471 4.92828913 69.41491484 -22.40265656 69.46410179 C-25.18700075 69.46873005 -27.97090756 69.46178981 -30.75519562 69.44359398 C-57.0642492 69.27378629 -83.09265098 70.79195987 -109.02448273 75.52977562 C-111.59065525 75.992926 -114.15824213 76.44358047 -116.72760773 76.88915062 C-118.33877472 77.18257347 -118.33877472 77.18257347 -119.98249054 77.48192406 C-122.67087656 77.76872285 -124.22434055 77.50425849 -126.77448273 76.77977562 C-117.34830219 67.2373624 -107.9083756 57.70878101 -98.4510231 48.19725513 C-94.05925584 43.7794776 -89.67222712 39.35720654 -85.2959671 34.92406273 C-81.06657243 30.6400442 -76.82481499 26.36862301 -72.57447815 22.10538483 C-70.96109591 20.48281722 -69.35209475 18.85588029 -67.7477417 17.22438431 C-49.80669231 -1.00782056 -25.07041429 -17.23968922 0 0 Z " fill="#FCD14E" transform="translate(255.77448272705078,60.220224380493164)"/>
<path d="M0 0 C0.66 0.33 1.32 0.66 2 1 C2.57545471 3.0852356 2.57545471 3.0852356 3.03735352 5.86767578 C3.21416153 6.90610626 3.39096954 7.94453674 3.57313538 9.01443481 C3.75653976 10.14662445 3.93994415 11.27881409 4.12890625 12.4453125 C4.32346909 13.60368622 4.51803192 14.76205994 4.7184906 15.95553589 C5.34147466 19.67735918 5.9520065 23.40110961 6.5625 27.125 C6.97772222 29.61471578 7.39372795 32.10430103 7.81054688 34.59375 C10.99981511 53.71042868 10.99981511 53.71042868 12 61 C11.00613281 60.92910156 10.01226562 60.85820312 8.98828125 60.78515625 C4.28982031 61.0382565 1.29868216 62.29175579 -2.8125 64.4375 C-3.51101074 64.79875977 -4.20952148 65.16001953 -4.92919922 65.53222656 C-14.89566307 70.88727275 -21.20949009 76.97135269 -25.84375 87.3984375 C-27 90 -27 90 -29 93 C-29.2945105 92.06933716 -29.2945105 92.06933716 -29.5949707 91.11987305 C-30.49132543 88.30595663 -31.40172836 85.49678155 -32.3125 82.6875 C-32.62123047 81.71103516 -32.92996094 80.73457031 -33.24804688 79.72851562 C-33.70727539 78.32182617 -33.70727539 78.32182617 -34.17578125 76.88671875 C-34.45333252 76.02264404 -34.73088379 75.15856934 -35.0168457 74.26831055 C-36.60274932 70.60935091 -38.2365083 69.30560109 -41.91796875 67.83203125 C-42.99691406 67.49558594 -44.07585937 67.15914063 -45.1875 66.8125 C-46.81751953 66.29623047 -46.81751953 66.29623047 -48.48046875 65.76953125 C-49.31191406 65.51558594 -50.14335937 65.26164062 -51 65 C-51 64.67 -51 64.34 -51 64 C-50.443125 63.90203125 -49.88625 63.8040625 -49.3125 63.703125 C-37.99680724 61.48586088 -29.47435645 56.2580526 -22.6875 46.765625 C-17.20665214 38.63170149 -17.20665214 38.63170149 -16.4375 29.1875 C-16.623125 28.465625 -16.80875 27.74375 -17 27 C-17.75925781 26.80664062 -18.51851563 26.61328125 -19.30078125 26.4140625 C-20.29464844 26.15367187 -21.28851563 25.89328125 -22.3125 25.625 C-23.79169922 25.24214844 -23.79169922 25.24214844 -25.30078125 24.8515625 C-28 24 -28 24 -31 22 C-30.16597656 21.79246094 -29.33195312 21.58492188 -28.47265625 21.37109375 C-15.65731622 17.86265587 -7.3347458 11.0021187 0 0 Z " fill="#864F21" transform="translate(357,236)"/>
<path d="M0 0 C7.26475288 8.99445595 9.1324806 18.68917528 8 30 C6.02652709 36.66713821 1.73116625 41.1792225 -4 45 C-7.375 45.4375 -7.375 45.4375 -11 45 C-15.30705158 41.55435874 -17.68189845 38.40105493 -18.40625 32.93359375 C-18.67682401 22.84343803 -16.5895484 16.29292746 -9.9609375 8.6484375 C-6.84638328 5.4405633 -3.61288539 2.63339202 0 0 Z " fill="#FAD04D" transform="translate(271,340)"/>
<path d="M0 0 C0.65134925 1.56020867 1.29582964 3.12328579 1.9375 4.6875 C2.29714844 5.55761719 2.65679687 6.42773438 3.02734375 7.32421875 C5.69043228 14.65038598 6.76742657 24.09386764 4.09375 31.515625 C2.87780006 33.55779734 1.60129624 35.24660174 0 37 C-0.45761719 37.52464844 -0.91523438 38.04929687 -1.38671875 38.58984375 C-4.06625842 41.2400186 -6.44640136 42.36565538 -10.125 42.625 C-14 42 -14 42 -16.375 39.75 C-16.91125 38.8425 -17.4475 37.935 -18 37 C-18.35449219 36.40058594 -18.70898438 35.80117188 -19.07421875 35.18359375 C-21.25444177 30.04121119 -20.95871844 23.61072501 -19.0546875 18.42578125 C-15.65271931 12.12465148 -8.12151035 0 0 0 Z " fill="#FAD04D" transform="translate(314,316)"/>
<path d="M0 0 C1.23940465 4.42867287 1.25964612 8.67637766 1.3125 13.25 C1.34150391 14.07113281 1.37050781 14.89226562 1.40039062 15.73828125 C1.47148202 22.6396153 -0.18394533 27.8010607 -4.78125 33.0234375 C-5.3484375 33.46945312 -5.915625 33.91546875 -6.5 34.375 C-7.0671875 34.83648437 -7.634375 35.29796875 -8.21875 35.7734375 C-11.61643501 38.11307147 -13.33697298 39.03489616 -17.5625 38.8125 C-22.10367893 37.73913043 -22.10367893 37.73913043 -24 35 C-25.81575149 29.55274554 -26.11539083 23.18294457 -24.19921875 17.71484375 C-19.6094901 9.78139526 -9.66030374 0 0 0 Z " fill="#FAD04D" transform="translate(364,307)"/>
<path d="M0 0 C8.61143771 3.11767341 15.26273194 9.21734534 20 17 C21.65235053 21.9570516 22.22831325 28.11346386 20.140625 33.01953125 C18.92002847 34.83715869 17.54913534 36.45086466 16 38 C11.87263955 38.49528325 8.89359354 38.31640475 5.375 36.125 C0.15810678 31.90909081 -2.56001906 26.41928044 -3.41015625 19.8125 C-3.60164678 12.75232726 -2.49942964 6.59075793 0 0 Z " fill="#F2A22E" transform="translate(215,320)"/>
<path d="M0 0 C7.24765043 0.9430989 12.41608675 5.91153564 16.98046875 11.3671875 C21.05856023 17.43104798 22.15640878 22.77811376 21 30 C19.46696367 34.1610986 18.69096643 35.53935571 15 38 C9.5774395 38 6.39874681 36.48757297 2.578125 32.84765625 C-2.7386714 26.62279313 -3.57531946 20.19137441 -3.33984375 12.17578125 C-2.86637545 7.75130165 -1.6736271 4.11433329 0 0 Z " fill="#F2A22E" transform="translate(254,236)"/>
<path d="M0 0 C-2.82095972 8.27087666 -9.79958933 15.38123398 -17.60546875 19.22265625 C-22.61239396 20.84806916 -28.09315885 21.27423174 -32.99609375 19.125 C-34.83711295 17.92414335 -36.44494316 16.55505684 -38 15 C-38.39609568 10.95982407 -38.2668035 8.533607 -36.4375 4.875 C-26.86904296 -6.41087241 -12.80782071 -6.40391035 0 0 Z " fill="#F2A22E" transform="translate(350,228)"/>
<path d="M0 0 C2.82772965 8.83665516 3.86534072 18.81903257 0.0625 27.5 C-2.78966719 32.42425446 -6.7520696 35.78939918 -12 38 C-14.46875 38.4609375 -14.46875 38.4609375 -17 38 C-20.53773191 35.39036137 -21.82906984 33.85274099 -22.69921875 29.51171875 C-22.66065004 16.92546284 -22.66065004 16.92546284 -17.7734375 11.63671875 C-17.18820312 11.09660156 -16.60296875 10.55648437 -16 10 C-15.15308594 9.17435547 -15.15308594 9.17435547 -14.2890625 8.33203125 C-10.600059 4.95183574 -5.18881692 0 0 0 Z " fill="#F2A22E" transform="translate(335,162)"/>
<path d="M0 0 C7.8548278 2.70091255 11.63151279 9.40278103 15.2578125 16.44140625 C17.09263257 20.33558731 18 22.59815909 18 27 C7.47654565 27.44534995 -2.64409491 27.18996485 -11 20 C-15.04710808 15.27658473 -16.55543906 11.17693354 -16.56640625 4.98046875 C-16 3 -16 3 -14.32421875 1.26953125 C-9.82648728 -1.18721283 -4.95931159 -0.65656696 0 0 Z " fill="#F9CF4D" transform="translate(316,375)"/>
<path d="M0 0 C6.25622933 1.9101352 10.32875972 4.4406933 14 10 C17.71699032 17.24498113 19.13495574 22.9026557 19 31 C10.32637969 31.77098847 1.73841946 28.4236059 -5 23 C-9.83337861 17.76383984 -11.50856783 13.15165884 -11.30859375 6.09375 C-11 4 -11 4 -9.4375 1.4375 C-5.96670451 -0.60937939 -3.9993914 -0.52451035 0 0 Z " fill="#F9CF4D" transform="translate(395,361)"/>
<path d="M0 0 C9.13817392 3.32443234 15.40285327 9.52811531 20 18 C21.65607471 22.96822412 21.41479078 26.81488349 19.6875 31.75 C17.14285714 36.65079365 17.14285714 36.65079365 15 38 C11.77213055 38.67560058 9.81679068 38.46408561 6.9375 36.828125 C1.6955359 33.08937119 -1.7235767 29.44871252 -3 23 C-3.53816399 14.68950604 -3.19396925 7.71875902 0 0 Z " fill="#F3A32E" transform="translate(235,278)"/>
<path d="M0 0 C7.34910081 2.27987703 11.48856172 7.11841671 15.25 13.6875 C17.60306337 18.57390175 17.8032719 23.64899555 18 29 C8.74002149 29.72312197 0.33898772 28.04184368 -7 22.0625 C-11.62271667 17.61672942 -13.63818616 13.57474984 -14.109375 7.16015625 C-14 5 -14 5 -12.6875 1.9375 C-8.56973661 -1.03112012 -4.90794364 -0.7896992 0 0 Z " fill="#F9CF4D" transform="translate(354,364)"/>
<path d="M0 0 C3.95000827 1.93685398 7.30187653 4.42915156 10.62890625 7.2890625 C9.16051397 11.1002829 7.26137629 12.42614921 3.75390625 14.4140625 C2.89023437 14.91164063 2.0265625 15.40921875 1.13671875 15.921875 C0.30914062 16.37304688 -0.5184375 16.82421875 -1.37109375 17.2890625 C-1.99757813 17.66933594 -2.6240625 18.04960937 -3.26953125 18.44140625 C-8.81266555 20.67720577 -16.47681883 20.40887125 -21.99609375 18.2734375 C-25.34552062 16.22930198 -27.16959671 14.59130807 -29.37109375 11.2890625 C-29.93359375 8.4765625 -29.93359375 8.4765625 -29.37109375 5.2890625 C-21.07572294 -4.32447682 -11.28188032 -4.46139791 0 0 Z " fill="#FAD04D" transform="translate(456.37109375,341.7109375)"/>
<path d="M0 0 C-0.4178504 10.98946563 -2.77909829 19.15499993 -10.21875 27.40625 C-13.83537223 30.64217515 -16.74522897 31.29283767 -21.5625 31.3125 C-22.51253906 31.32925781 -23.46257812 31.34601563 -24.44140625 31.36328125 C-27 31 -27 31 -28.8046875 29.80078125 C-31.35565469 25.95765747 -30.69194887 21.38038821 -30 17 C-27.32585683 10.01026805 -22.44835196 6.38641401 -15.890625 3.15234375 C-10.70586957 1.085448 -5.57824447 0 0 0 Z " fill="#FAD04D" transform="translate(414,308)"/>
<path d="M0 0 C9.06249601 4.36342401 16.67677234 10.0769876 20.44921875 19.69921875 C21.77497673 25.23731412 20.58544688 30.98119135 18 36 C16 38 16 38 12.375 38.5625 C7.65755149 38.44220077 5.17644698 36.26939781 1.76171875 33.21484375 C-2.41353302 27.9656913 -3.5071423 22.62556744 -3.375 16.0625 C-3.36919922 15.36318359 -3.36339844 14.66386719 -3.35742188 13.94335938 C-3.22463942 8.66648638 -2.3453019 4.69060379 0 0 Z " fill="#F4A32F" transform="translate(274,193)"/>
<path d="M0 0 C0.69931641 0.00580078 1.39863281 0.01160156 2.11914062 0.01757812 C7.39601362 0.15036058 11.37189621 1.0296981 16.0625 3.375 C14.9471337 9.53739881 10.48605254 14.44097298 5.703125 18.2578125 C-0.56275965 22.49649918 -5.36282988 24.09101359 -12.9375 23.375 C-17.04734193 22.25272678 -19.50934561 21.01723158 -21.9375 17.375 C-21.9375 11.90774588 -20.29387413 8.96761914 -16.8984375 4.953125 C-11.72198108 0.78721186 -6.49964247 -0.13086528 0 0 Z " fill="#F5A42F" transform="translate(313.9375,266.625)"/>
<path d="M0 0 C6.03129882 3.3963827 10.76831291 8.78568065 13.4375 15.125 C13.685 16.3315625 13.685 16.3315625 13.9375 17.5625 C6.54998707 19.88015112 -2.10444118 21.457998 -9.53515625 18.6171875 C-13.4534204 16.28820058 -16.78246146 13.55256745 -19.0625 9.5625 C-19.78308824 3.59191176 -19.78308824 3.59191176 -17.75 0.6875 C-12.5721914 -2.7643724 -5.54464889 -2.41071691 0 0 Z " fill="#FACF4D" transform="translate(290.0625,400.4375)"/>
<path d="M0 0 C0.74056641 0.00902344 1.48113281 0.01804687 2.24414062 0.02734375 C4.05873467 0.05075787 5.87316071 0.08662385 7.6875 0.125 C7.6875 1.115 7.6875 2.105 7.6875 3.125 C6.02899271 4.4788835 4.36929104 5.83133426 2.703125 7.17578125 C-1.12722385 10.87993643 -3.6053454 15.57498027 -6.3125 20.125 C-6.9725 21.115 -7.6325 22.105 -8.3125 23.125 C-13.2810515 23.68747753 -16.32615731 23.1733797 -20.3125 20.125 C-21.97380358 16.80239283 -21.84184163 14.83039144 -21.3125 11.125 C-15.48990938 2.47590909 -10.331137 -0.24004429 0 0 Z " fill="#F2A22E" transform="translate(294.3125,308.875)"/>
<path d="M0 0 C8.73390542 -0.3969957 17.59822884 1.97644539 26 4.15625 C26.495 7.62125 26.495 7.62125 27 11.15625 C26.37738281 10.9396875 25.75476563 10.723125 25.11328125 10.5 C18.05415129 8.37340018 11.47198 7.82715667 4.125 7.78125 C3.22177002 7.76771484 2.31854004 7.75417969 1.38793945 7.74023438 C-3.8888896 7.7755014 -7.35688235 8.40531195 -12 11.15625 C-12.66 11.15625 -13.32 11.15625 -14 11.15625 C-13.36079057 9.14730606 -12.68960962 7.14845557 -12 5.15625 C-11.79375 4.393125 -11.5875 3.63 -11.375 2.84375 C-10 1.15625 -10 1.15625 -6.4375 0.40625 C-4.29123678 0.25294548 -2.14513442 0.16758863 0 0 Z " fill="#7E4B1F" transform="translate(328,207.84375)"/>
<path d="M0 0 C2.4375 1.625 2.4375 1.625 4 4 C3.93521587 7.17442218 3.46700625 9.19571146 1.875 11.9375 C-1.22905831 13.69646638 -3.66320548 12.84936588 -7 12 C-9.31282587 8.53076119 -9.42478586 7.07794425 -9 3 C-6.79244709 -0.67925486 -4.01747809 -0.57392544 0 0 Z " fill="#0D0B04" transform="translate(234,61)"/>
<path d="M0 0 C2 2 2 2 2.375 5.4375 C2 9 2 9 0.3125 10.9375 C-2.41818887 12.19214083 -4.02932151 12.45702746 -7 12 C-8.8125 10.9375 -8.8125 10.9375 -10 9 C-10.36841966 5.56141649 -10.58367385 3.09868019 -8.9375 0 C-5.80557344 -1.61647822 -3.32814714 -0.78665296 0 0 Z " fill="#090802" transform="translate(230,80)"/>
<path d="M0 0 C2 2 2 2 2.375 5.4375 C2 9 2 9 0.3125 10.9375 C-2.41818887 12.19214083 -4.02932151 12.45702746 -7 12 C-8.8125 10.9375 -8.8125 10.9375 -10 9 C-10.36841966 5.56141649 -10.58367385 3.09868019 -8.9375 0 C-5.80557344 -1.61647822 -3.32814714 -0.78665296 0 0 Z " fill="#090702" transform="translate(254,67)"/>
<path d="M0 0 C0.66 0 1.32 0 2 0 C2.53625 0.886875 3.0725 1.77375 3.625 2.6875 C5.85836215 6.28474743 8.75621474 7.97020137 12.390625 10.01953125 C12.92171875 10.34308594 13.4528125 10.66664063 14 11 C14 11.33 14 11.66 14 12 C12.96552734 12.05607422 12.96552734 12.05607422 11.91015625 12.11328125 C5.51353535 12.56078148 -0.03070248 13.65649801 -6 16 C-4.25192871 10.53262809 -2.34205919 5.24175152 0 0 Z " fill="#7E4A1F" transform="translate(301,245)"/>
<path d="M0 0 C0.68449219 0.32742187 1.36898438 0.65484375 2.07421875 0.9921875 C5.48912059 2.16848212 8.21031284 2.19777146 11.8125 2.125 C12.97394531 2.10695312 14.13539063 2.08890625 15.33203125 2.0703125 C16.65267578 2.03550781 16.65267578 2.03550781 18 2 C16.69886826 6.09795698 15.18241122 9.97479684 13.375 13.875 C12.92898438 14.84179688 12.48296875 15.80859375 12.0234375 16.8046875 C11.68570312 17.52914062 11.34796875 18.25359375 11 19 C8.43557846 15.15336769 6.54874735 11.06608468 4.53515625 6.91015625 C3.19829027 4.37589377 1.79444408 2.22296804 0 0 Z " fill="#7E4A1F" transform="translate(275,238)"/>
<path d="M0 0 C1.82530434 1.76874562 3.31033902 3.42805382 4.8125 5.5 C7.28473113 8.32540701 9.5806639 9.5234685 13 11 C13 11.33 13 11.66 13 12 C12.39414062 12.02578125 11.78828125 12.0515625 11.1640625 12.078125 C4.48395253 12.53031706 -0.92814517 14.22244939 -7 17 C-5.1668733 11.00067626 -2.92678249 5.55079437 0 0 Z " fill="#804B1F" transform="translate(282,287)"/>
<path d="M0 0 C2 3 2 3 1.8125 6.0625 C1 9 1 9 -2 11 C-4.83079592 11.35384949 -6.36830089 11.3920891 -8.8125 9.875 C-10.55198782 7.12844028 -10.39769128 5.18153026 -10 2 C-7.65569181 -2.27491494 -4.20074737 -1.06928115 0 0 Z " fill="#0F0D04" transform="translate(249,85)"/>
<path d="M0 0 C1.11375 0.7425 1.11375 0.7425 2.25 1.5 C7.14781798 4.01989186 12.65393563 3.17820215 18 3 C15.69 8.28 13.38 13.56 11 19 C9.25401797 16.38102695 7.96349035 13.89720091 6.625 11.0625 C4.81890732 7.38064341 3.09283518 4.74918683 0 2 C0 1.34 0 0.68 0 0 Z " fill="#814C20" transform="translate(236,322)"/>
<path d="M0 0 C4.95 0.33 9.9 0.66 15 1 C13.61777376 5.14667871 12.33435798 8.55940815 10.375 12.375 C9.92898438 13.24898438 9.48296875 14.12296875 9.0234375 15.0234375 C8.68570312 15.67570312 8.34796875 16.32796875 8 17 C7.67 17 7.34 17 7 17 C6.82984375 16.41992188 6.6596875 15.83984375 6.484375 15.2421875 C4.91053764 10.16907347 3.05721536 6.32226999 0 2 C0 1.34 0 0.68 0 0 Z " fill="#7F4B1F" transform="translate(258,282)"/>
<path d="M0 0 C1.8125 1.125 1.8125 1.125 3 3 C3.39769128 6.18153026 3.55198782 8.12844028 1.8125 10.875 C-0.65507108 12.40659584 -2.14519831 12.42822025 -5 12 C-6.8125 10.875 -6.8125 10.875 -8 9 C-8.39769128 5.81846974 -8.55198782 3.87155972 -6.8125 1.125 C-4.34492892 -0.40659584 -2.85480169 -0.42822025 0 0 Z " fill="#070602" transform="translate(286,103)"/>
<path d="M0 0 C1.875 1.1875 1.875 1.1875 3 3 C3.42822025 5.85480169 3.40659584 7.34492892 1.875 9.8125 C-0.87155972 11.55198782 -2.81846974 11.39769128 -6 11 C-7.875 9.8125 -7.875 9.8125 -9 8 C-9.42822025 5.14519831 -9.40659584 3.65507108 -7.875 1.1875 C-5.12844028 -0.55198782 -3.18153026 -0.39769128 0 0 Z " fill="#070602" transform="translate(270,97)"/>
<path d="M0 0 C3.5 0.25 3.5 0.25 5.5 2.25 C5.83015665 5.35347254 6.00531294 7.40781176 4.375 10.125 C1.65781176 11.75531294 -0.39652746 11.58015665 -3.5 11.25 C-5.5 9.25 -5.5 9.25 -5.75 5.75 C-5.40898007 0.975721 -4.774279 0.34101993 0 0 Z " fill="#070602" transform="translate(264.5,79.75)"/>
<path d="M0 0 C-0.66 3.96 -1.32 7.92 -2 12 C-6 10 -10 8 -14 6 C-14 5.34 -14 4.68 -14 4 C-12.0429132 3.32968281 -10.08428887 2.66385317 -8.125 2 C-7.03445313 1.62875 -5.94390625 1.2575 -4.8203125 0.875 C-2 0 -2 0 0 0 Z " fill="#7A481E" transform="translate(333,361)"/>
<path d="M0 0 C5.28 0 10.56 0 16 0 C14.66666667 3.33333333 13.33333333 6.66666667 12 10 C11.55269531 9.60167969 11.10539062 9.20335937 10.64453125 8.79296875 C7.23958629 5.8091044 3.93753849 3.26706762 0 1 C0 0.67 0 0.34 0 0 Z " fill="#79481E" transform="translate(362,356)"/>
<path d="M0 0 C2.34914492 2.34914492 2.73140357 3.95679446 3.625 7.125 C3.88539063 8.03507812 4.14578125 8.94515625 4.4140625 9.8828125 C4.70410156 10.93082031 4.70410156 10.93082031 5 12 C1.7 12 -1.6 12 -5 12 C-3.68938409 7.76570244 -2.05643741 3.92592596 0 0 Z " fill="#814C20" transform="translate(242,374)"/>
<path d="M0 0 C3.01198042 1.50599021 3.57241758 4.02586996 5 7 C5.99 8.485 5.99 8.485 7 10 C3.04 10 -0.92 10 -5 10 C-3.51799926 6.29499816 -2.091496 3.32738 0 0 Z " fill="#834D20" transform="translate(373,336)"/>
<path d="M0 0 C2.64 0.33 5.28 0.66 8 1 C9 4 9 4 8.22265625 6.04296875 C7.83980469 6.75066406 7.45695312 7.45835937 7.0625 8.1875 C6.68222656 8.90292969 6.30195313 9.61835938 5.91015625 10.35546875 C5.60980469 10.89816406 5.30945313 11.44085938 5 12 C4.67 12 4.34 12 4 12 C3.79503906 11.30132812 3.59007812 10.60265625 3.37890625 9.8828125 C3.10949219 8.97273437 2.84007812 8.06265625 2.5625 7.125 C2.16224609 5.76761719 2.16224609 5.76761719 1.75390625 4.3828125 C1.07386174 2.01724619 1.07386174 2.01724619 0 0 Z " fill="#804C1F" transform="translate(300,203)"/>
<path d="M0 0 C1.65 0.33 3.3 0.66 5 1 C5.33 1.99 5.66 2.98 6 4 C3.36 4.66 0.72 5.32 -2 6 C-1.34 4.02 -0.68 2.04 0 0 Z " fill="#71431C" transform="translate(328,347)"/>
<path d="M0 0 C0.66 1.32 1.32 2.64 2 4 C0.68 5.32 -0.64 6.64 -2 8 C-2.66 7.67 -3.32 7.34 -4 7 C-2.68 4.69 -1.36 2.38 0 0 Z " fill="#6A3F1A" transform="translate(263,329)"/>
</svg>
