<?xml version="1.0" encoding="UTF-8"?>
<svg version="1.1" xmlns="http://www.w3.org/2000/svg" width="512" height="512">
<path d="M0 0 C4.26154855 3.49586197 6.43154561 6.10655035 7.71484375 11.578125 C7.93316718 14.7097788 7.90488878 17.81595339 7.83984375 20.953125 C7.83082031 21.78457031 7.82179688 22.61601563 7.8125 23.47265625 C7.78910595 25.50793837 7.753241 27.54307064 7.71484375 29.578125 C8.44670898 29.59270752 9.17857422 29.60729004 9.93261719 29.62231445 C56.24231878 30.6407824 112.73910188 33.60502393 148.02734375 67.8203125 C154.26324441 74.42430452 159.16564346 81.75976673 163.71484375 89.578125 C164.22313721 90.44655029 164.22313721 90.44655029 164.74169922 91.33251953 C182.7519846 122.82634703 190.63653696 164.32179309 191.02734375 200.328125 C191.05634766 201.23433594 191.08535156 202.14054688 191.11523438 203.07421875 C191.16949653 208.79261521 190.56146812 212.05920772 186.71484375 216.578125 C186.19180664 216.95420898 185.66876953 217.33029297 185.12988281 217.71777344 C182.83286717 220.73765942 183.07848852 224.22776318 182.90625 227.890625 C182.8003834 229.6100266 182.69450737 231.32942762 182.58862305 233.04882812 C182.51313736 234.4024646 182.51313736 234.4024646 182.43612671 235.78344727 C182.16939651 240.47806285 181.84698637 245.16865479 181.51953125 249.859375 C181.42223976 251.25440247 181.42223976 251.25440247 181.32298279 252.6776123 C177.0921987 311.28235946 177.0921987 311.28235946 163.40234375 330.265625 C158.88331216 334.15409404 154.64490346 335.578125 148.71484375 335.578125 C148.40933594 336.75503906 148.10382813 337.93195313 147.7890625 339.14453125 C142.50881675 358.52534277 134.47697536 376.94074914 121.71484375 392.578125 C121.24433594 393.16384277 120.77382813 393.74956055 120.2890625 394.35302734 C109.86974924 407.23627451 91.16351183 429.58838194 73.27734375 431.515625 C68.4659462 431.89590728 65.06544087 430.55566915 60.71484375 428.578125 C60.48539062 429.12339844 60.2559375 429.66867187 60.01953125 430.23046875 C48.23974914 451.42702278 19.66849552 469.78127622 -2.28515625 478.578125 C-11.72675387 480.71009866 -19.21093762 476.95236531 -27.47265625 472.515625 C-28.20532715 472.1227832 -28.93799805 471.72994141 -29.69287109 471.32519531 C-46.18339917 462.28096465 -69.66145242 446.82553267 -78.28515625 429.578125 C-78.84203125 429.73410156 -79.39890625 429.89007813 -79.97265625 430.05078125 C-88.32302298 432.18068898 -93.63754013 431.72367846 -101.16015625 427.515625 C-110.74725908 421.60197238 -119.05365044 414.22361301 -127.28515625 406.578125 C-127.94 405.98902344 -128.59484375 405.39992188 -129.26953125 404.79296875 C-147.11660851 388.01524117 -157.6559034 365.71885442 -164.64111328 342.62109375 C-165.39854712 340.21843783 -166.29351227 337.89354251 -167.28515625 335.578125 C-168.48140625 335.495625 -169.67765625 335.413125 -170.91015625 335.328125 C-175.24048854 334.76961925 -177.89830605 333.42615812 -181.28515625 330.578125 C-184.76328449 325.99984225 -186.57602138 321.56530256 -188.22265625 316.140625 C-188.47644043 315.31062988 -188.73022461 314.48063477 -188.99169922 313.62548828 C-195.98704771 290.09647417 -199.56667842 265.54509954 -200.765625 241.04296875 C-200.8012706 240.35704147 -200.8369162 239.6711142 -200.87364197 238.96440125 C-201.03976047 235.70358628 -201.17230272 232.44758953 -201.25073242 229.18334961 C-201.53440058 222.59868545 -202.00505941 218.4749103 -206.91455078 213.83447266 C-207.36685059 213.41987793 -207.81915039 213.0052832 -208.28515625 212.578125 C-219.35766871 190.43310008 -202.48627037 141.32639302 -195.38671875 119.65625 C-185.09643966 89.38401621 -169.70919759 64.2703831 -140.2265625 49.51171875 C-104.86464068 32.53430815 -63.86469974 30.28339693 -25.28515625 29.578125 C-25.30872192 28.71646729 -25.30872192 28.71646729 -25.33276367 27.83740234 C-25.39551138 25.20941191 -25.43427131 22.58157963 -25.47265625 19.953125 C-25.49779297 19.04949219 -25.52292969 18.14585938 -25.54882812 17.21484375 C-25.60717307 11.88600569 -25.29816222 8.17692359 -22.28515625 3.578125 C-16.10480798 -2.43518683 -7.63293857 -4.749384 0 0 Z " fill="#000000" transform="translate(265.28515625,17.421875)"/>
<path d="M0 0 C15.1286902 -0.25678675 29.98819663 0.01355053 45 2 C45.90008789 2.11827148 46.80017578 2.23654297 47.72753906 2.35839844 C73.11823322 5.86333093 103.72256963 11.91980907 120.44921875 33.1015625 C138.81561479 58.24733499 149.56441906 96.86288159 149 128 C114.51407442 132.25634847 67.83408071 133.18418769 38.35546875 112.109375 C12.39030038 90.57144732 5.68159544 48.20161582 1 17 C0.8851123 16.25540527 0.77022461 15.51081055 0.65185547 14.74365234 C-0.04695315 9.81067117 -0.10349727 4.96786886 0 0 Z " fill="#65BA69" transform="translate(274,80)"/>
<path d="M0 0 C0.86023974 16.24897286 -3.25423878 32.29421764 -7 48 C-7.42732422 49.82724609 -7.42732422 49.82724609 -7.86328125 51.69140625 C-13.26292408 73.36133849 -21.41376009 101.55599253 -41.40625 114.2734375 C-72.07810418 132.29448414 -114.58554575 132.19820822 -149 128 C-146.55658953 95.36041235 -140.09028202 59.75890505 -120 33 C-119.51015625 32.32710937 -119.0203125 31.65421875 -118.515625 30.9609375 C-108.20371731 17.8103586 -90.57617806 11.97833119 -75 8 C-74.22213135 7.76877441 -73.4442627 7.53754883 -72.64282227 7.29931641 C-64.9873053 5.06173405 -57.34061809 3.88134443 -49.4375 2.875 C-48.44879913 2.74659729 -48.44879913 2.74659729 -47.44012451 2.61560059 C-31.58127669 0.56239262 -15.97611868 -0.19589246 0 0 Z " fill="#65BA69" transform="translate(238,80)"/>
<path d="M0 0 C0.66 0 1.32 0 2 0 C2.1952124 0.54712646 2.3904248 1.09425293 2.59155273 1.65795898 C13.27689764 31.32845715 26.79322133 56.09539779 56.33178711 70.11889648 C59.20703886 71.44675501 62.09640964 72.73527087 65 74 C64.90262901 95.2268769 54.82694497 115.48044624 41 131 C40.31421875 131.82886719 39.6284375 132.65773438 38.921875 133.51171875 C29.75163999 144.32919968 15.75592093 156.51428488 2.046875 160.95703125 C-2.06196773 161.01497647 -4.50556795 159.34354359 -7.75 157.0625 C-8.36198242 156.64935547 -8.97396484 156.23621094 -9.60449219 155.81054688 C-14.96065733 152.14624532 -20.06563009 148.21545509 -25 144 C-25.81984375 143.31421875 -26.6396875 142.6284375 -27.484375 141.921875 C-44.70140669 127.05748118 -58.7648745 105.96539708 -62 83 C-62.06459042 81.23022239 -62.08611065 79.45829848 -62.0625 77.6875 C-62.05347656 76.80449219 -62.04445312 75.92148438 -62.03515625 75.01171875 C-62.02355469 74.34785156 -62.01195312 73.68398437 -62 73 C-60.99582031 72.59910156 -59.99164063 72.19820313 -58.95703125 71.78515625 C-31.31998738 60.43137621 -16.30178087 40.94243281 -5 14 C-3.17532996 9.38525843 -1.5323295 4.72019087 0 0 Z " fill="#9BCA64" transform="translate(255,157)"/>
<path d="M0 0 C2.9296032 2.90680473 5.81887524 5.84570964 8.6796875 8.8203125 C21.25858369 21.79173523 34.46400775 31.85655768 50 41 C43.37975876 69.68771205 22.02393566 91.59988541 -2 107 C-2.63309082 107.42635742 -3.26618164 107.85271484 -3.91845703 108.29199219 C-5.75390625 109.4609375 -5.75390625 109.4609375 -9 111 C-11.14453125 110.47265625 -11.14453125 110.47265625 -13 109 C-14.11955078 108.19369141 -14.11955078 108.19369141 -15.26171875 107.37109375 C-36.88225628 90.13733195 -53.79142741 65.06579016 -57 37 C-56.30551758 36.64808594 -55.61103516 36.29617188 -54.89550781 35.93359375 C-36.85687795 26.95613473 -36.85687795 26.95613473 -20 16 C-19.46487793 15.60184082 -18.92975586 15.20368164 -18.37841797 14.79345703 C-12.06794471 10.07889978 -5.90468015 5.21808943 0 0 Z " fill="#9BCA64" transform="translate(187,303)"/>
<path d="M0 0 C3.97097662 1.3398575 6.29335863 2.99681173 9.25 5.9375 C23.16857653 18.7854168 41.12611487 27.66745155 58 36 C57.46741705 42.20734612 56.44627649 47.73424822 54.4375 53.625 C54.17428955 54.3998877 53.9110791 55.17477539 53.63989258 55.97314453 C49.15339007 68.67255823 42.53562441 79.58389379 34 90 C33.30261719 90.86238281 32.60523438 91.72476563 31.88671875 92.61328125 C27.73801243 97.4900969 23.21992169 101.73453874 18.25 105.75 C17.43547363 106.43280029 17.43547363 106.43280029 16.60449219 107.12939453 C15.015625 108.359375 15.015625 108.359375 12 110 C9.4296875 109.45703125 9.4296875 109.45703125 7 108 C6.17242187 107.53464844 5.34484375 107.06929688 4.4921875 106.58984375 C-2.45240876 102.20541955 -8.75244235 97.32234682 -15 92 C-16.06541016 91.13761719 -16.06541016 91.13761719 -17.15234375 90.2578125 C-29.46362773 80.0674824 -38.58880892 65.90526748 -45.125 51.4375 C-45.43260254 50.77081299 -45.74020508 50.10412598 -46.05712891 49.41723633 C-47.25001322 46.64171691 -47.99526241 44.30105217 -48.04296875 41.26953125 C-46.51032677 37.93445638 -44.3686843 37.01606673 -41.1875 35.25 C-39.99209308 34.55802649 -38.79943824 33.86128002 -37.609375 33.16015625 C-36.70155273 32.62672607 -36.70155273 32.62672607 -35.77539062 32.08251953 C-22.02088445 23.69590231 -10.5312662 12.0457182 0 0 Z " fill="#9BCA64" transform="translate(324,304)"/>
<path d="M0 0 C0.13051758 0.64437012 0.26103516 1.28874023 0.39550781 1.95263672 C1.00406531 4.92881329 1.62694516 7.90182602 2.25 10.875 C2.45496094 11.88820312 2.65992188 12.90140625 2.87109375 13.9453125 C4.12259134 19.86148293 5.71257925 25.24097053 8.22167969 30.75048828 C9.11964317 33.34579429 9.2774149 35.27166519 9 38 C-4.95960025 55.02587082 -31.13070281 70.35511335 -52 77 C-54.3125 76.625 -54.3125 76.625 -56 76 C-58.97617273 62.07090734 -61.31008815 48.14429592 -63 34 C-63.12793442 33.05560562 -63.12793442 33.05560562 -63.25845337 32.09213257 C-64.04710743 25.85868689 -64.11650447 19.71448104 -64.0625 13.4375 C-64.05798828 12.42880859 -64.05347656 11.42011719 -64.04882812 10.38085938 C-64.03716769 7.92050853 -64.02080378 5.46028761 -64 3 C-62.75613525 2.98018066 -61.51227051 2.96036133 -60.23071289 2.93994141 C-55.53196919 2.86277806 -50.83349166 2.77425092 -46.13500977 2.68261719 C-44.1171603 2.6447775 -42.09925362 2.60985437 -40.08129883 2.578125 C-28.6916859 2.39693305 -17.49446309 1.95785989 -6.20092773 0.41552734 C-3 0 -3 0 0 0 Z " fill="#9ACA64" transform="translate(161,238)"/>
<path d="M0 0 C1.68740514 -0.02746229 3.3749463 -0.04660111 5.0625 -0.0625 C6.47208984 -0.07990234 6.47208984 -0.07990234 7.91015625 -0.09765625 C11 0 11 0 14.02148438 0.48632812 C18.91251959 1.20613602 23.81031168 1.23137149 28.74609375 1.31640625 C29.75720718 1.33718735 30.76832062 1.35796844 31.81007385 1.37937927 C35.01915113 1.44442049 38.22830568 1.50354727 41.4375 1.5625 C43.62175257 1.60572848 45.80599752 1.64934411 47.99023438 1.69335938 C53.3267428 1.8000549 58.66332696 1.90190309 64 2 C64.14449487 20.46457079 64.14449487 20.46457079 63.25 28.9375 C63.12129517 30.21343018 63.12129517 30.21343018 62.98999023 31.51513672 C62.20027678 38.91099216 61.16396917 46.26980852 60.0625 53.625 C59.90491211 54.69097412 59.74732422 55.75694824 59.58496094 56.85522461 C58.51266446 63.72361661 56.97372091 70.33508046 55 77 C34.98078665 69.31876706 16.45964026 58.73418035 0 45 C-0.8765625 44.31679688 -1.753125 43.63359375 -2.65625 42.9296875 C-4.96593599 41.0548498 -7.06837667 39.26221901 -9 37 C-9.31024088 33.19954923 -8.14456691 31.31179567 -6.5546875 27.8828125 C-4.75590929 23.68290785 -3.80495214 19.39755046 -2.875 14.9375 C-2.62169922 13.77250977 -2.62169922 13.77250977 -2.36328125 12.58398438 C-1.46436201 8.40436384 -0.66245307 4.22482825 0 0 Z " fill="#9ACA64" transform="translate(351,239)"/>
<path d="M0 0 C2.63169595 3.20982595 5.08193122 6.50047022 7.44946289 9.90942383 C12.19446549 16.72422445 17.23668046 23.00248196 23 29 C23.72960937 29.76957031 24.45921875 30.53914063 25.2109375 31.33203125 C30.4406637 36.71773175 36.04413991 41.43674185 42 46 C36.22711238 58.44864393 22.79481945 67.48828487 11.5 74.625 C10.82976807 75.05087402 10.15953613 75.47674805 9.46899414 75.91552734 C2.93318176 79.91590236 2.93318176 79.91590236 -1 80 C-15.70418078 74.01020871 -33.60250677 59.32016168 -42 46 C-41.42894531 45.56171875 -40.85789063 45.1234375 -40.26953125 44.671875 C-23.77548066 31.77032827 -11.26641256 17.62596349 0 0 Z " fill="#9ACA64" transform="translate(256,382)"/>
</svg>
