<?xml version="1.0" encoding="UTF-8"?>
<svg version="1.1" xmlns="http://www.w3.org/2000/svg" width="512" height="512">
<path d="M0 0 C1.78227493 -0.01925285 1.78227493 -0.01925285 3.60055542 -0.03889465 C4.89011139 -0.04628159 6.17966736 -0.05366852 7.50830078 -0.0612793 C8.82774689 -0.06935104 10.14719299 -0.07742279 11.50662231 -0.08573914 C14.30259066 -0.10076493 17.0985336 -0.11060385 19.89453125 -0.11816406 C23.4748431 -0.12923259 27.05453411 -0.16363772 30.63462639 -0.20333576 C33.38844964 -0.22948317 36.14212447 -0.2378541 38.89606094 -0.24144554 C40.85705662 -0.24868244 42.8179509 -0.27512844 44.77877808 -0.30183411 C46.57050949 -0.29744576 46.57050949 -0.29744576 48.3984375 -0.29296875 C49.97490555 -0.30176811 49.97490555 -0.30176811 51.58322144 -0.31074524 C55.03860744 0.30313974 56.18066246 1.45593738 58.32861328 4.17700195 C59.42529297 7.06201172 59.42529297 7.06201172 60.25048828 10.3684082 C60.55341797 11.56014648 60.85634766 12.75188477 61.16845703 13.97973633 C61.61898437 15.84082031 61.61898437 15.84082031 62.07861328 17.73950195 C62.55234375 19.60638672 62.55234375 19.60638672 63.03564453 21.51098633 C65.32861328 30.67789819 65.32861328 30.67789819 65.32861328 34.17700195 C71.26861328 34.17700195 77.20861328 34.17700195 83.32861328 34.17700195 C83.32861328 28.56700195 83.32861328 22.95700195 83.32861328 17.17700195 C89.26861328 17.17700195 95.20861328 17.17700195 101.32861328 17.17700195 C101.32861328 22.78700195 101.32861328 28.39700195 101.32861328 34.17700195 C103.05466797 34.11899414 104.78072266 34.06098633 106.55908203 34.0012207 C123.00890609 33.60864632 135.21108568 33.79185651 148.17626953 45.01293945 C155.63229885 52.50956421 160.97369926 63.08877848 161.44213867 73.76416016 C161.43690186 74.65965576 161.43166504 75.55515137 161.42626953 76.4777832 C161.42304688 77.45424805 161.41982422 78.43071289 161.41650391 79.43676758 C161.408125 80.44416992 161.39974609 81.45157227 161.39111328 82.48950195 C161.38660156 83.51624023 161.38208984 84.54297852 161.37744141 85.60083008 C161.36569512 88.12628078 161.34926893 90.651611 161.32861328 93.17700195 C162.09004639 93.16652832 162.85147949 93.15605469 163.63598633 93.14526367 C167.09599488 93.10361176 170.5559506 93.07764636 174.01611328 93.05200195 C175.21429688 93.03524414 176.41248047 93.01848633 177.64697266 93.0012207 C178.80390625 92.99477539 179.96083984 92.98833008 181.15283203 92.98168945 C182.74744263 92.965979 182.74744263 92.965979 184.37426758 92.94995117 C188.37296193 93.25726344 191.15238857 93.92622919 193.94720459 96.8981781 C195.67369006 99.74625361 195.71484685 101.55684627 195.73266602 104.87597656 C195.75169228 106.59312111 195.75169228 106.59312111 195.77110291 108.34495544 C195.76669945 110.19347862 195.76669945 110.19347862 195.76220703 112.0793457 C195.76744888 113.34919815 195.77269073 114.6190506 195.77809143 115.92738342 C195.78451621 118.61336237 195.78460744 121.29849216 195.7746582 123.984375 C195.76317283 127.41890828 195.78337436 130.85241274 195.81257534 134.28681087 C195.83538065 137.57182748 195.82846884 140.85676849 195.82470703 144.1418457 C195.83594101 145.37217026 195.84717499 146.60249481 195.85874939 147.87010193 C195.84936844 149.01801712 195.83998749 150.16593231 195.83032227 151.34863281 C195.83007301 152.85942665 195.83007301 152.85942665 195.82981873 154.40074158 C195.18459617 157.97473672 193.89095614 159.63823812 191.32861328 162.17700195 C181.6218001 164.60370525 171.33416729 163.17700195 161.32861328 163.17700195 C161.32861328 182.31700195 161.32861328 201.45700195 161.32861328 221.17700195 C169.33673009 221.13038893 177.34324538 221.08009207 185.35076904 220.99320984 C189.07973106 220.95384008 192.80845329 220.92145614 196.53759766 220.90600586 C200.12998599 220.89085234 203.72172197 220.85643172 207.31381989 220.80869293 C208.68367083 220.79386535 210.05361491 220.78596014 211.42354584 220.7851181 C213.3435096 220.78275124 215.26338257 220.75340383 217.18310547 220.72290039 C218.82191681 220.70957672 218.82191681 220.70957672 220.49383545 220.69598389 C224.15744378 220.02526235 225.10965168 219.16170728 227.32861328 216.17700195 C227.71834836 213.24450206 227.86325082 210.68859943 227.82740784 207.75721741 C227.83279239 206.89978154 227.83817695 206.04234568 227.84372467 205.1589269 C227.85701827 202.28062951 227.84183686 199.40318147 227.8269043 196.52490234 C227.83072647 194.46348172 227.83634463 192.40206376 227.84362793 190.34065247 C227.85559256 185.8989457 227.85507829 181.45747526 227.84503365 177.01576424 C227.82949941 169.99475184 227.84313243 162.97398317 227.86106873 155.95298767 C227.89191542 142.31664281 227.89338877 128.68037202 227.89141846 115.04399872 C227.8900264 97.68986064 227.90032548 80.33577953 227.93999618 62.98168367 C227.95495264 55.99998864 227.95464263 49.01850843 227.94251835 42.03681004 C227.93781461 37.69573135 227.94531612 33.35473524 227.95606232 29.01366997 C227.95847284 26.99845699 227.95571774 24.98323031 227.94745445 22.96803284 C227.93685786 20.21972629 227.944566 17.47205592 227.95680237 14.72377014 C227.94922631 13.92396369 227.94165026 13.12415723 227.93384463 12.30011421 C227.97680666 7.7578873 228.48481325 4.77813433 231.32861328 1.17700195 C233.6042695 0.03917384 234.91028349 0.03331308 237.43945312 0 C238.28728363 -0.01283524 239.13511414 -0.02567047 240.00863647 -0.03889465 C240.9263382 -0.04628159 241.84403992 -0.05366852 242.78955078 -0.0612793 C243.73166412 -0.06935104 244.67377747 -0.07742279 245.6444397 -0.08573914 C247.64005694 -0.09958225 249.63569788 -0.11030338 251.63134766 -0.11816406 C254.68453724 -0.13539042 257.73664786 -0.17927585 260.78955078 -0.22338867 C262.72704281 -0.23351431 264.66454405 -0.24203081 266.60205078 -0.2487793 C267.97253067 -0.27504143 267.97253067 -0.27504143 269.37069702 -0.30183411 C270.65189926 -0.29744576 270.65189926 -0.29744576 271.95898438 -0.29296875 C272.7079599 -0.29883499 273.45693542 -0.30470123 274.22860718 -0.31074524 C277.36875545 0.41858526 278.38304793 1.60264643 280.32861328 4.17700195 C280.71921672 7.20374828 280.86474179 9.8652482 280.82981873 12.89135742 C280.83535312 13.7806063 280.84088752 14.66985518 280.84658962 15.58605099 C280.86022634 18.57237959 280.84521002 21.55787677 280.83032227 24.54418945 C280.83410455 26.6829209 280.83960385 28.82164989 280.84669495 30.96037292 C280.86068524 36.77697565 280.84945157 42.59328371 280.83298373 48.40987015 C280.81914515 54.49948617 280.8255925 60.58908487 280.82911682 66.67871094 C280.83182153 76.91468047 280.81832655 87.15053294 280.79516602 97.38647461 C280.76861151 109.20382484 280.76679019 121.02097859 280.77855438 132.83834839 C280.78935721 144.21438092 280.78312175 155.5903427 280.7689991 166.96636963 C280.76325529 171.80179526 280.7633095 176.63716885 280.7680645 181.47259521 C280.77285795 187.1788038 280.76263473 192.8847991 280.74110985 198.59096718 C280.73557188 200.67902215 280.735049 202.76709774 280.74006271 204.85515404 C280.78191964 224.79752302 278.03923534 240.93469432 263.64501953 255.9621582 C235.62837486 282.75041711 198.54345664 274.17700195 161.32861328 274.17700195 C161.32861328 335.55700195 161.32861328 396.93700195 161.32861328 460.17700195 C170.23861328 460.17700195 179.14861328 460.17700195 188.32861328 460.17700195 C193.32861328 463.17700195 193.32861328 463.17700195 195.32861328 466.17700195 C195.60276794 468.06063843 195.60276794 468.06063843 195.63500977 470.2019043 C195.65099716 471.00639008 195.66698456 471.81087585 195.68345642 472.63973999 C195.68881912 473.50539581 195.69418182 474.37105164 195.69970703 475.26293945 C195.7087355 476.15687408 195.71776398 477.05080872 195.72706604 477.97183228 C195.74157305 479.86310475 195.7504564 481.75442745 195.75415039 483.64575195 C195.7660418 486.53463642 195.81521696 489.4213812 195.86572266 492.30981445 C195.87518764 494.1483457 195.88242232 495.98689006 195.88720703 497.82543945 C195.90673935 498.68704681 195.92627167 499.54865417 195.94639587 500.43637085 C195.94031815 501.24716095 195.93424042 502.05795105 195.92797852 502.89331055 C195.93304916 503.60151947 195.93811981 504.30972839 195.94334412 505.03939819 C194.90756383 508.64111736 193.3540118 509.9818312 190.32861328 512.17700195 C186.76439151 512.90868763 183.26311874 512.84995392 179.63500977 512.80810547 C178.55805847 512.81526077 177.48110718 512.82241608 176.371521 512.82978821 C172.81381745 512.84668889 169.25737137 512.82726434 165.69970703 512.8059082 C163.22778723 512.8067367 160.75586748 512.80919538 158.28395081 512.81321716 C153.10474047 512.81607605 147.92596238 512.80136313 142.74682617 512.77392578 C136.10293459 512.73982583 129.45981515 512.74586672 122.8158865 512.76458836 C117.71240281 512.77514799 112.60909932 512.7662301 107.5056324 512.75120354 C105.05557859 512.7460149 102.60550601 512.74651175 100.15545464 512.75274849 C96.73416422 512.75818861 93.31398602 512.73786301 89.89282227 512.71044922 C88.36927879 512.72023804 88.36927879 512.72023804 86.81495667 512.73022461 C80.01520116 512.63741286 80.01520116 512.63741286 76.70069885 510.41477966 C75.20111938 507.96906812 74.82322482 506.68485751 74.81103516 503.83911133 C74.79842651 502.99143188 74.78581787 502.14375244 74.77282715 501.27038574 C74.78092407 500.36300659 74.789021 499.45562744 74.79736328 498.52075195 C74.79353638 497.58146851 74.78970947 496.64218506 74.7857666 495.67443848 C74.78304752 493.69074429 74.79040844 491.70701425 74.80712891 489.72338867 C74.82853867 486.6875818 74.80732721 483.6541415 74.78173828 480.6184082 C74.78438156 478.69001756 74.78950653 476.7616284 74.79736328 474.83325195 C74.78926636 473.9258728 74.78116943 473.01849365 74.77282715 472.08361816 C74.86640326 465.7924935 74.86640326 465.7924935 77.23681641 462.63598633 C80.92369715 460.06446446 83.15514336 460.05910344 87.64892578 460.0793457 C88.78088379 460.08184326 89.9128418 460.08434082 91.07910156 460.08691406 C92.52269043 460.09601807 93.9662793 460.10512207 95.45361328 460.11450195 C100.03236328 460.13512695 104.61111328 460.15575195 109.32861328 460.17700195 C108.99861328 446.31700195 108.66861328 432.45700195 108.32861328 418.17700195 C103.37861328 420.15700195 98.42861328 422.13700195 93.32861328 424.17700195 C81.45407004 427.27470889 70.52248505 427.51125021 58.32861328 427.17700195 C58.35479736 428.06484375 58.38098145 428.95268555 58.40795898 429.86743164 C58.49331078 433.170006 58.5559198 436.4714047 58.60327148 439.7746582 C58.62837675 441.20258097 58.66246915 442.6303757 58.70581055 444.05786133 C58.76665006 446.11352113 58.79485879 448.16747948 58.81689453 450.22387695 C58.84307861 451.45976562 58.8692627 452.6956543 58.89624023 453.96899414 C58.32861328 457.17700195 58.32861328 457.17700195 56.16215515 459.34317017 C52.92164144 461.44038888 51.24629946 461.69185588 47.42431641 461.72631836 C46.25960815 461.74538239 45.0948999 461.76444641 43.89489746 461.78408813 C42.64583618 461.78226532 41.3967749 461.7804425 40.10986328 461.77856445 C38.81922974 461.7871347 37.52859619 461.79570496 36.19885254 461.80453491 C33.47191905 461.81942509 30.7455036 461.81890195 28.01855469 461.80834961 C24.53092712 461.79674962 21.04542042 461.83065366 17.55814362 461.87703896 C14.22112871 461.91365235 10.88457786 461.90614244 7.54736328 461.90356445 C6.298302 461.92198395 5.04924072 461.94040344 3.7623291 461.9593811 C-4.51749464 461.8708211 -4.51749464 461.8708211 -7.58171082 460.02835083 C-10.85026394 456.5427438 -11.26509431 453.06265313 -11.15966797 448.46606445 C-11.14355469 447.22211914 -11.12744141 445.97817383 -11.11083984 444.6965332 C-11.04799805 442.76874023 -11.04799805 442.76874023 -10.98388672 440.80200195 C-10.95004883 438.8394043 -10.95004883 438.8394043 -10.91552734 436.8371582 C-10.85674586 433.61593308 -10.77461403 430.39705876 -10.67138672 427.17700195 C-11.86892578 427.21180664 -13.06646484 427.24661133 -14.30029297 427.2824707 C-30.45457659 427.61102675 -44.98681547 425.51928758 -59.67138672 418.17700195 C-60.00138672 432.03700195 -60.33138672 445.89700195 -60.67138672 460.17700195 C-52.01057748 460.0586212 -52.01057748 460.0586212 -43.3503418 459.90673828 C-42.26648193 459.89924561 -41.18262207 459.89175293 -40.06591797 459.8840332 C-38.96094971 459.86832275 -37.85598145 459.8526123 -36.7175293 459.83642578 C-33.25556737 460.22349294 -31.44260734 461.09835846 -28.67138672 463.17700195 C-26.65946132 466.19489005 -26.41599816 466.81433119 -26.36499023 470.2019043 C-26.34900284 471.00639008 -26.33301544 471.81087585 -26.31654358 472.63973999 C-26.31118088 473.50539581 -26.30581818 474.37105164 -26.30029297 475.26293945 C-26.2912645 476.15687408 -26.28223602 477.05080872 -26.27293396 477.97183228 C-26.25842695 479.86310475 -26.2495436 481.75442745 -26.24584961 483.64575195 C-26.2339582 486.53463642 -26.18478304 489.4213812 -26.13427734 492.30981445 C-26.12481236 494.1483457 -26.11757768 495.98689006 -26.11279297 497.82543945 C-26.09326065 498.68704681 -26.07372833 499.54865417 -26.05360413 500.43637085 C-26.05968185 501.24716095 -26.06575958 502.05795105 -26.07202148 502.89331055 C-26.06695084 503.60151947 -26.06188019 504.30972839 -26.05665588 505.03939819 C-27.09232794 508.64074102 -28.64675766 509.98143135 -31.67138672 512.17700195 C-35.23488607 512.913121 -38.73659729 512.86020284 -42.36499023 512.82397461 C-43.44194153 512.83273621 -44.51889282 512.8414978 -45.628479 512.8505249 C-49.18616084 512.87252097 -52.74259864 512.85796514 -56.30029297 512.84106445 C-58.77221414 512.84443224 -61.2441337 512.84928455 -63.71604919 512.8555603 C-68.89525121 512.86293177 -74.07402195 512.85221559 -79.25317383 512.82885742 C-85.89716909 512.80035553 -92.54015518 512.81678225 -99.1841135 512.84671974 C-104.28760915 512.86477204 -109.3908648 512.85904425 -114.4943676 512.84608078 C-116.94442806 512.84274186 -119.39451022 512.8468508 -121.84454536 512.85847855 C-125.26601163 512.87115397 -128.68583417 512.8518545 -132.10717773 512.82397461 C-133.12287338 512.83409576 -134.13856903 512.84421692 -135.18504333 512.85464478 C-142.00572007 512.75148986 -142.00572007 512.75148986 -145.29930115 509.90904236 C-146.63094783 507.25752221 -147.17607723 505.74513504 -147.18896484 502.81738281 C-147.20157349 501.98979965 -147.21418213 501.16221649 -147.22717285 500.30955505 C-147.21907593 499.42921097 -147.210979 498.54886688 -147.20263672 497.6418457 C-147.20837708 496.26833702 -147.20837708 496.26833702 -147.2142334 494.86708069 C-147.216949 492.93644101 -147.20961246 491.00576432 -147.19287109 489.07519531 C-147.17143146 486.12066747 -147.19269694 483.16856441 -147.21826172 480.21411133 C-147.21561886 478.33585076 -147.21049475 476.45759169 -147.20263672 474.5793457 C-147.21073364 473.69697739 -147.21883057 472.81460907 -147.22717285 471.90550232 C-147.13394733 465.80984115 -147.13394733 465.80984115 -144.82568359 462.65185547 C-135.49467412 456.26375164 -123.89918697 460.17700195 -112.67138672 460.17700195 C-112.67138672 381.63700195 -112.67138672 303.09700195 -112.67138672 222.17700195 C-122.24138672 222.17700195 -131.81138672 222.17700195 -141.67138672 222.17700195 C-147.24229965 216.60608902 -147.24229965 216.60608902 -147.32681274 211.77627563 C-147.30691788 210.74668228 -147.30691788 210.74668228 -147.28662109 209.69628906 C-147.2921701 208.96071274 -147.29771912 208.22513641 -147.30343628 207.4672699 C-147.31520869 205.04562405 -147.29098698 202.62585948 -147.26513672 200.2043457 C-147.26342505 198.51713649 -147.26349187 196.82992461 -147.26525879 195.14271545 C-147.26360699 191.61115997 -147.24493373 188.08024038 -147.21337891 184.54882812 C-147.17367094 180.02364709 -147.16933795 175.49929741 -147.17684174 170.97397518 C-147.17991183 167.49178967 -147.1677901 164.00979086 -147.15071106 160.52765083 C-147.14368393 158.8591078 -147.14055618 157.19054362 -147.1414032 155.52198601 C-147.13960432 153.19037526 -147.11821725 150.85975895 -147.09130859 148.52832031 C-147.0942392 147.83990051 -147.0971698 147.15148071 -147.10018921 146.44219971 C-147.0469124 143.44855843 -146.80398968 141.41442104 -145.3326416 138.78004456 C-142.0727641 135.6343969 -138.54137471 136.05994318 -134.25341797 136.0793457 C-132.99980469 136.08256836 -131.74619141 136.08579102 -130.45458984 136.08911133 C-128.4890918 136.10167969 -128.4890918 136.10167969 -126.48388672 136.11450195 C-125.14860191 136.11951878 -123.81331531 136.12408137 -122.47802734 136.12817383 C-119.20910199 136.139975 -115.94026681 136.15643898 -112.67138672 136.17700195 C-112.68026917 135.36426819 -112.68915161 134.55153442 -112.69830322 133.71417236 C-112.77887961 126.00668411 -112.83956769 118.29940378 -112.87863541 110.59160233 C-112.89939666 106.63013807 -112.92750053 102.66902556 -112.97314453 98.70776367 C-113.01701686 94.87571571 -113.0406097 91.04400331 -113.05089569 87.21172333 C-113.05821369 85.7590584 -113.07250115 84.30640916 -113.09430695 82.85388947 C-113.30961356 67.89971336 -110.10737969 56.32790959 -99.82763672 45.17700195 C-92.32636387 38.04464416 -82.90198837 34.02881273 -72.59326172 34.0793457 C-70.85302734 34.08417969 -70.85302734 34.08417969 -69.07763672 34.08911133 C-67.26779297 34.10167969 -67.26779297 34.10167969 -65.42138672 34.11450195 C-63.58833984 34.12126953 -63.58833984 34.12126953 -61.71826172 34.12817383 C-58.7026158 34.13995369 -55.68699507 34.15788894 -52.67138672 34.17700195 C-52.67138672 28.56700195 -52.67138672 22.95700195 -52.67138672 17.17700195 C-46.73138672 17.17700195 -40.79138672 17.17700195 -34.67138672 17.17700195 C-34.67138672 22.78700195 -34.67138672 28.39700195 -34.67138672 34.17700195 C-28.73138672 34.17700195 -22.79138672 34.17700195 -16.67138672 34.17700195 C-16.34138672 31.53700195 -16.01138672 28.89700195 -15.67138672 26.17700195 C-14.99661201 22.75134338 -14.14489701 19.37596713 -13.29638672 15.98950195 C-13.08755859 15.11358398 -12.87873047 14.23766602 -12.66357422 13.33520508 C-11.54856571 8.85137511 -10.4894919 4.93698721 -7.67138672 1.17700195 C-5.01536708 -0.15100786 -2.97434481 0.02790206 0 0 Z " fill="#010000" transform="translate(229.67138671875,-0.177001953125)"/>
<path d="M0 0 C78.54 0 157.08 0 238 0 C238.103125 31.164375 238.20625 62.32875 238.3125 94.4375 C238.35802002 104.2542749 238.40354004 114.0710498 238.45043945 124.18530273 C238.47302246 136.23254395 238.47302246 136.23254395 238.47721863 141.88392639 C238.48185083 145.80582511 238.50048282 149.72738064 238.52787781 153.64918518 C238.56248261 158.67059035 238.57239954 163.6915052 238.56536138 168.71301854 C238.56683044 170.54407861 238.57656143 172.37515798 238.59607565 174.20611465 C238.81250929 195.52467135 233.09574528 215.33728321 218.06567383 230.99414062 C216.72536838 232.3444017 215.36324058 233.67289835 214 235 C213.32066406 235.67675781 212.64132812 236.35351562 211.94140625 237.05078125 C193.23958641 254.58616742 169.76684808 256.31906234 145.55078125 256.3359375 C143.36663224 256.34237851 141.18248407 256.3491078 138.99833679 256.35610962 C134.43352257 256.36803658 129.86878376 256.37179521 125.30395508 256.37060547 C119.49897766 256.37040261 113.6944916 256.39769139 107.88963032 256.43214989 C103.38101549 256.45455657 98.87251632 256.45843881 94.36385155 256.45738602 C92.2259572 256.45972182 90.08805866 256.46842905 87.95022011 256.48405075 C72.21641332 256.58825955 56.55454485 255.90752294 42.4375 248.125 C41.7775 247.77767822 41.1175 247.43035645 40.4375 247.07250977 C35.59707284 244.46958204 31.17489206 241.58527177 27 238 C26.36191406 237.50371094 25.72382813 237.00742187 25.06640625 236.49609375 C11.58692885 225.59164322 3.03581362 208.9453267 0 192 C-0.66857212 185.6190374 -0.5080876 179.1921544 -0.45410156 172.78564453 C-0.45287366 170.86157705 -0.45341456 168.93750776 -0.45556259 167.01344109 C-0.4564588 161.90074631 -0.43342103 156.78843255 -0.40512085 151.67582703 C-0.38219528 146.86321933 -0.38126051 142.05070028 -0.37841797 137.23803711 C-0.35750031 123.20030839 -0.30165522 109.16264926 -0.25 95.125 C-0.1675 63.73375 -0.085 32.3425 0 0 Z " fill="#E0452A" transform="translate(135,154)"/>
<path d="M0 0 C1.19638909 -0.00551503 1.19638909 -0.00551503 2.41694766 -0.01114148 C5.08671293 -0.0221451 7.75643924 -0.0260165 10.42622375 -0.02983093 C12.34174726 -0.03609807 14.25726955 -0.04274509 16.17279053 -0.04974365 C22.46079161 -0.07075582 28.74879285 -0.08114304 35.03681946 -0.09111023 C37.20380478 -0.09515878 39.37078998 -0.09927573 41.53777504 -0.10346031 C51.71886736 -0.12250533 61.89995246 -0.1367381 72.08105916 -0.14507228 C83.82350935 -0.154844 95.565771 -0.18116484 107.30815476 -0.22157317 C116.39114086 -0.25175471 125.47407296 -0.26654308 134.55710822 -0.26985329 C139.97889917 -0.27220132 145.40048853 -0.28112995 150.82222557 -0.30631447 C155.92518441 -0.32963594 161.02780951 -0.33381196 166.13080788 -0.32355309 C167.99880205 -0.32305862 169.86681289 -0.32935267 171.73475647 -0.34310913 C182.70355604 -0.41933896 191.27783218 -0.0511294 200.83760071 5.89717102 C220.39002299 26.00823393 210.02510071 64.53771461 210.02510071 86.14717102 C130.82510071 86.14717102 51.62510071 86.14717102 -29.97489929 86.14717102 C-29.97489929 15.74928592 -29.97489929 15.74928592 -21.61552429 6.65107727 C-15.18436306 0.75584614 -8.41357537 -0.00209264 0 0 Z " fill="#FBD380" transform="translate(163.9748992919922,50.85282897949219)"/>
<path d="M0 0 C0.9860127 -0.01041829 0.9860127 -0.01041829 1.99194485 -0.02104706 C4.1931416 -0.03933397 6.3932626 -0.02904912 8.59449768 -0.01878357 C10.17317004 -0.02584128 11.75183562 -0.03458567 13.33049011 -0.04489136 C17.617753 -0.06741257 21.90464719 -0.06443926 26.19194674 -0.05556989 C29.77057439 -0.0504632 33.34913255 -0.05774999 36.92775303 -0.06504196 C45.36995222 -0.0820498 53.81197071 -0.07846644 62.25416565 -0.06175232 C70.96461782 -0.04483012 79.67456888 -0.06066471 88.38496631 -0.0929752 C95.86280796 -0.11966313 103.34049354 -0.12694927 110.81837803 -0.11846012 C115.28486917 -0.11352852 119.75105878 -0.11575887 124.21751213 -0.13624763 C128.417744 -0.15459236 132.61725465 -0.14866146 136.81744766 -0.12404823 C138.35856452 -0.11903639 139.89973621 -0.12253991 141.44080925 -0.13519669 C143.54600492 -0.15111819 145.64882285 -0.1361908 147.75390625 -0.11352539 C148.93137137 -0.11293908 150.1088365 -0.11235277 151.32198238 -0.1117487 C155.39382935 0.70617211 156.89116196 2.30054091 159.44044495 5.5146637 C160.06863403 8.93630981 160.06863403 8.93630981 160.07154846 12.90357971 C160.08228142 13.99231384 160.08228142 13.99231384 160.0932312 15.1030426 C160.11008281 17.49220015 160.09074098 19.8794719 160.0693512 22.26856995 C160.07018014 23.93336136 160.0726405 25.59815269 160.07666016 27.26293945 C160.07951559 30.74740818 160.06484101 34.23123319 160.03736877 37.71559143 C160.00325927 42.18037276 160.00931506 46.6440053 160.02803135 51.1088419 C160.03860206 54.54472419 160.02966346 57.98033937 160.01464653 61.41619682 C160.00946652 63.062415 160.00994435 64.70866109 160.01619148 66.35487556 C160.02164588 68.6555744 160.00126554 70.95463062 159.97389221 73.25514221 C159.96459435 75.21774742 159.96459435 75.21774742 159.95510864 77.22000122 C159.3579559 81.04272422 158.46239371 82.19036075 155.44044495 84.5146637 C152.64203746 85.91386744 150.3292261 85.65357317 147.19732666 85.66856384 C146.22612789 85.67513722 146.22612789 85.67513722 145.23530895 85.6818434 C143.05588198 85.69524648 140.87649547 85.70141359 138.69703674 85.70753479 C137.13836992 85.71543453 135.57970493 85.7237034 134.02104187 85.73231506 C128.89393362 85.75854855 123.76681714 85.77384335 118.6396637 85.7881012 C116.87592374 85.79346021 115.11218383 85.79883771 113.34844398 85.80423355 C106.01302518 85.82586363 98.67760858 85.84460123 91.34216595 85.85585594 C80.82270871 85.87210102 70.30362051 85.90529069 59.78430241 85.96225679 C52.39146372 86.00092967 44.99872383 86.02048544 37.60578662 86.02577651 C33.18839563 86.02943344 28.77139811 86.04149069 24.35411644 86.07387924 C20.19830393 86.10391372 16.04312393 86.11028854 11.8872261 86.09849548 C10.36220888 86.09827436 8.83716271 86.10661147 7.31224632 86.12414932 C5.22890583 86.14680472 3.14786609 86.13856719 1.06451416 86.12266541 C-0.68345695 86.12763062 -0.68345695 86.12763062 -2.46674061 86.13269615 C-6.52500043 85.3217402 -8.01902499 83.71621102 -10.55955505 80.5146637 C-11.05095619 77.80838255 -11.23660458 75.73123078 -11.19065857 73.03395081 C-11.19781387 72.29837448 -11.20496918 71.56279816 -11.21234131 70.80493164 C-11.2291949 68.38331736 -11.20984969 65.96356306 -11.1884613 63.54200745 C-11.18929023 61.85479581 -11.19175052 60.16758425 -11.19577026 58.4803772 C-11.19862583 54.94883339 -11.18394969 51.41792468 -11.15647888 47.88648987 C-11.12236978 43.36117925 -11.12842495 38.83700207 -11.14714146 34.31163692 C-11.15771171 30.82943278 -11.14877395 27.34749221 -11.13375664 23.86531258 C-11.12857628 22.1967656 -11.12905488 20.52819108 -11.13530159 18.85964775 C-11.1407554 16.52782387 -11.12037728 14.19762114 -11.09300232 11.86598206 C-11.0995282 11.17756226 -11.10605408 10.48914246 -11.11277771 9.77986145 C-11.0509937 6.6832525 -10.80802649 4.84798032 -8.93736076 2.33854103 C-5.80320357 -0.06548981 -3.92909142 0.00936943 0 0 Z " fill="#020201" transform="translate(179.55955505371094,170.48533630371094)"/>
<path d="M0 0 C44.88 0 89.76 0 136 0 C136 16.83 136 33.66 136 51 C91.12 51 46.24 51 0 51 C0 34.17 0 17.34 0 0 Z " fill="#FDF498" transform="translate(186,188)"/>
<path d="M0 0 C5.61 0 11.22 0 17 0 C17.09271198 26.11297949 17.16403789 52.22591914 17.20724869 78.33903027 C17.22784811 90.46460267 17.25591864 102.59007074 17.30175781 114.71557617 C17.34170575 125.28778239 17.36745185 135.85991302 17.37635398 146.43219262 C17.38155523 152.02686792 17.39372547 157.62132703 17.42292023 163.21593285 C17.45021505 168.48953803 17.45841666 173.76283944 17.45243073 179.03650856 C17.45352469 180.96452107 17.46139423 182.89254451 17.4768219 184.82049561 C17.60314957 201.43216857 15.73631843 214.54588116 3.93359375 227.21875 C-4.52542842 235.32972653 -14.07708787 239.13544805 -25.71801758 239.11352539 C-26.69934662 239.11374443 -26.69934662 239.11374443 -27.70050049 239.1139679 C-29.84854526 239.11327494 -31.99650175 239.10551164 -34.14453125 239.09765625 C-35.63954114 239.09578988 -37.13455165 239.09436701 -38.62956238 239.09336853 C-42.55371811 239.08956064 -46.4778365 239.07974518 -50.40197754 239.06866455 C-54.41055801 239.05841321 -58.41914455 239.05386294 -62.42773438 239.04882812 C-70.28517525 239.03812129 -78.14257867 239.02053856 -86 239 C-86 233.39 -86 227.78 -86 222 C-83.16257202 221.97812622 -83.16257202 221.97812622 -80.26782227 221.95581055 C-73.98926104 221.90398045 -67.71095141 221.83864729 -61.43261814 221.76428509 C-57.62933571 221.71972493 -53.82615686 221.68043817 -50.02270508 221.65356445 C-46.34610051 221.62738692 -42.66989765 221.58688517 -38.99354362 221.53681374 C-37.59711678 221.52024195 -36.20062061 221.50866775 -34.80410957 221.50238609 C-24.27445835 221.45026985 -15.35606165 220.98191014 -7.43359375 213.53515625 C-1.64563069 207.33714676 -0.70061309 199.75707437 -0.7215271 191.56544495 C-0.7157347 190.7427535 -0.7099423 189.92006205 -0.70397437 189.07244056 C-0.68704031 186.33023579 -0.68410357 183.5882 -0.68115234 180.84594727 C-0.67184962 178.87449229 -0.66168043 176.90304125 -0.65071106 174.93159485 C-0.6234359 169.58921286 -0.60826896 164.24685721 -0.59528303 158.90442395 C-0.57964167 153.3176759 -0.55285463 147.73098153 -0.5272522 142.14427185 C-0.48048226 131.56931734 -0.44372947 120.99435272 -0.41057932 110.4193477 C-0.37234536 98.37826879 -0.32293851 86.33724383 -0.27259517 74.29621041 C-0.16930184 49.53084618 -0.08042925 24.76544812 0 0 Z " fill="#E57223" transform="translate(476,17)"/>
<path d="M0 0 C5.25303198 1.56669375 8.84497536 4.95483453 12.9375 8.4375 C14.44832255 9.70029175 15.96005594 10.96199449 17.47265625 12.22265625 C18.22820801 12.85445801 18.98375977 13.48625977 19.76220703 14.13720703 C23.10458707 16.91948498 26.47628628 19.66192406 29.875 22.375 C30.45113037 22.84478271 31.02726074 23.31456543 31.62084961 23.79858398 C34.89082685 26.46560501 34.89082685 26.46560501 39 27 C41.4474533 24.8419896 41.4474533 24.8419896 43.9375 22.125 C49.81697397 15.89967462 49.81697397 15.89967462 53 15 C58.93110103 15.13746167 61.83634885 16.03917384 66.02294922 20.22987366 C66.57225098 20.81530441 67.12155273 21.40073517 67.6875 22.00390625 C68.27547363 22.60178452 68.86344727 23.19966278 69.46923828 23.81565857 C71.33000862 25.71538616 73.16486024 27.63803502 75 29.5625 C76.2626835 30.86032101 77.52699144 32.15656365 78.79296875 33.45117188 C81.88107779 36.61615804 84.94618416 39.80192687 88 43 C87.0402279 44.12565907 86.0796177 45.25060358 85.11865234 46.37524414 C84.58380219 47.00177383 84.04895203 47.62830353 83.49789429 48.27381897 C81.13334916 50.99873286 78.58039756 53.48104048 76 56 C72.7413364 54.5735422 70.5975146 52.83295838 68.109375 50.3046875 C67.40039062 49.58925781 66.69140625 48.87382813 65.9609375 48.13671875 C65.23132813 47.39035156 64.50171875 46.64398438 63.75 45.875 C63.00492187 45.12089844 62.25984375 44.36679687 61.4921875 43.58984375 C59.6568658 41.73099228 57.8263809 39.86762995 56 38 C51.43040784 41.85417291 51.43040784 41.85417291 47.03125 45.8984375 C44.31538529 48.51730705 42.44258658 49.88084207 38.75 50.875 C32.78200732 49.48246838 28.66848292 45.8208794 24 42 C23.04311279 41.22003662 23.04311279 41.22003662 22.06689453 40.42431641 C18.47021804 37.48483145 14.88993364 34.52615436 11.31640625 31.55859375 C7.29761379 28.23079905 3.22939868 24.97142829 -0.875 21.75 C-1.45161377 21.2964917 -2.02822754 20.8429834 -2.62231445 20.37573242 C-5.03474131 18.48978546 -7.45044174 16.69970551 -10 15 C-8.59601721 10.89889238 -6.62912962 8.01910841 -3.875 4.6875 C-3.15054687 3.80449219 -2.42609375 2.92148438 -1.6796875 2.01171875 C-1.12539063 1.34785156 -0.57109375 0.68398437 0 0 Z " fill="#0A0301" transform="translate(19,10)"/>
<path d="M0 0 C6.54484437 3.56685606 9.84778191 7.69556382 13.125 14.25 C14.58266309 21.82984805 14.79670451 29.39651858 11.21484375 36.39453125 C7.0339375 42.40388717 1.86184588 46.66439888 -5.25 48.5 C-13.4388478 49.50905233 -20.23176323 49.19851302 -27.125 44.4140625 C-32.23794564 39.8086519 -36.57741648 33.2866983 -37.55078125 26.359375 C-37.60030112 17.44579878 -35.37585595 10.78474987 -29.22265625 4.2265625 C-20.71999497 -3.21537074 -10.1793603 -4.67768861 0 0 Z " fill="#030201" transform="translate(265.25,70.5)"/>
<path d="M0 0 C1.4069473 0.70386424 2.80855466 1.41847914 4.20532227 2.14233398 C4.95008316 2.5182518 5.69484406 2.89416962 6.46217346 3.28147888 C8.82025684 4.4744208 11.1709653 5.68113586 13.52172852 6.88842773 C15.1273799 7.70380391 16.73349547 8.51826668 18.34008789 9.33178711 C22.26122434 11.31765952 26.17206541 13.32203322 30.08422852 15.32592773 C27.44422852 20.93592773 24.80422852 26.54592773 22.08422852 32.32592773 C19.08370629 30.91035878 16.08380224 29.49350406 13.08422852 28.07592773 C12.24504883 27.68018555 11.40586914 27.28444336 10.54125977 26.87670898 C9.70981445 26.48354492 8.87836914 26.09038086 8.02172852 25.68530273 C7.19286133 25.29536133 6.36399414 24.90541992 5.51000977 24.50366211 C3.92848496 23.73582036 2.36189756 22.9361674 0.81469727 22.10131836 C-2.86331382 19.94245433 -2.86331382 19.94245433 -6.97192383 19.5690918 C-10.16655298 20.81291877 -12.23452155 23.3778496 -14.54077148 25.82592773 C-20.6681275 32.2274023 -20.6681275 32.2274023 -25.44946289 32.60498047 C-30.55228686 32.53141448 -34.72011646 30.81314376 -39.37670898 28.86108398 C-40.24848785 28.50831894 -41.12026672 28.15555389 -42.01846313 27.792099 C-44.78137441 26.67045536 -47.53593201 25.52973214 -50.29077148 24.38842773 C-52.16395854 23.62480358 -54.03765221 22.86242093 -55.91186523 22.10131836 C-69.13463696 16.716495 -69.13463696 16.716495 -71.91577148 15.32592773 C-71.41064624 9.09604975 -68.58973025 3.8711854 -65.91577148 -1.67407227 C-57.59927389 0.5701573 -49.73873963 3.71595701 -41.79077148 7.01342773 C-40.53574178 7.53013787 -39.28053447 8.04641681 -38.02514648 8.56225586 C-34.98692171 9.81260221 -31.95054768 11.06723978 -28.91577148 12.32592773 C-24.25762452 8.41259049 -19.91044165 4.37033141 -15.71264648 -0.03735352 C-11.01790974 -4.31364633 -5.23201507 -2.43091931 0 0 Z " fill="#0A0301" transform="translate(74.915771484375,78.674072265625)"/>
<path d="M0 0 C28.38 0 56.76 0 86 0 C86 5.61 86 11.22 86 17 C57.62 17 29.24 17 0 17 C0 11.39 0 5.78 0 0 Z " fill="#7B8B9A" transform="translate(100,478)"/>
<path d="M0 0 C28.05 0 56.1 0 85 0 C85 5.61 85 11.22 85 17 C56.95 17 28.9 17 0 17 C0 11.39 0 5.78 0 0 Z " fill="#7C8C9B" transform="translate(322,478)"/>
<path d="M0 0 C3.8434703 3.8434703 7.40510458 7.70714787 10.9375 11.81640625 C12.89044096 14.12426405 12.89044096 14.12426405 15.59838867 15.34643555 C19.59984589 19.76768578 18.61125033 24.90213182 18.48828125 30.640625 C18.48120651 31.87794373 18.47413177 33.11526245 18.46684265 34.39007568 C18.44360174 37.67197726 18.39871955 40.95264431 18.34332275 44.23413086 C18.2920777 47.58565901 18.26974425 50.93724022 18.24414062 54.2890625 C18.18899682 60.85991998 18.10268037 67.42972034 18 74 C12.06 74 6.12 74 0 74 C0 49.58 0 25.16 0 0 Z " fill="#545E69" transform="translate(134,387)"/>
<path d="M0 0 C0.33 0 0.66 0 1 0 C1 24.09 1 48.18 1 73 C-4.61 73 -10.22 73 -16 73 C-16.32346832 65.26317367 -16.55820599 57.53034936 -16.71411133 49.78833008 C-16.77914508 47.16035347 -16.86760876 44.53284102 -16.98071289 41.90649414 C-17.94860938 18.83902432 -17.94860938 18.83902432 -13.15380859 12.43896484 C-10.09983008 9.12948554 -6.65362299 6.61128863 -3 4 C-1.2117342 1.83322863 -1.2117342 1.83322863 0 0 Z " fill="#58626D" transform="translate(372,388)"/>
<path d="M0 0 C1.30195313 0.00322266 2.60390625 0.00644531 3.9453125 0.00976562 C5.32552149 0.01812159 6.70572982 0.02658654 8.0859375 0.03515625 C9.47395676 0.04017124 10.86197772 0.04473415 12.25 0.04882812 C15.65366423 0.0606464 19.0573062 0.07858235 22.4609375 0.09765625 C22.4609375 6.03765625 22.4609375 11.97765625 22.4609375 18.09765625 C16.8509375 18.09765625 11.2409375 18.09765625 5.4609375 18.09765625 C5.4609375 26.34765625 5.4609375 34.59765625 5.4609375 43.09765625 C-0.4790625 43.09765625 -6.4190625 43.09765625 -12.5390625 43.09765625 C-12.6310376 37.91894702 -12.71062691 32.74308512 -12.75878906 27.56420898 C-12.77887036 25.8036945 -12.80614129 24.04324643 -12.84082031 22.28295898 C-12.88949362 19.74836823 -12.91206555 17.2146613 -12.9296875 14.6796875 C-12.95033264 13.89616409 -12.97097778 13.11264069 -12.99224854 12.30537415 C-12.99379443 8.51697763 -12.69937112 6.34864845 -10.63964844 3.1237793 C-7.10117551 -0.28925961 -4.83111229 -0.02100484 0 0 Z " fill="#0D0904" transform="translate(163.5390625,67.90234375)"/>
<path d="M0 0 C5.61 0 11.22 0 17 0 C17 17.16 17 34.32 17 52 C11.39 52 5.78 52 0 52 C0 34.84 0 17.68 0 0 Z " fill="#57616C" transform="translate(100,153)"/>
<path d="M0 0 C12.54 0 25.08 0 38 0 C42 14 42 14 42 17 C26.82 17 11.64 17 -4 17 C-3 9 -3 9 0 0 Z " fill="#DA3D45" transform="translate(235,17)"/>
<path d="M0 0 C11.22 0 22.44 0 34 0 C34 5.61 34 11.22 34 17 C22.78 17 11.56 17 0 17 C0 11.39 0 5.78 0 0 Z " fill="#FAD37F" transform="translate(237,427)"/>
<path d="M0 0 C11.22 0 22.44 0 34 0 C34 5.61 34 11.22 34 17 C22.78 17 11.56 17 0 17 C0 11.39 0 5.78 0 0 Z " fill="#020100" transform="translate(237,205)"/>
<path d="M0 0 C5.61 0 11.22 0 17 0 C17 11.22 17 22.44 17 34 C11.39 34 5.78 34 0 34 C0 22.78 0 11.56 0 0 Z " fill="#58616D" transform="translate(390,111)"/>
<path d="M0 0 C5.61 0 11.22 0 17 0 C17 5.61 17 11.22 17 17 C11.39 17 5.78 17 0 17 C0 11.39 0 5.78 0 0 Z " fill="#010100" transform="translate(288,205)"/>
<path d="M0 0 C5.61 0 11.22 0 17 0 C17 5.61 17 11.22 17 17 C11.39 17 5.78 17 0 17 C0 11.39 0 5.78 0 0 Z " fill="#060301" transform="translate(203,205)"/>
<path d="M0 0 C3.7368843 0.21152175 6.29597177 0.53064784 9.4375 2.625 C11.64220216 5.97614728 11.55263296 8.06249016 11 12 C9.5 14.9375 9.5 14.9375 7 17 C4.19758219 17.65466318 1.80777729 17.61113838 -1 17 C-4.32199976 14.87051297 -4.89590149 13.3367893 -6.0625 9.5625 C-6 6 -6 6 -3.625 3.125 C-2.75875 2.42375 -1.8925 1.7225 -1 1 C-0.67 0.67 -0.34 0.34 0 0 Z " fill="#D84329" transform="translate(251,85)"/>
</svg>
