<?xml version="1.0" encoding="UTF-8"?>
<svg version="1.1" xmlns="http://www.w3.org/2000/svg" width="512" height="512">
<path d="M0 0 C8.4532881 4.29491289 16.13524507 9.33682785 23.51660156 15.27490234 C25.90745233 16.98047741 27.12282799 17.61470548 29.96972656 18.02490234 C31.99571257 17.55277577 31.99571257 17.55277577 34.04003906 16.61865234 C34.83933838 16.2904248 35.6386377 15.96219727 36.4621582 15.62402344 C37.76527954 15.0799585 37.76527954 15.0799585 39.09472656 14.52490234 C57.10115513 7.40742776 75.55074576 3.0270431 94.59472656 -0.22509766 C95.2749588 -0.34411438 95.95519104 -0.4631311 96.65603638 -0.58575439 C122.20682852 -4.99578647 147.93947397 -6.49507386 173.82421875 -6.36621094 C177.2787719 -6.34912027 180.73263082 -6.35932265 184.18716049 -6.37653351 C230.75392587 -6.57255355 278.33379377 -1.01536206 321.8269043 16.28808594 C324.22807839 17.11373746 326.4446504 17.72405419 328.96972656 18.02490234 C331.17028028 16.62344929 332.95555728 15.27830893 334.90722656 13.58740234 C349.34827588 1.82607128 366.83502238 -7.7619961 385.96972656 -5.97509766 C392.21124609 -4.11978329 395.62056827 -0.72013262 399.04785156 4.74365234 C402.26227739 12.69799423 400.24954033 23.30631125 397.27832031 31.01708984 C396.63056641 32.50595703 396.63056641 32.50595703 395.96972656 34.02490234 C395.50695312 35.09998047 395.04417969 36.17505859 394.56738281 37.28271484 C387.65460292 52.12237437 377.6330166 65.42053481 366.04785156 76.93505859 C365.48582031 77.52158203 364.92378906 78.10810547 364.34472656 78.71240234 C363.85746094 79.19064453 363.37019531 79.66888672 362.86816406 80.16162109 C360.48645306 85.10108261 363.83267292 92.35651524 365.24194336 97.30688477 C372.47755734 122.74636939 376.9479846 148.6972462 379.74969482 174.97808838 C379.96875082 177.0158256 380.1975839 179.05230122 380.42724609 181.08886719 C388.53015667 254.46700246 385.80917766 335.31870851 364.06591797 406.17382812 C363.77765137 407.13530762 363.48938477 408.09678711 363.19238281 409.08740234 C362.93207275 409.92400391 362.6717627 410.76060547 362.40356445 411.62255859 C361.89765378 414.42399977 362.16353798 416.30550724 362.96972656 419.02490234 C364.84611766 421.45681814 364.84611766 421.45681814 367.28222656 423.83740234 C383.78138429 441.3987376 400.71833975 464.47263242 400.34863281 489.41552734 C399.83001186 494.35579293 398.45275196 497.50559544 394.96972656 501.02490234 C387.93129202 506.51488128 381.6510729 506.79920921 372.96972656 506.02490234 C357.78980464 502.67518868 344.41136091 494.41928975 332.42285156 484.77490234 C330.02874688 483.06700601 328.82135965 482.43110002 325.96972656 482.02490234 C323.87831655 482.51351056 323.87831655 482.51351056 321.75878906 483.46630859 C320.93805908 483.79977295 320.1173291 484.1332373 319.27172852 484.47680664 C318.38831787 484.84330322 317.50490723 485.2097998 316.59472656 485.58740234 C279.18386291 500.40079566 236.50998612 506.0944146 196.38769531 506.22802734 C195.71140894 506.23085472 195.03512257 506.2336821 194.33834267 506.23659515 C190.74175273 506.25147481 187.14520156 506.26076842 183.54858398 506.26513672 C180.65489734 506.26946919 177.76151768 506.28317088 174.86791992 506.30615234 C127.18232052 506.67667725 78.71318792 501.5057897 34.11254883 483.76171875 C31.72902987 482.942138 29.46854048 482.36519061 26.96972656 482.02490234 C24.841402 483.27791032 24.841402 483.27791032 22.84472656 485.27490234 C8.96097672 497.09794569 -8.49592935 506.4884168 -27.01855469 506.30615234 C-32.73220885 505.77258153 -36.49518032 503.64078983 -40.40527344 499.52490234 C-45.32449011 491.95687669 -45.11394627 483.71236649 -43.44824219 474.97021484 C-37.49649048 455.34845807 -24.47069914 437.41496195 -10.10058594 423.10302734 C-9.54113281 422.52037109 -8.98167969 421.93771484 -8.40527344 421.33740234 C-7.91800781 420.85916016 -7.43074219 420.38091797 -6.92871094 419.88818359 C-4.77574979 415.4231294 -7.46466244 409.01766302 -8.70214844 404.43896484 C-9.0344043 403.19171631 -9.36666016 401.94446777 -9.70898438 400.65942383 C-9.88393433 400.0062619 -10.05888428 399.35309998 -10.23913574 398.68014526 C-16.71222584 374.39437575 -21.32470456 350.02851673 -24.03027344 325.02490234 C-24.10652954 324.33209167 -24.18278564 323.63928101 -24.26135254 322.92547607 C-26.8614155 299.00448431 -27.31842906 275.08237616 -27.34034729 251.04323196 C-27.34272966 248.81583015 -27.34804195 246.58844923 -27.3536377 244.36105347 C-27.40173647 218.16297362 -26.14763647 192.15249578 -22.78027344 166.14990234 C-22.67422791 165.31658386 -22.56818237 164.48326538 -22.45892334 163.62469482 C-19.4445639 140.10314472 -14.95016197 117.13536296 -8.44824219 94.30615234 C-6.680837 88.25322533 -6.680837 88.25322533 -6.03027344 82.02490234 C-7.94923232 79.02793702 -7.94923232 79.02793702 -10.84277344 76.39990234 C-11.8703769 75.35842351 -12.89370952 74.31271623 -13.91308594 73.26318359 C-14.43547852 72.73031738 -14.95787109 72.19745117 -15.49609375 71.6484375 C-30.65323878 55.60849249 -44.74218133 33.10078844 -44.40917969 10.63427734 C-43.89055873 5.69401176 -42.51329883 2.54420925 -39.03027344 -0.97509766 C-27.18728413 -10.21262931 -12.47969928 -5.99373725 0 0 Z " fill="#81592B" transform="translate(78.0302734375,5.97509765625)"/>
<path d="M0 0 C5.59016053 0.61751773 10.90296018 1.93425982 16.34838867 3.32299805 C53.40568712 12.73040342 91.86422178 17.02494334 130 19 C130.78391113 19.04236786 131.56782227 19.08473572 132.37548828 19.12838745 C148.95925389 20.0090959 165.51993021 20.20166792 182.125 20.1875 C183.44115295 20.18689575 184.75730591 20.1862915 186.11334229 20.18566895 C219.62862988 20.1534558 252.53081448 18.11466512 285.81118774 14.25274658 C288.0829061 13.99042666 290.35524062 13.73397078 292.62768555 13.47802734 C294.13592712 13.30585822 295.64414728 13.13350135 297.15234375 12.9609375 C297.83351257 12.88480225 298.5146814 12.80866699 299.2164917 12.73022461 C305.53827438 11.99786466 311.71960347 10.76096504 317.93798828 9.4296875 C320.19266921 8.95985108 322.45233336 8.52427002 324.71484375 8.09375 C334.19621528 6.27690468 343.52920973 4.20701873 352.82128906 1.57470703 C353.55959961 1.36958496 354.29791016 1.16446289 355.05859375 0.953125 C355.70111084 0.76911133 356.34362793 0.58509766 357.00561523 0.39550781 C359.37006764 -0.07338837 361.59567148 -0.06355283 364 0 C369.95390265 47.79155193 370.47845186 93.94703716 368 142 C350.64222382 148.4834724 333.18965777 152.56043606 314.96759033 155.66143799 C313.05608045 155.99035027 311.1468845 156.33262281 309.23779297 156.67529297 C291.99058914 159.76431052 274.76252369 161.73982201 257.3125 163.25 C256.35584442 163.33308411 255.39918884 163.41616821 254.4135437 163.50177002 C231.34339787 165.47624084 208.40401988 166.20723323 185.25 166.1875 C183.93529724 166.18689575 182.62059448 166.1862915 181.26605225 166.18566895 C20.03062769 166.03062769 20.03062769 166.03062769 -4 142 C-4.23418546 139.07989785 -4.4055215 136.17930277 -4.53515625 133.25390625 C-4.57831467 132.34873764 -4.62147308 131.44356903 -4.66593933 130.51097107 C-4.80494348 127.52841076 -4.93491815 124.54556985 -5.0625 121.5625 C-5.10669067 120.54470459 -5.15088135 119.52690918 -5.19641113 118.47827148 C-6.40641991 90.16161709 -6.42694071 62.27092011 -4 34 C-3.83045988 31.91017808 -3.66117939 29.82033508 -3.4921875 27.73046875 C-2.71405383 18.40978066 -1.82136344 9.18432204 0 0 Z " fill="#FBBF07" transform="translate(74,167)"/>
<path d="M0 0 C0.95777344 0.24234375 1.91554688 0.4846875 2.90234375 0.734375 C7.26532385 1.83468675 11.63192084 2.92012414 16 4 C16.68900391 4.17080078 17.37800781 4.34160156 18.08789062 4.51757812 C37.92098996 9.4039939 57.83495414 12.74486001 78.125 15.0625 C79.23402679 15.1897345 80.34305359 15.31696899 81.48568726 15.44805908 C89.3195831 16.33975603 97.15763529 17.18630178 105 18 C105.92230408 18.09621643 106.84460815 18.19243286 107.79486084 18.29156494 C154.62058169 23.10642293 202.52203108 22.57626605 249.4375 19.1875 C251.15492401 19.06361404 251.15492401 19.06361404 252.90704346 18.93722534 C274.28602496 17.34720557 295.470921 14.56749219 316.625 11.125 C317.41273804 10.99749359 318.20047607 10.86998718 319.01208496 10.73861694 C333.92593989 8.31019851 348.77752673 5.66829467 363.04589844 0.57495117 C365 0 365 0 368 0 C365.5342218 29.22131182 360.73233458 59.03686383 350.82836914 86.72729492 C349.09709301 91.76875706 347.96574861 96.67844543 349 102 C351.00833091 105.01781807 351.00833091 105.01781807 353.9375 107.375 C354.95958875 108.30959861 355.97775588 109.24850197 356.9921875 110.19140625 C357.75740723 110.89160889 357.75740723 110.89160889 358.53808594 111.60595703 C370.56705926 123.07647101 388.56677404 145.56999524 389.125 162.875 C389.08375 163.90625 389.0425 164.9375 389 166 C376.50843746 168.16200121 364.51597557 159.35311046 354.53125 152.796875 C350.98889692 150.28224164 347.62102151 147.58279391 344.2890625 144.796875 C339.79631653 141.05780846 339.79631653 141.05780846 334.2421875 140.078125 C330.02134723 141.27826754 326.12849994 142.96787013 322.125 144.75 C300.24668562 154.17186449 276.59210407 159.86442726 253 163 C252.02401855 163.13003418 251.04803711 163.26006836 250.04248047 163.39404297 C233.73407411 165.50501065 217.50324801 166.70943234 201.06237793 166.96746826 C199.62493288 166.99014237 198.18751486 167.01456928 196.75012207 167.04034424 C144.46454979 167.97069729 85.51508106 165.96622576 38.234375 141.22265625 C34.3788112 139.76517863 32.88709841 139.64839472 29 141 C26.16904533 142.82522077 23.60012649 144.92570655 21 147.0625 C13.66026579 152.88375097 6.32592093 157.69968297 -2 162 C-3.24523437 162.67869141 -3.24523437 162.67869141 -4.515625 163.37109375 C-10.05121408 166.1679211 -14.85452344 166.46187298 -21 166 C-22.67164319 151.28953991 -9.92333636 135.46768085 -1.30810547 124.61669922 C9.96630949 110.68254919 9.96630949 110.68254919 16.25 105.1875 C18.02037639 103.46021058 18.9130092 102.47762542 19.36083984 100.01879883 C19.29669692 94.3861694 18.26366922 89.78237173 16.375 84.5 C10.47404964 66.76729291 6.77570643 48.652607 3.6875 30.25 C3.55835205 29.4870462 3.4292041 28.72409241 3.29614258 27.9380188 C1.73472644 18.63859234 0.52363924 9.42756388 0 0 Z " fill="#81592B" transform="translate(72,328)"/>
<path d="M0 0 C8.4532881 4.29491289 16.13524507 9.33682785 23.51660156 15.27490234 C25.90745233 16.98047741 27.12282799 17.61470548 29.96972656 18.02490234 C31.99571257 17.55277577 31.99571257 17.55277577 34.04003906 16.61865234 C34.83933838 16.2904248 35.6386377 15.96219727 36.4621582 15.62402344 C37.76527954 15.0799585 37.76527954 15.0799585 39.09472656 14.52490234 C57.10115513 7.40742776 75.55074576 3.0270431 94.59472656 -0.22509766 C95.2749588 -0.34411438 95.95519104 -0.4631311 96.65603638 -0.58575439 C122.20682852 -4.99578647 147.93947397 -6.49507386 173.82421875 -6.36621094 C177.2787719 -6.34912027 180.73263082 -6.35932265 184.18716049 -6.37653351 C230.75392587 -6.57255355 278.33379377 -1.01536206 321.8269043 16.28808594 C324.22807839 17.11373746 326.4446504 17.72405419 328.96972656 18.02490234 C331.17028028 16.62344929 332.95555728 15.27830893 334.90722656 13.58740234 C349.34827588 1.82607128 366.83502238 -7.7619961 385.96972656 -5.97509766 C392.21124609 -4.11978329 395.62056827 -0.72013262 399.04785156 4.74365234 C402.26227739 12.69799423 400.24954033 23.30631125 397.27832031 31.01708984 C396.63056641 32.50595703 396.63056641 32.50595703 395.96972656 34.02490234 C395.50695312 35.09998047 395.04417969 36.17505859 394.56738281 37.28271484 C387.65460292 52.12237437 377.6330166 65.42053481 366.04785156 76.93505859 C365.48582031 77.52158203 364.92378906 78.10810547 364.34472656 78.71240234 C363.85746094 79.19064453 363.37019531 79.66888672 362.86816406 80.16162109 C360.48645306 85.10108261 363.83267292 92.35651524 365.24194336 97.30688477 C372.47755734 122.74636939 376.9479846 148.6972462 379.74969482 174.97808838 C379.96875082 177.0158256 380.1975839 179.05230122 380.42724609 181.08886719 C388.53015667 254.46700246 385.80917766 335.31870851 364.06591797 406.17382812 C363.77765137 407.13530762 363.48938477 408.09678711 363.19238281 409.08740234 C362.93207275 409.92400391 362.6717627 410.76060547 362.40356445 411.62255859 C361.89765378 414.42399977 362.16353798 416.30550724 362.96972656 419.02490234 C364.84611766 421.45681814 364.84611766 421.45681814 367.28222656 423.83740234 C383.78138429 441.3987376 400.71833975 464.47263242 400.34863281 489.41552734 C399.83001186 494.35579293 398.45275196 497.50559544 394.96972656 501.02490234 C387.93129202 506.51488128 381.6510729 506.79920921 372.96972656 506.02490234 C357.78980464 502.67518868 344.41136091 494.41928975 332.42285156 484.77490234 C330.02874688 483.06700601 328.82135965 482.43110002 325.96972656 482.02490234 C323.87831655 482.51351056 323.87831655 482.51351056 321.75878906 483.46630859 C320.93805908 483.79977295 320.1173291 484.1332373 319.27172852 484.47680664 C318.38831787 484.84330322 317.50490723 485.2097998 316.59472656 485.58740234 C279.18386291 500.40079566 236.50998612 506.0944146 196.38769531 506.22802734 C195.71140894 506.23085472 195.03512257 506.2336821 194.33834267 506.23659515 C190.74175273 506.25147481 187.14520156 506.26076842 183.54858398 506.26513672 C180.65489734 506.26946919 177.76151768 506.28317088 174.86791992 506.30615234 C127.18232052 506.67667725 78.71318792 501.5057897 34.11254883 483.76171875 C31.72902987 482.942138 29.46854048 482.36519061 26.96972656 482.02490234 C24.841402 483.27791032 24.841402 483.27791032 22.84472656 485.27490234 C8.96097672 497.09794569 -8.49592935 506.4884168 -27.01855469 506.30615234 C-32.73220885 505.77258153 -36.49518032 503.64078983 -40.40527344 499.52490234 C-45.32449011 491.95687669 -45.11394627 483.71236649 -43.44824219 474.97021484 C-37.49649048 455.34845807 -24.47069914 437.41496195 -10.10058594 423.10302734 C-9.54113281 422.52037109 -8.98167969 421.93771484 -8.40527344 421.33740234 C-7.91800781 420.85916016 -7.43074219 420.38091797 -6.92871094 419.88818359 C-4.77574979 415.4231294 -7.46466244 409.01766302 -8.70214844 404.43896484 C-9.0344043 403.19171631 -9.36666016 401.94446777 -9.70898438 400.65942383 C-9.88393433 400.0062619 -10.05888428 399.35309998 -10.23913574 398.68014526 C-16.71222584 374.39437575 -21.32470456 350.02851673 -24.03027344 325.02490234 C-24.10652954 324.33209167 -24.18278564 323.63928101 -24.26135254 322.92547607 C-26.8614155 299.00448431 -27.31842906 275.08237616 -27.34034729 251.04323196 C-27.34272966 248.81583015 -27.34804195 246.58844923 -27.3536377 244.36105347 C-27.40173647 218.16297362 -26.14763647 192.15249578 -22.78027344 166.14990234 C-22.67422791 165.31658386 -22.56818237 164.48326538 -22.45892334 163.62469482 C-19.4445639 140.10314472 -14.95016197 117.13536296 -8.44824219 94.30615234 C-6.680837 88.25322533 -6.680837 88.25322533 -6.03027344 82.02490234 C-7.94923232 79.02793702 -7.94923232 79.02793702 -10.84277344 76.39990234 C-11.8703769 75.35842351 -12.89370952 74.31271623 -13.91308594 73.26318359 C-14.43547852 72.73031738 -14.95787109 72.19745117 -15.49609375 71.6484375 C-30.65323878 55.60849249 -44.74218133 33.10078844 -44.40917969 10.63427734 C-43.89055873 5.69401176 -42.51329883 2.54420925 -39.03027344 -0.97509766 C-27.18728413 -10.21262931 -12.47969928 -5.99373725 0 0 Z M38.27392578 34.07861328 C32.85993427 36.54969501 28.92398301 37.99629161 22.96972656 37.02490234 C20.00881 35.37584503 17.53559918 33.28906309 14.96972656 31.08740234 C9.32853498 26.50761091 3.71481089 22.40931907 -2.65527344 18.89990234 C-3.29335937 18.54677979 -3.93144531 18.19365723 -4.58886719 17.82983398 C-13.04897897 13.1495469 -13.04897897 13.1495469 -22.46777344 11.83740234 C-23.33273438 11.86447266 -24.19769531 11.89154297 -25.08886719 11.91943359 C-25.72953125 11.95423828 -26.37019531 11.98904297 -27.03027344 12.02490234 C-27.35506377 17.50397402 -26.40861335 21.59595179 -24.15527344 26.52490234 C-23.8457373 27.21414795 -23.53620117 27.90339355 -23.21728516 28.61352539 C-15.65718302 44.81400805 -2.69864365 63.67314407 11.79003906 74.36865234 C13.88853384 77.31488342 13.40768076 80.60215546 12.96972656 84.02490234 C12.14544718 87.44743791 11.03092726 90.75295872 9.90722656 94.08740234 C6.78351642 103.82459888 4.28099008 113.62038159 2.03222656 123.58740234 C1.87720673 124.26320343 1.72218689 124.93900452 1.56246948 125.63528442 C-0.54257985 134.73527311 -0.54257985 134.73527311 -1.03027344 144.02490234 C24.08269273 151.24974407 49.0317304 155.89214476 74.96972656 159.02490234 C76.09749512 159.16669922 77.22526367 159.30849609 78.38720703 159.45458984 C111.54411707 163.61822966 144.56222642 164.33787573 177.93200684 164.22052002 C181.84380758 164.20961793 185.75557369 164.21005461 189.66738701 164.21065807 C193.51295921 164.21038334 197.35850991 164.20485674 201.20407486 164.19765663 C203.00174931 164.19453722 204.79942612 164.1925189 206.59710312 164.19176292 C222.41945298 164.17777973 238.2548999 163.77054481 254.00488281 162.15771484 C254.81936386 162.07746063 255.63384491 161.99720642 256.4730072 161.91452026 C258.15713422 161.74720289 259.84102523 161.57749113 261.5246582 161.40527344 C264.03493726 161.14962629 266.54613957 160.90517902 269.05761719 160.66162109 C279.75289574 159.59992299 290.33897799 158.13958383 300.93856812 156.36456299 C302.71719702 156.06713162 304.49728388 155.77844576 306.27758789 155.49121094 C316.70889529 153.80749841 327.06076756 151.89764089 337.34472656 149.46240234 C338.18181152 149.26469238 339.01889648 149.06698242 339.88134766 148.86328125 C349.06736814 147.19488245 349.06736814 147.19488245 356.96972656 143.02490234 C356.92768329 134.75146823 354.67863449 126.58117952 352.78222656 118.58740234 C352.5518721 117.60136017 352.5518721 117.60136017 352.31686401 116.59539795 C350.20766082 107.58144479 347.87251875 98.68537418 344.74829102 89.96069336 C343.06395995 85.10517745 342.37544129 81.17714345 342.96972656 76.02490234 C344.84082031 73.44287109 344.84082031 73.44287109 347.40722656 71.21240234 C352.84631736 66.19464957 357.41860929 60.85001195 361.96972656 55.02490234 C362.72253906 54.07744141 363.47535156 53.12998047 364.25097656 52.15380859 C378.44277911 33.87076616 378.44277911 33.87076616 382.96972656 12.02490234 C373.07528161 9.54261177 363.34931577 15.82528121 355.01220703 20.73730469 C349.95116107 23.92783258 345.24167841 27.61439935 340.52832031 31.29052734 C339.92487793 31.75394531 339.32143555 32.21736328 338.69970703 32.69482422 C337.0856156 33.93580222 335.48230623 35.1907691 333.87988281 36.44677734 C330.96972656 38.02490234 330.96972656 38.02490234 328.14941406 38.00927734 C323.98544329 36.72018566 320.07313484 35.04685276 316.09472656 33.27490234 C307.51861364 29.56443434 298.94711357 26.58987006 289.96972656 24.02490234 C288.88949219 23.68974609 287.80925781 23.35458984 286.69628906 23.00927734 C273.1104182 19.01902157 258.94570965 17.13968926 244.96972656 15.02490234 C243.84824219 14.85249023 242.72675781 14.68007813 241.57128906 14.50244141 C220.83134225 11.51379177 200.02661174 10.64425024 179.09472656 10.71240234 C177.37823914 10.71463806 177.37823914 10.71463806 175.6270752 10.71691895 C129.88165844 10.82333688 80.20155181 14.31595328 38.27392578 34.07861328 Z M-4.03027344 161.02490234 C-5.68076932 169.81876969 -6.65740869 178.61650633 -7.40795898 187.52270508 C-7.59109905 189.69256408 -7.78175731 191.86165956 -7.97363281 194.03076172 C-9.2890241 209.10696454 -10.22526608 224.13414244 -10.21777344 239.27490234 C-10.21849854 239.96493347 -10.21922363 240.6549646 -10.2199707 241.36590576 C-10.21765028 261.93707009 -9.08026291 282.48587954 -8.03027344 303.02490234 C64.42098732 332.61616167 160.87619853 332.24537138 237.36035156 325.33691406 C240.6510315 325.05245188 243.9407532 324.81004386 247.23583984 324.58535767 C275.48268297 322.65790668 303.421317 318.79967896 331.15722656 313.08740234 C332.17494141 312.88332764 333.19265625 312.67925293 334.24121094 312.46899414 C344.44030512 310.24474114 354.1774417 306.58753866 363.96972656 303.02490234 C366.44332632 255.06601345 366.61607891 208.68066279 359.96972656 161.02490234 C352.50118737 161.71316125 345.41691422 163.56624803 338.15722656 165.39990234 C328.18794493 167.88024893 318.26493577 170.01979752 308.08300781 171.41943359 C305.07430127 171.83333551 302.12212243 172.38777764 299.14941406 173.00927734 C293.72103454 174.11752189 288.2850019 174.83510184 282.78222656 175.46240234 C281.69216309 175.58728027 280.60209961 175.7121582 279.47900391 175.84082031 C269.03451563 176.98826718 258.57015093 177.84231194 248.09472656 178.64990234 C247.29249664 178.71225067 246.49026672 178.774599 245.66372681 178.83883667 C240.10115914 179.26747075 234.5369168 179.66126861 228.96972656 180.02490234 C228.20474854 180.07542755 227.43977051 180.12595276 226.65161133 180.17800903 C211.18195552 181.16575039 195.71642432 181.22554731 180.21972656 181.21240234 C178.24150909 181.21149597 178.24150909 181.21149597 176.22332764 181.21057129 C119.66208513 181.15631516 62.74364246 177.32042705 7.83618164 162.95507812 C6.86962646 162.70483887 5.90307129 162.45459961 4.90722656 162.19677734 C4.05 161.97086914 3.19277344 161.74496094 2.30957031 161.51220703 C-0.2845946 160.88897635 -0.2845946 160.88897635 -4.03027344 161.02490234 Z M-6.03027344 322.02490234 C-3.56449524 351.24621416 1.23739199 381.06176617 11.14135742 408.75219727 C12.87263355 413.7936594 14.00397795 418.70334777 12.96972656 424.02490234 C10.87988281 426.92333984 10.87988281 426.92333984 8.03222656 429.39990234 C7.01013781 430.33450096 5.99197068 431.27340431 4.97753906 432.21630859 C4.46739258 432.68311035 3.95724609 433.14991211 3.43164062 433.63085938 C-8.5973327 445.10137335 -26.59704748 467.59489758 -27.15527344 484.89990234 C-27.11402344 485.93115234 -27.07277344 486.96240234 -27.03027344 488.02490234 C-12.83358885 489.82765594 -0.01624729 480.62260123 10.87597656 472.43115234 C14.27499762 469.7874693 17.6371135 467.10425829 20.90722656 464.30224609 C23.74763365 462.54313034 25.6100768 462.12135162 28.96972656 462.02490234 C31.86443622 462.92290996 34.50842245 464.24399793 37.21972656 465.58740234 C68.73540578 480.20889749 103.62096987 485.10289912 137.96972656 488.02490234 C139.67696899 488.17958984 139.67696899 488.17958984 141.41870117 488.33740234 C151.49798253 489.17043717 161.55151149 489.18187142 171.65722656 489.14990234 C172.55846252 489.1480191 173.45969849 489.14613586 174.38824463 489.14419556 C224.44131497 489.02195841 279.86096217 486.86827539 325.11303711 462.88916016 C328.11778856 461.49049873 329.82819981 462.05594951 332.96972656 463.02490234 C335.76604482 464.81791545 338.28534393 466.9122741 340.84472656 469.02490234 C346.53199813 473.55053966 352.23032182 477.6293602 358.59472656 481.14990234 C359.55161377 481.67970703 359.55161377 481.67970703 360.52783203 482.22021484 C368.98837316 486.89987467 368.98837316 486.89987467 378.40722656 488.21240234 C379.2721875 488.18533203 380.13714844 488.15826172 381.02832031 488.13037109 C381.66898437 488.09556641 382.30964844 488.06076172 382.96972656 488.02490234 C384.64136975 473.31444225 371.89306292 457.4925832 363.27783203 446.64160156 C355.04553707 436.41206603 355.04553707 436.41206603 345.71972656 427.21240234 C343.94935017 425.48511293 343.05671737 424.50252777 342.60888672 422.04370117 C342.67302965 416.41107175 343.70605734 411.80727407 345.59472656 406.52490234 C351.49567693 388.79219525 355.19402014 370.67750934 358.28222656 352.27490234 C358.41137451 351.51194855 358.54052246 350.74899475 358.67358398 349.96292114 C360.23500012 340.66349468 361.44608732 331.45246623 361.96972656 322.02490234 C356.52380038 323.00680438 351.26191631 324.20751348 345.96972656 325.83740234 C330.65478758 330.30080276 314.69241168 332.65002399 298.96972656 335.21240234 C297.55953247 335.44443359 297.55953247 335.44443359 296.12084961 335.68115234 C231.9343177 345.83882145 163.58136266 346.64049667 98.96972656 340.02490234 C97.9736438 339.92544312 96.97756104 339.82598389 95.95129395 339.72351074 C63.1417541 336.44293602 30.574051 332.42829011 -1.09277344 322.87255859 C-3.84097986 321.93248522 -3.84097986 321.93248522 -6.03027344 322.02490234 Z " fill="#010100" transform="translate(78.0302734375,5.97509765625)"/>
<path d="M0 0 C7.42246121 6.13088757 12.1216995 13.31291718 13.15203857 23.03855896 C13.30068327 27.23535615 13.33068718 31.41473907 13.3046875 35.61328125 C13.30738733 37.15882613 13.31127381 38.70436934 13.31628418 40.24990845 C13.32214569 43.46901829 13.31371859 46.68768085 13.29492188 49.90673828 C13.27201785 54.02946291 13.28534756 58.15115232 13.30921173 62.27383995 C13.32366275 65.45663266 13.31906906 68.63917943 13.30870056 71.82197952 C13.30603728 73.34260812 13.30928903 74.86325923 13.31861877 76.38386154 C13.32878655 78.50439579 13.31328923 80.62324373 13.29101562 82.74365234 C13.28783325 83.94815033 13.28465088 85.15264832 13.28137207 86.39364624 C12.67098117 90.08434014 11.73017475 91.23976625 8.7734375 93.46484375 C5.3359375 94.46484375 5.3359375 94.46484375 1.7734375 94.46484375 C-1.02845696 92.69843203 -2.74181161 91.43434553 -4.2265625 88.46484375 C-4.3133895 85.69347515 -4.34219455 82.94688575 -4.32421875 80.17578125 C-4.32321167 79.45044189 -4.32220459 78.72510254 -4.32116699 77.9777832 C-4.31593019 75.26512066 -4.30196894 72.55248064 -4.2890625 69.83984375 C-4.2684375 63.77609375 -4.2478125 57.71234375 -4.2265625 51.46484375 C-18.7465625 51.46484375 -33.2665625 51.46484375 -48.2265625 51.46484375 C-48.2265625 58.72484375 -48.2265625 65.98484375 -48.2265625 73.46484375 C-48.77990335 87.74103775 -48.77990335 87.74103775 -52.2265625 92.46484375 C-55.74480761 94.81034049 -57.08431944 95.04475778 -61.2265625 94.46484375 C-64.63076067 91.83704165 -66.08146499 90.39931503 -66.75 86.09375 C-66.72715837 84.73757082 -66.67535193 83.38170664 -66.6015625 82.02734375 C-66.58013184 81.26583008 -66.55870117 80.50431641 -66.53662109 79.71972656 C-66.48403486 77.97114955 -66.41953218 76.22290662 -66.34570312 74.47509766 C-66.21257175 71.11134784 -66.13187968 67.7483017 -66.0546875 64.3828125 C-65.76217519 52.64830686 -65.34272546 40.91803803 -64.4140625 29.21484375 C-64.35621582 28.36567383 -64.29836914 27.51650391 -64.23876953 26.64160156 C-63.29719819 16.15220318 -59.32284989 7.3276611 -51.2265625 0.46484375 C-35.20308075 -9.47269407 -16.08897322 -11.1672409 0 0 Z " fill="#040300" transform="translate(260.2265625,212.53515625)"/>
<path d="M0 0 C2.15625 2.01171875 2.15625 2.01171875 3.21875 5.44921875 C3.14338481 9.74503454 2.19075339 11.06391546 -0.84375 14.01171875 C-3.68232428 15.43100589 -5.6818732 15.25205143 -8.84375 15.01171875 C-11.9453125 13.76171875 -11.9453125 13.76171875 -15.46875 12.01171875 C-32.39968964 4.12276514 -51.18412539 -0.35900705 -69.66455078 -2.67724609 C-72.10594827 -3.02570458 -74.51251726 -3.48798952 -76.93359375 -3.95703125 C-83.86269588 -5.23487342 -90.83035192 -5.97496718 -97.84375 -6.61328125 C-98.92006683 -6.7113356 -98.92006683 -6.7113356 -100.01812744 -6.81137085 C-129.16983831 -9.37722655 -158.73653463 -8.81962407 -187.84375 -5.98828125 C-189.48566935 -5.84236082 -191.12759587 -5.69652115 -192.76953125 -5.55078125 C-218.50633388 -3.11812836 -245.11878658 1.97406992 -268.66674805 12.85400391 C-273.24639436 14.91856386 -275.94344303 15.4910567 -280.84375 14.01171875 C-283.34375 11.88671875 -283.34375 11.88671875 -284.84375 9.01171875 C-284.84375 5.26020476 -284.61452675 2.98854473 -282.265625 0.01171875 C-279.15500213 -2.55705369 -275.80979299 -3.96804226 -272.09375 -5.42578125 C-271.33570068 -5.72798584 -270.57765137 -6.03019043 -269.79663086 -6.34155273 C-247.43402813 -15.10750694 -223.68632756 -20.35382594 -199.84375 -22.98828125 C-198.69084473 -23.12363281 -197.53793945 -23.25898437 -196.35009766 -23.3984375 C-139.27691276 -29.91186613 -49.63588171 -34.7042085 0 0 Z " fill="#020100" transform="translate(396.84375,59.98828125)"/>
<path d="M0 0 C3.234375 1.35546875 3.234375 1.35546875 6.75 3.1875 C15.21883944 7.37441314 23.86003198 9.73886735 33 12 C34.70317158 12.43731861 36.40629554 12.87482274 38.109375 13.3125 C49.99226187 16.31150374 61.83406012 18.54296531 74 20 C75.63557861 20.20520264 75.63557861 20.20520264 77.30419922 20.41455078 C135.38210176 27.46658357 207.50166119 27.77079356 260.8984375 1.25 C264.23209012 -0.09353758 266.44240948 -0.36733254 270 0 C273.74093467 2.07829704 274.79149259 3.32541719 276.0625 7.4375 C275.98507114 11.85094477 275.00252591 12.85782172 272 16 C267.89426983 18.47560323 263.44117142 20.21144816 259 22 C258.39027344 22.2489502 257.78054688 22.49790039 257.15234375 22.75439453 C236.15936738 31.16363741 213.32709997 35.05998111 191 38 C189.88173828 38.15098145 188.76347656 38.30196289 187.61132812 38.45751953 C149.84174338 43.33933842 110.76611452 42.59813097 73 38 C71.8337207 37.86078125 70.66744141 37.7215625 69.46582031 37.578125 C1.89916062 29.18330274 1.89916062 29.18330274 -11 13 C-11.64003318 8.03974283 -11.78789129 6.11231711 -8.875 2 C-5.41167453 -0.40926989 -4.14366748 -0.41436675 0 0 Z " fill="#020100" transform="translate(124,437)"/>
<path d="M0 0 C4.27326952 0.76308384 5.91734706 2.32958462 8.5 5.625 C10.94274975 9.39432551 13.16096461 13.28051997 15.375 17.1875 C16.25478516 18.71987305 16.25478516 18.71987305 17.15234375 20.28320312 C18.33453348 22.34229183 19.51391067 24.40299795 20.69042969 26.46533203 C23.59509081 31.5371243 26.54719003 36.58113227 29.5 41.625 C33.51143148 39.77769372 36.25906138 37.1303999 39.3125 34 C40.11252441 33.19030762 40.11252441 33.19030762 40.92871094 32.36425781 C43.79436898 29.44285444 46.57631415 26.47474664 49.25 23.375 C49.78367187 22.76269531 50.31734375 22.15039062 50.8671875 21.51953125 C52.05832787 20.13746646 53.2273191 18.7362221 54.3828125 17.32421875 C59.20428088 11.85043406 59.20428088 11.85043406 62.90234375 11.20703125 C66.4605462 11.4550097 68.61984888 11.67461065 71.10977173 14.36323547 C72.77673686 17.07522362 72.8302978 18.54693894 72.72412109 21.70385742 C72.68312286 23.16340347 72.68312286 23.16340347 72.64129639 24.6524353 C72.59466858 25.63338165 72.54804077 26.614328 72.5 27.625 C72.4622345 28.50402985 72.42446899 29.38305969 72.38555908 30.28872681 C72.2520646 32.98216881 72.08742387 35.67212182 71.9140625 38.36328125 C71.85298813 39.35529037 71.79191376 40.3472995 71.72898865 41.36936951 C71.53156693 44.55900544 71.32894674 47.74827501 71.125 50.9375 C70.91482283 54.23898072 70.70468266 57.5404638 70.49458313 60.84194946 C70.35537268 63.02685875 70.21563579 65.21173457 70.07536316 67.39657593 C69.72041965 72.96622564 69.38804817 78.53560562 69.1081543 84.10954285 C69.00057341 86.25068673 68.88605321 88.39133546 68.76904297 90.53198242 C68.63520088 93.02229957 68.51487866 95.51339494 68.41064453 98.00512695 C67.9649861 105.80877977 67.9649861 105.80877977 65.6796875 109.8203125 C63.4983283 111.62638409 62.344731 112.40841916 59.5625 112.75 C58.91410156 112.85570312 58.26570313 112.96140625 57.59765625 113.0703125 C54.00222349 112.30703627 52.6608495 110.52098387 50.5 107.625 C49.82136518 104.64858571 49.93879147 101.78815318 50.0625 98.75 C50.07990234 97.85885498 50.09730469 96.96770996 50.11523438 96.04956055 C50.37406377 86.17837166 51.07528535 76.31133608 51.78735352 66.46337891 C52.28901712 59.50062638 52.64725927 52.60652086 52.5 45.625 C51.71351074 46.42719971 51.71351074 46.42719971 50.91113281 47.24560547 C48.52936196 49.6689862 46.13980237 52.08454024 43.75 54.5 C42.925 55.34175781 42.1 56.18351562 41.25 57.05078125 C40.05117187 58.25927734 40.05117187 58.25927734 38.828125 59.4921875 C37.72839355 60.60762939 37.72839355 60.60762939 36.60644531 61.74560547 C33.66237278 64.37234056 31.45787391 65.48233793 27.5625 66.0625 C23.52308307 65.48544044 21.91771989 63.72526366 19.5 60.625 C17.07042413 56.77350139 14.8752823 52.80514173 12.6875 48.8125 C11.7912793 47.20084961 11.7912793 47.20084961 10.87695312 45.55664062 C9.41039376 42.91683377 7.95172939 40.2729824 6.5 37.625 C4.78533924 43.872018 3.84071263 50.01219857 3.09765625 56.44140625 C2.84470774 58.52542787 2.59144299 60.60941113 2.33789062 62.69335938 C1.94774379 65.94704136 1.56091482 69.2010423 1.17993164 72.45581055 C0.80759703 75.61886579 0.42220135 78.7801221 0.03515625 81.94140625 C-0.12907082 83.39166954 -0.12907082 83.39166954 -0.2966156 84.87123108 C-0.96957839 90.29696184 -1.89642545 94.78727972 -4.5 99.625 C-8.2205836 102.10538907 -10.09796571 102.08837203 -14.5 101.625 C-16.86497439 99.75791495 -18.16030715 98.30438569 -19.5 95.625 C-19.67086347 90.96524836 -19.31851381 86.57548129 -18.6171875 81.97265625 C-18.42053296 80.64795515 -18.22392058 79.32324779 -18.02734375 77.99853516 C-17.81002154 76.56150442 -17.59256968 75.12449329 -17.375 73.6875 C-15.73344349 62.74868265 -14.25731794 51.80748288 -13.0078125 40.81640625 C-12.75426655 38.629453 -12.5005234 36.4425226 -12.24658203 34.25561523 C-11.87054046 31.0121278 -11.50198567 27.76867112 -11.15667725 24.52175903 C-10.8318964 21.47294431 -10.48084903 18.42813423 -10.125 15.3828125 C-10.03542023 14.46967789 -9.94584045 13.55654327 -9.85354614 12.61573792 C-9.32263432 8.2732089 -8.85991147 6.08882854 -6.1171875 2.55419922 C-3.5 0.625 -3.5 0.625 0 0 Z " fill="#040300" transform="translate(108.5,192.375)"/>
<path d="M0 0 C4.19074669 0.24070563 5.92233273 2.09733142 8.65234375 5.15234375 C9.2369738 8.85500075 9.15457841 11.05924479 7.58984375 14.46484375 C2.05917702 19.28187606 -6.37818866 18.57154956 -13.28515625 18.77734375 C-14.35056641 18.81601563 -15.41597656 18.8546875 -16.51367188 18.89453125 C-19.12483359 18.98820521 -21.73599929 19.0739271 -24.34765625 19.15234375 C-24.33100166 20.69210373 -24.33100166 20.69210373 -24.31401062 22.26296997 C-24.2125833 31.94422538 -24.13766625 41.62537277 -24.08859539 51.30703926 C-24.06251911 56.28434546 -24.02715694 61.2612222 -23.97045898 66.23828125 C-23.91606908 71.04288825 -23.8862209 75.84708259 -23.87327003 80.65197372 C-23.86404268 82.48361582 -23.84602343 84.31523574 -23.81900597 86.14670181 C-23.78262197 88.71564501 -23.77771467 91.28289072 -23.7800293 93.85205078 C-23.76205292 94.60659042 -23.74407654 95.36113007 -23.72555542 96.13853455 C-23.76386847 100.07736886 -24.31764046 102.59368921 -26.75202942 105.6257019 C-29.34765625 108.15234375 -29.34765625 108.15234375 -31.4453125 108.87890625 C-34.63883302 108.71383362 -36.91226734 108.45359908 -39.56536865 106.61785889 C-42.03749492 103.19806023 -41.87840791 100.13906056 -41.80175781 96.07910156 C-41.80234192 95.2689711 -41.80292603 94.45884064 -41.80352783 93.62416077 C-41.80074477 90.95082504 -41.76964315 88.27860928 -41.73828125 85.60546875 C-41.73081963 83.75031137 -41.72512632 81.89514611 -41.72113037 80.03997803 C-41.7058678 75.16044298 -41.66658061 70.28138522 -41.62231445 65.40203857 C-41.58137519 60.42173723 -41.56312223 55.44135866 -41.54296875 50.4609375 C-41.50008698 40.69119671 -41.43182807 30.92180994 -41.34765625 21.15234375 C-41.93294601 21.22176682 -42.51823578 21.29118988 -43.1212616 21.36271667 C-49.31939963 22.07835576 -55.42090531 22.40173602 -61.66015625 22.46484375 C-62.63533203 22.49384766 -63.61050781 22.52285156 -64.61523438 22.55273438 C-71.65992905 22.61559026 -71.65992905 22.61559026 -74.98046875 20.37890625 C-76.62079936 17.70751069 -76.87143848 15.36043413 -76.9765625 12.25 C-75.92613427 8.74639778 -74.25452049 7.33435054 -71.34765625 5.15234375 C-68.20082755 4.4398058 -65.12762816 4.40729752 -61.91015625 4.40234375 C-60.24472931 4.36885489 -58.57935788 4.33246192 -56.9140625 4.29296875 C-56.11806641 4.27685547 -55.32207031 4.26074219 -54.50195312 4.24414062 C-51.72889821 4.12597781 -49.07893582 3.63945093 -46.34765625 3.15234375 C-42.81098017 2.76201708 -39.26768505 2.45624551 -35.72265625 2.15234375 C-34.71662354 2.06549316 -33.71059082 1.97864258 -32.67407227 1.88916016 C-21.79099031 0.97889218 -10.90646798 0.49632701 0 0 Z " fill="#050400" transform="translate(409.34765625,197.84765625)"/>
<path d="M0 0 C5.95390265 47.79155193 6.47845186 93.94703716 4 142 C1.73117913 142.83919398 -0.53977027 143.67151724 -2.8125 144.5 C-3.45509766 144.73847656 -4.09769531 144.97695313 -4.75976562 145.22265625 C-7.64933739 146.27068746 -9.90076061 147 -13 147 C-13.02956676 143.87502063 -13.04698543 140.75007823 -13.0625 137.625 C-13.07087891 136.75488281 -13.07925781 135.88476562 -13.08789062 134.98828125 C-13.09111328 134.11816406 -13.09433594 133.24804688 -13.09765625 132.3515625 C-13.10289307 131.56604004 -13.10812988 130.78051758 -13.11352539 129.97119141 C-13.01466754 127.38387946 -12.78503393 124.87345159 -12.50439453 122.30151367 C-11.96650432 117.13096425 -11.83912903 112.01961914 -11.83203125 106.82421875 C-11.82788712 105.8729007 -11.82374298 104.92158264 -11.81947327 103.94143677 C-11.80982669 100.85675154 -11.80981602 97.77219798 -11.8125 94.6875 C-11.81243958 93.62864594 -11.81237915 92.56979187 -11.81231689 91.47885132 C-11.83303335 65.8745173 -12.8589404 40.34327534 -15.6328125 14.87890625 C-15.94781011 11.55132509 -16.07406777 8.33834009 -16 5 C-17.32 4.67 -18.64 4.34 -20 4 C-17.60612843 3.32550034 -15.21030779 2.66023359 -12.8125 2 C-12.13896484 1.80921875 -11.46542969 1.6184375 -10.77148438 1.421875 C-7.06296033 0.40881477 -3.82851984 -0.09246237 0 0 Z " fill="#F17A00" transform="translate(438,167)"/>
<path d="M0 0 C-2.4657782 29.22131182 -7.26766542 59.03686383 -17.17163086 86.72729492 C-18.90290699 91.76875706 -20.03425139 96.67844543 -19 102 C-16.99166909 105.01781807 -16.99166909 105.01781807 -14.0625 107.375 C-13.04041125 108.30959861 -12.02224412 109.24850197 -11.0078125 110.19140625 C-10.49766602 110.65820801 -9.98751953 111.12500977 -9.46191406 111.60595703 C2.56705926 123.07647101 20.56677404 145.56999524 21.125 162.875 C21.08375 163.90625 21.0425 164.9375 21 166 C19.39620659 166.05416188 17.79188594 166.09286638 16.1875 166.125 C15.29417969 166.14820313 14.40085937 166.17140625 13.48046875 166.1953125 C11 166 11 166 8 164 C7.734375 162.109375 7.734375 162.109375 7.75 159.75 C6.21742962 139.65308651 -14.12061099 121.82993205 -27.3125 108.5625 C-28.00682129 107.86342529 -28.70114258 107.16435059 -29.41650391 106.4440918 C-30.07956543 105.78320557 -30.74262695 105.12231934 -31.42578125 104.44140625 C-32.31390503 103.55497437 -32.31390503 103.55497437 -33.2199707 102.65063477 C-35.05523718 100.94877814 -36.97314813 99.46589548 -39 98 C-38.59265625 96.77796875 -38.1853125 95.5559375 -37.765625 94.296875 C-37.35280273 93.05647461 -37.35280273 93.05647461 -36.93164062 91.79101562 C-36.29802985 89.89283994 -35.66118906 87.99574003 -35.02148438 86.09960938 C-26.19296426 59.84681605 -18.20085967 32.73083183 -16 5 C-16.66 4.67 -17.32 4.34 -18 4 C-17.08476562 3.79503906 -16.16953125 3.59007812 -15.2265625 3.37890625 C-13.44378906 2.97478516 -13.44378906 2.97478516 -11.625 2.5625 C-10.44164062 2.29566406 -9.25828125 2.02882813 -8.0390625 1.75390625 C-0.96891192 0 -0.96891192 0 0 0 Z " fill="#614320" transform="translate(440,328)"/>
<path d="M0 0 C2.63016161 2.1727422 4.47336894 3.94673788 6 7 C6.11595355 9.26084891 6.16704453 11.52510882 6.18945312 13.78881836 C6.19774643 14.48654861 6.20603973 15.18427887 6.21458435 15.90315247 C6.2319955 17.42003539 6.24715941 18.93694537 6.26036072 20.45387077 C6.28136938 22.8534793 6.30839418 25.25295232 6.33703613 27.65248108 C6.39676736 32.74743545 6.44889994 37.84245272 6.5 42.9375 C6.55921382 48.8371097 6.62151516 54.73665268 6.69187927 60.63614082 C6.71846553 63.00202932 6.73927414 65.36792447 6.7598877 67.73387146 C6.77649154 69.18317994 6.79336346 70.63248538 6.81054688 72.08178711 C6.82307495 73.34816513 6.83560303 74.61454315 6.84851074 75.91929626 C6.86332195 79.03871963 6.86332195 79.03871963 8 82 C12.21904425 83.85510544 15.99692521 84.26716375 20.5703125 84.34375 C22.40916016 84.38822266 22.40916016 84.38822266 24.28515625 84.43359375 C26.85286225 84.47799965 29.42057061 84.52226967 31.98828125 84.56640625 C33.21160156 84.59605469 34.43492187 84.62570312 35.6953125 84.65625 C36.80922363 84.67494141 37.92313477 84.69363281 39.07080078 84.71289062 C41.96522158 84.99659115 43.60577973 85.38719379 46 87 C48.50031654 90.75047482 48.53603554 92.55856266 48 97 C45.32473906 100.50387877 43.84090132 101.85033531 39.45410156 102.63110352 C38.09985991 102.65716434 36.74486717 102.65494024 35.390625 102.62890625 C34.30125641 102.63252419 34.30125641 102.63252419 33.18988037 102.63621521 C31.65680472 102.63523872 30.12369295 102.6218918 28.59082031 102.59692383 C26.27023274 102.56279754 23.95349928 102.57622435 21.6328125 102.59570312 C11.8970092 102.58573678 4.9583158 101.24197572 -3.25 95.875 C-11.99232557 86.73529599 -11.730185 76.54857269 -11.62890625 64.62890625 C-11.62973607 62.85676427 -11.6321997 61.08462237 -11.63621521 59.31248474 C-11.63905974 55.61832215 -11.62449401 51.92477046 -11.59692383 48.23071289 C-11.56266729 43.49359568 -11.56892971 38.75755725 -11.5875864 34.0203867 C-11.5981397 30.37010158 -11.58923683 26.72006868 -11.57420158 23.06980705 C-11.56901876 21.32228277 -11.5695028 19.57473219 -11.57574654 17.82721138 C-11.58118566 15.39277183 -11.56087452 12.95989607 -11.53344727 10.52563477 C-11.53997314 9.80407196 -11.54649902 9.08250916 -11.55322266 8.33908081 C-11.49190491 5.14509814 -11.4107946 3.43803913 -9.1815033 1.06089783 C-5.88781409 -0.54087272 -3.60940859 -0.50658366 0 0 Z " fill="#040300" transform="translate(302,205)"/>
<path d="M0 0 C0.32479033 5.47907168 -0.62166009 9.57104945 -2.875 14.5 C-3.18453613 15.18924561 -3.49407227 15.87849121 -3.81298828 16.58862305 C-12.2459625 34.65957636 -26.01151186 50.01151186 -40 64 C-40.76388532 71.29086097 -38.58614001 77.42310565 -36.375 84.3125 C-33.35330348 94.09247213 -30.70920052 103.87908313 -28.5 113.875 C-28.24524902 115.01493408 -27.99049805 116.15486816 -27.72802734 117.3293457 C-25.58590852 127.24508912 -25.58590852 127.24508912 -26 131 C-30.7519749 134.16798327 -35.35331541 135.1358309 -41 135 C-41.13986328 134.31824707 -41.27972656 133.63649414 -41.42382812 132.93408203 C-46.02184272 110.78303584 -51.99330572 89.17154737 -60 68 C-58.96166016 67.06994141 -58.96166016 67.06994141 -57.90234375 66.12109375 C-30.40827667 41.26726032 -30.40827667 41.26726032 -13 9 C-12.93334624 7.60560336 -12.91461801 6.20830125 -12.9375 4.8125 C-12.958125 3.554375 -12.97875 2.29625 -13 1 C-4.57142857 -1.42857143 -4.57142857 -1.42857143 0 0 Z " fill="#604320" transform="translate(461,18)"/>
<path d="M0 0 C2.66707084 2.30284531 4.41870614 4.83741228 6 8 C6 12.29 6 16.58 6 21 C-7.86 21 -21.72 21 -36 21 C-36 6 -36 6 -30.8125 0.8125 C-20.70359948 -5.70212478 -10.65857508 -5.54922639 0 0 Z " fill="#FBBF07" transform="translate(250,226)"/>
</svg>
