<?xml version="1.0" encoding="UTF-8"?>
<svg version="1.1" xmlns="http://www.w3.org/2000/svg" width="512" height="512">
<path d="M0 0 C2.4375 1.375 2.4375 1.375 4 3 C4 3.66 4 4.32 4 5 C5.1446875 4.7525 5.1446875 4.7525 6.3125 4.5 C12.92434402 3.60347878 19.47612003 3.51354634 26 5 C26.309375 4.360625 26.61875 3.72125 26.9375 3.0625 C28 1 28 1 29 0 C37.69523332 -1.17901469 44.87261638 2.23522748 52 7 C53.85681737 8.61714665 55.67368483 10.28189346 57.4375 12 C60.930502 15.54454915 60.930502 15.54454915 65.8125 16.125 C66.864375 15.75375 67.91625 15.3825 69 15 C82.66724107 11.63064543 95.37518033 14.44505959 107.375 21.24609375 C111.87225833 24.25095832 116.54373936 28.08747872 119 33 C121.60927888 33.3200617 121.60927888 33.3200617 124.75 33.375 C140.67612721 34.40305416 153.58409659 40.73063466 164.57421875 52.109375 C166.84555251 54.81595629 168.47451825 57.39000134 170.125 60.5 C171.97165531 63.95335996 171.97165531 63.95335996 175.1484375 66.04296875 C176.69781073 66.46763085 178.25405887 66.86806722 179.81640625 67.2421875 C183.68241937 68.58388078 185.9587519 71.55330239 188 75 C190.16556486 80.05792889 190.33467988 84.65504536 190.3125 90.0625 C190.32861328 90.85205078 190.34472656 91.64160156 190.36132812 92.45507812 C190.36517361 97.04273665 190.20100904 100.42240166 187 104 C185.35 104.33 183.7 104.66 182 105 C182 111.93 182 118.86 182 126 C183.65 126.33 185.3 126.66 187 127 C191.11417482 132.30890244 190.44425514 138.66409486 190.375 145.0625 C190.38660156 146.13822266 190.39820313 147.21394531 190.41015625 148.32226562 C190.40628906 149.36189453 190.40242188 150.40152344 190.3984375 151.47265625 C190.39505371 152.41375244 190.39166992 153.35484863 190.38818359 154.32446289 C189.5771145 159.91471836 185.58611224 163.85760734 182 168 C181.0090031 169.15745664 180.01812084 170.31501144 179.02734375 171.47265625 C178.52315918 172.05934082 178.01897461 172.64602539 177.49951172 173.25048828 C175.17167529 175.96642378 172.8684581 178.7029936 170.5625 181.4375 C166.69055591 186.02075926 162.78820516 190.57695294 158.875 195.125 C155.38184894 199.18628745 151.93551604 203.27518587 148.5625 207.4375 C144.42442107 212.53687495 140.13158764 217.48932077 135.81030273 222.43310547 C132.48944702 226.24328369 129.27573126 230.11064424 126.125 234.0625 C120.96713563 240.39688453 116.01377253 245.59586824 108 248 C104.37 248 100.74 248 97 248 C97 261.53 97 275.06 97 289 C111.52 289 126.04 289 141 289 C140.76454265 281.55061014 140.76454265 281.55061014 140.45947266 274.10400391 C140.33603276 266.28216169 142.13931414 261.14640616 147 255 C152.04012085 249.88597494 157.91749351 248.38849192 165 248 C173.58293826 248.65815958 179.13071774 252.70205077 184.703125 259.0234375 C188.67973799 265.08417899 188.2419561 271.40261706 188.125 278.375 C188.11597656 279.39722656 188.10695313 280.41945313 188.09765625 281.47265625 C188.0742043 283.98201522 188.04138355 286.49088336 188 289 C189.14597656 288.96519531 190.29195313 288.93039062 191.47265625 288.89453125 C193.00258939 288.86637297 194.53253854 288.83907501 196.0625 288.8125 C197.19075195 288.77479492 197.19075195 288.77479492 198.34179688 288.73632812 C205.02760485 288.64949945 209.63683327 289.95192217 214.8125 294.4375 C218.50400121 298.76182999 219.24984632 301.53842015 219.22705078 307.23730469 C219.22689972 308.49830994 219.22674866 309.75931519 219.22659302 311.05853271 C219.21638056 312.42964842 219.20594858 313.80076251 219.1953125 315.171875 C219.19158057 316.57863158 219.18873445 317.98539077 219.18673706 319.39215088 C219.17911476 323.08786239 219.15947845 326.78341575 219.1373291 330.47906494 C219.11684036 334.25294862 219.10772888 338.02685794 219.09765625 341.80078125 C219.0762311 349.20060115 219.04106054 356.60025823 219 364 C223.29 364 227.58 364 232 364 C231.896875 362.515 231.79375 361.03 231.6875 359.5 C231.69554892 353.81745992 233.2539507 350.23508967 237 346 C244.42292901 340.09195446 251.7933477 340.43296094 261 341 C266.58577543 342.09983485 270.360639 344.61135879 274 349 C278.21461447 355.53265243 277.21656051 364.35967468 277.25 371.8125 C277.2809375 373.51889648 277.2809375 373.51889648 277.3125 375.25976562 C277.34976311 383.33188635 276.48497478 389.91754143 272.25 396.875 C266.85237906 401.97275311 261.02020296 402.48132915 253.9375 402.375 C253.16083984 402.38660156 252.38417969 402.39820313 251.58398438 402.41015625 C245.78297295 402.38068456 241.53818374 401.34130156 237.13671875 397.28125 C236.65847656 396.6934375 236.18023437 396.105625 235.6875 395.5 C235.19636719 394.9121875 234.70523437 394.324375 234.19921875 393.71875 C231.22332876 389.45363079 231.92792405 384.97324088 232 380 C227.71 380 223.42 380 219 380 C219.00888245 381.50257355 219.01776489 383.00514709 219.0269165 384.55325317 C219.10797633 398.70828954 219.16819337 412.86324377 219.20724869 427.01844978 C219.22786208 434.29592342 219.25595901 441.57322363 219.30175781 448.85058594 C219.34166337 455.19455231 219.36744172 461.53839306 219.37635398 467.88248146 C219.38156254 471.24078352 219.39377825 474.59872625 219.42292023 477.95691299 C219.45192419 481.70863469 219.45595707 485.45961015 219.45410156 489.21142578 C219.46848267 490.32129349 219.48286377 491.43116119 219.49768066 492.57466125 C219.46478583 498.71469834 219.13091856 502.34284413 215 507 C209.90313483 511.4900955 206.79296069 512.17347889 200.140625 512.23828125 C199.35862732 512.246353 198.57662964 512.25442474 197.77093506 512.26274109 C196.11326311 512.2765822 194.45556265 512.28730424 192.79785156 512.29516602 C190.27353121 512.31233991 187.75053414 512.35621865 185.2265625 512.40039062 C183.61459295 512.4105213 182.00261227 512.41903623 180.390625 512.42578125 C179.64041077 512.44328934 178.89019653 512.46079742 178.11724854 512.47883606 C172.86657637 512.45731691 169.92423428 511.4812975 166 508 C161 500 161 500 161 456 C86.42 456 11.84 456 -65 456 C-65 470.19 -65 484.38 -65 499 C-69.58490566 508.16981132 -69.58490566 508.16981132 -74 511 C-77.61719944 512.20573315 -80.9694155 512.20021033 -84.73828125 512.23828125 C-85.49666794 512.246353 -86.25505463 512.25442474 -87.03642273 512.26274109 C-88.6410393 512.27656182 -90.24568502 512.28729296 -91.8503418 512.29516602 C-93.48649748 512.30668481 -95.12261562 512.32713529 -96.75854492 512.35668945 C-99.12704919 512.39947503 -101.49443795 512.41554944 -103.86328125 512.42578125 C-104.58848465 512.44328934 -105.31368805 512.46079742 -106.06086731 512.47883606 C-111.19812213 512.45707295 -114.02817402 511.19595496 -118 508 C-123.51757627 502.32915772 -124.25293613 495.9955629 -124.22705078 488.32055664 C-124.22734283 487.58801666 -124.22763489 486.85547668 -124.22793579 486.10073853 C-124.22655367 483.70375299 -124.21104587 481.3070868 -124.1953125 478.91015625 C-124.19157838 477.2386441 -124.18873329 475.56712975 -124.18673706 473.89561462 C-124.17913199 469.51441311 -124.15951062 465.13334599 -124.1373291 460.75219727 C-124.11680307 456.27426979 -124.10772094 451.79632042 -124.09765625 447.31835938 C-124.07626154 438.54551151 -124.04216369 429.77277252 -124 421 C-125.25022949 421.02618408 -126.50045898 421.05236816 -127.78857422 421.0793457 C-132.46628636 421.17045077 -137.1439215 421.22746703 -141.82226562 421.2746582 C-143.83965278 421.2996658 -145.85695059 421.3336834 -147.87402344 421.37719727 C-170.70192544 421.85701222 -170.70192544 421.85701222 -178.87207031 414.2590332 C-184.56929318 408.31213478 -186.19055868 402.78997656 -186.5 394.6875 C-186.3201106 386.77236628 -184.61233397 381.22661411 -179.4609375 375.19921875 C-170.43562595 366.58026009 -155.48109752 364.26991634 -143.875 360.75 C-142.04154632 360.1904984 -140.20821188 359.63060586 -138.375 359.0703125 C-133.91802963 357.70902774 -129.4594758 356.35305345 -125 355 C-124.99413376 354.40610977 -124.98826752 353.81221954 -124.98222351 353.20033264 C-124.91799898 346.98635888 -124.83350612 340.77288917 -124.73754883 334.55932617 C-124.70441454 332.24428986 -124.67634728 329.929175 -124.65356445 327.61401367 C-124.6198069 324.27488922 -124.56747969 320.93647719 -124.51171875 317.59765625 C-124.50532883 316.57229263 -124.4989389 315.54692902 -124.49235535 314.49049377 C-124.34005435 306.94754594 -123.50051378 300.19510094 -118.75 294.125 C-112.10815614 288.99266611 -106.43187926 288.57025741 -98.29125977 288.65942383 C-96.70964806 288.65876671 -96.70964806 288.65876671 -95.09608459 288.65809631 C-91.62766696 288.66017827 -88.15973895 288.68348196 -84.69140625 288.70703125 C-82.2800269 288.7126293 -79.86864412 288.71689841 -77.45726013 288.71989441 C-71.12296055 288.73132667 -64.78886864 288.76078022 -58.45465088 288.79400635 C-51.98607187 288.82474196 -45.51745917 288.83840722 -39.04882812 288.85351562 C-26.36577968 288.88565126 -13.68293963 288.93840627 -1 289 C-1 275.47 -1 261.94 -1 248 C-4.63 248 -8.26 248 -12 248 C-22.5807979 245.0258638 -28.83633523 236.32436273 -35.421875 228.1484375 C-38.3254822 224.57037036 -41.34775855 221.09852001 -44.375 217.625 C-49.85887956 211.32745539 -55.27706283 204.979016 -60.65722656 198.59277344 C-62.47557054 196.43588687 -64.29799732 194.28247134 -66.12084961 192.12939453 C-67.03882598 191.04485314 -67.95630822 189.95989331 -68.87329102 188.87451172 C-71.16837288 186.15861722 -73.46995416 183.44877147 -75.78515625 180.75 C-76.25050781 180.20537109 -76.71585937 179.66074219 -77.1953125 179.09960938 C-78.46275494 177.61670172 -79.73320336 176.13636473 -81.00390625 174.65625 C-81.44302338 174.10977814 -81.8821405 173.56330627 -82.33456421 173.00027466 C-83.64436159 171.42714015 -85.03054148 169.91758438 -86.44204712 168.43502808 C-94.68976306 159.35543934 -95.40414226 151.84377558 -95.08203125 139.9140625 C-95.07096132 138.20065376 -95.06393223 136.48721467 -95.06071472 134.77377319 C-95.04398939 131.20760939 -94.99501548 127.64400305 -94.91918945 124.07861328 C-94.82261379 119.52249047 -94.78308974 114.96821671 -94.76451588 110.41117287 C-94.74419411 106.03689672 -94.69532566 101.66307271 -94.64453125 97.2890625 C-94.63737406 96.46372639 -94.63021687 95.63839027 -94.62284279 94.78804398 C-94.59735616 92.44095492 -94.55152933 90.09516292 -94.49926758 87.74853516 C-94.49188065 86.72288452 -94.49188065 86.72288452 -94.48434448 85.67651367 C-94.3047246 79.41888622 -92.62732739 74.91941179 -88.5625 70.125 C-86 68 -86 68 -83.8125 67.5625 C-83.214375 67.376875 -82.61625 67.19125 -82 67 C-81.72542969 66.11183594 -81.45085937 65.22367187 -81.16796875 64.30859375 C-78.20466233 55.91421069 -70.23513825 49.39435575 -62.59375 45.2109375 C-58.17140237 43.14628725 -53.6388319 41.50511185 -49 40 C-45.75260168 39.29666155 -45.75260168 39.29666155 -44.4921875 36.2265625 C-43.95851562 35.03804687 -43.42484375 33.84953125 -42.875 32.625 C-35.87750471 17.93832022 -24.58757523 7.10122009 -9.4765625 0.80859375 C-6.12695476 -0.28504789 -3.48030591 -0.56821321 0 0 Z M-131.5625 374 C-132.76003906 374.37125 -133.95757812 374.7425 -135.19140625 375.125 C-136.58166016 375.558125 -136.58166016 375.558125 -138 376 C-136.69993868 380.12161952 -136.69993868 380.12161952 -134.91796875 384.046875 C-131.96369913 390.33255503 -132.87081672 398.35036511 -134 405 C-130.7 405 -127.4 405 -124 405 C-124 394.11 -124 383.22 -124 372 C-126.47556182 372 -129.24171641 373.27897985 -131.5625 374 Z " fill="#010101" transform="translate(211,0)"/>
<path d="M0 0 C22.44 0 44.88 0 68 0 C68 13.86 68 27.72 68 42 C57.6875 42.3125 57.6875 42.3125 54.44799805 42.38793945 C53.60277588 42.42105225 52.75755371 42.45416504 51.88671875 42.48828125 C50.59060669 42.52755737 50.59060669 42.52755737 49.26831055 42.56762695 C46.547187 43.08631276 45.63398379 43.79142851 44 46 C43.49346823 49.40099904 43.51153493 51.2296284 45.36785889 54.1572876 C49.51056886 57.0575208 53.61042277 56.57040713 58.55175781 56.54589844 C60.16197311 56.56140495 60.16197311 56.56140495 61.80471802 56.57722473 C65.3543387 56.60673178 68.90339113 56.60815363 72.453125 56.609375 C74.91364637 56.62435124 77.37415767 56.6410772 79.83465576 56.65948486 C86.31193495 56.70323264 92.78907851 56.7231741 99.26647949 56.73822021 C107.03758556 56.76120038 114.80854151 56.81363848 122.57952881 56.86116028 C134.38639183 56.93005371 146.19282334 56.96143966 158 57 C158 76.47 158 95.94 158 116 C150.41 116 142.82 116 135 116 C134.01 113.03 133.02 110.06 132 107 C125.7329982 92.78370388 116.10540608 85.64177023 102 80 C90.35637636 76.78550268 77.72469674 78.65977738 67.31640625 84.5078125 C58.76156767 90.10686971 51.75307741 97.39435138 48 107 C47.64550781 107.85980469 47.29101562 108.71960938 46.92578125 109.60546875 C43.98151833 120.40109944 44.59688217 133.71335688 49.640625 143.6875 C50.08921875 144.450625 50.5378125 145.21375 51 146 C51.99 147.7015625 51.99 147.7015625 53 149.4375 C60.23143648 158.70277799 70.17309185 166.18958631 82 168 C95.75992151 169.00332761 107.47809122 167.49890962 118.4140625 158.234375 C120 157 120 157 123 156 C124.06910377 154.18072077 124.06910377 154.18072077 125 152 C125.95149969 150.47488192 126.91040208 148.95436771 127.875 147.4375 C131.08071803 142.16535098 133.05166932 136.84499204 135 131 C142.59 131 150.18 131 158 131 C158 151.13 158 171.26 158 192 C76.16 192 -5.68 192 -90 192 C-90 185.73 -90 179.46 -90 173 C-87.76581299 172.9906543 -85.53162598 172.98130859 -83.22973633 172.97167969 C-75.8016769 172.93772999 -68.37389004 172.88208272 -60.94604969 172.81609726 C-56.44782483 172.77678992 -51.94979084 172.74452015 -47.45141602 172.72900391 C-43.10043593 172.71372595 -38.74998117 172.67908672 -34.39923668 172.63169098 C-32.74933152 172.61699095 -31.0993513 172.60896561 -29.44938087 172.60811615 C-12.60299434 172.59073971 2.5193055 169.20334574 15 157 C25.50002595 144.09996812 28.43064513 130.35691275 27 114 C26.15175761 110.02537852 24.83223823 106.61895501 23 103 C22.56429687 102.13890625 22.12859375 101.2778125 21.6796875 100.390625 C15.13914719 88.59620806 5.30741974 80.7079004 -7.52563477 76.62182617 C-23.75022454 72.5444675 -39.32168663 77.32871414 -54.50927734 82.78857422 C-60.40014849 84.83295124 -66.36916676 86.61300315 -72.34420776 88.39334106 C-74.34476448 88.99096774 -76.34256187 89.59716479 -78.34008789 90.20483398 C-79.55559326 90.57036377 -80.77109863 90.93589355 -82.0234375 91.3125 C-83.10544434 91.63863281 -84.18745117 91.96476562 -85.30224609 92.30078125 C-88 93 -88 93 -91 93 C-91 81.12 -91 69.24 -91 57 C-87.77959961 56.97494385 -84.55919922 56.9498877 -81.24121094 56.92407227 C-70.61211787 56.84067094 -59.98307375 56.75197566 -49.35404587 56.66066074 C-42.90841131 56.60544897 -36.46277219 56.55203165 -30.01708984 56.50268555 C-23.79901393 56.4550164 -17.58099347 56.40267249 -11.3629837 56.34705925 C-8.9882978 56.3266473 -6.6135967 56.3079323 -4.23888397 56.29092598 C-0.91798905 56.26685647 2.40280107 56.23680511 5.72363281 56.20532227 C6.70978073 56.1995668 7.69592865 56.19381134 8.71195984 56.18788147 C9.61777298 56.17809265 10.52358612 56.16830383 11.45684814 56.15821838 C12.24221577 56.15176583 13.02758339 56.14531328 13.83675003 56.1386652 C16.00309571 55.99980156 17.91665163 55.59501232 20 55 C20.08090971 53.37581255 20.13914995 51.75048255 20.1875 50.125 C20.22230469 49.22007812 20.25710937 48.31515625 20.29296875 47.3828125 C20.19628906 46.59648437 20.09960938 45.81015625 20 45 C15.23833725 41.46092022 15.23833725 41.46092022 0 42 C0 28.14 0 14.28 0 0 Z " fill="#796D78" transform="translate(225,248)"/>
<path d="M0 0 C1.30833487 -0.00391162 1.30833487 -0.00391162 2.64310074 -0.00790226 C4.09681391 -0.00455618 4.09681391 -0.00455618 5.57989502 -0.0011425 C6.60093197 -0.00270249 7.62196892 -0.00426248 8.67394638 -0.00586975 C12.12340453 -0.00988455 15.5728193 -0.00668825 19.02227783 -0.00355339 C21.48382595 -0.00490722 23.94537386 -0.00668705 26.40692139 -0.00886345 C32.41564013 -0.01296387 38.42434161 -0.01234446 44.43305969 -0.00945081 C49.31432193 -0.00719697 54.19558066 -0.00688417 59.07684326 -0.00797462 C60.11696741 -0.00820447 60.11696741 -0.00820447 61.17810416 -0.00843897 C62.5865469 -0.00875868 63.99498963 -0.00908289 65.40343237 -0.00941156 C78.6258052 -0.01226649 91.84817111 -0.00897912 105.07054281 -0.00361119 C116.42815587 0.00085686 127.78575871 0.00008093 139.14337158 -0.00452995 C152.31683139 -0.00987548 165.49028513 -0.0119918 178.66374588 -0.00891769 C180.06715139 -0.00859912 181.47055689 -0.00828475 182.8739624 -0.00797462 C183.56455427 -0.00782035 184.25514614 -0.00766607 184.96666503 -0.00750712 C189.84486394 -0.0066419 194.72305901 -0.00810495 199.60125732 -0.01045418 C206.16091985 -0.01354357 212.72056598 -0.01135972 219.28022766 -0.00555992 C221.69541898 -0.00423159 224.11061192 -0.00462767 226.52580261 -0.00682259 C229.80752774 -0.00953123 233.08918961 -0.00615648 236.37091064 -0.0011425 C237.34005276 -0.00337322 238.30919487 -0.00560395 239.30770493 -0.00790226 C240.17992817 -0.00529452 241.05215141 -0.00268677 241.95080566 0 C242.70932453 0.00016235 243.4678434 0.0003247 244.24934769 0.00049198 C245.97540283 0.12584114 245.97540283 0.12584114 246.97540283 1.12584114 C247.17943197 4.89282351 247.32213786 8.65329424 247.40509033 12.42466927 C247.54145458 15.92752582 247.64831954 18.4885243 249.26446533 21.63755989 C251.1272203 23.48517997 251.1272203 23.48517997 254.97540283 24.12584114 C254.97540283 31.38584114 254.97540283 38.64584114 254.97540283 46.12584114 C252.99540283 46.78584114 251.01540283 47.44584114 248.97540283 48.12584114 C246.12740158 53.82184364 247.34936372 60.7685061 246.97540283 67.12584114 C163.81540283 67.12584114 80.65540283 67.12584114 -5.02459717 67.12584114 C-5.02459717 0.00107546 -5.02459717 0.00107546 0 0 Z " fill="#E1DDE1" transform="translate(138.02459716796875,80.87415885925293)"/>
<path d="M0 0 C77.22 0 154.44 0 234 0 C230.05666394 5.25778141 226.13947146 10.27848407 221.8125 15.1875 C220.66474863 16.50076401 219.51762367 17.81457573 218.37109375 19.12890625 C217.80374512 19.77875488 217.23639648 20.42860352 216.65185547 21.09814453 C214.20135338 23.91951776 211.78462254 26.7686987 209.375 29.625 C208.92866211 30.15383789 208.48232422 30.68267578 208.02246094 31.22753906 C207.12748396 32.28866115 206.23278811 33.3500204 205.33837891 34.41162109 C203.08232576 37.0890895 200.822951 39.76374402 198.5625 42.4375 C198.11624268 42.96553223 197.66998535 43.49356445 197.21020508 44.03759766 C193.18475157 48.79449412 189.12813407 53.52446434 185.05883789 58.24389648 C184.58696045 58.79247314 184.11508301 59.3410498 183.62890625 59.90625 C182.95045654 60.69128906 182.95045654 60.69128906 182.25830078 61.4921875 C181.10336217 62.87614188 180.02930432 64.32655532 178.96484375 65.78125 C176.2490004 68.84804726 173.9053867 69.83855111 169.79026985 70.18723679 C166.9711413 70.27536488 164.158656 70.29305715 161.33813477 70.29052734 C160.26439606 70.29724457 159.19065735 70.30396179 158.0843811 70.31088257 C154.5366757 70.32987313 150.98915931 70.33378713 147.44140625 70.3359375 C144.97427797 70.34236394 142.50715047 70.34909218 140.0400238 70.35610962 C134.86935661 70.36808451 129.69875625 70.37179014 124.52807617 70.37060547 C117.90238625 70.3704021 111.2771244 70.39772224 104.65153599 70.43214989 C99.55659516 70.45438413 94.46175799 70.45844409 89.36677361 70.45738602 C86.92393453 70.45974652 84.48109279 70.46859517 82.03830147 70.48405075 C78.62231535 70.50364253 75.20726083 70.49789899 71.79125977 70.48583984 C70.27850212 70.50269836 70.27850212 70.50269836 68.73518372 70.51989746 C61.73355036 70.45707718 58.36451527 69.21841761 53.26831055 64.34350586 C52.81238525 63.80604736 52.35645996 63.26858887 51.88671875 62.71484375 C51.10554688 61.80412109 51.10554688 61.80412109 50.30859375 60.875 C49.77363281 60.235625 49.23867187 59.59625 48.6875 58.9375 C48.11773437 58.26847656 47.54796875 57.59945312 46.9609375 56.91015625 C43.03248011 52.28113874 39.18877087 47.5846732 35.3671875 42.8671875 C32.50801623 39.40409887 29.57323254 36.01229451 26.625 32.625 C0 2.03490401 0 2.03490401 0 0 Z " fill="#A59BA6" transform="translate(142,163)"/>
<path d="M0 0 C0.226875 1.093125 0.45375 2.18625 0.6875 3.3125 C1.63771847 6.99325492 1.63771847 6.99325492 4 8.625 C5.7281543 9.41707072 7.45950175 10.2024093 9.19921875 10.96875 C17.45744468 14.80616738 23.71173937 20.2911598 29.75 27.0625 C31.86966645 29.20609457 31.86966645 29.20609457 34.75 29.5625 C37.75172919 29.04296995 39.25564635 28.38935298 41.875 27 C49.4763444 23.43646924 58.58100305 23.59957879 66.48828125 26.10546875 C74.95857239 30.03998755 79.3639104 35.11864768 84 43 C86.29058275 44.14529138 87.60324292 44.12424314 90.1484375 44.140625 C105.07166655 44.41714111 115.00590557 46.50709719 126.234375 57.01171875 C128 59 128 59 128 61 C56.39 61 -15.22 61 -89 61 C-81.64851433 53.64851433 -75.92830207 50.67115696 -65.6015625 49.45703125 C-62.77443495 49.14022202 -62.77443495 49.14022202 -60 47 C-58.75035825 44.20545401 -58.75035825 44.20545401 -57.6875 40.9375 C-52.63933625 27.29543844 -43.99532559 17.61388116 -31 11 C-29.67151027 10.5278112 -28.33866748 10.0675117 -27 9.625 C-23.91730675 8.34945642 -23.91730675 8.34945642 -23.12890625 6.04296875 C-22.46039514 3.56939945 -22.46039514 3.56939945 -22 0 C-14.76807212 -1.56366008 -7.21378059 -1.64364621 0 0 Z " fill="#FCE683" transform="translate(237,5)"/>
<path d="M0 0 C77.22 0 154.44 0 234 0 C230.05666394 5.25778141 226.13947146 10.27848407 221.8125 15.1875 C220.66474863 16.50076401 219.51762367 17.81457573 218.37109375 19.12890625 C217.80374512 19.77875488 217.23639648 20.42860352 216.65185547 21.09814453 C214.20135338 23.91951776 211.78462254 26.7686987 209.375 29.625 C208.92866211 30.15383789 208.48232422 30.68267578 208.02246094 31.22753906 C207.12748396 32.28866115 206.23278811 33.3500204 205.33837891 34.41162109 C203.08232576 37.0890895 200.822951 39.76374402 198.5625 42.4375 C198.11624268 42.96553223 197.66998535 43.49356445 197.21020508 44.03759766 C193.18475157 48.79449412 189.12813407 53.52446434 185.05883789 58.24389648 C184.58696045 58.79247314 184.11508301 59.3410498 183.62890625 59.90625 C182.95045654 60.69128906 182.95045654 60.69128906 182.25830078 61.4921875 C181.10336217 62.87614188 180.02930432 64.32655532 178.96484375 65.78125 C176.24133625 68.85670181 173.90399895 69.84967515 169.77313805 70.17581558 C166.92764712 70.24693467 164.08924518 70.247117 161.24291992 70.22705078 C160.15954346 70.22734283 159.07616699 70.22763489 157.95996094 70.22793579 C154.38338173 70.22654381 150.80701152 70.21098854 147.23046875 70.1953125 C144.74896865 70.19158191 142.26746707 70.18873515 139.78596497 70.18673706 C133.25769985 70.17910427 126.72952387 70.15945869 120.20129395 70.1373291 C113.53850993 70.11578162 106.87569999 70.10773372 100.21289062 70.09765625 C87.14188908 70.07621258 74.07094928 70.04246576 61 70 C61 69.67 61 69.34 61 69 C62.12371506 69.0207811 63.24743011 69.04156219 64.40519714 69.06297302 C75.04096336 69.24973583 85.67497643 69.35626353 96.31237316 69.38603115 C101.78053306 69.40386411 107.24549789 69.44907845 112.71264648 69.55883789 C117.99811139 69.66390981 123.27942874 69.69448215 128.56585121 69.67534065 C130.5733089 69.68079125 132.58088396 69.71223228 134.58748436 69.77114677 C146.69643571 70.29414165 146.69643571 70.29414165 156.9984436 64.80007935 C159.85551464 61.72765264 162.28608337 58.4367185 164.62581825 54.96010017 C166.90676384 51.70661362 169.55400958 48.78156338 172.1875 45.8125 C177.22890531 40.0138554 179.5358659 36.25516027 179.38671875 28.4765625 C178.74655237 24.37691116 177.0470353 22.77003209 174 20 C170.76638023 17.99092062 168.13698808 17.70649962 164.359375 17.5859375 C163.28945313 17.54726562 162.21953125 17.50859375 161.1171875 17.46875 C160.00601563 17.4378125 158.89484375 17.406875 157.75 17.375 C156.62335938 17.33632812 155.49671875 17.29765625 154.3359375 17.2578125 C151.55745452 17.16362664 148.77897666 17.07800414 146 17 C145.9175 17.763125 145.835 18.52625 145.75 19.3125 C144.82134769 22.64017077 143.93064471 23.2589695 141 25 C138.50257874 25.39440918 138.50257874 25.39440918 135.66821289 25.41992188 C134.60353287 25.43583374 133.53885284 25.45174561 132.44190979 25.46813965 C131.29705612 25.46834106 130.15220245 25.46854248 128.97265625 25.46875 C127.79158798 25.47636353 126.61051971 25.48397705 125.3936615 25.49182129 C122.89633295 25.50262514 120.3989592 25.50547426 117.90161133 25.50097656 C114.08012569 25.50000448 110.26064872 25.54162237 106.43945312 25.5859375 C104.01302502 25.59114458 101.58658994 25.59383269 99.16015625 25.59375 C97.44591209 25.6183429 97.44591209 25.6183429 95.69703674 25.64343262 C86.86984232 25.56650971 86.86984232 25.56650971 83.73999023 22.65039062 C82 20 82 20 82 17 C81.16807632 17.0369548 80.33615265 17.07390961 79.47901917 17.11198425 C71.60997329 17.45145856 63.74120205 17.73630709 55.86801243 17.96108532 C51.82074692 18.07852995 47.77642409 18.21644871 43.73168945 18.40258789 C39.82235134 18.58171904 35.91472139 18.70519614 32.00227165 18.79146767 C30.51578285 18.83378147 29.02970787 18.89558496 27.54489326 18.9778347 C15.9799211 19.59941348 15.9799211 19.59941348 11.19918823 15.73745728 C8.86458375 12.92819825 6.92811381 10.09985025 5 7 C3.35 4.69 1.7 2.38 0 0 Z " fill="#908190" transform="translate(142,163)"/>
<path d="M0 0 C9.59789803 5.68715228 14.79289824 12.87869471 18.3125 23.4375 C19.08200589 33.84475178 18.78113493 42.59520499 12.25390625 51.12890625 C4.54840278 60.05585546 -2.71761384 64.25860068 -14.421875 65.796875 C-23.30814966 66.25916675 -31.53783606 63.18096265 -38.5625 57.75 C-44.90658811 51.74715868 -49.13574545 43.4139016 -50.09375 34.7734375 C-50.36866873 23.1581213 -48.00894575 14.86763684 -40 6 C-29.08342989 -3.81057614 -13.41290718 -6.26834356 0 0 Z " fill="#DEDADE" transform="translate(219.6875,340.5625)"/>
<path d="M0 0 C22.44 0 44.88 0 68 0 C68 13.86 68 27.72 68 42 C57.6875 42.3125 57.6875 42.3125 54.44799805 42.38793945 C53.60277588 42.42105225 52.75755371 42.45416504 51.88671875 42.48828125 C50.59060669 42.52755737 50.59060669 42.52755737 49.26831055 42.56762695 C46.54034547 43.08761685 45.66309949 43.80977323 44 46 C43.67 46.99 43.34 47.98 43 49 C36.07 49 29.14 49 22 49 C21.67 49.99 21.34 50.98 21 52 C20.896875 50.88625 20.79375 49.7725 20.6875 48.625 C20.460625 47.42875 20.23375 46.2325 20 45 C15.23833725 41.46092022 15.23833725 41.46092022 0 42 C0 28.14 0 14.28 0 0 Z " fill="#675D66" transform="translate(225,248)"/>
<path d="M0 0 C0.3403125 1.6396875 0.3403125 1.6396875 0.6875 3.3125 C1.63771847 6.99325492 1.63771847 6.99325492 4 8.625 C5.7281543 9.41707072 7.45950175 10.2024093 9.19921875 10.96875 C17.45744468 14.80616738 23.71173937 20.2911598 29.75 27.0625 C31.86966645 29.20609457 31.86966645 29.20609457 34.75 29.5625 C37.75172919 29.04296995 39.25564635 28.38935298 41.875 27 C49.4763444 23.43646924 58.58100305 23.59957879 66.48828125 26.10546875 C74.95857239 30.03998755 79.3639104 35.11864768 84 43 C86.29058275 44.14529138 87.60324292 44.12424314 90.1484375 44.140625 C105.07166655 44.41714111 115.00590557 46.50709719 126.234375 57.01171875 C128 59 128 59 128 61 C123.30439657 61.07466101 118.60914557 61.12884101 113.91308594 61.16479492 C112.31862359 61.17979745 110.72420192 61.20020621 109.12988281 61.22631836 C106.82606923 61.26308134 104.5228054 61.27981155 102.21875 61.29296875 C101.51633179 61.30845261 100.81391357 61.32393646 100.09020996 61.33988953 C95.49410758 61.34142083 92.02012456 60.43188606 87.78036499 58.68211365 C85.60593056 57.84901964 83.7010159 57.63586032 81.37890625 57.62109375 C68.55563374 57.15302392 68.55563374 57.15302392 64.1171875 53.86328125 C62.67895343 52.13894685 61.29724281 50.36565274 59.98046875 48.546875 C56.79897579 44.4554876 52.59747449 42.25306697 48 40 C47.28199219 39.62359375 46.56398438 39.2471875 45.82421875 38.859375 C41.58330272 37.56891646 37.46923381 37.71148521 33.0625 37.75 C32.18142578 37.74226563 31.30035156 37.73453125 30.39257812 37.7265625 C25.48636548 37.74126276 21.63308538 38.22934955 17 40 C13.47605665 40.0640717 11.08884833 39.93919619 8.3515625 37.578125 C7.20281032 36.35926119 6.06130366 35.13354211 4.92578125 33.90234375 C-2.50019962 26.56673993 -15.71925774 20.42764828 -26.19824219 19.88647461 C-27.36081543 19.89432983 -27.36081543 19.89432983 -28.546875 19.90234375 C-29.39121094 19.90556641 -30.23554688 19.90878906 -31.10546875 19.91210938 C-31.97816406 19.92048828 -32.85085937 19.92886719 -33.75 19.9375 C-34.63816406 19.94201172 -35.52632812 19.94652344 -36.44140625 19.95117188 C-38.62767329 19.962926 -40.81380179 19.97935751 -43 20 C-39.34746957 15.91612311 -35.8643621 13.82025923 -30.8125 11.6875 C-26.0448653 9.58874153 -26.0448653 9.58874153 -22.64453125 5.7734375 C-22.00236854 3.3624312 -22.00236854 3.3624312 -22 0 C-14.76807212 -1.56366008 -7.21378059 -1.64364621 0 0 Z " fill="#FBDB45" transform="translate(237,5)"/>
<path d="M0 0 C31.83149944 -0.02278974 63.66299656 -0.04049785 95.49450224 -0.05106533 C99.24853211 -0.05231611 103.00256196 -0.05361042 106.7565918 -0.05493164 C107.50398318 -0.05519395 108.25137456 -0.05545626 109.02141417 -0.05572652 C121.13901169 -0.06008335 133.25660449 -0.06797097 145.3741992 -0.0771528 C157.79869008 -0.08648897 170.22317847 -0.09205553 182.64767271 -0.09408849 C190.32043554 -0.0954638 197.99318503 -0.09981478 205.66594375 -0.10791647 C211.53947428 -0.11380417 217.41299787 -0.11445905 223.28653145 -0.11310768 C225.70333565 -0.11338421 228.12014032 -0.11539191 230.53694153 -0.11920547 C233.82090633 -0.12413589 237.1048127 -0.12300071 240.38877869 -0.12025452 C241.84351504 -0.12462378 241.84351504 -0.12462378 243.32764 -0.12908131 C244.20047994 -0.12709026 245.07331988 -0.12509921 245.97260952 -0.12304783 C246.73167046 -0.12342755 247.4907314 -0.12380727 248.27279419 -0.1241985 C250 0 250 0 251 1 C251.20402914 4.76698237 251.34673502 8.5274531 251.4296875 12.29882812 C251.56605175 15.80168468 251.6729167 18.36268315 253.2890625 21.51171875 C255.15181747 23.35933883 255.15181747 23.35933883 259 24 C259 31.26 259 38.52 259 46 C257.02 46.66 255.04 47.32 253 48 C250.15199875 53.6960025 251.37396088 60.64266496 251 67 C167.84 67 84.68 67 -1 67 C-1 66.67 -1 66.34 -1 66 C73.91 66 148.82 66 226 66 C226 44.55 226 23.1 226 1 C151.42 1 76.84 1 0 1 C0 0.67 0 0.34 0 0 Z " fill="#C8C3C8" transform="translate(134,81)"/>
<path d="M0 0 C6.10312719 4.0133 10.26522902 9.2156643 13 16 C13 16.99 13 17.98 13 19 C5.74 19 -1.52 19 -9 19 C-9.495 15.535 -9.495 15.535 -10 12 C-13.49124017 9.67250655 -14.89222251 9.49700684 -19 10 C-21.71388013 12.09283738 -22.86551868 13.28014864 -23.50170898 16.68554688 C-23.49892944 18.18698242 -23.49892944 18.18698242 -23.49609375 19.71875 C-23.49673828 20.81574219 -23.49738281 21.91273438 -23.49804688 23.04296875 C-23.46807617 24.75419922 -23.46807617 24.75419922 -23.4375 26.5 C-23.44458984 27.64082031 -23.45167969 28.78164063 -23.45898438 29.95703125 C-23.62576395 37.11999933 -23.62576395 37.11999933 -20 43 C-17.16431142 43.66259654 -14.95760774 43.28167693 -12 43 C-9.23333333 40.63333333 -9.23333333 40.63333333 -9 34 C-1.74 34 5.52 34 13 34 C11.71003836 41.73976985 8.68248454 45.31751546 3.25 50.75 C-5.02783585 56.48080944 -12.97299454 58.22188383 -23 57 C-31.14135699 54.88974029 -37.36865416 49.46229716 -42.375 42.875 C-47.14070912 34.4433608 -47.66062562 24.30392831 -45.1953125 14.9453125 C-41.58104383 6.94406945 -35.05748641 1.10682212 -27.125 -2.5 C-17.71759189 -5.75696973 -8.77606631 -4.50122976 0 0 Z " fill="#DEDADE" transform="translate(331,345)"/>
<path d="M0 0 C22.44 0 44.88 0 68 0 C68 13.86 68 27.72 68 42 C61.73 42 55.46 42 49 42 C48.6875 33.4375 48.6875 33.4375 48.61206055 30.78295898 C48.33602254 24.83571676 47.31902737 19.89878421 43.5 15.125 C39.65495552 12.24121664 34.97136082 12.77736399 30.39453125 12.68359375 C29.13572395 12.6524221 29.13572395 12.6524221 27.85148621 12.62062073 C25.17190706 12.55525982 22.49223031 12.49630286 19.8125 12.4375 C17.99543263 12.39430198 16.17837512 12.35068727 14.36132812 12.30664062 C9.90765066 12.19880832 5.45389861 12.09963505 1 12 C1 21.57 1 31.14 1 41 C5.95 41 10.9 41 16 41 C16 41.33 16 41.66 16 42 C10.72 42 5.44 42 0 42 C0 28.14 0 14.28 0 0 Z " fill="#544D54" transform="translate(225,248)"/>
<path d="M0 0 C4.83611074 3.07518232 8.11603356 6.71550485 10.25 12.0625 C11.35783188 18.58926149 10.90409539 24.61260681 7.5234375 30.37890625 C4.56214481 34.29398953 0.79654684 37.18991146 -3.75 39.0625 C-10.62153296 39.99506519 -16.37998829 39.72967526 -22.0625 35.5625 C-26.39048108 31.7154057 -29.4941707 28.166003 -29.98828125 22.171875 C-30.14271758 15.18159897 -30.24177907 10.56492936 -25.75 5.0625 C-18.10597702 -1.68946396 -9.72076425 -4.79447864 0 0 Z " fill="#030303" transform="translate(213.75,352.9375)"/>
<path d="M0 0 C-0.2165625 0.56203125 -0.433125 1.1240625 -0.65625 1.703125 C-4.52130843 13.36987546 -5.50897413 29.69512601 0 41 C2.76305002 46.16153093 5.75311035 51.12966552 9 56 C-2.22 56 -13.44 56 -25 56 C-25 39.83 -25 23.66 -25 7 C-3 0 -3 0 0 0 Z " fill="#766B75" transform="translate(159,350)"/>
<path d="M0 0 C9.24 0 18.48 0 28 0 C28.02290639 5.82076811 28.04283426 11.641381 28.05493164 17.4621582 C28.05997267 19.44393441 28.06680538 21.42570689 28.07543945 23.4074707 C28.08751515 26.24952109 28.09323045 29.09152247 28.09765625 31.93359375 C28.10281754 32.82525742 28.10797882 33.71692108 28.11329651 34.63560486 C28.11349177 36.75740601 28.0621003 38.8791078 28 41 C26.22550406 42.77449594 23.64982739 42.13030072 21.25 42.1328125 C20.0846875 42.13410156 18.919375 42.13539063 17.71875 42.13671875 C16.4915625 42.13285156 15.264375 42.12898438 14 42.125 C12.15921875 42.13080078 12.15921875 42.13080078 10.28125 42.13671875 C9.1159375 42.13542969 7.950625 42.13414062 6.75 42.1328125 C5.67234375 42.13168457 4.5946875 42.13055664 3.484375 42.12939453 C1 42 1 42 0 41 C-0.08871273 37.97022196 -0.1151935 34.96332978 -0.09765625 31.93359375 C-0.0962413 31.02497086 -0.09482635 30.11634796 -0.09336853 29.18019104 C-0.08775193 26.26592779 -0.07519665 23.35174019 -0.0625 20.4375 C-0.05748714 18.46679798 -0.05292386 16.49609476 -0.04882812 14.52539062 C-0.03862617 9.68354086 -0.01905409 4.84185553 0 0 Z " fill="#CAC4CA" transform="translate(387,455)"/>
<path d="M0 0 C7.59 0 15.18 0 23 0 C23 20.13 23 40.26 23 61 C16.73 61 10.46 61 4 61 C4 41.2 4 21.4 4 1 C2.68 0.67 1.36 0.34 0 0 Z " fill="#675D66" transform="translate(360,379)"/>
<path d="M0 0 C6.27 0 12.54 0 19 0 C19 19.47 19 38.94 19 59 C12.73 59 6.46 59 0 59 C0 39.53 0 20.06 0 0 Z " fill="#685E67" transform="translate(364,305)"/>
<path d="M0 0 C8.91 0 17.82 0 27 0 C27.02290685 5.67835397 27.04283457 11.35654881 27.05493164 17.03491211 C27.05997256 18.96818585 27.06680519 20.90145576 27.07543945 22.8347168 C27.08751565 25.60726872 27.09323057 28.37977041 27.09765625 31.15234375 C27.10281754 32.02213364 27.10797882 32.89192352 27.11329651 33.78807068 C27.11349185 35.85905814 27.06208168 37.92994324 27 40 C25.25454395 41.74545605 22.83875783 41.1302316 20.46875 41.1328125 C19.34855469 41.13410156 18.22835937 41.13539063 17.07421875 41.13671875 C15.89472656 41.13285156 14.71523437 41.12898438 13.5 41.125 C11.73076172 41.13080078 11.73076172 41.13080078 9.92578125 41.13671875 C8.24548828 41.13478516 8.24548828 41.13478516 6.53125 41.1328125 C5.49548828 41.13168457 4.45972656 41.13055664 3.39257812 41.12939453 C1 41 1 41 0 40 C-0.08868299 37.04294679 -0.11520296 34.10934944 -0.09765625 31.15234375 C-0.0962413 30.2659169 -0.09482635 29.37949005 -0.09336853 28.46620178 C-0.08775215 25.62326746 -0.07519691 22.78041069 -0.0625 19.9375 C-0.05748711 18.01497509 -0.05292384 16.09244896 -0.04882812 14.16992188 C-0.03862648 9.44656036 -0.01905437 4.72336742 0 0 Z " fill="#CAC4CA" transform="translate(103,456)"/>
<path d="M0 0 C5.61 0 11.22 0 17 0 C17.02255497 7.80575587 17.04091738 15.61149407 17.05181217 23.41727352 C17.05704002 27.0414596 17.06413587 30.6656223 17.07543945 34.28979492 C17.08627184 37.78459975 17.09227758 41.27938204 17.09487724 44.77420235 C17.09763551 46.76239389 17.10544688 48.75057631 17.11329651 50.73875427 C17.11340981 52.54050865 17.11340981 52.54050865 17.11352539 54.37866211 C17.115746 55.44233505 17.11796661 56.506008 17.12025452 57.60191345 C17 60 17 60 16 61 C10.72 61 5.44 61 0 61 C0 40.87 0 20.74 0 0 Z " fill="#D6D2D6" transform="translate(398,379)"/>
<path d="M0 0 C8.5624145 -0.9879709 15.3545679 2.52859528 22.1484375 7.60546875 C28.04068329 13.02170341 32.64359157 21.17972199 33.23828125 29.22265625 C33.45396049 40.38121927 32.07038269 47.74940488 24.625 56.375 C17.46412545 63.80324486 10.25357851 67.57807155 -0.15625 68.18359375 C-2.77863092 68.18697311 -5.38150232 68.1367494 -8 68 C-8 67.67 -8 67.34 -8 67 C-7.443125 67.03222656 -6.88625 67.06445312 -6.3125 67.09765625 C-2.37402923 67.03778085 0.142483 66.68807636 3.2734375 64.17578125 C7.30056741 59.76689739 9.86253929 55.59811139 12 50 C13.2483121 47.89078301 14.56411945 45.84224325 15.9140625 43.796875 C19.00541662 38.68168474 18.71814019 32.75202675 18 27 C16.46655521 23.00756695 14.32645734 19.57641798 12 16 C11.4121875 15.02417969 10.824375 14.04835938 10.21875 13.04296875 C7.22330829 8.13596226 4.3281015 3.80348314 0 0 Z " fill="#C6C0C6" transform="translate(205,338)"/>
<path d="M0 0 C4.95 0 9.9 0 15 0 C16 1 16 1 16.12025452 3.32215881 C16.1169236 4.86437355 16.1169236 4.86437355 16.11352539 6.43774414 C16.11344986 7.59887222 16.11337433 8.76000031 16.11329651 9.95631409 C16.10813522 11.219832 16.10297394 12.48334991 16.09765625 13.78515625 C16.0962413 15.07111191 16.09482635 16.35706757 16.09336853 17.68199158 C16.08954418 21.10643443 16.07971462 24.53083509 16.06866455 27.95526123 C16.05844864 31.44738189 16.05387053 34.93950934 16.04882812 38.43164062 C16.03809226 45.28777953 16.02049614 52.1438834 16 59 C10.72 59 5.44 59 0 59 C0 39.53 0 20.06 0 0 Z " fill="#DEDADE" transform="translate(399,305)"/>
<path d="M0 0 C1.06468002 -0.01591187 2.12936005 -0.03182373 3.2263031 -0.04821777 C4.37115677 -0.04841919 5.51601044 -0.04862061 6.69555664 -0.04882812 C7.87662491 -0.05644165 9.05769318 -0.06405518 10.27455139 -0.07189941 C12.77187994 -0.08270326 15.26925369 -0.08555239 17.76660156 -0.08105469 C21.5880872 -0.08008261 25.40756417 -0.12170049 29.22875977 -0.16601562 C31.65518787 -0.1712227 34.08162295 -0.17391082 36.50805664 -0.17382812 C38.2223008 -0.19842102 38.2223008 -0.19842102 39.97117615 -0.22351074 C47.85832332 -0.1547797 47.85832332 -0.1547797 51.92431641 2.73046875 C53.66821289 5.41992188 53.66821289 5.41992188 53.73071289 9.04492188 C52.54782477 12.80233121 51.97710276 13.49996882 48.66821289 15.41992188 C46.17079163 15.81433105 46.17079163 15.81433105 43.33642578 15.83984375 C42.27174576 15.85575562 41.20706573 15.87166748 40.11012268 15.88806152 C38.39284218 15.88836365 38.39284218 15.88836365 36.64086914 15.88867188 C35.45980087 15.8962854 34.2787326 15.90389893 33.06187439 15.91174316 C30.56454584 15.92254701 28.06717209 15.92539614 25.56982422 15.92089844 C21.74833858 15.91992636 17.92886161 15.96154424 14.10766602 16.00585938 C11.68123791 16.01106645 9.25480283 16.01375457 6.82836914 16.01367188 C5.11412498 16.03826477 5.11412498 16.03826477 3.36524963 16.06335449 C-4.52189753 15.99462345 -4.52189753 15.99462345 -8.58789062 13.109375 C-10.33178711 10.41992188 -10.33178711 10.41992188 -10.39428711 6.79492188 C-8.62758355 1.18303999 -5.65472567 0.05089932 0 0 Z " fill="#020102" transform="translate(234.331787109375,172.580078125)"/>
<path d="M0 0 C4.95 0 9.9 0 15 0 C15 13.53 15 27.06 15 41 C7.08 43.475 7.08 43.475 -1 46 C-1.024644 39.60962203 -1.04283317 33.21927148 -1.05493164 26.82885742 C-1.05997308 24.65307127 -1.06680607 22.47728853 -1.07543945 20.30151367 C-1.08751338 17.18146933 -1.09323005 14.06146962 -1.09765625 10.94140625 C-1.10281754 9.96224747 -1.10797882 8.98308868 -1.11329651 7.97425842 C-1.11337204 7.07340012 -1.11344757 6.17254181 -1.11352539 5.24438477 C-1.115746 4.44718521 -1.11796661 3.64998566 -1.12025452 2.82862854 C-1 1 -1 1 0 0 Z " fill="#E0DCE0" transform="translate(104,305)"/>
<path d="M0 0 C0 14.52 0 29.04 0 44 C-5.28 44 -10.56 44 -16 44 C-16 30.8 -16 17.6 -16 4 C-1 0 -1 0 0 0 Z " fill="#DFDBDF" transform="translate(119,362)"/>
<path d="M0 0 C2.9375 2 2.9375 2 5 4 C7.49361571 2.79618552 9.68143083 1.54571278 12 0 C15.92257996 -0.42791781 18.10751408 -0.63413473 21.375 1.6875 C23.23688689 4.33710827 23.92278899 5.75713747 24 9 C21.72740477 15.81778569 15.86434992 21.09043339 10 25 C6.67387274 25.64188421 5.17181505 25.87957896 2 25 C-3.54452484 21.16787713 -9.117105 16.17763214 -12 10 C-12 6.37451075 -11.415231 4.60687607 -9.375 1.625 C-6.03215555 -0.66220936 -3.97228262 -0.55751335 0 0 Z " fill="#000000" transform="translate(250,476)"/>
<path d="M0 0 C2.59599308 1.45961479 4.67625585 3.103066 7 5 C8.299375 3.7625 8.299375 3.7625 9.625 2.5 C11.96954405 0.56919902 12.98410359 0.00324417 16.0625 -0.625 C20.0924485 0.23243585 21.56929333 1.71139686 24 5 C24.75 7.8125 24.75 7.8125 24 11 C21.96290265 13.98097237 19.56296191 16.46719058 17 19 C16.42507813 19.6084375 15.85015625 20.216875 15.2578125 20.84375 C14.69835937 21.3903125 14.13890625 21.936875 13.5625 22.5 C13.06878906 22.9846875 12.57507813 23.469375 12.06640625 23.96875 C8.73365688 25.63197464 5.57306643 25.78696312 2 25 C-0.55717612 23.39362813 -2.43973236 21.3721672 -4.4375 19.125 C-4.96537109 18.56941406 -5.49324219 18.01382812 -6.03710938 17.44140625 C-9.20752794 14.06342498 -10.88196589 12.27476843 -11.3125 7.625 C-11 4 -11 4 -9.4375 1.5625 C-5.98413031 -0.65119852 -4.04354356 -0.61681173 0 0 Z " fill="#000000" transform="translate(308,476)"/>
<path d="M0 0 C4.20869087 0.84173817 6.86380346 2.92341706 10.125 5.625 C10.970625 4.8 11.81625 3.975 12.6875 3.125 C15.30006025 0.95713086 16.20217717 0.61302423 19.75 0.0625 C23.125 0.625 23.125 0.625 25.5625 2.1875 C27.82659958 5.71949535 27.8837407 7.48641434 27.125 11.625 C25.10403074 14.61881405 22.66729473 17.0723917 20.125 19.625 C19.62355469 20.23214844 19.12210938 20.83929688 18.60546875 21.46484375 C15.95522094 24.56775096 14.26817734 25.59497895 10.25 26.4375 C4.84356793 26.00416002 1.69150402 22.38230464 -1.875 18.625 C-2.78378906 17.7278125 -2.78378906 17.7278125 -3.7109375 16.8125 C-6.34317881 14.04432134 -7.73071609 12.28083597 -8.5625 8.5 C-7.40353584 3.65342262 -4.88673886 1.06233453 0 0 Z " fill="#000000" transform="translate(187.875,475.375)"/>
<path d="M0 0 C9.24 0 18.48 0 28 0 C28 13.53 28 27.06 28 41 C27.67 41 27.34 41 27 41 C27 32.42 27 23.84 27 15 C18.42 15 9.84 15 1 15 C1 23.58 1 32.16 1 41 C0.67 41 0.34 41 0 41 C0 27.47 0 13.94 0 0 Z " fill="#A69FA7" transform="translate(387,455)"/>
<path d="M0 0 C2.70552388 2.19823815 4.44778333 3.89556667 6 7 C6.1346515 11.8955438 5.69296109 15.14712481 2.5625 19 C-1.4952935 22.16705834 -3.83614786 22.35009167 -9 22 C-12.49663903 20.56955676 -13.75953283 19.37313872 -15.8125 16.1875 C-17.10627958 12.71472323 -17.53441905 10.66458779 -17 7 C-12.87773564 -0.65563382 -8.20820353 -2.31175786 0 0 Z " fill="#528DD1" transform="translate(57,384)"/>
<path d="M0 0 C3.65907504 0.68607657 5.35167676 1.98984314 8 4.5625 C9.20029908 6.96309817 9.11459743 8.45610649 9.09765625 11.1328125 C9.09443359 12.02871094 9.09121094 12.92460937 9.08789062 13.84765625 C9.07951172 14.78480469 9.07113281 15.72195313 9.0625 16.6875 C9.05798828 17.63238281 9.05347656 18.57726562 9.04882812 19.55078125 C9.03702375 21.8880477 9.01908799 24.22528169 9 26.5625 C3.39 26.5625 -2.22 26.5625 -8 26.5625 C-8.13516583 23.16533223 -8.23419231 19.77355392 -8.3125 16.375 C-8.35439453 15.41529297 -8.39628906 14.45558594 -8.43945312 13.46679688 C-8.56308583 6.32082664 -8.56308583 6.32082664 -5.66796875 2.421875 C-3 0.5625 -3 0.5625 0 0 Z " fill="#D5D1D5" transform="translate(375,263.4375)"/>
<path d="M0 0 C8.91 0 17.82 0 27 0 C27 4.62 27 9.24 27 14 C18.42 14 9.84 14 1 14 C1 22.58 1 31.16 1 40 C0.67 40 0.34 40 0 40 C0 26.8 0 13.6 0 0 Z " fill="#B5AEB6" transform="translate(103,456)"/>
<path d="M0 0 C3.96 0 7.92 0 12 0 C13 1 13 1 13.11352539 3.68383789 C13.10828857 4.85164795 13.10305176 6.01945801 13.09765625 7.22265625 C13.09443359 8.48271484 13.09121094 9.74277344 13.08789062 11.04101562 C13.07953403 12.38151109 13.07106907 13.72200588 13.0625 15.0625 C13.0574866 16.40689942 13.05292342 17.7513006 13.04882812 19.09570312 C13.03699497 22.39715433 13.01905886 25.6985826 13 29 C8.71 29 4.42 29 0 29 C0 19.43 0 9.86 0 0 Z " fill="#786D77" transform="translate(459,357)"/>
<path d="M0 0 C7.26 0 14.52 0 22 0 C20.71003836 7.73976985 17.68248454 11.31751546 12.25 16.75 C5.94647816 21.11397666 -0.29639197 23.66987896 -8 23 C-7.113125 22.030625 -6.22625 21.06125 -5.3125 20.0625 C-0.48183642 14.42101581 2.97924594 8.16449165 5 1 C3.68 1 2.36 1 1 1 C0.67 2.32 0.34 3.64 0 5 C0 3.35 0 1.7 0 0 Z " fill="#C5BFC5" transform="translate(322,379)"/>
<path d="M0 0 C9.94313704 -0.69236544 18.45829459 0.80066449 26.375 7.1875 C30.22108341 10.85156712 33.01290871 15.07048506 35 20 C35 20.99 35 21.98 35 23 C29.39 23 23.78 23 18 23 C17.505 21.39125 17.01 19.7825 16.5 18.125 C14.23362563 11.92059924 11.04164896 6.35986013 6 2 C2.85216676 1.16658434 2.85216676 1.16658434 0 1 C0 0.67 0 0.34 0 0 Z " fill="#C6C1C6" transform="translate(309,341)"/>
<path d="M0 0 C5.28 0 10.56 0 16 0 C16 6.27 16 12.54 16 19 C10.72 19 5.44 19 0 19 C0 12.73 0 6.46 0 0 Z " fill="#E0DCE0" transform="translate(103,421)"/>
<path d="M0 0 C4.01349645 0.28001138 5.72035142 0.75763789 8.8125 3.4375 C11.62451645 6.73157641 12.20144279 8.09003345 11.875 12.3125 C11.42785437 16.01486586 11.03172104 16.96095872 8.5625 20 C4.48703637 23.18084966 2.14407988 23.09526074 -3 23 C-1.68 22.67 -0.36 22.34 1 22 C3.19544496 15.41366512 4.29528229 9.57090054 1.5 3 C0.7575 1.515 0.7575 1.515 0 0 Z " fill="#1471C3" transform="translate(51,383)"/>
<path d="M0 0 C2.4375 0.75 2.4375 0.75 4.4375 2.75 C4.0625 6.375 4.0625 6.375 3.4375 9.75 C0.0625 10.375 0.0625 10.375 -3.5625 10.75 C-5.5625 8.75 -5.5625 8.75 -5.875 5.25 C-5.771875 4.095 -5.66875 2.94 -5.5625 1.75 C-2.5625 -0.25 -2.5625 -0.25 0 0 Z " fill="#518ACC" transform="translate(204.5625,366.25)"/>
</svg>
