<?xml version="1.0" encoding="UTF-8"?>
<svg version="1.1" xmlns="http://www.w3.org/2000/svg" width="512" height="512">
<path d="M0 0 C5.58618896 4.94215719 8.65837115 10.75807403 11.35546875 17.59375 C11.73480057 18.5165979 12.11413239 19.4394458 12.50495911 20.39025879 C13.74708956 23.42110305 14.96704928 26.46036901 16.1875 29.5 C17.06537735 31.65172783 17.94496644 33.80275799 18.82617188 35.953125 C20.65425913 40.41790276 22.47496886 44.88558241 24.29052734 49.35546875 C28.05532822 58.60849549 31.90936453 67.82403188 35.76309204 77.0402832 C37.84631169 82.02508432 39.92279062 87.01269212 42 92 C42.83330156 94.00001324 43.66663488 96.00001325 44.5 98 C69.58056641 158.19335938 69.58056641 158.19335938 70.87809753 161.30752563 C71.74170914 163.38013257 72.60540717 165.4527035 73.4691925 167.52523804 C75.58769615 172.60859298 77.70477308 177.69253186 79.81860352 182.77783203 C83.30150507 191.15307241 86.78825404 199.52592508 90.34388733 207.87060547 C91.72655648 211.11638361 93.10175583 214.36530385 94.47665405 217.61437988 C95.09969707 219.08023773 95.72660179 220.54446256 96.35806274 222.00671387 C110.82286853 255.50436832 113.5101038 290.08475267 100.06396484 324.47021484 C87.76112823 353.7226226 64.80755905 376.19496063 36 389 C34.93394531 389.48210937 33.86789062 389.96421875 32.76953125 390.4609375 C8.57397039 400.58075383 -21.9573164 401.87226944 -47 394 C-47.68900391 393.78569336 -48.37800781 393.57138672 -49.08789062 393.35058594 C-80.74136709 383.16036179 -105.57298462 360.92825571 -120.87451172 331.59423828 C-135.06018569 303.12725658 -137.02009788 270.07770985 -127.375 239.875 C-122.97589833 226.87310069 -117.30067679 214.3214419 -111.87928772 201.7230835 C-106.7031092 189.69402183 -101.66907507 177.61080946 -96.6875 165.5 C-95.08646548 161.61176159 -93.4847472 157.72380512 -91.8828125 153.8359375 C-91.4821608 152.86336502 -91.08150909 151.89079254 -90.66871643 150.88874817 C-86.16203248 139.95553754 -81.61451607 129.03939841 -77.0625 118.125 C-76.6498288 117.13550354 -76.23715759 116.14600708 -75.8119812 115.12652588 C-74.13944641 111.11643867 -72.46676919 107.10641096 -70.79374695 103.0965271 C-67.38160029 94.91760591 -63.97533208 86.73624685 -60.5713501 78.55392456 C-58.46690414 73.4962391 -56.3600995 68.43956414 -54.24755859 63.38525391 C-53.42670434 61.42092078 -52.6059031 59.4565655 -51.78515625 57.4921875 C-51.38431824 56.53289337 -50.98348022 55.57359924 -50.57049561 54.5852356 C-48.20622391 48.9182178 -45.86683791 43.24173221 -43.54959106 37.55532837 C-42.10976139 34.02668455 -40.6582545 30.5029119 -39.20495605 26.97979736 C-38.5376943 25.35351194 -37.87595349 23.72494795 -37.22033691 22.09393311 C-29.14742732 2.02031058 -29.14742732 2.02031058 -20 -2 C-13.00513194 -4.06758096 -6.45510067 -3.28370356 0 0 Z " fill="#61DBFA" transform="translate(345,114)"/>
<path d="M0 0 C0.66 0 1.32 0 2 0 C11.71319042 22.69613041 21.28790375 45.44456942 30.68969727 68.27148438 C31.49231146 70.22006807 32.29496466 72.16863569 33.09765625 74.1171875 C33.49731094 75.08738831 33.89696564 76.05758911 34.30873108 77.05718994 C38.92617489 88.25880405 43.58693023 99.4423206 48.25 110.625 C49.08830956 112.63630683 49.92660719 114.64761864 50.76489258 116.65893555 C54.29563002 125.12840731 57.82948106 133.59655262 61.37420654 142.06018066 C62.76154663 145.37325271 64.14715005 148.68704968 65.53259277 152.00091553 C66.46415149 154.22684129 67.39850457 156.45157877 68.33300781 158.67626953 C79.26783736 184.78452582 85.44206069 212.2326938 76 240 C75.68651611 240.97839844 75.68651611 240.97839844 75.36669922 241.9765625 C70.47578849 257.15853559 62.65078243 270.11880227 52 282 C51.38898438 282.69351562 50.77796875 283.38703125 50.1484375 284.1015625 C36.27149966 298.92331313 13.7311992 311.98279921 -6.7265625 313.2265625 C-11.11552598 313.20257636 -14.42347588 311.78572534 -18.1875 309.625 C-18.83114502 309.26631836 -19.47479004 308.90763672 -20.13793945 308.53808594 C-45.47234487 294.00792198 -62.48632464 271.4377152 -72.375 244.25 C-72.73319824 243.27776489 -72.73319824 243.27776489 -73.09863281 242.28588867 C-76.81956457 231.49060945 -77.36278416 220.52154922 -77.3125 209.1875 C-77.31034485 208.52602966 -77.3081897 207.86455933 -77.30596924 207.18304443 C-77.18911477 184.83412013 -69.5611196 166.44229025 -60.99923706 146.1630249 C-59.42692457 142.43862597 -57.86173952 138.71124283 -56.29594421 134.98410034 C-55.46629931 133.0094491 -54.63630883 131.03494303 -53.8059845 129.06057739 C-49.15894354 118.00880788 -44.54676246 106.94256678 -39.9375 95.875 C-39.31157455 94.37261276 -39.31157455 94.37261276 -38.67300415 92.83987427 C-32.43578774 77.86859657 -26.21936651 62.8887764 -20.01342773 47.9045105 C-13.39075519 31.91592759 -6.71163078 15.95143336 0 0 Z " fill="#9AE7FC" transform="translate(358,182)"/>
<path d="M0 0 C5.45467329 3.72145723 8.33963334 7.64984636 10.734375 13.71875 C11.04971695 14.47196533 11.3650589 15.22518066 11.68995667 16.0012207 C12.72823643 18.49368624 13.73892431 20.99638963 14.75 23.5 C15.48809246 25.28652509 16.22796104 27.07231728 16.96948242 28.85742188 C18.53467038 32.6349398 20.08820097 36.41694827 21.63232422 40.203125 C23.94489819 45.87276867 26.28363025 51.53131889 28.62890625 57.1875 C30.98107622 62.86332343 33.33072603 68.54012109 35.66723633 74.22241211 C39.91023825 84.54045432 44.18426621 94.84432406 48.5078125 105.12890625 C49.42413757 107.3124726 50.34039795 109.49606609 51.2565918 111.6796875 C52.58011107 114.833738 53.9055271 117.98690491 55.23794556 121.13720703 C65.78557827 146.07764288 73.80855448 170.60850931 63.17041016 197.06298828 C54.3123912 217.68368823 39.38649779 231.20717494 19 240 C15.10824929 241.12577278 10.97116879 241.99094342 7 241 C6.278125 240.18015625 5.55625 239.3603125 4.8125 238.515625 C0.90819989 235.02344546 -1.99861495 235.25238777 -7.0625 235.375 C-7.86494141 235.35566406 -8.66738281 235.33632813 -9.49414062 235.31640625 C-11.78467572 235.33541484 -13.779599 235.43290902 -16 236 C-18.33208061 238.39985266 -18.33208061 238.39985266 -20 241 C-26.05641498 243.07578739 -32.5443114 239.96088278 -38.01953125 237.4765625 C-46.85312521 233.1002866 -53.95637315 227.91619281 -61 221 C-61.70125 220.32324219 -62.4025 219.64648438 -63.125 218.94921875 C-76.78802363 204.77916886 -82.49428602 185.10173387 -82.19140625 165.7578125 C-80.94558309 141.29899857 -67.35307837 117.30746489 -57.83691406 95.06811523 C-52.16150644 81.79631427 -46.62099702 68.47199208 -41.125 55.125 C-40.31648008 53.16424263 -39.50780681 51.20354849 -38.69897461 49.24291992 C-38.11168327 47.81922844 -38.11168327 47.81922844 -37.51252747 46.36677551 C-37.12811996 45.43491928 -36.74371246 44.50306305 -36.34765625 43.54296875 C-34.28318344 38.53801494 -32.21893177 33.5329785 -30.15966797 28.52587891 C-28.63695987 24.82570477 -27.10102057 21.13112995 -25.5625 17.4375 C-25.14436035 16.4160791 -24.7262207 15.3946582 -24.29541016 14.34228516 C-21.78582704 8.35353113 -19.62778341 3.57667005 -13.875 0.125 C-9.32591596 -1.56382305 -4.56948869 -1.58436141 0 0 Z " fill="#99E6FB" transform="translate(140,112)"/>
<path d="M0 0 C5.58618896 4.94215719 8.65837115 10.75807403 11.35546875 17.59375 C11.73480057 18.5165979 12.11413239 19.4394458 12.50495911 20.39025879 C13.74708956 23.42110305 14.96704928 26.46036901 16.1875 29.5 C17.06537735 31.65172783 17.94496644 33.80275799 18.82617188 35.953125 C20.65425913 40.41790276 22.47496886 44.88558241 24.29052734 49.35546875 C28.05532822 58.60849549 31.90936453 67.82403188 35.76309204 77.0402832 C37.84631169 82.02508432 39.92279062 87.01269212 42 92 C42.83330156 94.00001324 43.66663488 96.00001325 44.5 98 C69.58056641 158.19335938 69.58056641 158.19335938 70.87809753 161.30752563 C71.74170914 163.38013257 72.60540717 165.4527035 73.4691925 167.52523804 C75.58769615 172.60859298 77.70477308 177.69253186 79.81860352 182.77783203 C83.30150507 191.15307241 86.78825404 199.52592508 90.34388733 207.87060547 C91.72655648 211.11638361 93.10175583 214.36530385 94.47665405 217.61437988 C95.09969707 219.08023773 95.72660179 220.54446256 96.35806274 222.00671387 C110.82286853 255.50436832 113.5101038 290.08475267 100.06396484 324.47021484 C87.76112823 353.7226226 64.80755905 376.19496063 36 389 C34.93394531 389.48210937 33.86789062 389.96421875 32.76953125 390.4609375 C8.57397039 400.58075383 -21.9573164 401.87226944 -47 394 C-47.68900391 393.78569336 -48.37800781 393.57138672 -49.08789062 393.35058594 C-80.74136709 383.16036179 -105.57298462 360.92825571 -120.87451172 331.59423828 C-135.06018569 303.12725658 -137.02009788 270.07770985 -127.375 239.875 C-122.97589833 226.87310069 -117.30067679 214.3214419 -111.87928772 201.7230835 C-106.7031092 189.69402183 -101.66907507 177.61080946 -96.6875 165.5 C-95.08646548 161.61176159 -93.4847472 157.72380512 -91.8828125 153.8359375 C-91.4821608 152.86336502 -91.08150909 151.89079254 -90.66871643 150.88874817 C-86.16203248 139.95553754 -81.61451607 129.03939841 -77.0625 118.125 C-76.6498288 117.13550354 -76.23715759 116.14600708 -75.8119812 115.12652588 C-74.13944641 111.11643867 -72.46676919 107.10641096 -70.79374695 103.0965271 C-67.38160029 94.91760591 -63.97533208 86.73624685 -60.5713501 78.55392456 C-58.46690414 73.4962391 -56.3600995 68.43956414 -54.24755859 63.38525391 C-53.42670434 61.42092078 -52.6059031 59.4565655 -51.78515625 57.4921875 C-51.38431824 56.53289337 -50.98348022 55.57359924 -50.57049561 54.5852356 C-48.20622391 48.9182178 -45.86683791 43.24173221 -43.54959106 37.55532837 C-42.10976139 34.02668455 -40.6582545 30.5029119 -39.20495605 26.97979736 C-38.5376943 25.35351194 -37.87595349 23.72494795 -37.22033691 22.09393311 C-29.14742732 2.02031058 -29.14742732 2.02031058 -20 -2 C-13.00513194 -4.06758096 -6.45510067 -3.28370356 0 0 Z M-16.27256775 14.48303223 C-19.30442278 19.5518935 -21.74168238 24.6787033 -23.94140625 30.15625 C-24.48128677 31.47379776 -24.48128677 31.47379776 -25.03207397 32.81796265 C-25.80860691 34.71536118 -26.58181912 36.61412154 -27.35202026 38.51409912 C-29.01833609 42.62441483 -30.70094612 46.72800393 -32.38215637 50.83224487 C-33.26354687 52.98466112 -34.14405906 55.13743722 -35.02372742 57.29055786 C-39.60779087 68.50789616 -44.26881503 79.69268068 -48.9375 90.875 C-49.7736189 92.87951558 -50.60963731 94.88407307 -51.44555664 96.88867188 C-53.12466529 100.91517878 -54.80413061 104.94153659 -56.48388672 108.96777344 C-60.24331367 117.97968138 -63.99808353 126.99352981 -67.75320435 136.00723267 C-69.82492948 140.98013362 -71.89681075 145.95296951 -73.96875 150.92578125 C-74.37960342 151.91186874 -74.79045685 152.89795624 -75.21376038 153.91392517 C-78.67448597 162.21960751 -82.13671267 170.52466368 -85.59947205 178.82949829 C-87.7444009 183.97422058 -89.88824313 189.11939029 -92.02954102 194.265625 C-92.84389995 196.22266158 -93.65827145 198.17969293 -94.47265625 200.13671875 C-95.05981163 201.54780411 -95.05981163 201.54780411 -95.65882874 202.98739624 C-98.00781615 208.62882932 -100.37160213 214.26379367 -102.74609375 219.89453125 C-115.60803102 250.45444399 -124.04915418 281.86402706 -111.28344727 314.24951172 C-99.1724568 343.55278703 -78.12004624 364.78615816 -49.015625 377.28125 C-21.79298907 387.20773603 7.65105704 384.79335763 33.72753906 373.07617188 C43.47497611 368.46006718 51.94736058 362.12835848 60 355 C60.69609375 354.38769531 61.3921875 353.77539062 62.109375 353.14453125 C78.79158522 337.49661806 91.84032711 311.9928916 93.17285156 289.02001953 C93.23161759 285.84416395 93.22407374 282.67614059 93.1875 279.5 C93.18685547 278.43652344 93.18621094 277.37304688 93.18554688 276.27734375 C93.16845579 273.1819589 93.1000132 270.0937416 93 267 C92.98018066 266.19304687 92.96036133 265.38609375 92.93994141 264.5546875 C92.1053917 250.54596542 85.53284576 236.8205941 80.25 224 C79.59124254 222.38803294 78.93272011 220.77596982 78.27441406 219.16381836 C72.84681791 205.90987026 67.24112611 192.73245221 61.61352539 179.5625 C56.21242017 166.91261719 50.92526197 154.21831873 45.6875 141.5 C44.08602057 137.61194494 42.48452825 133.72389522 40.8828125 129.8359375 C40.48220108 128.86344559 40.08158966 127.89095367 39.6688385 126.88899231 C34.34530514 113.974333 28.96611082 101.08285355 23.58666992 88.19140625 C22.75699684 86.20312577 21.92732563 84.21484452 21.09765625 82.2265625 C20.68531235 81.23851624 20.27296844 80.25046997 19.84812927 79.23248291 C17.17014945 72.81300055 14.50016092 66.39024549 11.83531189 59.96530151 C10.00032032 55.54137042 8.16327421 51.1182937 6.32614136 46.69525146 C5.45120594 44.5871514 4.57726257 42.47863928 3.70437622 40.36968994 C2.49302454 37.44328699 1.27812975 34.51837791 0.0625 31.59375 C-0.29078873 30.73760101 -0.64407745 29.88145203 -1.0080719 28.99935913 C-4.11638318 20.42354949 -4.11638318 20.42354949 -9 13 C-12.03544294 12.37911394 -14.12169644 11.97643762 -16.27256775 14.48303223 Z " fill="#000101" transform="translate(345,114)"/>
<path d="M0 0 C0.85207031 -0.03738281 1.70414063 -0.07476563 2.58203125 -0.11328125 C6.20058419 0.47805649 7.54522825 1.74964283 10.1875 4.3125 C11.86284804 7.1185745 13.11523329 10.06975845 14.3828125 13.078125 C14.95480881 14.39251556 14.95480881 14.39251556 15.5383606 15.73345947 C16.77223802 18.58601125 17.98264518 21.44757783 19.1875 24.3125 C19.79458801 25.74903931 19.79458801 25.74903931 20.41394043 27.21459961 C22.91325764 33.14219696 25.3759312 39.08431463 27.81933594 45.03515625 C29.07914416 48.10303174 30.34389261 51.16883624 31.609375 54.234375 C32.42476136 56.21342542 33.2398758 58.19258791 34.0546875 60.171875 C34.42657196 61.07403748 34.79845642 61.97619995 35.18161011 62.90570068 C36.19305073 65.37092945 37.19334655 67.84025566 38.1875 70.3125 C38.64651703 71.43779114 38.64651703 71.43779114 39.11480713 72.58581543 C40.98718151 77.32295123 41.55676371 80.32446792 40.1875 85.3125 C39.65769531 85.74304688 39.12789063 86.17359375 38.58203125 86.6171875 C36.85929383 88.32413375 36.85929383 88.32413375 37.33203125 91.23828125 C37.55246094 92.35589844 37.77289063 93.47351563 38 94.625 C38.65781098 98.05757728 39.19056818 101.11306829 39.13671875 104.61328125 C39.15347656 105.50402344 39.17023438 106.39476563 39.1875 107.3125 C39.8475 107.93125 40.5075 108.55 41.1875 109.1875 C43.1875 111.3125 43.1875 111.3125 43.8125 114.9375 C43.51779094 120.58959875 40.37621175 124.82031947 37.1875 129.3125 C36.74277344 129.95445312 36.29804688 130.59640625 35.83984375 131.2578125 C28.91889566 140.25706279 18.11936474 145.22258468 7.1875 147.3125 C-5.40634655 148.60111088 -17.4090569 146.59655345 -27.7578125 138.99609375 C-38.8897782 129.87465418 -45.64534315 118.71029096 -47.12890625 104.22265625 C-47.70213146 88.96746909 -40.8978712 75.22647837 -34.9375 61.5625 C-33.40998353 58.03170156 -31.88809061 54.49849521 -30.3671875 50.96484375 C-29.9848999 50.07854782 -29.6026123 49.19225189 -29.20874023 48.27909851 C-26.6479222 42.32149657 -24.17363473 36.33415101 -21.7578125 30.31640625 C-21.44155914 29.53194122 -21.12530579 28.7474762 -20.79946899 27.9392395 C-19.59182068 24.94166067 -18.38437786 21.94432962 -17.20269775 18.93640137 C-16.40128445 16.89704731 -15.58485241 14.86428073 -14.765625 12.83203125 C-14.31348633 11.68839111 -13.86134766 10.54475098 -13.39550781 9.36645508 C-10.26561991 3.32824291 -6.73532916 0.19186095 0 0 Z " fill="#000101" transform="translate(226.8125,-0.3125)"/>
<path d="M0 0 C5.45467329 3.72145723 8.33963334 7.64984636 10.734375 13.71875 C11.04971695 14.47196533 11.3650589 15.22518066 11.68995667 16.0012207 C12.72823643 18.49368624 13.73892431 20.99638963 14.75 23.5 C15.48809246 25.28652509 16.22796104 27.07231728 16.96948242 28.85742188 C18.53467038 32.6349398 20.08820097 36.41694827 21.63232422 40.203125 C23.94489819 45.87276867 26.28363025 51.53131889 28.62890625 57.1875 C30.98107622 62.86332343 33.33072603 68.54012109 35.66723633 74.22241211 C39.91023825 84.54045432 44.18426621 94.84432406 48.5078125 105.12890625 C49.42413757 107.3124726 50.34039795 109.49606609 51.2565918 111.6796875 C52.58011107 114.833738 53.9055271 117.98690491 55.23794556 121.13720703 C65.78557827 146.07764288 73.80855448 170.60850931 63.17041016 197.06298828 C54.3123912 217.68368823 39.38649779 231.20717494 19 240 C14.96575705 241.11591454 11.16951397 241.60663011 7 241 C4.5 239.375 4.5 239.375 3 237 C2.4375 234.0625 2.4375 234.0625 3 231 C6.56419313 226.71234867 9.76916615 225.06904061 15 223.3125 C29.00770428 218.11776096 39.61767109 208.6882197 45.94189453 194.95458984 C49.62993995 186.2802275 52.10161287 178.00101995 52.3125 168.5 C52.36857422 166.87578125 52.36857422 166.87578125 52.42578125 165.21875 C51.60153434 151.33282016 44.34545071 137.71939109 39 125.125 C38.11031609 123.01191336 37.22149822 120.89846191 36.33349609 118.78466797 C34.4870987 114.39147285 32.63700004 109.99986493 30.78417969 105.609375 C26.78942522 96.13589122 22.83720246 86.64471299 18.88589478 77.15304565 C17.63290761 74.14399017 16.37849923 71.13553058 15.1237793 68.12719727 C11.28328865 58.91533847 7.45630892 49.69828562 3.66796875 40.46484375 C3.33470581 39.65293579 3.00144287 38.84102783 2.65808105 38.0045166 C1.11721846 34.24891622 -0.4203894 30.49203367 -1.95263672 26.73291016 C-2.48269777 25.43780521 -3.0128053 24.14271928 -3.54296875 22.84765625 C-4.2239563 21.1771521 -4.2239563 21.1771521 -4.91870117 19.47290039 C-5.77635352 17.10211733 -5.77635352 17.10211733 -7 16 C-18.46537818 43.35922722 -29.90768266 70.72796809 -41.30073547 98.11740112 C-43.76707529 104.04455541 -46.24079842 109.96856038 -48.72071838 115.89004517 C-50.29833433 119.65889 -51.87204289 123.42935881 -53.44503784 127.20013428 C-54.17937432 128.95791325 -54.91542746 130.71497624 -55.65335083 132.47125244 C-63.09750755 149.68493386 -63.09750755 149.68493386 -65.3125 168.125 C-65.31572266 168.96675781 -65.31894531 169.80851563 -65.32226562 170.67578125 C-65.18925288 186.27454834 -58.24210604 200.5184781 -47.625 211.75 C-40.92143559 218.05489428 -33.71502035 221.79326648 -25.140625 224.90844727 C-18.90640745 227.21636883 -18.90640745 227.21636883 -17 230 C-16.6015625 231.9375 -16.6015625 231.9375 -16.625 234 C-16.61339844 235.0209375 -16.61339844 235.0209375 -16.6015625 236.0625 C-17.12193813 238.59295404 -17.93996829 239.46782222 -20 241 C-31.312871 242.43655505 -41.97032774 236.38154722 -51 230 C-54.51164196 227.16820336 -57.78203952 224.1597408 -61 221 C-61.70125 220.32324219 -62.4025 219.64648438 -63.125 218.94921875 C-76.78802363 204.77916886 -82.49428602 185.10173387 -82.19140625 165.7578125 C-80.94558309 141.29899857 -67.35307837 117.30746489 -57.83691406 95.06811523 C-52.16150644 81.79631427 -46.62099702 68.47199208 -41.125 55.125 C-40.31648008 53.16424263 -39.50780681 51.20354849 -38.69897461 49.24291992 C-38.11168327 47.81922844 -38.11168327 47.81922844 -37.51252747 46.36677551 C-37.12811996 45.43491928 -36.74371246 44.50306305 -36.34765625 43.54296875 C-34.28318344 38.53801494 -32.21893177 33.5329785 -30.15966797 28.52587891 C-28.63695987 24.82570477 -27.10102057 21.13112995 -25.5625 17.4375 C-25.14436035 16.4160791 -24.7262207 15.3946582 -24.29541016 14.34228516 C-21.78582704 8.35353113 -19.62778341 3.57667005 -13.875 0.125 C-9.32591596 -1.56382305 -4.56948869 -1.58436141 0 0 Z " fill="#000101" transform="translate(140,112)"/>
<path d="M0 0 C4.3102426 4.3102426 6.5754331 10.72070916 9.10888672 16.21337891 C9.85849173 17.79758907 10.64009943 19.36712111 11.45556641 20.91845703 C14.74951322 27.21550936 17.84299336 33.57729743 16.46414185 40.81134033 C14.45839526 47.14037242 11.52425921 53.01206532 8.52313232 58.91900635 C6.07883366 63.86333623 4.04025244 68.96299701 1.96484375 74.0703125 C1.12897798 76.08027034 0.29108419 78.089386 -0.54882812 80.09765625 C-0.96334229 81.09168457 -1.37785645 82.08571289 -1.80493164 83.10986328 C-2.64484802 85.12364065 -3.48501822 87.13731217 -4.32543945 89.15087891 C-6.81341226 95.11219839 -9.29442589 101.07634184 -11.76934814 107.04309082 C-13.02344916 110.05634172 -14.28843801 113.06487327 -15.55419922 116.07324219 C-16.3684603 118.02526708 -17.18243622 119.97741096 -17.99609375 121.9296875 C-18.37024918 122.81141632 -18.7444046 123.69314514 -19.12989807 124.60159302 C-26.65559266 142.7587035 -25.77691722 162.0522267 -18.75 180.234375 C-12.56105745 193.80785127 -3.24138164 202.1874109 9 210 C10.34435857 210.98512833 11.68287268 211.9787491 13 213 C11.68 215.64 10.36 218.28 9 221 C3.06 221 -2.88 221 -9 221 C-9.99 218.69 -10.98 216.38 -12 214 C-13.77802725 212.55669496 -13.77802725 212.55669496 -15.9375 211.9375 C-16.73414063 211.628125 -17.53078125 211.31875 -18.3515625 211 C-19.22554687 210.67 -20.09953125 210.34 -21 210 C-38.73169501 202.57515801 -49.4299423 189.80195456 -56.8359375 172.296875 C-59.01934799 166.11298756 -59.26483789 160.05705717 -59.375 153.5625 C-59.43107422 152.36077148 -59.43107422 152.36077148 -59.48828125 151.13476562 C-59.70514333 135.67731813 -50.82030376 120.00271424 -44.9375 106.0625 C-44.05338358 103.95605033 -43.16985023 101.84935584 -42.28686523 99.74243164 C-40.4509402 95.36283782 -38.6125198 90.98430382 -36.77246094 86.60644531 C-32.76890782 77.07462716 -28.80071284 67.52810335 -24.82977295 57.98266602 C-22.36235633 52.05364083 -19.89033478 46.12653522 -17.41867065 40.19927979 C-15.57179921 35.77028584 -13.72537038 31.34111039 -11.88085938 26.91113281 C-10.30951834 23.13750172 -8.7358784 19.36483909 -7.16012573 15.5930481 C-6.6009333 14.25346261 -6.04258542 12.91352423 -5.48513794 11.57321167 C-4.73847173 9.77832385 -3.98848696 7.98481756 -3.23828125 6.19140625 C-2.82618408 5.20342041 -2.41408691 4.21543457 -1.98950195 3.19750977 C-1 1 -1 1 0 0 Z " fill="#61DBFA" transform="translate(133,127)"/>
<path d="M0 0 C2.01620713 2.54760506 3.54359482 4.91177938 4.77416992 7.91625977 C5.08847458 8.67548233 5.40277924 9.4347049 5.72660828 10.2169342 C6.05788223 11.03350998 6.38915619 11.85008575 6.73046875 12.69140625 C7.08458328 13.5507225 7.43869781 14.41003876 7.80354309 15.2953949 C8.93695025 18.04890567 10.06246035 20.80556123 11.1875 23.5625 C11.92458341 25.35894841 12.66220875 27.15517456 13.40039062 28.95117188 C13.76456085 29.83735199 14.12873108 30.7235321 14.50393677 31.63656616 C14.86744232 32.52091339 15.23094788 33.40526062 15.60546875 34.31640625 C15.96808807 35.19873932 16.3307074 36.08107239 16.70431519 36.99014282 C17.80214438 39.66039713 18.90105828 42.33020339 20 45 C20.37433167 45.91142761 20.74866333 46.82285522 21.13433838 47.76190186 C22.2262083 50.41510271 23.3250062 53.06532719 24.42578125 55.71484375 C24.75652145 56.52143936 25.08726166 57.32803497 25.42802429 58.15907288 C27.17269698 62.42193327 27.17269698 62.42193327 30 66 C31.7325 66.185625 31.7325 66.185625 33.5 66.375 C34.655 66.58125 35.81 66.7875 37 67 C40.42210016 72.05925106 40.39971183 79.25255704 39.5625 85.125 C39.2840625 86.548125 39.2840625 86.548125 39 88 C37.1746875 88.2165625 37.1746875 88.2165625 35.3125 88.4375 C32.46577055 89.13035479 31.2989321 89.6102236 29.49609375 91.9609375 C28.26670477 94.28097564 27.12087409 96.62589769 26 99 C22.4741874 104.61518303 16.38627076 108.4508065 10.1640625 110.6484375 C1.29156975 112.08981719 -8.01770369 112.2550588 -15.88671875 107.546875 C-23.09355256 102.27163251 -27.18532667 96.44401998 -30 88 C-32.1223401 73.26247033 -26.49719326 61.71191516 -20.625 48.5 C-19.74340626 46.46470365 -18.86448505 44.42824755 -17.98828125 42.390625 C-16.23835062 38.3289375 -14.47424658 34.27386132 -12.70019531 30.22265625 C-8.33084071 20.20610562 -4.17158078 10.10013524 0 0 Z " fill="#61DAF9" transform="translate(226,20)"/>
<path d="M0 0 C5.87549412 3.80179031 8.03619546 12.98876521 9.59423828 19.45654297 C10.42208027 24.64574747 10.37185698 29.88956258 10.37060547 35.1340332 C10.37495484 37.1663962 10.41129311 39.1965385 10.44921875 41.22851562 C10.55564266 53.37626934 7.45902957 63.80215054 2.25 74.6875 C1.90783447 75.40736084 1.56566895 76.12722168 1.21313477 76.86889648 C-1.77608949 82.93954176 -5.45937737 87.9814171 -10 93 C-10.57492187 93.70382812 -11.14984375 94.40765625 -11.7421875 95.1328125 C-21.45977148 106.91034515 -21.45977148 106.91034515 -28.24609375 108.5390625 C-31.10601689 108.65450894 -33.43385995 108.28307003 -36 107 C-37.64554738 103.70890523 -37.77502471 100.53039901 -37 97 C-35.04668908 94.27474418 -32.5865583 92.29856561 -30 90.1875 C-28.61109923 88.97176427 -27.22825155 87.74907831 -25.8515625 86.51953125 C-25.18415039 85.92350098 -24.51673828 85.3274707 -23.82910156 84.71337891 C-16.44036439 77.79210856 -12.45623487 69.35058891 -9 60 C-8.64679688 59.20335937 -8.29359375 58.40671875 -7.9296875 57.5859375 C-3.27188782 44.63020897 -4.3460045 26.25108791 -9.09375 13.5 C-10.36108534 10.0039025 -10.62381767 7.6649288 -10 4 C-7.26646839 -0.10029741 -4.80388991 -0.80064832 0 0 Z " fill="#030505" transform="translate(407,354)"/>
<path d="M0 0 C2.89059 1.445295 3.12127179 3.30485103 4.3125 6.27734375 C4.74820313 7.34791016 5.18390625 8.41847656 5.6328125 9.52148438 C6.08398438 10.64876953 6.53515625 11.77605469 7 12.9375 C7.8912782 15.15678272 8.78690455 17.37432565 9.6875 19.58984375 C10.08324219 20.57847412 10.47898438 21.56710449 10.88671875 22.58569336 C11.88407604 25.11476293 11.88407604 25.11476293 14 27 C15.155 27.12375 16.31 27.2475 17.5 27.375 C19.2325 27.684375 19.2325 27.684375 21 28 C24.42210016 33.05925106 24.39971183 40.25255704 23.5625 46.125 C23.376875 47.07375 23.19125 48.0225 23 49 C21.783125 49.144375 20.56625 49.28875 19.3125 49.4375 C16.46577055 50.13035479 15.2989321 50.6102236 13.49609375 52.9609375 C12.26692899 55.2805525 11.13089999 57.63127856 10 60 C7.21184748 64.04731817 4.34297296 66.64755631 0 69 C-2.88291587 68.82232526 -3.82565354 68.18559462 -5.81640625 66.06640625 C-9.87996601 60.23924337 -12.8284873 55.04893237 -14 48 C-14.17273438 46.98164062 -14.34546875 45.96328125 -14.5234375 44.9140625 C-15.83160972 29.18063983 -7.02644852 13.64247365 0 0 Z " fill="#99E6FB" transform="translate(242,59)"/>
<path d="M0 0 C4.23046805 2.82031203 5.68470044 7.25538159 7 12 C7.39942518 15.1596421 7.42121661 18.25625638 7.375 21.4375 C7.38660156 22.23220703 7.39820313 23.02691406 7.41015625 23.84570312 C7.35241296 35.67345274 2.0820992 47.17128904 -6.1875 55.5625 C-9.46644458 58.67329357 -11.79518905 60.86856608 -16.4375 61.375 C-20 61 -20 61 -22.4375 59.375 C-24.49791771 56.24316508 -24.6767545 54.68455227 -24 51 C-21.875 48.5625 -21.875 48.5625 -19 46 C-11.07712699 37.95554838 -8.648686 30.91325043 -8.61962891 19.67211914 C-8.70871971 15.6615644 -9.40664986 12.65115863 -11 9 C-10.81462005 5.91033418 -10.47060215 3.78433692 -8.875 1.125 C-5.83167192 -0.70099685 -3.45750445 -0.42460581 0 0 Z " fill="#020404" transform="translate(168,257)"/>
</svg>
