<?xml version="1.0" encoding="UTF-8"?>
<svg version="1.1" xmlns="http://www.w3.org/2000/svg" width="512" height="512">
<path d="M0 0 C1.37001499 -0.00679667 1.37001499 -0.00679667 2.76770705 -0.01373065 C5.82913209 -0.02639404 8.89037967 -0.02475301 11.951828 -0.02310181 C14.14645619 -0.02908585 16.34108226 -0.03589111 18.53570557 -0.04345703 C24.49857763 -0.06113708 30.4613923 -0.06581327 36.42428803 -0.0670886 C41.40190351 -0.06898734 46.3795056 -0.07634461 51.35711592 -0.08343279 C62.43038929 -0.09879156 73.50364002 -0.10477003 84.57692269 -0.10342209 C85.2410809 -0.10334218 85.9052391 -0.10326227 86.58952332 -0.10317993 C87.25449503 -0.10309817 87.91946675 -0.10301641 88.60458913 -0.10293217 C99.37862644 -0.10211947 110.15252388 -0.12125397 120.92652074 -0.14945666 C131.9963304 -0.17820441 143.06606852 -0.19162987 154.13591594 -0.19026911 C160.3479254 -0.18975916 166.55977659 -0.19546077 172.77175331 -0.21662521 C178.61504718 -0.2359897 184.4580315 -0.23614406 190.30133629 -0.22159195 C192.44429857 -0.21950053 194.58728014 -0.22422449 196.73020935 -0.23631287 C199.65928879 -0.25176394 202.58730074 -0.24245771 205.51635742 -0.22705078 C206.36121651 -0.23733791 207.2060756 -0.24762503 208.07653648 -0.25822389 C215.1801394 -0.17584596 220.25476517 1.99481903 225.67131042 6.56430054 C226.82953308 7.77859741 226.82953308 7.77859741 228.01115417 9.01742554 C229.28345886 10.34387085 229.28345886 10.34387085 230.58146667 11.69711304 C233.11639424 14.44955914 235.60481581 17.22994055 238.03849792 20.07211304 C240.45698802 22.85164562 242.95146107 25.55887653 245.44865417 28.26742554 C249.0490556 32.17698595 252.59283608 36.12609697 256.07365417 40.14242554 C258.49415492 42.88565972 260.9706606 45.57627122 263.44865417 48.26742554 C267.0482184 52.17662969 270.59420884 56.1225249 274.06974792 60.14242554 C276.02854991 62.35778578 278.03509547 64.52531956 280.04850769 66.69100952 C295.20812376 83.02979119 295.20812376 83.02979119 295.18916321 92.76603699 C295.1932872 94.40448578 295.1932872 94.40448578 295.19749451 96.07603455 C295.19030396 97.26430344 295.1831134 98.45257233 295.17570496 99.67684937 C295.17599701 100.9357901 295.17628906 102.19473083 295.17658997 103.49182129 C295.1771629 106.93568766 295.16541826 110.37941422 295.15144205 113.82324815 C295.13892478 117.42537617 295.13776341 121.02750752 295.13539124 124.62965393 C295.12917939 131.44709197 295.11277259 138.26446574 295.09269226 145.0818755 C295.07032404 152.84483349 295.05933751 160.60779457 295.04930139 168.37077677 C295.02840609 184.33636356 294.99323588 200.30188626 294.94865417 216.26742554 C295.54389389 216.25957031 296.13913361 216.25171509 296.75241089 216.24362183 C299.4883734 216.21215357 302.22429763 216.19283685 304.96037292 216.17367554 C306.36458496 216.154823 306.36458496 216.154823 307.79716492 216.1355896 C325.69827073 216.04176419 342.51741023 223.63624521 355.94865417 235.26742554 C357.13781433 236.16267944 357.13781433 236.16267944 358.35099792 237.07601929 C372.04538684 248.62872933 381.57320923 267.78951464 383.1532135 285.56933594 C383.42637046 291.28258146 383.31709842 296.98887337 383.19865417 302.70492554 C383.17852755 304.41909702 383.16028784 306.13329173 383.14396667 307.84750366 C383.10052946 311.98806691 383.03185633 316.12747837 382.94865417 320.26742554 C384.05853699 320.25517944 385.1684198 320.24293335 386.31193542 320.23031616 C392.02363845 320.28859885 395.79620501 322.24581152 399.94084167 326.13851929 C406.27033829 333.08520748 407.42933796 338.45519968 407.25334167 347.82211304 C406.64293066 354.724453 404.0230524 358.50949883 399.01115417 363.14242554 C393.78682967 367.38357458 389.57565631 368.35495616 382.94865417 369.26742554 C382.73647247 371.0160363 382.73647247 371.0160363 382.52000427 372.79997253 C381.18098933 383.82063785 379.82818439 394.83953551 378.46208572 405.85687733 C377.76030745 411.52017476 377.06329116 417.18397158 376.37736511 422.84921265 C375.71442752 428.32308717 375.03871068 433.79524964 374.35434723 439.26648521 C374.09629975 441.34735549 373.84275323 443.42878936 373.59392548 445.51078224 C369.78730209 477.28865259 369.78730209 477.28865259 356.63615417 488.07992554 C349.43108295 493.33438526 342.09387132 496.38883411 333.1675005 496.40164661 C332.12248842 496.40517496 332.12248842 496.40517496 331.05636498 496.40877458 C328.7044313 496.41547114 326.35255278 496.41500617 324.00061035 496.41459656 C322.30430412 496.41789477 320.60799867 496.42162025 318.91169423 496.42573804 C314.23646759 496.43577095 309.5612538 496.4394769 304.88601792 496.44212735 C299.8490552 496.44602656 294.8121027 496.45560515 289.77514648 496.46434021 C277.60421167 496.4841152 265.433276 496.49417203 253.26232913 496.503068 C247.53373347 496.50744911 241.80513874 496.51281637 236.07654381 496.51805687 C217.03848748 496.53507 198.00043173 496.54956488 178.96236897 496.55680561 C174.02037874 496.55871557 169.07838852 496.56063589 164.13639832 496.56259155 C162.29389087 496.56331716 162.29389087 496.56331716 160.41416105 496.56405743 C140.50929258 496.57236036 120.60448416 496.59770135 100.69964192 496.63017223 C80.27340295 496.66322259 59.84719451 496.68125253 39.42092866 496.68444985 C27.94842093 496.6866168 16.47600076 496.69539246 5.00351906 496.72091103 C-4.76562592 496.74259035 -14.53466207 496.75068207 -24.30382838 496.74094424 C-29.28910638 496.73639156 -34.27415969 496.73834204 -39.25940704 496.75770569 C-43.82359423 496.77528092 -48.38739189 496.77438559 -52.95158289 496.7588084 C-54.60236958 496.75642374 -56.25318286 496.76080021 -57.90392884 496.77263705 C-67.40678515 496.83655514 -74.81922645 496.85236638 -82.29353333 490.30258179 C-82.83236145 489.65160522 -83.37118958 489.00062866 -83.92634583 488.32992554 C-84.4806427 487.6815271 -85.03493958 487.03312866 -85.60603333 486.36508179 C-88.71744959 481.84932358 -89.30215281 477.98574031 -89.30861473 472.55252361 C-89.31212081 471.88730868 -89.31562688 471.22209374 -89.3192392 470.53672078 C-89.32855602 468.3037806 -89.32362923 466.07110107 -89.31877136 463.83815002 C-89.32250748 462.22261238 -89.32710885 460.60707655 -89.33250201 458.99154359 C-89.34475214 454.54884762 -89.34446917 450.10622684 -89.34211326 445.66351783 C-89.3417056 440.87334839 -89.35273935 436.08320322 -89.36222839 431.29304504 C-89.37885038 421.90695787 -89.38433848 412.52089581 -89.38545315 403.13479515 C-89.38640305 395.50626007 -89.39051045 387.87773328 -89.3968544 380.24920082 C-89.41447004 358.62695152 -89.42369276 337.00472209 -89.42219345 315.38246556 C-89.42211354 314.2164921 -89.42203363 313.05051864 -89.42195129 311.84921265 C-89.42186953 310.68181765 -89.42178777 309.51442265 -89.42170353 308.31165204 C-89.42089053 289.3898173 -89.44003098 270.46806214 -89.46822803 251.54625043 C-89.49694363 232.12339468 -89.51076905 212.70057776 -89.50904047 193.27770025 C-89.50837612 182.37084647 -89.51388842 171.46407612 -89.53539658 160.55724144 C-89.55359094 151.27122804 -89.55797005 141.9853359 -89.54437773 132.69931241 C-89.53783929 127.96110322 -89.53776247 123.22312675 -89.55508423 118.48493958 C-89.57078128 114.14656958 -89.56798589 109.8086175 -89.55051596 105.47025792 C-89.54743863 103.90163292 -89.55110605 102.33297699 -89.56223612 100.76438846 C-89.64204987 88.71720542 -87.78390635 81.48470583 -79.23884583 72.76742554 C-78.15997584 71.63401963 -77.08184622 70.4999085 -76.00447083 69.36508179 C-75.49077942 68.82899292 -74.97708801 68.29290405 -74.4478302 67.74057007 C-72.74100899 65.94005273 -71.10654284 64.08569464 -69.48884583 62.20492554 C-66.57336665 58.83323446 -63.57058941 55.54599687 -60.55134583 52.26742554 C-57.51244406 48.96715678 -54.48978482 45.65793207 -51.55134583 42.26742554 C-48.14457233 38.33653304 -44.62131798 34.51545981 -41.09822083 30.68930054 C-38.54579439 27.91248497 -36.02151294 25.11761837 -33.55134583 22.26742554 C-30.54861158 18.81500645 -27.50022991 15.40647484 -24.42634583 12.01742554 C-23.97066223 11.50953491 -23.51497864 11.00164429 -23.04548645 10.47836304 C-15.83733424 2.56927294 -10.48506619 -0.03813557 0 0 Z " fill="#000000" transform="translate(97.05134582519531,7.732574462890625)"/>
<path d="M0 0 C0.87614478 -0.00297112 1.75228956 -0.00594224 2.65498418 -0.0090034 C5.60831175 -0.01771628 8.56159892 -0.01920083 11.51493835 -0.02069092 C13.62532132 -0.02531726 15.73570345 -0.03034167 17.84608459 -0.03573608 C23.59198609 -0.04887981 29.33787588 -0.05530889 35.08379006 -0.05974674 C38.67089449 -0.0626743 42.25799569 -0.06677849 45.8450985 -0.07125092 C57.06042698 -0.08493106 68.27574814 -0.09459518 79.4910844 -0.09845281 C92.45214655 -0.10293495 105.41310331 -0.12048798 118.37413341 -0.1494534 C128.38266382 -0.17104668 138.39116452 -0.18115583 148.39971799 -0.18249393 C154.38194047 -0.18354365 160.36406395 -0.18948689 166.34626198 -0.20731354 C171.97277518 -0.22375351 177.59911455 -0.22596954 183.22564316 -0.21717453 C185.2924604 -0.21640197 187.35928683 -0.22077559 189.4260807 -0.23063278 C192.24454909 -0.24328809 195.06239581 -0.23751042 197.88085938 -0.22705078 C199.11179753 -0.23913539 199.11179753 -0.23913539 200.36760312 -0.25146413 C205.95138478 -0.20289796 209.30577617 0.83200045 213.26371765 4.76153564 C214.00235046 5.66065674 214.00235046 5.66065674 214.75590515 6.57794189 C217.7953362 10.18145949 220.93204721 13.67853782 224.13090515 17.14044189 C227.73177781 21.04956281 231.2750971 24.99912491 234.75590515 29.01544189 C237.1764059 31.75867608 239.65291157 34.44928758 242.13090515 37.14044189 C245.73103271 41.05025785 249.27508121 44.99910657 252.75590515 49.01544189 C255.17640856 51.7586791 257.65305313 54.44915444 260.13090515 57.14044189 C268.84038486 66.60829806 268.84038486 66.60829806 272.63090515 71.14044189 C273.40671669 72.01722281 273.40671669 72.01722281 274.19820118 72.91171646 C275.96669768 75.66280336 276.00116232 77.26565219 275.9916687 80.51879883 C275.99785469 82.15518562 275.99785469 82.15518562 276.00416565 83.82463074 C275.99337982 85.0164949 275.98259399 86.20835907 275.97148132 87.43634033 C275.9719194 88.69513504 275.97235748 89.95392975 275.97280884 91.25086975 C275.97366937 94.6989987 275.95603448 98.1468144 275.93508697 101.59487057 C275.91632975 105.1996648 275.91457048 108.80446626 275.91101074 112.40930176 C275.90168745 119.23389468 275.87706989 126.05834339 275.84696227 132.88287282 C275.81342706 140.6530513 275.79693448 148.42323668 275.78187597 156.19346952 C275.75052052 172.17587716 275.69775458 188.15814093 275.63090515 204.14044189 C274.54696472 204.59789795 273.46302429 205.055354 272.34623718 205.52667236 C270.90192237 206.14499398 269.45775709 206.76366496 268.01371765 207.38262939 C267.30191345 207.68193359 266.59010925 207.98123779 265.85673523 208.28961182 C259.3811389 211.07972819 254.10435089 214.67675253 248.63090515 219.14044189 C248.0276239 219.61610596 247.42434265 220.09177002 246.80278015 220.58184814 C244.40114583 222.51649802 242.22343047 224.55785499 240.06840515 226.76544189 C236.11810673 230.61445061 233.35654434 232.32712209 227.81840515 232.64044189 C222.41536059 232.47134512 218.65689057 230.70053817 214.63090515 227.14044189 C214.0069989 226.34766846 213.38309265 225.55489502 212.74028015 224.73809814 C202.07078544 211.59881299 183.0612631 203.7377809 166.63090515 201.14044189 C145.30019605 199.07438883 124.42704278 203.70110526 107.2910614 216.88262939 C103.69038946 219.93870631 100.21550028 223.1310875 96.86430359 226.45977783 C92.63816806 230.53947762 88.9190015 231.93614758 83.13090515 232.45294189 C77.57811379 231.95715695 74.29504221 229.96017154 70.50590515 226.01544189 C58.08765188 213.13524047 42.84732036 205.95719187 25.63090515 202.14044189 C24.83297546 201.94450439 24.03504578 201.74856689 23.2129364 201.54669189 C16.80295159 200.53816176 10.10659069 201.00248869 3.63090515 201.14044189 C2.77754578 201.15719971 1.9241864 201.17395752 1.04496765 201.19122314 C-16.96005058 202.39845617 -35.08522399 213.3719449 -47.36909485 226.14044189 C-67.35426252 249.06201187 -68.08335855 275.37221547 -68.36909485 304.14044189 C-71.00909485 304.47044189 -73.64909485 304.80044189 -76.36909485 305.14044189 C-76.57457078 276.01018873 -76.73376515 246.88000648 -76.82868281 217.74917302 C-76.83993868 214.3071664 -76.85158763 210.86516122 -76.86347961 207.42315674 C-76.86584041 206.73793845 -76.8682012 206.05272015 -76.87063354 205.34673767 C-76.90975653 194.2631766 -76.98069546 183.18003722 -77.06347001 172.09672602 C-77.14774376 160.71745951 -77.19697339 149.33850487 -77.2158913 137.95890653 C-77.22761743 131.56978539 -77.25514463 125.18161948 -77.32066536 118.79280472 C-77.3818682 112.77613184 -77.40057606 106.76080532 -77.38706398 100.74385071 C-77.38953493 98.53877311 -77.4073715 96.33364934 -77.44194412 94.1288414 C-77.7211861 75.39797576 -77.7211861 75.39797576 -72.01617432 68.99209595 C-70.49616494 67.67398576 -68.94902754 66.38609659 -67.36909485 65.14044189 C-66.21606609 63.87373259 -65.08532301 62.5857634 -63.99409485 61.26544189 C-60.54057924 57.29791466 -56.97905545 53.43196549 -53.41645813 49.56280518 C-50.86383722 46.78585507 -48.3394128 43.99080876 -45.86909485 41.14044189 C-42.93065475 37.74993409 -39.90795343 34.44075159 -36.86909485 31.14044189 C-33.25192862 27.21165037 -29.68570593 23.24754357 -26.18940735 19.21075439 C-23.08123665 15.67571047 -19.88607049 12.21954452 -16.7011261 8.75372314 C-15.14288454 7.00755295 -13.63911617 5.21125899 -12.1933136 3.37091064 C-8.78504114 -0.79637752 -5.01338711 -0.00525072 0 0 Z " fill="#FDD35C" transform="translate(100.36909484863281,23.85955810546875)"/>
<path d="M0 0 C136.62 0 273.24 0 414 0 C408.79510503 48.14527851 408.79510503 48.14527851 406.98217773 63.16772461 C406.69673332 65.56170488 406.41902571 67.95661759 406.14819336 70.35229492 C405.74294345 73.92863134 405.3135422 77.50134946 404.87890625 81.07421875 C404.76414444 82.13146652 404.64938263 83.18871429 404.53114319 84.27799988 C403.35143741 93.58663849 400.45028968 101.57469259 393.13671875 107.74609375 C385.14134879 112.43807503 377.72005451 112.43200814 368.65931702 112.39440918 C367.19864272 112.39930236 365.73797229 112.40549414 364.2773084 112.41286707 C360.27654306 112.42923533 356.27597517 112.42695506 352.27518809 112.4214921 C347.95539166 112.41881809 343.63564741 112.43336055 339.31587219 112.44558716 C330.85829818 112.46662682 322.40079274 112.47118288 313.94319565 112.46939927 C307.06845475 112.46809105 300.19373522 112.47189885 293.31899834 112.47932434 C291.3378852 112.48142356 289.35677207 112.48352116 287.37565893 112.48561716 C285.89653465 112.48718245 285.89653465 112.48718245 284.38752907 112.48877937 C265.74450845 112.5076754 247.1015272 112.50663332 228.45850097 112.49981004 C211.40633111 112.4942335 194.35431143 112.51506589 177.30217666 112.54817051 C159.78780479 112.58190834 142.27350487 112.59707583 124.7590999 112.59245348 C114.92814609 112.59020909 105.09733114 112.59544778 95.26640511 112.62034607 C86.89796825 112.64136022 78.52974642 112.64494991 70.16130073 112.62604648 C65.89274946 112.61688982 61.62459911 112.61574333 57.3560791 112.63640213 C53.44573148 112.65511802 49.53611295 112.65060245 45.62579303 112.62785631 C44.21403642 112.62367209 42.80222385 112.62786479 41.39052642 112.64145225 C32.00188576 112.72563704 25.28689083 111.73508557 18.16389233 105.35553122 C9.73991433 96.90889673 9.89601786 83.05978713 8.5546875 71.875 C8.337891 70.11953951 8.12035866 68.36416976 7.90213013 66.60888672 C7.33257765 62.0106077 6.77358009 57.41110471 6.2166748 52.8112793 C5.76221317 49.0719969 5.30042648 45.33363685 4.83820915 41.5953064 C3.87913812 33.83791375 2.92497878 26.07990795 1.98388672 18.3203125 C1.89868774 17.62391663 1.81348877 16.92752075 1.72570801 16.21002197 C1.07386646 10.81075882 0.54150661 5.41506606 0 0 Z " fill="#E9EDF9" transform="translate(49,376)"/>
<path d="M0 0 C0.99386719 0.3403125 1.98773438 0.680625 3.01171875 1.03125 C12.69231862 4.70020975 20.45610194 10.19461363 27.5625 17.6875 C33.92704294 24.32726642 41.7931174 28.10224667 51 28.3125 C64.44683727 28.13340783 71.67477558 22.40298689 80.83984375 13.140625 C93.01347359 1.52639609 109.68056729 -3.5598911 126.16064453 -3.56298828 C145.63329366 -2.94890399 160.15481645 6.77433441 173.8671875 19.76953125 C181.66958259 26.87078945 188.78140701 28.71921264 199.3515625 28.37109375 C210.63446322 27.22347537 217.10612734 20.94382073 224.84375 13.140625 C236.80583894 1.70318909 253.35187054 -3.55313077 269.59326172 -3.49047852 C287.7528198 -2.90255344 303.39449402 5.05502798 316 18 C333.33702244 36.88426243 332 60.10124281 332 85 C194.72 85 57.44 85 -84 85 C-84 34.06425944 -84 34.06425944 -64.82421875 14.66015625 C-57.75801411 8.00443652 -50.03304468 3.49294787 -41 0 C-40.17242187 -0.32097656 -39.34484375 -0.64195312 -38.4921875 -0.97265625 C-26.28874687 -4.98449071 -12.02428275 -4.17066031 0 0 Z " fill="#FED45C" transform="translate(132,243)"/>
<path d="M0 0 C0.87614478 -0.00297112 1.75228956 -0.00594224 2.65498418 -0.0090034 C5.60831175 -0.01771628 8.56159892 -0.01920083 11.51493835 -0.02069092 C13.62532132 -0.02531726 15.73570345 -0.03034167 17.84608459 -0.03573608 C23.59198609 -0.04887981 29.33787588 -0.05530889 35.08379006 -0.05974674 C38.67089449 -0.0626743 42.25799569 -0.06677849 45.8450985 -0.07125092 C57.06042698 -0.08493106 68.27574814 -0.09459518 79.4910844 -0.09845281 C92.45214655 -0.10293495 105.41310331 -0.12048798 118.37413341 -0.1494534 C128.38266382 -0.17104668 138.39116452 -0.18115583 148.39971799 -0.18249393 C154.38194047 -0.18354365 160.36406395 -0.18948689 166.34626198 -0.20731354 C171.97277518 -0.22375351 177.59911455 -0.22596954 183.22564316 -0.21717453 C185.2924604 -0.21640197 187.35928683 -0.22077559 189.4260807 -0.23063278 C192.24454909 -0.24328809 195.06239581 -0.23751042 197.88085938 -0.22705078 C199.11179753 -0.23913539 199.11179753 -0.23913539 200.36760312 -0.25146413 C205.95138478 -0.20289796 209.30577617 0.83200045 213.26371765 4.76153564 C214.00235046 5.66065674 214.00235046 5.66065674 214.75590515 6.57794189 C217.7953362 10.18145949 220.93204721 13.67853782 224.13090515 17.14044189 C227.73177781 21.04956281 231.2750971 24.99912491 234.75590515 29.01544189 C237.1764059 31.75867608 239.65291157 34.44928758 242.13090515 37.14044189 C245.73103271 41.05025785 249.27508121 44.99910657 252.75590515 49.01544189 C255.17640856 51.7586791 257.65305313 54.44915444 260.13090515 57.14044189 C268.84038486 66.60829806 268.84038486 66.60829806 272.63090515 71.14044189 C273.40671669 72.01722281 273.40671669 72.01722281 274.19820118 72.91171646 C275.96669768 75.66280336 276.00116232 77.26565219 275.9916687 80.51879883 C275.99785469 82.15518562 275.99785469 82.15518562 276.00416565 83.82463074 C275.99337982 85.0164949 275.98259399 86.20835907 275.97148132 87.43634033 C275.9719194 88.69513504 275.97235748 89.95392975 275.97280884 91.25086975 C275.97366937 94.6989987 275.95603448 98.1468144 275.93508697 101.59487057 C275.91632975 105.1996648 275.91457048 108.80446626 275.91101074 112.40930176 C275.90168745 119.23389468 275.87706989 126.05834339 275.84696227 132.88287282 C275.81342706 140.6530513 275.79693448 148.42323668 275.78187597 156.19346952 C275.75052052 172.17587716 275.69775458 188.15814093 275.63090515 204.14044189 C274.54696472 204.59789795 273.46302429 205.055354 272.34623718 205.52667236 C270.90192237 206.14499398 269.45775709 206.76366496 268.01371765 207.38262939 C267.30191345 207.68193359 266.59010925 207.98123779 265.85673523 208.28961182 C259.3811389 211.07972819 254.10435089 214.67675253 248.63090515 219.14044189 C248.0276239 219.61610596 247.42434265 220.09177002 246.80278015 220.58184814 C244.40114583 222.51649802 242.22343047 224.55785499 240.06840515 226.76544189 C236.11810673 230.61445061 233.35654434 232.32712209 227.81840515 232.64044189 C222.41536059 232.47134512 218.65689057 230.70053817 214.63090515 227.14044189 C214.0069989 226.34766846 213.38309265 225.55489502 212.74028015 224.73809814 C202.07078544 211.59881299 183.0612631 203.7377809 166.63090515 201.14044189 C145.30019605 199.07438883 124.42704278 203.70110526 107.2910614 216.88262939 C103.69038946 219.93870631 100.21550028 223.1310875 96.86430359 226.45977783 C92.63816806 230.53947762 88.9190015 231.93614758 83.13090515 232.45294189 C77.57811379 231.95715695 74.29504221 229.96017154 70.50590515 226.01544189 C58.08765188 213.13524047 42.84732036 205.95719187 25.63090515 202.14044189 C24.83297546 201.94450439 24.03504578 201.74856689 23.2129364 201.54669189 C16.80295159 200.53816176 10.10659069 201.00248869 3.63090515 201.14044189 C2.77754578 201.15719971 1.9241864 201.17395752 1.04496765 201.19122314 C-16.96005058 202.39845617 -35.08522399 213.3719449 -47.36909485 226.14044189 C-67.35426252 249.06201187 -68.08335855 275.37221547 -68.36909485 304.14044189 C-71.00909485 304.47044189 -73.64909485 304.80044189 -76.36909485 305.14044189 C-76.57457078 276.01018873 -76.73376515 246.88000648 -76.82868281 217.74917302 C-76.83993868 214.3071664 -76.85158763 210.86516122 -76.86347961 207.42315674 C-76.86584041 206.73793845 -76.8682012 206.05272015 -76.87063354 205.34673767 C-76.90975653 194.2631766 -76.98069546 183.18003722 -77.06347001 172.09672602 C-77.14774376 160.71745951 -77.19697339 149.33850487 -77.2158913 137.95890653 C-77.22761743 131.56978539 -77.25514463 125.18161948 -77.32066536 118.79280472 C-77.3818682 112.77613184 -77.40057606 106.76080532 -77.38706398 100.74385071 C-77.38953493 98.53877311 -77.4073715 96.33364934 -77.44194412 94.1288414 C-77.7211861 75.39797576 -77.7211861 75.39797576 -72.01617432 68.99209595 C-70.49616494 67.67398576 -68.94902754 66.38609659 -67.36909485 65.14044189 C-66.21606609 63.87373259 -65.08532301 62.5857634 -63.99409485 61.26544189 C-60.54057924 57.29791466 -56.97905545 53.43196549 -53.41645813 49.56280518 C-50.86383722 46.78585507 -48.3394128 43.99080876 -45.86909485 41.14044189 C-42.93065475 37.74993409 -39.90795343 34.44075159 -36.86909485 31.14044189 C-33.25192862 27.21165037 -29.68570593 23.24754357 -26.18940735 19.21075439 C-23.08123665 15.67571047 -19.88607049 12.21954452 -16.7011261 8.75372314 C-15.14288454 7.00755295 -13.63911617 5.21125899 -12.1933136 3.37091064 C-8.78504114 -0.79637752 -5.01338711 -0.00525072 0 0 Z M-62.74409485 72.57794189 C-63.39120422 73.31915283 -64.0383136 74.06036377 -64.70503235 74.82403564 C-68.39029553 79.9539912 -68.66260812 84.67032757 -68.64375305 90.84283447 C-68.64886398 91.70853561 -68.65397491 92.57423676 -68.65924072 93.46617126 C-68.67311826 96.32250929 -68.67218103 99.17860545 -68.6698761 102.03497314 C-68.67376464 104.02648508 -68.67809964 106.01799619 -68.68286133 108.00950623 C-68.69032004 112.18314298 -68.69003522 116.35669515 -68.68476868 120.53033447 C-68.67898105 125.86663248 -68.69588975 131.2025826 -68.71911335 136.53882313 C-68.73388075 140.65248117 -68.73471818 144.76605609 -68.73160362 148.87973595 C-68.73211554 150.84642919 -68.7373288 152.81312725 -68.74741554 154.77979469 C-68.75981798 157.53671141 -68.75296502 160.29295889 -68.7414093 163.04986572 C-68.74905304 163.85481476 -68.75669678 164.65976379 -68.76457214 165.48910522 C-68.69903409 172.59991399 -67.00920868 178.93214217 -62.18159485 184.39044189 C-61.65179016 185.01434814 -61.12198547 185.63825439 -60.5761261 186.28106689 C-53.47730562 192.26166609 -47.09731824 192.71766951 -38.1476593 192.64164734 C-36.92956983 192.64718174 -35.71148035 192.65271613 -34.45647907 192.65841824 C-31.09200362 192.66964323 -27.72843674 192.66302327 -24.36403131 192.64868152 C-20.72933349 192.63754608 -17.09470028 192.6495228 -13.46000671 192.65852356 C-6.34626497 192.67244059 0.76729899 192.66491126 7.88103223 192.64984798 C16.16893485 192.63296797 24.45679344 192.63620066 32.74470794 192.63994206 C47.53460904 192.64581783 62.32442494 192.63166021 77.11430359 192.60699463 C91.45873711 192.58307469 105.80305683 192.57599074 120.14750671 192.58648682 C135.77560197 192.59790171 151.40364461 192.59981902 167.03173923 192.58538872 C168.6988786 192.58386292 170.36601797 192.58234256 172.03315735 192.58082771 C172.85337661 192.5800699 173.67359587 192.57931208 174.51867026 192.57853131 C180.2928554 192.5737929 186.06701701 192.57563677 191.84120178 192.57989311 C198.88004439 192.58482492 205.91877948 192.57881252 212.95759749 192.55899882 C216.54746815 192.54914187 220.13717527 192.54400434 223.7270546 192.55189133 C227.62129649 192.56027182 231.5152523 192.54533945 235.4094696 192.52812195 C236.54021251 192.53413199 237.67095541 192.54014204 238.83596325 192.54633421 C246.83446557 192.48198351 253.62194611 191.45915837 259.88090515 186.01544189 C260.81676453 185.23813721 260.81676453 185.23813721 261.77153015 184.44512939 C266.77104344 178.24825368 268.22679111 171.68714091 268.14848328 163.89215088 C268.15549255 163.01611206 268.16250183 162.14007324 268.16972351 161.23748779 C268.18718713 158.37017183 268.17572346 155.5038599 268.16215515 152.63653564 C268.16485317 150.62831942 268.16873816 148.62010448 268.17375183 146.6118927 C268.17963092 142.41498302 268.17113431 138.21841518 268.15238953 134.02154541 C268.12958633 128.65607505 268.14274205 123.29140455 268.16667938 117.9259634 C268.18116775 113.78310676 268.17651767 109.64043822 268.16616821 105.49757576 C268.1635101 103.51972419 268.1667383 101.54185524 268.17608643 99.56402397 C268.18630385 96.79533832 268.17067946 94.0279295 268.14848328 91.25933838 C268.16062866 90.04731499 268.16062866 90.04731499 268.17301941 88.81080627 C268.07221 81.98537914 265.96606587 76.85976029 261.5176239 71.67950439 C260.79188171 71.04786377 260.06613953 70.41622314 259.31840515 69.76544189 C258.24139343 68.79477783 258.24139343 68.79477783 257.1426239 67.80450439 C250.49618198 63.40110741 243.22424847 63.85199453 235.52972412 63.87301636 C234.31248907 63.86848524 233.09525402 63.86395413 231.84113306 63.85928571 C228.4746534 63.84883578 225.10838784 63.84731236 221.74190724 63.84967446 C218.10651766 63.85008343 214.47115968 63.83903603 210.83578491 63.82955933 C203.71862091 63.81296688 196.60149004 63.80745061 189.48430831 63.80633457 C183.69887895 63.80538345 177.9134605 63.80127 172.12803459 63.79493332 C155.71932793 63.77732727 139.31064741 63.76809369 122.90193123 63.76959427 C122.01786616 63.76967418 121.13380109 63.76975409 120.22294617 63.76983643 C119.33779996 63.76991819 118.45265375 63.76999995 117.54068493 63.77008419 C103.19080067 63.77089736 88.84102129 63.75175022 74.49116737 63.72355969 C59.7510179 63.69483119 45.01091959 63.68101931 30.2707414 63.68274724 C21.99750711 63.68341106 13.72438284 63.67792222 5.45117378 63.65639114 C-1.59135767 63.63817999 -8.63372919 63.63383158 -15.67627399 63.64740999 C-19.26822336 63.65393947 -22.85986587 63.65405787 -26.45178604 63.63670349 C-30.34830946 63.61807118 -34.24438494 63.63052758 -38.14093018 63.64596558 C-39.2723552 63.63567845 -40.40378022 63.62539132 -41.56949085 63.61479247 C-50.4414877 63.69253263 -56.78505711 65.56087093 -62.74409485 72.57794189 Z " fill="#80B3FB" transform="translate(100.36909484863281,23.85955810546875)"/>
<path d="M0 0 C1.04307353 -0.00583219 2.08614707 -0.01166439 3.16082889 -0.01767331 C4.30031032 -0.01389399 5.43979174 -0.01011467 6.61380291 -0.00622082 C7.82932911 -0.01004636 9.04485531 -0.01387191 10.29721564 -0.01781338 C13.6682177 -0.02634892 17.03900173 -0.02590887 20.40999758 -0.02163279 C24.04678187 -0.01916747 27.68354046 -0.02817738 31.32031536 -0.03567028 C38.44444206 -0.04842531 45.56853109 -0.05020992 52.69266728 -0.04787002 C58.48386479 -0.04608738 64.27505085 -0.04783534 70.06624699 -0.05209446 C70.8903174 -0.05268965 71.71438782 -0.05328484 72.56343007 -0.05389806 C74.23752255 -0.05510981 75.91161503 -0.05632395 77.58570751 -0.05754044 C93.28911159 -0.06841935 108.99249421 -0.06625199 124.69589951 -0.06015559 C139.05882599 -0.0549877 153.42168462 -0.06623788 167.78459767 -0.08525381 C182.53372287 -0.10463128 197.28281598 -0.11288827 212.03195399 -0.10913056 C220.31190262 -0.10721817 228.59179351 -0.1097096 236.87173176 -0.1238451 C243.92161305 -0.13575881 250.97140109 -0.13716402 258.02128366 -0.12505493 C261.61721828 -0.11916578 265.21298234 -0.11806765 268.8089056 -0.13005733 C272.70985758 -0.14291269 276.6105511 -0.13245225 280.51150799 -0.11974621 C281.64429725 -0.12712049 282.77708651 -0.13449478 283.94420272 -0.14209253 C291.97469104 -0.08702331 298.75907672 0.91939825 305.00313091 6.44197559 C305.93899029 7.23668262 305.93899029 7.23668262 306.89375591 8.04744434 C311.90896568 14.0003719 313.34735467 19.72468143 313.27070904 27.37337208 C313.28122295 28.68480183 313.28122295 28.68480183 313.29194927 30.02272511 C313.30944336 32.89067039 313.29793616 35.75761536 313.28438091 38.62556934 C313.28707854 40.63281918 313.29096321 42.64006773 313.29597759 44.64731312 C313.30186123 48.8460028 313.29334711 53.04435112 313.27461529 57.24300098 C313.25184135 62.60728109 313.2649464 67.97075987 313.28890514 73.33501053 C313.30340634 77.47790966 313.29873708 81.62062097 313.28839397 85.76352596 C313.28573786 87.74055102 313.28895691 89.71759349 313.29831219 91.6945982 C313.30854754 94.46558181 313.29287921 97.23529484 313.27070904 100.00618458 C313.27880596 100.81217594 313.28690289 101.6181673 313.29524517 102.44858265 C313.19216924 109.45323632 311.12420493 115.38376676 306.63984966 120.81306934 C305.91410748 121.43310841 305.18836529 122.05314747 304.44063091 122.69197559 C303.36361919 123.6491045 303.36361919 123.6491045 302.26484966 124.62556934 C295.57764509 128.96237231 288.35574263 128.54294828 280.65194988 128.52190113 C279.43471483 128.52643224 278.21747978 128.53096336 276.96335882 128.53563178 C273.59687916 128.54608171 270.2306136 128.54760513 266.864133 128.54524302 C263.22874342 128.54483406 259.59338544 128.55588145 255.95801067 128.56535816 C248.84084667 128.5819506 241.7237158 128.58746687 234.60653407 128.58858292 C228.82110471 128.58953403 223.03568626 128.59364749 217.25026035 128.59998417 C200.84155369 128.61759022 184.43287317 128.6268238 168.024157 128.62532322 C167.14009192 128.62524331 166.25602685 128.6251634 165.34517193 128.62508106 C164.46002572 128.6249993 163.57487951 128.62491754 162.66291069 128.6248333 C148.31302643 128.62402013 133.96324706 128.64316727 119.61339314 128.6713578 C104.87324366 128.7000863 90.13314535 128.71389817 75.39296716 128.71217024 C67.11973287 128.71150643 58.84660861 128.71699527 50.57339954 128.73852634 C43.53086809 128.7567375 36.48849657 128.76108591 29.44595177 128.7475075 C25.8540024 128.74097802 22.26235989 128.74085962 18.67043972 128.758214 C14.77391631 128.77684631 10.87784082 128.76438991 6.98129559 128.74895191 C5.84987056 128.75923904 4.71844554 128.76952616 3.55273491 128.78012502 C-4.33038601 128.7110498 -9.58496756 127.39906088 -15.70780659 122.14119434 C-16.65526752 121.05258106 -16.65526752 121.05258106 -17.62186909 119.94197559 C-18.26897846 119.22396778 -18.91608784 118.50595997 -19.58280659 117.76619434 C-23.38280922 112.03050961 -23.54490942 105.98805162 -23.53739643 99.32503223 C-23.54411366 98.45903904 -23.55083088 97.59304585 -23.55775166 96.70081043 C-23.57665559 93.85535825 -23.58065167 91.0101428 -23.58280659 88.16463184 C-23.58923865 86.17597833 -23.59596731 84.18732576 -23.60297871 82.1986742 C-23.61493161 78.03699519 -23.61866146 73.87539907 -23.61747456 69.71370411 C-23.61727122 64.39307288 -23.64459778 59.07297487 -23.67901897 53.75247002 C-23.70130217 49.64739021 -23.70531169 45.54243859 -23.7042551 41.4373045 C-23.70660797 39.47618169 -23.71541372 37.51505519 -23.73091984 35.55399227 C-23.75061323 32.80672327 -23.74472929 30.06060272 -23.73270893 27.31331348 C-23.74956745 26.11060307 -23.74956745 26.11060307 -23.76676655 24.88359547 C-23.6912951 18.06285213 -21.59723954 12.90337253 -17.06327534 7.79353809 C-15.94759174 6.84607716 -15.94759174 6.84607716 -14.80936909 5.87947559 C-14.06815815 5.23236622 -13.32694721 4.58525684 -12.56327534 3.91853809 C-8.50853466 1.00568897 -4.96279653 0.00478482 0 0 Z M-5.43955898 18.55531597 C-7.87033202 22.18559747 -7.9349882 25.31975356 -7.86210346 29.54549122 C-7.86765247 30.36724339 -7.87320148 31.18899555 -7.87891865 32.0356493 C-7.89070325 34.74460637 -7.86645285 37.45188621 -7.84061909 40.16072559 C-7.83890759 42.0473215 -7.83897407 43.93391978 -7.84074116 45.82051563 C-7.83908859 49.77155321 -7.82040226 53.72202295 -7.78886127 57.67293262 C-7.74918392 62.73383032 -7.74481644 67.79398441 -7.7523241 72.85500813 C-7.75539572 76.74984501 -7.74326645 80.64451516 -7.72619343 84.53931141 C-7.71916918 86.40519636 -7.7160382 88.2711002 -7.71688557 90.13699818 C-7.71508498 92.74616523 -7.69368125 95.35444639 -7.66679096 97.96345997 C-7.66972157 98.73244114 -7.67265217 99.50142231 -7.67567158 100.29370594 C-7.60454335 104.7736166 -7.02959309 107.69623486 -4.24686909 111.25447559 C-1.78844765 112.48368631 -0.18875733 112.38203716 2.5611496 112.38590336 C3.5826831 112.3897445 4.60421661 112.39358565 5.65670568 112.39754319 C6.78751725 112.39667671 7.91832882 112.39581023 9.0834074 112.39491749 C10.27806926 112.39788861 11.47273113 112.40085973 12.70359486 112.40392089 C16.03010005 112.41111668 19.35655362 112.41378141 22.68306291 112.41451836 C26.26666653 112.41636596 29.85025888 112.42391181 33.43385601 112.43065357 C41.27473078 112.44424965 49.11560044 112.45026362 56.95648503 112.45466423 C61.85016473 112.45742456 66.74384244 112.46166154 71.63752079 112.4661684 C85.18024636 112.47836285 98.72297035 112.48866174 112.26570129 112.4920435 C113.13288334 112.49226306 114.00006538 112.49248263 114.89352567 112.49270885 C115.76281194 112.49292712 116.6320982 112.4931454 117.52772647 112.49337029 C119.28930334 112.49381376 121.05088021 112.49426033 122.81245708 112.49470997 C123.68626466 112.4949314 124.56007223 112.49515283 125.46035882 112.49538097 C139.62180382 112.49932967 153.78319737 112.51678509 167.94462249 112.54006949 C182.47554147 112.56376903 197.00643462 112.57624471 211.53737324 112.57741141 C219.69934589 112.57832898 227.86125154 112.58410161 236.02320576 112.60223103 C242.97296156 112.6176132 249.92262966 112.62276367 256.87239925 112.61449292 C260.41934039 112.61057966 263.96610481 112.61154868 267.51302433 112.62555027 C271.35606088 112.64058226 275.19884718 112.63244263 279.0419035 112.62196827 C280.1660229 112.63002467 281.2901423 112.63808108 282.44832593 112.64638162 C283.99236105 112.63649685 283.99236105 112.63649685 285.56758881 112.62641239 C286.89821137 112.62730802 286.89821137 112.62730802 288.25571519 112.62822175 C291.36374118 112.16309584 293.24124307 111.12206517 295.75313091 109.25447559 C296.99566305 105.52687919 296.90868258 102.05768679 296.91426373 98.17464161 C296.91922863 97.3515752 296.92419353 96.5285088 296.92930889 95.68050098 C296.94391998 92.95645279 296.95073005 90.23246279 296.95625591 87.50838184 C296.96200735 85.61653104 296.96776509 83.72468025 296.97352886 81.83282948 C296.98403524 77.86587216 296.98988058 73.8989351 296.99336529 69.93196583 C296.99885535 64.84633894 297.02289582 59.76097907 297.05133724 54.67543602 C297.06994881 50.76782921 297.07516839 46.86028698 297.07670116 42.95263958 C297.07973056 41.07752933 297.08776874 39.20242029 297.10088634 37.32735348 C297.1179192 34.70592924 297.11607369 32.08516105 297.10957623 29.46370411 C297.11879101 28.68798557 297.12800579 27.91226704 297.13749981 27.11304188 C297.11269964 23.9229691 296.95870025 21.6318893 295.41835308 18.80389881 C292.49508259 16.0839115 289.62250385 16.12745592 285.8220644 16.1174612 C284.79853984 16.11238666 283.77501529 16.10731212 282.72047484 16.1020838 C281.02862675 16.10133717 281.02862675 16.10133717 279.30259991 16.10057545 C277.50932548 16.09400207 277.50932548 16.09400207 275.67982328 16.08729589 C272.35558147 16.07622616 269.03138675 16.0696819 265.70713329 16.06511474 C262.12422515 16.05915899 258.54133436 16.04754928 254.95843792 16.03682423 C246.30405531 16.01230285 237.64966695 15.99767515 228.9952603 15.98476416 C226.55172648 15.98105257 224.10819323 15.97707933 221.66465998 15.97301149 C206.49592211 15.94777957 191.32718336 15.92572301 176.15842915 15.91328335 C172.64507449 15.91035359 169.13171987 15.90739193 165.61836529 15.90437794 C164.74512322 15.90363189 163.87188114 15.90288584 162.97217719 15.90211718 C148.81722472 15.88945583 134.66239764 15.85622175 120.50750382 15.8145761 C105.98107444 15.77218689 91.45470933 15.74859197 76.92821825 15.74336278 C68.7695568 15.73994566 60.61109146 15.7281548 52.45249081 15.69526005 C45.5063822 15.66729994 38.5605099 15.65624241 31.61434938 15.66745551 C28.06930377 15.67265228 24.52475334 15.66969044 20.97977924 15.64498997 C17.13885974 15.61845027 13.29862015 15.63052304 9.4576292 15.64647388 C8.33419192 15.6325918 7.21075464 15.61870971 6.0532738 15.60440695 C-0.1143728 15.64928889 -0.1143728 15.64928889 -5.43955898 18.55531597 Z " fill="#000000" transform="translate(55.24686908721924,87.7455244064331)"/>
<path d="M0 0 C0.94101563 0.00322266 1.88203125 0.00644531 2.8515625 0.00976562 C3.83640625 0.01814453 4.82125 0.02652344 5.8359375 0.03515625 C6.82851562 0.03966797 7.82109375 0.04417969 8.84375 0.04882812 C11.2995391 0.0606348 13.75520854 0.07710225 16.2109375 0.09765625 C12.14799464 5.61987046 7.91233929 10.95708303 3.5234375 16.22265625 C-1.04805983 21.74543019 -5.59058582 27.28761911 -10.0390625 32.91015625 C-10.71908325 33.762146 -10.71908325 33.762146 -11.4128418 34.63134766 C-15.44714854 39.76111368 -17.07816323 42.76466112 -17.1015625 49.34765625 C-17.11832031 50.4253125 -17.13507813 51.50296875 -17.15234375 52.61328125 C-16.70678181 56.88684304 -15.42900856 60.13409269 -13.7890625 64.09765625 C-15.22572266 64.1116748 -15.22572266 64.1116748 -16.69140625 64.12597656 C-20.27763746 64.16613962 -23.86303429 64.2319675 -27.44873047 64.30517578 C-28.99451907 64.33323412 -30.54044711 64.35452331 -32.08642578 64.36865234 C-45.55923098 64.43666237 -45.55923098 64.43666237 -57.03125 71.0625 C-57.57007813 71.71347656 -58.10890625 72.36445312 -58.6640625 73.03515625 C-59.21835937 73.68355469 -59.77265625 74.33195312 -60.34375 75 C-63.83436232 80.06610491 -64.08208493 84.78822695 -64.0637207 90.80004883 C-64.06883163 91.66574997 -64.07394257 92.53145111 -64.07920837 93.42338562 C-64.09308591 96.27972364 -64.09214868 99.13581981 -64.08984375 101.9921875 C-64.09373229 103.98369943 -64.09806729 105.97521054 -64.10282898 107.96672058 C-64.11028769 112.14035734 -64.11000287 116.31390951 -64.10473633 120.48754883 C-64.0989487 125.82384683 -64.1158574 131.15979696 -64.139081 136.49603748 C-64.15384841 140.60969553 -64.15468583 144.72327044 -64.15157127 148.8369503 C-64.15208319 150.80364355 -64.15729645 152.7703416 -64.16738319 154.73700905 C-64.17978563 157.49392576 -64.17293267 160.25017325 -64.16137695 163.00708008 C-64.16902069 163.81202911 -64.17666443 164.61697815 -64.18453979 165.44631958 C-64.12232829 172.196201 -62.63903399 178.59511045 -58.1015625 183.84765625 C-57.66457031 184.37875 -57.22757813 184.90984375 -56.77734375 185.45703125 C-49.74130846 191.2627971 -43.3635596 191.67357805 -34.56762695 191.59886169 C-33.34953748 191.60439609 -32.131448 191.60993049 -30.87644672 191.61563259 C-27.51197127 191.62685759 -24.14840439 191.62023763 -20.78399897 191.60589588 C-17.14930114 191.59476044 -13.51466793 191.60673716 -9.87997437 191.61573792 C-2.76623262 191.62965494 4.34733134 191.62212561 11.46106458 191.60706233 C19.7489672 191.59018233 28.03682578 191.59341501 36.32474029 191.59715641 C51.11464139 191.60303218 65.90445729 191.58887456 80.69433594 191.56420898 C95.03876946 191.54028905 109.38308917 191.53320509 123.72753906 191.54370117 C139.35563432 191.55511606 154.98367696 191.55703338 170.61177158 191.54260308 C172.27891095 191.54107727 173.94605032 191.53955691 175.6131897 191.53804207 C176.43340896 191.53728425 177.25362822 191.53652644 178.09870261 191.53574566 C183.87288775 191.53100725 189.64704936 191.53285113 195.42123413 191.53710747 C202.46007673 191.54203927 209.49881183 191.53602688 216.53762984 191.51621317 C220.1275005 191.50635622 223.71720762 191.50121869 227.30708694 191.50910568 C231.20132884 191.51748618 235.09528465 191.5025538 238.98950195 191.4853363 C240.12024486 191.49134635 241.25098776 191.49735639 242.4159956 191.50354856 C250.99637771 191.43451644 258.13622731 190.06867098 264.54889679 183.95996761 C269.69766218 178.19079227 270.8035465 171.31815733 270.72851562 163.84936523 C270.7355249 162.97332642 270.74253418 162.0972876 270.74975586 161.19470215 C270.76721948 158.32738619 270.7557558 155.46107425 270.7421875 152.59375 C270.74488552 150.58553378 270.74877051 148.57731883 270.75378418 146.56910706 C270.75966327 142.37219738 270.75116666 138.17562953 270.73242188 133.97875977 C270.70961868 128.61328941 270.72277439 123.24861891 270.74671173 117.88317776 C270.7612001 113.74032111 270.75655002 109.59765258 270.74620056 105.45479012 C270.74354245 103.47693854 270.74677065 101.49906959 270.75611877 99.52123833 C270.7663362 96.75255268 270.75071181 93.98514386 270.72851562 91.21655273 C270.74066101 90.00452934 270.74066101 90.00452934 270.75305176 88.76802063 C270.66794756 83.00593464 269.1122528 79.03640962 266.2109375 74.09765625 C265.8809375 73.43765625 265.5509375 72.77765625 265.2109375 72.09765625 C266.97790593 71.82166118 268.74989965 71.5776871 270.5234375 71.34765625 C272.00263672 71.13882813 272.00263672 71.13882813 273.51171875 70.92578125 C276.2109375 71.09765625 276.2109375 71.09765625 277.85709095 72.77225113 C279.48828547 75.57403696 279.58112397 77.24709347 279.57170105 80.47601318 C279.57788704 82.11239998 279.57788704 82.11239998 279.584198 83.78184509 C279.57341217 84.97370926 279.56262634 86.16557343 279.55151367 87.39355469 C279.55195175 88.6523494 279.55238983 89.9111441 279.55284119 91.20808411 C279.55370172 94.65621306 279.53606683 98.10402875 279.51511931 101.55208492 C279.4963621 105.15687915 279.49460283 108.76168061 279.49104309 112.36651611 C279.4817198 119.19110904 279.45710224 126.01555775 279.42699462 132.84008718 C279.39345941 140.61026566 279.37696683 148.38045104 279.36190832 156.15068388 C279.33055287 172.13309152 279.27778693 188.11535528 279.2109375 204.09765625 C278.12699707 204.5551123 277.04305664 205.01256836 275.92626953 205.48388672 C274.48195472 206.10220833 273.03778944 206.72087931 271.59375 207.33984375 C270.8819458 207.63914795 270.1701416 207.93845215 269.43676758 208.24682617 C262.96117125 211.03694255 257.68438324 214.63396688 252.2109375 219.09765625 C251.60765625 219.57332031 251.004375 220.04898438 250.3828125 220.5390625 C247.98117818 222.47371237 245.80346282 224.51506934 243.6484375 226.72265625 C239.69813908 230.57166496 236.93657669 232.28433645 231.3984375 232.59765625 C225.99539293 232.42855948 222.23692292 230.65775253 218.2109375 227.09765625 C217.58703125 226.30488281 216.963125 225.51210937 216.3203125 224.6953125 C205.65081779 211.55602734 186.64129545 203.69499525 170.2109375 201.09765625 C148.8802284 199.03160318 128.00707513 203.65831961 110.87109375 216.83984375 C107.27042181 219.89592067 103.79553262 223.08830186 100.44433594 226.41699219 C96.21820041 230.49669197 92.49903384 231.89336193 86.7109375 232.41015625 C81.15814614 231.91437131 77.87507456 229.91738589 74.0859375 225.97265625 C61.66768422 213.09245482 46.42735271 205.91440623 29.2109375 202.09765625 C28.41300781 201.90171875 27.61507812 201.70578125 26.79296875 201.50390625 C20.38298394 200.49537611 13.68662304 200.95970305 7.2109375 201.09765625 C6.35757813 201.11441406 5.50421875 201.13117188 4.625 201.1484375 C-13.38001824 202.35567052 -31.50519164 213.32915925 -43.7890625 226.09765625 C-63.77423017 249.01922622 -64.5033262 275.32942983 -64.7890625 304.09765625 C-67.4290625 304.42765625 -70.0690625 304.75765625 -72.7890625 305.09765625 C-72.99453843 275.96740308 -73.1537328 246.83722084 -73.24865047 217.70638738 C-73.25990633 214.26438076 -73.27155528 210.82237557 -73.28344727 207.38037109 C-73.28580806 206.6951528 -73.28816885 206.00993451 -73.29060119 205.30395202 C-73.32972418 194.22039095 -73.40066311 183.13725158 -73.48343766 172.05394037 C-73.56771141 160.67467386 -73.61694105 149.29571923 -73.63585895 137.91612089 C-73.64758508 131.52699974 -73.67511228 125.13883383 -73.74063301 118.75001907 C-73.80183585 112.73334619 -73.82054371 106.71801967 -73.80703163 100.70106506 C-73.80950258 98.49598746 -73.82733915 96.2908637 -73.86191177 94.08605576 C-74.14115375 75.35519012 -74.14115375 75.35519012 -68.43614197 68.9493103 C-66.9161326 67.63120012 -65.36899519 66.34331095 -63.7890625 65.09765625 C-62.63603374 63.83094695 -61.50529067 62.54297775 -60.4140625 61.22265625 C-56.96054689 57.25512901 -53.3990231 53.38917985 -49.83642578 49.52001953 C-47.28380487 46.74306943 -44.75938045 43.94802312 -42.2890625 41.09765625 C-39.3506224 37.70714845 -36.32792108 34.39796595 -33.2890625 31.09765625 C-29.67189627 27.16886473 -26.10567358 23.20475793 -22.609375 19.16796875 C-19.5012043 15.63292482 -16.30603814 12.17675888 -13.12109375 8.7109375 C-11.56285219 6.96476731 -10.05908383 5.16847334 -8.61328125 3.328125 C-5.8635728 -0.03393823 -4.17409964 -0.02514518 0 0 Z " fill="#80B2FA" transform="translate(96.7890625,23.90234375)"/>
<path d="M0 0 C0.76910452 -0.00666801 1.53820904 -0.01333602 2.33061975 -0.02020609 C4.91736538 -0.03649667 7.50260925 -0.01703909 10.08931732 0.00215912 C11.95860983 -0.00216828 13.82789835 -0.00868281 15.69717646 -0.01720095 C20.84130959 -0.03423674 25.98495796 -0.01998032 31.12906575 -0.00068617 C36.67379369 0.01470763 42.21846094 0.00134755 47.76319122 -0.00843048 C58.62823913 -0.02297672 69.49310055 -0.01070315 80.35813081 0.01068276 C93.00348294 0.0346618 105.64879204 0.0329803 118.29416186 0.03037685 C141.53442886 0.02657277 164.77459118 0.04953656 188.01482204 0.08472433 C209.23624803 0.11671829 230.4575901 0.128768 251.679039 0.12264252 C253.04163331 0.12225567 254.40422761 0.12186922 255.76682192 0.12148315 C256.44045847 0.1212918 257.11409501 0.12110046 257.80814478 0.12090331 C261.19905167 0.11994899 264.58995857 0.11903462 267.98086548 0.11816406 C268.64982078 0.11799027 269.31877609 0.11781647 270.00800276 0.11763741 C287.73368633 0.11328346 305.45936153 0.12337101 323.18503904 0.13800192 C325.07469669 0.13956115 325.07469669 0.13956115 327.00252923 0.14115188 C329.53291413 0.14324282 332.06329901 0.14535379 334.59368387 0.14748505 C343.41395301 0.15438807 352.23421023 0.15504872 361.05448151 0.1536026 C371.79936553 0.15216464 382.54417409 0.16182188 393.28903306 0.18554896 C398.77413999 0.19742975 404.25914157 0.20452029 409.74426079 0.1987114 C414.76152325 0.19355487 419.77856278 0.20217353 424.79578704 0.221986 C426.61468548 0.22674151 428.43360552 0.22640584 430.25250083 0.22057563 C432.7179741 0.21343418 435.18270055 0.22461097 437.64811707 0.24050903 C438.36032124 0.23405723 439.07252542 0.22760543 439.80631155 0.22095811 C444.13610228 0.27364776 446.87616368 0.97315131 450.32405853 3.62361908 C451.7286359 6.43277382 451.57301011 8.51172442 451.32405853 11.62361908 C449.54421449 14.75953478 448.80097646 15.46464644 445.32405853 16.62361908 C442.83814591 16.72236576 440.38025954 16.76478385 437.89421272 16.76063347 C437.12741589 16.7632853 436.36061906 16.76593712 435.57058597 16.76866931 C432.98014805 16.77637858 430.38975741 16.7769221 427.79930878 16.77751923 C425.93174758 16.78153275 424.06418725 16.78597079 422.19662797 16.79079878 C417.04814678 16.80278195 411.89967497 16.80841674 406.75118256 16.81297994 C401.2050693 16.81892925 395.65896731 16.83054059 390.11286163 16.84127045 C376.71241992 16.86580706 363.31197447 16.88042201 349.9115172 16.89333051 C346.12893577 16.89704107 342.3463547 16.90101439 338.56377363 16.90508318 C315.09089565 16.93031467 291.6180167 16.95239099 268.14512825 16.96481133 C262.70672478 16.96773272 257.26832133 16.97070023 251.82991791 16.97371674 C251.15425662 16.97408764 250.47859534 16.97445855 249.78245947 16.9748407 C227.86609854 16.98700162 205.94981782 17.01795519 184.03349458 17.05963826 C160.87046995 17.10361225 137.70749093 17.12934205 114.54441869 17.13473189 C101.91447922 17.13815118 89.28466635 17.14996756 76.65476608 17.18283463 C65.90250784 17.21076919 55.15040213 17.22186344 44.3981104 17.21063916 C38.90887594 17.20543592 33.41996125 17.2084472 27.93077278 17.23310471 C22.90963574 17.25547227 17.88905049 17.25495516 12.86790459 17.23590083 C11.04758682 17.23308323 9.22723262 17.23879615 7.40697379 17.25371377 C4.93916537 17.27270817 2.47334732 17.26110888 0.00558662 17.24165154 C-0.70718925 17.25450076 -1.41996512 17.26734998 -2.15434027 17.28058857 C-5.98915602 17.21379262 -7.58217369 16.69857912 -10.61697447 14.27249205 C-12.67594147 11.62361908 -12.67594147 11.62361908 -13.30094147 8.62361908 C-11.79626674 1.4011804 -6.64336696 -0.11452349 0 0 Z " fill="#F5F7FE" transform="translate(36.675941467285156,343.37638092041016)"/>
<path d="M0 0 C0.94101563 0.00322266 1.88203125 0.00644531 2.8515625 0.00976562 C3.83640625 0.01814453 4.82125 0.02652344 5.8359375 0.03515625 C6.82851562 0.03966797 7.82109375 0.04417969 8.84375 0.04882812 C11.2995391 0.0606348 13.75520854 0.07710225 16.2109375 0.09765625 C12.14799464 5.61987046 7.91233929 10.95708303 3.5234375 16.22265625 C-1.04805983 21.74543019 -5.59058582 27.28761911 -10.0390625 32.91015625 C-10.71908325 33.762146 -10.71908325 33.762146 -11.4128418 34.63134766 C-15.44714854 39.76111368 -17.07816323 42.76466112 -17.1015625 49.34765625 C-17.11832031 50.4253125 -17.13507813 51.50296875 -17.15234375 52.61328125 C-16.70678181 56.88684304 -15.42900856 60.13409269 -13.7890625 64.09765625 C-15.22572266 64.1116748 -15.22572266 64.1116748 -16.69140625 64.12597656 C-20.27763746 64.16613962 -23.86303429 64.2319675 -27.44873047 64.30517578 C-28.99451907 64.33323412 -30.54044711 64.35452331 -32.08642578 64.36865234 C-45.55923098 64.43666237 -45.55923098 64.43666237 -57.03125 71.0625 C-57.57007813 71.71347656 -58.10890625 72.36445312 -58.6640625 73.03515625 C-59.21835937 73.68355469 -59.77265625 74.33195312 -60.34375 75 C-63.83436232 80.06610491 -64.08208493 84.78822695 -64.0637207 90.80004883 C-64.06883163 91.66574997 -64.07394257 92.53145111 -64.07920837 93.42338562 C-64.09308591 96.27972364 -64.09214868 99.13581981 -64.08984375 101.9921875 C-64.09373229 103.98369943 -64.09806729 105.97521054 -64.10282898 107.96672058 C-64.11028769 112.14035734 -64.11000287 116.31390951 -64.10473633 120.48754883 C-64.0989487 125.82384683 -64.1158574 131.15979696 -64.139081 136.49603748 C-64.15384841 140.60969553 -64.15468583 144.72327044 -64.15157127 148.8369503 C-64.15208319 150.80364355 -64.15729645 152.7703416 -64.16738319 154.73700905 C-64.17978563 157.49392576 -64.17293267 160.25017325 -64.16137695 163.00708008 C-64.16902069 163.81202911 -64.17666443 164.61697815 -64.18453979 165.44631958 C-64.12189224 172.24351228 -62.739085 178.06424768 -58.14306641 183.30200195 C-54.44288765 188.22814355 -55.07392776 193.90890275 -55.125 199.828125 C-55.12021637 201.05493484 -55.11543274 202.28174469 -55.11050415 203.54573059 C-55.10710878 206.13702682 -55.11628548 208.72836609 -55.13720703 211.31958008 C-55.16385868 215.25506014 -55.13750185 219.18765784 -55.10546875 223.12304688 C-55.10877515 225.64974581 -55.11518612 228.17644296 -55.125 230.703125 C-55.11487885 231.86603561 -55.10475769 233.02894623 -55.09432983 234.22709656 C-55.19661987 241.4810288 -56.55128596 246.89979244 -59.58642578 253.48500061 C-64.52166949 264.2065195 -64.30531599 276.40427686 -64.4765625 287.97265625 C-64.50983949 289.54690144 -64.54433814 291.1211213 -64.58007812 292.6953125 C-64.66376887 296.49595022 -64.73112064 300.29654241 -64.7890625 304.09765625 C-67.4290625 304.42765625 -70.0690625 304.75765625 -72.7890625 305.09765625 C-72.99453843 275.96740308 -73.1537328 246.83722084 -73.24865047 217.70638738 C-73.25990633 214.26438076 -73.27155528 210.82237557 -73.28344727 207.38037109 C-73.28580806 206.6951528 -73.28816885 206.00993451 -73.29060119 205.30395202 C-73.32972418 194.22039095 -73.40066311 183.13725158 -73.48343766 172.05394037 C-73.56771141 160.67467386 -73.61694105 149.29571923 -73.63585895 137.91612089 C-73.64758508 131.52699974 -73.67511228 125.13883383 -73.74063301 118.75001907 C-73.80183585 112.73334619 -73.82054371 106.71801967 -73.80703163 100.70106506 C-73.80950258 98.49598746 -73.82733915 96.2908637 -73.86191177 94.08605576 C-74.14115375 75.35519012 -74.14115375 75.35519012 -68.43614197 68.9493103 C-66.9161326 67.63120012 -65.36899519 66.34331095 -63.7890625 65.09765625 C-62.63603374 63.83094695 -61.50529067 62.54297775 -60.4140625 61.22265625 C-56.96054689 57.25512901 -53.3990231 53.38917985 -49.83642578 49.52001953 C-47.28380487 46.74306943 -44.75938045 43.94802312 -42.2890625 41.09765625 C-39.3506224 37.70714845 -36.32792108 34.39796595 -33.2890625 31.09765625 C-29.67189627 27.16886473 -26.10567358 23.20475793 -22.609375 19.16796875 C-19.5012043 15.63292482 -16.30603814 12.17675888 -13.12109375 8.7109375 C-11.56285219 6.96476731 -10.05908383 5.16847334 -8.61328125 3.328125 C-5.8635728 -0.03393823 -4.17409964 -0.02514518 0 0 Z " fill="#538FF3" transform="translate(96.7890625,23.90234375)"/>
<path d="M0 0 C0.91330078 0.00708984 1.82660156 0.01417969 2.76757812 0.02148438 C3.70923828 0.05435547 4.65089844 0.08722656 5.62109375 0.12109375 C7.03938477 0.12979492 7.03938477 0.12979492 8.48632812 0.13867188 C16.48812089 0.28004631 16.48812089 0.28004631 20.05859375 2.55859375 C22.25206767 5.84880463 22.80440135 8.1981686 23.64672852 12.04614258 C23.79171783 12.7001857 23.93670715 13.35422882 24.08609009 14.02809143 C24.56354416 16.18930094 25.03185469 18.35238168 25.5 20.515625 C25.83053617 22.0216531 26.16159334 23.52756694 26.4931488 25.03337097 C27.18702785 28.19077126 27.87678051 31.34903341 28.56323242 34.50805664 C29.44102533 38.54754836 30.32558 42.58551762 31.21281528 46.62294483 C32.06074296 50.48252388 32.90560775 54.34277117 33.75 58.203125 C33.91039827 58.93554728 34.07079655 59.66796955 34.23605537 60.42258644 C34.69231204 62.50898779 35.1464356 64.59584145 35.59985352 66.68286133 C35.85807388 67.86850174 36.11629425 69.05414215 36.38233948 70.27571106 C37.01796329 73.36135282 37.56375481 76.4475892 38.05859375 79.55859375 C36.33052057 79.89755031 34.60107401 80.229509 32.87109375 80.55859375 C31.90816406 80.74421875 30.94523437 80.92984375 29.953125 81.12109375 C27.26517315 81.52736987 24.77088356 81.63792947 22.05859375 81.55859375 C21.55313339 79.47657847 21.0544254 77.39292308 20.55859375 75.30859375 C20.28015625 74.1484375 20.00171875 72.98828125 19.71484375 71.79296875 C19.05859375 68.55859375 19.05859375 68.55859375 19.05859375 64.55859375 C10.47859375 64.55859375 1.89859375 64.55859375 -6.94140625 64.55859375 C-7.27140625 67.52859375 -7.60140625 70.49859375 -7.94140625 73.55859375 C-8.49447924 76.27551434 -9.21104941 78.88061865 -9.94140625 81.55859375 C-15.21455958 81.11330525 -19.95910849 80.47486212 -24.94140625 78.55859375 C-24.23779815 70.52080273 -22.64240604 62.7376183 -20.95703125 54.85546875 C-20.8097332 54.16387917 -20.66243515 53.47228958 -20.51067352 52.75974274 C-19.7322832 49.10882366 -18.94801472 45.45922271 -18.15917969 41.81054688 C-17.34878963 38.055862 -16.56027275 34.29692269 -15.776371 30.53663254 C-15.16592583 27.62906166 -14.53890469 24.7252444 -13.90740204 21.8221817 C-13.60930862 20.43770944 -13.31748711 19.05187054 -13.03223419 17.66469574 C-12.63193152 15.72553188 -12.20562347 13.79179201 -11.77832031 11.85839844 C-11.54373108 10.75969421 -11.30914185 9.66098999 -11.06744385 8.5289917 C-9.0436919 3.19049443 -5.81706422 -0.09450819 0 0 Z " fill="#010101" transform="translate(193.94140625,111.44140625)"/>
<path d="M0 0 C1.15468025 0.01061211 1.15468025 0.01061211 2.33268738 0.0214386 C4.77879178 0.049312 7.22256259 0.11202988 9.66796875 0.17578125 C11.33134702 0.20087357 12.99476137 0.22368512 14.65820312 0.24414062 C18.72556895 0.29485591 22.78792403 0.39269926 26.85546875 0.48828125 C26.85546875 5.76828125 26.85546875 11.04828125 26.85546875 16.48828125 C18.93546875 16.48828125 11.01546875 16.48828125 2.85546875 16.48828125 C2.85546875 21.76828125 2.85546875 27.04828125 2.85546875 32.48828125 C10.77546875 32.48828125 18.69546875 32.48828125 26.85546875 32.48828125 C26.85546875 37.76828125 26.85546875 43.04828125 26.85546875 48.48828125 C18.93546875 48.48828125 11.01546875 48.48828125 2.85546875 48.48828125 C2.85546875 53.76828125 2.85546875 59.04828125 2.85546875 64.48828125 C10.77546875 64.48828125 18.69546875 64.48828125 26.85546875 64.48828125 C26.85546875 69.76828125 26.85546875 75.04828125 26.85546875 80.48828125 C21.9432349 80.58019415 17.03399123 80.65979968 12.12158203 80.70800781 C10.45123173 80.72810518 8.78095162 80.75538808 7.11083984 80.79003906 C4.70783155 80.83864244 2.30575441 80.86126781 -0.09765625 80.87890625 C-0.84259338 80.89955139 -1.58753052 80.92019653 -2.3550415 80.94146729 C-5.87991897 80.94298772 -7.76246026 80.78565143 -10.58496094 78.58886719 C-13.31985462 74.90523769 -13.2886167 72.58249041 -13.33740234 68.0065918 C-13.34557983 67.34133484 -13.35375732 66.67607788 -13.36218262 65.99066162 C-13.38702819 63.78545024 -13.40355067 61.58030321 -13.41796875 59.375 C-13.42329243 58.6218281 -13.4286161 57.8686562 -13.4341011 57.0926609 C-13.46082957 53.10581098 -13.48020503 49.11899233 -13.49462891 45.13208008 C-13.5112729 41.01593946 -13.55604816 36.90060013 -13.60700035 32.78476238 C-13.64067246 29.61828197 -13.65220619 26.45199174 -13.65785599 23.28534889 C-13.66456909 21.76827689 -13.679793 20.25121743 -13.7037468 18.73431969 C-13.73540319 16.60826911 -13.73543624 14.4843791 -13.72802734 12.3581543 C-13.7361142 11.14951218 -13.74420105 9.94087006 -13.75253296 8.69560242 C-12.29691327 1.01694003 -6.93350727 -0.24186928 0 0 Z " fill="#000000" transform="translate(133.14453125,111.51171875)"/>
<path d="M0 0 C6.05219316 3.04216435 10.96554632 7.64862433 13.20703125 14.109375 C13.69316675 16.78798158 13.97263788 19.39041188 14.20703125 22.109375 C8.92703125 22.109375 3.64703125 22.109375 -1.79296875 22.109375 C-2.78296875 20.129375 -3.77296875 18.149375 -4.79296875 16.109375 C-7.63380516 14.68895679 -9.64774153 14.79485228 -12.79296875 15.109375 C-15.29296875 16.609375 -15.29296875 16.609375 -16.79296875 19.109375 C-17.36878108 22.56424899 -17.24924688 24.32718392 -15.48046875 27.359375 C-12.59895485 29.23570964 -10.89834181 29.53961333 -7.54296875 30.046875 C-0.40421049 31.1414846 3.95739697 33.85974072 9.01953125 38.921875 C13.29090528 45.14587715 15.52466662 51.5172855 14.20703125 59.109375 C11.29822287 67.6548076 6.59952952 72.66909818 -1.16796875 76.984375 C-8.43634467 79.24007787 -14.47363831 78.57234521 -21.4296875 75.5 C-28.20639874 71.51238149 -31.69962095 65.49766135 -33.79296875 58.109375 C-33.79296875 56.789375 -33.79296875 55.469375 -33.79296875 54.109375 C-28.51296875 54.109375 -23.23296875 54.109375 -17.79296875 54.109375 C-16.80296875 56.089375 -15.81296875 58.069375 -14.79296875 60.109375 C-11.95213234 61.52979321 -9.93819597 61.42389772 -6.79296875 61.109375 C-4.29296875 59.609375 -4.29296875 59.609375 -2.79296875 57.109375 C-2.12630208 54.109375 -2.12630208 54.109375 -2.79296875 51.109375 C-5.89415095 47.0545605 -8.53945696 46.53339641 -13.48046875 45.859375 C-20.80801467 44.46256156 -25.04623491 41.82283496 -29.79296875 36.109375 C-33.66470965 29.93878794 -34.62328694 23.29343235 -33.79296875 16.109375 C-31.49577973 8.19358353 -25.49743099 3.55274371 -18.85546875 -0.828125 C-12.47306504 -3.04242833 -6.2751343 -2.32982219 0 0 Z " fill="#020201" transform="translate(273.79296875,113.890625)"/>
<path d="M0 0 C2.14132334 4.23328993 4.2774277 8.4691561 6.40869141 12.70751953 C7.13479257 14.14965065 7.86232665 15.59106122 8.59130859 17.03173828 C9.63754818 19.10001872 10.67864446 21.170817 11.71875 23.2421875 C12.21091003 24.21102371 12.21091003 24.21102371 12.7130127 25.19943237 C15 29.77225659 15 29.77225659 15 32 C15.66 32 16.32 32 17 32 C17.400979 30.70908447 17.400979 30.70908447 17.81005859 29.39208984 C18.99803935 26.00558909 20.422212 22.92856054 22.0390625 19.7265625 C22.61914062 18.57285156 23.19921875 17.41914062 23.796875 16.23046875 C24.40616191 15.02860117 25.01553802 13.82677881 25.625 12.625 C26.24255878 11.39992668 26.85974982 10.1746679 27.4765625 8.94921875 C28.98077167 5.96430368 30.48869122 2.98132497 32 0 C35.84172903 0.70079892 38.83839253 1.75596411 42.3125 3.5625 C43.19550781 4.01753906 44.07851562 4.47257812 44.98828125 4.94140625 C45.65214844 5.29074219 46.31601563 5.64007813 47 6 C45.49535659 11.21729335 43.1282233 15.56286059 40.46484375 20.24609375 C28.63794345 41.68879883 21.77765525 58.33914217 24 83 C18.72 83 13.44 83 8 83 C8.18304688 81.27265625 8.36609375 79.5453125 8.5546875 77.765625 C9.97968492 53.24793033 0.09572927 35.15608733 -11.6716156 14.14305115 C-12.32735313 12.97045494 -12.32735313 12.97045494 -12.99633789 11.77416992 C-13.38414932 11.09045822 -13.77196075 10.40674652 -14.17152405 9.70231628 C-15 8 -15 8 -15 6 C-13.06629769 4.99267601 -11.12789694 3.99436712 -9.1875 3 C-8.10855469 2.443125 -7.02960937 1.88625 -5.91796875 1.3125 C-3 0 -3 0 0 0 Z " fill="#030302" transform="translate(64,109)"/>
<path d="M0 0 C2.97 0.33 5.94 0.66 9 1 C10.73261604 9.82337059 11.89803657 18.66010404 12.97172356 27.58135605 C13.28417131 30.173838 13.60135645 32.76570231 13.91981506 35.35745239 C14.82370033 42.71876115 15.72093764 50.08086489 16.61108398 57.44384766 C17.15861837 61.97008842 17.71298941 66.49545099 18.27142525 71.02035904 C18.48088743 72.72860576 18.68781105 74.437166 18.89198112 76.14605331 C20.99033075 95.27442909 20.99033075 95.27442909 28 113 C24.25014675 113.0871747 20.50055445 113.14045003 16.75 113.1875 C15.15478516 113.22520508 15.15478516 113.22520508 13.52734375 113.26367188 C12.50253906 113.27333984 11.47773437 113.28300781 10.421875 113.29296875 C9.00793457 113.31653442 9.00793457 113.31653442 7.56542969 113.34057617 C4.51774392 112.93597761 3.19419687 112.12489009 1 110 C0.06114757 107.18344272 -0.12366869 105.48939608 -0.12025452 102.57710266 C-0.12162918 101.67266418 -0.12300385 100.76822571 -0.12442017 99.83638 C-0.12082489 98.84663681 -0.11722961 97.85689362 -0.11352539 96.8371582 C-0.11367142 95.79308807 -0.11381744 94.74901794 -0.1139679 93.67330933 C-0.11327018 90.21577897 -0.10548431 86.75830222 -0.09765625 83.30078125 C-0.09579157 80.9061028 -0.0943679 78.51142396 -0.09336853 76.116745 C-0.08954728 69.80877635 -0.07972031 63.50083066 -0.06866455 57.19287109 C-0.05844202 50.75814118 -0.0538691 44.32340756 -0.04882812 37.88867188 C-0.03809772 25.25910449 -0.02102597 12.62955415 0 0 Z " fill="#528DF1" transform="translate(24,375)"/>
<path d="M0 0 C15.84 0 31.68 0 48 0 C48 5.28 48 10.56 48 16 C42.72 16 37.44 16 32 16 C32 37.12 32 58.24 32 80 C26.72 80 21.44 80 16 80 C16 58.88 16 37.76 16 16 C10.72 16 5.44 16 0 16 C0 10.72 0 5.44 0 0 Z " fill="#000000" transform="translate(296,112)"/>
<path d="M0 0 C1.32 0 2.64 0 4 0 C4.99973046 4.23518031 5.99657193 8.47102688 6.99072266 12.70751953 C7.32944362 14.14911334 7.66895819 15.59052092 8.00927734 17.03173828 C8.49784973 19.10140499 8.98357927 21.17172111 9.46875 23.2421875 C9.76201172 24.4885498 10.05527344 25.73491211 10.35742188 27.01904297 C11 30 11 30 11 32 C5.06 32 -0.88 32 -7 32 C-6.21192903 27.97843175 -5.41967727 23.95776336 -4.625 19.9375 C-4.29242188 18.2369043 -4.29242188 18.2369043 -3.953125 16.50195312 C-2.84655146 10.92026602 -1.68836901 5.43591705 0 0 Z " fill="#F0CA5B" transform="translate(198,128)"/>
<path d="M0 0 C2.6796727 4.26762689 2.10791775 8.51504884 1.9375 13.4375 C1.91945313 14.42105469 1.90140625 15.40460938 1.8828125 16.41796875 C1.83574126 18.84213783 1.77000742 21.26432059 1.6875 23.6875 C-0.9525 23.6875 -3.5925 23.6875 -6.3125 23.6875 C-6.33828125 22.7696875 -6.3640625 21.851875 -6.390625 20.90625 C-6.73641757 13.42455613 -7.37419254 8.08724962 -11.3125 1.6875 C-11.6425 1.0275 -11.9725 0.3675 -12.3125 -0.3125 C-10.73370045 -0.58969381 -9.14896933 -0.83324143 -7.5625 -1.0625 C-6.23992187 -1.27132812 -6.23992187 -1.27132812 -4.890625 -1.484375 C-2.3125 -1.3125 -2.3125 -1.3125 0 0 Z " fill="#538EF2" transform="translate(374.3125,96.3125)"/>
</svg>
