<?xml version="1.0" encoding="UTF-8"?>
<svg version="1.1" xmlns="http://www.w3.org/2000/svg" width="162" height="307">
<path d="M0 0 C4.88073592 4.5771877 8.53887433 9.33366496 10.32421875 15.86328125 C10.32421875 17.18328125 10.32421875 18.50328125 10.32421875 19.86328125 C12.96421875 19.86328125 15.60421875 19.86328125 18.32421875 19.86328125 C18.32421875 24.81328125 18.32421875 29.76328125 18.32421875 34.86328125 C17.33421875 34.86328125 16.34421875 34.86328125 15.32421875 34.86328125 C15.32421875 42.12328125 15.32421875 49.38328125 15.32421875 56.86328125 C18.62421875 56.86328125 21.92421875 56.86328125 25.32421875 56.86328125 C25.32421875 60.16328125 25.32421875 63.46328125 25.32421875 66.86328125 C22.02421875 66.86328125 18.72421875 66.86328125 15.32421875 66.86328125 C15.32421875 77.09328125 15.32421875 87.32328125 15.32421875 97.86328125 C18.29421875 98.19328125 21.26421875 98.52328125 24.32421875 98.86328125 C25.44140013 103.33200675 25.32421875 107.25956187 25.32421875 111.86328125 C22.02421875 111.86328125 18.72421875 111.86328125 15.32421875 111.86328125 C15.32421875 143.21328125 15.32421875 174.56328125 15.32421875 206.86328125 C16.64421875 206.86328125 17.96421875 206.86328125 19.32421875 206.86328125 C19.32421875 210.82328125 19.32421875 214.78328125 19.32421875 218.86328125 C21.30421875 218.86328125 23.28421875 218.86328125 25.32421875 218.86328125 C25.36693975 220.5294003 25.36485707 222.1971101 25.32421875 223.86328125 C24.99421875 224.19328125 24.66421875 224.52328125 24.32421875 224.86328125 C22.67421875 224.86328125 21.02421875 224.86328125 19.32421875 224.86328125 C19.32421875 239.38328125 19.32421875 253.90328125 19.32421875 268.86328125 C20.64421875 268.86328125 21.96421875 268.86328125 23.32421875 268.86328125 C23.32421875 271.50328125 23.32421875 274.14328125 23.32421875 276.86328125 C17.94796641 277.7121632 13.67051477 277.86571175 8.32421875 276.86328125 C8.32421875 274.22328125 8.32421875 271.58328125 8.32421875 268.86328125 C9.97421875 268.86328125 11.62421875 268.86328125 13.32421875 268.86328125 C13.32421875 254.34328125 13.32421875 239.82328125 13.32421875 224.86328125 C3.71153581 226.3641346 3.71153581 226.3641346 -1.67578125 231.86328125 C-15.18992242 242.64553152 -33.96510958 245.01403156 -50.67578125 244.86328125 C-51.93648438 244.87359375 -53.1971875 244.88390625 -54.49609375 244.89453125 C-72.26630008 244.43396435 -89.06060344 238.47845906 -101.67578125 225.86328125 C-106.62578125 225.53328125 -111.57578125 225.20328125 -116.67578125 224.86328125 C-116.67578125 239.38328125 -116.67578125 253.90328125 -116.67578125 268.86328125 C-115.35578125 268.86328125 -114.03578125 268.86328125 -112.67578125 268.86328125 C-112.67578125 271.50328125 -112.67578125 274.14328125 -112.67578125 276.86328125 C-114.80015337 277.05776602 -116.92531316 277.24366414 -119.05078125 277.42578125 C-120.23414063 277.53019531 -121.4175 277.63460938 -122.63671875 277.7421875 C-125.67578125 277.86328125 -125.67578125 277.86328125 -127.67578125 276.86328125 C-127.67578125 274.22328125 -127.67578125 271.58328125 -127.67578125 268.86328125 C-125.69578125 268.86328125 -123.71578125 268.86328125 -121.67578125 268.86328125 C-122.17078125 267.37828125 -122.17078125 267.37828125 -122.67578125 265.86328125 C-122.76122416 264.52799318 -122.7935275 263.18884237 -122.78930664 261.85083008 C-122.78923111 261.05022659 -122.78915558 260.24962311 -122.78907776 259.42475891 C-122.78391647 258.5652916 -122.77875519 257.70582428 -122.7734375 256.8203125 C-122.77202255 255.93671555 -122.7706076 255.05311859 -122.76914978 254.14274597 C-122.76355194 251.32038997 -122.75099986 248.49811328 -122.73828125 245.67578125 C-122.73326597 243.76237094 -122.72870311 241.84895938 -122.72460938 239.93554688 C-122.71358322 235.24476111 -122.69632008 230.55403462 -122.67578125 225.86328125 C-124.32578125 225.20328125 -125.97578125 224.54328125 -127.67578125 223.86328125 C-127.34578125 222.21328125 -127.01578125 220.56328125 -126.67578125 218.86328125 C-125.02578125 218.86328125 -123.37578125 218.86328125 -121.67578125 218.86328125 C-121.67578125 215.23328125 -121.67578125 211.60328125 -121.67578125 207.86328125 C-119.69578125 206.87328125 -119.69578125 206.87328125 -117.67578125 205.86328125 C-117.67578125 149.43328125 -117.67578125 93.00328125 -117.67578125 34.86328125 C-119.32578125 34.53328125 -120.97578125 34.20328125 -122.67578125 33.86328125 C-122.70264063 31.71751488 -122.72211213 29.5716548 -122.73828125 27.42578125 C-122.74988281 26.23082031 -122.76148437 25.03585938 -122.7734375 23.8046875 C-122.67578125 20.86328125 -122.67578125 20.86328125 -121.67578125 19.86328125 C-119.82290623 19.79101623 -117.96744247 19.77946905 -116.11328125 19.80078125 C-115.10136719 19.80980469 -114.08945313 19.81882813 -113.046875 19.828125 C-111.87318359 19.84552734 -111.87318359 19.84552734 -110.67578125 19.86328125 C-110.63453125 18.89390625 -110.59328125 17.92453125 -110.55078125 16.92578125 C-109.37427505 9.04000997 -103.3010706 2.73820976 -97.4140625 -2.21875 C-70.49677688 -21.07236946 -25.73217184 -20.54817226 0 0 Z " fill="#ACB2B9" transform="translate(136.67578125,20.13671875)"/>
<path d="M0 0 C50.16 0 100.32 0 152 0 C152 1.65 152 3.3 152 5 C151.67 5.33 151.34 5.66 151 6 C149.35 6 147.7 6 146 6 C146 20.52 146 35.04 146 50 C147.32 50 148.64 50 150 50 C150 52.64 150 55.28 150 58 C144.62374766 58.84888195 140.34629602 59.0024305 135 58 C135 55.36 135 52.72 135 50 C136.65 50 138.3 50 140 50 C140 35.48 140 20.96 140 6 C130.38731706 7.50085335 130.38731706 7.50085335 125 13 C111.48585883 23.78225027 92.71067167 26.15075031 76 26 C74.73929687 26.0103125 73.47859375 26.020625 72.1796875 26.03125 C54.40948117 25.5706831 37.61517781 19.61517781 25 7 C20.05 6.67 15.1 6.34 10 6 C10 20.52 10 35.04 10 50 C11.32 50 12.64 50 14 50 C14 52.64 14 55.28 14 58 C11.87562788 58.19448477 9.75046809 58.38038289 7.625 58.5625 C5.84996094 58.71912109 5.84996094 58.71912109 4.0390625 58.87890625 C1 59 1 59 -1 58 C-1 55.36 -1 52.72 -1 50 C0.98 50 2.96 50 5 50 C4.505 48.515 4.505 48.515 4 47 C3.91455709 45.66471193 3.88225375 44.32556112 3.88647461 42.98754883 C3.88655014 42.18694534 3.88662567 41.38634186 3.88670349 40.56147766 C3.89186478 39.70201035 3.89702606 38.84254303 3.90234375 37.95703125 C3.9037587 37.0734343 3.90517365 36.18983734 3.90663147 35.27946472 C3.91222931 32.45710872 3.92478139 29.63483203 3.9375 26.8125 C3.94251528 24.89908969 3.94707814 22.98567813 3.95117188 21.07226562 C3.96219803 16.38147986 3.97946117 11.69075337 4 7 C1.525 6.01 1.525 6.01 -1 5 C-0.67 3.35 -0.34 1.7 0 0 Z " fill="#B2B7BE" transform="translate(10,239)"/>
<path d="M0 0 C1.42720367 -0.0032856 1.42720367 -0.0032856 2.88323975 -0.00663757 C6.03449029 -0.00895276 9.18481118 0.01733057 12.3359375 0.04418945 C14.52164412 0.04911151 16.70735494 0.05241159 18.89306641 0.05415344 C23.47637364 0.06180067 28.0593694 0.08238337 32.64257812 0.11328125 C38.52412702 0.15285647 44.40547305 0.17088923 50.28713989 0.18059063 C55.88676672 0.1905566 61.48634375 0.21045432 67.0859375 0.23168945 C68.69483856 0.23678308 68.69483856 0.23678308 70.33624268 0.2419796 C73.36484729 0.25353425 76.39332233 0.27205245 79.421875 0.29296875 C80.32274841 0.29565765 81.22362183 0.29834656 82.15179443 0.30111694 C83.38835785 0.3118499 83.38835785 0.3118499 84.64990234 0.32279968 C85.36592621 0.32707316 86.08195007 0.33134665 86.81967163 0.33574963 C88.7109375 0.4699707 88.7109375 0.4699707 91.7109375 1.4699707 C91.76884103 4.76156386 91.80450011 8.05302673 91.8359375 11.3449707 C91.85269531 12.28211914 91.86945313 13.21926758 91.88671875 14.18481445 C91.89316406 15.08071289 91.89960938 15.97661133 91.90625 16.8996582 C91.91672363 17.7270752 91.92719727 18.55449219 91.93798828 19.40698242 C91.7109375 21.4699707 91.7109375 21.4699707 89.7109375 23.4699707 C87.90869141 23.72165298 87.90869141 23.72165298 85.6875 23.72393799 C84.84622559 23.72957764 84.00495117 23.73521729 83.13818359 23.74102783 C82.21344238 23.73697937 81.28870117 23.73293091 80.3359375 23.72875977 C79.36350098 23.7322644 78.39106445 23.73576904 77.38916016 23.73937988 C74.1630141 23.74820872 70.93708593 23.74234395 67.7109375 23.7355957 C65.47656207 23.73694202 63.24218692 23.73888227 61.0078125 23.74139404 C56.32028419 23.74434687 51.63283198 23.74004254 46.9453125 23.73071289 C40.92571962 23.71931831 34.90630508 23.72587693 28.88671875 23.73785782 C24.27147062 23.74507212 19.65626501 23.74279046 15.04101562 23.73760223 C12.82096333 23.73626455 10.60090722 23.73791759 8.38085938 23.74256134 C5.28244746 23.74761949 2.18432757 23.73992629 -0.9140625 23.72875977 C-2.30117432 23.73483246 -2.30117432 23.73483246 -3.71630859 23.74102783 C-4.55758301 23.73538818 -5.39885742 23.72974854 -6.265625 23.72393799 C-7.36511475 23.72280691 -7.36511475 23.72280691 -8.48681641 23.72165298 C-10.2890625 23.4699707 -10.2890625 23.4699707 -12.2890625 21.4699707 C-12.51504398 18.6349303 -12.61333353 15.92943553 -12.6015625 13.0949707 C-12.61767578 12.32668945 -12.63378906 11.5584082 -12.65039062 10.7668457 C-12.65103516 10.02176758 -12.65167969 9.27668945 -12.65234375 8.5090332 C-12.65681519 7.49123779 -12.65681519 7.49123779 -12.66137695 6.45288086 C-11.30324613 -0.78039031 -6.11266618 -0.08691966 0 0 Z " fill="#AEB4BA" transform="translate(45.2890625,173.530029296875)"/>
<path d="M0 0 C2 3 2 3 2 7 C4.64 7 7.28 7 10 7 C10 11.95 10 16.9 10 22 C9.01 22 8.02 22 7 22 C7 29.26 7 36.52 7 44 C6.67 44 6.34 44 6 44 C6 36.41 6 28.82 6 21 C-37.23 21 -80.46 21 -125 21 C-125 77.1 -125 133.2 -125 191 C-125.33 191 -125.66 191 -126 191 C-126 135.23 -126 79.46 -126 22 C-127.65 21.67 -129.3 21.34 -131 21 C-131.02685938 18.85423363 -131.04633088 16.70837355 -131.0625 14.5625 C-131.07410156 13.36753906 -131.08570313 12.17257813 -131.09765625 10.94140625 C-131 8 -131 8 -130 7 C-128.14712498 6.92773498 -126.29166122 6.9161878 -124.4375 6.9375 C-123.42558594 6.94652344 -122.41367188 6.95554687 -121.37109375 6.96484375 C-120.19740234 6.98224609 -120.19740234 6.98224609 -119 7 C-118.67 5.68 -118.34 4.36 -118 3 C-118 4.32 -118 5.64 -118 7 C-78.73 7 -39.46 7 1 7 C0.67 4.69 0.34 2.38 0 0 Z " fill="#C5C9D4" transform="translate(145,33)"/>
<path d="M0 0 C0.71220703 -0.020625 1.42441406 -0.04125 2.15820312 -0.0625 C6.7100022 -0.09618584 9.59614192 0.40877771 13.1875 3.25 C15.51384734 6.73952102 15.45389011 8.16796475 15.49389648 12.29443359 C15.50988388 13.53937592 15.52587128 14.78431824 15.54234314 16.06698608 C15.5487199 17.42746573 15.55411262 18.78795029 15.55859375 20.1484375 C15.5675617 21.5446482 15.57668358 22.94085792 15.58595276 24.33706665 C15.6024409 27.26412286 15.61014246 30.19106473 15.61303711 33.11816406 C15.61841968 36.86331724 15.65609287 40.60739111 15.70178127 44.35223961 C15.73157082 47.23652031 15.73876105 50.12054176 15.73976326 53.00496292 C15.74396223 54.38525967 15.75638393 55.76555742 15.77728081 57.14570236 C15.80422474 59.07920894 15.79625773 61.01310586 15.78686523 62.94677734 C15.79193588 64.0458139 15.79700653 65.14485046 15.80223083 66.27719116 C14.98829149 70.2133628 13.22077307 71.70789404 10.1875 74.25 C7.07262623 75.80743688 3.79174191 75.51686231 0.375 75.5625 C-0.69331055 75.60600586 -0.69331055 75.60600586 -1.78320312 75.65039062 C-5.45839298 75.6945881 -7.57076658 75.40341404 -10.69921875 73.41796875 C-14.34470763 69.6781419 -15.06753218 67.51693229 -15.11889648 62.4050293 C-15.14287758 60.60251961 -15.14287758 60.60251961 -15.16734314 58.76359558 C-15.17270584 57.46360123 -15.17806854 56.16360687 -15.18359375 54.82421875 C-15.19256309 53.47524415 -15.201685 52.12627056 -15.21095276 50.77729797 C-15.22744142 47.94859401 -15.23514232 45.12000835 -15.23803711 42.29125977 C-15.24341421 38.67622376 -15.28106417 35.06230882 -15.32678127 31.44758892 C-15.35661095 28.66020205 -15.36376195 25.87308288 -15.36476326 23.08555031 C-15.37098741 21.10800407 -15.40043391 19.13057477 -15.43028259 17.15324402 C-15.38003829 7.14089119 -15.38003829 7.14089119 -12.40258789 3.44848633 C-8.29063926 -0.04176699 -5.21083387 0.03712081 0 0 Z " fill="#C2C5D1" transform="translate(116.8125,75.75)"/>
<path d="M0 0 C3.63 0 7.26 0 11 0 C11 0.33 11 0.66 11 1 C7.7 1 4.4 1 1 1 C1 32.35 1 63.7 1 96 C2.32 96 3.64 96 5 96 C5 99.96 5 103.92 5 108 C-41.53 108 -88.06 108 -136 108 C-136 104.37 -136 100.74 -136 97 C-131.60916974 95.24366789 -129.87566441 94.75478749 -125.42546082 94.79745483 C-123.76176956 94.80595207 -123.76176956 94.80595207 -122.06446838 94.81462097 C-120.85749802 94.83116226 -119.65052765 94.84770355 -118.40698242 94.86474609 C-117.12853455 94.87420761 -115.85008667 94.88366913 -114.53289795 94.89341736 C-111.03524334 94.91953307 -107.53782748 94.9582008 -104.0403192 94.99914122 C-100.38219265 95.03982083 -96.72397438 95.06893077 -93.06575012 95.09927368 C-86.1420011 95.15845746 -79.21839709 95.22802977 -72.29478484 95.30134451 C-62.93636232 95.39984033 -53.57779913 95.48226851 -44.21923161 95.56560135 C-29.47933833 95.69727515 -14.73974747 95.85039894 0 96 C0 64.32 0 32.64 0 0 Z " fill="#BEC1CD" transform="translate(151,131)"/>
<path d="M0 0 C18.94967972 -0.02335764 37.89935653 -0.04099328 56.84904766 -0.05181217 C65.64766102 -0.05696903 74.44626543 -0.06400014 83.24487305 -0.07543945 C90.91349745 -0.0854049 98.58211537 -0.09185787 106.25074607 -0.09408849 C110.31142053 -0.09539243 114.37207646 -0.09845831 118.43274498 -0.10573006 C122.2551205 -0.11251959 126.07746987 -0.11461097 129.89985085 -0.11310768 C131.3022895 -0.11338269 132.70472904 -0.11537041 134.10716248 -0.11920547 C136.02343614 -0.12418844 137.93972385 -0.12238692 139.85600281 -0.12025452 C141.46407067 -0.12163721 141.46407067 -0.12163721 143.10462475 -0.12304783 C145.84557091 -0.00656294 148.33247537 0.37915249 151 1 C151 1.99 151 2.98 151 4 C149.02 4 147.04 4 145 4 C145 19.51 145 35.02 145 51 C146.32 51 147.64 51 149 51 C149 52.98 149 54.96 149 57 C144.71 57 140.42 57 136 57 C136 55.02 136 53.04 136 51 C137.65 51 139.3 51 141 51 C141 35.82 141 20.64 141 5 C97.44 5 53.88 5 9 5 C9 19.85 9 34.7 9 50 C10.65 50 12.3 50 14 50 C14 52.64 14 55.28 14 58 C11.87562788 58.19448477 9.75046809 58.38038289 7.625 58.5625 C5.84996094 58.71912109 5.84996094 58.71912109 4.0390625 58.87890625 C1 59 1 59 -1 58 C-1 55.36 -1 52.72 -1 50 C0.98 50 2.96 50 5 50 C4.505 48.515 4.505 48.515 4 47 C3.91455709 45.66471193 3.88225375 44.32556112 3.88647461 42.98754883 C3.88655014 42.18694534 3.88662567 41.38634186 3.88670349 40.56147766 C3.89186478 39.70201035 3.89702606 38.84254303 3.90234375 37.95703125 C3.9037587 37.0734343 3.90517365 36.18983734 3.90663147 35.27946472 C3.91222931 32.45710872 3.92478139 29.63483203 3.9375 26.8125 C3.94251528 24.89908969 3.94707814 22.98567813 3.95117188 21.07226562 C3.96219803 16.38147986 3.97946117 11.69075337 4 7 C1.525 6.01 1.525 6.01 -1 5 C-0.67 3.35 -0.34 1.7 0 0 Z " fill="#3F3F41" transform="translate(10,239)"/>
<path d="M0 0 C43.23 0 86.46 0 131 0 C131 3.3 131 6.6 131 10 C120.18072217 10.19380566 109.50601403 9.67317987 98.71850586 8.88909912 C93.82234828 8.5341696 88.92492809 8.19786903 84.02734375 7.86328125 C82.99104828 7.7924231 81.95475281 7.72156494 80.88705444 7.64855957 C65.62090644 6.61982111 50.3407891 5.82205965 35.06225586 5.00268555 C4.92170676 3.38100338 4.92170676 3.38100338 0 2 C0 1.34 0 0.68 0 0 Z " fill="#898F95" transform="translate(20,54)"/>
<path d="M0 0 C19.18213411 -0.69472518 37.52916247 1.91402383 52.94140625 14.37890625 C59.49095561 20.76024888 61.20718197 25.01472898 62 34 C56.06 34 50.12 34 44 34 C43.649375 32.535625 43.29875 31.07125 42.9375 29.5625 C39.67444183 18.91620881 32.60358094 13.10148613 23 8 C15.6647104 4.39608995 7.97163773 2.64930436 0 1 C0 0.67 0 0.34 0 0 Z " fill="#9CA1A6" transform="translate(84,6)"/>
<path d="M0 0 C0.85947739 -0.00419449 1.71895477 -0.00838898 2.60447693 -0.01271057 C3.54432434 -0.00709106 4.48417175 -0.00147156 5.45249939 0.00431824 C6.44458908 0.00241989 7.43667877 0.00052155 8.45883179 -0.00143433 C11.74447991 -0.00514492 15.02990795 0.00556566 18.3155365 0.01676941 C20.59332249 0.01796109 22.87110898 0.0184144 25.14889526 0.01815796 C29.92460706 0.01972328 34.70024394 0.02801721 39.47593689 0.04142761 C45.6086812 0.0584271 51.7413432 0.0622417 57.87410831 0.06148243 C62.5777058 0.06175386 67.28128516 0.06723065 71.98487663 0.07448387 C74.24679362 0.07767396 76.50871267 0.07963874 78.77063179 0.08037758 C81.92634228 0.08253699 85.08196409 0.09127233 88.23765564 0.10197449 C89.6504631 0.10129471 89.6504631 0.10129471 91.09181213 0.1006012 C92.37679848 0.10699867 92.37679848 0.10699867 93.68774414 0.11352539 C94.43418717 0.11520123 95.18063021 0.11687708 95.94969273 0.11860371 C97.78038025 0.24723816 97.78038025 0.24723816 99.78038025 1.24723816 C101.27194637 5.72193653 100.96475791 10.12310595 100.96788025 14.80973816 C100.98012634 15.78104675 100.99237244 16.75235535 101.00498962 17.75309753 C101.00692322 18.680578 101.00885681 19.60805847 101.010849 20.56364441 C101.01495789 21.41386169 101.01906677 22.26407898 101.02330017 23.14006042 C100.78038025 25.24723816 100.78038025 25.24723816 98.78038025 27.24723816 C96.93407536 27.49892044 96.93407536 27.49892044 94.64978027 27.50120544 C93.3521727 27.50966492 93.3521727 27.50966492 92.02835083 27.51829529 C90.60151726 27.5122226 90.60151726 27.5122226 89.14585876 27.50602722 C88.14576782 27.50953186 87.14567688 27.5130365 86.11528015 27.51664734 C82.79654579 27.52547769 79.47802318 27.51961042 76.1592865 27.51286316 C73.86004597 27.51420954 71.56080571 27.51614984 69.26156616 27.5186615 C64.43699947 27.52161462 59.61250672 27.51730945 54.78794861 27.50798035 C48.59582151 27.49659215 42.40386789 27.50314017 36.21174717 27.51512527 C31.46177864 27.52234424 26.71185139 27.52005565 21.96188164 27.51486969 C19.67846087 27.51353296 17.39503638 27.5151817 15.11161995 27.5198288 C11.92241075 27.52489385 8.73348434 27.51718361 5.54429626 27.50602722 C4.59509811 27.51007568 3.64589996 27.51412415 2.66793823 27.51829529 C1.80004669 27.51265564 0.93215515 27.50701599 0.03796387 27.50120544 C-0.71623054 27.50045139 -1.47042494 27.49969734 -2.24747372 27.49892044 C-4.21961975 27.24723816 -4.21961975 27.24723816 -7.21961975 25.24723816 C-7.60780334 22.94059753 -7.60780334 22.94059753 -7.61805725 20.09098816 C-7.62192444 19.0687616 -7.62579163 18.04653503 -7.629776 16.99333191 C-7.61817444 15.92212097 -7.60657288 14.85091003 -7.59461975 13.74723816 C-7.60622131 12.67602722 -7.61782288 11.60481628 -7.629776 10.50114441 C-7.62590881 9.47891785 -7.62204163 8.45669128 -7.61805725 7.40348816 C-7.61467346 6.46311707 -7.61128967 5.52274597 -7.60780334 4.55387878 C-7.47970276 3.79268738 -7.35160217 3.03149597 -7.21961975 2.24723816 C-4.12699808 0.18549038 -3.49349688 -0.00254833 0 0 Z M-4.2769165 4.15267944 C-5.27974668 6.38083204 -5.59359312 7.85254355 -5.582901 10.28630066 C-5.58225647 11.03137878 -5.58161194 11.77645691 -5.58094788 12.54411316 C-5.56483459 13.31239441 -5.54872131 14.08067566 -5.53211975 14.87223816 C-5.53534241 15.64825378 -5.53856506 16.42426941 -5.54188538 17.22380066 C-5.66443883 21.70965522 -5.66443883 21.70965522 -3.21961975 25.24723816 C-1.35402171 25.54980956 -1.35402171 25.54980956 0.80381775 25.50120544 C2.06572937 25.50966492 2.06572937 25.50966492 3.35313416 25.51829529 C4.27787537 25.51424683 5.20261658 25.51019836 6.15538025 25.50602722 C7.12781677 25.50953186 8.1002533 25.5130365 9.10215759 25.51664734 C12.32830365 25.52547618 15.55423182 25.5196114 18.78038025 25.51286316 C21.01475568 25.51420948 23.24913082 25.51614973 25.48350525 25.5186615 C30.17103356 25.52161433 34.85848577 25.51731 39.54600525 25.50798035 C45.56559812 25.49658577 51.58501267 25.50314439 57.604599 25.51512527 C62.21984713 25.52233957 66.83505273 25.52005792 71.45030212 25.51486969 C73.67035442 25.513532 75.89041053 25.51518505 78.11045837 25.5198288 C81.20887029 25.52488695 84.30699018 25.51719375 87.40538025 25.50602722 C88.79249207 25.51209991 88.79249207 25.51209991 90.20762634 25.51829529 C91.04890076 25.51265564 91.89017517 25.50701599 92.75694275 25.50120544 C93.8564325 25.50007437 93.8564325 25.50007437 94.97813416 25.49892044 C97.03279647 25.39649737 97.03279647 25.39649737 98.78038025 23.24723816 C99.05752921 21.11471723 99.05752921 21.11471723 98.97569275 18.67692566 C98.96924744 17.78102722 98.96280212 16.88512878 98.9561615 15.96208191 C98.93940369 15.02493347 98.92264587 14.08778503 98.90538025 13.12223816 C98.89635681 12.17735535 98.88733337 11.23247253 98.8780365 10.25895691 C98.85442547 7.92146524 98.82149541 5.58447692 98.78038025 3.24723816 C96.07617533 2.34583652 94.49688645 2.11664448 91.71934509 2.10006714 C90.48278168 2.08933418 90.48278168 2.08933418 89.22123718 2.0783844 C88.32036377 2.0756955 87.41949036 2.07300659 86.49131775 2.07023621 C85.53984863 2.06366501 84.58837952 2.05709381 83.608078 2.05032349 C80.45717798 2.03059905 77.3063255 2.01893249 74.15538025 2.00895691 C73.08068481 2.00488138 72.00598938 2.00080585 70.89872742 1.99660683 C65.2154001 1.97575417 59.53209691 1.96144644 53.84873962 1.95207214 C47.96704938 1.94098268 42.08573487 1.90655119 36.20417786 1.86690044 C31.69012221 1.84081906 27.17615746 1.83238809 22.66203308 1.82879066 C20.49302113 1.8239062 18.32401373 1.81223979 16.15507507 1.79375267 C13.12622266 1.76953166 10.09836134 1.77029451 7.06944275 1.77726746 C6.16856934 1.7644574 5.26769592 1.75164734 4.33952332 1.7384491 C-0.4343735 1.6514491 -0.4343735 1.6514491 -4.2769165 4.15267944 Z " fill="#BDC1CE" transform="translate(38.21961975097656,171.7527618408203)"/>
<path d="M0 0 C1.98 0 3.96 0 6 0 C6.042721 1.66611905 6.04063832 3.33382885 6 5 C5.67 5.33 5.34 5.66 5 6 C3.35 6 1.7 6 0 6 C0 20.52 0 35.04 0 50 C1.32 50 2.64 50 4 50 C4 52.64 4 55.28 4 58 C-1.37625234 58.84888195 -5.65370398 59.0024305 -11 58 C-11 55.36 -11 52.72 -11 50 C-9.35 50 -7.7 50 -6 50 C-6 35.48 -6 20.96 -6 6 C-14.50745658 7.36359463 -14.50745658 7.36359463 -21 11 C-34.54319671 19.72677816 -47.95983076 24.41634962 -64.0625 24.125 C-65.02349609 24.11597656 -65.98449219 24.10695313 -66.97460938 24.09765625 C-69.31667805 24.07435208 -71.65819792 24.04164058 -74 24 C-74 23.67 -74 23.34 -74 23 C-73.05640625 22.84144531 -72.1128125 22.68289063 -71.140625 22.51953125 C-58.02812892 20.13663789 -45.74409613 16.24450457 -35.78613281 6.92895508 C-32.36242821 4.55858266 -30.51388505 4.53399297 -26.38671875 4.609375 C-24.70002075 4.62436035 -24.70002075 4.62436035 -22.97924805 4.63964844 C-20.85483276 4.69427246 -20.85483276 4.69427246 -18.6875 4.75 C-14.170625 4.8325 -9.65375 4.915 -5 5 C-5 20.18 -5 35.36 -5 51 C-6.65 51 -8.3 51 -10 51 C-10 52.98 -10 54.96 -10 57 C-5.71 57 -1.42 57 3 57 C3 55.02 3 53.04 3 51 C1.68 51 0.36 51 -1 51 C-1 35.49 -1 19.98 -1 4 C0.98 4 2.96 4 5 4 C5 3.01 5 2.02 5 1 C3.35 1 1.7 1 0 1 C0 0.67 0 0.34 0 0 Z " fill="#B1B5B9" transform="translate(156,239)"/>
<path d="M0 0 C1.5 1.625 1.5 1.625 1.5 3.625 C-1.30153556 5.49269038 -2.82963987 6.04564341 -6 6.8125 C-15.65777203 9.63402933 -23.04257782 15.75268313 -30.2109375 22.609375 C-32.53608999 24.6567789 -34.73977112 26.22003898 -37.5 27.625 C-40.3125 27.3125 -40.3125 27.3125 -42.5 26.625 C-42.41106991 22.26742566 -41.88979145 19.53288658 -38.9375 16.25 C-35.13365222 12.756508 -30.7742916 10.2403937 -26.3125 7.6875 C-25.61116943 7.28547363 -24.90983887 6.88344727 -24.18725586 6.46923828 C-23.51315674 6.09911621 -22.83905762 5.72899414 -22.14453125 5.34765625 C-21.53971924 5.01515869 -20.93490723 4.68266113 -20.31176758 4.34008789 C-18.5 3.625 -18.5 3.625 -14.5 3.625 C-14.5 2.965 -14.5 2.305 -14.5 1.625 C-15.82 1.295 -17.14 0.965 -18.5 0.625 C-5.57692308 -3.06730769 -5.57692308 -3.06730769 0 0 Z " fill="#DCDFE1" transform="translate(80.5,7.375)"/>
<path d="M0 0 C1.42961311 -0.00569504 1.42961311 -0.00569504 2.8881073 -0.01150513 C6.04414587 -0.01892565 9.19926761 0.00249167 12.35522461 0.02490234 C14.54332877 0.02728577 16.731435 0.0281923 18.91954041 0.02767944 C23.5070373 0.03080994 28.09422221 0.04739586 32.68164062 0.07421875 C38.57231318 0.10821886 44.46264296 0.11584693 50.35340214 0.11432838 C54.87173252 0.11487128 59.38998744 0.12582522 63.90829277 0.14033127 C66.08089056 0.14671094 68.25349693 0.15064088 70.42610359 0.15211868 C73.45739548 0.15643814 76.48831821 0.17390932 79.51953125 0.1953125 C80.42399994 0.19440613 81.32846863 0.19349976 82.26034546 0.19256592 C88.46611393 0.25688542 88.46611393 0.25688542 90.69506836 2.48583984 C41.69006836 2.98083984 41.69006836 2.98083984 -8.30493164 3.48583984 C-8.63493164 9.75583984 -8.96493164 16.02583984 -9.30493164 22.48583984 C-10.29493164 22.15583984 -11.28493164 21.82583984 -12.30493164 21.48583984 C-12.3860081 18.73524604 -12.44545977 15.98704963 -12.49243164 13.23583984 C-12.51756836 12.45853516 -12.54270508 11.68123047 -12.56860352 10.88037109 C-12.57827148 10.12626953 -12.58793945 9.37216797 -12.59790039 8.59521484 C-12.61361084 7.90395508 -12.62932129 7.21269531 -12.64550781 6.50048828 C-11.4149227 -0.77892988 -6.08004494 -0.07572068 0 0 Z " fill="#90969C" transform="translate(45.304931640625,173.51416015625)"/>
<path d="M0 0 C0.33 0.66 0.66 1.32 1 2 C34.66 2 68.32 2 103 2 C103 2.33 103 2.66 103 3 C92.75326959 3.74750137 82.52133101 4.27831934 72.25 4.5625 C71.14943771 4.59376984 71.14943771 4.59376984 70.02664185 4.62567139 C54.83206432 5.04313027 39.63709302 5.1088518 24.4375 5.125 C22.72065002 5.12888229 22.72065002 5.12888229 20.96911621 5.13284302 C17.70724327 5.13867638 14.44546735 5.13712999 11.18359375 5.1328125 C9.70477974 5.13578087 9.70477974 5.13578087 8.1960907 5.1388092 C6.83723503 5.13414894 6.83723503 5.13414894 5.45092773 5.12939453 C4.66016342 5.12859894 3.86939911 5.12780334 3.05467224 5.12698364 C1 5 1 5 -2 4 C-2 3.01 -2 2.02 -2 1 C-1.34 0.67 -0.68 0.34 0 0 Z " fill="#E0E2E8" transform="translate(19,226)"/>
<path d="M0 0 C1.65 0 3.3 0 5 0 C5.01981934 1.0194873 5.03963867 2.03897461 5.06005859 3.08935547 C5.13602808 6.86532648 5.22475809 10.64090773 5.31738281 14.41650391 C5.35570852 16.0518424 5.39055507 17.68726624 5.421875 19.32275391 C5.46744842 21.6712091 5.52545367 24.01907495 5.5859375 26.3671875 C5.59748871 27.10057343 5.60903992 27.83395935 5.62094116 28.58956909 C5.61868097 32.74977105 5.61868097 32.74977105 8 36 C7.43181818 41.56818182 7.43181818 41.56818182 6 43 C3.0625 43.1875 3.0625 43.1875 0 43 C-2 41 -2 41 -2.1875 37.9375 C-2 35 -2 35 -1 34 C-0.84011509 31.48119483 -0.74065775 28.98657734 -0.68359375 26.46484375 C-0.66281265 25.71159317 -0.64203156 24.95834259 -0.62062073 24.18226624 C-0.55504575 21.7674401 -0.49620379 19.35250202 -0.4375 16.9375 C-0.3943223 15.30402471 -0.35070827 13.6705609 -0.30664062 12.03710938 C-0.19935638 8.02485536 -0.09811179 4.01248836 0 0 Z " fill="#F25C42" transform="translate(115,99)"/>
<path d="M0 0 C8.84385658 -0.80282848 14.3418743 -0.66370145 21.2734375 5.05078125 C25.23249021 7.8811069 29.5353017 9.3978949 34.08764648 11.04541016 C38.9087489 12.81749779 38.9087489 12.81749779 40 15 C31.79766324 17.73411225 22.54657919 15.06490357 14.94140625 11.6015625 C2.38138686 4.76277372 2.38138686 4.76277372 0 0 Z " fill="#DCDEE0" transform="translate(44,244)"/>
<path d="M0 0 C2.5 0.125 2.5 0.125 3.5 1.125 C3.6066335 2.54621022 3.64618494 3.97254676 3.65771484 5.39770508 C3.66797699 6.30567337 3.67823914 7.21364166 3.68881226 8.14912415 C3.69611359 9.13760849 3.70341492 10.12609283 3.7109375 11.14453125 C3.73900895 13.21940889 3.76767344 15.29427858 3.796875 17.36914062 C3.83814618 20.65437577 3.87501574 23.93946289 3.90136719 27.22485352 C3.92894754 30.38589535 3.97482536 33.54625233 4.0234375 36.70703125 C4.02669037 37.6894429 4.02994324 38.67185455 4.03329468 39.68403625 C4.04986115 40.60146103 4.06642761 41.5188858 4.08349609 42.46411133 C4.09562637 43.67204094 4.09562637 43.67204094 4.10800171 44.90437317 C4.59073837 47.63902282 5.77821442 48.98618147 7.5 51.125 C8.07662998 54.42002846 7.81878245 55.65320198 5.9375 58.4375 C2.60654682 60.74354451 0.4675271 60.629958 -3.5 60.125 C-5.4375 59 -5.4375 59 -6.5 57.125 C-6.6875 53.9375 -6.6875 53.9375 -6.5 51.125 C-6.21125 51.74375 -5.9225 52.3625 -5.625 53 C-4.56279958 55.25825765 -4.56279958 55.25825765 -2.5 57.125 C0.58347826 57.29181109 0.58347826 57.29181109 3.5 57.125 C4.17801034 54.22426819 4.17801034 54.22426819 4.5 51.125 C3.84 50.465 3.18 49.805 2.5 49.125 C2.32497005 46.54396694 2.26837721 44.07191837 2.3046875 41.4921875 C2.3075174 40.74035187 2.31034729 39.98851624 2.31326294 39.21389771 C2.32447126 36.80910422 2.34957648 34.40468119 2.375 32 C2.38502898 30.37109912 2.39415497 28.74219242 2.40234375 27.11328125 C2.42441265 23.11704444 2.45894649 19.12108506 2.5 15.125 C0.85 15.125 -0.8 15.125 -2.5 15.125 C-2.5 26.345 -2.5 37.565 -2.5 49.125 C-3.49 49.125 -4.48 49.125 -5.5 49.125 C-5.17 48.465 -4.84 47.805 -4.5 47.125 C-4.38715607 45.65001574 -4.33343173 44.17027962 -4.31054688 42.69116211 C-4.29382935 41.77358627 -4.27711182 40.85601044 -4.2598877 39.91062927 C-4.24631226 38.91789505 -4.23273682 37.92516083 -4.21875 36.90234375 C-4.19113586 35.378619 -4.19113586 35.378619 -4.16296387 33.82411194 C-4.08407592 29.46414997 -4.01639722 25.10402988 -3.94775391 20.74389648 C-3.89616617 17.56746441 -3.83886817 14.3911712 -3.78125 11.21484375 C-3.76767456 10.2200853 -3.75409912 9.22532684 -3.7401123 8.20042419 C-3.72339478 7.28600052 -3.70667725 6.37157684 -3.68945312 5.42944336 C-3.67692505 4.62051132 -3.66439697 3.81157928 -3.65148926 2.97813416 C-3.4140405 0.0734767 -2.92664241 0.14633212 0 0 Z " fill="#FDFDFD" transform="translate(117.5,83.875)"/>
<path d="M0 0 C3.63 0 7.26 0 11 0 C11 0.33 11 0.66 11 1 C55.055 1.495 55.055 1.495 100 2 C100 2.33 100 2.66 100 3 C79.40109623 3.99052236 58.85038882 4.12697359 38.2331543 4.06866455 C34.12874896 4.05821208 30.02433684 4.0538213 25.91992188 4.04882812 C17.94659684 4.03828117 9.97330344 4.02134397 2 4 C2 3.01 2 2.02 2 1 C1.34 0.67 0.68 0.34 0 0 Z " fill="#E7E8EC" transform="translate(15,40)"/>
<path d="M0 0 C0.99 0.495 0.99 0.495 2 1 C2.0867982 4.79152334 2.14032207 8.58279296 2.1875 12.375 C2.21263672 13.45523438 2.23777344 14.53546875 2.26367188 15.6484375 C2.27333984 16.6796875 2.28300781 17.7109375 2.29296875 18.7734375 C2.3086792 19.72653809 2.32438965 20.67963867 2.34057617 21.66162109 C2.22818604 22.43328613 2.1157959 23.20495117 2 24 C-1.0889407 26.0592938 -1.70951803 26.2491689 -5.19511414 26.24050903 C-6.47604446 26.24463303 -6.47604446 26.24463303 -7.78285217 26.24884033 C-8.71649094 26.24164978 -9.6501297 26.23445923 -10.61206055 26.22705078 C-12.09038361 26.22748886 -12.09038361 26.22748886 -13.59857178 26.22793579 C-16.8613765 26.22654066 -20.12395384 26.21097073 -23.38671875 26.1953125 C-25.64687475 26.19158302 -27.90703236 26.18873574 -30.16719055 26.18673706 C-36.12009127 26.17909547 -42.07289462 26.15944241 -48.02575684 26.1373291 C-54.09853803 26.11688203 -60.17133494 26.10773778 -66.24414062 26.09765625 C-78.16280323 26.07619707 -90.08139352 26.04205473 -102 26 C-102 25.67 -102 25.34 -102 25 C-100.79365906 24.99191315 -99.58731812 24.98382629 -98.34442139 24.97549438 C-86.98470854 24.89806377 -75.62511592 24.81033222 -64.26556015 24.71247292 C-58.42527397 24.66249276 -52.58500604 24.61616276 -46.74462891 24.578125 C-41.11004658 24.54129409 -35.47561623 24.49493991 -29.84116364 24.44193649 C-27.68977775 24.42338091 -25.53835927 24.40827728 -23.38692474 24.39665604 C-20.37725711 24.37981367 -17.36793843 24.35078315 -14.35839844 24.31884766 C-13.01943764 24.31560738 -13.01943764 24.31560738 -11.65342712 24.31230164 C-10.83175552 24.30113815 -10.01008392 24.28997467 -9.16351318 24.2784729 C-8.09607691 24.27017676 -8.09607691 24.27017676 -7.00707626 24.26171303 C-4.56263109 24.05449014 -4.56263109 24.05449014 -1 22 C-0.67 14.74 -0.34 7.48 0 0 Z " fill="#888E94" transform="translate(139,175)"/>
<path d="M0 0 C9.9 0 19.8 0 30 0 C30 1.32 30 2.64 30 4 C20.1 4 10.2 4 0 4 C0 2.68 0 1.36 0 0 Z " fill="#8C9298" transform="translate(29,70)"/>
<path d="M0 0 C9.9 0 19.8 0 30 0 C30 1.32 30 2.64 30 4 C20.1 4 10.2 4 0 4 C0 2.68 0 1.36 0 0 Z " fill="#8E949A" transform="translate(29,64)"/>
<path d="M0 0 C9.9 0 19.8 0 30 0 C30 1.32 30 2.64 30 4 C20.43 4 10.86 4 1 4 C0.67 2.68 0.34 1.36 0 0 Z " fill="#8C9298" transform="translate(28,151)"/>
<path d="M0 0 C9.57 0 19.14 0 29 0 C29.33 1.32 29.66 2.64 30 4 C20.1 4 10.2 4 0 4 C0 2.68 0 1.36 0 0 Z " fill="#8D9399" transform="translate(29,133)"/>
<path d="M0 0 C9.57 0 19.14 0 29 0 C29.33 1.32 29.66 2.64 30 4 C20.1 4 10.2 4 0 4 C0 2.68 0 1.36 0 0 Z " fill="#8E949A" transform="translate(29,93)"/>
<path d="M0 0 C9.57 0 19.14 0 29 0 C29.33 1.32 29.66 2.64 30 4 C20.1 4 10.2 4 0 4 C0 2.68 0 1.36 0 0 Z " fill="#8D9399" transform="translate(29,81)"/>
<path d="M0 0 C9.57 0 19.14 0 29 0 C29 1.32 29 2.64 29 4 C19.43 4 9.86 4 0 4 C0 2.68 0 1.36 0 0 Z " fill="#8E949A" transform="translate(29,145)"/>
<path d="M0 0 C8.61849711 1.47745665 8.61849711 1.47745665 10.2890625 3.765625 C11 6 11 6 11 11 C7.37 11 3.74 11 0 11 C0 7.37 0 3.74 0 0 Z " fill="#81868B" transform="translate(151,119)"/>
<path d="M0 0 C10.23 0 20.46 0 31 0 C31 0.99 31 1.98 31 3 C20.77 3 10.54 3 0 3 C0 2.01 0 1.02 0 0 Z " fill="#898F95" transform="translate(28,128)"/>
<path d="M0 0 C9.9 0 19.8 0 30 0 C30.33 0.99 30.66 1.98 31 3 C20.77 3 10.54 3 0 3 C0 2.01 0 1.02 0 0 Z " fill="#8A9096" transform="translate(28,139)"/>
<path d="M0 0 C9.9 0 19.8 0 30 0 C30.33 0.99 30.66 1.98 31 3 C20.77 3 10.54 3 0 3 C0 2.01 0 1.02 0 0 Z " fill="#888E94" transform="translate(28,122)"/>
<path d="M0 0 C10.23 0 20.46 0 31 0 C31 0.99 31 1.98 31 3 C21.1 3 11.2 3 1 3 C0.67 2.01 0.34 1.02 0 0 Z " fill="#888E94" transform="translate(28,88)"/>
<path d="M0 0 C9.9 0 19.8 0 30 0 C30 0.99 30 1.98 30 3 C20.1 3 10.2 3 0 3 C0 2.01 0 1.02 0 0 Z " fill="#888E94" transform="translate(29,76)"/>
<path d="M0 0 C0 2.97 0 5.94 0 9 C-3.3 9 -6.6 9 -10 9 C-10 6.36 -10 3.72 -10 1 C-8.5209084 0.83266843 -7.04172444 0.66615314 -5.5625 0.5 C-4.32693359 0.36078125 -4.32693359 0.36078125 -3.06640625 0.21875 C-1 0 -1 0 0 0 Z " fill="#8E9498" transform="translate(162,77)"/>
<path d="M0 0 C0.66 0.33 1.32 0.66 2 1 C2.0867982 4.79152334 2.14032207 8.58279296 2.1875 12.375 C2.21263672 13.45523438 2.23777344 14.53546875 2.26367188 15.6484375 C2.27333984 16.6796875 2.28300781 17.7109375 2.29296875 18.7734375 C2.3086792 19.72653809 2.32438965 20.67963867 2.34057617 21.66162109 C2.22818604 22.43328613 2.1157959 23.20495117 2 24 C-1 26 -1 26 -3.1875 25.625 C-4.0846875 25.315625 -4.0846875 25.315625 -5 25 C-4.35256836 24.61030029 -3.70513672 24.22060059 -3.03808594 23.8190918 C-0.80139584 22.17474993 -0.80139584 22.17474993 -0.45410156 19.63989258 C-0.4331543 18.73392334 -0.41220703 17.8279541 -0.390625 16.89453125 C-0.35839844 15.91162109 -0.32617188 14.92871094 -0.29296875 13.91601562 C-0.27878906 12.89185547 -0.26460937 11.86769531 -0.25 10.8125 C-0.22035156 9.77673828 -0.19070312 8.74097656 -0.16015625 7.67382812 C-0.08942755 5.11580688 -0.03674743 2.55869842 0 0 Z " fill="#8E949A" transform="translate(139,175)"/>
<path d="M0 0 C0.99 0 1.98 0 3 0 C3 5.94 3 11.88 3 18 C2.01 17.67 1.02 17.34 0 17 C0 11.39 0 5.78 0 0 Z " fill="#969BA2" transform="translate(33,178)"/>
<path d="M0 0 C2.46694247 2.08148271 3.85643482 3.28217411 4.5 6.5 C3.81895125 9.90524375 2.8520847 11.02547983 0 13 C-3.48856031 13.42841969 -5.84902396 13.66830867 -8.9375 11.875 C-10.44484863 9.214973 -10.19986253 6.99793795 -10 4 C-9.566875 4.928125 -9.566875 4.928125 -9.125 5.875 C-8.06279958 8.13325765 -8.06279958 8.13325765 -6 10 C-2.91652174 10.16681109 -2.91652174 10.16681109 0 10 C0.68493373 7.14221967 0.68493373 7.14221967 1 4 C0.34 3.01 -0.32 2.02 -1 1 C-0.67 0.67 -0.34 0.34 0 0 Z " fill="#F6F3F4" transform="translate(121,131)"/>
<path d="M0 0 C0.66 0.99 1.32 1.98 2 3 C-0.24864725 3.22245975 -2.49902623 3.42746557 -4.75 3.625 C-6.62945312 3.79902344 -6.62945312 3.79902344 -8.546875 3.9765625 C-11.83586903 3.99888599 -13.31020776 3.77961002 -16 2 C-10.46888346 0.41968099 -5.76059245 -0.4966028 0 0 Z " fill="#D0D3D7" transform="translate(78,6)"/>
<path d="M0 0 C0.28875 0.61875 0.5775 1.2375 0.875 1.875 C2.63411124 5.19776568 4.68335854 6.45223399 8 8 C5.6875 8.6875 5.6875 8.6875 3 9 C1.1875 7.9375 1.1875 7.9375 0 6 C-0.1875 2.8125 -0.1875 2.8125 0 0 Z " fill="#FAE7E4" transform="translate(111,135)"/>
</svg>
