<?xml version="1.0" encoding="UTF-8"?>
<svg version="1.1" xmlns="http://www.w3.org/2000/svg" width="202" height="146">
<path d="M0 0 C1.09570312 0.00902344 2.19140625 0.01804687 3.3203125 0.02734375 C4.58488281 0.04474609 4.58488281 0.04474609 5.875 0.0625 C6.9649778 3.6066964 7.01517343 6.92582202 7.05078125 10.62109375 C7.08655273 12.53051758 7.08655273 12.53051758 7.12304688 14.47851562 C7.1581512 16.49075425 7.18751589 18.50238489 7.20092773 20.51489258 C7.21645812 22.46718161 7.25832741 24.41920458 7.30078125 26.37109375 C7.31536377 27.53439209 7.32994629 28.69769043 7.3449707 29.89624023 C7.98305557 33.7079964 9.47216621 35.09300517 11.875 38.0625 C13.72295809 43.73537016 14.19980476 49.00275509 14.2890625 54.9375 C14.30842865 55.74743408 14.3277948 56.55736816 14.3477478 57.3918457 C14.40696002 59.94862734 14.45369246 62.50545545 14.5 65.0625 C14.53823367 66.8086121 14.57728843 68.55470642 14.6171875 70.30078125 C14.71261252 74.5545411 14.79685549 78.80838904 14.875 83.0625 C15.865 83.0625 16.855 83.0625 17.875 83.0625 C17.854375 82.11375 17.83375 81.165 17.8125 80.1875 C17.875 77.0625 17.875 77.0625 18.875 75.0625 C18.97113347 72.60438953 19.01205953 70.16940115 19.015625 67.7109375 C19.03396722 66.20441214 19.05353882 64.69790134 19.07421875 63.19140625 C19.10306602 60.82152994 19.12499687 58.45258221 19.12548828 56.08251953 C19.14771409 40.94039413 19.14771409 40.94039413 23.69921875 35.12548828 C26.4288225 30.33621259 26.00027545 24.19545139 26.25 18.8125 C26.33121094 17.54664062 26.41242188 16.28078125 26.49609375 14.9765625 C26.96158363 7.94952996 26.96158363 7.94952996 25.875 1.0625 C26.875 0.0625 26.875 0.0625 29.81640625 -0.03515625 C31.60884766 -0.01775391 31.60884766 -0.01775391 33.4375 0 C35.23380859 0.01353516 35.23380859 0.01353516 37.06640625 0.02734375 C37.99324219 0.03894531 38.92007813 0.05054688 39.875 0.0625 C39.875 1.3825 39.875 2.7025 39.875 4.0625 C40.03896242 8.18622162 40.26375892 12.30520064 40.50976562 16.42480469 C40.6241756 18.42310101 40.71841265 20.42251875 40.8125 22.421875 C40.92851562 24.32839844 40.92851562 24.32839844 41.046875 26.2734375 C41.1097168 27.43149902 41.17255859 28.58956055 41.23730469 29.78271484 C41.99020398 33.65501541 43.60607436 35.87399279 45.875 39.0625 C47.26986608 42.70496029 47.07947119 46.60166334 47.15625 50.4609375 C47.17465942 51.17351715 47.19306885 51.8860968 47.21203613 52.62026978 C47.27058866 54.8925987 47.32346178 57.16500184 47.375 59.4375 C47.44306264 62.42462311 47.51679025 65.4115319 47.59375 68.3984375 C47.60732544 69.07675629 47.62090088 69.75507507 47.6348877 70.45394897 C47.71382989 73.51067637 47.9333442 76.3998454 48.45507812 79.41650391 C48.875 82.0625 48.875 82.0625 47.875 84.0625 C49.195 84.0625 50.515 84.0625 51.875 84.0625 C51.66875 83.381875 51.4625 82.70125 51.25 82 C50.875 79.0625 50.875 79.0625 51.8515625 76.1875 C53.84663784 69.61340776 52.95013367 62.45154321 52.796875 55.66601562 C52.59373748 41.01472208 52.59373748 41.01472208 57 35.3125 C59.40438108 31.14490614 59.12316255 28.29910188 58.9453125 23.57421875 C58.85019403 18.82357978 59.22233114 14.13928159 59.6081543 9.40673828 C59.84118186 6.25208372 59.8878678 4.1011034 58.875 1.0625 C61.63952033 -0.31976016 63.9211363 -0.03275387 67 0 C68.09570312 0.00902344 69.19140625 0.01804687 70.3203125 0.02734375 C71.58488281 0.04474609 71.58488281 0.04474609 72.875 0.0625 C73.9618271 3.59036671 74.00015397 6.87202743 74.015625 10.55078125 C74.03496094 11.81470703 74.05429688 13.07863281 74.07421875 14.38085938 C74.107922 17.03174947 74.12629046 19.68288133 74.12890625 22.33398438 C74.27786756 30.04469224 74.72544133 34.26524839 79.875 40.0625 C80.77660568 42.75568164 81.01605358 45.26885752 81.08032227 48.09667969 C81.1102401 49.26744049 81.1102401 49.26744049 81.14076233 50.46185303 C81.15747482 51.29428528 81.17418732 52.12671753 81.19140625 52.984375 C81.21218735 53.84436096 81.23296844 54.70434692 81.25437927 55.59039307 C81.31963739 58.33101598 81.37864917 61.07173275 81.4375 63.8125 C81.48070781 65.6731867 81.52432282 67.53386398 81.56835938 69.39453125 C81.67529442 73.95042523 81.77662851 78.5064134 81.875 83.0625 C82.865 83.0625 83.855 83.0625 84.875 83.0625 C84.854375 82.11375 84.83375 81.165 84.8125 80.1875 C84.875 77.0625 84.875 77.0625 85.875 75.0625 C85.97113347 72.60438953 86.01205953 70.16940115 86.015625 67.7109375 C86.03396722 66.20441214 86.05353882 64.69790134 86.07421875 63.19140625 C86.10306602 60.82152994 86.12499687 58.45258221 86.12548828 56.08251953 C86.14807887 40.69187593 86.14807887 40.69187593 90.73925781 34.82226562 C92.92711964 31.43230259 92.61866858 27.54731442 92.625 23.625 C92.65880048 22.02207717 92.69525047 20.41920797 92.734375 18.81640625 C92.74791016 18.03281738 92.76144531 17.24922852 92.77539062 16.44189453 C92.90721737 13.2929155 93.30944553 10.20303669 93.76269531 7.08569336 C93.88508011 4.88090468 93.42131563 3.18594259 92.875 1.0625 C93.875 0.0625 93.875 0.0625 96.81640625 -0.03515625 C98.60884766 -0.01775391 98.60884766 -0.01775391 100.4375 0 C102.23380859 0.01353516 102.23380859 0.01353516 104.06640625 0.02734375 C104.99324219 0.03894531 105.92007813 0.05054688 106.875 0.0625 C107.205 1.3825 107.535 2.7025 107.875 4.0625 C107.215 4.0625 106.555 4.0625 105.875 4.0625 C106.00777344 4.64773437 106.14054688 5.23296875 106.27734375 5.8359375 C107.21726271 10.40517858 107.91790781 14.85415459 108.0546875 19.51953125 C108.07926025 20.2995752 108.10383301 21.07961914 108.12915039 21.88330078 C108.16720633 23.42687526 108.18555697 24.97109879 108.18139648 26.51513672 C108.2903433 30.75798376 108.73090557 33.14890304 111.37109375 36.51171875 C115.72603234 42.8141205 114.62349924 51.31877657 114.625 58.6875 C114.64672592 61.06866064 114.67531376 63.4496148 114.70733643 65.83065796 C114.72488167 67.30424094 114.73535423 68.77793155 114.73748779 70.25161743 C114.75521603 73.39256467 114.92094266 76.33371875 115.44628906 79.43505859 C115.875 82.0625 115.875 82.0625 114.875 84.0625 C115.7 83.959375 116.525 83.85625 117.375 83.75 C123.64953849 84.31022665 128.08806795 87.9320258 132.25 92.5 C136.20274586 97.49463811 137.36375241 102.40035683 137.18359375 108.6953125 C136.29953202 115.47684934 133.1996198 120.41146047 128.046875 124.7734375 C120.35415563 129.33926015 113.400122 129.49868204 104.64111328 129.46655273 C102.67372696 129.47684761 102.67372696 129.47684761 100.66659546 129.48735046 C97.08792782 129.50521263 93.50950632 129.50412651 89.93080759 129.49840808 C86.93402516 129.49530562 83.93728928 129.5014205 80.94051349 129.50744683 C73.86541319 129.52146812 66.79043369 129.51995126 59.71533203 129.50854492 C52.43753193 129.49707043 45.16010064 129.51113334 37.88234913 129.5379414 C31.61454124 129.56015739 25.34684861 129.56672242 19.07900417 129.56086498 C15.34405422 129.55750771 11.6093405 129.55982769 7.87442398 129.57711601 C3.70527349 129.59557394 -0.46316799 129.58133769 -4.63232422 129.56420898 C-6.4670932 129.57871094 -6.4670932 129.57871094 -8.33892822 129.59350586 C-16.22661008 129.52584965 -23.79507341 128.73013883 -30.03103447 123.44800472 C-34.588828 118.76658643 -37.03573171 113.0022073 -37.18359375 106.4765625 C-36.66244667 99.09179752 -34.72625693 94.32620749 -29.1875 89.3125 C-24.47787052 85.28345281 -21.40460863 83.77706324 -15.125 84.0625 C-15.310625 83.299375 -15.49625 82.53625 -15.6875 81.75 C-16.125 79.0625 -16.125 79.0625 -15.125 76.0625 C-15.04273874 73.60670045 -15.01206326 71.17423895 -15.01953125 68.71875 C-15.00605893 67.22915233 -14.99103285 65.73956806 -14.97460938 64.25 C-14.9519377 61.91749874 -14.93737055 59.58650082 -14.94995117 57.25390625 C-14.98594761 48.14778096 -14.80429407 41.23243556 -9.43945312 33.46386719 C-7.35242409 29.65108532 -7.74545491 26.02242993 -7.98046875 21.78125 C-8.15791983 18.4432513 -7.63211053 15.35871842 -7.125 12.0625 C-6.93760265 8.19923149 -6.88732639 4.77552083 -8.125 1.0625 C-5.36047967 -0.31976016 -3.0788637 -0.03275387 0 0 Z " fill="#6B7080" transform="translate(52.125,12.9375)"/>
<path d="M0 0 C1.34750308 -0.0070638 2.69499822 -0.01581076 4.04248047 -0.02610779 C7.69143689 -0.04856314 11.33995877 -0.04567091 14.98895788 -0.03678632 C18.04051772 -0.03166619 21.09199663 -0.03897746 24.14354813 -0.04625839 C31.34609659 -0.06324592 38.54843315 -0.05970415 45.75097656 -0.04296875 C53.16859048 -0.02605585 60.58561554 -0.04187262 68.00316513 -0.07419163 C74.38302032 -0.10093086 80.76269269 -0.10815168 87.14259827 -0.09967655 C90.94798037 -0.09475896 94.75300846 -0.09689873 98.55834579 -0.11746407 C102.13897031 -0.13588929 105.7187518 -0.12978076 109.29933167 -0.10526466 C111.23004977 -0.09791078 113.16081323 -0.11506026 115.09146118 -0.13308716 C122.20027451 -0.05577197 127.37009274 0.64787081 132.77783203 5.53344727 C135.6956557 9.78860679 135.43319243 15.54631447 134.77783203 20.53344727 C132.73981244 24.53670003 130.59373721 27.18960433 126.77783203 29.53344727 C124.10035133 29.91655731 124.10035133 29.91655731 120.98428345 29.92785645 C119.20944832 29.94488113 119.20944832 29.94488113 117.39875793 29.96224976 C116.10411118 29.95931915 114.80946442 29.95638855 113.47558594 29.95336914 C112.09557915 29.96071021 110.71557851 29.96929656 109.33558655 29.97903442 C105.58961789 30.00125699 101.84386917 30.00418071 98.09784365 30.00228691 C94.96916036 30.00216723 91.8405237 30.01073059 88.71185338 30.01906443 C81.32919225 30.03830169 73.94664418 30.04118139 66.56396484 30.03442383 C58.9521075 30.02778456 51.34073492 30.05064166 43.72897589 30.08773756 C37.19039831 30.1184451 30.65197658 30.12979341 24.11332834 30.12590075 C20.20959588 30.12383407 16.30624053 30.12929912 12.40257645 30.15379333 C8.73009254 30.17607544 5.0583958 30.17417157 1.38590813 30.15386581 C-0.60010141 30.1488362 -2.5861257 30.16846444 -4.57203674 30.18887329 C-14.30687782 30.09709157 -14.30687782 30.09709157 -17.94863892 27.20593262 C-21.54547104 22.97793247 -23.29407739 19.58286575 -23.09716797 13.97094727 C-21.72485705 8.5797258 -20.17644607 4.43974108 -15.30495834 1.3604908 C-10.49839526 -0.54812034 -5.09135351 -0.02644795 0 0 Z " fill="#7D90A1" transform="translate(45.22216796875,103.466552734375)"/>
<path d="M0 0 C1.09570312 0.00902344 2.19140625 0.01804687 3.3203125 0.02734375 C4.16335937 0.03894531 5.00640625 0.05054688 5.875 0.0625 C6.9649778 3.6066964 7.01517343 6.92582202 7.05078125 10.62109375 C7.07462891 11.89404297 7.09847656 13.16699219 7.12304688 14.47851562 C7.1581512 16.49075425 7.18751589 18.50238489 7.20092773 20.51489258 C7.21645812 22.46718161 7.25832741 24.41920458 7.30078125 26.37109375 C7.31536377 27.53439209 7.32994629 28.69769043 7.3449707 29.89624023 C7.98305557 33.7079964 9.47216621 35.09300517 11.875 38.0625 C13.71924293 43.69507518 14.16244849 48.79152159 14.10546875 54.68359375 C14.10478142 55.8616433 14.10478142 55.8616433 14.1040802 57.06349182 C14.10108254 58.70632458 14.09327185 60.34915513 14.08081055 61.99194336 C14.06237212 64.51751635 14.06030245 67.04272561 14.06054688 69.56835938 C14.05563754 71.16927403 14.04981178 72.77018619 14.04296875 74.37109375 C14.04185593 75.12829208 14.0407431 75.88549042 14.03959656 76.66563416 C13.99111064 81.94638936 13.99111064 81.94638936 12.875 83.0625 C10.87535018 83.15008003 8.8726389 83.16946576 6.87109375 83.16015625 C5.04868164 83.15532227 5.04868164 83.15532227 3.18945312 83.15039062 C1.91005859 83.14201172 0.63066406 83.13363281 -0.6875 83.125 C-1.97076172 83.12048828 -3.25402344 83.11597656 -4.57617188 83.11132812 C-7.75916022 83.09949545 -10.94205762 83.08301068 -14.125 83.0625 C-15.1875 81.25 -15.1875 81.25 -16.125 79.0625 C-15.795 78.0725 -15.465 77.0825 -15.125 76.0625 C-15.04273874 73.60670045 -15.01206326 71.17423895 -15.01953125 68.71875 C-15.00605893 67.22915233 -14.99103285 65.73956806 -14.97460938 64.25 C-14.9519377 61.91749874 -14.93737055 59.58650082 -14.94995117 57.25390625 C-14.98594761 48.14778096 -14.80429407 41.23243556 -9.43945312 33.46386719 C-7.35242409 29.65108532 -7.74545491 26.02242993 -7.98046875 21.78125 C-8.15791983 18.4432513 -7.63211053 15.35871842 -7.125 12.0625 C-6.93760265 8.19923149 -6.88732639 4.77552083 -8.125 1.0625 C-5.36047967 -0.31976016 -3.0788637 -0.03275387 0 0 Z " fill="#A16234" transform="translate(52.125,12.9375)"/>
<path d="M0 0 C1.09570312 0.00902344 2.19140625 0.01804687 3.3203125 0.02734375 C4.16335937 0.03894531 5.00640625 0.05054688 5.875 0.0625 C6.9618271 3.59036671 7.00015397 6.87202743 7.015625 10.55078125 C7.04462891 12.44666992 7.04462891 12.44666992 7.07421875 14.38085938 C7.107922 17.03174947 7.12629046 19.68288133 7.12890625 22.33398438 C7.27786756 30.04469224 7.72544133 34.26524839 12.875 40.0625 C14.26157562 44.1884278 14.01860565 48.42531675 14.0078125 52.73046875 C14.00924759 53.98359612 14.00924759 53.98359612 14.01071167 55.26203918 C14.01139085 57.02291947 14.00955484 58.78380229 14.00537109 60.54467773 C13.99999892 63.25054478 14.00533526 65.95624735 14.01171875 68.66210938 C14.01105832 70.3723962 14.00977788 72.08268293 14.0078125 73.79296875 C14.00983673 74.60646286 14.01186096 75.41995697 14.01394653 76.25810242 C13.98996425 81.94753575 13.98996425 81.94753575 12.875 83.0625 C10.87535018 83.15008003 8.8726389 83.16946576 6.87109375 83.16015625 C5.04868164 83.15532227 5.04868164 83.15532227 3.18945312 83.15039062 C1.91005859 83.14201172 0.63066406 83.13363281 -0.6875 83.125 C-1.97076172 83.12048828 -3.25402344 83.11597656 -4.57617188 83.11132812 C-7.75916022 83.09949545 -10.94205762 83.08301068 -14.125 83.0625 C-15.1796875 81.24633789 -15.1796875 81.24633789 -16.125 79.0625 C-15.64984569 77.46521787 -15.16646747 75.86989377 -14.640625 74.28857422 C-13.25545261 68.3084597 -14.06539628 61.76395464 -14.203125 55.66601562 C-14.40626252 41.01472208 -14.40626252 41.01472208 -10 35.3125 C-7.59561892 31.14490614 -7.87683745 28.29910188 -8.0546875 23.57421875 C-8.14980597 18.82357978 -7.77766886 14.13928159 -7.3918457 9.40673828 C-7.15881814 6.25208372 -7.1121322 4.1011034 -8.125 1.0625 C-5.36047967 -0.31976016 -3.0788637 -0.03275387 0 0 Z " fill="#A06032" transform="translate(119.125,12.9375)"/>
<path d="M0 0 C1.79244141 0.01740234 1.79244141 0.01740234 3.62109375 0.03515625 C5.41740234 0.04869141 5.41740234 0.04869141 7.25 0.0625 C8.17683594 0.07410156 9.10367188 0.08570313 10.05859375 0.09765625 C10.38859375 1.41765625 10.71859375 2.73765625 11.05859375 4.09765625 C10.39859375 4.09765625 9.73859375 4.09765625 9.05859375 4.09765625 C9.25775391 4.97550781 9.25775391 4.97550781 9.4609375 5.87109375 C10.40085646 10.44033483 11.10150156 14.88931084 11.23828125 19.5546875 C11.262854 20.33473145 11.28742676 21.11477539 11.31274414 21.91845703 C11.35080008 23.46203151 11.36915072 25.00625504 11.36499023 26.55029297 C11.47407681 30.79858303 11.99814119 33.32662099 14.56567383 36.76123047 C17.60880369 41.45097399 17.7277344 45.3338738 17.58203125 50.8125 C17.57732819 51.70884659 17.57262512 52.60519318 17.56777954 53.52870178 C17.54658487 56.36499747 17.49000578 59.19936666 17.43359375 62.03515625 C17.41707174 63.96547722 17.40272753 65.89581814 17.390625 67.82617188 C17.25469942 81.90155058 17.25469942 81.90155058 16.05859375 83.09765625 C13.98597299 83.18532737 11.91039081 83.20461498 9.8359375 83.1953125 C7.94584961 83.19047852 7.94584961 83.19047852 6.01757812 83.18554688 C4.67708266 83.17719028 3.33658787 83.16872532 1.99609375 83.16015625 C0.65169433 83.15514285 -0.69270685 83.15057967 -2.03710938 83.14648438 C-5.33858566 83.13465113 -8.63997428 83.11816596 -11.94140625 83.09765625 C-12.06640625 77.34765625 -12.06640625 77.34765625 -10.94140625 75.09765625 C-10.84527278 72.63954578 -10.80434672 70.2045574 -10.80078125 67.74609375 C-10.78243903 66.23956839 -10.76286743 64.73305759 -10.7421875 63.2265625 C-10.71334023 60.85668619 -10.69140938 58.48773846 -10.69091797 56.11767578 C-10.66832738 40.72703218 -10.66832738 40.72703218 -6.07714844 34.85742188 C-3.88928661 31.46745884 -4.19773767 27.58247067 -4.19140625 23.66015625 C-4.15760577 22.05723342 -4.12115578 20.45436422 -4.08203125 18.8515625 C-4.06849609 18.06797363 -4.05496094 17.28438477 -4.04101562 16.47705078 C-3.90918888 13.32807175 -3.50696072 10.23819294 -3.05371094 7.12084961 C-2.93132614 4.91606093 -3.39509062 3.22109884 -3.94140625 1.09765625 C-2.94140625 0.09765625 -2.94140625 0.09765625 0 0 Z " fill="#A16336" transform="translate(148.94140625,12.90234375)"/>
<path d="M0 0 C1.79244141 0.01740234 1.79244141 0.01740234 3.62109375 0.03515625 C5.41740234 0.04869141 5.41740234 0.04869141 7.25 0.0625 C8.17683594 0.07410156 9.10367188 0.08570313 10.05859375 0.09765625 C10.05859375 1.41765625 10.05859375 2.73765625 10.05859375 4.09765625 C10.22255617 8.22137787 10.44735267 12.34035689 10.69335938 16.45996094 C10.80776935 18.45825726 10.9020064 20.457675 10.99609375 22.45703125 C11.0734375 23.72804688 11.15078125 24.9990625 11.23046875 26.30859375 C11.29331055 27.46665527 11.35615234 28.6247168 11.42089844 29.81787109 C12.17379773 33.69017166 13.78966811 35.90914904 16.05859375 39.09765625 C17.36333569 43.22467302 17.32262566 47.43774617 17.4453125 51.73046875 C17.47083694 52.56351532 17.49636139 53.39656189 17.5226593 54.25485229 C17.57455809 56.01146625 17.62399776 57.76815437 17.67114258 59.52490234 C17.74602453 62.2201648 17.83659907 64.91461936 17.92773438 67.609375 C17.97622483 69.31637913 18.02378306 71.02341004 18.0703125 72.73046875 C18.0993718 73.53880157 18.12843109 74.3471344 18.15837097 75.17996216 C18.20306584 77.15230088 18.14016527 79.12649828 18.05859375 81.09765625 C16.05859375 83.09765625 16.05859375 83.09765625 13.26123047 83.32470703 C11.51737061 83.30899658 11.51737061 83.30899658 9.73828125 83.29296875 C7.85302734 83.28330078 7.85302734 83.28330078 5.9296875 83.2734375 C4.61097656 83.25667969 3.29226562 83.23992187 1.93359375 83.22265625 C0.59375654 83.21262608 -0.74608777 83.20350029 -2.0859375 83.1953125 C-5.37127198 83.171677 -8.6562509 83.13872859 -11.94140625 83.09765625 C-12.06640625 77.34765625 -12.06640625 77.34765625 -10.94140625 75.09765625 C-10.84527278 72.63954578 -10.80434672 70.2045574 -10.80078125 67.74609375 C-10.78243903 66.23956839 -10.76286743 64.73305759 -10.7421875 63.2265625 C-10.71334023 60.85668619 -10.69140938 58.48773846 -10.69091797 56.11767578 C-10.66869216 40.97555038 -10.66869216 40.97555038 -6.1171875 35.16064453 C-3.38758375 30.37136884 -3.8161308 24.23060764 -3.56640625 18.84765625 C-3.48519531 17.58179687 -3.40398437 16.3159375 -3.3203125 15.01171875 C-2.85482262 7.98468621 -2.85482262 7.98468621 -3.94140625 1.09765625 C-2.94140625 0.09765625 -2.94140625 0.09765625 0 0 Z " fill="#A16235" transform="translate(81.94140625,12.90234375)"/>
<path d="M0 0 C1.15371597 -0.00997513 2.30743195 -0.01995026 3.49610901 -0.03022766 C5.3966806 -0.03122467 5.3966806 -0.03122467 7.33564758 -0.03224182 C8.68270325 -0.03986299 10.02975456 -0.04829041 11.37680054 -0.0574646 C15.03820866 -0.07942706 18.69953326 -0.08821138 22.36099982 -0.09329104 C24.65010872 -0.09693405 26.93919573 -0.10317396 29.22829628 -0.11029243 C37.21916794 -0.13479774 45.20997465 -0.14784013 53.20088196 -0.15138245 C60.64054898 -0.15501355 68.07980238 -0.18487524 75.51934308 -0.22678703 C81.91184671 -0.26153288 88.30421364 -0.27693166 94.69681102 -0.27762848 C98.51233814 -0.27842016 102.32744448 -0.28710708 106.14287376 -0.31562614 C109.73571254 -0.34187941 113.32778403 -0.34397254 116.92067528 -0.3279705 C118.8586193 -0.32530263 120.79654884 -0.34729285 122.73435974 -0.37016296 C129.8107047 -0.31100043 135.11035743 0.32177993 140.45405579 5.27415466 C142.47635608 8.64465516 142.67625919 11.38559513 142.45405579 15.27415466 C139.20405579 15.64915466 139.20405579 15.64915466 135.45405579 15.27415466 C134.10127464 13.28725735 132.76837273 11.28670249 131.45405579 9.27415466 C128.01068805 7.94866635 128.01068805 7.94866635 124.45405579 8.27415466 C121.50832973 10.44468965 120.61344638 11.79598289 119.45405579 15.27415466 C117.20405579 15.64915466 117.20405579 15.64915466 114.45405579 15.27415466 C113.83530579 14.30477966 113.21655579 13.33540466 112.57905579 12.33665466 C110.69620519 8.96085576 110.69620519 8.96085576 106.95405579 8.14915466 C103.43260005 7.94545024 103.43260005 7.94545024 101.07905579 10.02415466 C99.29175425 12.26258289 99.29175425 12.26258289 98.45405579 15.27415466 C96.47405579 15.27415466 94.49405579 15.27415466 92.45405579 15.27415466 C92.05186829 14.09852966 92.05186829 14.09852966 91.64155579 12.89915466 C90.60591147 9.99300544 90.60591147 9.99300544 87.45405579 8.27415466 C83.95145496 8.11932027 83.95145496 8.11932027 80.45405579 9.27415466 C77.97757502 12.19459169 77.97757502 12.19459169 76.45405579 15.27415466 C74.07905579 15.02415466 74.07905579 15.02415466 71.45405579 14.27415466 C70.32905579 12.33665466 70.32905579 12.33665466 69.45405579 10.27415466 C66.57828552 7.95635768 66.57828552 7.95635768 63.01655579 8.27415466 C59.21002434 8.96793747 59.21002434 8.96793747 57.01655579 12.33665466 C56.24311829 13.79071716 56.24311829 13.79071716 55.45405579 15.27415466 C53.07905579 15.02415466 53.07905579 15.02415466 50.45405579 14.27415466 C49.32905579 12.33665466 49.32905579 12.33665466 48.45405579 10.27415466 C45.56961833 7.95057955 45.56961833 7.95057955 41.95405579 8.27415466 C38.19766198 8.92739377 38.19766198 8.92739377 36.51655579 12.33665466 C36.16593079 13.30602966 35.81530579 14.27540466 35.45405579 15.27415466 C33.47405579 15.27415466 31.49405579 15.27415466 29.45405579 15.27415466 C29.39218079 14.49040466 29.33030579 13.70665466 29.26655579 12.89915466 C28.7144678 10.10650705 28.7144678 10.10650705 26.26655579 8.89915466 C22.80564651 8.13006371 20.82551137 8.1264251 17.45405579 9.27415466 C16.11134758 11.26787291 14.77752084 13.26761086 13.45405579 15.27415466 C10.70405579 15.64915466 10.70405579 15.64915466 8.45405579 15.27415466 C8.39218079 14.49040466 8.33030579 13.70665466 8.26655579 12.89915466 C7.7144678 10.10650705 7.7144678 10.10650705 5.26655579 8.89915466 C1.80564651 8.13006371 -0.17448863 8.1264251 -3.54594421 9.27415466 C-4.18531921 10.28477966 -4.82469421 11.29540466 -5.48344421 12.33665466 C-6.16406921 13.30602966 -6.84469421 14.27540466 -7.54594421 15.27415466 C-11.29594421 15.64915466 -11.29594421 15.64915466 -14.54594421 15.27415466 C-14.17807349 8.03936379 -14.17807349 8.03936379 -11.17094421 4.39915466 C-7.14499832 1.14005561 -5.13639183 0.02377973 0 0 Z " fill="#91A4B5" transform="translate(37.54594421386719,103.72584533691406)"/>
<path d="M0 0 C2.97 0 5.94 0 9 0 C9 0.66 9 1.32 9 2 C6.69 2 4.38 2 2 2 C2 10.58 2 19.16 2 28 C4.31 28 6.62 28 9 28 C9 28.66 9 29.32 9 30 C6.69 30 4.38 30 2 30 C2.33 43.2 2.66 56.4 3 70 C7.95 70.33 12.9 70.66 18 71 C19 72 19 72 19.125 75 C19 78 19 78 18 79 C16.00035018 79.08758003 13.9976389 79.10696576 11.99609375 79.09765625 C10.17368164 79.09282227 10.17368164 79.09282227 8.31445312 79.08789062 C7.03505859 79.07951172 5.75566406 79.07113281 4.4375 79.0625 C3.15423828 79.05798828 1.87097656 79.05347656 0.54882812 79.04882812 C-2.63416022 79.03699545 -5.81705762 79.02051068 -9 79 C-10.0625 77.1875 -10.0625 77.1875 -11 75 C-10.67 74.01 -10.34 73.02 -10 72 C-9.91773874 69.54420045 -9.88706326 67.11173895 -9.89453125 64.65625 C-9.88105893 63.16665233 -9.86603285 61.67706806 -9.84960938 60.1875 C-9.8269377 57.85499874 -9.81237055 55.52400082 -9.82495117 53.19140625 C-9.86103842 44.06230884 -9.66228767 37.1503976 -4.30224609 29.35253906 C-2.27399605 25.6884563 -2.74689 22.35808006 -2.98828125 18.28125 C-3.01050721 12.05798077 -1.3868008 6.04248918 0 0 Z " fill="#8F4F2D" transform="translate(47,17)"/>
<path d="M0 0 C2.97 0 5.94 0 9 0 C9 0.33 9 0.66 9 1 C7.02 1.33 5.04 1.66 3 2 C2.67 10.58 2.34 19.16 2 28 C4.31 28 6.62 28 9 28 C9 28.66 9 29.32 9 30 C6.69 30 4.38 30 2 30 C2 43.53 2 57.06 2 71 C6.95 71 11.9 71 17 71 C17.66 71.33 18.32 71.66 19 72 C19.04254356 73.99954746 19.04080783 76.00041636 19 78 C18 79 18 79 15.40795898 79.11352539 C14.28204346 79.10828857 13.15612793 79.10305176 11.99609375 79.09765625 C10.17368164 79.09282227 10.17368164 79.09282227 8.31445312 79.08789062 C7.03505859 79.07951172 5.75566406 79.07113281 4.4375 79.0625 C3.15423828 79.05798828 1.87097656 79.05347656 0.54882812 79.04882812 C-2.63416022 79.03699545 -5.81705762 79.02051068 -9 79 C-10.0546875 77.18383789 -10.0546875 77.18383789 -11 75 C-10.52484569 73.40271787 -10.04146747 71.80739377 -9.515625 70.22607422 C-8.13045261 64.2459597 -8.94039628 57.70145464 -9.078125 51.60351562 C-9.28126252 36.95222208 -9.28126252 36.95222208 -4.875 31.25 C-2.44647108 27.04054987 -2.81546788 24.07976527 -2.98828125 19.3125 C-3.01118519 12.83832042 -2.04973399 6.14920197 0 0 Z " fill="#8D4C29" transform="translate(114,17)"/>
<path d="M0 0 C2.97 0 5.94 0 9 0 C9 0.66 9 1.32 9 2 C6.69 2 4.38 2 2 2 C2 10.58 2 19.16 2 28 C4.64 28 7.28 28 10 28 C10 28.66 10 29.32 10 30 C7.36 30 4.72 30 2 30 C2.33 43.2 2.66 56.4 3 70 C7.95 70.33 12.9 70.66 18 71 C18.66 71.33 19.32 71.66 20 72 C20.125 74.375 20.125 74.375 20 77 C18 79 18 79 15.20263672 79.22705078 C13.45877686 79.21134033 13.45877686 79.21134033 11.6796875 79.1953125 C9.79443359 79.18564453 9.79443359 79.18564453 7.87109375 79.17578125 C6.55238281 79.15902344 5.23367187 79.14226562 3.875 79.125 C2.53516279 79.11496983 1.19531848 79.10584404 -0.14453125 79.09765625 C-3.42986573 79.07402075 -6.71484465 79.04107234 -10 79 C-10.125 73.25 -10.125 73.25 -9 71 C-8.90386653 68.54188953 -8.86294047 66.10690115 -8.859375 63.6484375 C-8.84103278 62.14191214 -8.82146118 60.63540134 -8.80078125 59.12890625 C-8.77193398 56.75902994 -8.75000313 54.39008221 -8.74951172 52.02001953 C-8.72725846 36.85919208 -8.72725846 36.85919208 -4.16699219 31.04052734 C-1.49610335 26.37038322 -1.96235866 20.37808255 -1.75 15.125 C-1.62290916 12.68993946 -1.49285738 10.25503104 -1.359375 7.8203125 C-1.31264648 6.75055176 -1.26591797 5.68079102 -1.21777344 4.57861328 C-1 2 -1 2 0 0 Z " fill="#8C4A28" transform="translate(80,17)"/>
<path d="M0 0 C2.97 0 5.94 0 9 0 C9 0.33 9 0.66 9 1 C6.69 1.33 4.38 1.66 2 2 C2 10.58 2 19.16 2 28 C4.64 28 7.28 28 10 28 C10 28.66 10 29.32 10 30 C7.36 30 4.72 30 2 30 C2.33 43.2 2.66 56.4 3 70 C7.95 70.33 12.9 70.66 18 71 C19 72 19 72 19.125 75 C19 78 19 78 18 79 C15.92737924 79.08767112 13.85179706 79.10695873 11.77734375 79.09765625 C9.88725586 79.09282227 9.88725586 79.09282227 7.95898438 79.08789062 C6.61848891 79.07953403 5.27799412 79.07106907 3.9375 79.0625 C2.59310058 79.0574866 1.2486994 79.05292342 -0.09570312 79.04882812 C-3.39717941 79.03699488 -6.69856803 79.02050971 -10 79 C-10.125 73.25 -10.125 73.25 -9 71 C-8.90386653 68.54188953 -8.86294047 66.10690115 -8.859375 63.6484375 C-8.84103278 62.14191214 -8.82146118 60.63540134 -8.80078125 59.12890625 C-8.77193398 56.75902994 -8.75000313 54.39008221 -8.74951172 52.02001953 C-8.72692226 36.63014321 -8.72692226 36.63014321 -4.13134766 30.75537109 C-1.95637655 27.38073962 -2.30266806 23.52513291 -2.3125 19.625 C-2.27376687 17.95428952 -2.22954333 16.28369682 -2.1796875 14.61328125 C-2.14633301 13.423396 -2.14633301 13.423396 -2.11230469 12.20947266 C-1.89887664 8.0105078 -1.00104416 4.07091292 0 0 Z " fill="#8C4A27" transform="translate(147,17)"/>
<path d="M0 0 C1.9375 1.125 1.9375 1.125 3 3 C3.49573337 6.89504791 3.58016848 9.09493717 1.4375 12.4375 C-1.96719488 14.61999672 -4.03430012 14.63734462 -8 14 C-10.5 11.9375 -10.5 11.9375 -12 9 C-12 5.19715329 -11.7968187 2.98069994 -9.375 0 C-5.91616747 -1.45635054 -3.58701629 -0.91305869 0 0 Z " fill="#5B6275" transform="translate(148,112)"/>
<path d="M0 0 C2.875 2.0625 2.875 2.0625 5 5 C5 8.54361243 4.65850044 10.86591591 2.875 13.9375 C-0.18452459 15.6712306 -2.56817525 15.42145216 -6 15 C-8.4375 13.4375 -8.4375 13.4375 -10 11 C-10.5625 7.5 -10.5625 7.5 -10 4 C-6.99746894 0.65432253 -4.50513222 -1.01365475 0 0 Z " fill="#5C6275" transform="translate(125,111)"/>
<path d="M0 0 C3.30729372 2.49884415 4.80598648 3.94370415 5.5625 8.0625 C5 11 5 11 3.4375 13.375 C0.04129157 15.63913895 -2.00099302 15.64269755 -6 15 C-8.5 12.9375 -8.5 12.9375 -10 10 C-10 6.15050705 -9.86589381 3.95866815 -7.25 1.0625 C-4.45370167 -0.25797421 -3.05488134 -0.59607441 0 0 Z " fill="#5B6275" transform="translate(83,111)"/>
<path d="M0 0 C3.42641601 1.16643949 4.94029949 1.96425523 6.9375 5 C6.87663078 8.46954545 6.5649029 10.91947278 4.8125 13.9375 C1.75297541 15.6712306 -0.63067525 15.42145216 -4.0625 15 C-6.5 13.4375 -6.5 13.4375 -8.0625 11 C-8.625 7.5 -8.625 7.5 -8.0625 4 C-5.42319379 0.89493388 -4.09839632 0 0 0 Z " fill="#5B6275" transform="translate(60.0625,111)"/>
<path d="M0 0 C1.9375 1.125 1.9375 1.125 3 3 C3.49573337 6.89504791 3.58016848 9.09493717 1.4375 12.4375 C-1.90506283 14.58016848 -4.10495209 14.49573337 -8 14 C-10.1642907 12.40183163 -10.89960563 11.49925851 -11.43359375 8.84375 C-11.44399361 2.60383132 -11.44399361 2.60383132 -9.4375 -0.125 C-5.94353963 -1.37924218 -3.56256295 -0.90683421 0 0 Z " fill="#5B6275" transform="translate(169,112)"/>
<path d="M0 0 C2.3125 0.9375 2.3125 0.9375 4 3 C4.51330758 6.06273524 4.61308923 8.95112384 4 12 C2.6875 13.7578125 2.6875 13.7578125 1 15 C-2.57400356 15.3898913 -5.09763163 15.37020241 -8.4375 14 C-10.46098457 11.40993975 -10.62026024 9.18263607 -10.453125 5.94140625 C-10 4 -10 4 -7.8125 1.5 C-4.7706716 -0.12230848 -3.37391202 -0.60557395 0 0 Z " fill="#5C6375" transform="translate(104,111)"/>
<path d="M0 0 C0.99 0.66 1.98 1.32 3 2 C3.39307503 6.06177529 3.52833811 8.75685151 1.9375 12.5 C0 14 0 14 -3.4375 14.5 C-7 14 -7 14 -9.4375 12.4375 C-11.61999672 9.03280512 -11.63734462 6.96569988 -11 3 C-7.49431284 -1.12433783 -5.09668729 -1.5511657 0 0 Z " fill="#5B6275" transform="translate(42,112)"/>
<path d="M0 0 C1.09570312 0.00902344 2.19140625 0.01804687 3.3203125 0.02734375 C4.16335937 0.03894531 5.00640625 0.05054688 5.875 0.0625 C6.97328769 3.60438278 6.98945011 6.8834762 6.97265625 10.578125 C6.96943359 11.82851563 6.96621094 13.07890625 6.96289062 14.3671875 C6.95451172 15.66914063 6.94613281 16.97109375 6.9375 18.3125 C6.93298828 19.62992188 6.92847656 20.94734375 6.92382812 22.3046875 C6.91204316 25.55733741 6.89559011 28.80989584 6.875 32.0625 C6.215 32.0625 5.555 32.0625 4.875 32.0625 C4.875 22.4925 4.875 12.9225 4.875 3.0625 C-1.065 3.5575 -1.065 3.5575 -7.125 4.0625 C-7.455 3.0725 -7.785 2.0825 -8.125 1.0625 C-5.36047967 -0.31976016 -3.0788637 -0.03275387 0 0 Z " fill="#E5C587" transform="translate(119.125,12.9375)"/>
<path d="M0 0 C1.09570312 0.00902344 2.19140625 0.01804687 3.3203125 0.02734375 C4.16335937 0.03894531 5.00640625 0.05054688 5.875 0.0625 C6.97328769 3.60438278 6.98945011 6.8834762 6.97265625 10.578125 C6.96943359 11.82851563 6.96621094 13.07890625 6.96289062 14.3671875 C6.95451172 15.66914063 6.94613281 16.97109375 6.9375 18.3125 C6.93298828 19.62992188 6.92847656 20.94734375 6.92382812 22.3046875 C6.91204316 25.55733741 6.89559011 28.80989584 6.875 32.0625 C6.545 32.0625 6.215 32.0625 5.875 32.0625 C5.545 22.4925 5.215 12.9225 4.875 3.0625 C-1.065 3.5575 -1.065 3.5575 -7.125 4.0625 C-7.455 3.0725 -7.785 2.0825 -8.125 1.0625 C-5.36047967 -0.31976016 -3.0788637 -0.03275387 0 0 Z " fill="#F7DE9B" transform="translate(52.125,12.9375)"/>
<path d="M0 0 C2.5625 0.1875 2.5625 0.1875 4.5625 2.1875 C4.00694444 6.74305556 4.00694444 6.74305556 2.5625 8.1875 C0.89632885 8.22813832 -0.77138095 8.230221 -2.4375 8.1875 C-2.81813221 5.8614143 -3.15019945 3.52694736 -3.4375 1.1875 C-2.4375 0.1875 -2.4375 0.1875 0 0 Z " fill="#BE782A" transform="translate(123.4375,50.8125)"/>
<path d="M0 0 C1.2065625 0.0309375 1.2065625 0.0309375 2.4375 0.0625 C2.81813221 2.3885857 3.15019945 4.72305264 3.4375 7.0625 C2.4375 8.0625 2.4375 8.0625 0 8.25 C-2.5625 8.0625 -2.5625 8.0625 -4.5625 6.0625 C-3.83457637 0.09352625 -3.83457637 0.09352625 0 0 Z " fill="#BE792A" transform="translate(90.5625,50.9375)"/>
<path d="M0 0 C1.67542976 0.28604898 3.34385343 0.61781233 5 1 C6.125 5.75 6.125 5.75 5 8 C2.625 8.125 2.625 8.125 0 8 C-0.66 7.34 -1.32 6.68 -2 6 C-1.44444444 1.44444444 -1.44444444 1.44444444 0 0 Z " fill="#BF792A" transform="translate(155,51)"/>
<path d="M0 0 C2.625 0.375 2.625 0.375 5 1 C5.625 3.375 5.625 3.375 6 6 C4 8 4 8 1.375 8.125 C0.59125 8.08375 -0.1925 8.0425 -1 8 C-1.625 5.125 -1.625 5.125 -2 2 C-1.34 1.34 -0.68 0.68 0 0 Z " fill="#C07A2A" transform="translate(55,51)"/>
<path d="M0 0 C1.79244141 0.01740234 1.79244141 0.01740234 3.62109375 0.03515625 C5.41740234 0.04869141 5.41740234 0.04869141 7.25 0.0625 C8.17683594 0.07410156 9.10367188 0.08570313 10.05859375 0.09765625 C10.38859375 1.41765625 10.71859375 2.73765625 11.05859375 4.09765625 C10.39859375 4.09765625 9.73859375 4.09765625 9.05859375 4.09765625 C8.72859375 4.75765625 8.39859375 5.41765625 8.05859375 6.09765625 C8.05859375 5.10765625 8.05859375 4.11765625 8.05859375 3.09765625 C4.75859375 3.09765625 1.45859375 3.09765625 -1.94140625 3.09765625 C-2.27140625 3.75765625 -2.60140625 4.41765625 -2.94140625 5.09765625 C-3.50390625 3.16015625 -3.50390625 3.16015625 -3.94140625 1.09765625 C-2.94140625 0.09765625 -2.94140625 0.09765625 0 0 Z " fill="#FCDD7D" transform="translate(148.94140625,12.90234375)"/>
<path d="M0 0 C1.79244141 0.01740234 1.79244141 0.01740234 3.62109375 0.03515625 C5.41740234 0.04869141 5.41740234 0.04869141 7.25 0.0625 C8.17683594 0.07410156 9.10367188 0.08570313 10.05859375 0.09765625 C10.05859375 4.09765625 10.05859375 4.09765625 8.05859375 7.09765625 C8.05859375 5.77765625 8.05859375 4.45765625 8.05859375 3.09765625 C4.75859375 3.09765625 1.45859375 3.09765625 -1.94140625 3.09765625 C-2.27140625 3.75765625 -2.60140625 4.41765625 -2.94140625 5.09765625 C-3.50390625 3.16015625 -3.50390625 3.16015625 -3.94140625 1.09765625 C-2.94140625 0.09765625 -2.94140625 0.09765625 0 0 Z " fill="#FCDC7C" transform="translate(81.94140625,12.90234375)"/>
<path d="M0 0 C2.97 0 5.94 0 9 0 C9 0.66 9 1.32 9 2 C6.69 2 4.38 2 2 2 C2 10.58 2 19.16 2 28 C1.67 28 1.34 28 1 28 C0.97494385 27.34926514 0.9498877 26.69853027 0.92407227 26.02807617 C0.80806298 23.08101954 0.68535885 20.1342787 0.5625 17.1875 C0.52318359 16.16333984 0.48386719 15.13917969 0.44335938 14.08398438 C0.40146484 13.10107422 0.35957031 12.11816406 0.31640625 11.10546875 C0.26141968 9.74651489 0.26141968 9.74651489 0.20532227 8.36010742 C0.0791795 5.84951218 0.0791795 5.84951218 -1 3 C-0.67 2.01 -0.34 1.02 0 0 Z " fill="#8F4C22" transform="translate(47,17)"/>
<path d="M0 0 C1.98 0.495 1.98 0.495 4 1 C4 2.32 4 3.64 4 5 C2.35 4.67 0.7 4.34 -1 4 C-0.67 2.68 -0.34 1.36 0 0 Z " fill="#BD782A" transform="translate(124,61)"/>
<path d="M0 0 C1.98 0.495 1.98 0.495 4 1 C3.67 2.32 3.34 3.64 3 5 C1.68 5 0.36 5 -1 5 C-0.67 3.35 -0.34 1.7 0 0 Z " fill="#BD7729" transform="translate(158,61)"/>
<path d="M0 0 C1.98 0.495 1.98 0.495 4 1 C3.67 2.32 3.34 3.64 3 5 C1.68 5 0.36 5 -1 5 C-0.67 3.35 -0.34 1.7 0 0 Z " fill="#BD7729" transform="translate(91,61)"/>
<path d="M0 0 C1.98 0.495 1.98 0.495 4 1 C4 2.32 4 3.64 4 5 C2.35 4.67 0.7 4.34 -1 4 C-0.67 2.68 -0.34 1.36 0 0 Z " fill="#BD7729" transform="translate(57,61)"/>
<path d="M0 0 C2.97 0 5.94 0 9 0 C9 0.66 9 1.32 9 2 C7.329375 2.2165625 7.329375 2.2165625 5.625 2.4375 C2.17857953 2.78372035 2.17857953 2.78372035 0 4 C0 2.68 0 1.36 0 0 Z " fill="#88441E" transform="translate(47,17)"/>
</svg>
